<svg width="72" height="72" viewBox="0 0 72 72" fill="none" xmlns="http://www.w3.org/2000/svg">
<path d="M65.7623 39.795C65.9192 38.5521 66 37.2855 66 36C66 19.4315 52.5685 6 36 6C19.4315 6 6 19.4315 6 36C6 52.5685 19.4315 66 36 66C37.3062 66 38.5929 65.9165 39.8551 65.7546M36 18V36L47.2151 41.6076" stroke="#F7C948" stroke-width="3" stroke-linecap="round" stroke-linejoin="round"/>
<path fill-rule="evenodd" clip-rule="evenodd" d="M55.8977 46.6648C55.6781 46.4451 55.3219 46.4451 55.1023 46.6648C54.8826 46.8844 54.8826 47.2406 55.1023 47.4602C55.3219 47.6799 55.6781 47.6799 55.8977 47.4602C56.1174 47.2406 56.1174 46.8844 55.8977 46.6648ZM53.5113 45.0738C54.6096 43.9754 56.3904 43.9754 57.4887 45.0738C58.0002 45.5852 58.2735 46.2446 58.3086 46.9142L62.4814 48.479C62.4913 48.4689 62.5012 48.4588 62.5113 48.4488C63.6096 47.3504 65.3904 47.3504 66.4887 48.4488C67.5871 49.5471 67.5871 51.3279 66.4887 52.4262C65.3904 53.5246 63.6096 53.5246 62.5113 52.4262C61.9998 51.9148 61.7265 51.2554 61.6914 50.5858L57.5186 49.021C57.5087 49.0311 57.4988 49.0412 57.4887 49.0512C56.5738 49.9662 55.1853 50.119 54.1122 49.5096L49.2375 53.1656C49.4532 54.0824 49.2036 55.0864 48.4887 55.8012C47.3904 56.8996 45.6096 56.8996 44.5113 55.8012C43.4129 54.7029 43.4129 52.9221 44.5113 51.8238C45.4262 50.9088 46.8147 50.756 47.8878 51.3654L52.7625 47.7094C52.5468 46.7926 52.7964 45.7886 53.5113 45.0738ZM64.8977 50.0398C64.6781 49.8201 64.3219 49.8201 64.1023 50.0398C63.8826 50.2594 63.8826 50.6156 64.1023 50.8352C64.3219 51.0549 64.6781 51.0549 64.8977 50.8352C65.1174 50.6156 65.1174 50.2594 64.8977 50.0398ZM46.8977 53.4148C46.6781 53.1951 46.3219 53.1951 46.1023 53.4148C45.8826 53.6344 45.8826 53.9906 46.1023 54.2102C46.3219 54.4299 46.6781 54.4299 46.8977 54.2102C47.1174 53.9906 47.1174 53.6344 46.8977 53.4148ZM55.5 52.125C56.1213 52.125 56.625 52.6287 56.625 53.25V64.5C56.625 65.1213 56.1213 65.625 55.5 65.625C54.8787 65.625 54.375 65.1213 54.375 64.5V53.25C54.375 52.6287 54.8787 52.125 55.5 52.125ZM64.5 55.5C65.1213 55.5 65.625 56.0037 65.625 56.625V64.5C65.625 65.1213 65.1213 65.625 64.5 65.625C63.8787 65.625 63.375 65.1213 63.375 64.5V56.625C63.375 56.0037 63.8787 55.5 64.5 55.5ZM46.5 58.875C47.1213 58.875 47.625 59.3787 47.625 60L47.625 64.5C47.625 65.1213 47.1213 65.625 46.5 65.625C45.8787 65.625 45.375 65.1213 45.375 64.5L45.375 60C45.375 59.3787 45.8787 58.875 46.5 58.875Z" fill="#F7C948" stroke="#F7C948" stroke-width="0.1" stroke-linecap="round" stroke-linejoin="round"/>
</svg>
