<svg width="353" height="353" viewBox="0 0 353 353" fill="none" xmlns="http://www.w3.org/2000/svg">
<path d="M182.507 19.9211C200.781 20.3884 219.453 24.9619 236.085 32.5271C239.582 34.1168 252.83 40.5995 254.393 43.3656C256.603 47.276 253.336 52.9479 248.75 52.4067C246.048 52.0871 235.371 45.2609 231.698 43.5733C216.155 36.4315 199.577 32.6329 182.509 31.5205V50.2997C208.808 51.7915 233.092 62.4363 252.919 79.5339L274.571 57.6332C275.51 54.3519 269.031 38.3767 268.662 33.3799C268.553 31.904 268.774 30.6478 269.496 29.3596L294.926 4.15762C298.582 3.21897 301.271 4.70884 302.505 8.17788C303.925 12.1682 306.714 30.9194 308.113 32.3613L332.956 38.2749C337.006 41.0269 337.677 44.1105 334.739 48.1068C331.944 51.9094 316.301 67.6589 312.524 70.4748C311.072 71.5573 309.37 72.5339 307.454 72.2822L284.15 65.9014L281.843 67.1995L211.297 138.104L210.183 140.373C233.711 174.003 201.826 217.794 162.622 204.813C147.946 199.954 136.073 184.873 134.797 169.314C131.77 132.38 171.932 110.178 201.709 131.25L243.424 89.268L243.871 87.3767C229.446 75.5556 213.092 67.0118 194.592 63.8203C88.6685 45.5425 30.1291 182.047 113.986 246.595C197.02 310.512 310.336 223.143 270.527 124.875C268.724 120.425 265.156 116.152 265.917 111.356C266.356 108.592 269.535 106.889 272.138 107.198C276.047 107.66 278.011 112.675 279.518 115.824C284.483 126.191 287.672 138.15 289.378 149.528C289.848 152.667 289.596 156.53 290.84 159.102H308.668C308.285 135.462 300.266 112.335 287.936 92.4334C286.829 86.9593 291.77 83.0788 296.805 85.715C299.288 87.0172 306.006 100.43 307.494 103.673C315.414 120.939 319.891 140.057 320.736 159.102H335.82C338.008 159.102 340.539 163.164 340.45 165.405C340.339 168.163 336.764 171.253 334.176 171.253H320.738C319.095 213.904 298.042 254.29 264.731 280.275C253.84 288.771 241.667 295.1 229.171 300.836C228.786 302.094 235.891 321.841 236.256 326.181C237.359 339.307 227.985 350.65 215.141 352.402C190.29 351.034 163.501 354.239 138.879 352.432C124.517 351.377 115.087 338.745 116.747 324.576C117.15 321.138 124.316 301.495 123.596 300.472C71.1759 280.115 33.9672 228.121 32.2157 171.253H18.224C13.6937 171.253 10.6926 165.213 13.8583 161.335C14.3086 160.782 16.7324 159.102 17.1272 159.102H32.2118C34.0822 84.9501 96.7851 21.6966 170.439 19.9211V4.7328C170.439 2.43409 174.333 -0.108278 176.74 0.00356203C179.178 0.117399 182.507 2.87146 182.507 5.28601V19.9211ZM293.034 22.1419L281.321 34.1288L284.814 46.9824L296.477 35.5947L293.034 22.1419ZM170.439 31.5185C114.145 34.1787 65.0211 73.0172 49.2065 127.334C46.2372 137.533 44.1029 148.443 44.2795 159.1H62.381C63.0395 152.19 63.9301 145.53 65.4971 138.765C76.0653 93.1684 113.419 58.8075 159.282 51.488C162.985 50.8968 166.742 50.8669 170.441 50.2957V31.5165L170.439 31.5185ZM318.54 46.9884L305.213 44.3162C304.28 44.5359 295.134 53.2335 294.379 54.4118C293.946 55.0848 293.688 55.5182 293.859 56.367L306.133 59.5624L318.542 46.9904L318.54 46.9884ZM192.359 139.245C177.73 130.942 159 134.957 150.6 149.893C136.328 175.269 161.454 203.82 188.189 192.714C205.115 185.682 211.613 164.011 201.437 148.627C200.759 149.039 200.114 149.47 199.497 149.977C193.549 154.868 185.161 166.609 179.41 170.064C173.821 173.424 167.678 167.085 172.087 161.039C176.969 154.349 186.464 147.836 191.859 141.182L192.357 139.247L192.359 139.245ZM62.381 171.251H44.2795C45.3724 222.559 79.9133 270.888 127.369 288.903L132.564 270.695C99.2724 257.553 73.6454 226.642 65.4991 191.586C63.9381 184.871 63.0634 178.107 62.383 171.251H62.381ZM308.668 171.251H290.84C289.366 172.627 290.209 175.017 289.948 176.981C284.348 219.046 259.798 254.514 220.421 270.731C219.68 271.791 224.797 286.59 225.616 288.929C273.096 270.739 307.281 222.557 308.668 171.251ZM208.828 275.078C187.707 281.617 165.286 281.214 144.082 275.312C138.617 293.254 132.31 311.149 128.226 329.419C129.868 337.327 134.414 340.291 142.166 340.832C164.566 342.396 188.735 339.594 211.325 340.826C220.536 340.099 225.434 334.653 224.065 325.199L208.83 275.078H208.828Z" fill="url(#paint0_linear_928_2285)"/>
<defs>
<linearGradient id="paint0_linear_928_2285" x1="176.499" y1="0" x2="176.499" y2="353" gradientUnits="userSpaceOnUse">
<stop stop-color="#0BE6E6"/>
<stop offset="1" stop-color="#0B9292" stop-opacity="0.45"/>
</linearGradient>
</defs>
</svg>
