<svg width="312" height="323" viewBox="0 0 312 323" fill="none" xmlns="http://www.w3.org/2000/svg">
<path d="M44.9522 176.004C47.7803 176.013 50.2392 176.054 52.3408 176.225C55.213 176.46 57.9431 176.97 60.5342 178.29L60.9024 178.482C64.6848 180.505 67.7606 183.639 69.7109 187.467L69.9492 187.955C71.0938 190.4 71.5554 192.967 71.7754 195.66C71.9534 197.839 71.9895 200.402 71.9971 203.362L107.599 188.473C107.653 188.449 107.727 188.416 107.818 188.375C108.027 188.281 108.329 188.146 108.716 187.976C109.489 187.636 110.602 187.154 111.979 186.577C114.731 185.425 118.559 183.886 122.861 182.344C131.194 179.357 142.254 176.001 150.647 176.001C156.715 176.001 162.753 176.678 168.663 178.019L169.843 178.296L169.847 178.297L205.625 186.998L206.237 187.153C219.031 190.539 228.118 201.924 228.118 215.137V219.739C228.118 224.641 226.883 229.234 224.714 233.257C225.465 232.819 226.195 232.344 226.898 231.83L226.902 231.827L264.621 204.308L264.622 204.307L265.177 203.913C276.897 195.768 292.986 197.009 303.252 206.996L303.79 207.533C314.91 218.914 314.736 236.97 303.251 248.127L303.252 248.128L270.889 279.609C261.329 288.908 249.154 295.238 235.941 297.811L235.94 297.812L190.198 306.712H190.196C180.281 308.637 170.056 308.405 160.236 306.013V306.014L118.865 295.961L118.852 295.958C114.376 294.859 109.783 294.308 105.154 294.308H71.999C71.9974 297.838 71.9796 300.842 71.7754 303.342C71.5554 306.034 71.0938 308.601 69.9492 311.047L69.7109 311.535C67.7606 315.363 64.6848 318.497 60.9024 320.519L60.5342 320.712C57.9431 322.032 55.213 322.541 52.3408 322.776C50.2392 322.948 47.7803 322.988 44.9522 322.998L42 323.001H30C25.8986 323.001 22.4615 323.005 19.6592 322.776C16.9666 322.556 14.3994 322.095 11.9541 320.95L11.4658 320.712C7.63823 318.761 4.50399 315.686 2.48145 311.903L2.28907 311.535C0.968882 308.944 0.459308 306.214 0.224615 303.342C0.052906 301.24 0.0123575 298.781 0.00293546 295.953L5.7748e-06 293.001V206.001C5.79275e-06 201.899 -0.00433058 198.462 0.224615 195.66C0.459302 192.788 0.968896 190.058 2.28907 187.467L2.48145 187.098C4.50398 183.316 7.63822 180.24 11.4658 178.29L11.9541 178.052C14.3994 176.907 16.9666 176.445 19.6592 176.225C22.4615 175.996 25.8986 176.001 30 176.001H42L44.9522 176.004ZM30 188.001C25.7007 188.001 22.837 188.006 20.6367 188.185C18.773 188.338 17.7935 188.592 17.1641 188.864L16.9141 188.981C15.3264 189.79 14.0169 191.051 13.1484 192.601L12.9805 192.915C12.6659 193.532 12.3586 194.508 12.1846 196.637C12.0048 198.838 12 201.702 12 206.001V293.001L12.0039 295.969C12.0137 298.691 12.0498 300.714 12.1846 302.364C12.3586 304.494 12.6659 305.469 12.9805 306.087L13.1484 306.4C14.0168 307.95 15.3265 309.21 16.9141 310.019L17.1641 310.138C17.7935 310.41 18.773 310.664 20.6367 310.816C22.837 310.996 25.7007 311.001 30 311.001H42L44.9678 310.997C47.6899 310.987 49.7132 310.951 51.3633 310.816C53.4933 310.642 54.4684 310.335 55.0859 310.02L55.3994 309.852C56.9493 308.984 58.2106 307.674 59.0195 306.087L59.1367 305.837C59.4088 305.207 59.6632 304.228 59.8154 302.364C59.9952 300.164 60 297.3 60 293.001V206.001C60 201.702 59.9952 198.838 59.8154 196.637C59.6632 194.774 59.4088 193.794 59.1367 193.165L59.0195 192.915C58.2106 191.327 56.9493 190.018 55.3994 189.149L55.0859 188.981C54.4684 188.667 53.4933 188.359 51.3633 188.185C49.7132 188.051 47.6899 188.014 44.9678 188.005L42 188.001H30ZM150.647 188.001C144.569 188.001 135.294 190.636 126.91 193.64C122.855 195.094 119.228 196.551 116.615 197.645C115.311 198.192 114.264 198.645 113.549 198.96C113.191 199.117 112.917 199.24 112.734 199.322C112.643 199.363 112.575 199.393 112.531 199.413C112.51 199.423 112.494 199.43 112.484 199.434L112.473 199.44L112.474 199.439C112.414 199.467 112.354 199.493 112.293 199.518L72 216.368V282.308H105.154C110.736 282.308 116.291 282.972 121.713 284.304H121.712L163.07 294.353L163.073 294.354L163.837 294.535C171.481 296.288 179.412 296.469 187.137 295.076L187.908 294.931L233.647 286.033L234.672 285.824C245.229 283.569 254.904 278.418 262.521 271.008L294.885 239.525L294.889 239.522L295.203 239.209C301.597 232.678 301.602 222.461 295.199 215.912L294.885 215.597C288.672 209.554 278.758 208.852 271.692 214.004L233.976 241.52C227.532 246.229 219.717 248.748 211.705 248.748H175.282C171.969 248.748 169.283 246.062 169.282 242.749C169.282 239.539 171.803 236.916 174.974 236.756L175.282 236.748L198.466 236.747L198.929 236.742C208.616 236.505 216.118 228.837 216.118 219.739V215.137C216.118 207.452 210.726 200.583 202.797 198.66L202.793 198.659L167.015 189.958L166.008 189.721C160.968 188.578 155.82 188.001 150.647 188.001ZM232.279 1.95293C234.634 -0.170214 238.264 -0.0991516 240.533 2.16582L299.651 61.1854L299.809 61.3484C301.4 63.0613 301.855 65.5523 300.956 67.7254C300.028 69.9684 297.84 71.4313 295.412 71.4314H267.631V151.431C267.631 152.513 267.635 153.686 267.553 154.69C267.47 155.698 267.275 156.99 266.646 158.333L266.515 158.602C265.595 160.405 264.161 161.89 262.401 162.875L262.045 163.065C260.608 163.796 259.21 164.012 258.136 164.099C257.131 164.181 255.958 164.177 254.874 164.177H217.715C216.631 164.177 215.458 164.181 214.453 164.099C213.446 164.017 212.154 163.823 210.812 163.196L210.544 163.065C208.741 162.148 207.252 160.718 206.265 158.959L206.074 158.602C205.34 157.164 205.124 155.765 205.036 154.69C204.954 153.686 204.958 152.513 204.958 151.431V71.4314H177.177C174.749 71.4314 172.561 69.9684 171.633 67.7254C170.705 65.4822 171.22 62.9005 172.938 61.1854L232.056 2.16582L232.279 1.95293ZM191.679 59.4314H210.958C214.271 59.4316 216.958 62.118 216.958 65.4314V151.431C216.958 151.704 216.96 151.95 216.961 152.173C217.188 152.173 217.437 152.177 217.715 152.177H254.874C255.152 152.177 255.401 152.173 255.627 152.173C255.628 151.95 255.631 151.704 255.631 151.431V65.4314C255.631 62.1179 258.317 59.4314 261.631 59.4314H280.91L236.294 14.8895L191.679 59.4314Z" fill="#05A6A6"/>
</svg>
