<svg width="67" height="63" viewBox="0 0 67 63" fill="none" xmlns="http://www.w3.org/2000/svg">
<path d="M3.74676 40.2383C4.0062 39.7956 4.54415 39.5996 5.02801 39.7734L10.5612 41.7568C11.1149 41.9561 11.4031 42.5674 11.2038 43.1211C11.0045 43.6745 10.394 43.9624 9.84051 43.7666L6.44207 42.5449C10.1215 51.5835 18.1893 58.386 28.0095 60.3281C28.5883 60.4421 28.9612 61.0021 28.8473 61.5811C28.7334 62.1567 28.174 62.5336 27.5983 62.4199C17.038 60.3319 8.37204 53.0072 4.43914 43.2754L2.48406 46.6104C2.18666 47.1163 1.53529 47.2874 1.02605 46.9902C0.519863 46.6928 0.348782 46.0406 0.646172 45.5312L3.74676 40.2383ZM62.0387 39.9414C62.2064 39.3783 62.7999 39.0591 63.363 39.2266C63.9292 39.3974 64.2485 39.9916 64.0778 40.5547C60.7559 51.6277 51.4863 60.1415 39.9645 62.4189C39.3889 62.5326 38.8295 62.1567 38.7155 61.5811C38.6016 61.0022 38.9746 60.4422 39.5534 60.3281C50.2976 58.2053 58.9416 50.2644 62.0387 39.9414ZM34.112 10.5889C35.4626 10.5889 36.7848 10.7083 38.069 10.9424C38.5752 11.0341 38.946 11.4745 38.946 11.9902V14.9863C40.4296 15.3944 41.8377 15.9791 43.1442 16.7256L45.2165 14.5869C45.5771 14.2141 46.1556 14.1574 46.5856 14.4512C48.7242 15.9222 50.588 17.7637 52.0876 19.877C52.3913 20.304 52.3375 20.886 51.9675 21.2529L49.8512 23.3408C50.639 24.6822 51.2594 26.1384 51.6833 27.6729L54.7038 27.6855C55.2163 27.6887 55.653 28.0556 55.7448 28.5586C55.9789 29.8396 56.1022 31.1586 56.1022 32.5029C56.1022 33.8537 55.9791 35.1796 55.7419 36.4639C55.6501 36.97 55.2106 37.3377 54.695 37.3379H51.6833C51.2847 38.7803 50.7114 40.1529 49.987 41.4277L52.2077 43.209C52.6411 43.5538 52.7362 44.1741 52.4294 44.6328C50.7906 47.0846 48.6712 49.1856 46.2067 50.8086C45.7322 51.1186 45.0987 51.0044 44.7634 50.5488L43.1061 48.3027C41.8091 49.0367 40.4138 49.6158 38.946 50.0176V53.0137C38.9459 53.5293 38.5751 53.9717 38.069 54.0635C36.7846 54.2944 35.4618 54.418 34.111 54.418C32.7634 54.4179 31.4412 54.2944 30.1569 54.0635C29.6508 53.9717 29.281 53.5293 29.2809 53.0137V50.0176C27.7497 49.6 26.2971 48.9863 24.9557 48.208L22.9694 50.3594C22.6088 50.7485 22.0163 50.8145 21.5798 50.5107C19.3496 48.9669 17.42 47.0212 15.8952 44.7783C15.5978 44.3386 15.6673 43.7471 16.0563 43.3896L18.2272 41.4092C17.5091 40.1342 16.9363 38.764 16.5378 37.3213H13.529C13.0133 37.3213 12.5731 36.9544 12.4782 36.4482C12.2473 35.167 12.1237 33.8475 12.1237 32.5029C12.1237 31.1586 12.2473 29.8396 12.4782 28.5586C12.5731 28.0524 13.0133 27.6846 13.529 27.6846H16.5378C16.9649 26.1345 17.5939 24.6663 18.3942 23.3125L16.2399 21.3545C15.8414 20.9939 15.7748 20.3929 16.0846 19.9531C17.638 17.7385 19.5938 15.8247 21.8464 14.3125C22.3018 14.0089 22.9153 14.0968 23.2634 14.5205L25.0759 16.7295C26.3856 15.9829 27.794 15.3944 29.2809 14.9863V11.9902C29.2809 11.4746 29.6508 11.0342 30.1569 10.9424C31.4413 10.7083 32.7643 10.5889 34.112 10.5889ZM37.5026 31.1777C37.5025 31.766 37.0254 32.2439 36.4372 32.2441H30.7331C30.1447 32.2441 29.6668 31.7661 29.6667 31.1777V26.8369C28.3632 27.9758 27.5407 29.6496 27.5407 31.5098C27.5407 33.8824 28.8756 35.948 30.8464 36.9951C31.1944 37.1818 31.4128 37.543 31.4128 37.9385V52.1055C32.2953 52.2225 33.1969 52.2851 34.111 52.2852C35.0285 52.2852 35.9306 52.2225 36.8132 52.1055V37.5361C36.8133 37.1851 36.991 36.8535 37.2819 36.6543C38.9396 35.5344 40.0212 33.6484 40.0212 31.5098C40.0212 29.4692 39.0338 27.6563 37.5026 26.5205V31.1777ZM34.112 12.7207C33.1977 12.7207 32.2954 12.7811 31.4128 12.9014V15.8213C31.4128 16.318 31.0649 16.7518 30.5778 16.8594C28.7144 17.277 26.9713 18.0139 25.4147 19.0137C24.9592 19.3079 24.358 19.2125 24.0163 18.7949L22.2448 16.6406C20.7926 17.7226 19.4918 18.9948 18.3845 20.4248L20.485 22.332C20.8742 22.6863 20.9469 23.2682 20.6559 23.708C19.6087 25.293 18.8401 27.0745 18.4098 28.9854C18.3023 29.4694 17.8687 29.8174 17.3688 29.8174H14.4362C14.316 30.6936 14.2565 31.5919 14.2565 32.5029C14.2565 33.4141 14.316 34.3131 14.4362 35.1895H17.3688C17.8687 35.1895 18.3022 35.5343 18.4098 36.0215C18.8148 37.828 19.5272 39.5205 20.4889 41.0391C20.7672 41.4756 20.691 42.0485 20.3083 42.3965L18.1921 44.3291C19.2899 45.7939 20.5901 47.1042 22.0485 48.2178L23.9841 46.1201C24.3352 45.7373 24.9117 45.6677 25.3483 45.9492C26.5568 46.7337 27.8763 47.3604 29.2809 47.7969V38.5488C26.9556 37.0682 25.4079 34.4709 25.4079 31.5098C25.4079 28.1405 27.411 25.24 30.2897 23.9238C30.6187 23.772 31.0014 23.8 31.3083 23.9961C31.612 24.1891 31.7985 24.5278 31.7985 24.8916V30.1143H35.3708V24.7266C35.3709 24.3725 35.5448 24.0437 35.8356 23.8477C36.1267 23.6484 36.497 23.6037 36.8229 23.7334C39.9391 24.9451 42.1539 27.9665 42.154 31.5098C42.154 34.1799 40.8947 36.553 38.946 38.0811V47.7969C40.3221 47.3666 41.6227 46.7558 42.8122 45.9902C43.2835 45.6899 43.9127 45.8036 44.2448 46.2559L45.8649 48.4512C47.4782 47.2681 48.9049 45.8509 50.0944 44.2471L47.9274 42.5068C47.5004 42.1683 47.4027 41.5613 47.697 41.1025C48.6745 39.5713 49.3987 37.8626 49.8132 36.0371C49.9207 35.5532 50.3538 35.2082 50.8503 35.208H53.7868C53.907 34.3222 53.9704 33.4203 53.9704 32.5029C53.9704 31.5889 53.9067 30.6907 53.7897 29.8115L50.8473 29.7988C50.3508 29.7956 49.9208 29.4536 49.8132 28.9697C49.3861 27.0873 48.6303 25.3309 47.6052 23.7617C47.3269 23.3379 47.3863 22.7784 47.7468 22.4209L49.8102 20.3867C48.7409 19.0137 47.494 17.7828 46.1052 16.7324L44.0837 18.8174C43.7326 19.178 43.1757 19.2445 42.7487 18.9727C41.2049 17.9951 39.4865 17.2706 37.6452 16.8594C37.1612 16.7518 36.8132 16.3179 36.8132 15.8213V12.9014C35.9307 12.7812 35.0293 12.7207 34.112 12.7207ZM33.779 0C47.2088 0 58.6842 8.34258 63.2682 20.1113L64.7038 17.1465C64.9601 16.6151 65.5993 16.3971 66.1276 16.6533C66.656 16.9096 66.878 17.5457 66.6218 18.0771L64.0554 23.3701C63.8148 23.8697 63.233 24.0974 62.7175 23.9014L56.6491 21.585C56.0989 21.376 55.8242 20.7594 56.0329 20.209C56.2418 19.6587 56.8585 19.3831 57.4089 19.5918L61.3659 21.1045C57.1487 10.0162 46.3891 2.12891 33.779 2.12891C20.2699 2.12904 8.88408 11.1806 5.39422 23.5283C5.23272 24.0943 4.64485 24.4228 4.07879 24.2617C3.51261 24.1004 3.18353 23.5125 3.34148 22.9463C7.08729 9.70275 19.2955 7.33122e-05 33.779 0Z" fill="#F7C948"/>
</svg>
