<svg width="64" height="48" viewBox="0 0 64 48" fill="none" xmlns="http://www.w3.org/2000/svg">
<path fill-rule="evenodd" clip-rule="evenodd" d="M31.3338 44.0317C36.2968 43.6943 41.4742 41.319 45.0039 37.8303C54.8362 28.1065 53.1685 11.5874 41.6751 4.02964C28.6212 -4.56054 10.8386 3.36159 8.62166 18.801C8.494 18.9518 7.94687 18.3797 7.51452 17.9277L7.51451 17.9277L7.5145 17.9277C7.289 17.6919 7.09474 17.4888 7.00749 17.4379C5.68803 16.6821 4.5829 17.7348 5.01826 19.1181L9.96791 23.9632L14.8037 19.1249C15.1721 18.2004 14.6831 17.2017 13.6785 17.1747C13.032 17.1574 12.5159 17.7015 12.0213 18.223C11.7472 18.512 11.4797 18.794 11.2003 18.9697C13.5981 5.10932 29.6794 -1.56444 41.0991 6.87729C55.6936 17.6538 48.4332 40.489 30.222 41.454C25.3196 41.7117 20.2999 41.5945 15.2799 41.4772H15.2799H15.2798C10.7048 41.3704 6.12953 41.2635 1.64258 41.4405C-0.0251613 41.6227 0.222656 43.89 1.80333 44.0317C6.40264 43.8003 11.1432 43.9362 15.8833 44.0721H15.8834H15.8834C21.0971 44.2216 26.3101 44.371 31.3338 44.0317ZM32.0699 10.6606C32.068 10.061 32.0657 9.33015 31.7025 8.98966L31.7159 8.95592C31.4078 8.66576 29.2645 8.65901 28.8694 8.83446C28.3243 9.07342 28.3608 9.68742 28.3928 10.225C28.4123 10.5528 28.4301 10.8521 28.3135 11.0208L26.2305 11.6686C25.5004 9.61048 24.1608 9.73194 22.6873 11.0141C21.9585 11.6452 22.3235 12.2487 22.6317 12.7581C22.8276 13.0819 23.0006 13.3677 22.8548 13.5985L21.3679 14.8739C21.189 14.9218 20.9787 14.784 20.7349 14.6244C20.3944 14.4014 19.9888 14.1357 19.5126 14.2733C19.0973 14.3948 17.9654 16.3382 17.9654 16.7498C17.9608 17.3782 18.6353 17.6774 19.0631 17.8672C19.2509 17.9505 19.3911 18.0127 19.4054 18.0725L18.8964 20.3735C18.8232 20.437 18.6243 20.4222 18.3765 20.4038C17.8075 20.3614 16.9808 20.2999 16.8268 21.1225C16.7598 21.4869 16.7665 23.3426 16.9005 23.626C17.1322 24.1195 17.8814 24.1206 18.4613 24.1216C18.619 24.1218 18.7642 24.122 18.883 24.1321L19.5394 26.2982C19.5451 26.3291 19.4291 26.3858 19.2575 26.4696C18.8283 26.6793 18.0515 27.0587 17.9654 27.6276C17.9118 27.9717 18.7959 29.5778 19.0571 29.8612C19.666 30.5195 20.1541 30.2084 20.6972 29.8624C20.889 29.7402 21.0877 29.6136 21.3009 29.5238L22.895 31.0286C22.9384 31.2012 22.8032 31.4201 22.6448 31.6765C22.3883 32.0917 22.0709 32.6055 22.3524 33.1812C22.4462 33.3634 24.0939 34.3756 24.3216 34.4363C25.2093 34.6788 25.5261 34.0853 25.8599 33.4601C25.9719 33.2503 26.0858 33.037 26.2238 32.8505L28.367 33.3499C28.3905 33.5959 28.3767 33.8558 28.3632 34.1106C28.3227 34.8764 28.2846 35.5969 29.2645 35.7589C31.4614 36.1233 32.1781 35.6037 32.1312 33.3364L33.9061 32.7426C34.0849 32.7563 34.2163 33.0172 34.3749 33.3324C34.6857 33.9499 35.1013 34.7753 36.1833 34.3553C36.3642 34.2879 37.764 33.3904 37.8444 33.2824C38.2542 32.7064 37.8537 32.0186 37.5034 31.417C37.3899 31.2223 37.2818 31.0366 37.2081 30.8666L38.4807 29.3078C38.8203 29.4272 39.1203 29.6205 39.4003 29.8008C40.0702 30.2322 40.6254 30.5899 41.3339 29.6857C42.8409 27.7626 42.5596 27.189 40.4766 26.0823L40.8919 24.1456L43.1758 23.9769C43.7585 23.3426 43.8188 21.1563 43.2562 20.6232C42.9816 20.3642 42.313 20.3936 41.7188 20.4198C41.3997 20.4339 41.1021 20.447 40.8986 20.414L40.4096 18.3289C41.066 18.1534 42.285 17.5326 42.3319 16.7768C42.3587 16.3787 41.2736 14.5433 40.8852 14.3678C40.3199 14.1089 39.8833 14.4322 39.4896 14.7236C39.2675 14.888 39.0592 15.0423 38.849 15.0763C38.4812 15.1357 37.9767 14.5543 37.5858 14.1037C37.4429 13.9391 37.3152 13.7919 37.2148 13.6998C37.1971 13.5926 37.3164 13.4102 37.468 13.1783C37.7748 12.7092 38.2139 12.0378 37.9181 11.3785C37.8042 11.122 36.3776 10.238 36.0829 10.1571C35.1161 9.88434 34.8366 10.3884 34.4991 10.997C34.3689 11.2316 34.2302 11.4819 34.0401 11.7091L32.0843 11.1895C32.0711 11.0396 32.0705 10.8571 32.0699 10.6606ZM29.9343 16.2033C33.2631 16.2033 35.9556 18.9227 35.9556 22.2697C35.9556 25.6234 33.2631 28.3361 29.9343 28.3361C26.6055 28.3361 23.913 25.6234 23.913 22.2697C23.913 18.9159 26.6055 16.2033 29.9343 16.2033ZM58.5407 44.0322H44.4954C43.9596 44.0322 43.4774 43.1684 43.4774 42.6556C43.4774 42.2507 43.9529 41.4409 44.3414 41.4409H58.3866C58.3171 41.0325 57.9539 40.7183 57.6009 40.4129C57.3415 40.1885 57.0877 39.9689 56.96 39.7202C56.2098 38.2626 57.6365 37.0412 58.8756 37.959L63.5104 42.6758L58.4335 47.7166C57.3819 47.8853 56.6519 47.3049 56.7725 46.205C56.8229 45.7479 57.2819 45.3315 57.7336 44.9218C58.0621 44.6238 58.3866 44.3294 58.5474 44.0254L58.5407 44.0322ZM16.5619 35.853C16.2204 35.5452 15.9148 35.2699 15.7482 35.0846L15.7549 35.0914C14.1608 33.2964 13.0222 31.2045 12.0912 28.9979C11.9974 28.777 11.924 28.5195 11.8487 28.2554C11.6066 27.4063 11.3447 26.4877 10.323 26.4877C8.56149 26.4877 9.1107 28.3704 9.4322 29.4096C10.3498 32.3584 12.8682 36.2925 15.2124 38.2967C15.2521 38.33 15.3047 38.3749 15.3659 38.4271C15.6758 38.6914 16.2044 39.1422 16.3778 39.2211C17.3958 39.6732 18.4541 38.769 18.2331 37.6826C18.1514 37.2851 17.2778 36.498 16.5619 35.853Z" fill="#F7C948"/>
</svg>
