<svg width="28" height="16" viewBox="0 0 28 16" fill="none" xmlns="http://www.w3.org/2000/svg">
<path fill-rule="evenodd" clip-rule="evenodd" d="M13.0473 3.81395C13.2636 3.8186 13.5328 3.8244 13.5709 3.70189V0.11531C13.4883 -0.0103307 13.3425 -0.00425667 13.2058 0.00143794L13.1779 0.00255814C10.7503 0.0750414 7.99123 1.12739 6.01548 2.50189C5.78021 2.66565 4.39264 3.70189 4.4274 3.90591L7.03143 6.4643C8.71309 4.99585 10.6166 4.1341 12.8303 3.81732C12.8817 3.81039 12.9602 3.81208 13.0473 3.81395ZM14.4292 0.115505C14.5066 -0.00234096 14.6212 5.71123e-05 14.7491 0.00273478L14.75 0.00275351C17.3487 0.0161763 20.5837 1.35577 22.6129 2.9504C22.7733 3.07658 23.57 3.73698 23.5674 3.85779L23.4765 4.02691C23.0977 4.33404 22.7361 4.73597 22.3758 5.13637C21.996 5.55843 21.6178 5.9788 21.2227 6.28463C21.2086 6.29557 21.1934 6.30822 21.1774 6.32157C21.0992 6.38682 21.0009 6.46891 20.9099 6.45108C19.3512 5.02826 17.3407 4.09403 15.2446 3.81483C15.1533 3.80236 15.0545 3.80733 14.9562 3.81228C14.7581 3.82225 14.5614 3.83214 14.4292 3.6994V0.115505ZM24.2999 13.7046L24.2996 13.7019H27.9038L28 13.5838C27.9172 10.2201 26.5483 6.84288 24.1876 4.45361L21.5942 7.14355C23.0433 8.70059 23.9149 10.7113 24.2143 12.816L24.2143 12.8161L24.2143 12.8163L24.2144 12.8164C24.2289 12.9214 24.2335 12.9548 24.2367 12.9884C24.2382 13.0041 24.2393 13.0198 24.241 13.0428C24.2464 13.1152 24.257 13.2597 24.2996 13.7019H24.2972L24.2999 13.7046ZM0.0962475 13.7046L0 13.5865C0.064165 11.3234 0.711162 9.02277 1.83405 7.06035C2.05595 6.67646 3.4756 4.52344 3.81247 4.52344L6.4165 7.13283C4.96477 8.69793 4.09052 10.7033 3.78573 12.8161C3.76639 12.9521 3.74012 13.2287 3.71389 13.5049L3.69483 13.7046H0.0962475ZM17.9153 7.77431C17.9394 7.64813 17.9367 7.52196 17.9314 7.39578L17.9287 7.39847C17.8308 7.37487 17.7859 7.42619 17.7374 7.48171C17.7197 7.50197 17.7015 7.5228 17.6801 7.54075C16.8213 8.24755 15.7353 9.40652 14.8606 10.3401C14.7087 10.5022 14.5632 10.6575 14.4264 10.8025C14.338 10.8965 14.2298 11.0091 14.1093 11.1345C13.4962 11.7722 12.5649 12.7411 12.3169 13.275C11.3865 15.2884 14.0761 17.0307 15.469 15.2884C15.8852 14.7666 16.2705 13.4491 16.5399 12.5281C16.5976 12.3308 16.65 12.1517 16.6962 12.0025C16.7818 11.7242 16.8759 11.427 16.9734 11.1192C17.3233 10.0139 17.7167 8.77173 17.9153 7.77431Z" fill="url(#paint0_linear_979_112)"/>
<defs>
<linearGradient id="paint0_linear_979_112" x1="14" y1="-0.000976563" x2="14" y2="16.0034" gradientUnits="userSpaceOnUse">
<stop stop-color="#05A6A6"/>
<stop offset="1" stop-color="#0D5B6A"/>
</linearGradient>
</defs>
</svg>
