<svg width="54" height="63" viewBox="0 0 54 63" fill="none" xmlns="http://www.w3.org/2000/svg">
<path fill-rule="evenodd" clip-rule="evenodd" d="M26.9417 7.24082C32.4024 7.24082 37.3434 9.45531 40.9217 13.0387C44.498 16.6195 46.7123 21.5688 46.7123 27.0364C46.7123 30.6303 45.7489 34.0051 44.0703 36.9195C42.3337 39.9295 39.829 42.44 36.8226 44.1785C36.5217 44.3529 36.2921 44.5775 36.1443 44.8365C35.9965 45.0928 35.9173 45.4047 35.9173 45.7588V45.7931C35.9173 47.2254 35.334 48.5256 34.3944 49.4664C33.4549 50.4071 32.1563 50.9912 30.7258 50.9912L23.1564 50.9859C21.7259 50.9859 20.4274 50.4019 19.4878 49.4611C18.5482 48.5203 17.965 47.2202 17.965 45.7878V45.7535C17.965 45.402 17.8858 45.0902 17.738 44.8312C17.5902 44.5722 17.3606 44.3503 17.0597 44.1732C14.0535 42.4344 11.5489 39.9239 9.8119 36.9142C8.13067 33.9994 7.16995 30.6248 7.16995 27.0311C7.16995 21.5662 9.38165 16.6162 12.9605 13.0334C16.5394 9.4553 21.4799 7.24081 26.9406 7.24081L26.9417 7.24082ZM18.1663 28.3446L23.0252 34.1213C23.6217 34.8322 24.6826 34.9247 25.3926 34.3248C25.4691 34.2588 25.5404 34.19 25.6038 34.1134C26.4906 33.0485 28.5756 30.5855 30.658 28.1226C32.487 25.9636 34.3134 23.8019 35.7228 22.108C36.3166 21.3945 36.219 20.3322 35.5064 19.7376C34.7938 19.143 33.7328 19.2408 33.1389 19.9543C32.2548 21.0192 30.1698 23.4795 28.0873 25.9425C26.7756 27.4937 25.4639 29.0422 24.3052 30.4217L20.7369 26.1803C20.1404 25.4694 19.0795 25.377 18.3695 25.9768C17.6595 26.5714 17.5698 27.6337 18.1663 28.3446ZM33.3422 54.0601C33.4583 54.401 33.5481 54.7604 33.6088 55.1329C33.6695 55.5082 33.7011 55.8755 33.7011 56.2323C33.7011 58.1006 32.9436 59.7919 31.7217 61.018C30.4997 62.2416 28.8079 63 26.9419 63C25.076 63 23.3868 62.2416 22.1622 61.018C20.9402 59.7919 20.1827 58.1006 20.1827 56.2323C20.1827 55.8755 20.2144 55.5082 20.2751 55.1329C20.3358 54.7577 20.4255 54.3983 20.5417 54.0601C20.8214 53.2303 21.6845 52.7625 22.5185 52.9581L22.537 52.9607C22.5449 52.9607 22.5475 52.9581 22.5977 52.9581H31.286C31.3361 52.9581 31.3361 52.9607 31.3467 52.9607L31.373 52.9581L31.41 52.9528C32.2493 52.781 33.0727 53.2699 33.3393 54.0627L33.3422 54.0601ZM29.3357 58.6291C29.9243 58.0398 30.2991 57.2312 30.3254 56.338H23.5581C23.5845 57.2312 23.9592 58.0398 24.5478 58.6291C25.1601 59.2422 26.0073 59.6228 26.9416 59.6228C27.8759 59.6228 28.7234 59.2423 29.3357 58.6291ZM52.3135 25.3455C53.2452 25.3455 54 26.1013 54 27.0342C54 27.967 53.2452 28.7228 52.3135 28.7228H50.7589C49.8273 28.7228 49.0724 27.967 49.0724 27.0342C49.0724 26.1013 49.8273 25.3455 50.7589 25.3455H52.3135ZM3.12228 25.3455C4.05394 25.3455 4.80879 26.1013 4.80879 27.0342C4.80879 27.967 4.05394 28.7228 3.12228 28.7228H1.68651C0.754844 28.7228 0 27.967 0 27.0342C0 26.1013 0.754844 25.3455 1.68651 25.3455H3.12228ZM43.7063 7.91727L42.6189 9.00604C41.9591 9.66669 41.9591 10.737 42.6189 11.3949C43.2787 12.0556 44.345 12.0556 45.0048 11.3949L46.0922 10.3062C46.752 9.64551 46.752 8.57788 46.0922 7.91727C45.435 7.25661 44.3661 7.25661 43.7063 7.91727ZM8.9336 42.7339L7.90694 43.7618C7.24712 44.4225 7.24712 45.4927 7.90694 46.1507C8.56676 46.8114 9.63568 46.8114 10.2928 46.1507L11.3195 45.1228C11.9793 44.4621 11.9793 43.3945 11.3195 42.7339C10.6597 42.0758 9.59075 42.0758 8.9336 42.7339ZM7.90694 10.306L8.93624 11.3366C9.59606 11.9973 10.665 11.9973 11.3221 11.3366C11.9819 10.676 11.9819 9.6057 11.3221 8.94773L10.2928 7.91713C9.63301 7.25648 8.56409 7.25648 7.90694 7.91713C7.24712 8.57778 7.24712 9.64541 7.90694 10.306ZM42.6215 45.0644L43.7063 46.1506C44.3661 46.8112 45.4324 46.8112 46.0922 46.1506C46.752 45.4899 46.752 44.4197 46.0922 43.7617L45.0074 42.6755C44.3476 42.0149 43.2787 42.0149 42.6215 42.6755C41.9617 43.3362 41.9617 44.4065 42.6215 45.0644ZM25.3132 1.68864C25.3132 0.755797 26.0681 0 26.9997 0C27.9314 0 28.6862 0.755797 28.6862 1.68864V3.18433C28.6862 4.11717 27.9314 4.87297 26.9997 4.87297C26.0681 4.87297 25.3132 4.11717 25.3132 3.18433V1.68864ZM38.5331 15.4279C35.5666 12.4576 31.4678 10.6209 26.9389 10.6209C22.4125 10.6209 18.3134 12.4575 15.3473 15.4279C12.3807 18.3982 10.5464 22.5021 10.5464 27.0341C10.5464 30.0255 11.3408 32.8241 12.7265 35.2287C14.1675 37.7286 16.2499 39.8136 18.7467 41.2591C19.5596 41.7295 20.2036 42.3796 20.6523 43.1565C21.1009 43.9361 21.3411 44.8187 21.3411 45.7542V45.7886C21.3411 46.288 21.5443 46.7426 21.8742 47.0728C22.2041 47.4032 22.6581 47.6067 23.1569 47.6067H30.7236C31.2224 47.6067 31.6764 47.4032 32.0063 47.0728C32.3362 46.7425 32.5394 46.288 32.5394 45.7886V45.7542C32.5394 44.8187 32.7796 43.9361 33.2282 43.1565C33.6769 42.3796 34.3209 41.7295 35.1338 41.2591C37.6305 39.8136 39.7129 37.7286 41.154 35.2287C42.5423 32.8239 43.3341 30.0253 43.3341 27.0341C43.3341 22.502 41.4997 18.3978 38.5331 15.4279Z" fill="url(#paint0_linear_781_2482)"/>
<defs>
<linearGradient id="paint0_linear_781_2482" x1="27" y1="0" x2="27" y2="63" gradientUnits="userSpaceOnUse">
<stop stop-color="#0BE6E6"/>
<stop offset="1" stop-color="#0B9292" stop-opacity="0.45"/>
</linearGradient>
</defs>
</svg>
