<svg width="66" height="58" viewBox="0 0 66 58" fill="none" xmlns="http://www.w3.org/2000/svg">
<path d="M31.5986 13.9441C33.1395 14.0949 33.1416 16.2074 31.5986 16.3582L4.77148 16.3484C3.72739 16.3425 2.86234 17.1882 2.86621 18.2293V52.9988C2.8601 54.03 3.7171 54.8846 4.77148 54.8806L55.2646 54.7762C55.9443 54.5028 56.475 53.8837 56.5078 53.1463L56.5166 37.8064C56.7527 36.3211 59.0465 36.5661 58.9531 38.0916C58.5786 43.0144 59.4288 48.6007 58.9443 53.4451C58.7326 55.5517 57.0555 57.1461 54.9141 57.2889H4.46875C2.28049 57.1522 0.570143 55.4675 0.429688 53.3006V17.9305C0.557922 15.9265 2.04574 14.2978 4.05469 13.9861L31.5986 13.9441ZM18.0781 22.5672C26.1532 20.7401 31.1827 30.4992 25.2695 36.0633H25.2715C29.825 37.209 32.6506 41.8024 32.1113 46.3553C31.8711 48.3875 30.1466 49.9416 28.0947 50.0642C22.8207 49.7186 16.9891 50.5044 11.7803 50.0642C9.52077 49.8733 7.93663 48.3052 7.74121 46.076C7.34845 41.5894 10.1334 37.205 14.6035 36.0633C10.0011 31.8279 11.8655 23.9723 18.0781 22.5672ZM50.6318 47.6599C51.9811 47.8693 52.038 49.8853 50.4912 50.0623C46.642 50.5025 41.9438 49.734 38.0029 50.0496C36.7165 49.8506 36.6347 48.0414 37.874 47.6834L50.6318 47.6599ZM25.2695 38.5506C23.4415 37.8189 18.438 37.8221 16.4004 38.0613V38.0633C12.6184 38.5096 9.85392 42.0685 10.1816 45.7771C10.2835 46.9426 10.9128 47.5474 12.0869 47.658C17.0578 48.1183 22.7457 47.2962 27.7939 47.658C29.5261 47.4972 29.7643 46.3637 29.6992 44.8601C29.5812 42.1062 27.8649 39.5918 25.2695 38.5506ZM45.7559 40.4373C47.1055 40.6463 47.1014 42.6209 45.7559 42.8279C44.554 43.0128 39.2042 43.0128 38.0029 42.8279C36.7166 42.6289 36.6348 40.8198 37.874 40.4617L45.7559 40.4373ZM50.0654 0.735141C51.0507 0.520056 52.5287 2.07275 53.4121 2.63358C55.7774 4.1391 58.6522 5.35514 61.3818 6.04862C62.5463 6.34395 64.7706 6.24147 65.1533 7.43924C65.3976 8.20105 65.4623 10.2534 65.501 11.158C65.9773 22.4972 64.1478 29.2997 54.2061 35.5271C53.514 35.9593 51.1562 37.4023 50.4824 37.4324C49.8919 37.4561 48.4634 36.5765 47.8691 36.2449C44.0707 34.1202 39.2081 29.9766 37.3252 26.0428C35.2062 21.6184 35.0694 13.9118 35.4785 9.05936C35.5253 8.51252 35.6111 7.29277 35.9307 6.94706C36.3866 6.45262 39.2579 6.10635 40.1641 5.86112C42.6516 5.18772 45.3433 3.95997 47.501 2.57498C48.0425 2.22712 49.6768 0.819562 50.0615 0.735141H50.0654ZM19.9385 24.7889C16.9136 24.7889 14.461 27.211 14.4609 30.198C14.4609 33.1851 16.9136 35.6072 19.9385 35.6072C22.9634 35.6072 25.416 33.1851 25.416 30.198C25.416 27.211 22.9633 24.7889 19.9385 24.7889ZM50.4932 3.56815C46.6357 6.12302 42.546 8.01611 37.9395 8.85233C37.7237 13.2968 37.5084 18.0248 38.6035 22.3767C39.6783 26.6462 42.8778 29.9269 46.4033 32.4275C47.187 32.9843 49.3613 34.4893 50.1572 34.7527C50.6437 34.9155 51.7327 34.1663 52.2314 33.8728C54.9836 32.2486 58.2429 29.6272 60.0811 27.0281C63.6961 21.9123 63.0932 14.7942 62.8896 8.85233H62.8877C58.4116 7.98195 54.1612 6.24354 50.4932 3.56815ZM57.3809 13.9783C58.3965 13.8798 58.9833 15.0015 58.4971 15.8357L49.2344 24.7547C48.7013 24.8631 48.5117 24.6924 48.125 24.407C47.2022 23.7268 43.0545 19.6587 42.4072 18.7683C41.3981 17.3775 42.8797 16.0474 44.5508 17.4041C46.222 18.7609 47.4173 20.5716 49.0986 21.7596L56.6543 14.3162C56.8476 14.1535 57.1325 14.0026 57.3828 13.9764L57.3809 13.9783Z" fill="#F7C948"/>
</svg>
