<svg width="55" height="73" viewBox="0 0 55 73" fill="none" xmlns="http://www.w3.org/2000/svg">
<path fill-rule="evenodd" clip-rule="evenodd" d="M13.362 0.849718C13.582 0.626857 13.881 0.5 14.1973 0.5H49.5275C52.549 0.5 55 2.94111 55 5.94799V67.052C55 70.0589 52.549 72.5 49.5275 72.5H5.47296C2.42043 72.5 -0.0373228 70.0177 0.00042916 66.9799L0.691369 14.245C0.694806 13.9467 0.815114 13.6655 1.02137 13.453L13.362 0.849718ZM13.032 4.50462L4.61354 13.1035H9.88667C11.6261 13.1035 13.032 11.7012 13.032 9.96981V4.50462ZM3.00437 15.4182H9.88623C12.9078 15.4182 15.3588 12.9805 15.3588 9.97016V2.81817H49.5274C51.2668 2.81817 52.6726 4.2205 52.6726 5.94846V67.0525C52.6726 68.7805 51.2667 70.1828 49.5274 70.1828H5.47286C3.71973 70.1828 2.30346 68.7565 2.32757 67.0113L3.00437 15.4182ZM34.1616 18.8536C34.1616 18.2159 34.6841 17.6948 35.3235 17.6948H40.7479C41.3907 17.6948 41.9097 18.2159 41.9097 18.8536V24.2296C41.9097 24.8674 41.3907 25.3885 40.7479 25.3885C40.1051 25.3885 39.586 24.8673 39.586 24.2296V21.6411L29.6174 31.5224C28.5414 32.5852 26.8261 32.6435 25.6848 31.6527C25.6573 31.6287 25.6333 31.6047 25.6092 31.5807L23.2511 29.1361C23.0311 28.9715 22.7183 28.9887 22.5189 29.1875C22.4948 29.2115 22.4673 29.2355 22.4398 29.2595L14.9358 35.4207C14.4408 35.8286 13.7052 35.7566 13.2996 35.2629C12.8905 34.7692 12.9592 34.039 13.4542 33.6343L20.9205 27.5006C21.9965 26.4788 23.6842 26.4377 24.8083 27.4149C24.8358 27.4354 24.8599 27.4594 24.884 27.4834L27.2421 29.9281C27.4621 30.0961 27.7749 30.0755 27.9743 29.8801L37.9288 20.0128H35.3232C34.6839 20.0128 34.1616 19.4948 34.1616 18.8536ZM30.9819 37.8483C30.9819 36.2574 32.2745 34.9718 33.8694 34.9718H39.0256C40.6172 34.9718 41.9096 36.2574 41.9096 37.8483V60.7304C41.9096 62.3178 40.6171 63.6035 39.0256 63.6035H16.2935C14.6985 63.6035 13.406 62.3178 13.406 60.7304V55.6389C13.406 54.0515 14.6986 52.7624 16.2935 52.7624H22.1957V46.7418C22.1957 45.1543 23.4882 43.8686 25.0797 43.8686H30.9818L30.9819 37.8483ZM30.9819 46.1832H25.0798C24.7704 46.1832 24.5194 46.4335 24.5194 46.742V61.2893H30.982L30.9819 46.1832ZM33.3091 61.2896H39.0256C39.335 61.2896 39.5859 61.0393 39.5859 60.7307V37.8486C39.5859 37.5401 39.335 37.2898 39.0256 37.2898H33.8694C33.56 37.2898 33.3091 37.5401 33.3091 37.8486L33.3091 61.2896ZM22.1956 61.2896V55.0804H16.2934C15.984 55.0804 15.7331 55.3307 15.7331 55.6393V60.7307C15.7331 61.0393 15.984 61.2896 16.2934 61.2896L22.1956 61.2896Z" fill="url(#paint0_linear_1373_1419)"/>
<defs>
<linearGradient id="paint0_linear_1373_1419" x1="27.5" y1="0.5" x2="27.5" y2="72.5" gradientUnits="userSpaceOnUse">
<stop stop-color="#0BE6E6"/>
<stop offset="1" stop-color="#0B9292" stop-opacity="0.45"/>
</linearGradient>
</defs>
</svg>
