<svg width="157" height="204" viewBox="0 0 157 204" fill="none" xmlns="http://www.w3.org/2000/svg">
<path fill-rule="evenodd" clip-rule="evenodd" d="M38.3354 0.990867C38.9588 0.359427 39.8061 0 40.7022 0H140.804C149.365 0 156.31 6.91647 156.31 15.436V188.564C156.31 197.084 149.365 204 140.804 204H15.9833C7.33443 204 0.370815 196.967 0.477778 188.36L2.43544 38.9441C2.44518 38.0989 2.78605 37.3023 3.37044 36.7001L38.3354 0.990867ZM37.4004 11.3464L13.5483 35.71H28.4888C33.4171 35.71 37.4004 31.7367 37.4004 26.8311V11.3464ZM8.98896 42.2681H28.4875C37.0486 42.2681 43.9931 35.3613 43.9931 26.8321V6.56816H140.804C145.732 6.56816 149.716 10.5414 149.716 15.4373V188.565C149.716 193.462 145.732 197.435 140.804 197.435H15.983C11.0158 197.435 7.00302 193.393 7.07134 188.449L8.98896 42.2681ZM97.2678 52.0019C97.2678 50.1951 98.7482 48.7185 100.56 48.7185H115.929C117.75 48.7185 119.221 50.1951 119.221 52.0019V67.234C119.221 69.0408 117.75 70.5174 115.929 70.5174C114.108 70.5174 112.637 69.0408 112.637 67.234V59.8997L84.3925 87.8968C81.3439 90.9082 76.4839 91.0733 73.2503 88.266C73.1724 88.198 73.1042 88.13 73.036 88.062L66.3546 81.1356C65.7313 80.6693 64.845 80.7178 64.2801 81.2813C64.2119 81.3493 64.134 81.4173 64.0561 81.4853L42.7947 98.9418C41.3922 100.098 39.3081 99.8938 38.1586 98.495C36.9996 97.0961 37.1944 95.027 38.5969 93.8806L59.7513 76.5016C62.7999 73.6067 67.5819 73.4903 70.7669 76.2588C70.8448 76.3171 70.9129 76.3851 70.9811 76.4531L77.6625 83.3795C78.2858 83.8555 79.1721 83.7972 79.737 83.2435L107.942 55.2861H100.559C98.7475 55.2861 97.2678 53.8185 97.2678 52.0019ZM88.2586 105.82C88.2586 101.313 91.9208 97.67 96.4398 97.67H111.049C115.559 97.67 119.221 101.313 119.221 105.82V170.653C119.221 175.15 115.558 178.793 111.049 178.793H46.6415C42.1223 178.793 38.4604 175.15 38.4604 170.653V156.227C38.4604 151.729 42.1226 148.077 46.6415 148.077H63.3642V131.018C63.3642 126.521 67.0264 122.878 71.5356 122.878H88.2584L88.2586 105.82ZM88.2586 129.436H71.5359C70.6593 129.436 69.9483 130.145 69.9483 131.019V172.236H88.2588L88.2586 129.436ZM94.8522 172.237H111.049C111.926 172.237 112.637 171.528 112.637 170.654V105.821C112.637 104.947 111.926 104.238 111.049 104.238H96.4398C95.5632 104.238 94.8522 104.947 94.8522 105.821L94.8522 172.237ZM63.364 172.237V154.645H46.6412C45.7647 154.645 45.0537 155.354 45.0537 156.228V170.654C45.0537 171.528 45.7647 172.237 46.6412 172.237L63.364 172.237Z" fill="url(#paint0_linear_1373_4152)"/>
<defs>
<linearGradient id="paint0_linear_1373_4152" x1="78.3932" y1="0" x2="78.3932" y2="204" gradientUnits="userSpaceOnUse">
<stop stop-color="#0BE6E6"/>
<stop offset="1" stop-color="#0B9292" stop-opacity="0.45"/>
</linearGradient>
</defs>
</svg>
