<svg width="322" height="322" viewBox="0 0 322 322" fill="none" xmlns="http://www.w3.org/2000/svg">
<g clip-path="url(#clip0_862_1071)">
<path d="M254.071 45.1445L217.931 45.3837L167.7 127.485C173.06 130.409 177.253 134.209 181.366 138.648L223.609 96.9196L270.947 96.6804C275.113 78.1285 301.834 75.2846 308.335 93.6505C317.569 119.751 277.687 131.259 270.947 104.229L227.908 104.415L225.228 106.169L185.611 146.515L189.114 157.173H281.879C284.613 157.333 284.188 154.17 285.223 152.256C293.687 136.681 316.693 138.648 321.284 155.871C327.227 178.224 296.049 190.902 284.878 168.762C284.135 167.3 284.453 164.987 282.49 164.775L188.636 165.147L185.638 175.831L226.687 217.64H270.974C275.246 199.433 301.462 196.35 308.175 214.211C315.366 233.294 293.608 249.082 278.085 236.723C273.839 233.348 273.203 229.467 270.363 225.427L224.458 225.48L222.415 224.337L181.445 183.247C177.624 187.818 173.193 191.752 167.753 194.383L217.984 276.538L253.832 276.777L254.575 276.245C258.476 261.042 277.528 256.072 287.956 268.272C296.129 277.814 293.051 293.601 281.269 298.545C269.355 303.542 257.149 296.87 254.204 284.538C252.532 285.016 250.595 285.149 248.87 285.176C239.291 285.282 226.873 286.053 217.665 285.176C215.861 285.016 214.295 284.83 212.889 283.608L160.483 197.892C158.997 196.403 157.06 197.839 155.388 197.892C103.406 199.752 103.008 126.9 149.683 124.03C152.549 123.844 158.891 125.332 160.483 124.03L213.207 38.0214L253.859 37.3304L254.602 36.7988C258.131 17.6622 287.584 17.2635 291.989 35.6294C298.358 62.1282 260.811 70.7131 254.177 45.1445H254.071ZM284.639 41.264C284.639 34.9649 279.544 29.8618 273.256 29.8618C266.967 29.8618 261.872 34.9649 261.872 41.264C261.872 47.5631 266.967 52.6662 273.256 52.6662C279.544 52.6662 284.639 47.5631 284.639 41.264ZM301.595 100.534C301.595 94.2618 296.5 89.1587 290.238 89.1587C283.976 89.1587 278.881 94.2618 278.881 100.534C278.881 106.807 283.976 111.91 290.238 111.91C296.5 111.91 301.595 106.807 301.595 100.534ZM180.649 161.027C180.649 145.107 167.753 132.189 151.859 132.189C135.964 132.189 123.069 145.107 123.069 161.027C123.069 176.948 135.964 189.865 151.859 189.865C167.753 189.865 180.649 176.948 180.649 161.027ZM314.013 160.921C314.013 154.648 308.945 149.572 302.683 149.572C296.421 149.572 291.352 154.648 291.352 160.921C291.352 167.193 296.421 172.27 302.683 172.27C308.945 172.27 314.013 167.193 314.013 160.921ZM301.595 221.573C301.595 215.301 296.5 210.198 290.238 210.198C283.976 210.198 278.881 215.301 278.881 221.573C278.881 227.846 283.976 232.949 290.238 232.949C296.5 232.949 301.595 227.846 301.595 221.573ZM284.559 280.844C284.559 274.571 279.491 269.494 273.229 269.494C266.967 269.494 261.899 274.571 261.899 280.844C261.899 287.116 266.967 292.193 273.229 292.193C279.491 292.193 284.559 287.116 284.559 280.844Z" fill="url(#paint0_linear_862_1071)"/>
<path d="M154.829 102.234C143.817 104.041 134.318 105.317 124.5 111.031C84.1139 134.553 87.2185 194.834 129.94 213.731C138.245 217.399 146.152 217.984 154.803 219.711L155.44 221.279V310.185C155.095 311.46 153.317 312.284 152.07 312.497C147.824 313.188 132.885 312.869 128.905 311.567C122.881 309.627 118.132 303.886 117.442 297.56C116.699 290.649 119.962 274.118 113.461 270.317C112.029 269.466 103.75 265.825 102.37 265.533C91.2783 263.247 83.769 283.5 73.2347 285.095C69.3871 285.679 64.9823 285.254 61.4797 283.553C57.128 281.48 36.1125 260.19 32.2649 255.486C27.6744 249.825 26.1884 243.951 28.895 236.854C31.7607 229.306 46.7264 220.96 48.0001 213.97C48.743 209.824 44.2586 198.501 40.3315 196.481C34.9715 193.717 21.1734 196.162 14.3008 195.179C6.34039 194.036 1.1661 186.727 0.476198 179.099C-0.187172 171.87 -0.45252 143.909 1.43145 138.035C7.13644 120.307 26.2415 129.317 38.5006 126.128C43.2503 124.879 48.0531 114.805 48.2123 110.34C48.4777 102.393 35.4756 94.8183 30.9912 88.6786C25.4189 81.0771 27.1172 72.5454 32.8752 65.7413C37.0146 60.8774 56.9423 40.5182 61.4797 38.3387C66.4683 35.9466 73.4469 35.8935 78.2497 38.764C85.4141 43.0431 92.5786 58.379 102.37 56.359C103.537 56.1198 112.851 52.0267 113.859 51.3091C122.589 45.1694 111.286 22.5776 123.492 13.1954C129.488 8.62384 142.305 8.96936 151.512 9.36804C153.184 9.44778 154.75 10.1122 155.519 11.7335L154.856 102.207L154.829 102.234ZM147.983 17.6606H131.77C128.507 18.1921 126.702 21.1955 126.039 22.7637C121.475 33.528 131.081 49.422 117.654 58.3258C112.135 61.9937 101.653 65.7147 95.179 63.8542C84.2997 60.7445 75.5167 38.0464 63.7087 46.3123C60.6837 48.4386 38.9251 70.2065 37.0412 73.1035C30.8055 82.6718 46.408 91.363 51.6353 97.9014C55.7217 103.004 57.2342 108.161 55.5625 114.593C53.4662 122.619 48.1062 133.171 38.8986 134.208C30.3279 135.165 10.1349 130.062 8.67546 142.155C7.7202 150.208 7.85288 170.886 8.67546 179.126C10.0818 193.531 33.061 184.867 42.8523 188.853C49.7779 191.671 55.0849 202.967 56.1197 209.957C57.9241 222.289 45.2404 228.96 38.3414 236.801C34.1754 241.559 34.8388 245.811 38.5802 250.436C42.3216 255.061 59.1181 272.363 63.7087 275.579C67.0521 277.918 70.2628 278.025 73.898 276.191C81.0359 272.603 86.5551 260.589 95.2055 258.064C103.06 255.752 118.264 261.812 122.696 268.749C128.586 277.945 121.316 294.716 127.923 301.733C128.427 302.264 131.399 304.258 131.77 304.258H147.983V226.568C99.7164 222.342 71.961 168.547 97.4875 126.633C108.234 109.011 127.392 97.2369 147.983 95.3764V17.6606Z" fill="url(#paint1_linear_862_1071)"/>
</g>
<defs>
<linearGradient id="paint0_linear_862_1071" x1="218.767" y1="22.1445" x2="218.767" y2="300.214" gradientUnits="userSpaceOnUse">
<stop stop-color="#0BE6E6"/>
<stop offset="1" stop-color="#0B9292" stop-opacity="0.45"/>
</linearGradient>
<linearGradient id="paint1_linear_862_1071" x1="77.7498" y1="9.15234" x2="77.7498" y2="312.853" gradientUnits="userSpaceOnUse">
<stop stop-color="#0BE6E6"/>
<stop offset="1" stop-color="#0B9292" stop-opacity="0.45"/>
</linearGradient>
<clipPath id="clip0_862_1071">
<rect width="322" height="303.687" fill="white" transform="translate(0 9.15625)"/>
</clipPath>
</defs>
</svg>
