<svg width="28" height="28" viewBox="0 0 28 28" fill="none" xmlns="http://www.w3.org/2000/svg">
<path d="M26.3846 16.7117L25.4623 16.1791C25.6171 15.4087 25.6955 14.6372 25.6955 13.8818C25.6955 13.1154 25.6184 12.3431 25.4661 11.5821L26.3846 11.0518C26.6691 10.8876 26.8726 10.6224 26.9576 10.3051C27.0425 9.98787 26.9989 9.65647 26.8347 9.37201L24.3229 5.02143C24.1586 4.73697 23.8935 4.53346 23.5762 4.44848C23.2589 4.3635 22.9275 4.40709 22.643 4.57135L21.7238 5.10207C20.5627 4.08055 19.1962 3.28997 17.7415 2.79808V1.74145C17.7415 1.06337 17.1899 0.511719 16.5118 0.511719H11.4882C10.8101 0.511719 10.2585 1.06337 10.2585 1.74145V2.79813C8.8116 3.28803 7.44696 4.07967 6.28154 5.10521L5.35694 4.57135C5.07243 4.40709 4.74103 4.36345 4.42376 4.44848C4.10649 4.53351 3.84134 4.73697 3.67708 5.02143L1.16529 9.37201C1.00103 9.65647 0.957435 9.98787 1.04242 10.3051C1.1274 10.6224 1.33091 10.8876 1.61537 11.0518L2.53772 11.5844C2.38293 12.3548 2.30449 13.1263 2.30449 13.8818C2.30449 14.6481 2.38162 15.4203 2.5339 16.1814L1.61542 16.7117C1.02818 17.0507 0.826299 17.8042 1.16529 18.3915L3.67708 22.7421C4.01612 23.3293 4.76965 23.5312 5.35694 23.1922L6.2761 22.6615C7.43728 23.683 8.80375 24.4736 10.2585 24.9655V26.0221C10.2585 26.7002 10.8101 27.2518 11.4882 27.2518H16.5118C17.1899 27.2518 17.7415 26.7002 17.7415 26.0221V24.9654C19.1885 24.4755 20.5531 23.6839 21.7185 22.6584L22.6431 23.1922C23.2303 23.5312 23.9839 23.3293 24.3229 22.7421L26.8347 18.3915C27.1737 17.8042 26.9718 17.0507 26.3846 16.7117ZM26.1549 17.9991L23.6431 22.3496C23.5205 22.562 23.248 22.635 23.0356 22.5124L21.8638 21.8359C21.7149 21.7499 21.5273 21.7709 21.4011 21.8876C20.2031 22.9956 18.7618 23.8316 17.233 24.3052C17.0686 24.3561 16.9566 24.5081 16.9566 24.6801V26.0221C16.9566 26.2674 16.7571 26.4669 16.5118 26.4669H11.4882C11.243 26.4669 11.0434 26.2674 11.0434 26.0221V24.6801C11.0434 24.5081 10.9314 24.3561 10.7671 24.3052C9.22887 23.8287 7.78574 22.9938 6.59363 21.8908C6.51927 21.822 6.42356 21.7864 6.32702 21.7864C6.25972 21.7864 6.19206 21.8037 6.13089 21.839L4.96447 22.5124C4.75202 22.635 4.47949 22.562 4.35688 22.3496L1.84509 17.9991C1.72248 17.7867 1.79554 17.5141 2.00789 17.3914L3.17336 16.7185C3.32218 16.6326 3.3978 16.4599 3.35996 16.2923C3.18042 15.4965 3.08942 14.6854 3.08942 13.8818C3.08942 13.0916 3.18178 12.2813 3.36399 11.4735C3.40177 11.3059 3.32616 11.1331 3.17739 11.0473L2.00789 10.3721C1.90501 10.3127 1.83143 10.2168 1.80066 10.102C1.76995 9.98724 1.7857 9.86735 1.84509 9.76448L4.35688 5.4139C4.41628 5.31102 4.5122 5.23739 4.627 5.20667C4.74171 5.1759 4.86165 5.19171 4.96453 5.2511L6.13628 5.92761C6.28521 6.01364 6.47275 5.9926 6.59897 5.87586C7.79699 4.7679 9.23829 3.93194 10.7671 3.45831C10.9314 3.40739 11.0435 3.25543 11.0435 3.08343V1.74145C11.0435 1.49618 11.243 1.29665 11.4883 1.29665H16.5119C16.7571 1.29665 16.9567 1.49618 16.9567 1.74145V3.08343C16.9567 3.25543 17.0687 3.40739 17.233 3.45831C18.7712 3.93482 20.2143 4.76973 21.4064 5.87272C21.5327 5.98952 21.7203 6.0105 21.8692 5.92452L23.0356 5.2511C23.1385 5.19171 23.2584 5.1759 23.3731 5.20667C23.4879 5.23744 23.5838 5.31102 23.6432 5.4139L26.155 9.76448C26.2144 9.86735 26.2302 9.98724 26.1995 10.102C26.1687 10.2168 26.0951 10.3127 25.9922 10.3721L24.8268 11.045C24.6779 11.1309 24.6023 11.3036 24.6402 11.4712C24.8197 12.267 24.9107 13.0779 24.9107 13.8818C24.9107 14.6719 24.8183 15.4822 24.6361 16.29C24.5984 16.4576 24.674 16.6303 24.8227 16.7162L25.9922 17.3914C26.2045 17.5141 26.2776 17.7867 26.1549 17.9991Z" fill="url(#paint0_linear_1351_2880)" stroke="url(#paint1_linear_1351_2880)" stroke-width="0.3"/>
<path d="M13.9982 5.95312C9.62669 5.95312 6.07031 9.50956 6.07031 13.881C6.07031 18.2524 9.62669 21.8088 13.9982 21.8088C18.3696 21.8088 21.926 18.2524 21.926 13.881C21.926 9.50956 18.3696 5.95312 13.9982 5.95312ZM13.9982 21.0239C10.0596 21.0239 6.85525 17.8196 6.85525 13.881C6.85525 9.94237 10.0596 6.73806 13.9982 6.73806C17.9367 6.73806 21.1411 9.94237 21.1411 13.881C21.1411 17.8196 17.9367 21.0239 13.9982 21.0239Z" fill="url(#paint2_linear_1351_2880)" stroke="url(#paint3_linear_1351_2880)" stroke-width="0.3"/>
<path d="M15.4671 11.8145H14.0018C13.7851 11.8145 13.6094 11.9902 13.6094 12.2069V15.556C13.6094 15.7727 13.7851 15.9484 14.0018 15.9484C14.2186 15.9484 14.3943 15.7727 14.3943 15.556V14.6925H15.4671C16.2606 14.6925 16.9061 14.047 16.9061 13.2535C16.9061 12.46 16.2606 11.8145 15.4671 11.8145ZM15.4671 13.9076H14.3943V12.5994H15.4671C15.8278 12.5994 16.1212 12.8928 16.1212 13.2535C16.1212 13.6142 15.8278 13.9076 15.4671 13.9076Z" fill="url(#paint4_linear_1351_2880)" stroke="url(#paint5_linear_1351_2880)" stroke-width="0.3"/>
<path d="M11.8564 12.0691C11.799 11.916 11.6525 11.8145 11.489 11.8145H11.0703C10.9067 11.8145 10.7603 11.9159 10.7029 12.0691L9.44698 15.4182C9.37084 15.6211 9.47372 15.8473 9.67665 15.9235C9.87958 15.9996 10.1058 15.8967 10.1819 15.6938L10.4004 15.1112H12.1589L12.3774 15.6938C12.4364 15.8513 12.586 15.9485 12.7449 15.9485C12.7906 15.9485 12.8372 15.9405 12.8826 15.9235C13.0855 15.8474 13.1884 15.6211 13.1123 15.4182L11.8564 12.0691ZM10.6947 14.3262L11.2796 12.7665L11.8646 14.3262H10.6947Z" fill="url(#paint6_linear_1351_2880)" stroke="url(#paint7_linear_1351_2880)" stroke-width="0.3"/>
<path d="M17.7675 11.8145C17.5507 11.8145 17.375 11.9902 17.375 12.2069V15.556C17.375 15.7727 17.5507 15.9484 17.7675 15.9484C17.9842 15.9484 18.1599 15.7727 18.1599 15.556V12.2069C18.1599 11.9902 17.9842 11.8145 17.7675 11.8145Z" fill="url(#paint8_linear_1351_2880)" stroke="url(#paint9_linear_1351_2880)" stroke-width="0.3"/>
<path d="M16.8086 5.08093C17.0809 5.16774 17.3525 5.26858 17.6155 5.38056C17.6657 5.40191 17.7178 5.41201 17.7691 5.41201C17.9217 5.41201 18.0668 5.32243 18.1303 5.17318C18.2152 4.97376 18.1224 4.74325 17.923 4.65837C17.6373 4.53681 17.3426 4.42734 17.0469 4.33309C16.8404 4.26726 16.6196 4.38134 16.5538 4.58783C16.488 4.79432 16.6021 5.0151 16.8086 5.08093Z" fill="url(#paint10_linear_1351_2880)" stroke="url(#paint11_linear_1351_2880)" stroke-width="0.3"/>
<path d="M5.88552 18.2983C5.7817 18.1081 5.54324 18.0379 5.35302 18.1418C5.16275 18.2456 5.09263 18.484 5.19645 18.6743C5.3593 18.9728 5.53957 19.2664 5.73225 19.547C5.80834 19.6577 5.93115 19.7173 6.05611 19.7173C6.13267 19.7173 6.21001 19.6949 6.27794 19.6483C6.45664 19.5256 6.50201 19.2813 6.3793 19.1026C6.20174 18.844 6.0356 18.5734 5.88552 18.2983Z" fill="url(#paint12_linear_1351_2880)" stroke="url(#paint13_linear_1351_2880)" stroke-width="0.3"/>
<path d="M13.1966 23.0831C11.0936 22.9018 9.09732 21.9905 7.57564 20.5168C7.41991 20.366 7.17145 20.37 7.02069 20.5257C6.86993 20.6814 6.87386 20.9299 7.02959 21.0806C8.68057 22.6795 10.8468 23.6684 13.1292 23.8651C13.1407 23.8661 13.152 23.8665 13.1633 23.8665C13.3648 23.8665 13.5363 23.7122 13.5539 23.5078C13.5725 23.2918 13.4125 23.1017 13.1966 23.0831Z" fill="url(#paint14_linear_1351_2880)" stroke="url(#paint15_linear_1351_2880)" stroke-width="0.3"/>
<path d="M19.6491 5.60167C19.4701 5.47938 19.2259 5.52532 19.1036 5.70424C18.9813 5.8832 19.0273 6.12742 19.2062 6.24971C21.0295 7.49582 22.3485 9.3501 22.9201 11.4709C22.9673 11.646 23.1257 11.7613 23.2988 11.7613C23.3326 11.7613 23.367 11.7569 23.4011 11.7477C23.6105 11.6913 23.7344 11.4759 23.678 11.2667C23.0578 8.96522 21.6269 6.95338 19.6491 5.60167Z" fill="url(#paint16_linear_1351_2880)" stroke="url(#paint17_linear_1351_2880)" stroke-width="0.3"/>
<defs>
<linearGradient id="paint0_linear_1351_2880" x1="14" y1="0.511719" x2="14" y2="27.2518" gradientUnits="userSpaceOnUse">
<stop stop-color="#05A6A6"/>
<stop offset="1" stop-color="#0D5B6A"/>
</linearGradient>
<linearGradient id="paint1_linear_1351_2880" x1="14" y1="0.511719" x2="14" y2="27.2518" gradientUnits="userSpaceOnUse">
<stop stop-color="#05A6A6"/>
<stop offset="1" stop-color="#0D5B6A"/>
</linearGradient>
<linearGradient id="paint2_linear_1351_2880" x1="13.9982" y1="5.95312" x2="13.9982" y2="21.8088" gradientUnits="userSpaceOnUse">
<stop stop-color="#05A6A6"/>
<stop offset="1" stop-color="#0D5B6A"/>
</linearGradient>
<linearGradient id="paint3_linear_1351_2880" x1="13.9982" y1="5.95312" x2="13.9982" y2="21.8088" gradientUnits="userSpaceOnUse">
<stop stop-color="#05A6A6"/>
<stop offset="1" stop-color="#0D5B6A"/>
</linearGradient>
<linearGradient id="paint4_linear_1351_2880" x1="15.2577" y1="11.8145" x2="15.2577" y2="15.9484" gradientUnits="userSpaceOnUse">
<stop stop-color="#05A6A6"/>
<stop offset="1" stop-color="#0D5B6A"/>
</linearGradient>
<linearGradient id="paint5_linear_1351_2880" x1="15.2577" y1="11.8145" x2="15.2577" y2="15.9484" gradientUnits="userSpaceOnUse">
<stop stop-color="#05A6A6"/>
<stop offset="1" stop-color="#0D5B6A"/>
</linearGradient>
<linearGradient id="paint6_linear_1351_2880" x1="11.2796" y1="11.8145" x2="11.2796" y2="15.9486" gradientUnits="userSpaceOnUse">
<stop stop-color="#05A6A6"/>
<stop offset="1" stop-color="#0D5B6A"/>
</linearGradient>
<linearGradient id="paint7_linear_1351_2880" x1="11.2796" y1="11.8145" x2="11.2796" y2="15.9486" gradientUnits="userSpaceOnUse">
<stop stop-color="#05A6A6"/>
<stop offset="1" stop-color="#0D5B6A"/>
</linearGradient>
<linearGradient id="paint8_linear_1351_2880" x1="17.7675" y1="11.8145" x2="17.7675" y2="15.9484" gradientUnits="userSpaceOnUse">
<stop stop-color="#05A6A6"/>
<stop offset="1" stop-color="#0D5B6A"/>
</linearGradient>
<linearGradient id="paint9_linear_1351_2880" x1="17.7675" y1="11.8145" x2="17.7675" y2="15.9484" gradientUnits="userSpaceOnUse">
<stop stop-color="#05A6A6"/>
<stop offset="1" stop-color="#0D5B6A"/>
</linearGradient>
<linearGradient id="paint10_linear_1351_2880" x1="17.3485" y1="4.31445" x2="17.3485" y2="5.41201" gradientUnits="userSpaceOnUse">
<stop stop-color="#05A6A6"/>
<stop offset="1" stop-color="#0D5B6A"/>
</linearGradient>
<linearGradient id="paint11_linear_1351_2880" x1="17.3485" y1="4.31445" x2="17.3485" y2="5.41201" gradientUnits="userSpaceOnUse">
<stop stop-color="#05A6A6"/>
<stop offset="1" stop-color="#0D5B6A"/>
</linearGradient>
<linearGradient id="paint12_linear_1351_2880" x1="5.79836" y1="18.0938" x2="5.79836" y2="19.7173" gradientUnits="userSpaceOnUse">
<stop stop-color="#05A6A6"/>
<stop offset="1" stop-color="#0D5B6A"/>
</linearGradient>
<linearGradient id="paint13_linear_1351_2880" x1="5.79836" y1="18.0938" x2="5.79836" y2="19.7173" gradientUnits="userSpaceOnUse">
<stop stop-color="#05A6A6"/>
<stop offset="1" stop-color="#0D5B6A"/>
</linearGradient>
<linearGradient id="paint14_linear_1351_2880" x1="10.2328" y1="20.4062" x2="10.2328" y2="23.8665" gradientUnits="userSpaceOnUse">
<stop stop-color="#05A6A6"/>
<stop offset="1" stop-color="#0D5B6A"/>
</linearGradient>
<linearGradient id="paint15_linear_1351_2880" x1="10.2328" y1="20.4062" x2="10.2328" y2="23.8665" gradientUnits="userSpaceOnUse">
<stop stop-color="#05A6A6"/>
<stop offset="1" stop-color="#0D5B6A"/>
</linearGradient>
<linearGradient id="paint16_linear_1351_2880" x1="21.3634" y1="5.5332" x2="21.3634" y2="11.7613" gradientUnits="userSpaceOnUse">
<stop stop-color="#05A6A6"/>
<stop offset="1" stop-color="#0D5B6A"/>
</linearGradient>
<linearGradient id="paint17_linear_1351_2880" x1="21.3634" y1="5.5332" x2="21.3634" y2="11.7613" gradientUnits="userSpaceOnUse">
<stop stop-color="#05A6A6"/>
<stop offset="1" stop-color="#0D5B6A"/>
</linearGradient>
</defs>
</svg>
