<svg width="262" height="270" viewBox="0 0 262 270" fill="none" xmlns="http://www.w3.org/2000/svg">
<path d="M255.62 163.475L246.339 158.116C247.898 150.364 248.686 142.6 248.686 134.999C248.686 127.287 247.91 119.517 246.378 111.859L255.62 106.523C258.482 104.87 260.53 102.202 261.385 99.0092C262.241 95.8166 261.802 92.4819 260.149 89.6196L234.874 45.8419C233.221 42.9795 230.553 40.9317 227.361 40.0765C224.168 39.2214 220.833 39.66 217.971 41.3129L208.721 46.6533C197.037 36.3743 183.287 28.419 168.649 23.4694V12.8371C168.649 6.01389 163.098 0.462891 156.275 0.462891H105.725C98.9021 0.462891 93.3511 6.01389 93.3511 12.8371V23.4699C78.7917 28.3995 65.06 36.3654 53.333 46.6849L44.0292 41.3129C41.1663 39.66 37.8316 39.2209 34.6391 40.0765C31.4465 40.9322 28.7785 42.9795 27.1256 45.8419L1.85069 89.6196C0.197818 92.4819 -0.240807 95.8166 0.614327 99.0092C1.46946 102.202 3.51725 104.87 6.37964 106.523L15.6608 111.881C14.1032 119.634 13.3139 127.397 13.3139 134.999C13.3139 142.71 14.0901 150.48 15.6223 158.139L6.38016 163.475C0.471103 166.886 -1.56037 174.469 1.85069 180.379L27.1256 224.156C30.5372 230.065 38.1196 232.097 44.0292 228.685L53.2783 223.345C64.9626 233.624 78.7127 241.579 93.3511 246.529V257.161C93.3511 263.984 98.9021 269.535 105.725 269.535H156.275C163.098 269.535 168.649 263.984 168.649 257.161V246.528C183.209 241.599 196.941 233.633 208.668 223.314L217.971 228.685C223.88 232.097 231.463 230.065 234.875 224.156L260.15 180.379C263.561 174.469 261.529 166.886 255.62 163.475ZM253.309 176.429L228.034 220.207C226.8 222.344 224.058 223.079 221.92 221.845L210.13 215.037C208.631 214.172 206.744 214.383 205.474 215.558C193.419 226.707 178.916 235.119 163.532 239.885C161.878 240.397 160.751 241.926 160.751 243.657V257.161C160.751 259.629 158.743 261.637 156.275 261.637H105.725C103.257 261.637 101.249 259.629 101.249 257.161V243.657C101.249 241.927 100.122 240.397 98.4692 239.885C82.9905 235.09 68.469 226.688 56.4734 215.59C55.7252 214.898 54.7621 214.54 53.7906 214.54C53.1134 214.54 52.4326 214.713 51.8171 215.069L40.08 221.845C37.9422 223.078 35.1999 222.344 33.9661 220.207L8.69124 176.429C7.45751 174.292 8.19258 171.549 10.3294 170.315L22.0569 163.544C23.5545 162.679 24.3153 160.942 23.9346 159.255C22.128 151.247 21.2123 143.086 21.2123 134.999C21.2123 127.048 22.1417 118.895 23.9752 110.766C24.3554 109.079 23.5945 107.341 22.0975 106.477L10.3294 99.6826C9.29415 99.085 8.5538 98.1198 8.24419 96.9651C7.9351 95.8103 8.09359 94.604 8.69124 93.5688L33.9661 49.7911C34.5638 48.7558 35.529 48.015 36.6842 47.7059C37.8385 47.3963 39.0453 47.5553 40.0806 48.1529L51.8713 54.9603C53.3699 55.826 55.2571 55.6143 56.5271 54.4395C68.5822 43.2907 83.0853 34.8789 98.4692 30.113C100.123 29.6006 101.25 28.0715 101.25 26.3407V12.8371C101.25 10.3691 103.258 8.3613 105.726 8.3613H156.276C158.744 8.3613 160.751 10.3691 160.751 12.8371V26.3407C160.751 28.0715 161.879 29.6006 163.532 30.113C179.01 34.9078 193.531 43.3091 205.527 54.4079C206.797 55.5832 208.685 55.7944 210.184 54.9292L221.921 48.1529C222.957 47.5553 224.163 47.3963 225.317 47.7059C226.472 48.0155 227.437 48.7558 228.035 49.7911L253.31 93.5688C253.908 94.604 254.067 95.8103 253.757 96.9651C253.448 98.1198 252.707 99.085 251.672 99.6826L239.944 106.454C238.447 107.318 237.686 109.056 238.067 110.743C239.873 118.75 240.789 126.911 240.789 134.999C240.789 142.95 239.86 151.103 238.026 159.232C237.646 160.918 238.407 162.656 239.904 163.521L251.672 170.315C253.808 171.549 254.543 174.292 253.309 176.429Z" fill="url(#paint0_linear_1351_3189)" stroke="url(#paint1_linear_1351_3189)" stroke-width="0.3"/>
<path d="M131 55.2246C87.0127 55.2246 51.2266 91.0112 51.2266 134.999C51.2266 178.986 87.0127 214.772 131 214.772C174.988 214.772 210.774 178.986 210.774 134.999C210.774 91.0112 174.988 55.2246 131 55.2246ZM131 206.874C91.3684 206.874 59.125 174.631 59.125 134.999C59.125 95.3664 91.3684 63.123 131 63.123C170.633 63.123 202.876 95.3664 202.876 134.999C202.876 174.631 170.633 206.874 131 206.874Z" fill="url(#paint2_linear_1351_3189)" stroke="url(#paint3_linear_1351_3189)" stroke-width="0.3"/>
<path d="M145.744 114.199H131C128.819 114.199 127.051 115.967 127.051 118.148V151.848C127.051 154.029 128.819 155.797 131 155.797C133.181 155.797 134.949 154.029 134.949 151.848V143.16H145.744C153.728 143.16 160.224 136.664 160.224 128.68C160.224 120.695 153.728 114.199 145.744 114.199ZM145.744 135.262H134.949V122.098H145.744C149.373 122.098 152.326 125.05 152.326 128.68C152.326 132.309 149.373 135.262 145.744 135.262Z" fill="url(#paint4_linear_1351_3189)" stroke="url(#paint5_linear_1351_3189)" stroke-width="0.3"/>
<path d="M109.423 116.762C108.845 115.221 107.372 114.199 105.726 114.199H101.513C99.8673 114.199 98.3935 115.22 97.8159 116.762L85.1784 150.462C84.4123 152.504 85.4475 154.78 87.4895 155.546C89.5315 156.312 91.8078 155.277 92.5739 153.235L94.7718 147.373H112.467L114.665 153.235C115.26 154.82 116.765 155.799 118.363 155.799C118.824 155.799 119.293 155.717 119.749 155.546C121.791 154.781 122.826 152.504 122.06 150.462L109.423 116.762ZM97.7337 139.474L103.62 123.779L109.505 139.474H97.7337Z" fill="url(#paint6_linear_1351_3189)" stroke="url(#paint7_linear_1351_3189)" stroke-width="0.3"/>
<path d="M168.91 114.199C166.729 114.199 164.961 115.967 164.961 118.148V151.848C164.961 154.029 166.729 155.797 168.91 155.797C171.091 155.797 172.859 154.029 172.859 151.848V118.148C172.859 115.967 171.091 114.199 168.91 114.199Z" fill="url(#paint8_linear_1351_3189)" stroke="url(#paint9_linear_1351_3189)" stroke-width="0.3"/>
<path d="M159.251 46.4334C161.992 47.3069 164.724 48.3216 167.371 49.4484C167.876 49.6633 168.4 49.7649 168.916 49.7649C170.452 49.7649 171.912 48.8634 172.552 47.3617C173.406 45.355 172.472 43.0355 170.465 42.1814C167.591 40.9582 164.625 39.8566 161.649 38.9083C159.572 38.2459 157.35 39.3938 156.687 41.4716C156.025 43.5494 157.173 45.7709 159.251 46.4334Z" fill="url(#paint10_linear_1351_3189)" stroke="url(#paint11_linear_1351_3189)" stroke-width="0.3"/>
<path d="M49.3583 179.441C48.3136 177.527 45.9141 176.821 44 177.866C42.0855 178.911 41.3799 181.31 42.4246 183.224C44.0632 186.228 45.8772 189.182 47.816 192.006C48.5816 193.12 49.8175 193.72 51.0749 193.72C51.8452 193.72 52.6235 193.495 53.307 193.026C55.1052 191.791 55.5617 189.332 54.3269 187.535C52.5403 184.932 50.8685 182.21 49.3583 179.441Z" fill="url(#paint12_linear_1351_3189)" stroke="url(#paint13_linear_1351_3189)" stroke-width="0.3"/>
<path d="M122.914 227.59C101.752 225.766 81.6645 216.596 66.3527 201.767C64.7856 200.249 62.2855 200.29 60.7685 201.856C59.2515 203.423 59.291 205.923 60.858 207.44C77.471 223.529 99.269 233.48 122.235 235.459C122.351 235.469 122.465 235.473 122.579 235.473C124.607 235.473 126.332 233.92 126.509 231.863C126.696 229.691 125.086 227.777 122.914 227.59Z" fill="url(#paint14_linear_1351_3189)" stroke="url(#paint15_linear_1351_3189)" stroke-width="0.3"/>
<path d="M187.83 51.689C186.029 50.4584 183.572 50.9207 182.341 52.721C181.111 54.5219 181.573 56.9793 183.373 58.2099C201.721 70.7489 214.993 89.4075 220.744 110.748C221.219 112.51 222.814 113.67 224.555 113.67C224.895 113.67 225.241 113.626 225.585 113.533C227.691 112.966 228.938 110.799 228.371 108.693C222.13 85.5347 207.732 65.2906 187.83 51.689Z" fill="url(#paint16_linear_1351_3189)" stroke="url(#paint17_linear_1351_3189)" stroke-width="0.3"/>
<defs>
<linearGradient id="paint0_linear_1351_3189" x1="131" y1="0.462891" x2="131" y2="269.535" gradientUnits="userSpaceOnUse">
<stop stop-color="#0BE6E6"/>
<stop offset="1" stop-color="#0B9292" stop-opacity="0.45"/>
</linearGradient>
<linearGradient id="paint1_linear_1351_3189" x1="131" y1="0.462891" x2="131" y2="269.535" gradientUnits="userSpaceOnUse">
<stop stop-color="#0BE6E6"/>
<stop offset="1" stop-color="#0B9292" stop-opacity="0.45"/>
</linearGradient>
<linearGradient id="paint2_linear_1351_3189" x1="131" y1="55.2246" x2="131" y2="214.772" gradientUnits="userSpaceOnUse">
<stop stop-color="#0BE6E6"/>
<stop offset="1" stop-color="#0B9292" stop-opacity="0.45"/>
</linearGradient>
<linearGradient id="paint3_linear_1351_3189" x1="131" y1="55.2246" x2="131" y2="214.772" gradientUnits="userSpaceOnUse">
<stop stop-color="#0BE6E6"/>
<stop offset="1" stop-color="#0B9292" stop-opacity="0.45"/>
</linearGradient>
<linearGradient id="paint4_linear_1351_3189" x1="143.637" y1="114.199" x2="143.637" y2="155.797" gradientUnits="userSpaceOnUse">
<stop stop-color="#0BE6E6"/>
<stop offset="1" stop-color="#0B9292" stop-opacity="0.45"/>
</linearGradient>
<linearGradient id="paint5_linear_1351_3189" x1="143.637" y1="114.199" x2="143.637" y2="155.797" gradientUnits="userSpaceOnUse">
<stop stop-color="#0BE6E6"/>
<stop offset="1" stop-color="#0B9292" stop-opacity="0.45"/>
</linearGradient>
<linearGradient id="paint6_linear_1351_3189" x1="103.619" y1="114.199" x2="103.619" y2="155.799" gradientUnits="userSpaceOnUse">
<stop stop-color="#0BE6E6"/>
<stop offset="1" stop-color="#0B9292" stop-opacity="0.45"/>
</linearGradient>
<linearGradient id="paint7_linear_1351_3189" x1="103.619" y1="114.199" x2="103.619" y2="155.799" gradientUnits="userSpaceOnUse">
<stop stop-color="#0BE6E6"/>
<stop offset="1" stop-color="#0B9292" stop-opacity="0.45"/>
</linearGradient>
<linearGradient id="paint8_linear_1351_3189" x1="168.91" y1="114.199" x2="168.91" y2="155.797" gradientUnits="userSpaceOnUse">
<stop stop-color="#0BE6E6"/>
<stop offset="1" stop-color="#0B9292" stop-opacity="0.45"/>
</linearGradient>
<linearGradient id="paint9_linear_1351_3189" x1="168.91" y1="114.199" x2="168.91" y2="155.797" gradientUnits="userSpaceOnUse">
<stop stop-color="#0BE6E6"/>
<stop offset="1" stop-color="#0B9292" stop-opacity="0.45"/>
</linearGradient>
<linearGradient id="paint10_linear_1351_3189" x1="164.684" y1="38.7207" x2="164.684" y2="49.7649" gradientUnits="userSpaceOnUse">
<stop stop-color="#0BE6E6"/>
<stop offset="1" stop-color="#0B9292" stop-opacity="0.45"/>
</linearGradient>
<linearGradient id="paint11_linear_1351_3189" x1="164.684" y1="38.7207" x2="164.684" y2="49.7649" gradientUnits="userSpaceOnUse">
<stop stop-color="#0BE6E6"/>
<stop offset="1" stop-color="#0B9292" stop-opacity="0.45"/>
</linearGradient>
<linearGradient id="paint12_linear_1351_3189" x1="48.4812" y1="177.383" x2="48.4812" y2="193.72" gradientUnits="userSpaceOnUse">
<stop stop-color="#0BE6E6"/>
<stop offset="1" stop-color="#0B9292" stop-opacity="0.45"/>
</linearGradient>
<linearGradient id="paint13_linear_1351_3189" x1="48.4812" y1="177.383" x2="48.4812" y2="193.72" gradientUnits="userSpaceOnUse">
<stop stop-color="#0BE6E6"/>
<stop offset="1" stop-color="#0B9292" stop-opacity="0.45"/>
</linearGradient>
<linearGradient id="paint14_linear_1351_3189" x1="93.09" y1="200.654" x2="93.09" y2="235.473" gradientUnits="userSpaceOnUse">
<stop stop-color="#0BE6E6"/>
<stop offset="1" stop-color="#0B9292" stop-opacity="0.45"/>
</linearGradient>
<linearGradient id="paint15_linear_1351_3189" x1="93.09" y1="200.654" x2="93.09" y2="235.473" gradientUnits="userSpaceOnUse">
<stop stop-color="#0BE6E6"/>
<stop offset="1" stop-color="#0B9292" stop-opacity="0.45"/>
</linearGradient>
<linearGradient id="paint16_linear_1351_3189" x1="205.08" y1="51" x2="205.08" y2="113.67" gradientUnits="userSpaceOnUse">
<stop stop-color="#0BE6E6"/>
<stop offset="1" stop-color="#0B9292" stop-opacity="0.45"/>
</linearGradient>
<linearGradient id="paint17_linear_1351_3189" x1="205.08" y1="51" x2="205.08" y2="113.67" gradientUnits="userSpaceOnUse">
<stop stop-color="#0BE6E6"/>
<stop offset="1" stop-color="#0B9292" stop-opacity="0.45"/>
</linearGradient>
</defs>
</svg>
