<svg width="55" height="54" viewBox="0 0 55 54" fill="none" xmlns="http://www.w3.org/2000/svg">
<path d="M23.5809 4.2277L26.2599 1.5507C26.528 1.28116 26.8467 1.06725 27.1977 0.921295C27.5488 0.775335 27.9252 0.700195 28.3054 0.700195C28.6855 0.700195 29.062 0.775335 29.413 0.921295C29.764 1.06725 30.0828 1.28116 30.3509 1.5507L53.8129 25.0007C54.0824 25.2688 54.2963 25.5875 54.4423 25.9386C54.5882 26.2896 54.6634 26.666 54.6634 27.0462C54.6634 27.4264 54.5882 27.8028 54.4423 28.1538C54.2963 28.5049 54.0824 28.8236 53.8129 29.0917L30.3519 52.5507C30.0838 52.8203 29.765 53.0342 29.414 53.1801C29.063 53.3261 28.6865 53.4012 28.3064 53.4012C27.9262 53.4012 27.5498 53.3261 27.1987 53.1801C26.8477 53.0342 26.529 52.8203 26.2609 52.5507L23.5819 49.8717C23.3098 49.5986 23.095 49.2739 22.9499 48.9168C22.8048 48.5596 22.7323 48.1771 22.7368 47.7916C22.7413 47.4062 22.8226 47.0254 22.9759 46.6717C23.1292 46.318 23.3516 45.9985 23.6299 45.7317L38.1719 31.8777H3.48986C3.10866 31.879 2.73096 31.8049 2.37852 31.6596C2.02608 31.5144 1.70586 31.3008 1.43631 31.0313C1.16675 30.7617 0.95319 30.4415 0.807919 30.089C0.662649 29.7366 0.58854 29.3589 0.589861 28.9777V25.1197C0.58854 24.7385 0.662649 24.3608 0.807919 24.0084C0.95319 23.6559 1.16675 23.3357 1.43631 23.0661C1.70586 22.7966 2.02608 22.583 2.37852 22.4378C2.73096 22.2925 3.10866 22.2184 3.48986 22.2197H38.1719L23.6289 8.3677C23.348 8.10246 23.1234 7.78339 22.9684 7.42952C22.8134 7.07564 22.7312 6.69419 22.7267 6.30789C22.7222 5.92158 22.7955 5.53833 22.9423 5.18095C23.089 4.82358 23.3062 4.49939 23.5809 4.2277Z" fill="#05A3A3"/>
</svg>
