<svg width="25" height="30" viewBox="0 0 25 30" fill="none" xmlns="http://www.w3.org/2000/svg">
<path d="M22.6693 15.6667V8.06675C22.6693 5.82654 22.6693 4.70643 22.2333 3.85079C21.8498 3.09814 21.2379 2.48622 20.4852 2.10272C19.6296 1.66675 18.5095 1.66675 16.2693 1.66675H7.73594C5.49573 1.66675 4.37562 1.66675 3.51998 2.10272C2.76733 2.48622 2.1554 3.09814 1.77191 3.85079C1.33594 4.70643 1.33594 5.82654 1.33594 8.06675V21.9334C1.33594 24.1736 1.33594 25.2937 1.77191 26.1494C2.1554 26.902 2.76733 27.5139 3.51998 27.8974C4.37562 28.3334 5.49573 28.3334 7.73594 28.3334H12.0026M14.6693 13.6667H6.66927M9.33594 19.0001H6.66927M17.3359 8.33341H6.66927M15.3359 24.3334L18.0026 27.0001L24.0026 21.0001" stroke="url(#paint0_linear_979_227)" stroke-width="2" stroke-linecap="round" stroke-linejoin="round"/>
<defs>
<linearGradient id="paint0_linear_979_227" x1="12.6693" y1="1.66675" x2="12.6693" y2="28.3334" gradientUnits="userSpaceOnUse">
<stop stop-color="#05A6A6"/>
<stop offset="1" stop-color="#0D5B6A"/>
</linearGradient>
</defs>
</svg>
