<svg width="364" height="330" viewBox="0 0 364 330" fill="none" xmlns="http://www.w3.org/2000/svg">
<path d="M112.332 321.75V77.9167C112.332 61.7197 112.332 53.6212 114.112 46.9767C118.944 28.9456 133.028 14.8618 151.059 10.0304C157.703 8.25 165.802 8.25 181.999 8.25C198.196 8.25 206.294 8.25 212.939 10.0304C230.97 14.8618 245.054 28.9456 249.885 46.9767C251.665 53.6212 251.665 61.7197 251.665 77.9167V321.75M63.5654 321.75H300.432C319.941 321.75 329.695 321.75 337.146 317.953C343.7 314.614 349.029 309.285 352.369 302.731C356.165 295.279 356.165 285.525 356.165 266.017V133.65C356.165 114.141 356.165 104.387 352.369 96.936C349.029 90.3817 343.7 85.0529 337.146 81.7133C329.695 77.9167 319.941 77.9167 300.432 77.9167H63.5654C44.0569 77.9167 34.3026 77.9167 26.8514 81.7133C20.297 85.0529 14.9682 90.3817 11.6286 96.936C7.83203 104.387 7.83203 114.141 7.83203 133.65V266.017C7.83203 285.525 7.83203 295.279 11.6286 302.731C14.9682 309.285 20.297 314.614 26.8514 317.953C34.3026 321.75 44.0569 321.75 63.5654 321.75Z" stroke="#05A6A6" stroke-width="15" stroke-linecap="round" stroke-linejoin="round"/>
</svg>
