<svg width="66" height="66" viewBox="0 0 66 66" fill="none" xmlns="http://www.w3.org/2000/svg">
<path d="M8.5 22.5006V50.5006M24.25 22.5006V50.5006M41.75 22.5006V50.5006M57.5 22.5006V50.5006M1.5 56.1006L1.5 58.9006C1.5 60.8607 1.5 61.8408 1.88148 62.5895C2.21703 63.2481 2.75247 63.7835 3.41103 64.1191C4.15972 64.5006 5.13982 64.5006 7.1 64.5006H58.9C60.8602 64.5006 61.8403 64.5006 62.589 64.1191C63.2475 63.7835 63.783 63.2481 64.1185 62.5895C64.5 61.8408 64.5 60.8607 64.5 58.9006V56.1006C64.5 54.1404 64.5 53.1603 64.1185 52.4116C63.783 51.753 63.2475 51.2176 62.589 50.882C61.8403 50.5006 60.8602 50.5006 58.9 50.5006H7.1C5.13982 50.5006 4.15972 50.5006 3.41103 50.882C2.75247 51.2176 2.21703 51.753 1.88148 52.4116C1.5 53.1603 1.5 54.1404 1.5 56.1006ZM31.7852 1.77052L5.88519 7.52607C4.32048 7.87379 3.53812 8.04764 2.95413 8.46837C2.43902 8.83947 2.03454 9.34369 1.78402 9.92704C1.5 10.5884 1.5 11.3898 1.5 12.9927L1.5 16.9006C1.5 18.8607 1.5 19.8408 1.88148 20.5895C2.21703 21.2481 2.75247 21.7835 3.41103 22.1191C4.15972 22.5006 5.13982 22.5006 7.1 22.5006H58.9C60.8602 22.5006 61.8403 22.5006 62.589 22.1191C63.2475 21.7835 63.783 21.2481 64.1185 20.5895C64.5 19.8408 64.5 18.8607 64.5 16.9006V12.9927C64.5 11.3898 64.5 10.5884 64.216 9.92704C63.9655 9.3437 63.561 8.83947 63.0459 8.46837C62.4619 8.04765 61.6795 7.87379 60.1148 7.52607L34.2148 1.77052C33.7615 1.66977 33.5348 1.6194 33.3057 1.59932C33.1023 1.58148 32.8977 1.58148 32.6943 1.59932C32.4652 1.6194 32.2385 1.66977 31.7852 1.77052Z" stroke="url(#paint0_linear_749_2272)" stroke-width="2" stroke-linecap="round" stroke-linejoin="round"/>
<defs>
<linearGradient id="paint0_linear_749_2272" x1="33" y1="1.58594" x2="33" y2="64.5006" gradientUnits="userSpaceOnUse">
<stop stop-color="#0BE6E6"/>
<stop offset="1" stop-color="#0B9292" stop-opacity="0.45"/>
</linearGradient>
</defs>
</svg>
