<svg width="256" height="255" viewBox="0 0 256 255" fill="none" xmlns="http://www.w3.org/2000/svg">
<path d="M34.0833 86.7508V194.084M94.4583 86.7508V194.084M161.542 86.7508V194.084M221.917 86.7508V194.084M7.25 215.551L7.25 226.284C7.25 233.798 7.25 237.555 8.71233 240.425C9.99863 242.95 12.0511 245.002 14.5756 246.289C17.4456 247.751 21.2026 247.751 28.7167 247.751H227.283C234.797 247.751 238.554 247.751 241.424 246.289C243.949 245.002 246.001 242.95 247.288 240.425C248.75 237.555 248.75 233.798 248.75 226.284V215.551C248.75 208.037 248.75 204.28 247.288 201.41C246.001 198.885 243.949 196.833 241.424 195.547C238.554 194.084 234.797 194.084 227.283 194.084H28.7167C21.2026 194.084 17.4456 194.084 14.5756 195.547C12.0511 196.833 9.99863 198.885 8.71233 201.41C7.25 204.28 7.25 208.037 7.25 215.551ZM123.343 7.28568L24.0599 29.3486C18.0618 30.6815 15.0628 31.348 12.8242 32.9608C10.8496 34.3833 9.29909 36.3162 8.33875 38.5524C7.25 41.0875 7.25 44.1597 7.25 50.3041L7.25 65.2842C7.25 72.7982 7.25 76.5552 8.71233 79.4252C9.99863 81.9497 12.0511 84.0022 14.5756 85.2885C17.4456 86.7508 21.2026 86.7508 28.7167 86.7508H227.283C234.797 86.7508 238.554 86.7508 241.424 85.2885C243.949 84.0022 246.001 81.9497 247.288 79.4252C248.75 76.5552 248.75 72.7982 248.75 65.2842V50.3041C248.75 44.1597 248.75 41.0876 247.661 38.5524C246.701 36.3162 245.15 34.3833 243.176 32.9608C240.937 31.348 237.938 30.6816 231.94 29.3486L132.657 7.28568C130.919 6.8995 130.05 6.70641 129.172 6.62941C128.392 6.56103 127.608 6.56103 126.828 6.62941C125.95 6.70641 125.081 6.8995 123.343 7.28568Z" stroke="url(#paint0_linear_1332_3458)" stroke-width="13" stroke-linecap="round" stroke-linejoin="round"/>
<defs>
<linearGradient id="paint0_linear_1332_3458" x1="128" y1="6.57812" x2="128" y2="247.751" gradientUnits="userSpaceOnUse">
<stop stop-color="#05A6A6"/>
<stop offset="1" stop-color="#0D5B6A"/>
</linearGradient>
</defs>
</svg>
