<svg width="66" height="66" viewBox="0 0 66 66" fill="none" xmlns="http://www.w3.org/2000/svg">
<path d="M8.125 22.5006V50.5006M23.875 22.5006V50.5006M41.375 22.5006V50.5006M57.125 22.5006V50.5006M1.125 56.1006L1.125 58.9006C1.125 60.8607 1.125 61.8408 1.50648 62.5895C1.84203 63.2481 2.37747 63.7835 3.03603 64.1191C3.78472 64.5006 4.76482 64.5006 6.725 64.5006H58.525C60.4852 64.5006 61.4653 64.5006 62.214 64.1191C62.8725 63.7835 63.408 63.2481 63.7435 62.5895C64.125 61.8408 64.125 60.8607 64.125 58.9006V56.1006C64.125 54.1404 64.125 53.1603 63.7435 52.4116C63.408 51.753 62.8725 51.2176 62.214 50.882C61.4653 50.5006 60.4852 50.5006 58.525 50.5006H6.725C4.76482 50.5006 3.78472 50.5006 3.03603 50.882C2.37747 51.2176 1.84203 51.753 1.50648 52.4116C1.125 53.1603 1.125 54.1404 1.125 56.1006ZM31.4102 1.77052L5.51019 7.52607C3.94548 7.87379 3.16312 8.04764 2.57913 8.46837C2.06402 8.83947 1.65954 9.34369 1.40902 9.92704C1.125 10.5884 1.125 11.3898 1.125 12.9927L1.125 16.9006C1.125 18.8607 1.125 19.8408 1.50648 20.5895C1.84203 21.2481 2.37747 21.7835 3.03603 22.1191C3.78472 22.5006 4.76482 22.5006 6.725 22.5006H58.525C60.4852 22.5006 61.4653 22.5006 62.214 22.1191C62.8725 21.7835 63.408 21.2481 63.7435 20.5895C64.125 19.8408 64.125 18.8607 64.125 16.9006V12.9927C64.125 11.3898 64.125 10.5884 63.841 9.92704C63.5905 9.3437 63.186 8.83947 62.6709 8.46837C62.0869 8.04765 61.3045 7.87379 59.7398 7.52607L33.8398 1.77052C33.3865 1.66977 33.1598 1.6194 32.9307 1.59932C32.7273 1.58148 32.5227 1.58148 32.3193 1.59932C32.0902 1.6194 31.8635 1.66977 31.4102 1.77052Z" stroke="url(#paint0_linear_1351_1655)" stroke-width="2" stroke-linecap="round" stroke-linejoin="round"/>
<defs>
<linearGradient id="paint0_linear_1351_1655" x1="32.625" y1="1.58594" x2="32.625" y2="64.5006" gradientUnits="userSpaceOnUse">
<stop stop-color="#05A6A6"/>
<stop offset="1" stop-color="#0D5B6A"/>
</linearGradient>
</defs>
</svg>
