<svg width="350" height="360" viewBox="0 0 350 360" fill="none" xmlns="http://www.w3.org/2000/svg">
<path d="M169.842 42.3554V5.12015C169.842 2.28737 172.156 0 175.023 0C177.889 0 180.204 2.28741 180.204 5.12015V42.3554C180.204 45.1882 177.889 47.4755 175.023 47.4755C172.156 47.4301 169.842 45.1881 169.842 42.3554ZM291.459 50.6869L264.817 77.0152C262.809 78.9997 262.809 82.2567 264.817 84.226C265.844 85.241 267.132 85.7408 268.465 85.7408C269.799 85.7408 271.102 85.2409 272.114 84.226L298.755 57.8977C300.763 55.9132 300.763 52.6562 298.755 50.6869C296.747 48.6722 293.451 48.6722 291.459 50.6869ZM344.819 167.846H307.141C304.275 167.846 301.96 170.133 301.96 172.966C301.96 175.799 304.275 178.086 307.141 178.086H344.819C347.685 178.086 350 175.799 350 172.966C350 170.133 347.685 167.846 344.819 167.846ZM272.101 261.69C270.093 259.706 266.797 259.706 264.804 261.69C262.796 263.675 262.796 266.932 264.804 268.901L291.446 295.229C292.473 296.244 293.76 296.744 295.094 296.744C296.427 296.744 297.73 296.244 298.742 295.229C300.75 293.245 300.75 289.988 298.742 288.018L272.101 261.69ZM77.9463 84.193C78.9733 85.208 80.2609 85.7079 81.5945 85.7079C82.9281 85.7079 84.2311 85.208 85.2428 84.193C87.2508 82.2086 87.2508 78.9515 85.2428 76.9822L58.6014 50.654C56.5933 48.6695 53.2975 48.6695 51.3049 50.654C49.2968 52.6384 49.2968 55.8955 51.3049 57.8647L77.9463 84.193ZM42.859 167.842H5.18104C2.31457 167.842 0 170.129 0 172.962C0 175.795 2.3606 178.037 5.22695 178.037H42.9049C45.7714 178.037 48.086 175.749 48.086 172.917C48.0706 170.099 45.7254 167.842 42.859 167.842ZM77.9463 261.686L51.3049 288.014C49.2969 289.999 49.2969 293.256 51.3049 295.225C52.332 296.24 53.6195 296.74 54.9532 296.74C56.2868 296.74 57.5897 296.24 58.6014 295.225L85.2428 268.897C87.2508 266.913 87.2508 263.656 85.2428 261.686C83.204 259.717 79.939 259.672 77.9463 261.686ZM118.906 340.336C123.766 340.336 127.736 336.413 127.736 331.611C127.736 326.809 123.766 322.885 118.906 322.885C114.047 322.885 110.077 326.809 110.077 331.611C110.046 336.413 114.047 340.336 118.906 340.336ZM236.124 268.64C228.123 279.849 228.23 287.105 228.398 294.119C228.398 295.043 228.444 295.937 228.444 296.831V303.193H229.379C236.676 303.193 242.639 309.086 242.639 316.297V346.897C242.639 354.107 236.676 360 229.379 360H102.626C95.3294 360 89.3667 354.107 89.3667 346.897V316.297C89.3667 309.086 95.3294 303.193 102.626 303.193H103.607V263.944C103.607 259.641 102.427 255.991 99.8821 252.461C89.8418 238.691 84.538 222.452 84.538 205.529V127.667C84.538 114.442 95.4059 103.701 108.788 103.701C114.245 103.701 119.303 105.489 123.35 108.504C125.818 97.8845 135.475 89.9314 147.017 89.9314C152.474 89.9314 157.533 91.719 161.579 94.7336C164.047 84.1144 173.704 76.1613 185.247 76.1613C191.286 76.1613 196.82 78.373 201.066 81.9784C204.76 73.3284 213.39 67.2842 223.43 67.2842C236.812 67.2842 247.68 78.0243 247.68 91.2492V125.227C259.529 125.576 269.033 129.53 275.271 136.74C281.51 143.951 284.254 153.994 283.196 165.825L280.376 197.047C278.49 218.028 259.774 240.174 246.162 256.338C242.008 261.155 238.516 265.292 236.124 268.64ZM209.437 125.23L237.335 125.185V91.2219C237.335 83.6175 231.097 77.4518 223.401 77.4518C215.706 77.4518 209.468 83.6171 209.468 91.2219L209.483 125.23L209.437 125.23ZM171.223 136.622C171.223 143.212 175.928 148.726 182.213 150.074C181.11 147.362 180.328 144.484 179.945 141.5C179.362 137.274 180.527 133.35 183.363 130.139C186.183 126.927 189.954 125.216 194.277 125.216H199.182V100.084C199.182 92.4796 192.943 86.3139 185.248 86.3139C177.553 86.3139 171.314 92.4792 171.314 100.084L171.299 136.622L171.223 136.622ZM133.039 150.392C133.039 157.996 139.277 164.162 146.973 164.162C154.667 164.162 160.906 157.997 160.906 150.392V113.899C160.906 106.295 154.668 100.129 146.973 100.129C139.278 100.129 133.039 106.294 133.039 113.899V150.392ZM94.8091 164.162C94.8091 171.767 101.048 177.932 108.743 177.932C116.438 177.932 122.677 171.767 122.677 164.162V127.669C122.677 120.065 116.438 113.899 108.743 113.899C101.048 113.899 94.8091 120.064 94.8091 127.669V164.162ZM229.379 313.388H102.626C101.016 313.388 99.6829 314.706 99.6829 316.297V346.897C99.6829 348.487 101.016 349.805 102.626 349.805H229.379C230.989 349.805 232.323 348.487 232.323 346.897V316.297C232.323 314.661 231.02 313.388 229.379 313.388ZM238.163 249.781C250.962 234.617 268.453 213.909 270.031 196.109L272.852 164.888C273.679 155.86 271.748 148.406 267.395 143.332C262.796 138.06 255.622 135.379 245.965 135.379L194.214 135.424C192.926 135.424 191.945 135.894 191.118 136.818C190.29 137.787 189.983 138.802 190.137 140.075C191.976 152.906 203.319 162.995 215.996 162.995H228.243C231.033 162.995 233.578 164.161 235.417 166.252C237.257 168.342 238.008 171.023 237.609 173.735L236.475 181.37C236.168 183.385 234.712 185.021 232.75 185.521C224.043 187.884 194.72 197.73 182.764 225.499C181.661 228.105 178.61 229.301 175.974 228.18C173.337 227.09 172.126 224.075 173.26 221.47C185.814 192.43 214.311 180.522 226.79 176.601L227.295 173.147H216.075C205.237 173.147 195.32 168.178 188.56 160.316C187.456 160.468 186.368 160.543 185.31 160.543C179.853 160.543 174.795 158.756 170.748 155.741C168.28 166.36 158.623 174.313 147.081 174.313C141.624 174.313 136.565 172.526 132.519 169.511C130.051 180.13 120.394 188.084 108.852 188.084C103.67 188.084 98.8418 186.447 94.9177 183.706V205.429C94.9177 220.199 99.547 234.362 108.346 246.419C112.193 251.691 114.033 257.387 114.033 263.871V303.12H218.222V296.758C218.222 295.94 218.222 295.091 218.176 294.243C218.023 286.79 217.824 276.64 227.833 262.674C230.316 259.099 233.963 254.795 238.163 249.781Z" fill="#05A6A6"/>
</svg>
