<svg width="30" height="21" viewBox="0 0 30 21" fill="none" xmlns="http://www.w3.org/2000/svg">
<path d="M2.22683 11.4507C2.04525 11.1632 1.95446 11.0195 1.90363 10.7977C1.86546 10.6312 1.86546 10.3685 1.90363 10.2019C1.95446 9.98021 2.04525 9.83645 2.22683 9.54893C3.72737 7.17296 8.19387 1.1665 15.0005 1.1665C21.8072 1.1665 26.2737 7.17296 27.7742 9.54893C27.9558 9.83645 28.0466 9.98021 28.0974 10.2019C28.1356 10.3685 28.1356 10.6312 28.0974 10.7977C28.0466 11.0195 27.9558 11.1632 27.7742 11.4507C26.2737 13.8267 21.8072 19.8332 15.0005 19.8332C8.19387 19.8332 3.72737 13.8267 2.22683 11.4507Z" stroke="white" stroke-width="2" stroke-linecap="round" stroke-linejoin="round"/>
<path d="M15.0005 14.4998C17.2097 14.4998 19.0005 12.709 19.0005 10.4998C19.0005 8.2907 17.2097 6.49984 15.0005 6.49984C12.7914 6.49984 11.0005 8.2907 11.0005 10.4998C11.0005 12.709 12.7914 14.4998 15.0005 14.4998Z" stroke="white" stroke-width="2" stroke-linecap="round" stroke-linejoin="round"/>
</svg>
