<svg width="30" height="38" viewBox="0 0 30 38" fill="none" xmlns="http://www.w3.org/2000/svg">
<path d="M18.5 17.25H8M11.5 24.25H8M22 10.25H8M29 9.9V28.1C29 31.0403 29 32.5104 28.4278 33.6334C27.9244 34.6213 27.1213 35.4244 26.1335 35.9278C25.0104 36.5 23.5403 36.5 20.6 36.5H9.4C6.45972 36.5 4.98959 36.5 3.86655 35.9278C2.8787 35.4244 2.07555 34.6213 1.57222 33.6334C1 32.5104 1 31.0403 1 28.1V9.9C1 6.95972 1 5.48959 1.57222 4.36655C2.07555 3.3787 2.8787 2.57555 3.86655 2.07222C4.98959 1.5 6.45972 1.5 9.4 1.5H20.6C23.5403 1.5 25.0104 1.5 26.1335 2.07222C27.1213 2.57555 27.9244 3.3787 28.4278 4.36655C29 5.48959 29 6.95972 29 9.9Z" stroke="url(#paint0_linear_759_1186)" stroke-width="2" stroke-linecap="round" stroke-linejoin="round"/>
<defs>
<linearGradient id="paint0_linear_759_1186" x1="15" y1="1.5" x2="15" y2="36.5" gradientUnits="userSpaceOnUse">
<stop stop-color="#05A6A6"/>
<stop offset="1" stop-color="#0D5B6A"/>
</linearGradient>
</defs>
</svg>
