<svg width="38" height="35" viewBox="0 0 38 35" fill="none" xmlns="http://www.w3.org/2000/svg">
<path d="M20.75 5.25C20.75 7.183 16.4407 8.75 11.125 8.75C5.80926 8.75 1.5 7.183 1.5 5.25M20.75 5.25C20.75 3.317 16.4407 1.75 11.125 1.75C5.80926 1.75 1.5 3.317 1.5 5.25M20.75 5.25V7.875M1.5 5.25V26.25C1.5 28.183 5.80926 29.75 11.125 29.75M11.125 15.75C10.83 15.75 10.5382 15.7452 10.25 15.7357C5.34431 15.575 1.5 14.0757 1.5 12.25M11.125 22.75C5.80926 22.75 1.5 21.183 1.5 19.25M36.5 16.625C36.5 18.558 32.1907 20.125 26.875 20.125C21.5593 20.125 17.25 18.558 17.25 16.625M36.5 16.625C36.5 14.692 32.1907 13.125 26.875 13.125C21.5593 13.125 17.25 14.692 17.25 16.625M36.5 16.625V29.75C36.5 31.683 32.1907 33.25 26.875 33.25C21.5593 33.25 17.25 31.683 17.25 29.75V16.625M36.5 23.1875C36.5 25.1205 32.1907 26.6875 26.875 26.6875C21.5593 26.6875 17.25 25.1205 17.25 23.1875" stroke="url(#paint0_linear_979_2340)" stroke-width="2" stroke-linecap="round" stroke-linejoin="round"/>
<defs>
<linearGradient id="paint0_linear_979_2340" x1="19" y1="1.75" x2="19" y2="33.25" gradientUnits="userSpaceOnUse">
<stop stop-color="#05A6A6"/>
<stop offset="1" stop-color="#0D5B6A"/>
</linearGradient>
</defs>
</svg>
