<svg width="73" height="72" viewBox="0 0 73 72" fill="none" xmlns="http://www.w3.org/2000/svg">
<path d="M68.3018 39.8088C67.2731 49.4789 61.7972 58.5408 52.7361 63.7753C37.6817 72.4722 18.4316 67.3111 9.73998 52.2477L8.81423 50.6433M5.69613 33.1912C6.72482 23.5211 12.2008 14.4592 21.2619 9.22466C36.3163 0.527824 55.5663 5.68891 64.258 20.7523L65.1837 22.3567M5.5 58.9757L8.21077 48.853L18.3275 51.5654M55.6725 21.4347L65.7892 24.1471L68.5 14.0243" stroke="#F7C948" stroke-width="3" stroke-linecap="round" stroke-linejoin="round"/>
<path d="M30.8536 31.8057H26.3975C25.5369 31.8057 25.1066 31.8057 24.7779 31.9825C24.4888 32.138 24.2537 32.3861 24.1064 32.6913C23.9389 33.0382 23.9389 33.4924 23.9389 34.4008V48.0252M44.6828 31.8057H49.1389C49.9995 31.8057 50.4298 31.8057 50.7585 31.9825C51.0476 32.138 51.2827 32.3861 51.43 32.6913C51.5975 33.0382 51.5975 33.4924 51.5975 34.4008V48.0252M44.6828 48.0252V24.0203C44.6828 22.2036 44.6828 21.2952 44.3479 20.6013C44.0532 19.9909 43.5831 19.4946 43.0049 19.1836C42.3475 18.8301 41.4869 18.8301 39.7658 18.8301H35.7706C34.0495 18.8301 33.1889 18.8301 32.5315 19.1836C31.9533 19.4946 31.4832 19.9909 31.1885 20.6013C30.8536 21.2952 30.8536 22.2036 30.8536 24.0203V48.0252M53.1341 48.0252H22.4023M36.2316 25.3179H39.3048M36.2316 31.8057H39.3048M36.2316 38.2935H39.3048" stroke="#F7C948" stroke-width="3" stroke-linecap="round" stroke-linejoin="round"/>
</svg>
