<svg width="59" height="78" viewBox="0 0 59 78" fill="none" xmlns="http://www.w3.org/2000/svg">
<path d="M47.6253 0.109375C48.6534 0.130894 49.6465 0.488271 50.4524 1.12695C51.2583 1.76564 51.8333 2.65054 52.0891 3.64648L53.2258 8.24219C53.2521 8.34638 53.2642 8.45411 53.262 8.56152L51.6194 73.4463C51.5848 74.4425 51.1596 75.3848 50.4358 76.0703C49.7121 76.7558 48.7479 77.1299 47.7512 77.1104H6.15359C5.15695 77.1299 4.19178 76.7558 3.46804 76.0703C2.74456 75.3849 2.31998 74.4423 2.28542 73.4463L0.625265 8.56152C0.623007 8.45411 0.635185 8.34638 0.661398 8.24219L1.80398 3.64062C2.07547 2.65489 2.65393 1.7814 3.45534 1.14648C4.25671 0.511662 5.23941 0.148176 6.26101 0.109375H47.6253ZM6.26101 2.51562C5.76674 2.55221 5.29558 2.74037 4.91237 3.05469C4.52907 3.3691 4.25289 3.79473 4.12038 4.27246L3.03737 8.66406L4.67312 73.3857C4.6994 73.7549 4.86935 74.0996 5.14577 74.3457C5.38757 74.5609 5.69438 74.6863 6.01491 74.7031H47.7512C48.1179 74.7149 48.4748 74.5845 48.7473 74.3389C49.0199 74.0933 49.1869 73.7517 49.2132 73.3857L50.8557 8.66406L49.7483 4.21777C49.6201 3.74589 49.3456 3.32637 48.9641 3.02051C48.5826 2.71472 48.1137 2.53804 47.6253 2.51562H6.26101ZM9.90749 62.2812C10.2264 62.2813 10.5325 62.4082 10.7581 62.6338C10.9835 62.8594 11.1106 63.1654 11.1106 63.4844V66.0527H17.1262C17.4452 66.0528 17.7513 66.1797 17.9768 66.4053C18.2024 66.6309 18.3293 66.9369 18.3294 67.2559C18.3294 67.5748 18.2023 67.8808 17.9768 68.1064C17.7513 68.332 17.4452 68.4589 17.1262 68.459H9.90749C9.5884 68.459 9.28156 68.3321 9.05593 68.1064C8.83052 67.8809 8.70437 67.5748 8.70437 67.2559V63.4844C8.70437 63.1655 8.83056 62.8594 9.05593 62.6338C9.28156 62.4082 9.5884 62.2812 9.90749 62.2812ZM23.3342 62.2812C23.6532 62.2813 23.9593 62.4082 24.1848 62.6338C24.4103 62.8594 24.5374 63.1654 24.5374 63.4844V66.0527H30.553C30.872 66.0528 31.178 66.1797 31.4036 66.4053C31.6292 66.6309 31.7561 66.9368 31.7561 67.2559C31.7561 67.5749 31.6291 67.8808 31.4036 68.1064C31.178 68.332 30.872 68.4589 30.553 68.459H23.3342C23.0152 68.459 22.7093 68.332 22.4837 68.1064C22.258 67.8808 22.1311 67.575 22.1311 67.2559V63.4844C22.1311 63.1653 22.258 62.8594 22.4837 62.6338C22.7093 62.4082 23.0152 62.2812 23.3342 62.2812ZM36.7669 62.2812C37.086 62.2812 37.3918 62.4082 37.6175 62.6338C37.8431 62.8594 37.97 63.1653 37.97 63.4844V66.0527H43.9856C44.3046 66.0527 44.6106 66.1797 44.8362 66.4053C45.0618 66.6309 45.1887 66.9368 45.1887 67.2559C45.1887 67.575 45.0618 67.8808 44.8362 68.1064C44.6106 68.3321 44.3047 68.459 43.9856 68.459H36.7669C36.4478 68.4589 36.1419 68.332 35.9163 68.1064C35.6907 67.8808 35.5637 67.5749 35.5637 67.2559V63.4844C35.5637 63.1654 35.6908 62.8594 35.9163 62.6338C36.1419 62.4082 36.4478 62.2813 36.7669 62.2812ZM57.4251 7.53223C57.744 7.53233 58.0501 7.65923 58.2757 7.88477C58.5012 8.1103 58.6281 8.4164 58.6282 8.73535L57.4251 60.6689C57.4251 60.9879 57.298 61.2939 57.0725 61.5195C56.847 61.7451 56.5409 61.872 56.2219 61.8721C55.9029 61.8721 55.596 61.7452 55.3704 61.5195C55.1449 61.2939 55.0188 60.9879 55.0188 60.6689L56.2219 8.73535C56.222 8.41645 56.348 8.1103 56.5735 7.88477C56.7991 7.65913 57.106 7.53223 57.4251 7.53223ZM9.90749 52.3975C10.2264 52.3976 10.5325 52.5245 10.7581 52.75C10.9836 52.9756 11.1106 53.2816 11.1106 53.6006V56.1689H17.1262C17.4452 56.169 17.7513 56.2959 17.9768 56.5215C18.2024 56.747 18.3293 57.0531 18.3294 57.3721C18.3294 57.6912 18.2025 57.998 17.9768 58.2236C17.7513 58.4491 17.4451 58.5751 17.1262 58.5752H9.90749C9.5884 58.5752 9.28156 58.4493 9.05593 58.2236C8.8303 57.998 8.70437 57.6912 8.70437 57.3721V53.6006C8.70437 53.2816 8.83049 52.9756 9.05593 52.75C9.28156 52.5244 9.5884 52.3975 9.90749 52.3975ZM23.3342 52.3975C23.6532 52.3975 23.9593 52.5244 24.1848 52.75C24.4104 52.9756 24.5374 53.2816 24.5374 53.6006V56.1689H30.553C30.872 56.169 31.178 56.2959 31.4036 56.5215C31.6291 56.747 31.756 57.0531 31.7561 57.3721C31.7561 57.6912 31.6292 57.998 31.4036 58.2236C31.178 58.4491 30.8719 58.5751 30.553 58.5752H23.3342C23.0154 58.5752 22.7093 58.449 22.4837 58.2236C22.258 57.998 22.1311 57.6912 22.1311 57.3721V53.6006C22.1311 53.2815 22.258 52.9756 22.4837 52.75C22.7093 52.5245 23.0152 52.3975 23.3342 52.3975ZM36.7669 52.3975C37.0859 52.3975 37.3918 52.5244 37.6175 52.75C37.8431 52.9756 37.97 53.2815 37.97 53.6006V56.1689H43.9856C44.3046 56.1689 44.6106 56.296 44.8362 56.5215C45.0617 56.747 45.1886 57.0531 45.1887 57.3721C45.1887 57.6912 45.0618 57.998 44.8362 58.2236C44.6106 58.449 44.3045 58.5752 43.9856 58.5752H36.7669C36.4479 58.5752 36.1419 58.4491 35.9163 58.2236C35.6907 57.998 35.5637 57.6912 35.5637 57.3721V53.6006C35.5637 53.2815 35.6907 52.9756 35.9163 52.75C36.1419 52.5244 36.4478 52.3975 36.7669 52.3975ZM9.90749 42.5137C10.2264 42.5138 10.5325 42.6407 10.7581 42.8662C10.9836 43.0918 11.1105 43.3978 11.1106 43.7168V46.2861H17.1262C17.4452 46.2862 17.7513 46.4122 17.9768 46.6377C18.2025 46.8633 18.3294 47.1702 18.3294 47.4893C18.3293 47.8082 18.2024 48.1143 17.9768 48.3398C17.7513 48.5654 17.4452 48.6923 17.1262 48.6924H9.90749C9.5884 48.6924 9.28156 48.5655 9.05593 48.3398C8.83046 48.1143 8.70447 47.8082 8.70437 47.4893V43.7168C8.70444 43.3979 8.83047 43.0918 9.05593 42.8662C9.28156 42.6406 9.5884 42.5137 9.90749 42.5137ZM23.3342 42.5137C23.6532 42.5137 23.9593 42.6406 24.1848 42.8662C24.4104 43.0918 24.5373 43.3978 24.5374 43.7168V46.2861H30.553C30.8719 46.2862 31.178 46.4122 31.4036 46.6377C31.6292 46.8633 31.7561 47.1702 31.7561 47.4893C31.756 47.8082 31.6291 48.1143 31.4036 48.3398C31.178 48.5654 30.872 48.6923 30.553 48.6924H23.3342C23.0153 48.6924 22.7093 48.5653 22.4837 48.3398C22.2581 48.1143 22.1312 47.8082 22.1311 47.4893V43.7168C22.1312 43.3978 22.2581 43.0918 22.4837 42.8662C22.7093 42.6407 23.0153 42.5137 23.3342 42.5137ZM36.7669 42.5137C37.0859 42.5137 37.3918 42.6407 37.6175 42.8662C37.843 43.0918 37.9699 43.3978 37.97 43.7168V46.2861H43.9856C44.3045 46.2861 44.6106 46.4123 44.8362 46.6377C45.0618 46.8633 45.1887 47.1702 45.1887 47.4893C45.1886 47.8082 45.0617 48.1143 44.8362 48.3398C44.6106 48.5653 44.3046 48.6924 43.9856 48.6924H36.7669C36.4479 48.6923 36.1419 48.5654 35.9163 48.3398C35.6907 48.1143 35.5638 47.8082 35.5637 47.4893V43.7168C35.5638 43.3978 35.6907 43.0918 35.9163 42.8662C36.1419 42.6407 36.4479 42.5137 36.7669 42.5137ZM43.9856 7.32812C44.3046 7.32812 44.6106 7.45512 44.8362 7.68066C45.0618 7.90628 45.1887 8.21218 45.1887 8.53125V36.4023C45.1886 36.7213 45.0617 37.0274 44.8362 37.2529C44.6106 37.4783 44.3045 37.6055 43.9856 37.6055H9.90749C9.5884 37.6055 9.28156 37.4786 9.05593 37.2529C8.83045 37.0274 8.70449 36.7212 8.70437 36.4023V8.53125C8.70438 8.21231 8.83048 7.90626 9.05593 7.68066C9.28156 7.45503 9.5884 7.32812 9.90749 7.32812H43.9856ZM11.1106 35.1992H42.7825V9.73438H11.1106V35.1992ZM31.5032 11.7383C31.7807 11.5788 32.1102 11.5357 32.4192 11.6191C32.7282 11.7026 32.9921 11.9051 33.1516 12.1826C34.953 15.3531 35.8997 18.9375 35.8997 22.584C35.8997 26.2305 34.953 29.8148 33.1516 32.9854C33.0487 33.1734 32.8972 33.3304 32.7132 33.4404C32.5292 33.5504 32.3191 33.6088 32.1048 33.6104C31.8932 33.6112 31.6848 33.5564 31.5012 33.4512C31.3178 33.346 31.165 33.1946 31.0589 33.0117C30.9527 32.8288 30.897 32.6207 30.8967 32.4092C30.8965 32.1976 30.9521 31.9889 31.0579 31.8057C32.6524 28.9981 33.4905 25.8244 33.4905 22.5957C33.4904 19.367 32.6524 16.1932 31.0579 13.3857C30.8985 13.1082 30.8553 12.7787 30.9387 12.4697C31.0222 12.1606 31.2256 11.8978 31.5032 11.7383ZM27.6301 13.7334C27.7949 13.7147 27.962 13.7305 28.1204 13.7793C28.2788 13.8282 28.4255 13.9093 28.551 14.0176C28.6766 14.1258 28.7782 14.2588 28.8499 14.4082C30.3069 16.8973 31.0755 19.7301 31.0755 22.6143C31.0754 25.4983 30.3068 28.3304 28.8499 30.8193C28.7407 30.9963 28.5878 31.1421 28.4055 31.2422C28.2232 31.3423 28.0178 31.3935 27.8098 31.3906C27.5993 31.3894 27.3921 31.3327 27.2102 31.2266C27.0285 31.1205 26.8774 30.9687 26.7727 30.7861C26.668 30.6035 26.6132 30.3961 26.6135 30.1855C26.6139 29.9751 26.6694 29.7682 26.7747 29.5859C28.0149 27.4662 28.6692 25.0545 28.6692 22.5986C28.6692 20.1428 28.0149 17.731 26.7747 15.6113C26.6806 15.4748 26.6158 15.32 26.5842 15.1572C26.5528 14.9944 26.5557 14.8268 26.5921 14.665C26.6284 14.5033 26.6971 14.3505 26.7952 14.2168C26.8934 14.083 27.0188 13.9709 27.1624 13.8877C27.3058 13.8046 27.4654 13.7521 27.6301 13.7334ZM23.054 16.1016C23.3252 15.9333 23.6524 15.8804 23.9632 15.9531C24.274 16.0259 24.5429 16.219 24.7112 16.4902C25.846 18.3257 26.4475 20.4407 26.4475 22.5986C26.4475 24.7567 25.8461 26.8725 24.7112 28.708C24.6036 28.8823 24.4534 29.026 24.2747 29.126C24.0957 29.226 23.8938 29.2791 23.6887 29.2793C23.4748 29.279 23.2648 29.2217 23.0803 29.1133C22.8958 29.0048 22.7432 28.8491 22.6389 28.6621C22.5348 28.4752 22.4829 28.2637 22.4876 28.0498C22.4923 27.8358 22.5539 27.6265 22.6663 27.4443C23.565 25.989 24.0413 24.312 24.0413 22.6016C24.0412 20.8913 23.5649 19.2149 22.6663 17.7598C22.498 17.4886 22.4442 17.1613 22.5169 16.8506C22.5896 16.5398 22.7828 16.2699 23.054 16.1016ZM19.0579 18.2393C19.3133 18.0596 19.6293 17.9866 19.9378 18.0352C20.246 18.0838 20.5234 18.2498 20.7112 18.499C21.5632 19.7086 22.0207 21.1523 22.0208 22.6318C22.0208 24.1114 21.5632 25.555 20.7112 26.7646C20.5967 26.9174 20.4472 27.0403 20.2757 27.124C20.1042 27.2076 19.9156 27.2498 19.7249 27.2461C19.5088 27.2425 19.2975 27.1807 19.1135 27.0674C18.9296 26.954 18.7793 26.793 18.679 26.6016C18.5787 26.4102 18.5318 26.1952 18.5432 25.9795C18.5547 25.7637 18.6244 25.5548 18.7444 25.375C19.3103 24.5711 19.6135 23.6119 19.6135 22.6289C19.6135 21.6458 19.3103 20.6867 18.7444 19.8828C18.5732 19.6217 18.51 19.3038 18.5686 18.9971C18.6273 18.6906 18.8027 18.4188 19.0579 18.2393Z" fill="url(#paint0_linear_1351_1762)"/>
<defs>
<linearGradient id="paint0_linear_1351_1762" x1="29.6266" y1="0.109375" x2="29.6266" y2="77.1111" gradientUnits="userSpaceOnUse">
<stop stop-color="#0BE6E6"/>
<stop offset="1" stop-color="#0B9292" stop-opacity="0.45"/>
</linearGradient>
</defs>
</svg>
