<svg width="74" height="60" viewBox="0 0 74 60" fill="none" xmlns="http://www.w3.org/2000/svg">
<path d="M52.375 40.1094L69.875 57.6094M69.875 40.1094L52.375 57.6094M71.625 19.1094H1.625M71.625 26.1094V12.8094C71.625 8.88901 71.625 6.92883 70.862 5.43145C70.1909 4.11431 69.1201 3.04345 67.8029 2.37234C66.3056 1.60938 64.3454 1.60938 60.425 1.60938H12.825C8.90463 1.60938 6.94445 1.60938 5.44707 2.37233C4.12993 3.04344 3.05907 4.11431 2.38796 5.43144C1.625 6.92882 1.625 8.88901 1.625 12.8094V39.4094C1.625 43.3297 1.625 45.2899 2.38795 46.7873C3.05907 48.1044 4.12993 49.1753 5.44707 49.8464C6.94445 50.6094 8.90463 50.6094 12.825 50.6094H36.625" stroke="url(#paint0_linear_1351_2951)" stroke-width="3" stroke-linecap="round" stroke-linejoin="round"/>
<defs>
<linearGradient id="paint0_linear_1351_2951" x1="36.625" y1="1.60937" x2="36.625" y2="57.6094" gradientUnits="userSpaceOnUse">
<stop stop-color="#0BE6E6"/>
<stop offset="1" stop-color="#0B9292" stop-opacity="0.45"/>
</linearGradient>
</defs>
</svg>
