<svg width="31" height="31" viewBox="0 0 31 31" fill="none" xmlns="http://www.w3.org/2000/svg">
<path d="M1.86372 12.8359C2.30088 12.8853 2.61514 13.2806 2.56587 13.7178C2.34669 15.6658 2.56835 17.6818 3.20649 19.5479C3.87419 21.4994 4.95476 23.2306 6.41743 24.6934C7.68773 25.9633 9.1682 26.9471 10.8178 27.6162C12.4116 28.2625 14.0966 28.5898 15.8247 28.5898C17.5526 28.5898 19.2369 28.2624 20.8305 27.6162C22.4364 26.9647 23.8819 26.0149 25.1293 24.793H23.4575C23.0175 24.7927 22.6607 24.4357 22.6606 23.9961C22.6606 23.5564 23.0175 23.1995 23.4575 23.1992H26.7758C27.1606 23.1994 27.4817 23.472 27.5561 23.835C27.5667 23.8869 27.5717 23.9412 27.5717 23.9961V27.3135C27.5717 27.7532 27.2158 28.1101 26.7758 28.1104C26.3357 28.1104 25.978 27.7536 25.978 27.3135V26.1865C24.6435 27.4323 23.1154 28.4089 21.4291 29.0928C19.6442 29.8164 17.7581 30.1836 15.8237 30.1836C13.8894 30.1836 12.004 29.8166 10.2192 29.0928C8.37082 28.3434 6.71224 27.243 5.29048 25.8213C3.65442 24.1849 2.44581 22.2478 1.69868 20.0645C0.984634 17.9769 0.737128 15.7202 0.98286 13.5391C1.0322 13.1016 1.42654 12.7867 1.86372 12.8359ZM13.976 5.9541C14.408 5.87109 14.8263 6.15367 14.9096 6.58594C14.9929 7.01816 14.71 7.4362 14.2778 7.51953C10.5672 8.23506 7.87349 11.5024 7.87349 15.2881C7.87371 19.0736 10.5674 22.3402 14.2778 23.0557C14.71 23.139 14.9929 23.557 14.9096 23.9893C14.8362 24.3706 14.5027 24.6357 14.1284 24.6357C14.0781 24.6357 14.027 24.631 13.976 24.6211C9.51719 23.761 6.28094 19.8359 6.28071 15.2881C6.28071 10.74 9.5167 6.81418 13.976 5.9541ZM16.6625 6.58496C16.7461 6.15309 17.1635 5.87095 17.5952 5.9541C22.0543 6.81399 25.2914 10.739 25.2915 15.2871C25.2915 19.8353 22.0547 23.7612 17.5952 24.6211C17.5444 24.631 17.4936 24.6357 17.4438 24.6357C17.0695 24.6357 16.736 24.3705 16.6625 23.9893C16.5792 23.5571 16.8614 23.1392 17.2934 23.0557C21.0042 22.3403 23.6977 19.073 23.6977 15.2871C23.6976 11.5013 21.0041 8.23391 17.2934 7.51855C16.8614 7.43499 16.5792 7.01706 16.6625 6.58496ZM15.7836 10.3818C16.2227 10.382 16.5795 10.7373 16.5805 11.1768L16.5815 11.5879C17.0917 11.7374 17.6298 12.0134 18.187 12.4121C18.5447 12.6684 18.6276 13.1656 18.3715 13.5234C18.1152 13.8813 17.6171 13.9643 17.2592 13.708C16.0631 12.8518 15.4975 13.0343 15.31 13.1523C15.0431 13.3208 14.9475 13.6729 14.9809 13.8623C15.0289 14.1341 15.6456 14.3867 16.1899 14.4648C18.0618 14.7327 18.4969 15.8245 18.5971 16.2812C18.7842 17.1337 18.3799 18.0246 17.5668 18.5508C17.2695 18.7429 16.9373 18.8752 16.5815 18.9453L16.5825 19.4717C16.5835 19.9116 16.2268 20.2689 15.7866 20.2695H15.7856C15.3462 20.2695 14.9896 19.9139 14.9887 19.4746L14.9877 18.8691C14.4085 18.7117 13.8267 18.419 13.2514 17.9922C12.8979 17.7299 12.8241 17.2305 13.0864 16.877C13.3487 16.5236 13.8472 16.4497 14.2006 16.7119C14.753 17.1217 15.2526 17.3226 15.6733 17.3857C15.7089 17.3808 15.7457 17.3779 15.7827 17.3779H15.7836C15.859 17.3779 15.9323 17.3887 16.0014 17.4082C16.288 17.4022 16.5254 17.326 16.7016 17.2119C16.9473 17.0529 17.084 16.8161 17.0415 16.6221C16.9826 16.3545 16.5596 16.1273 15.9643 16.042C15.6934 16.0033 15.1629 15.9004 14.6528 15.6465C13.7691 15.2066 13.49 14.5835 13.4116 14.1387L13.4106 14.1396C13.2826 13.414 13.5572 12.3732 14.4614 11.8037C14.6254 11.7006 14.8019 11.62 14.9877 11.5625L14.9868 11.1797C14.986 10.7397 15.3417 10.3829 15.7817 10.3818H15.7836ZM15.7475 0.390625C17.6816 0.390625 19.568 0.757821 21.353 1.48145C23.2014 2.23088 24.8599 3.3321 26.2817 4.75391C27.8153 6.28798 28.9737 8.08581 29.728 10.1035L29.8735 10.5107C30.5874 12.5982 30.8347 14.8542 30.5893 17.0352C30.5437 17.4422 30.1993 17.743 29.7993 17.7432C29.7692 17.7432 29.7389 17.7416 29.7084 17.7383C29.2714 17.6889 28.9572 17.2945 29.0063 16.8574C29.2256 14.9092 29.0042 12.8926 28.3657 11.0264C27.698 9.07481 26.6175 7.34364 25.1547 5.88086C23.8844 4.61087 22.404 3.62707 20.7543 2.95801C19.1606 2.31176 17.4756 1.98438 15.7475 1.98438C14.0196 1.98442 12.3353 2.31185 10.7416 2.95801C9.13529 3.60955 7.69033 4.56018 6.44282 5.78223H7.69966C8.13932 5.78229 8.49628 6.1385 8.49653 6.57812C8.49653 7.01796 8.1398 7.37494 7.69966 7.375H4.79634C4.35631 7.37479 3.99946 7.0182 3.99946 6.57812V3.26074C3.99962 2.82113 4.35674 2.46408 4.79634 2.46387C5.23611 2.46387 5.59306 2.82067 5.59321 3.26074V4.3877C6.92771 3.14184 8.45629 2.16539 10.143 1.48145C11.9278 0.75793 13.8136 0.390669 15.7475 0.390625Z" fill="white"/>
</svg>
