<svg width="64" height="54" viewBox="0 0 64 54" fill="none" xmlns="http://www.w3.org/2000/svg">
<path d="M8 41.9767C4.38204 39.5549 2 35.4306 2 30.75C2 23.7193 7.37452 17.9439 14.2392 17.3081C15.6434 8.7664 23.0607 2.25 32 2.25C40.9393 2.25 48.3566 8.7664 49.7608 17.3081C56.6255 17.9439 62 23.7193 62 30.75C62 35.4306 59.618 39.5549 56 41.9767" stroke="#F7C948" stroke-width="3" stroke-linecap="round" stroke-linejoin="round"/>
<path fill-rule="evenodd" clip-rule="evenodd" d="M26.5128 28.8104C30.3204 26.5664 34.7675 26.4764 38.4962 28.1649C39.1989 28.4831 39.5158 29.3226 39.204 30.0399C38.8923 30.7572 38.0699 31.0807 37.3672 30.7625C34.417 29.4264 30.9092 29.5007 27.9047 31.2714C23.5116 33.8604 21.6594 39.2166 23.241 43.9379L23.3696 43.4481C23.5686 42.6901 24.3318 42.2403 25.0744 42.4434C25.8169 42.6465 26.2576 43.4256 26.0586 44.1836L25.0397 48.0655C24.9441 48.4294 24.7108 48.7398 24.3911 48.9282C24.0714 49.1166 23.6915 49.1677 23.3349 49.0701L19.532 48.03C18.7895 47.8269 18.3488 47.0478 18.5478 46.2898C18.7467 45.5318 19.51 45.082 20.2525 45.2851L20.8162 45.4393C18.4518 39.3224 20.766 32.1972 26.5128 28.8104ZM41.2104 32.9338C41.4093 32.1758 42.1726 31.726 42.9151 31.9291L46.718 32.9692C47.4605 33.1723 47.9012 33.9514 47.7022 34.7094C47.5033 35.4674 46.74 35.9172 45.9975 35.7141L45.4331 35.5597C47.7981 41.6769 45.484 48.8026 39.7369 52.1896C35.9292 54.4336 31.4822 54.5236 27.7535 52.8351C27.0508 52.5169 26.7339 51.6774 27.0456 50.9601C27.3574 50.2428 28.1798 49.9193 28.8825 50.2375C31.8327 51.5736 35.3405 51.4993 38.3449 49.7286C42.738 47.1396 44.5902 41.7835 43.0087 37.0623L42.8804 37.5511C42.6814 38.3091 41.9182 38.7589 41.1756 38.5558C40.4331 38.3527 39.9924 37.5736 40.1914 36.8156L41.2104 32.9338Z" fill="#F7C948"/>
</svg>
