<svg width="62" height="59" viewBox="0 0 62 59" fill="none" xmlns="http://www.w3.org/2000/svg">
<path d="M55 42.2285C58.6645 39.2021 61 34.6238 61 29.5C61 20.3873 53.6127 13 44.5 13C43.8445 13 43.2312 12.658 42.8984 12.0932C38.9862 5.45451 31.7633 1 23.5 1C11.0736 1 1 11.0736 1 23.5C1 29.6983 3.50634 35.3112 7.56085 39.3806M37.1873 40.375C37.1873 43.1709 34.9208 45.4375 32.1248 45.4375C29.3289 45.4375 27.0623 43.1709 27.0623 40.375C27.0623 37.5791 29.3289 35.3125 32.1248 35.3125C34.9208 35.3125 37.1873 37.5791 37.1873 40.375ZM43.4771 44.9773C43.2729 45.44 43.212 45.9533 43.3022 46.4509C43.3924 46.9486 43.6297 47.4078 43.9833 47.7693L44.0754 47.8614C44.3607 48.1463 44.587 48.4847 44.7414 48.8572C44.8958 49.2296 44.9752 49.6289 44.9752 50.0321C44.9752 50.4353 44.8958 50.8346 44.7414 51.207C44.587 51.5795 44.3607 51.9179 44.0754 52.2028C43.7904 52.4881 43.452 52.7144 43.0796 52.8688C42.7071 53.0232 42.3079 53.1027 41.9046 53.1027C41.5014 53.1027 41.1022 53.0232 40.7297 52.8688C40.3572 52.7144 40.0189 52.4881 39.7339 52.2028L39.6419 52.1108C39.2803 51.7571 38.8211 51.5199 38.3234 51.4297C37.8258 51.3394 37.3125 51.4003 36.8498 51.6045C36.3961 51.799 36.0091 52.1219 35.7365 52.5335C35.464 52.9451 35.3177 53.4274 35.3157 53.921V54.1818C35.3157 54.9956 34.9925 55.776 34.4171 56.3513C33.8417 56.9267 33.0613 57.25 32.2475 57.25C31.4338 57.25 30.6534 56.9267 30.078 56.3513C29.5026 55.776 29.1794 54.9956 29.1794 54.1818V54.0438C29.1675 53.536 29.0031 53.0435 28.7076 52.6304C28.4122 52.2173 27.9992 51.9026 27.5225 51.7273C27.0598 51.5231 26.5466 51.4621 26.0489 51.5524C25.5513 51.6426 25.0921 51.8799 24.7305 52.2335L24.6385 52.3256C24.3535 52.6108 24.0151 52.8371 23.6426 52.9915C23.2702 53.146 22.8709 53.2254 22.4677 53.2254C22.0645 53.2254 21.6653 53.146 21.2928 52.9915C20.9203 52.8371 20.5819 52.6108 20.297 52.3256C20.0117 52.0406 19.7854 51.7022 19.631 51.3298C19.4766 50.9573 19.3971 50.558 19.3971 50.1548C19.3971 49.7516 19.4766 49.3524 19.631 48.9799C19.7854 48.6074 20.0117 48.269 20.297 47.9841L20.389 47.892C20.7427 47.5305 20.9799 47.0713 21.0702 46.5736C21.1604 46.076 21.0995 45.5627 20.8953 45.1C20.7008 44.6463 20.3779 44.2593 19.9663 43.9867C19.5547 43.7142 19.0724 43.5679 18.5788 43.5659H18.318C17.5043 43.5659 16.7239 43.2427 16.1485 42.6673C15.5731 42.0919 15.2498 41.3115 15.2498 40.4977C15.2498 39.684 15.5731 38.9036 16.1485 38.3282C16.7239 37.7528 17.5043 37.4295 18.318 37.4295H18.4561C18.9638 37.4177 19.4563 37.2533 19.8694 36.9578C20.2825 36.6624 20.5972 36.2494 20.7725 35.7727C20.9768 35.31 21.0377 34.7967 20.9474 34.2991C20.8572 33.8014 20.62 33.3422 20.2663 32.9807L20.1742 32.8886C19.889 32.6037 19.6627 32.2653 19.5083 31.8928C19.3539 31.5204 19.2744 31.1211 19.2744 30.7179C19.2744 30.3147 19.3539 29.9154 19.5083 29.543C19.6627 29.1705 19.889 28.8321 20.1742 28.5472C20.4592 28.2619 20.7976 28.0356 21.1701 27.8812C21.5425 27.7268 21.9418 27.6473 22.345 27.6473C22.7482 27.6473 23.1474 27.7268 23.5199 27.8812C23.8924 28.0356 24.2308 28.2619 24.5157 28.5472L24.6078 28.6392C24.9693 28.9929 25.4285 29.2301 25.9262 29.3203C26.4238 29.4106 26.9371 29.3497 27.3998 29.1455H27.5225C27.9763 28.951 28.3633 28.6281 28.6358 28.2165C28.9084 27.8049 29.0547 27.3226 29.0566 26.829V26.5682C29.0566 25.7544 29.3799 24.974 29.9553 24.3986C30.5307 23.8233 31.3111 23.5 32.1248 23.5C32.9385 23.5 33.719 23.8233 34.2943 24.3986C34.8697 24.974 35.193 25.7544 35.193 26.5682V26.7063C35.195 27.1999 35.3412 27.6822 35.6138 28.0938C35.8864 28.5054 36.2734 28.8283 36.7271 29.0227C37.1898 29.2269 37.7031 29.2879 38.2007 29.1976C38.6984 29.1074 39.1576 28.8701 39.5191 28.5165L39.6112 28.4244C39.8961 28.1392 40.2345 27.9129 40.607 27.7585C40.9795 27.604 41.3787 27.5246 41.7819 27.5246C42.1851 27.5246 42.5844 27.604 42.9569 27.7585C43.3293 27.9129 43.6677 28.1392 43.9527 28.4244C44.2379 28.7094 44.4642 29.0478 44.6186 29.4202C44.773 29.7927 44.8525 30.192 44.8525 30.5952C44.8525 30.9984 44.773 31.3976 44.6186 31.7701C44.4642 32.1426 44.2379 32.481 43.9527 32.7659L43.8606 32.858C43.5069 33.2195 43.2697 33.6787 43.1795 34.1764C43.0892 34.674 43.1502 35.1873 43.3544 35.65V35.7727C43.5488 36.2265 43.8717 36.6134 44.2833 36.886C44.6949 37.1586 45.1772 37.3049 45.6708 37.3068H45.9316C46.7454 37.3068 47.5258 37.6301 48.1012 38.2055C48.6766 38.7809 48.9998 39.5613 48.9998 40.375C48.9998 41.1887 48.6766 41.9691 48.1012 42.5445C47.5258 43.1199 46.7454 43.4432 45.9316 43.4432H45.7936C45.2999 43.4451 44.8176 43.5914 44.406 43.864C43.9945 44.1366 43.6716 44.5235 43.4771 44.9773Z" stroke="#F7C948" stroke-width="2" stroke-linecap="round" stroke-linejoin="round"/>
</svg>
