<svg width="64" height="59" viewBox="0 0 64 59" fill="none" xmlns="http://www.w3.org/2000/svg">
<path d="M8 41.7267C4.38204 39.3049 2 35.1806 2 30.5C2 23.4693 7.37452 17.6939 14.2392 17.0581C15.6434 8.5164 23.0607 2 32 2C40.9393 2 48.3566 8.5164 49.7608 17.0581C56.6255 17.6939 62 23.4693 62 30.5C62 35.1806 59.618 39.3049 56 41.7267" stroke="#F7C948" stroke-width="3" stroke-linecap="round" stroke-linejoin="round"/>
<path d="M32.5 46.6C34.9024 46.6 36.85 44.6524 36.85 42.25C36.85 39.8476 34.9024 37.9 32.5 37.9C30.0976 37.9 28.15 39.8476 28.15 42.25C28.15 44.6524 30.0976 46.6 32.5 46.6Z" stroke="#F7C948" stroke-width="3" stroke-linecap="round" stroke-linejoin="round"/>
<path d="M42.2545 46.2045C42.0791 46.6021 42.0267 47.0432 42.1043 47.4708C42.1818 47.8984 42.3857 48.293 42.6895 48.6036L42.7686 48.6827C43.0138 48.9276 43.2082 49.2183 43.3409 49.5384C43.4736 49.8584 43.5418 50.2015 43.5418 50.548C43.5418 50.8944 43.4736 51.2375 43.3409 51.5575C43.2082 51.8776 43.0138 52.1683 42.7686 52.4132C42.5238 52.6583 42.233 52.8528 41.913 52.9854C41.5929 53.1181 41.2499 53.1864 40.9034 53.1864C40.557 53.1864 40.2139 53.1181 39.8938 52.9854C39.5738 52.8528 39.283 52.6583 39.0382 52.4132L38.9591 52.3341C38.6484 52.0302 38.2538 51.8263 37.8262 51.7488C37.3986 51.6713 36.9576 51.7236 36.56 51.8991C36.1701 52.0662 35.8376 52.3436 35.6034 52.6973C35.3692 53.051 35.2435 53.4654 35.2418 53.8895V54.1136C35.2418 54.8128 34.9641 55.4834 34.4696 55.9778C33.9752 56.4722 33.3047 56.75 32.6055 56.75C31.9062 56.75 31.2357 56.4722 30.7413 55.9778C30.2469 55.4834 29.9691 54.8128 29.9691 54.1136V53.995C29.9589 53.5587 29.8177 53.1355 29.5638 52.7806C29.3099 52.4256 28.9551 52.1552 28.5455 52.0045C28.1479 51.8291 27.7068 51.7767 27.2792 51.8543C26.8516 51.9318 26.457 52.1357 26.1464 52.4395L26.0673 52.5186C25.8224 52.7638 25.5317 52.9582 25.2116 53.0909C24.8916 53.2236 24.5485 53.2918 24.202 53.2918C23.8556 53.2918 23.5125 53.2236 23.1925 53.0909C22.8724 52.9582 22.5817 52.7638 22.3368 52.5186C22.0917 52.2738 21.8972 51.983 21.7646 51.663C21.6319 51.3429 21.5636 50.9999 21.5636 50.6534C21.5636 50.307 21.6319 49.9639 21.7646 49.6438C21.8972 49.3238 22.0917 49.033 22.3368 48.7882L22.4159 48.7091C22.7198 48.3984 22.9237 48.0038 23.0012 47.5762C23.0787 47.1486 23.0264 46.7076 22.8509 46.31C22.6838 45.9201 22.4064 45.5876 22.0527 45.3534C21.699 45.1192 21.2846 44.9935 20.8605 44.9918H20.6364C19.9372 44.9918 19.2666 44.7141 18.7722 44.2196C18.2778 43.7252 18 43.0547 18 42.3555C18 41.6562 18.2778 40.9857 18.7722 40.4913C19.2666 39.9969 19.9372 39.7191 20.6364 39.7191H20.755C21.1913 39.7089 21.6145 39.5677 21.9694 39.3138C22.3244 39.0599 22.5948 38.7051 22.7455 38.2955C22.9209 37.8979 22.9733 37.4568 22.8957 37.0292C22.8182 36.6016 22.6143 36.207 22.3105 35.8964L22.2314 35.8173C21.9862 35.5724 21.7918 35.2817 21.6591 34.9616C21.5264 34.6416 21.4582 34.2985 21.4582 33.952C21.4582 33.6056 21.5264 33.2625 21.6591 32.9425C21.7918 32.6224 21.9862 32.3317 22.2314 32.0868C22.4762 31.8417 22.767 31.6472 23.087 31.5146C23.4071 31.3819 23.7501 31.3136 24.0966 31.3136C24.4431 31.3136 24.7861 31.3819 25.1062 31.5146C25.4262 31.6472 25.717 31.8417 25.9618 32.0868L26.0409 32.1659C26.3516 32.4698 26.7462 32.6737 27.1738 32.7512C27.6014 32.8287 28.0424 32.7764 28.44 32.6009H28.5455C28.9353 32.4338 29.2678 32.1564 29.5021 31.8027C29.7363 31.449 29.8619 31.0346 29.8636 30.6105V30.3864C29.8636 29.6872 30.1414 29.0166 30.6358 28.5222C31.1302 28.0278 31.8008 27.75 32.5 27.75C33.1992 27.75 33.8698 28.0278 34.3642 28.5222C34.8586 29.0166 35.1364 29.6872 35.1364 30.3864V30.505C35.1381 30.9292 35.2637 31.3436 35.498 31.6973C35.7322 32.0509 36.0647 32.3284 36.4545 32.4955C36.8521 32.6709 37.2932 32.7233 37.7208 32.6457C38.1484 32.5682 38.543 32.3643 38.8536 32.0605L38.9327 31.9814C39.1776 31.7362 39.4683 31.5418 39.7884 31.4091C40.1084 31.2764 40.4515 31.2082 40.798 31.2082C41.1444 31.2082 41.4875 31.2764 41.8075 31.4091C42.1276 31.5418 42.4183 31.7362 42.6632 31.9814C42.9083 32.2262 43.1028 32.517 43.2354 32.837C43.3681 33.1571 43.4364 33.5001 43.4364 33.8466C43.4364 34.1931 43.3681 34.5361 43.2354 34.8562C43.1028 35.1762 42.9083 35.467 42.6632 35.7118L42.5841 35.7909C42.2802 36.1016 42.0763 36.4962 41.9988 36.9238C41.9213 37.3514 41.9736 37.7924 42.1491 38.19V38.2955C42.3162 38.6853 42.5936 39.0178 42.9473 39.2521C43.301 39.4863 43.7154 39.6119 44.1395 39.6136H44.3636C45.0628 39.6136 45.7334 39.8914 46.2278 40.3858C46.7222 40.8802 47 41.5508 47 42.25C47 42.9492 46.7222 43.6198 46.2278 44.1142C45.7334 44.6086 45.0628 44.8864 44.3636 44.8864H44.245C43.8208 44.8881 43.4064 45.0137 43.0528 45.248C42.6991 45.4822 42.4216 45.8147 42.2545 46.2045Z" stroke="#F7C948" stroke-width="3" stroke-linecap="round" stroke-linejoin="round"/>
</svg>
