<svg width="59" height="59" viewBox="0 0 59 59" fill="none" xmlns="http://www.w3.org/2000/svg">
<path d="M56.7803 24.1402L34.8593 2.21969C31.8998 -0.739895 27.101 -0.739895 24.1407 2.21969L2.21966 24.1402C-0.739886 27.0998 -0.739886 31.8987 2.21966 34.859L24.1407 56.7803C27.1002 59.7399 31.899 59.7399 34.8593 56.7803L56.7803 34.859C59.7399 31.8994 59.7399 27.1006 56.7803 24.1402ZM26.7238 4.77105C28.2591 3.2357 30.7477 3.2357 32.283 4.77105L41.9539 14.442L29.8761 26.52L17.4256 14.0694L26.7238 4.77105ZM4.78082 32.2797C3.24548 30.7443 3.24548 28.2549 4.78082 26.7196L15.2054 16.2949L27.9144 29.0041L14.7102 42.2084L4.78082 32.2797ZM32.3352 54.1496C30.7999 55.6849 28.3113 55.6849 26.7759 54.1496L16.9289 44.3024L30.2238 31.0074L42.8505 43.6342L32.3352 54.1496ZM54.1912 32.3001L44.7789 41.7125L32.0699 29.0033L44.2618 16.8112L54.1912 26.7407C55.7265 28.2761 55.7265 30.7647 54.1912 32.3001Z" fill="#F7C948"/>
</svg>
