<svg width="26" height="25" viewBox="0 0 26 25" fill="none" xmlns="http://www.w3.org/2000/svg">
<path d="M19.782 14.1862H10.8139V10.8892C10.8139 10.5479 10.5371 10.2714 10.1956 10.2714H9.30185C8.64551 10.2714 8.25066 10.553 7.96249 10.7598C7.72254 10.9311 7.57781 11.0338 7.27819 11.0338C6.71578 11.0338 6.25749 10.5797 6.25749 10.0227C6.25749 9.46074 6.71581 9.00279 7.27819 9.00279C7.57781 9.00279 7.72254 9.10555 7.96249 9.27681C8.25067 9.48232 8.64678 9.76522 9.30185 9.76522H10.1956C10.5371 9.76522 10.8139 9.48866 10.8139 9.14742V5.23238C10.8139 4.89112 10.5371 4.61458 10.1956 4.61458H2.49338C1.11846 4.61458 0 5.73223 0 7.10614V22.5084C0 23.8824 1.11846 25 2.49338 25H17.9069C19.2819 25 20.4003 23.8824 20.4003 22.5084V14.8027C20.4003 14.4615 20.1235 14.1862 19.782 14.1862ZM1.2354 7.10601C1.2354 6.41336 1.79908 5.85008 2.49225 5.85008H9.57762V8.52939H9.30212C9.04187 8.52939 8.91365 8.43805 8.68004 8.2706C8.3817 8.05874 7.9729 7.76695 7.27847 7.76695C6.03433 7.76695 5.0225 8.77804 5.0225 10.0213C5.0225 11.2594 6.03433 12.2667 7.27847 12.2667C7.97417 12.2667 8.38169 11.9762 8.68004 11.7631C8.91363 11.5969 9.04186 11.5043 9.30212 11.5043H9.57762V14.1836L6.27949 14.1849C5.93798 14.1849 5.66124 14.4614 5.66124 14.8027V15.6958C5.66124 16.3491 5.94181 16.7449 6.14748 17.0329C6.32014 17.2752 6.42297 17.4211 6.42297 17.7268C6.42297 18.285 5.96465 18.7379 5.40227 18.7379C4.84366 18.7379 4.39044 18.2838 4.39044 17.7268C4.39044 17.4211 4.49454 17.2752 4.66593 17.0329C4.8716 16.7449 5.15217 16.3491 5.15217 15.6958V14.8027C5.15217 14.4614 4.87541 14.1849 4.53392 14.1849H1.23579L1.2354 7.10601ZM1.2354 22.5083V15.4206H3.91667V15.6959C3.91667 15.956 3.82526 16.0841 3.65895 16.3176C3.44567 16.617 3.15493 17.0267 3.15493 17.727C3.15493 18.9651 4.16296 19.9724 5.40203 19.9724C6.64617 19.9724 7.658 18.9651 7.658 17.727C7.658 17.0267 7.36601 16.6169 7.15272 16.3176C6.98641 16.0841 6.895 15.9547 6.895 15.6959V15.4206H9.57627L9.57754 18.7267C9.57754 19.068 9.8543 19.3445 10.1958 19.3445H11.0895C11.7434 19.3445 12.1395 19.0642 12.4276 18.8587C12.6701 18.6861 12.8161 18.5834 13.1221 18.5834C13.6807 18.5834 14.1339 19.0375 14.1339 19.5945C14.1339 20.1565 13.6794 20.6144 13.1221 20.6144C12.8161 20.6144 12.6701 20.5104 12.4276 20.3391C12.1382 20.1336 11.7434 19.8533 11.0895 19.8533H10.1958C9.85428 19.8533 9.57754 20.1298 9.57754 20.4711V23.7681L2.49347 23.7655C1.80031 23.7655 1.2354 23.2022 1.2354 22.5083ZM19.1651 22.5083C19.1651 23.201 18.6014 23.7642 17.9083 23.7642L10.8141 23.7655V21.0862H11.0896C11.3499 21.0862 11.4781 21.1775 11.713 21.3437C12.0126 21.5569 12.4226 21.8486 13.1234 21.8486C14.3625 21.8486 15.3705 20.8375 15.3705 19.5943C15.3705 18.3561 14.3625 17.3489 13.1234 17.3489C12.4239 17.3489 12.0126 17.6406 11.713 17.8525C11.4794 18.0187 11.3499 18.11 11.0896 18.11H10.8141V15.4219H19.165L19.1651 22.5083ZM24.7535 3.93566L18.0845 0.0829772C17.9423 0.000516148 17.7734 -0.0210483 17.616 0.0208139C17.4573 0.0639459 17.3228 0.166705 17.2403 0.308789L15.5861 3.17078L15.3487 3.03377C15.1227 2.9031 15.0567 2.75975 14.9361 2.49842C14.7825 2.16479 14.5704 1.70681 13.9674 1.36301C13.4481 1.05982 12.8426 0.978623 12.2624 1.1334C11.6797 1.28817 11.1947 1.66241 10.8977 2.18002C10.273 3.2482 10.6399 4.62972 11.7203 5.26021C12.3259 5.60654 12.8273 5.55834 13.1929 5.52282C13.4989 5.49237 13.6424 5.48476 13.8557 5.60908L14.0943 5.74736L12.4477 8.61188C12.2776 8.90747 12.3792 9.28424 12.675 9.45426L20.9726 14.2345C21.0704 14.2903 21.1757 14.3169 21.2798 14.3169C21.4931 14.3169 21.7013 14.2066 21.8156 14.0087L25.6737 7.34091C26.3516 6.14841 25.939 4.62101 24.7533 3.93608L24.7535 3.93566ZM24.6012 6.72663L21.0554 12.8566L13.8254 8.69178L15.472 5.82852C15.6421 5.5342 15.5406 5.15743 15.246 4.98615L14.4767 4.54086C13.9117 4.2123 13.428 4.25923 13.0738 4.29348C12.7768 4.32266 12.599 4.33915 12.3388 4.19072C11.8513 3.90655 11.6837 3.28239 11.9668 2.79777C12.1014 2.56308 12.3197 2.39562 12.5813 2.32586C12.8415 2.25608 13.1132 2.29287 13.3506 2.43115C13.6159 2.58212 13.6909 2.74577 13.8153 3.01472C13.9638 3.33568 14.1669 3.77591 14.7319 4.10194L15.5025 4.54849C15.6447 4.63095 15.8135 4.65251 15.9709 4.61065C16.1296 4.56879 16.2642 4.46476 16.3467 4.32268L18.0009 1.46069L24.1353 5.00517C24.7358 5.3515 24.944 6.12529 24.6012 6.72663Z" fill="url(#paint0_linear_627_1369)"/>
<defs>
<linearGradient id="paint0_linear_627_1369" x1="13" y1="0" x2="13" y2="25" gradientUnits="userSpaceOnUse">
<stop stop-color="#05A6A6"/>
<stop offset="1" stop-color="#0D5B6A"/>
</linearGradient>
</defs>
</svg>
