<svg width="34" height="33" viewBox="0 0 34 33" fill="none" xmlns="http://www.w3.org/2000/svg">
<path d="M31.3029 1.27734H2.68936C1.75792 1.27734 1 2.03754 1 2.97018V22.1767C1 23.1093 1.75792 23.8682 2.68936 23.8682H12.7616L12.1771 27.5699H10.0834C8.97192 27.5699 8.06656 28.4764 8.06656 29.5893V30.4449C8.06656 31.0196 8.53357 31.4885 9.10888 31.4885H24.8924C25.4664 31.4885 25.9347 31.0209 25.9347 30.4449L25.9334 29.5906C25.9334 28.4777 25.0281 27.5712 23.9166 27.5712H21.8229L21.2385 23.8695H31.3106C32.2421 23.8695 33 23.1107 33 22.178V2.97048C32.9922 2.03784 32.2343 1.27734 31.3029 1.27734ZM2.68936 2.05713H31.3029C31.8039 2.05713 32.2148 2.46469 32.2148 2.97018V19.9273H1.77749V2.97018C1.77749 2.4686 2.18842 2.05713 2.68936 2.05713ZM25.1481 29.5906V30.4461C25.1481 30.5898 25.0307 30.7074 24.8872 30.7074H9.10496C8.96146 30.7074 8.84405 30.5898 8.84405 30.4461V29.5906C8.84405 28.9087 9.39849 28.3536 10.0794 28.3536H23.9127C24.5936 28.3536 25.1481 28.9088 25.1481 29.5906ZM21.027 27.5712H12.9649L13.5494 23.8695H20.4386L21.027 27.5712ZM32.2146 22.1765C32.2146 22.6781 31.8076 23.0896 31.3028 23.0896H2.6892C2.18826 23.0896 1.77732 22.682 1.77732 22.1765V20.7083H32.2106V22.1765H32.2146Z" fill="url(#paint0_linear_857_5680)" stroke="url(#paint1_linear_857_5680)"/>
<defs>
<linearGradient id="paint0_linear_857_5680" x1="17" y1="1.27734" x2="17" y2="31.4885" gradientUnits="userSpaceOnUse">
<stop stop-color="#05A6A6"/>
<stop offset="1" stop-color="#0D5B6A"/>
</linearGradient>
<linearGradient id="paint1_linear_857_5680" x1="17" y1="1.27734" x2="17" y2="31.4885" gradientUnits="userSpaceOnUse">
<stop stop-color="#05A6A6"/>
<stop offset="1" stop-color="#0D5B6A"/>
</linearGradient>
</defs>
</svg>
