<svg width="353" height="353" viewBox="0 0 353 353" fill="none" xmlns="http://www.w3.org/2000/svg">
<path d="M305.708 0.472656C311.421 0.472763 316.938 2.55651 321.225 6.33301C325.511 10.1095 328.273 15.32 328.993 20.9873C329.713 26.6547 328.341 32.3908 325.135 37.1191C321.928 41.8472 317.108 45.2436 311.576 46.6719V59.2412C311.576 63.91 309.721 68.3881 306.42 71.6895C303.118 74.9909 298.64 76.8457 293.971 76.8457H278.021C279.61 82.1579 280.756 87.5925 281.448 93.0938C281.742 95.5113 281.818 97.9116 281.947 100.317H306.541C307.838 95.2936 310.763 90.8413 314.859 87.6562C318.956 84.4712 323.992 82.7333 329.181 82.7139C333.562 82.7074 337.858 83.9291 341.58 86.2412C345.302 88.5533 348.301 91.8631 350.236 95.7939C352.172 99.7249 352.967 104.12 352.53 108.479C352.094 112.839 350.443 116.989 347.767 120.458C345.09 123.927 341.494 126.576 337.388 128.104C333.281 129.633 328.828 129.979 324.534 129.104C320.241 128.228 316.279 126.166 313.099 123.152C309.918 120.139 307.646 116.294 306.541 112.054H281.971C281.573 120 280.272 127.874 278.092 135.525H293.971C298.64 135.525 303.118 137.38 306.42 140.682C309.721 143.983 311.576 148.461 311.576 153.13V165.699C317.108 167.128 321.928 170.525 325.135 175.253C328.341 179.981 329.713 185.716 328.993 191.384C328.273 197.051 325.511 202.262 321.225 206.038C316.938 209.815 311.421 211.898 305.708 211.898C299.995 211.898 294.477 209.815 290.19 206.038C285.904 202.262 283.142 197.051 282.422 191.384C281.702 185.716 283.074 179.981 286.28 175.253C289.487 170.525 294.308 167.127 299.84 165.699V153.13C299.84 151.574 299.221 150.081 298.121 148.98C297.021 147.88 295.527 147.262 293.971 147.262H274.02C269.682 157.478 263.761 166.946 256.474 175.317C240.454 194.124 231.033 217.659 229.649 242.324C232.345 243.304 234.758 244.932 236.674 247.065C238.59 249.199 239.951 251.772 240.636 254.557C241.321 257.341 241.31 260.252 240.603 263.031C239.895 265.81 238.513 268.373 236.58 270.491C239.524 273.691 241.157 277.879 241.157 282.227C241.157 286.574 239.524 290.763 236.58 293.963C238.875 296.478 240.387 299.608 240.933 302.969C241.478 306.33 241.032 309.777 239.65 312.889C238.269 316 236.011 318.643 233.152 320.492C230.294 322.342 226.958 323.318 223.553 323.303H221.622C217.772 332.032 211.467 339.453 203.475 344.663C195.482 349.873 186.148 352.646 176.607 352.646C167.067 352.646 157.732 349.873 149.739 344.663C141.747 339.453 135.442 332.032 131.592 323.303H129.661C126.257 323.318 122.921 322.342 120.062 320.492C117.204 318.643 114.945 316 113.563 312.889C112.182 309.777 111.737 306.33 112.282 302.969C112.827 299.608 114.339 296.478 116.634 293.963C113.69 290.763 112.057 286.574 112.057 282.227C112.057 277.879 113.69 273.691 116.634 270.491C114.701 268.373 113.32 265.81 112.612 263.031C111.905 260.252 111.893 257.341 112.578 254.557C113.263 251.772 114.624 249.199 116.54 247.065C118.456 244.932 120.869 243.304 123.564 242.324C122.18 217.658 112.756 194.124 96.7354 175.317C89.45 166.946 83.5306 157.477 79.1953 147.262H59.2432C57.6869 147.262 56.1942 147.88 55.0938 148.98C53.9933 150.081 53.375 151.574 53.375 153.13V165.699C58.9066 167.127 63.7272 170.525 66.9336 175.253C70.14 179.981 71.5119 185.716 70.792 191.384C70.0721 197.051 67.3102 202.262 63.0234 206.038C58.7367 209.815 53.2199 211.898 47.5068 211.898C41.7937 211.898 36.276 209.815 31.9893 206.038C27.7027 202.262 24.9406 197.051 24.2207 191.384C23.5008 185.717 24.8728 179.981 28.0791 175.253C31.2856 170.525 36.107 167.127 41.6387 165.699V153.13C41.6387 148.461 43.4934 143.983 46.7949 140.682C50.0964 137.38 54.5743 135.525 59.2432 135.525H75.1221C72.9421 127.874 71.6406 119.999 71.2432 112.054H46.6729C45.2446 117.585 41.8484 122.406 37.1201 125.612C32.3917 128.819 26.6558 130.191 20.9883 129.471C15.3207 128.751 10.1097 125.989 6.33301 121.702C2.55638 117.416 0.472656 111.898 0.472656 106.186C0.472681 100.473 2.55635 94.9556 6.33301 90.6689C10.1097 86.3823 15.3207 83.6202 20.9883 82.9004C26.6558 82.1806 32.3917 83.5524 37.1201 86.7588C41.8484 89.9651 45.2445 94.786 46.6729 100.317H71.2666C71.3957 97.9116 71.4722 95.5113 71.7656 93.0938C72.4578 87.5925 73.6039 82.1579 75.1924 76.8457H59.2432C54.5742 76.8457 50.0964 74.9907 46.7949 71.6895C43.4934 68.388 41.6387 63.9101 41.6387 59.2412V46.6719C36.107 45.2436 31.2856 41.8474 28.0791 37.1191C24.8726 32.3908 23.5008 26.6547 24.2207 20.9873C24.9406 15.32 27.7026 10.1095 31.9893 6.33301C36.276 2.5564 41.7937 0.472656 47.5068 0.472656C53.2198 0.472718 58.7368 2.55653 63.0234 6.33301C67.3101 10.1095 70.0721 15.32 70.792 20.9873C71.5119 26.6547 70.1401 32.3908 66.9336 37.1191C63.7272 41.8472 58.9065 45.2436 53.375 46.6719V59.2412C53.375 60.7975 53.9932 62.2902 55.0938 63.3906C56.1942 64.491 57.6869 65.1094 59.2432 65.1094H79.3418C87.5893 46.1068 101.163 29.8989 118.424 18.4443C135.684 6.98979 155.893 0.778092 176.607 0.560547C197.322 0.778155 217.53 6.98994 234.79 18.4443C252.051 29.8989 265.626 46.1068 273.873 65.1094H293.971C295.527 65.1094 297.021 64.4911 298.121 63.3906C299.221 62.2902 299.84 60.7974 299.84 59.2412V46.6719C294.308 45.2437 289.487 41.8474 286.28 37.1191C283.074 32.3908 281.702 26.6547 282.422 20.9873C283.142 15.32 285.904 10.1095 290.19 6.33301C294.477 2.5564 299.995 0.472656 305.708 0.472656ZM144.72 323.303C148.105 328.701 152.807 333.15 158.386 336.229C163.964 339.309 170.235 340.919 176.607 340.907C182.979 340.919 189.25 339.309 194.828 336.229C200.407 333.15 205.11 328.701 208.495 323.303H144.72ZM129.661 299.831C128.105 299.831 126.612 300.449 125.512 301.55C124.411 302.65 123.793 304.143 123.793 305.699C123.793 307.255 124.411 308.748 125.512 309.849C126.612 310.949 128.105 311.567 129.661 311.567H223.553C225.109 311.567 226.602 310.949 227.702 309.849C228.803 308.748 229.421 307.255 229.421 305.699C229.421 304.143 228.803 302.65 227.702 301.55C226.602 300.449 225.109 299.831 223.553 299.831H129.661ZM129.661 276.358C128.105 276.358 126.612 276.977 125.512 278.077C124.411 279.178 123.793 280.67 123.793 282.227C123.793 283.783 124.411 285.276 125.512 286.376C126.612 287.476 128.105 288.095 129.661 288.095H223.553C225.109 288.095 226.602 287.476 227.702 286.376C228.803 285.276 229.421 283.783 229.421 282.227C229.421 280.67 228.803 279.178 227.702 278.077C226.602 276.977 225.109 276.358 223.553 276.358H129.661ZM129.661 252.887C128.105 252.887 126.612 253.505 125.512 254.605C124.411 255.706 123.793 257.199 123.793 258.755C123.793 260.311 124.411 261.804 125.512 262.904C126.612 264.005 128.105 264.623 129.661 264.623H223.553C225.109 264.623 226.602 264.005 227.702 262.904C228.803 261.804 229.421 260.311 229.421 258.755C229.421 257.199 228.803 255.706 227.702 254.605C226.602 253.505 225.109 252.887 223.553 252.887H129.661ZM176.607 12.2881C153.727 12.2881 131.633 20.6396 114.475 35.7754C97.3166 50.9111 86.274 71.7895 83.4199 94.4902C81.7444 107.556 82.8546 120.829 86.6777 133.436C90.5009 146.042 96.9505 157.696 105.602 167.63C123.186 188.279 133.588 214.08 135.242 241.15H170.739V188.109C170.323 188.051 169.9 188.092 169.483 188.051C167.609 187.855 165.823 187.149 164.32 186.012C162.817 184.874 161.654 183.347 160.957 181.596L157.137 172.025C152.529 170.661 148.077 168.813 143.856 166.515L134.374 170.563C132.624 171.337 130.69 171.601 128.796 171.324C126.902 171.047 125.125 170.24 123.67 168.997C121.962 167.589 120.237 165.987 118.553 164.338C116.828 162.578 115.226 160.858 113.735 159.057C112.52 157.602 111.736 155.836 111.475 153.958C111.213 152.08 111.485 150.167 112.257 148.436L116.259 138.93C113.96 134.709 112.113 130.258 110.748 125.65L101.188 121.836C99.4282 121.129 97.8959 119.952 96.7578 118.435C95.6197 116.917 94.9198 115.116 94.7344 113.228C94.5055 110.939 94.417 108.556 94.417 106.186C94.417 103.815 94.5055 101.409 94.7402 99.0615C94.9362 97.1869 95.6406 95.4012 96.7783 93.8984C97.916 92.3957 99.4432 91.2325 101.194 90.5352L110.766 86.7158C112.13 82.108 113.978 77.6569 116.276 73.4365L112.227 63.9531C111.454 62.2026 111.191 60.2693 111.468 58.376C111.745 56.4825 112.552 54.7056 113.794 53.25C115.202 51.5424 116.804 49.8169 118.453 48.1328C120.214 46.4077 121.939 44.8059 123.734 43.3154C125.189 42.0996 126.956 41.3161 128.834 41.0547C130.712 40.7934 132.625 41.0648 134.356 41.8369L143.874 45.8682C148.095 43.5696 152.546 41.723 157.154 40.3584L160.969 30.7988C161.676 29.0384 162.852 27.5053 164.37 26.3672C165.888 25.2292 167.689 24.5292 169.577 24.3438C174.29 23.8802 179.037 23.8802 183.749 24.3438C185.624 24.5398 187.409 25.2451 188.912 26.3828C190.415 27.5205 191.578 29.0477 192.275 30.7988L196.096 40.3701C200.704 41.7347 205.155 43.5814 209.375 45.8799L218.858 41.8311C220.609 41.0602 222.542 40.7989 224.435 41.0781C226.327 41.3574 228.102 42.1655 229.556 43.4092C231.263 44.8175 232.989 46.4195 234.673 48.0684C236.398 49.8288 238.001 51.554 239.491 53.3496C240.707 54.8041 241.49 56.5708 241.751 58.4482C242.012 60.3258 241.742 62.2394 240.97 63.9707L236.927 73.4482C239.225 77.6685 241.072 82.1198 242.437 86.7275L251.996 90.541C253.757 91.2481 255.29 92.4255 256.428 93.9434C257.566 95.461 258.266 97.2617 258.451 99.1494C258.68 101.438 258.768 103.821 258.768 106.191C258.768 108.562 258.68 110.968 258.445 113.315C258.249 115.19 257.544 116.976 256.406 118.479C255.268 119.981 253.741 121.144 251.99 121.842L242.419 125.662C241.054 130.27 239.208 134.721 236.909 138.941L240.958 148.424C241.731 150.174 241.994 152.108 241.717 154.001C241.44 155.894 240.633 157.671 239.391 159.127C237.982 160.84 236.38 162.56 234.731 164.244C232.971 165.969 231.246 167.571 229.45 169.062C227.996 170.277 226.229 171.061 224.352 171.322C222.474 171.584 220.56 171.312 218.829 170.54L209.352 166.497C205.131 168.796 200.68 170.643 196.072 172.008L192.258 181.566C191.551 183.327 190.374 184.86 188.856 185.998C187.339 187.136 185.537 187.836 183.649 188.021C183.274 188.074 182.863 188.074 182.476 188.074V241.15H217.972C219.626 214.08 230.028 188.279 247.612 167.63C256.263 157.695 262.713 146.042 266.536 133.436C270.359 120.829 271.469 107.556 269.794 94.4902C266.94 71.7894 255.897 50.9111 238.739 35.7754C221.581 20.6397 199.488 12.2882 176.607 12.2881ZM47.5068 176.603C45.1856 176.603 42.9164 177.291 40.9863 178.58C39.0563 179.87 37.5514 181.702 36.6631 183.847C35.7748 185.991 35.5432 188.351 35.9961 190.628C36.449 192.904 37.5667 194.995 39.208 196.637C40.8493 198.278 42.9403 199.396 45.2168 199.849C47.4934 200.301 49.8535 200.069 51.998 199.181C54.1424 198.292 55.9751 196.788 57.2646 194.858C58.5543 192.928 59.2432 190.659 59.2432 188.338C59.2431 185.225 58.0066 182.24 55.8057 180.039C53.6047 177.838 50.6194 176.603 47.5068 176.603ZM305.708 176.603C303.387 176.603 301.117 177.291 299.188 178.58C297.258 179.87 295.753 181.702 294.864 183.847C293.976 185.991 293.743 188.351 294.196 190.628C294.649 192.904 295.767 194.995 297.408 196.637C299.05 198.278 301.141 199.396 303.418 199.849C305.695 200.301 308.055 200.069 310.199 199.181C312.344 198.292 314.176 196.788 315.466 194.858C316.755 192.928 317.444 190.659 317.444 188.338C317.444 185.225 316.208 182.24 314.007 180.039C311.806 177.838 308.821 176.603 305.708 176.603ZM181.671 35.9512C178.297 35.6754 174.906 35.6754 171.531 35.9512L166.942 47.4404C166.597 48.3063 166.049 49.0772 165.346 49.6895C164.643 50.3016 163.804 50.7384 162.899 50.9619C157.392 52.3261 152.121 54.5112 147.266 57.4453C146.47 57.924 145.573 58.2072 144.646 58.2715C143.72 58.3358 142.792 58.1797 141.938 57.8154L130.53 52.9512C129.21 54.0778 127.907 55.2688 126.774 56.4248C125.642 57.5807 124.48 58.8186 123.377 60.1035L128.241 71.5117C128.606 72.3669 128.762 73.2963 128.696 74.2236C128.631 75.151 128.347 76.0499 127.866 76.8457C124.932 81.7031 122.745 86.9747 121.382 92.4834C121.158 93.3885 120.722 94.2276 120.109 94.9307C119.497 95.6338 118.726 96.1816 117.86 96.5273L106.37 101.115C106.235 102.835 106.188 104.496 106.188 106.186C106.188 107.876 106.235 109.566 106.37 111.262L117.86 115.851C118.726 116.196 119.497 116.743 120.109 117.446C120.722 118.149 121.158 118.988 121.382 119.894C122.746 125.4 124.932 130.67 127.866 135.525C128.345 136.321 128.628 137.219 128.692 138.146C128.757 139.072 128.6 140 128.235 140.854L123.371 152.262C124.498 153.582 125.689 154.884 126.845 156.017C128.001 157.149 129.239 158.312 130.524 159.415L141.932 154.55C142.787 154.185 143.717 154.029 144.645 154.095C145.572 154.16 146.47 154.445 147.266 154.926C152.123 157.86 157.396 160.047 162.905 161.41C163.81 161.634 164.649 162.07 165.352 162.682C166.055 163.294 166.602 164.065 166.948 164.931L171.537 176.426C174.911 176.702 178.302 176.702 181.677 176.426L186.267 164.937C186.612 164.071 187.159 163.3 187.862 162.688C188.565 162.075 189.404 161.639 190.31 161.416C195.817 160.052 201.087 157.866 205.942 154.932C206.738 154.451 207.637 154.166 208.564 154.101C209.492 154.035 210.421 154.191 211.276 154.556L222.685 159.421C224.005 158.294 225.307 157.102 226.439 155.946C227.572 154.79 228.735 153.553 229.838 152.268L224.973 140.86C224.608 140.005 224.452 139.075 224.518 138.147C224.583 137.22 224.868 136.321 225.349 135.525C228.285 130.668 230.473 125.397 231.839 119.888C232.062 118.983 232.498 118.144 233.11 117.44C233.723 116.737 234.494 116.19 235.359 115.845L246.85 111.256C246.985 109.537 247.031 107.876 247.031 106.186C247.031 104.496 246.985 102.805 246.85 101.115L235.359 96.5273C234.493 96.1816 233.723 95.6338 233.11 94.9307C232.498 94.2276 232.062 93.3885 231.839 92.4834C230.475 86.9768 228.289 81.7071 225.354 76.8516C224.874 76.0558 224.589 75.1569 224.523 74.2295C224.458 73.3023 224.614 72.3727 224.979 71.5176L229.844 60.1094C228.717 58.7891 227.525 57.487 226.369 56.3545C225.213 55.2221 223.975 54.0601 222.69 52.957L211.282 57.8213C210.427 58.1856 209.498 58.3416 208.57 58.2764C207.643 58.2111 206.744 57.926 205.948 57.4453C201.089 54.5102 195.815 52.325 190.304 50.9619C189.399 50.7384 188.56 50.3017 187.856 49.6895C187.153 49.0772 186.606 48.3062 186.261 47.4404L181.671 35.9512ZM166.84 60.6299C175.949 58.8181 185.391 59.7477 193.971 63.3018C202.551 66.8558 209.884 72.8747 215.044 80.5967C220.204 88.3186 222.957 97.3975 222.957 106.685C222.943 119.134 217.991 131.069 209.188 139.872C200.385 148.675 188.45 153.627 176.001 153.641C166.714 153.641 157.635 150.887 149.913 145.728C142.191 140.568 136.173 133.234 132.619 124.653C129.065 116.073 128.134 106.632 129.946 97.5234C131.758 88.4148 136.231 80.0475 142.798 73.4805C149.365 66.9137 157.731 62.4417 166.84 60.6299ZM182.871 72.1436C176.04 70.7848 168.958 71.482 162.523 74.1475C156.089 76.813 150.588 81.3269 146.719 87.1182C142.849 92.9096 140.783 99.7192 140.783 106.685C140.793 116.022 144.506 124.974 151.108 131.576C157.711 138.179 166.664 141.892 176.001 141.901C182.966 141.901 189.775 139.836 195.566 135.967C201.358 132.097 205.873 126.596 208.538 120.161C211.203 113.726 211.901 106.645 210.542 99.8135C209.183 92.9821 205.828 86.7074 200.903 81.7822C195.978 76.857 189.703 73.5024 182.871 72.1436ZM28.5254 95.3428C26.3809 94.4545 24.0208 94.222 21.7441 94.6748C19.4677 95.1276 17.3767 96.2456 15.7354 97.8867C14.094 99.528 12.9753 101.62 12.5225 103.896C12.0698 106.173 12.3023 108.532 13.1904 110.677C14.0787 112.821 15.5836 114.654 17.5137 115.943C19.4437 117.233 21.7129 117.922 24.0342 117.922C27.1467 117.922 30.1321 116.685 32.333 114.484C34.5339 112.283 35.7705 109.298 35.7705 106.186C35.7705 103.864 35.0816 101.595 33.792 99.665C32.5024 97.7353 30.6697 96.231 28.5254 95.3428ZM333.672 95.3428C331.527 94.4545 329.167 94.222 326.891 94.6748C324.614 95.1276 322.523 96.2456 320.882 97.8867C319.24 99.528 318.123 101.62 317.67 103.896C317.217 106.173 317.449 108.532 318.337 110.677C319.225 112.821 320.73 114.654 322.66 115.943C324.59 117.233 326.859 117.922 329.181 117.922C332.293 117.922 335.279 116.685 337.479 114.484C339.68 112.283 340.917 109.298 340.917 106.186C340.917 103.864 340.228 101.595 338.938 99.665C337.649 97.7353 335.816 96.231 333.672 95.3428ZM49.7959 12.5225C47.5195 12.0697 45.16 12.3023 43.0156 13.1904C40.8711 14.0787 39.0377 15.5828 37.748 17.5127C36.4584 19.4427 35.7705 21.712 35.7705 24.0332C35.7705 27.1458 37.007 30.1311 39.208 32.332C41.409 34.5328 44.3943 35.7695 47.5068 35.7695C49.828 35.7695 52.0974 35.0805 54.0273 33.791C55.9572 32.5015 57.4614 30.6687 58.3496 28.5244C59.2379 26.3799 59.4704 24.0197 59.0176 21.7432C58.5647 19.4667 57.4469 17.3756 55.8057 15.7344C54.1643 14.0931 52.0725 12.9753 49.7959 12.5225ZM307.997 12.5225C305.72 12.0697 303.36 12.3022 301.216 13.1904C299.072 14.0787 297.239 15.5829 295.949 17.5127C294.66 19.4427 293.971 21.712 293.971 24.0332C293.971 27.1457 295.207 30.1311 297.408 32.332C299.609 34.533 302.595 35.7695 305.708 35.7695C308.029 35.7694 310.298 35.0804 312.228 33.791C314.158 32.5014 315.662 30.6689 316.551 28.5244C317.439 26.3799 317.672 24.0197 317.219 21.7432C316.766 19.4668 315.648 17.3756 314.007 15.7344C312.365 14.0931 310.274 12.9753 307.997 12.5225Z" fill="#05A6A6"/>
</svg>
