<svg width="33" height="33" viewBox="0 0 33 33" fill="none" xmlns="http://www.w3.org/2000/svg">
<path fill-rule="evenodd" clip-rule="evenodd" d="M14.6084 17.4663C14.7759 17.5895 14.8132 17.8257 14.69 17.9932C14.5669 18.1608 14.3306 18.198 14.1631 18.0748L12.2774 16.6903C12.1098 16.5672 12.0726 16.3309 12.1957 16.1634C12.2201 16.1291 12.2501 16.1004 12.2831 16.0775L14.1617 14.6973C14.3292 14.5741 14.5655 14.6099 14.6886 14.7789C14.8117 14.9464 14.7759 15.1827 14.607 15.3058L13.135 16.3868L14.607 17.4678L14.6084 17.4663ZM18.8395 18.0734C18.672 18.1965 18.4357 18.1607 18.3126 17.9918C18.1895 17.8243 18.2253 17.588 18.3942 17.4649L19.8662 16.3839L18.3942 15.3029C18.2267 15.1798 18.1895 14.9435 18.3126 14.776C18.4358 14.6085 18.672 14.5712 18.8395 14.6944L20.7181 16.0746C20.7511 16.0975 20.7811 16.1262 20.8055 16.1605C20.9286 16.328 20.8928 16.5643 20.7239 16.6874L18.8381 18.072L18.8395 18.0734ZM15.8627 18.8337C15.7811 19.0255 15.5606 19.1143 15.3687 19.0327C15.1768 18.9511 15.0881 18.7306 15.1697 18.5387L17.1385 13.9353C17.2201 13.7435 17.4406 13.6547 17.6325 13.7363C17.8244 13.8179 17.9131 14.0384 17.8315 14.2303L15.8627 18.8337ZM9.84902 9.23621V13.1223C10.2098 12.3863 10.6895 11.7205 11.2623 11.1478C12.6025 9.80768 14.4539 8.97864 16.5 8.97864H27.508C27.717 8.97864 27.886 9.1476 27.886 9.35662V10.1341L30.996 7.80311L27.886 5.47215V6.24961C27.886 6.45865 27.717 6.62759 27.508 6.62759H16.4912H16.4897H16.4883H16.4783H16.4769H16.4754H16.474H16.4726H16.4697H16.4683H16.4668H16.4654H16.464H16.4625H16.4611H16.4597H16.4582H16.4568H16.4554H16.4539H16.4525H16.4511H16.4496H16.4482H16.4468H16.4425H16.4411H16.4396H16.4382H16.4368C15.1624 6.63331 13.9468 6.88244 12.8342 7.33061C11.7145 7.78163 10.6993 8.43451 9.8302 9.2435L9.84902 9.23621ZM9.35358 23.0371H13.2409C12.5049 22.6763 11.8363 22.1952 11.2635 21.6225C9.92332 20.2824 9.09424 18.4325 9.09424 16.388V16.3851V5.37757C9.09424 5.16853 9.2632 4.9996 9.47223 4.9996H10.2497L7.91866 1.88973L5.5876 4.9996H6.3651C6.57415 4.9996 6.74309 5.16855 6.74309 5.37757V16.152C6.74309 16.1663 6.74165 16.1792 6.74022 16.1921C6.73879 16.2207 6.73879 16.2479 6.73879 16.2723C6.73879 16.3181 6.74022 16.2622 6.74022 16.3868C6.74022 17.6783 6.98937 18.9082 7.44327 20.0336C7.89432 21.1532 8.54723 22.1698 9.35625 23.0389L9.35358 23.0371ZM23.1525 23.5326C22.2834 24.3415 21.2668 24.9944 20.1485 25.4455C19.0231 25.8979 17.7931 26.1485 16.5016 26.1485C16.3756 26.1485 16.4329 26.1499 16.387 26.1499C16.3627 26.1499 16.3355 26.1485 16.3068 26.1485C16.294 26.147 16.2796 26.1456 16.2653 26.1456H5.49191C5.28286 26.1456 5.11392 26.3146 5.11392 26.5236V27.3011L2.00393 24.9701L5.11392 22.6391V23.4166H5.11536C5.11536 23.6242 5.28431 23.7931 5.49192 23.7931H16.3595C16.4068 23.7946 16.454 23.7946 16.5013 23.7946C18.546 23.7946 20.3989 22.9656 21.739 21.6254C22.3117 21.0527 22.7914 20.3855 23.1522 19.6509V23.537L23.1525 23.5326ZM27.0157 16.5969C27.0185 16.4924 27.02 16.4222 27.02 16.3836C27.02 14.9976 26.7508 13.6718 26.2611 12.4561C25.8616 11.4639 25.3146 10.5475 24.6488 9.73139H27.1316V10.884C27.1316 11.093 27.3006 11.262 27.5096 11.262C27.607 11.262 27.6958 11.2247 27.7616 11.1646L31.8495 8.09911C32.0156 7.97455 32.0499 7.7383 31.9239 7.57221C31.8996 7.54071 31.8724 7.5135 31.8423 7.49203L27.7343 4.41226C27.5682 4.28769 27.3319 4.32206 27.2074 4.48671C27.1558 4.554 27.1329 4.63418 27.1329 4.71293H27.1315V5.86552H16.6231H16.6217C16.4971 5.86408 16.5472 5.86265 16.5014 5.86265C15.1154 5.86265 13.7895 6.13183 12.5738 6.6215C11.5815 7.02095 10.6651 7.5679 9.84895 8.23368V5.75097H11.0016C11.2106 5.75097 11.3796 5.58201 11.3796 5.37299C11.3796 5.27563 11.3423 5.18686 11.2822 5.121L8.2166 1.03335C8.09203 0.867261 7.85577 0.832898 7.68968 0.958896C7.65818 0.983236 7.63097 1.01044 7.6095 1.04051L4.52959 5.14831C4.40502 5.3144 4.43939 5.55066 4.60405 5.67521C4.67134 5.72676 4.75153 5.74967 4.83028 5.74967V5.7511H5.98291V16.1472C5.98291 16.1558 5.98291 16.1644 5.98434 16.1716C5.98434 16.1988 5.98291 16.2289 5.98291 16.2618C5.98148 16.3864 5.98005 16.3348 5.98005 16.3821C5.98005 17.768 6.24924 19.0939 6.73893 20.3095C7.1384 21.3018 7.68537 22.2195 8.35261 23.0357H5.86836V21.8817C5.86836 21.6726 5.6994 21.5037 5.49037 21.5037C5.393 21.5037 5.30423 21.5409 5.23836 21.601L1.15054 24.6665C0.98445 24.7911 0.950081 25.0273 1.07609 25.1934C1.10043 25.2249 1.12763 25.2521 1.15771 25.2736L5.26569 28.3534C5.43178 28.4779 5.66805 28.4436 5.79261 28.2789C5.84415 28.2116 5.86706 28.1314 5.86706 28.0527H5.86849V26.9001H16.2636C16.2722 26.9001 16.2794 26.9001 16.288 26.8987C16.3152 26.8987 16.3467 26.9001 16.3782 26.9001C16.5027 26.9015 16.4526 26.903 16.4984 26.903C17.8845 26.903 19.2104 26.6338 20.4261 26.1441C21.4183 25.7447 22.3347 25.1977 23.1509 24.5319V27.0147H21.9983C21.7892 27.0147 21.6203 27.1836 21.6203 27.3926C21.6203 27.49 21.6575 27.5788 21.7176 27.6446L24.7833 31.7323C24.9078 31.8984 25.1441 31.9327 25.3102 31.8067C25.3417 31.7824 25.3689 31.7552 25.3904 31.7251L28.4703 27.6173C28.5948 27.4512 28.5605 27.215 28.3958 27.0904C28.3285 27.0389 28.2483 27.016 28.1696 27.016V27.0145H27.0169V16.6213C27.0169 16.6127 27.0171 16.6055 27.0157 16.5969ZM23.9071 16.3893V27.3928C23.9071 27.6018 23.7381 27.7708 23.5291 27.7708H22.7516L25.0827 30.8806L27.4137 27.7708H26.6362C26.4272 27.7708 26.2582 27.6018 26.2582 27.3928V16.6213C26.2582 16.6084 26.2597 16.5955 26.2597 16.5827C26.2597 16.5411 26.2611 16.4738 26.2611 16.3851C26.2611 15.0936 26.012 13.8637 25.5581 12.7383C25.107 11.6186 24.4541 10.6035 23.6451 9.7344H19.7589C20.4948 10.0952 21.1606 10.5749 21.7334 11.1476C23.0736 12.4877 23.9027 14.339 23.9027 16.3851V16.3908L23.9071 16.3893ZM23.1511 16.3836V16.3821C23.1511 14.5466 22.4065 12.8842 21.2023 11.6816C19.9981 10.4775 18.3357 9.73296 16.4987 9.73296C14.6616 9.73296 12.9992 10.4775 11.7951 11.6816C10.5908 12.8858 9.8463 14.5481 9.8463 16.3851C9.8463 18.222 10.5908 19.8844 11.7951 21.0885C12.9993 22.2927 14.6616 23.0372 16.4987 23.0372C18.3357 23.0372 19.9981 22.2927 21.2023 21.0885C22.4051 19.8858 23.1482 18.2249 23.1511 16.3909V16.3836Z" fill="url(#paint0_linear_1351_2901)" stroke="url(#paint1_linear_1351_2901)" stroke-width="0.3"/>
<defs>
<linearGradient id="paint0_linear_1351_2901" x1="16.5" y1="0.882812" x2="16.5" y2="31.8828" gradientUnits="userSpaceOnUse">
<stop stop-color="#05A6A6"/>
<stop offset="1" stop-color="#0D5B6A"/>
</linearGradient>
<linearGradient id="paint1_linear_1351_2901" x1="16.5" y1="0.882812" x2="16.5" y2="31.8828" gradientUnits="userSpaceOnUse">
<stop stop-color="#05A6A6"/>
<stop offset="1" stop-color="#0D5B6A"/>
</linearGradient>
</defs>
</svg>
