<svg width="34" height="34" viewBox="0 0 34 34" fill="none" xmlns="http://www.w3.org/2000/svg">
<path d="M4.75 11.7503V25.7503M12.625 11.7503V25.7503M21.375 11.7503V25.7503M29.25 11.7503V25.7503M1.25 28.5503L1.25 29.9503C1.25 30.9304 1.25 31.4204 1.44074 31.7948C1.60852 32.124 1.87623 32.3918 2.20552 32.5595C2.57986 32.7503 3.06991 32.7503 4.05 32.7503H29.95C30.9301 32.7503 31.4201 32.7503 31.7945 32.5595C32.1238 32.3918 32.3915 32.124 32.5593 31.7948C32.75 31.4204 32.75 30.9304 32.75 29.9503V28.5503C32.75 27.5702 32.75 27.0801 32.5593 26.7058C32.3915 26.3765 32.1238 26.1088 31.7945 25.941C31.4201 25.7503 30.9301 25.7503 29.95 25.7503H4.05C3.06991 25.7503 2.57986 25.7503 2.20552 25.941C1.87623 26.1088 1.60852 26.3765 1.44074 26.7058C1.25 27.0801 1.25 27.5702 1.25 28.5503ZM16.3926 1.38526L3.4426 4.26304C2.66024 4.43689 2.26906 4.52382 1.97706 4.73418C1.71951 4.91974 1.51727 5.17185 1.39201 5.46352C1.25 5.7942 1.25 6.19492 1.25 6.99636L1.25 8.95028C1.25 9.93037 1.25 10.4204 1.44074 10.7948C1.60852 11.124 1.87623 11.3918 2.20552 11.5595C2.57986 11.7503 3.06991 11.7503 4.05 11.7503H29.95C30.9301 11.7503 31.4201 11.7503 31.7945 11.5595C32.1238 11.3918 32.3915 11.124 32.5593 10.7948C32.75 10.4204 32.75 9.93037 32.75 8.95028V6.99636C32.75 6.19492 32.75 5.7942 32.608 5.46352C32.4827 5.17185 32.2805 4.91974 32.0229 4.73419C31.7309 4.52382 31.3398 4.43689 30.5574 4.26304L17.6074 1.38526C17.3807 1.33489 17.2674 1.3097 17.1529 1.29966C17.0512 1.29074 16.9488 1.29074 16.8471 1.29966C16.7326 1.3097 16.6193 1.33489 16.3926 1.38526Z" stroke="url(#paint0_linear_759_1555)" stroke-width="2" stroke-linecap="round" stroke-linejoin="round"/>
<defs>
<linearGradient id="paint0_linear_759_1555" x1="17" y1="1.29297" x2="17" y2="32.7503" gradientUnits="userSpaceOnUse">
<stop stop-color="#05A6A6"/>
<stop offset="1" stop-color="#0D5B6A"/>
</linearGradient>
</defs>
</svg>
