<svg width="72" height="73" viewBox="0 0 72 73" fill="none" xmlns="http://www.w3.org/2000/svg">
<path d="M18 60.7615H25.8309C26.8519 60.7615 27.8666 60.883 28.8564 61.1259L37.1307 63.1366C38.926 63.574 40.7963 63.6165 42.6104 63.2642L51.7589 61.4843C54.1756 61.0136 56.3987 59.8563 58.141 58.1615L64.6137 51.8651C66.4621 50.0701 66.4621 47.1573 64.6137 45.3592C62.9495 43.7403 60.3142 43.5581 58.4314 44.9309L50.8878 50.4346C49.8075 51.2243 48.4929 51.6495 47.141 51.6495H39.8565L44.4932 51.6493C47.1066 51.6493 49.2236 49.59 49.2236 47.0477V46.1274C49.2236 44.0165 47.7467 42.1759 45.6422 41.6656L38.4858 39.9252C37.3211 39.6428 36.1284 39.5 34.9294 39.5C32.035 39.5 26.7957 41.8964 26.7957 41.8964L18 45.5746M6 44.3L6 61.7C6 63.3802 6 64.2202 6.32698 64.862C6.6146 65.4265 7.07354 65.8854 7.63803 66.173C8.27976 66.5 9.11984 66.5 10.8 66.5H13.2C14.8802 66.5 15.7202 66.5 16.362 66.173C16.9265 65.8854 17.3854 65.4265 17.673 64.862C18 64.2202 18 63.3802 18 61.7V44.3C18 42.6198 18 41.7798 17.673 41.138C17.3854 40.5735 16.9265 40.1146 16.362 39.827C15.7202 39.5 14.8802 39.5 13.2 39.5L10.8 39.5C9.11984 39.5 8.27976 39.5 7.63803 39.827C7.07354 40.1146 6.6146 40.5735 6.32698 41.138C6 41.7798 6 42.6198 6 44.3Z" stroke="url(#paint0_linear_1144_11920)" stroke-width="2" stroke-linecap="round" stroke-linejoin="round"/>
<path fill-rule="evenodd" clip-rule="evenodd" d="M50.625 5.40909C44.0164 5.40909 38.6591 10.7664 38.6591 17.375C38.6591 23.9836 44.0164 29.3409 50.625 29.3409C57.2336 29.3409 62.5909 23.9836 62.5909 17.375C62.5909 10.7664 57.2336 5.40909 50.625 5.40909ZM36 17.375C36 9.29784 42.5478 2.75 50.625 2.75C58.7022 2.75 65.25 9.29784 65.25 17.375C65.25 25.4522 58.7022 32 50.625 32C42.5478 32 36 25.4522 36 17.375ZM50.625 7.40341C51.3593 7.40341 51.9545 7.99867 51.9545 8.73295V9.39773H52.1761C54.6238 9.39773 56.608 11.3819 56.608 13.8295C56.608 14.5638 56.0127 15.1591 55.2784 15.1591C54.5441 15.1591 53.9489 14.5638 53.9489 13.8295C53.9489 12.8505 53.1552 12.0568 52.1761 12.0568H49.2955C48.194 12.0568 47.3011 12.9497 47.3011 14.0511C47.3011 15.1526 48.194 16.0455 49.2955 16.0455H51.9545C54.5246 16.0455 56.608 18.1289 56.608 20.6989C56.608 23.2689 54.5246 25.3523 51.9545 25.3523V26.017C51.9545 26.7513 51.3593 27.3466 50.625 27.3466C49.8907 27.3466 49.2955 26.7513 49.2955 26.017V25.3523H49.0739C46.6262 25.3523 44.642 23.3681 44.642 20.9205C44.642 20.1862 45.2373 19.5909 45.9716 19.5909C46.7059 19.5909 47.3011 20.1862 47.3011 20.9205C47.3011 21.8995 48.0948 22.6932 49.0739 22.6932H51.9545C53.056 22.6932 53.9489 21.8003 53.9489 20.6989C53.9489 19.5974 53.056 18.7045 51.9545 18.7045H49.2955C46.7254 18.7045 44.642 16.6211 44.642 14.0511C44.642 11.4811 46.7254 9.39773 49.2955 9.39773V8.73295C49.2955 7.99867 49.8907 7.40341 50.625 7.40341Z" fill="url(#paint1_linear_1144_11920)"/>
<defs>
<linearGradient id="paint0_linear_1144_11920" x1="36" y1="39.5" x2="36" y2="66.5" gradientUnits="userSpaceOnUse">
<stop stop-color="#0BE6E6"/>
<stop offset="1" stop-color="#0B9292" stop-opacity="0.45"/>
</linearGradient>
<linearGradient id="paint1_linear_1144_11920" x1="50.625" y1="2.75" x2="50.625" y2="32" gradientUnits="userSpaceOnUse">
<stop stop-color="#0BE6E6"/>
<stop offset="1" stop-color="#0B9292" stop-opacity="0.45"/>
</linearGradient>
</defs>
</svg>
