<svg width="62" height="62" viewBox="0 0 62 62" fill="none" xmlns="http://www.w3.org/2000/svg">
<path fill-rule="evenodd" clip-rule="evenodd" d="M55.6452 31.3306C55.8736 19.0452 47.5917 8.08872 36.079 5.14022C16.5867 0.156845 -0.742759 18.9276 5.06731 38.7573C10.1856 56.2337 30.8331 63.2935 45.1064 52.42C45.2542 52.42 46.967 54.3718 47.1282 54.621C47.1408 54.64 47.1535 54.6584 47.1659 54.6763C47.253 54.8024 47.3272 54.9099 47.2626 55.0917C39.2426 61.6808 27.6023 62.9543 18.1987 58.7185C-3.06679 49.1393 -5.861 19.066 13.591 5.82544C33.0027 -7.38743 58.52 6.73905 59.1984 30.4239C59.2027 30.6311 59.2015 30.7835 59.2001 30.9678L59.2001 30.9691C59.1993 31.0739 59.1984 31.1892 59.1984 31.3306H55.6519H55.6452ZM29.75 13.25C30.3023 13.25 30.75 13.6977 30.75 14.25V16.4H32.75C36.6614 16.4 39.75 19.7149 39.75 23.7C39.75 24.2523 39.3023 24.7 38.75 24.7C38.1977 24.7 37.75 24.2523 37.75 23.7C37.75 20.7264 35.466 18.4 32.75 18.4H30.75V29H32.75C36.6614 29 39.75 32.3149 39.75 36.3C39.75 40.2851 36.6614 43.6 32.75 43.6H30.75V45.75C30.75 46.3023 30.3023 46.75 29.75 46.75C29.1977 46.75 28.75 46.3023 28.75 45.75V43.6H26.75C22.8386 43.6 19.75 40.2851 19.75 36.3C19.75 35.7477 20.1977 35.3 20.75 35.3C21.3023 35.3 21.75 35.7477 21.75 36.3C21.75 39.2736 24.034 41.6 26.75 41.6H28.75V31H26.75C22.8386 31 19.75 27.6851 19.75 23.7C19.75 19.7149 22.8386 16.4 26.75 16.4H28.75V14.25C28.75 13.6977 29.1977 13.25 29.75 13.25ZM28.75 18.4H26.75C24.034 18.4 21.75 20.7264 21.75 23.7C21.75 26.6736 24.034 29 26.75 29H28.75V18.4ZM30.75 31V41.6H32.75C35.466 41.6 37.75 39.2736 37.75 36.3C37.75 33.3264 35.466 31 32.75 31H30.75ZM55.2516 37.3634C55.2516 36.8111 54.8039 36.3634 54.2516 36.3634C53.6993 36.3634 53.2516 36.8111 53.2516 37.3634V50.5294L49.1161 46.3939C48.7256 46.0034 48.0925 46.0034 47.7019 46.3939C47.3114 46.7844 47.3114 47.4176 47.7019 47.8081L53.5445 53.6507C53.935 54.0412 54.5682 54.0412 54.9587 53.6507L60.8013 47.8081C61.1918 47.4176 61.1918 46.7844 60.8013 46.3939C60.4108 46.0034 59.7776 46.0034 59.3871 46.3939L55.2516 50.5294V37.3634Z" fill="#F7C948"/>
</svg>
