<svg width="30" height="24" viewBox="0 0 30 24" fill="none" xmlns="http://www.w3.org/2000/svg">
<path d="M28.3346 8.33464H1.66797M28.3346 9.66797V5.93464C28.3346 4.44116 28.3346 3.69443 28.044 3.124C27.7883 2.62223 27.3804 2.21428 26.8786 1.95862C26.3082 1.66797 25.5614 1.66797 24.068 1.66797H5.93464C4.44116 1.66797 3.69443 1.66797 3.12399 1.95862C2.62223 2.21428 2.21428 2.62223 1.95862 3.12399C1.66797 3.69443 1.66797 4.44116 1.66797 5.93464V16.068C1.66797 17.5614 1.66797 18.3082 1.95862 18.8786C2.21428 19.3804 2.62223 19.7883 3.12399 20.044C3.69443 20.3346 4.44116 20.3346 5.93463 20.3346H14.3346M23.0013 23.0013C23.0013 23.0013 27.0013 21.0948 27.0013 18.2349V14.8985L24.0845 13.8562C23.3837 13.6052 22.6173 13.6052 21.9165 13.8562L19.0013 14.8985V18.2349C19.0013 21.0948 23.0013 23.0013 23.0013 23.0013Z" stroke="white" stroke-width="2" stroke-linecap="round" stroke-linejoin="round"/>
</svg>
