<svg width="32" height="32" viewBox="0 0 32 32" fill="none" xmlns="http://www.w3.org/2000/svg">
<path d="M12.0013 11.9998H12.0146M20.0013 19.9998H20.0146M21.3346 10.6665L10.668 21.3332M29.3346 15.9998C29.3346 23.3636 23.3651 29.3332 16.0013 29.3332C8.6375 29.3332 2.66797 23.3636 2.66797 15.9998C2.66797 8.63604 8.6375 2.6665 16.0013 2.6665C23.3651 2.6665 29.3346 8.63604 29.3346 15.9998ZM12.668 11.9998C12.668 12.368 12.3695 12.6665 12.0013 12.6665C11.6331 12.6665 11.3346 12.368 11.3346 11.9998C11.3346 11.6316 11.6331 11.3332 12.0013 11.3332C12.3695 11.3332 12.668 11.6316 12.668 11.9998ZM20.668 19.9998C20.668 20.368 20.3695 20.6665 20.0013 20.6665C19.6331 20.6665 19.3346 20.368 19.3346 19.9998C19.3346 19.6316 19.6331 19.3332 20.0013 19.3332C20.3695 19.3332 20.668 19.6316 20.668 19.9998Z" stroke="white" stroke-width="2" stroke-linecap="round" stroke-linejoin="round"/>
</svg>
