<svg width="79" height="72" viewBox="0 0 79 72" fill="none" xmlns="http://www.w3.org/2000/svg">
<path d="M51.7737 24.8134C58.2861 24.8134 64.1842 27.4555 68.452 31.7241C72.8855 36.1436 75.3691 42.1487 75.3617 48.4086C75.3617 54.9219 72.7199 60.8209 68.452 65.0893C64.0331 69.5198 58.0326 72.0074 51.7737 72C45.5152 72.011 39.5101 69.5234 35.0916 65.0893C30.3527 60.3607 27.8507 53.8366 28.2149 47.15L28.145 47.1537H28.1487C21.4855 47.4959 14.9912 44.9972 10.2817 40.276C5.84818 35.8565 3.36089 29.8514 3.37201 23.5915C3.37201 17.0782 6.01376 11.1755 10.2817 6.90708C14.7006 2.47657 20.7011 -0.011079 26.96 3.70946e-05C33.4724 3.70946e-05 39.3706 2.64218 43.6383 6.91075V6.90707C48.3625 11.6209 50.8608 18.1155 50.515 24.7804L50.5113 24.8503C50.9271 24.8282 51.3465 24.8172 51.7733 24.8172L51.7737 24.8134ZM67.1201 33.0562C63.0545 28.979 57.5315 26.6938 51.7737 26.7011C45.78 26.7011 40.3531 29.1298 36.4234 33.0562C32.3468 37.1261 30.0619 42.65 30.0693 48.4086C30.0693 54.4031 32.4976 59.8309 36.4234 63.7573C40.4927 67.8345 46.0158 70.1234 51.7737 70.1161C57.7673 70.1161 63.1942 67.6874 67.1201 63.761V63.7573C71.1967 59.6911 73.4853 54.1673 73.4779 48.4086C73.4779 42.4142 71.0496 36.9864 67.1201 33.0562ZM28.3918 45.2547H28.3955C28.7745 42.4065 29.6723 39.6503 31.052 37.1259C30.0365 37.4314 28.9842 37.5896 27.9282 37.5896C24.5285 37.5896 21.4526 35.9999 19.2376 33.4388H19.234C17.9682 31.9558 17.0116 30.2337 16.4303 28.3753H13.4832C12.9644 28.3753 12.5413 27.9521 12.5413 27.4333C12.5413 26.9144 12.9644 26.4912 13.4832 26.4912H15.9593C15.6061 24.574 15.6061 22.609 15.9593 20.6918H13.4832C12.9644 20.6918 12.5413 20.2687 12.5413 19.7498C12.5413 19.2309 12.9644 18.8078 13.4832 18.8078H16.4303C17.0153 16.9457 17.9682 15.2236 19.234 13.7443C21.4526 11.1831 24.5248 9.59348 27.9245 9.59348C29.5582 9.59348 31.1623 9.96882 32.6488 10.6827H32.6524C34.172 11.4186 35.5223 12.46 36.6187 13.7443C36.9278 14.138 36.8726 14.7047 36.4936 15.0323C36.1146 15.3634 35.5444 15.334 35.1985 14.9734C34.2713 13.8842 33.1271 12.9973 31.843 12.3717C30.6214 11.783 29.2821 11.4775 27.9282 11.4739C25.0952 11.4739 22.5233 12.8133 20.6578 14.9697L20.6542 14.9734C19.6829 16.1067 18.9249 17.4057 18.4171 18.8077H30.8456C31.368 18.8077 31.7875 19.2309 31.7875 19.7498C31.7875 20.2686 31.368 20.6918 30.8456 20.6918H17.8755H17.8792C17.6805 21.6449 17.5775 22.6164 17.5812 23.5915C17.5812 24.5888 17.6842 25.564 17.8792 26.4912H30.8492H30.8456C31.368 26.4912 31.7875 26.9144 31.7875 27.4333C31.7875 27.9521 31.368 28.3753 30.8456 28.3753H18.4209C18.9286 29.7773 19.6866 31.0763 20.6543 32.2097C22.5197 34.3698 25.0951 35.7055 27.9246 35.7055C28.8334 35.7055 29.7349 35.5657 30.5884 35.297L30.5921 35.3007C31.4273 35.0358 32.2221 34.6567 32.9579 34.1784C33.6128 33.3099 34.3266 32.493 35.0955 31.7239H35.0919C38.7454 28.0661 43.4991 25.711 48.6204 25.0265L48.6388 24.6917C48.6535 24.3605 48.6646 23.9962 48.6646 23.595C48.6646 17.6006 46.2363 12.1728 42.3067 8.24262V8.23894C38.2411 4.1617 32.7181 1.8765 26.9603 1.88384C20.9667 1.88384 15.5397 4.31252 11.6101 8.24262C7.53341 12.3088 5.24854 17.8326 5.25589 23.5913C5.25589 29.5858 7.68421 35.0135 11.6137 38.9399C15.6794 43.0172 21.2023 45.3061 26.9602 45.2987C27.3649 45.2987 27.7292 45.2877 28.0567 45.2729L28.3918 45.2547ZM60.376 43.1498C60.376 43.6687 59.9529 44.0918 59.4341 44.0918C58.9116 44.0918 58.4922 43.6687 58.4922 43.1498C58.4922 42.0275 57.7931 40.986 56.6599 40.2096C55.6296 39.4994 54.2573 39.0174 52.7157 38.8775V47.6134C56.6599 48.2831 60.376 49.181 60.376 53.6667C60.376 55.4478 59.3605 57.0338 57.7195 58.1635C56.395 59.0687 54.6473 59.6796 52.7157 59.8304V61.5526C52.7157 62.0714 52.2925 62.4946 51.7738 62.4946C51.255 62.4946 50.8319 62.0714 50.8319 61.5526V59.8304C48.8965 59.6795 47.1526 59.0687 45.828 58.1635C44.1907 57.0374 43.1715 55.4514 43.1715 53.6667C43.1715 53.1442 43.591 52.7247 44.1134 52.7247C44.6322 52.7247 45.0553 53.1442 45.0553 53.6667C45.0553 54.7891 45.7544 55.8342 46.8876 56.6069C47.9179 57.3172 49.2902 57.7992 50.8319 57.9391V49.2032C46.884 48.5334 43.1715 47.6355 43.1715 43.1498C43.1715 41.3688 44.187 39.7828 45.828 38.6531C47.1525 37.7478 48.9002 37.1369 50.8319 36.9861V35.264C50.8319 34.7414 51.255 34.3219 51.7738 34.3219C52.2925 34.3219 52.7157 34.7414 52.7157 35.264V36.9861C54.651 37.137 56.3949 37.7479 57.7195 38.6531C59.3568 39.7791 60.376 41.3688 60.376 43.1498ZM50.828 38.8775C49.2864 39.0173 47.9139 39.4994 46.8838 40.2096C45.7542 40.986 45.0515 42.0275 45.0515 43.1498C45.0515 46.0016 47.7963 46.7634 50.828 47.2969V38.8775ZM58.4883 53.6665C58.4883 50.8147 55.7472 50.053 52.7118 49.5194V57.9389C54.2534 57.799 55.6259 57.317 56.656 56.6067C57.7855 55.8303 58.4883 54.7889 58.4883 53.6665ZM48.0944 3.42567C47.6124 3.27479 47.3328 2.76697 47.4652 2.28128C47.594 1.79186 48.087 1.49379 48.5801 1.60418C60.1109 4.69153 69.3274 13.358 73.1214 24.6766L76.6241 18.6049C76.8817 18.156 77.4556 18.0014 77.9045 18.259C78.3534 18.5166 78.508 19.0906 78.2504 19.5396L73.6918 27.4329C73.574 27.6831 73.3533 27.8634 73.0884 27.937C72.8235 28.0069 72.5402 27.9554 72.312 27.8009L64.4236 23.2452H64.4273C64.0078 22.9729 63.8754 22.4246 64.1256 21.9904C64.3721 21.5599 64.9166 21.398 65.3618 21.6225L71.2524 25.0227C69.582 20.1763 66.8335 15.7752 63.2094 12.1544C59.026 7.96674 53.8121 4.95648 48.0944 3.42567ZM30.64 68.5734C31.1219 68.7279 31.3942 69.2284 31.2654 69.7178C31.1367 70.2035 30.6473 70.5016 30.1543 70.3949C18.6235 67.3075 9.40695 58.641 5.61296 47.3224L2.1102 53.3905C1.84161 53.8173 1.28235 53.9572 0.844472 53.707C0.406638 53.4567 0.248426 52.9011 0.483902 52.4558L5.04253 44.5626H5.03885C5.16027 44.3123 5.38103 44.1283 5.64594 44.0584C5.91085 43.9885 6.19415 44.0364 6.42227 44.1946L14.3107 48.7502L14.307 48.7465C14.7375 49.0151 14.8773 49.5745 14.6271 50.0124C14.3733 50.4503 13.8214 50.6086 13.3725 50.373L7.48195 46.9729C9.15232 51.8192 11.9008 56.2203 15.525 59.8411C19.7083 64.0288 24.922 67.0389 30.6397 68.5697" fill="url(#paint0_linear_1351_725)"/>
<defs>
<linearGradient id="paint0_linear_1351_725" x1="39.375" y1="0" x2="39.375" y2="72" gradientUnits="userSpaceOnUse">
<stop stop-color="#0BE6E6"/>
<stop offset="1" stop-color="#0B9292" stop-opacity="0.45"/>
</linearGradient>
</defs>
</svg>
