<svg width="30" height="24" viewBox="0 0 30 24" fill="none" xmlns="http://www.w3.org/2000/svg">
<path d="M28.3346 7.83317H1.66797M28.3346 9.1665V5.43317C28.3346 3.9397 28.3346 3.19296 28.044 2.62253C27.7883 2.12077 27.3804 1.71282 26.8786 1.45716C26.3082 1.1665 25.5614 1.1665 24.068 1.1665H5.93464C4.44116 1.1665 3.69443 1.1665 3.12399 1.45715C2.62223 1.71282 2.21428 2.12076 1.95862 2.62253C1.66797 3.19296 1.66797 3.9397 1.66797 5.43317V15.5665C1.66797 17.06 1.66797 17.8067 1.95862 18.3771C2.21428 18.8789 2.62223 19.2869 3.12399 19.5425C3.69443 19.8332 4.44116 19.8332 5.93463 19.8332H14.3346M23.0013 22.4998C23.0013 22.4998 27.0013 20.5933 27.0013 17.7335V14.397L24.0845 13.3548C23.3837 13.1037 22.6173 13.1037 21.9165 13.3548L19.0013 14.397V17.7335C19.0013 20.5933 23.0013 22.4998 23.0013 22.4998Z" stroke="white" stroke-width="2" stroke-linecap="round" stroke-linejoin="round"/>
</svg>
