<svg width="67" height="64" viewBox="0 0 67 64" fill="none" xmlns="http://www.w3.org/2000/svg">
<path d="M50.7041 31.2549C51.7265 31.3056 52.6966 31.7347 53.4239 32.4619C54.1995 33.2376 54.6358 34.2898 54.6358 35.3867V35.499L54.6426 35.5967C54.6572 35.6936 54.6935 35.7867 54.7481 35.8691C54.8025 35.9512 54.8738 36.0201 54.9571 36.0713L55.045 36.1172L55.0596 36.123L55.1543 36.1572C55.251 36.1835 55.3528 36.1879 55.4522 36.1699C55.5848 36.1459 55.7074 36.0825 55.8038 35.9883L55.8702 35.9209L56.0176 35.7812C56.3692 35.4622 56.7735 35.2056 57.2129 35.0234C57.715 34.8153 58.2534 34.708 58.7969 34.708L59.001 34.7129C59.4749 34.7363 59.9417 34.8414 60.3809 35.0234C60.8826 35.2314 61.3388 35.5359 61.7227 35.9199L61.8623 36.0674C62.1813 36.419 62.438 36.8232 62.6202 37.2627C62.8283 37.7648 62.9356 38.3031 62.9356 38.8467C62.9356 39.3902 62.8283 39.9285 62.6202 40.4307C62.412 40.9328 62.1073 41.3893 61.7227 41.7734L61.7217 41.7725L61.6553 41.8398L61.5909 41.917C61.5322 41.9983 61.4917 42.0919 61.4737 42.1914C61.4496 42.324 61.4662 42.4607 61.5205 42.584C61.5566 42.6656 61.5836 42.7507 61.6045 42.8369C61.6513 42.9007 61.7079 42.9568 61.7745 43.001C61.8842 43.0736 62.013 43.1127 62.1446 43.1133H62.3623C63.4593 43.1133 64.5115 43.5496 65.2872 44.3252C66.0629 45.1009 66.4991 46.153 66.4991 47.25C66.4991 48.347 66.0629 49.3991 65.2872 50.1748C64.5115 50.9504 63.4593 51.3867 62.3623 51.3867H62.25L62.1524 51.3936C62.0555 51.4081 61.9623 51.4445 61.8799 51.499C61.7979 51.5534 61.7289 51.6248 61.6778 51.708L61.6319 51.7959L61.626 51.8105C61.5717 51.9338 61.5551 52.0705 61.5791 52.2031C61.6032 52.3358 61.6665 52.4583 61.7608 52.5547L61.8272 52.6211H61.8282C62.2127 53.0052 62.5175 53.4618 62.7256 53.9639C62.9338 54.466 63.041 55.0043 63.0411 55.5479C63.0411 56.0914 62.9338 56.6297 62.7256 57.1318C62.5177 57.6335 62.2122 58.0887 61.8282 58.4727L61.8291 58.4736C61.445 58.8582 60.9885 59.163 60.4864 59.3711C59.9843 59.5792 59.4459 59.6865 58.9024 59.6865C58.3589 59.6865 57.8205 59.5792 57.3184 59.3711C56.8163 59.1629 56.3597 58.8582 55.9756 58.4736V58.4727L55.9092 58.4062L55.8321 58.3418C55.7508 58.2831 55.6571 58.2426 55.5577 58.2246C55.4583 58.2066 55.3564 58.211 55.2598 58.2373L55.1651 58.2715L55.1504 58.2773C55.0296 58.3292 54.9262 58.4158 54.8536 58.5254C54.7809 58.6351 54.7418 58.7639 54.7413 58.8955V59.1133C54.7413 60.2102 54.3049 61.2624 53.5293 62.0381C52.7536 62.8138 51.7015 63.25 50.6045 63.25C49.5075 63.25 48.4554 62.8138 47.6797 62.0381C46.9041 61.2624 46.4678 60.2102 46.4678 59.1133V59.0195C46.4627 58.8879 46.4195 58.7606 46.3428 58.6533C46.2836 58.5706 46.2067 58.5026 46.1182 58.4541L46.0264 58.4121C45.9969 58.4012 45.9673 58.3897 45.9385 58.377C45.8152 58.3226 45.6785 58.306 45.5459 58.3301C45.4133 58.3541 45.2908 58.4175 45.1944 58.5117L45.127 58.5781L45.128 58.5791C44.7438 58.9636 44.2873 59.2684 43.7852 59.4766C43.2831 59.6847 42.7447 59.792 42.2012 59.792C41.6577 59.792 41.1193 59.6847 40.6172 59.4766C40.1152 59.2684 39.6586 58.9636 39.2745 58.5791V58.5781C38.8906 58.1943 38.5858 57.7388 38.378 57.2373C38.1959 56.7981 38.0908 56.3313 38.0674 55.8574L38.0625 55.6533C38.0626 55.1098 38.1698 54.5714 38.378 54.0693C38.5602 53.6298 38.8168 53.2256 39.1358 52.874L39.2754 52.7266L39.3428 52.6602C39.4371 52.5638 39.5004 52.4413 39.5245 52.3086C39.5425 52.2092 39.5381 52.1074 39.5118 52.0107L39.4776 51.916L39.4717 51.9014C39.4199 51.7805 39.3333 51.6772 39.2237 51.6045C39.1413 51.5499 39.0482 51.5136 38.9512 51.499L38.8536 51.4922H38.6358C37.5389 51.4922 36.4867 51.0559 35.711 50.2803C34.9353 49.5046 34.4991 48.4525 34.4991 47.3555C34.4991 46.2584 34.9353 45.2064 35.711 44.4307C36.4867 43.6551 37.5389 43.2188 38.6358 43.2188H38.7286C38.8605 43.2138 38.9882 43.1706 39.0957 43.0938C39.2059 43.015 39.2902 42.9045 39.337 42.7773L39.3721 42.6895L39.4063 42.5947C39.4326 42.4981 39.437 42.3963 39.419 42.2969C39.4009 42.1974 39.3605 42.1038 39.3018 42.0225L39.2373 41.9453L39.17 41.8779V41.8789C38.7854 41.4948 38.4807 41.0382 38.2725 40.5361C38.0644 40.034 37.9571 39.4957 37.9571 38.9521C37.9571 38.4086 38.0644 37.8703 38.2725 37.3682C38.4806 36.8661 38.7854 36.4095 39.17 36.0254C39.5539 35.6413 40.0101 35.3369 40.5118 35.1289C41.0139 34.9208 41.5522 34.8135 42.0957 34.8135C42.6393 34.8135 43.1776 34.9208 43.6797 35.1289C44.1818 35.3371 44.6384 35.6418 45.0225 36.0264H45.0215L45.0889 36.0938L45.1661 36.1582C45.2474 36.2169 45.341 36.2573 45.4405 36.2754C45.5731 36.2994 45.7098 36.2829 45.833 36.2285L45.9795 36.1729C46.0146 36.1616 46.0502 36.1522 46.086 36.1436C46.1495 36.0968 46.206 36.041 46.25 35.9746C46.3216 35.8665 46.3607 35.7399 46.3623 35.6104V35.3867C46.3623 34.2898 46.7987 33.2376 47.5743 32.4619C48.35 31.6862 49.4021 31.25 50.4991 31.25L50.7041 31.2549ZM50.4991 34.25C50.1977 34.25 49.9085 34.3699 49.6954 34.583C49.4824 34.7961 49.3623 35.0854 49.3623 35.3867V35.6162C49.3595 36.3328 49.1477 37.0333 48.752 37.6309C48.3563 38.2283 47.7944 38.6971 47.1358 38.9795C47.0159 39.0309 46.8893 39.0643 46.7608 39.083C46.1663 39.2885 45.5276 39.3403 44.9053 39.2275C44.2732 39.1129 43.6835 38.8345 43.1944 38.4229L42.9913 38.2383L42.8995 38.1465C42.7941 38.0411 42.6689 37.9575 42.5313 37.9004C42.3934 37.8432 42.245 37.8135 42.0957 37.8135C41.9464 37.8135 41.7981 37.8432 41.6602 37.9004C41.5226 37.9575 41.3974 38.0411 41.292 38.1465L41.2901 38.1484C41.1847 38.2538 41.1011 38.3789 41.044 38.5166C40.9868 38.6545 40.9571 38.8028 40.9571 38.9521C40.9571 39.1013 40.9869 39.2489 41.044 39.3867C41.0869 39.4902 41.1451 39.5866 41.2159 39.6729L41.2901 39.7559L41.3819 39.8477C41.8953 40.3726 42.2401 41.0393 42.3711 41.7617C42.4964 42.453 42.4178 43.1639 42.1514 43.8125L42.1524 43.8135C42.148 43.8255 42.1413 43.8367 42.1368 43.8486C42.1295 43.8658 42.1248 43.8843 42.1172 43.9014L42.1163 43.9004C41.8561 44.5552 41.4151 45.1235 40.8409 45.5342C40.3162 45.9094 39.7032 46.1391 39.0645 46.2021L38.7891 46.2188H38.6358C38.3345 46.2188 38.0452 46.3388 37.8321 46.5518C37.619 46.7649 37.4991 47.0541 37.4991 47.3555C37.4991 47.6568 37.619 47.9461 37.8321 48.1592C38.0452 48.3722 38.3345 48.4922 38.6358 48.4922H38.8653L39.1329 48.5029C39.7553 48.5508 40.357 48.7563 40.8799 49.1025C41.4729 49.4952 41.9387 50.0519 42.2217 50.7041H42.2227C42.5192 51.3758 42.6076 52.1213 42.4766 52.8438C42.362 53.4759 42.0836 54.0656 41.6719 54.5547L41.4873 54.7578L41.3955 54.8496C41.2902 54.955 41.2066 55.0801 41.1495 55.2178C41.0923 55.3557 41.0626 55.504 41.0625 55.6533L41.0684 55.7646C41.0793 55.8758 41.1065 55.9853 41.1495 56.0889C41.1924 56.1924 41.2504 56.2887 41.3213 56.375L41.3955 56.457L41.3975 56.459L41.4795 56.5332C41.5658 56.6041 41.6622 56.6621 41.7657 56.7051C41.9036 56.7623 42.0519 56.792 42.2012 56.792C42.3504 56.792 42.498 56.7621 42.6358 56.7051C42.7736 56.6479 42.8995 56.5645 43.0049 56.459L43.0967 56.3672C43.6216 55.8538 44.2883 55.5089 45.0108 55.3779C45.7019 55.2527 46.4131 55.3304 47.0616 55.5967H47.0625C47.0744 55.6011 47.0859 55.6068 47.0977 55.6113C47.115 55.6187 47.1332 55.6242 47.1504 55.6318H47.1495C47.8044 55.8919 48.3725 56.3339 48.7832 56.9082C49.2121 57.5079 49.4506 58.2229 49.4678 58.96V59.1133C49.4678 59.4146 49.5878 59.7039 49.8008 59.917C50.0139 60.1301 50.3032 60.25 50.6045 60.25C50.9059 60.25 51.1951 60.1301 51.4082 59.917C51.6212 59.7039 51.7413 59.4146 51.7413 59.1133V58.8838L51.752 58.6162C51.7999 57.9938 52.0053 57.3921 52.3516 56.8691C52.7444 56.2761 53.3008 55.8094 53.9532 55.5264L54.209 55.4258C54.8114 55.2121 55.4608 55.1579 56.0928 55.2725C56.725 55.3871 57.3146 55.6655 57.8038 56.0771L58.0069 56.2617L58.0987 56.3535L58.1817 56.4277C58.2678 56.4984 58.3636 56.5567 58.4668 56.5996C58.6047 56.6568 58.7531 56.6865 58.9024 56.6865C59.0517 56.6865 59.2 56.6568 59.3379 56.5996C59.4756 56.5425 59.6007 56.4589 59.7061 56.3535L59.708 56.3516L59.7823 56.2695C59.8532 56.1833 59.9112 56.0869 59.9541 55.9834C60.0113 55.8454 60.0411 55.6972 60.0411 55.5479C60.041 55.3987 60.0112 55.2511 59.9541 55.1133C59.897 54.9755 59.8136 54.8496 59.708 54.7441L59.6163 54.6523C59.1029 54.1274 58.758 53.4607 58.627 52.7383C58.5124 52.1062 58.5667 51.4569 58.7803 50.8545L58.8809 50.5986C59.1639 49.9463 59.6306 49.3898 60.2237 48.9971C60.8212 48.6014 61.5217 48.3896 62.2383 48.3867H62.3623C62.6636 48.3867 62.953 48.2667 63.1661 48.0537C63.3792 47.8406 63.4991 47.5514 63.4991 47.25C63.4991 46.9486 63.3792 46.6594 63.1661 46.4463C62.953 46.2333 62.6636 46.1133 62.3623 46.1133H62.1329C61.4162 46.1104 60.7157 45.8986 60.1182 45.5029C59.5954 45.1567 59.1709 44.6831 58.8838 44.1289L58.7696 43.8867C58.7182 43.7667 58.6838 43.6403 58.6651 43.5117C58.4597 42.9173 58.4087 42.2784 58.5215 41.6562C58.6525 40.9338 58.9974 40.2671 59.5108 39.7422L59.6026 39.6504L59.6768 39.5674C59.7475 39.4813 59.8058 39.3855 59.8487 39.2822C59.9058 39.1443 59.9356 38.996 59.9356 38.8467C59.9356 38.6973 59.9059 38.5491 59.8487 38.4111C59.7916 38.2735 59.708 38.1483 59.6026 38.043L59.6006 38.041C59.4953 37.9356 59.3701 37.852 59.2325 37.7949C59.1289 37.752 59.0194 37.7248 58.9082 37.7139L58.7969 37.708C58.6478 37.708 58.5001 37.7379 58.3623 37.7949C58.2245 37.8521 58.0987 37.9355 57.9932 38.041L57.9014 38.1328C57.3765 38.6462 56.7098 38.9911 55.9873 39.1221C55.2649 39.253 54.5194 39.1646 53.8477 38.8682V38.8672C53.1955 38.5842 52.6388 38.1183 52.2461 37.5254C51.8505 36.9279 51.6386 36.2274 51.6358 35.5107V35.3867C51.6358 35.0854 51.5158 34.7961 51.3028 34.583C51.1163 34.3966 50.8715 34.2817 50.6114 34.2559L50.4991 34.25ZM32.1524 38.0078C32.9089 38.0845 33.4991 38.7233 33.4991 39.5C33.4991 40.2767 32.9089 40.9155 32.1524 40.9922L31.9991 41H18.4991C14.4584 41 12.6215 41.0161 11.1612 41.4336L10.8741 41.5234L10.8409 41.5332C7.52271 42.5542 4.95154 45.0531 3.83598 48.3223L3.73246 48.6416C3.7291 48.6525 3.72631 48.664 3.7227 48.6748C3.21854 50.1875 3.19926 51.9899 3.19926 56.2998C3.19926 57.1282 2.52769 57.7998 1.69926 57.7998C0.870861 57.7998 0.199261 57.1282 0.199261 56.2998C0.199261 52.2317 0.181614 49.8383 0.866253 47.7588H0.865277C2.16927 43.5208 5.3746 40.2246 9.55082 38.7988L9.95805 38.666C12.0375 37.9815 14.4312 38 18.4991 38H31.9991L32.1524 38.0078ZM50.4991 41.4004C53.7299 41.4004 56.3487 44.0191 56.3487 47.25C56.3487 50.4809 53.7299 53.0996 50.4991 53.0996C47.2682 53.0996 44.6495 50.4808 44.6495 47.25C44.6495 44.0192 47.2682 41.4004 50.4991 41.4004ZM50.4991 44.4004C48.9251 44.4004 47.6495 45.676 47.6495 47.25C47.6495 48.824 48.9251 50.0996 50.4991 50.0996C52.0731 50.0996 53.3487 48.824 53.3487 47.25C53.3487 45.676 52.0731 44.4004 50.4991 44.4004ZM25.9991 0.5C34.3275 0.5 40.9991 7.17157 40.9991 15.5C40.9991 23.8284 34.3275 30.5 25.9991 30.5C17.6708 30.4999 10.9991 23.8283 10.9991 15.5C10.9991 7.17166 17.6708 0.500137 25.9991 0.5ZM25.9991 3.5C19.3276 3.50014 13.9991 8.82851 13.9991 15.5C13.9991 22.1715 19.3276 27.4999 25.9991 27.5C32.6706 27.5 37.9991 22.1716 37.9991 15.5C37.9991 8.82843 32.6706 3.5 25.9991 3.5Z" fill="#F7C948"/>
</svg>
