<svg width="73" height="72" viewBox="0 0 73 72" fill="none" xmlns="http://www.w3.org/2000/svg">
<path d="M67.1475 3C69.7047 3.00013 71.7969 5.09308 71.7969 7.65039V48.7236C71.7967 51.2808 69.7047 53.3729 67.1475 53.373H36.9238V57.8672L45.2939 66.9355C45.6036 67.2455 45.5247 67.7106 45.2148 68.0205C45.0599 68.1754 44.9049 68.252 44.75 68.252C44.5177 68.2519 44.3629 68.1754 44.208 68.0205L36.1123 59.2676L28.0889 67.9414C28.0114 68.1738 27.7793 68.2519 27.5469 68.252C27.3919 68.252 27.1579 68.1755 27.0029 68.0205C26.6932 67.7107 26.6936 67.2455 26.9258 66.9355L35.374 57.8018V53.373H5.14941C2.59229 53.3728 0.500142 51.2808 0.5 48.7236V7.65039C0.5 5.09313 2.5922 3.00021 5.14941 3H67.1475ZM5.14941 4.5498C3.44466 4.55002 2.0498 5.94559 2.0498 7.65039V48.7236C2.04995 50.4283 3.44475 51.823 5.14941 51.8232H67.1475C68.8522 51.8231 70.2469 50.4284 70.2471 48.7236V7.65039C70.2471 5.94554 68.8523 4.54994 67.1475 4.5498H5.14941ZM36.3877 16.5244C36.4376 16.53 36.4877 16.5431 36.5361 16.5625C36.9234 16.6401 37.2327 17.1039 37.0781 17.4912L32.5068 35.3154C32.1194 36.3229 31.2662 36.9434 30.2588 36.9434C29.2514 36.9432 28.3985 36.3228 28.166 35.3154L24.9883 22.8389C24.9108 22.4525 24.5258 22.3743 24.4473 22.374C24.3698 22.374 24.0587 22.3747 23.8262 22.6846L19.4092 32.9141C19.4091 32.9196 19.4065 32.9912 19.332 32.9912C18.9445 33.611 18.2462 33.9987 17.5488 34.0762C16.8515 34.076 16.0769 33.766 15.6895 33.2236L13.21 29.0391C13.1325 28.9616 12.9773 28.8832 12.8223 28.8057C12.6673 28.8057 12.4349 28.8069 12.3574 28.9619L8.0957 32.4492C7.78572 32.7592 7.24226 32.6821 7.00977 32.3721C6.77728 32.0621 6.77693 31.5186 7.08691 31.2861L11.3496 27.7988C11.8145 27.4115 12.4339 27.2575 13.0537 27.335C13.6736 27.4124 14.2164 27.7217 14.5264 28.1865L17.0078 32.3721C17.0854 32.5267 17.3167 32.6034 17.5488 32.6035C17.7813 32.6035 17.9358 32.5254 18.0908 32.293L22.5098 22.0645C22.5098 22.0645 22.5094 21.9873 22.5869 21.9873C23.0518 21.2124 23.9045 20.824 24.7568 20.9014C25.6093 21.0564 26.3837 21.5997 26.6162 22.4521L29.7939 34.9287C29.9487 35.3154 30.3348 35.3923 30.4131 35.3926C30.4906 35.3926 30.8791 35.3934 31.0342 34.9287L35.6064 17.1045C35.6743 16.7654 36.0381 16.4852 36.3877 16.5244ZM63.583 35.1611C64.0478 35.1613 64.3574 35.4717 64.3574 35.9365C64.3574 36.4013 63.9706 36.7108 63.5059 36.7109H43.665C43.2001 36.7109 42.8897 36.4014 42.8896 35.9365C42.8896 35.4716 43.2001 35.1612 43.665 35.1611H63.583ZM63.583 27.4121C64.0477 27.4123 64.3573 27.7218 64.3574 28.1865C64.3574 28.6514 63.9707 28.9617 63.5059 28.9619H43.665C43.2001 28.9619 42.8896 28.6515 42.8896 28.1865C42.8897 27.7217 43.2002 27.4121 43.665 27.4121H63.583ZM63.583 19.6621C64.0478 19.6623 64.3574 19.9726 64.3574 20.4375C64.3572 20.9021 63.9705 21.2117 63.5059 21.2119H43.665C43.2002 21.2119 42.8898 20.9022 42.8896 20.4375C42.8896 19.9725 43.2001 19.6621 43.665 19.6621H63.583Z" fill="#F7C948"/>
<path d="M67.1475 3L67.1475 2.5H67.1475V3ZM71.7969 48.7236L72.2969 48.7237V48.7236H71.7969ZM67.1475 53.373V53.873H67.1475L67.1475 53.373ZM36.9238 53.373V52.873H36.4238V53.373H36.9238ZM36.9238 57.8672H36.4238V58.0627L36.5564 58.2063L36.9238 57.8672ZM45.2939 66.9355L44.9265 67.2747L44.9332 67.2819L44.9402 67.2889L45.2939 66.9355ZM45.2148 68.0205L45.5683 68.3741L45.5684 68.3741L45.2148 68.0205ZM44.75 68.252L44.7498 68.752H44.75V68.252ZM44.208 68.0205L43.8409 68.36L43.8476 68.3672L43.8545 68.3741L44.208 68.0205ZM36.1123 59.2676L36.4794 58.9281L36.1123 58.5312L35.7453 58.9281L36.1123 59.2676ZM28.0889 67.9414L27.7218 67.6019L27.6486 67.681L27.6145 67.7833L28.0889 67.9414ZM27.5469 68.252V68.752H27.547L27.5469 68.252ZM27.0029 68.0205L26.6493 68.374L26.6494 68.3741L27.0029 68.0205ZM26.9258 66.9355L26.5587 66.596L26.5411 66.6151L26.5256 66.6358L26.9258 66.9355ZM35.374 57.8018L35.7411 58.1413L35.874 57.9975V57.8018H35.374ZM35.374 53.373H35.874V52.873H35.374V53.373ZM5.14941 53.373L5.14937 53.873H5.14941V53.373ZM0.5 48.7236H0V48.7237L0.5 48.7236ZM5.14941 3V2.5H5.14937L5.14941 3ZM5.14941 4.5498V4.0498H5.14935L5.14941 4.5498ZM2.0498 48.7236H1.5498V48.7237L2.0498 48.7236ZM5.14941 51.8232L5.14935 52.3232H5.14941V51.8232ZM67.1475 51.8232V52.3232H67.1475L67.1475 51.8232ZM70.2471 48.7236L70.7471 48.7237V48.7236H70.2471ZM67.1475 4.5498L67.1475 4.0498H67.1475V4.5498ZM36.3877 16.5244L36.4434 16.0275L36.4434 16.0275L36.3877 16.5244ZM36.5361 16.5625L36.3504 17.0267L36.393 17.0438L36.4379 17.0528L36.5361 16.5625ZM37.0781 17.4912L36.6137 17.3059L36.6018 17.3358L36.5938 17.367L37.0781 17.4912ZM32.5068 35.3154L32.9735 35.4949L32.9839 35.4678L32.9912 35.4396L32.5068 35.3154ZM30.2588 36.9434L30.2587 37.4434H30.2588V36.9434ZM28.166 35.3154L28.6533 35.203L28.6505 35.192L28.166 35.3154ZM24.9883 22.8389L24.498 22.9372L24.5006 22.9498L24.5037 22.9623L24.9883 22.8389ZM24.4473 22.374L24.4492 21.874H24.4473V22.374ZM23.8262 22.6846L23.4262 22.3845L23.3906 22.4319L23.3671 22.4864L23.8262 22.6846ZM19.4092 32.9141L18.9501 32.7159L18.9109 32.8068L18.9092 32.9059L19.4092 32.9141ZM19.332 32.9912V32.4912H19.055L18.9081 32.7261L19.332 32.9912ZM17.5488 34.0762L17.5487 34.5762L17.5765 34.5762L17.604 34.5731L17.5488 34.0762ZM15.6895 33.2236L15.2593 33.4785L15.2702 33.4969L15.2826 33.5143L15.6895 33.2236ZM13.21 29.0391L13.6401 28.7842L13.608 28.73L13.5635 28.6855L13.21 29.0391ZM12.8223 28.8057L13.0459 28.3584L12.9403 28.3057H12.8223V28.8057ZM12.3574 28.9619L12.6741 29.3489L12.7568 29.2812L12.8046 29.1855L12.3574 28.9619ZM8.0957 32.4492L7.77906 32.0623L7.75977 32.078L7.74215 32.0957L8.0957 32.4492ZM7.00977 32.3721L6.60977 32.6721L6.60977 32.6721L7.00977 32.3721ZM7.08691 31.2861L7.38691 31.6861L7.39535 31.6798L7.40351 31.6731L7.08691 31.2861ZM11.3496 27.7988L11.6662 28.1858L11.6696 28.183L11.3496 27.7988ZM13.0537 27.335L13.1157 26.8388L13.1157 26.8388L13.0537 27.335ZM14.5264 28.1865L14.9565 27.9315L14.9497 27.9201L14.9423 27.9091L14.5264 28.1865ZM17.0078 32.3721L17.4547 32.1478L17.4468 32.1322L17.4379 32.1171L17.0078 32.3721ZM17.5488 32.6035L17.5486 33.1035H17.5488V32.6035ZM18.0908 32.293L18.5068 32.5703L18.5319 32.5327L18.5498 32.4913L18.0908 32.293ZM22.5098 22.0645L22.9688 22.2628L23.0102 22.1668L23.0098 22.0622L22.5098 22.0645ZM22.5869 21.9873V22.4873H22.87L23.0157 22.2446L22.5869 21.9873ZM24.7568 20.9014L24.8463 20.4094L24.8243 20.4054L24.802 20.4034L24.7568 20.9014ZM26.6162 22.4521L27.1008 22.3287L27.0986 22.3206L26.6162 22.4521ZM29.7939 34.9287L29.3094 35.0521L29.3175 35.084L29.3297 35.1145L29.7939 34.9287ZM30.4131 35.3926L30.4116 35.8926H30.4131V35.3926ZM31.0342 34.9287L31.5085 35.087L31.5141 35.0701L31.5185 35.0529L31.0342 34.9287ZM35.6064 17.1045L36.0908 17.2287L36.0941 17.2157L36.0967 17.2025L35.6064 17.1045ZM63.583 35.1611L63.5832 34.6611H63.583V35.1611ZM64.3574 35.9365L64.8574 35.9366V35.9365H64.3574ZM63.5059 36.7109V37.2109H63.506L63.5059 36.7109ZM43.665 36.7109L43.665 37.2109H43.665V36.7109ZM42.8896 35.9365H42.3896V35.9366L42.8896 35.9365ZM43.665 35.1611V34.6611H43.665L43.665 35.1611ZM63.583 27.4121L63.5832 26.9121H63.583V27.4121ZM64.3574 28.1865H64.8574V28.1864L64.3574 28.1865ZM63.5059 28.9619V29.4619H63.506L63.5059 28.9619ZM43.665 28.9619L43.665 29.4619H43.665V28.9619ZM42.8896 28.1865L42.3896 28.1864V28.1865H42.8896ZM43.665 27.4121V26.9121H43.665L43.665 27.4121ZM63.583 19.6621L63.5832 19.1621H63.583V19.6621ZM64.3574 20.4375L64.8574 20.4378V20.4375H64.3574ZM63.5059 21.2119V21.7119H63.506L63.5059 21.2119ZM43.665 21.2119L43.665 21.7119H43.665V21.2119ZM42.8896 20.4375H42.3896V20.4377L42.8896 20.4375ZM43.665 19.6621V19.1621H43.665L43.665 19.6621ZM67.1475 3L67.1474 3.5C69.4285 3.50012 71.2969 5.36911 71.2969 7.65039H71.7969H72.2969C72.2969 4.81705 69.981 2.50015 67.1475 2.5L67.1475 3ZM71.7969 7.65039H71.2969V48.7236H71.7969H72.2969V7.65039H71.7969ZM71.7969 48.7236L71.2969 48.7236C71.2967 51.0047 69.4285 52.8729 67.1474 52.873L67.1475 53.373L67.1475 53.873C69.9808 53.8729 72.2967 51.557 72.2969 48.7237L71.7969 48.7236ZM67.1475 53.373V52.873H36.9238V53.373V53.873H67.1475V53.373ZM36.9238 53.373H36.4238V57.8672H36.9238H37.4238V53.373H36.9238ZM36.9238 57.8672L36.5564 58.2063L44.9265 67.2747L45.2939 66.9355L45.6614 66.5964L37.2912 57.5281L36.9238 57.8672ZM45.2939 66.9355L44.9402 67.2889C44.9818 67.3305 44.9948 67.3728 44.9893 67.4274C44.9827 67.4922 44.9458 67.5825 44.8613 67.667L45.2148 68.0205L45.5684 68.3741C46.0027 67.9398 46.2163 67.1515 45.6477 66.5822L45.2939 66.9355ZM45.2148 68.0205L44.8614 67.6669C44.8127 67.7155 44.7782 67.7374 44.7599 67.7466C44.7439 67.7545 44.7421 67.752 44.75 67.752V68.252V68.752C45.0829 68.752 45.3575 68.5849 45.5683 68.3741L45.2148 68.0205ZM44.75 68.252L44.7502 67.752C44.6915 67.7519 44.6654 67.7428 44.6521 67.737C44.6368 67.7302 44.6091 67.7145 44.5616 67.667L44.208 68.0205L43.8545 68.3741C43.9618 68.4815 44.089 68.5814 44.2479 68.6516C44.4088 68.7227 44.5762 68.7519 44.7498 68.752L44.75 68.252ZM44.208 68.0205L44.5751 67.681L36.4794 58.9281L36.1123 59.2676L35.7452 59.6071L43.8409 68.36L44.208 68.0205ZM36.1123 59.2676L35.7453 58.9281L27.7218 67.6019L28.0889 67.9414L28.4559 68.2809L36.4794 59.6071L36.1123 59.2676ZM28.0889 67.9414L27.6145 67.7833C27.6168 67.7764 27.6229 67.7641 27.6338 67.7521C27.644 67.7408 27.6521 67.7367 27.6516 67.737C27.6504 67.7376 27.6415 67.7417 27.6221 67.7455C27.6029 67.7493 27.5776 67.7519 27.5468 67.752L27.5469 68.252L27.547 68.752C27.8497 68.7519 28.381 68.6461 28.5632 68.0995L28.0889 67.9414ZM27.5469 68.252V67.752C27.5476 67.752 27.5383 67.7518 27.52 67.748C27.5024 67.7444 27.4813 67.7383 27.4589 67.7294C27.4115 67.7107 27.3762 67.6867 27.3565 67.667L27.0029 68.0205L26.6494 68.3741C26.9061 68.6307 27.2709 68.752 27.5469 68.752V68.252ZM27.0029 68.0205L27.3565 67.667C27.236 67.5464 27.2313 67.3617 27.326 67.2353L26.9258 66.9355L26.5256 66.6358C26.156 67.1292 26.1504 67.8749 26.6493 68.374L27.0029 68.0205ZM26.9258 66.9355L27.2928 67.2751L35.7411 58.1413L35.374 57.8018L35.007 57.4622L26.5587 66.596L26.9258 66.9355ZM35.374 57.8018H35.874V53.373H35.374H34.874V57.8018H35.374ZM35.374 53.373V52.873H5.14941V53.373V53.873H35.374V53.373ZM5.14941 53.373L5.14946 52.873C2.86842 52.8729 1.00013 51.0046 1 48.7236L0.5 48.7236L0 48.7237C0.000157624 51.5569 2.31615 53.8728 5.14937 53.873L5.14941 53.373ZM0.5 48.7236H1V7.65039H0.5H0V48.7236H0.5ZM0.5 7.65039H1C1 5.36918 2.86845 3.50019 5.14946 3.5L5.14941 3L5.14937 2.5C2.31595 2.50024 0 4.81708 0 7.65039H0.5ZM5.14941 3V3.5H67.1475V3V2.5H5.14941V3ZM5.14941 4.5498L5.14935 4.0498C3.16836 4.05005 1.5498 5.66959 1.5498 7.65039H2.0498H2.5498C2.5498 6.22159 3.72096 5.04998 5.14948 5.0498L5.14941 4.5498ZM2.0498 7.65039H1.5498V48.7236H2.0498H2.5498V7.65039H2.0498ZM2.0498 48.7236L1.5498 48.7237C1.54997 50.7045 3.16861 52.323 5.14935 52.3232L5.14941 51.8232L5.14948 51.3232C3.72089 51.3231 2.54992 50.1521 2.5498 48.7236L2.0498 48.7236ZM5.14941 51.8232V52.3232H67.1475V51.8232V51.3232H5.14941V51.8232ZM67.1475 51.8232L67.1475 52.3232C69.1283 52.3231 70.7469 50.7045 70.7471 48.7237L70.2471 48.7236L69.7471 48.7236C69.7469 50.1522 68.576 51.3231 67.1474 51.3232L67.1475 51.8232ZM70.2471 48.7236H70.7471V7.65039H70.2471H69.7471V48.7236H70.2471ZM70.2471 7.65039H70.7471C70.7471 5.66957 69.1286 4.04996 67.1475 4.0498L67.1475 4.5498L67.1474 5.0498C68.576 5.04992 69.7471 6.22152 69.7471 7.65039H70.2471ZM67.1475 4.5498V4.0498H5.14941V4.5498V5.0498H67.1475V4.5498ZM36.3877 16.5244L36.3319 17.0213C36.3332 17.0214 36.3396 17.0224 36.3504 17.0267L36.5361 16.5625L36.7218 16.0983C36.6358 16.0638 36.5421 16.0386 36.4434 16.0275L36.3877 16.5244ZM36.5361 16.5625L36.4379 17.0528C36.4736 17.0599 36.5379 17.0965 36.5837 17.1715C36.6279 17.2437 36.6198 17.2908 36.6137 17.3059L37.0781 17.4912L37.5425 17.6766C37.6911 17.3043 37.6056 16.9258 37.4369 16.6499C37.27 16.3768 36.9859 16.1427 36.6343 16.0722L36.5361 16.5625ZM37.0781 17.4912L36.5938 17.367L32.0225 35.1912L32.5068 35.3154L32.9912 35.4396L37.5625 17.6154L37.0781 17.4912ZM32.5068 35.3154L32.0402 35.1359C31.7194 35.9699 31.0391 36.4434 30.2588 36.4434V36.9434V37.4434C31.4934 37.4434 32.5193 36.6759 32.9735 35.4949L32.5068 35.3154ZM30.2588 36.9434L30.2588 36.4434C29.467 36.4433 28.8295 35.967 28.6532 35.203L28.166 35.3154L27.6788 35.4279C27.9674 36.6786 29.0359 37.4432 30.2587 37.4434L30.2588 36.9434ZM28.166 35.3154L28.6505 35.192L25.4728 22.7155L24.9883 22.8389L24.5037 22.9623L27.6815 35.4388L28.166 35.3154ZM24.9883 22.8389L25.4785 22.7405C25.4057 22.3774 25.1804 22.1531 24.9711 22.0303C24.7812 21.919 24.579 21.8745 24.4492 21.874L24.4473 22.374L24.4453 22.874C24.4313 22.874 24.4217 22.8731 24.4179 22.8728C24.4134 22.8724 24.4109 22.872 24.4106 22.8719C24.4102 22.8718 24.4138 22.8724 24.4204 22.8743C24.4345 22.8782 24.451 22.8846 24.4652 22.893C24.4789 22.901 24.4854 22.9077 24.4882 22.9112C24.4895 22.9129 24.4943 22.9187 24.498 22.9372L24.9883 22.8389ZM24.4473 22.374V21.874C24.3323 21.874 23.8072 21.8766 23.4262 22.3845L23.8262 22.6846L24.2261 22.9846C24.2735 22.9215 24.3198 22.8985 24.3532 22.8874C24.3918 22.8744 24.424 22.874 24.4473 22.874V22.374ZM23.8262 22.6846L23.3671 22.4864L18.9501 32.7159L19.4092 32.9141L19.8682 33.1123L24.2852 22.8828L23.8262 22.6846ZM19.4092 32.9141L18.9092 32.9059C18.9096 32.8815 18.9114 32.8052 18.9578 32.7186C18.9847 32.6683 19.0315 32.6061 19.1076 32.5578C19.186 32.508 19.267 32.4912 19.332 32.4912V32.9912V33.4912C19.4343 33.4912 19.5436 33.4654 19.6434 33.4021C19.741 33.3402 19.8024 33.2597 19.8393 33.1908C19.9055 33.0671 19.9086 32.9522 19.9091 32.9222L19.4092 32.9141ZM19.332 32.9912L18.9081 32.7261C18.6114 33.2006 18.0585 33.5165 17.4936 33.5792L17.5488 34.0762L17.604 34.5731C18.4338 34.4809 19.2776 34.0214 19.756 33.2563L19.332 32.9912ZM17.5488 34.0762L17.5489 33.5762C16.9657 33.5761 16.3654 33.3097 16.0963 32.933L15.6895 33.2236L15.2826 33.5143C15.7883 34.2223 16.7373 34.576 17.5487 34.5762L17.5488 34.0762ZM15.6895 33.2236L16.1196 32.9688L13.6401 28.7842L13.21 29.0391L12.7798 29.2939L15.2593 33.4785L15.6895 33.2236ZM13.21 29.0391L13.5635 28.6855C13.4762 28.5982 13.3705 28.5326 13.2942 28.4888C13.2117 28.4414 13.1212 28.3961 13.0459 28.3584L12.8223 28.8057L12.5987 29.2529C12.6783 29.2927 12.7429 29.3254 12.7962 29.3559C12.8219 29.3708 12.8401 29.3823 12.8522 29.3908C12.8654 29.3999 12.8645 29.4007 12.8564 29.3926L13.21 29.0391ZM12.8223 28.8057V28.3057C12.7531 28.3057 12.6008 28.304 12.4506 28.338C12.3024 28.3714 12.0472 28.4644 11.9102 28.7383L12.3574 28.9619L12.8046 29.1855C12.7769 29.241 12.7367 29.2769 12.7057 29.2963C12.6789 29.313 12.6627 29.3152 12.671 29.3134C12.6782 29.3117 12.6946 29.3091 12.7235 29.3075C12.7523 29.3058 12.7828 29.3057 12.8223 29.3057V28.8057ZM12.3574 28.9619L12.0408 28.575L7.77906 32.0623L8.0957 32.4492L8.41235 32.8362L12.6741 29.3489L12.3574 28.9619ZM8.0957 32.4492L7.74215 32.0957C7.71004 32.1278 7.65262 32.1531 7.57081 32.1454C7.4836 32.1371 7.42816 32.0966 7.40976 32.0721L7.00977 32.3721L6.60977 32.6721C6.82386 32.9575 7.1564 33.1106 7.47654 33.1409C7.80208 33.1717 8.17138 33.0806 8.44926 32.8028L8.0957 32.4492ZM7.00977 32.3721L7.40977 32.0721C7.37213 32.0219 7.33949 31.9268 7.34436 31.8236C7.34928 31.7191 7.38601 31.6868 7.38691 31.6861L7.08691 31.2861L6.78691 30.8861C6.47783 31.1179 6.35974 31.4736 6.34547 31.7765C6.33113 32.0807 6.41491 32.4123 6.60977 32.6721L7.00977 32.3721ZM7.08691 31.2861L7.40351 31.6731L11.6662 28.1858L11.3496 27.7988L11.033 27.4118L6.77031 30.8991L7.08691 31.2861ZM11.3496 27.7988L11.6696 28.183C12.0145 27.8957 12.4905 27.7685 12.9917 27.8311L13.0537 27.335L13.1157 26.8388C12.3772 26.7465 11.6145 26.9274 11.0296 27.4147L11.3496 27.7988ZM13.0537 27.335L12.9917 27.8311C13.4907 27.8935 13.8931 28.1382 14.1104 28.464L14.5264 28.1865L14.9423 27.9091C14.5396 27.3052 13.8565 26.9314 13.1157 26.8388L13.0537 27.335ZM14.5264 28.1865L14.0963 28.4415L16.5777 32.6271L17.0078 32.3721L17.4379 32.1171L14.9565 27.9315L14.5264 28.1865ZM17.0078 32.3721L16.5609 32.5963C16.6745 32.8227 16.8743 32.946 17.0351 33.0102C17.2016 33.0766 17.3823 33.1034 17.5486 33.1035L17.5488 32.6035L17.549 32.1035C17.518 32.1035 17.4886 32.1009 17.4626 32.0964C17.4363 32.0918 17.4173 32.086 17.4056 32.0814C17.3935 32.0765 17.3951 32.0753 17.4046 32.0829C17.4147 32.091 17.4364 32.1114 17.4547 32.1478L17.0078 32.3721ZM17.5488 32.6035V33.1035C17.7229 33.1035 17.9102 33.0738 18.0925 32.972C18.2712 32.8723 18.4021 32.7274 18.5068 32.5703L18.0908 32.293L17.6748 32.0156C17.6245 32.091 17.6007 32.1013 17.6053 32.0988C17.6134 32.0942 17.6072 32.1035 17.5488 32.1035V32.6035ZM18.0908 32.293L18.5498 32.4913L22.9688 22.2628L22.5098 22.0645L22.0508 21.8662L17.6318 32.0947L18.0908 32.293ZM22.5098 22.0645C23.0098 22.0622 23.0098 22.0624 23.0098 22.0627C23.0098 22.0628 23.0098 22.063 23.0098 22.0632C23.0098 22.0635 23.0098 22.0638 23.0098 22.0642C23.0098 22.0648 23.0098 22.0655 23.0098 22.0661C23.0098 22.0674 23.0097 22.0688 23.0097 22.0701C23.0097 22.0727 23.0096 22.0754 23.0096 22.0781C23.0094 22.0834 23.0092 22.089 23.0088 22.0947C23.008 22.1059 23.0067 22.1187 23.0044 22.1328C23.0002 22.1585 22.9909 22.2005 22.9669 22.2487C22.9419 22.2989 22.8966 22.3641 22.8192 22.4156C22.7389 22.4691 22.6545 22.4873 22.5869 22.4873V21.9873V21.4873C22.4805 21.4873 22.3672 21.5152 22.2651 21.5831C22.166 21.6491 22.1062 21.7336 22.0717 21.8031C22.0381 21.8705 22.024 21.9318 22.0174 21.972C22.014 21.9933 22.0121 22.0121 22.011 22.0276C22.0105 22.0354 22.0102 22.0426 22.01 22.0491C22.0099 22.0524 22.0098 22.0555 22.0098 22.0584C22.0098 22.0599 22.0098 22.0613 22.0098 22.0627C22.0098 22.0634 22.0098 22.064 22.0098 22.0647C22.0098 22.0651 22.0098 22.0654 22.0098 22.0657C22.0098 22.0659 22.0098 22.0661 22.0098 22.0662C22.0098 22.0665 22.0098 22.0667 22.5098 22.0645ZM22.5869 21.9873L23.0157 22.2446C23.3754 21.6449 24.0376 21.3381 24.7116 21.3993L24.7568 20.9014L24.802 20.4034C23.7714 20.3098 22.7282 20.7799 22.1582 21.7301L22.5869 21.9873ZM24.7568 20.9014L24.6674 21.3933C25.388 21.5243 25.9658 21.9675 26.1338 22.5837L26.6162 22.4521L27.0986 22.3206C26.8017 21.2318 25.8306 20.5884 24.8463 20.4094L24.7568 20.9014ZM26.6162 22.4521L26.1317 22.5756L29.3094 35.0521L29.7939 34.9287L30.2785 34.8053L27.1007 22.3287L26.6162 22.4521ZM29.7939 34.9287L29.3297 35.1145C29.4598 35.4395 29.6903 35.6356 29.8953 35.7459C30.0851 35.848 30.2814 35.8922 30.4116 35.8926L30.4131 35.3926L30.4146 34.8926C30.4285 34.8926 30.4379 34.8934 30.4415 34.8938C30.4438 34.894 30.4454 34.8942 30.4463 34.8943C30.4473 34.8944 30.4478 34.8945 30.4479 34.8945C30.4479 34.8945 30.4467 34.8943 30.4442 34.8938C30.4417 34.8932 30.4384 34.8925 30.4344 34.8914C30.4171 34.8868 30.3935 34.8784 30.3691 34.8653C30.3228 34.8404 30.2828 34.8046 30.2581 34.7429L29.7939 34.9287ZM30.4131 35.3926V35.8926C30.467 35.8926 30.6743 35.8943 30.903 35.7894C31.1501 35.676 31.3855 35.4556 31.5085 35.087L31.0342 34.9287L30.5599 34.7705C30.5415 34.8255 30.522 34.8506 30.5129 34.8606C30.5036 34.8708 30.495 34.8764 30.4861 34.8804C30.4624 34.8913 30.4367 34.8926 30.4131 34.8926V35.3926ZM31.0342 34.9287L31.5185 35.0529L36.0908 17.2287L35.6064 17.1045L35.1221 16.9803L30.5499 34.8045L31.0342 34.9287ZM35.6064 17.1045L36.0967 17.2025C36.1028 17.1724 36.1302 17.1186 36.1917 17.0724C36.2528 17.0265 36.3066 17.0185 36.332 17.0213L36.3877 16.5244L36.4434 16.0275C36.1191 15.9912 35.8162 16.1037 35.591 16.2729C35.3663 16.4417 35.1779 16.6975 35.1162 17.0064L35.6064 17.1045ZM63.583 35.1611L63.5828 35.6611C63.7014 35.6612 63.7615 35.6986 63.7907 35.7278C63.82 35.7572 63.8574 35.8176 63.8574 35.9365H64.3574H64.8574C64.8574 35.5906 64.7401 35.2634 64.4983 35.0213C64.2566 34.7791 63.9294 34.6612 63.5832 34.6611L63.583 35.1611ZM64.3574 35.9365L63.8574 35.9365C63.8574 36.0202 63.8263 36.0782 63.7766 36.1217C63.7216 36.1699 63.6291 36.2109 63.5057 36.2109L63.5059 36.7109L63.506 37.2109C64.1821 37.2107 64.8573 36.738 64.8574 35.9366L64.3574 35.9365ZM63.5059 36.7109V36.2109H43.665V36.7109V37.2109H63.5059V36.7109ZM43.665 36.7109L43.6651 36.2109C43.546 36.2109 43.4856 36.1735 43.4563 36.1442C43.427 36.115 43.3897 36.055 43.3896 35.9365L42.8896 35.9365L42.3896 35.9366C42.3897 36.2829 42.5075 36.6101 42.7498 36.8519C42.9919 37.0936 43.3192 37.2109 43.665 37.2109L43.665 36.7109ZM42.8896 35.9365H43.3896C43.3896 35.8179 43.4271 35.7575 43.4565 35.728C43.486 35.6986 43.5464 35.6611 43.6651 35.6611L43.665 35.1611L43.665 34.6611C43.3187 34.6611 42.9914 34.7789 42.7494 35.0209C42.5074 35.2629 42.3896 35.5902 42.3896 35.9365H42.8896ZM43.665 35.1611V35.6611H63.583V35.1611V34.6611H43.665V35.1611ZM63.583 27.4121L63.5828 27.9121C63.7017 27.9121 63.7618 27.9496 63.7909 27.9787C63.82 28.0077 63.8574 28.0678 63.8574 28.1866L64.3574 28.1865L64.8574 28.1864C64.8574 27.8405 64.7399 27.5134 64.498 27.2715C64.2561 27.0296 63.929 26.9122 63.5832 26.9121L63.583 27.4121ZM64.3574 28.1865H63.8574C63.8574 28.2704 63.8263 28.3287 63.7763 28.3725C63.7212 28.4208 63.6287 28.4619 63.5057 28.4619L63.5059 28.9619L63.506 29.4619C64.183 29.4617 64.8574 28.9873 64.8574 28.1865H64.3574ZM63.5059 28.9619V28.4619H43.665V28.9619V29.4619H63.5059V28.9619ZM43.665 28.9619L43.6651 28.4619C43.5464 28.4619 43.486 28.4245 43.4565 28.395C43.4271 28.3656 43.3896 28.3052 43.3896 28.1865H42.8896H42.3896C42.3896 28.5328 42.5074 28.8601 42.7494 29.1021C42.9914 29.3441 43.3187 29.4619 43.665 29.4619L43.665 28.9619ZM42.8896 28.1865L43.3896 28.1866C43.3897 28.0681 43.4271 28.0081 43.4563 27.9789C43.4856 27.9496 43.546 27.9121 43.6651 27.9121L43.665 27.4121L43.665 26.9121C43.3192 26.9121 42.9919 27.0294 42.7498 27.2712C42.5076 27.513 42.3897 27.8401 42.3896 28.1864L42.8896 28.1865ZM43.665 27.4121V27.9121H63.583V27.4121V26.9121H43.665V27.4121ZM63.583 19.6621L63.5828 20.1621C63.7014 20.1621 63.7615 20.1995 63.7907 20.2288C63.82 20.2581 63.8574 20.3185 63.8574 20.4375H64.3574H64.8574C64.8574 20.0916 64.7401 19.7644 64.4983 19.5223C64.2566 19.2801 63.9294 19.1622 63.5832 19.1621L63.583 19.6621ZM64.3574 20.4375L63.8574 20.4372C63.8574 20.521 63.8263 20.579 63.7764 20.6227C63.7214 20.6709 63.6289 20.7119 63.5057 20.7119L63.5059 21.2119L63.506 21.7119C64.1823 21.7117 64.857 21.2386 64.8574 20.4378L64.3574 20.4375ZM63.5059 21.2119V20.7119H43.665V21.2119V21.7119H63.5059V21.2119ZM43.665 21.2119L43.6651 20.7119C43.5462 20.7119 43.4858 20.6745 43.4564 20.6451C43.4271 20.6159 43.3897 20.5558 43.3896 20.4373L42.8896 20.4375L42.3896 20.4377C42.3898 20.7839 42.5077 21.111 42.7498 21.3528C42.9919 21.5945 43.3191 21.7119 43.665 21.7119L43.665 21.2119ZM42.8896 20.4375H43.3896C43.3896 20.3188 43.4271 20.2585 43.4565 20.229C43.486 20.1996 43.5464 20.1621 43.6651 20.1621L43.665 19.6621L43.665 19.1621C43.3187 19.1621 42.9914 19.2799 42.7494 19.5219C42.5074 19.7639 42.3896 20.0912 42.3896 20.4375H42.8896ZM43.665 19.6621V20.1621H63.583V19.6621V19.1621H43.665V19.6621Z" fill="#F7C948"/>
</svg>
