<svg width="322" height="322" viewBox="0 0 322 322" fill="none" xmlns="http://www.w3.org/2000/svg">
<path d="M300.593 242.46L160.809 322L20.3359 241.877V79.2315L157.948 0H163.637L301.214 80.0543L301.662 238.209L300.559 242.46H300.593ZM293.215 84.3056L160.775 8.60541L28.163 84.717L28.3354 236.769L160.775 312.469L293.387 236.357L293.215 84.3056Z" fill="url(#paint0_linear_806_4466)"/>
<path d="M163.544 42.4376V87.1109L220.047 118.769L257.738 98.4656C258.009 96.4997 257.738 97.1776 256.619 96.7709C253.297 95.5507 243.536 94.0593 241.536 92.3646C237.977 89.314 240.655 84.3993 244.959 84.8399C248.45 85.1789 265.703 89.958 269.33 91.3816C271.194 92.0934 273.126 93.1102 273.668 95.2117C274.007 96.4658 268.347 117.989 267.296 120.633C265.974 124.09 264.245 125.649 260.381 123.954C256.246 122.124 261.703 110.329 262.313 106.702C262.517 105.516 263.33 104.736 261.432 105.007L226.215 125.446L225.47 192.218L263.872 215.47C265.127 210.861 257.297 199.031 262.652 196.387C265.737 194.862 268.042 196.896 269.194 199.607C272.143 206.386 272.855 216.826 275.668 224.012C275.566 226.452 274.922 227.469 272.855 228.52C270.55 229.706 250.077 235.366 247.366 235.604C244.349 235.875 241.739 234.417 241.705 231.163C241.638 225.978 254.416 225.571 258.348 223.774C259.432 223.266 259.636 223.707 259.365 221.978L221.606 200.862L163.544 234.553V278.006C168.73 276.921 175.204 262.753 181.068 267.363C183.711 269.431 181.712 272.718 180.186 274.752C177.814 277.938 166.73 288.988 163.544 291.394C158.324 295.326 156.46 291.903 152.427 288.242C149.139 285.259 142.021 278.481 139.445 275.261C137.072 272.312 136.293 268.143 140.767 266.956C144.902 265.838 151.071 277.226 155.409 278.006V233.333L98.1611 200.862L59.5889 223.198C63.1818 224.825 76.1296 226.079 77.282 229.842C78.3327 233.265 76.8413 235.807 73.1807 235.604C70.0285 235.434 49.9967 229.977 46.9462 228.52C44.9803 227.571 44.2007 227.3 44.0651 224.825C43.9295 222.181 49.0815 203.404 50.3695 200.218C51.4881 197.404 53.1489 195.133 56.5384 196.15C62.6055 197.947 54.3691 211.471 55.8944 215.504L92.3651 194.32L93.7209 191.608L93.5514 127.547L55.9283 105.075C54.403 109.041 62.6394 122.7 56.5723 124.429C55.2843 124.802 53.115 124.531 51.9965 123.819C50.7424 123.005 43.794 97.2115 44.1329 94.9744C44.5735 92.0595 48.2681 91.6528 50.6407 90.8732C55.9283 89.1446 67.283 85.6195 72.3672 84.9077C75.9262 84.4332 77.926 86.3652 77.4514 89.9919C76.8074 94.7711 63.2834 95.2117 59.555 97.3471L98.1272 119.65L155.375 87.1787V42.5054C151.071 43.3867 145.546 53.2839 141.784 53.7585C136.733 54.4363 136.157 47.7252 139.513 44.9119C143.546 42.4376 155.375 27.1172 159.036 27.1172C160.595 27.1172 161.578 28.2357 162.697 29.0831C164.798 30.6761 181.678 47.454 182.051 48.7759C182.491 50.4368 181.746 52.2671 180.559 53.4873C174.695 56.9785 168.696 43.6917 163.51 42.5054L163.544 42.4376ZM212.285 123.649L159.917 94.466L107.516 124.056L160.053 155.138L210.929 125.954L212.285 123.649ZM155.409 223.537V163.035C148.224 158.222 140.665 153.85 133.208 149.511C123.175 143.647 113.007 137.817 102.601 132.598V193.1L155.375 223.571L155.409 223.537ZM217.132 132.564C208.624 136.699 200.422 141.546 192.219 146.223C182.83 151.613 173.374 157.036 164.324 163.001V223.503L217.098 193.032V132.53L217.132 132.564Z" fill="url(#paint1_linear_806_4466)"/>
<defs>
<linearGradient id="paint0_linear_806_4466" x1="160.999" y1="0" x2="160.999" y2="322" gradientUnits="userSpaceOnUse">
<stop stop-color="#0BE6E6"/>
<stop offset="1" stop-color="#0B9292" stop-opacity="0.45"/>
</linearGradient>
<linearGradient id="paint1_linear_806_4466" x1="159.865" y1="27.1172" x2="159.865" y2="293.143" gradientUnits="userSpaceOnUse">
<stop stop-color="#0BE6E6"/>
<stop offset="1" stop-color="#0B9292" stop-opacity="0.45"/>
</linearGradient>
</defs>
</svg>
