<svg width="33" height="32" viewBox="0 0 33 32" fill="none" xmlns="http://www.w3.org/2000/svg">
<path d="M8.4974 26.7828H11.9778C12.4316 26.7828 12.8826 26.8368 13.3225 26.9448L16.9999 27.8384C17.7979 28.0328 18.6291 28.0517 19.4354 27.8951L23.5014 27.1041C24.5755 26.8948 25.5635 26.3805 26.3378 25.6273L29.2146 22.8289C30.0361 22.0311 30.0361 20.7365 29.2146 19.9373C28.4749 19.2178 27.3037 19.1368 26.4669 19.747L23.1142 22.1931C22.634 22.544 22.0498 22.733 21.4489 22.733H18.2114L20.2722 22.7329C21.4337 22.7329 22.3745 21.8177 22.3745 20.6878V20.2788C22.3745 19.3406 21.7181 18.5225 20.7828 18.2957L17.6022 17.5222C17.0846 17.3967 16.5545 17.3333 16.0216 17.3333C14.7352 17.3333 12.4066 18.3983 12.4066 18.3983L8.4974 20.0331M3.16406 19.4666L3.16406 27.1999C3.16406 27.9467 3.16406 28.32 3.30939 28.6052C3.43722 28.8561 3.64119 29.0601 3.89207 29.1879C4.17729 29.3333 4.55066 29.3333 5.2974 29.3333H6.36406C7.1108 29.3333 7.48417 29.3333 7.76938 29.1879C8.02027 29.0601 8.22424 28.8561 8.35207 28.6052C8.4974 28.32 8.4974 27.9467 8.4974 27.1999V19.4666C8.4974 18.7198 8.4974 18.3465 8.35207 18.0613C8.22424 17.8104 8.02027 17.6064 7.76938 17.4786C7.48417 17.3333 7.1108 17.3333 6.36406 17.3333L5.2974 17.3333C4.55066 17.3333 4.17729 17.3333 3.89208 17.4786C3.64119 17.6064 3.43722 17.8104 3.30939 18.0613C3.16406 18.3465 3.16406 18.7198 3.16406 19.4666Z" stroke="url(#paint0_linear_979_120)" stroke-width="2" stroke-linecap="round" stroke-linejoin="round"/>
<g clip-path="url(#clip0_979_120)">
<path fill-rule="evenodd" clip-rule="evenodd" d="M22.2056 0.767684C22.4003 0.716436 22.605 0.716436 22.7996 0.767684C23.0255 0.827144 23.2172 0.972225 23.3701 1.08794C23.3846 1.09895 23.3988 1.1097 23.4126 1.12008L23.7667 1.3856C23.8112 1.41869 23.8563 1.45264 23.9022 1.48717C23.9249 1.5042 23.9477 1.52136 23.9707 1.53864C23.9714 1.53912 23.972 1.5396 23.9726 1.54008L27.5193 4.20008C27.5193 4.20005 27.5193 4.20011 27.5193 4.20008L28.686 5.07508C28.9437 5.26838 28.9959 5.63402 28.8026 5.89175C28.6093 6.14948 28.2437 6.20171 27.986 6.00841L27.7526 5.83342V10.4059C27.7527 10.7134 27.7527 10.9787 27.7348 11.1972C27.716 11.4278 27.6744 11.6572 27.5619 11.8779C27.3941 12.2072 27.1264 12.4749 26.7971 12.6427C26.5764 12.7551 26.347 12.7967 26.1164 12.8156C25.8979 12.8334 25.6326 12.8334 25.3251 12.8334H19.6801C19.3726 12.8334 19.1074 12.8334 18.8889 12.8156C18.6583 12.7967 18.4289 12.7551 18.2082 12.6427C17.8789 12.4749 17.6112 12.2072 17.4434 11.8779C17.3309 11.6572 17.2893 11.4278 17.2705 11.1972C17.2526 10.9787 17.2526 10.7134 17.2526 10.4059L17.2526 5.83341L17.0193 6.00841C16.7616 6.20171 16.3959 6.14948 16.2026 5.89175C16.0093 5.63402 16.0616 5.26838 16.3193 5.07508L21.0326 1.54008C21.0336 1.53935 21.0346 1.53862 21.0356 1.53789C21.0583 1.52087 21.0807 1.50395 21.103 1.48717C21.1489 1.45264 21.194 1.4187 21.2386 1.38562L21.5926 1.12008C21.6065 1.1097 21.6207 1.09895 21.6352 1.08794C21.7881 0.972225 21.9798 0.827144 22.2056 0.767684ZM18.4193 4.95841V10.3834C18.4193 10.7197 18.4198 10.9369 18.4333 11.1022C18.4462 11.2606 18.4682 11.3194 18.4829 11.3482C18.5388 11.458 18.6281 11.5472 18.7378 11.6032C18.7667 11.6179 18.8254 11.6398 18.9839 11.6528C19.1492 11.6663 19.3663 11.6667 19.7026 11.6667H20.1693L20.1693 7.91481C20.1693 7.76758 20.1693 7.62421 20.1792 7.50278C20.1901 7.36943 20.2158 7.21209 20.2965 7.05376C20.4083 6.83424 20.5868 6.65576 20.8063 6.54391C20.9646 6.46323 21.122 6.43753 21.2553 6.42663C21.3768 6.41671 21.5202 6.41673 21.6674 6.41675H23.3379C23.4851 6.41673 23.6285 6.41671 23.7499 6.42663C23.8833 6.43753 24.0406 6.46323 24.199 6.54391C24.4185 6.65576 24.597 6.83424 24.7088 7.05376C24.7895 7.21209 24.8152 7.36943 24.8261 7.50278C24.836 7.62421 24.836 7.76759 24.836 7.91482L24.836 11.6667H25.3026C25.639 11.6667 25.8561 11.6663 26.0214 11.6528C26.1799 11.6398 26.2386 11.6179 26.2675 11.6032C26.3772 11.5472 26.4665 11.458 26.5224 11.3482C26.5371 11.3194 26.5591 11.2606 26.572 11.1022C26.5855 10.9369 26.586 10.7197 26.586 10.3834V4.95842L23.2726 2.47341C22.8295 2.14104 22.7346 2.08293 22.6511 2.06097C22.5538 2.03534 22.4515 2.03534 22.3541 2.06097C22.2707 2.08293 22.1758 2.14104 21.7326 2.47341L18.4193 4.95841ZM23.6693 11.6667V7.93341C23.6693 7.76044 23.6689 7.66579 23.6633 7.59778C23.6631 7.59508 23.6629 7.59251 23.6626 7.59009C23.6602 7.58987 23.6576 7.58965 23.6549 7.58943C23.5869 7.58387 23.4923 7.58341 23.3193 7.58341H21.686C21.513 7.58341 21.4184 7.58387 21.3503 7.58943C21.3476 7.58965 21.3451 7.58987 21.3427 7.59009C21.3424 7.59251 21.3422 7.59508 21.342 7.59778C21.3364 7.66579 21.336 7.76044 21.336 7.93341V11.6667H23.6693Z" fill="url(#paint1_linear_979_120)"/>
</g>
<defs>
<linearGradient id="paint0_linear_979_120" x1="16.4974" y1="17.3333" x2="16.4974" y2="29.3333" gradientUnits="userSpaceOnUse">
<stop stop-color="#05A6A6"/>
<stop offset="1" stop-color="#0D5B6A"/>
</linearGradient>
<linearGradient id="paint1_linear_979_120" x1="17.2386" y1="-1.71282" x2="30.7364" y2="3.32285" gradientUnits="userSpaceOnUse">
<stop stop-color="#113B50"/>
<stop offset="0.58" stop-color="#0A767F"/>
<stop offset="1" stop-color="#05A6A6"/>
</linearGradient>
<clipPath id="clip0_979_120">
<rect width="14.6667" height="14.6667" fill="white" transform="translate(15.1641)"/>
</clipPath>
</defs>
</svg>
