<svg width="69" height="72" viewBox="0 0 69 72" fill="none" xmlns="http://www.w3.org/2000/svg">
<path d="M53.2061 34.2471C54.7075 34.2471 55.9841 35.3673 56.1768 36.8545L56.416 38.6592C57.9744 39.244 59.4187 40.0785 60.7168 41.1377L62.5859 40.3643C63.9697 39.7937 65.5745 40.3318 66.3271 41.6299L68.5742 45.5176C69.3268 46.8158 68.9916 48.4851 67.7969 49.3945L66.2021 50.6143C66.3377 51.438 66.4092 52.2618 66.4092 53.0713C66.4092 53.8808 66.3377 54.7048 66.2021 55.5322L67.7969 56.749L67.7861 56.7588C68.9809 57.6647 69.3123 59.334 68.5635 60.6357L66.3242 64.5195C65.5752 65.8176 63.9628 66.3641 62.5791 65.79L60.7168 65.0117C59.415 66.0781 57.9674 66.9096 56.4053 67.498L56.1738 69.2959C55.9812 70.7865 54.7005 71.91 53.1992 71.9102H48.7803C47.2788 71.9102 46.0022 70.79 45.8096 69.3027L45.5742 67.498C44.0121 66.9095 42.5674 66.0784 41.2656 65.0156L39.4004 65.79C38.0201 66.3714 36.4078 65.8217 35.6553 64.5234L33.415 60.6396C32.6626 59.3343 32.9977 57.6682 34.1924 56.7588L35.791 55.543C35.6555 54.7227 35.584 53.8952 35.584 53.082C35.584 52.2761 35.6555 51.4488 35.791 50.625L34.1924 49.4014C32.9979 48.4954 32.6662 46.8261 33.415 45.5244L35.6582 41.6377C36.4108 40.3396 38.0232 39.7968 39.4033 40.3672L41.2725 41.1416C42.5741 40.0824 44.0222 39.248 45.5771 38.6631L45.8125 36.8584C46.0086 35.3713 47.2854 34.2472 48.7832 34.2471H53.2061ZM27.8906 0C41.5002 2.79028e-05 55.2812 3.52725 55.2812 10.2715V29.1211C55.2812 30.0662 54.5145 30.833 53.5693 30.833C52.6243 30.8329 51.8574 30.0662 51.8574 29.1211V15.5078C46.9216 18.8317 37.3705 20.5439 27.8906 20.5439C18.4108 20.5439 8.85995 18.8316 3.92383 15.5078V27.3916C3.92383 30.1806 13.2538 34.2393 27.8906 34.2393C30.3193 34.2393 32.7339 34.1186 35.0449 33.8975C36.0363 33.8119 36.8241 34.514 36.9277 35.4375C37.0133 36.379 36.329 37.2177 35.3877 37.3213C32.9554 37.5424 30.4368 37.6631 27.8867 37.6631C18.407 37.6631 8.856 35.9518 3.91992 32.6279V44.5117C3.92051 47.3007 13.2505 51.3593 27.8867 51.3594C28.7426 51.3594 29.5665 51.3452 30.3867 51.3096C31.3603 51.2418 32.1312 52.0117 32.167 52.9531C32.2026 53.8947 31.464 54.7013 30.5225 54.7334C29.6665 54.7655 28.7783 54.7832 27.8867 54.7832C18.4068 54.7832 8.85592 53.071 3.91992 49.7471V61.6309C3.91992 64.4234 13.2573 68.4785 27.8867 68.4785C29.9623 68.4785 31.9775 68.3935 33.8818 68.2295L33.8857 68.2275C34.8236 68.1348 35.658 68.8409 35.7402 69.7822C35.8223 70.7237 35.1269 71.5546 34.1855 71.6367C32.1848 71.8115 30.0661 71.9014 27.8906 71.9014C14.2812 71.9014 0.50051 68.3739 0.5 61.6299V10.2715C0.500047 3.52722 14.281 0 27.8906 0ZM48.9473 39.3613C48.8081 40.4705 48.0489 41.4051 46.9648 41.7939C45.6346 42.2718 44.4035 42.9822 43.3086 43.9023C42.4349 44.6367 41.2512 44.8288 40.2207 44.3975L38.4512 43.667L36.582 46.9014L38.0947 48.0566C38.9863 48.7378 39.4141 49.8613 39.2109 50.9883C39.0825 51.6944 39.0186 52.3937 39.0186 53.0713C39.0186 53.756 39.0826 54.455 39.2109 55.1504C39.4141 56.2844 38.9828 57.4115 38.0879 58.0928L36.5791 59.2451L38.4443 62.4766L40.21 61.7451C41.2406 61.3102 42.4245 61.503 43.3018 62.2412C44.3966 63.1613 45.6272 63.8707 46.9609 64.3486C48.0451 64.7374 48.8045 65.6718 48.9473 66.7881L49.165 68.4824H52.8311L53.0488 66.7881C53.1952 65.6683 53.9585 64.7338 55.0391 64.3486C56.3729 63.8672 57.6072 63.1575 58.7021 62.2373C59.5688 61.5027 60.7532 61.3097 61.791 61.7412L63.5557 62.4766L65.4209 59.2451L63.9131 58.0928C63.0143 57.408 62.5861 56.281 62.793 55.1504C62.9213 54.4515 62.9854 53.7488 62.9854 53.0713C62.9853 52.3901 62.9213 51.6912 62.793 50.9922L62.7969 50.9961C62.5972 49.8655 63.0244 48.7379 63.916 48.0566L65.4287 46.9014L63.5596 43.667L61.791 44.3975C60.7568 44.8218 59.5759 44.6369 58.7021 43.9023C57.6072 42.9822 56.3801 42.2758 55.0498 41.7979C53.9728 41.4091 53.2127 40.4818 53.0664 39.3691L52.8418 37.6641H49.1689L48.9473 39.3613ZM7.44434 58.3105C7.76883 57.4225 8.7532 56.9622 9.6377 57.2832L9.62988 57.2871C12.2728 58.243 15.6933 58.9914 19.5273 59.4551C20.4652 59.5657 21.1319 60.4215 21.0215 61.3594C20.918 62.2259 20.1801 62.8641 19.3242 62.8643C19.2565 62.8643 19.1885 62.8606 19.1172 62.8535C15.0337 62.3577 11.3489 61.5453 8.4707 60.5039C7.5829 60.1793 7.1235 59.1985 7.44434 58.3105ZM50.998 45.3682C55.2457 45.3682 58.7021 48.8246 58.7021 53.0723C58.7021 57.3199 55.2457 60.7754 50.998 60.7754C46.7504 60.7754 43.294 57.3199 43.2939 53.0723C43.2939 48.8246 46.7504 45.3682 50.998 45.3682ZM50.998 48.792C48.637 48.792 46.7178 50.7113 46.7178 53.0723C46.7178 55.4332 48.6371 57.3516 50.998 57.3516C53.359 57.3516 55.2782 55.4332 55.2783 53.0723C55.2783 50.7113 53.3591 48.792 50.998 48.792ZM7.44434 41.1914C7.7689 40.3035 8.75326 39.8395 9.6377 40.1641L9.62988 40.168C12.2728 41.1238 15.6933 41.8723 19.5273 42.3359C20.4653 42.4465 21.132 43.3033 21.0215 44.2412C20.9179 45.1076 20.18 45.746 19.3242 45.7461C19.2565 45.7461 19.1885 45.7425 19.1172 45.7354C15.0337 45.2396 11.3489 44.4262 8.4707 43.3848C7.58293 43.0601 7.12341 42.0793 7.44434 41.1914ZM7.44824 24.0723C7.76917 23.1806 8.75353 22.7275 9.6416 23.0449V23.0488C12.2737 24.0046 15.6977 24.7535 19.5352 25.2207C20.4731 25.3313 21.1434 26.1871 21.0293 27.125C20.9222 27.9915 20.1878 28.6297 19.332 28.6299C19.2643 28.6299 19.1963 28.6224 19.125 28.6152C15.0309 28.1195 11.3501 27.307 8.47559 26.2656C7.58759 25.9412 7.12742 24.9603 7.44824 24.0723ZM27.8867 3.4248C13.2579 3.42484 3.92059 7.48345 3.91992 10.2725C3.91992 13.0615 13.25 17.1201 27.8867 17.1201C42.5235 17.1201 51.8535 13.0651 51.8535 10.2725C51.8528 7.47987 42.5157 3.4248 27.8867 3.4248Z" fill="#F7C948"/>
</svg>
