<svg width="32" height="33" viewBox="0 0 32 33" fill="none" xmlns="http://www.w3.org/2000/svg">
<path d="M8.0013 27.2816H11.4817C11.9355 27.2816 12.3865 27.3356 12.8264 27.4436L16.5038 28.3372C17.3018 28.5316 18.133 28.5505 18.9393 28.3939L23.0053 27.6028C24.0794 27.3936 25.0674 26.8793 25.8418 26.126L28.7185 23.3276C29.54 22.5298 29.54 21.2353 28.7185 20.4361C27.9788 19.7166 26.8076 19.6356 25.9708 20.2458L22.6181 22.6918C22.1379 23.0428 21.5537 23.2318 20.9528 23.2318H17.7153L19.7761 23.2317C20.9376 23.2317 21.8784 22.3165 21.8784 21.1866V20.7776C21.8784 19.8394 21.2221 19.0213 20.2867 18.7945L17.1061 18.021C16.5885 17.8955 16.0584 17.832 15.5255 17.832C14.2391 17.832 11.9105 18.8971 11.9105 18.8971L8.0013 20.5319M2.66797 19.9654L2.66797 27.6987C2.66797 28.4454 2.66797 28.8188 2.81329 29.104C2.94112 29.3549 3.1451 29.5589 3.39598 29.6867C3.6812 29.832 4.05456 29.832 4.8013 29.832H5.86797C6.61471 29.832 6.98807 29.832 7.27329 29.6867C7.52417 29.5589 7.72815 29.3549 7.85598 29.104C8.0013 28.8188 8.0013 28.4454 8.0013 27.6987V19.9654C8.0013 19.2186 8.0013 18.8453 7.85598 18.56C7.72815 18.3092 7.52417 18.1052 7.27329 17.9774C6.98807 17.832 6.61471 17.832 5.86797 17.832L4.8013 17.832C4.05457 17.832 3.6812 17.832 3.39598 17.9774C3.1451 18.1052 2.94112 18.3092 2.81329 18.56C2.66797 18.8453 2.66797 19.2186 2.66797 19.9654Z" stroke="white" stroke-width="1.5" stroke-linecap="round" stroke-linejoin="round"/>
<path fill-rule="evenodd" clip-rule="evenodd" d="M22.5 2.68182C19.5628 2.68182 17.1818 5.06285 17.1818 8C17.1818 10.9372 19.5628 13.3182 22.5 13.3182C25.4372 13.3182 27.8182 10.9372 27.8182 8C27.8182 5.06285 25.4372 2.68182 22.5 2.68182ZM16 8C16 4.41015 18.9101 1.5 22.5 1.5C26.0899 1.5 29 4.41015 29 8C29 11.5899 26.0899 14.5 22.5 14.5C18.9101 14.5 16 11.5899 16 8ZM22.5 3.56818C22.8264 3.56818 23.0909 3.83274 23.0909 4.15909V4.45455H23.1894C24.2772 4.45455 25.1591 5.33641 25.1591 6.42424C25.1591 6.75059 24.8945 7.01515 24.5682 7.01515C24.2418 7.01515 23.9773 6.75059 23.9773 6.42424C23.9773 5.98911 23.6245 5.63636 23.1894 5.63636H21.9091C21.4196 5.63636 21.0227 6.0332 21.0227 6.52273C21.0227 7.01225 21.4196 7.40909 21.9091 7.40909H23.0909C24.2331 7.40909 25.1591 8.33505 25.1591 9.47727C25.1591 10.6195 24.2331 11.5455 23.0909 11.5455V11.8409C23.0909 12.1673 22.8264 12.4318 22.5 12.4318C22.1736 12.4318 21.9091 12.1673 21.9091 11.8409V11.5455H21.8106C20.7228 11.5455 19.8409 10.6636 19.8409 9.57576C19.8409 9.24941 20.1055 8.98485 20.4318 8.98485C20.7582 8.98485 21.0227 9.24941 21.0227 9.57576C21.0227 10.0109 21.3755 10.3636 21.8106 10.3636H23.0909C23.5804 10.3636 23.9773 9.9668 23.9773 9.47727C23.9773 8.98775 23.5804 8.59091 23.0909 8.59091H21.9091C20.7669 8.59091 19.8409 7.66495 19.8409 6.52273C19.8409 5.3805 20.7669 4.45455 21.9091 4.45455V4.15909C21.9091 3.83274 22.1736 3.56818 22.5 3.56818Z" fill="white"/>
</svg>
