<svg width="50" height="66" viewBox="0 0 50 66" fill="none" xmlns="http://www.w3.org/2000/svg">
<path fill-rule="evenodd" clip-rule="evenodd" d="M21.6907 29.255C20.761 29.453 19.8589 29.7363 18.9928 30.0938C18.0907 30.4651 17.2355 30.9162 16.4328 31.4388C16.1073 31.6506 15.6852 31.5956 15.4204 31.3343L15.4177 31.337L12.7915 28.7186L9.0977 32.4014L11.7239 35.0198C12.0163 35.3114 12.0384 35.7652 11.7929 36.0842C11.2853 36.8681 10.8439 37.7042 10.4798 38.5816C10.1129 39.4617 9.82598 40.3804 9.62739 41.3265C9.54739 41.706 9.21084 41.97 8.83567 41.97V41.9728L5.12539 41.9673V47.1738H8.83842C9.24945 47.1738 9.58876 47.4763 9.64116 47.8724C9.83977 48.7993 10.1239 49.7014 10.4825 50.5622C10.8549 51.4616 11.3074 52.3143 11.8315 53.1119C12.0439 53.4364 11.9887 53.8572 11.7267 54.1213L11.7294 54.124L9.10322 56.7424L12.797 60.4252L15.4232 57.8068C15.7156 57.5153 16.1708 57.4933 16.4907 57.7381C17.2769 58.2441 18.1155 58.6842 18.9955 59.05C19.8783 59.4158 20.7997 59.7018 21.7486 59.8999C22.1293 59.9796 22.3941 60.3152 22.3941 60.6892H22.3968V64.3912H27.6188V60.6892C27.6188 60.2794 27.9222 59.9439 28.3195 59.8889C29.2491 59.6908 30.154 59.4076 31.0174 59.05C31.9194 58.6787 32.7746 58.2276 33.5746 57.705C33.9001 57.4932 34.3221 57.5483 34.587 57.8123L34.5897 57.8095L37.2159 60.4279L40.9097 56.7452L38.2835 54.1267C37.9911 53.8352 37.969 53.3814 38.2145 53.0624C38.7221 52.2785 39.1635 51.4424 39.5304 50.565C39.8973 49.6849 40.1841 48.7662 40.3827 47.8201C40.4627 47.4406 40.7993 47.1765 41.1745 47.1765V47.1738H44.8875V41.9673H41.1745C40.7634 41.9673 40.4241 41.6648 40.3717 41.2687C40.1703 40.3418 39.889 39.4397 39.5304 38.5788C39.158 37.6795 38.7055 36.8268 38.1814 36.0292C37.969 35.7047 38.0242 35.2838 38.289 35.0198L38.2862 35.0171L40.9124 32.3986L37.2187 28.7158L34.5925 31.3343C34.3 31.6258 33.8449 31.6478 33.5249 31.403C32.7387 30.8969 31.9001 30.4568 31.0201 30.0911C30.1374 29.7253 29.216 29.4392 28.2671 29.2412C27.8864 29.1615 27.6216 28.8259 27.6216 28.4518H27.6188V24.7498H22.3968V28.4518C22.3913 28.8617 22.0851 29.2 21.6907 29.255ZM39.6873 25.8197C39.6873 26.2653 39.326 26.6283 38.8763 26.6283C38.4295 26.6283 38.0653 26.268 38.0653 25.8197V22.2855H35.4336C34.9868 22.2855 34.6226 21.9252 34.6226 21.4769C34.6226 21.3036 34.6778 21.1413 34.7716 21.0093L41.6129 9.19663C41.8363 8.81157 42.3273 8.67681 42.7136 8.89959C42.8432 8.97385 42.948 9.08111 43.0142 9.20488L46.4487 15.1347H46.4514L49.8914 21.0756C50.1148 21.4607 49.9824 21.953 49.5962 22.1785C49.4693 22.2528 49.3286 22.2858 49.1907 22.2858V22.2885L47.0031 22.2858V32.1242C47.0031 32.5697 46.6417 32.9327 46.1921 32.9327C45.7452 32.9327 45.3811 32.5724 45.3811 32.1242V21.4774C45.3811 21.0319 45.7425 20.6689 46.1921 20.6689H47.7893L45.0501 15.941H45.0528L42.3108 11.2075L36.8323 20.6692H38.8764C39.3233 20.6692 39.6874 21.0295 39.6874 21.4778L39.6901 25.8207L39.6873 25.8197ZM5.06469 31.3563C5.06469 31.8018 4.70332 32.1649 4.2537 32.1649C3.80681 32.1649 3.4427 31.8046 3.4427 31.3563V22.2853H0.810994C0.364107 22.2853 0 21.925 0 21.4768C0 21.309 0.0496545 21.1522 0.137927 21.0229L3.55026 15.1316C3.55854 15.1178 3.56681 15.1041 3.57509 15.0903L6.99018 9.19623C7.21363 8.81118 7.70464 8.67641 8.09086 8.89919C8.22051 8.97345 8.32533 9.08071 8.3943 9.20448L11.8287 15.1343H11.8315L15.2714 21.0752C15.4949 21.4603 15.3625 21.9526 14.9763 22.1781C14.8494 22.2524 14.7087 22.2854 14.5708 22.2854V22.2881H12.3804V25.3795C12.3804 25.8251 12.0191 26.1881 11.5694 26.1881C11.1226 26.1881 10.7584 25.8278 10.7584 25.3795V21.4795C10.7584 21.0339 11.1198 20.6709 11.5694 20.6709H13.1666L10.4274 15.943H10.4301L7.68812 11.2095L4.97365 15.899C4.96537 15.9155 4.9571 15.9292 4.94882 15.943L2.21231 20.6709H4.25364C4.70053 20.6709 5.06464 21.0312 5.06464 21.4795L5.0674 31.3559L5.06469 31.3563ZM22.3778 21.5291C22.3778 21.9747 22.0164 22.3377 21.5668 22.3377C21.1199 22.3377 20.7558 21.9774 20.7558 21.5291V13.4925H18.1241C17.6772 13.4925 17.3131 13.1322 17.3131 12.6839C17.3131 12.5162 17.3627 12.3594 17.451 12.2301L20.8633 6.33878C20.8716 6.32503 20.8799 6.31128 20.8882 6.29752L24.3033 0.403426C24.5267 0.0183674 25.0177 -0.113651 25.4039 0.10638C25.5308 0.180642 25.6329 0.282405 25.6991 0.400673H25.7019L29.1418 6.34152C29.1501 6.35527 29.1584 6.37178 29.1666 6.38553L32.5817 12.2851C32.8052 12.6702 32.67 13.1625 32.2838 13.3825C32.1569 13.454 32.019 13.4898 31.8811 13.4898L31.8838 13.4925H29.6935V21.5291C29.6935 21.9747 29.3321 22.3377 28.8825 22.3377C28.4356 22.3377 28.0715 21.9774 28.0715 21.5291V12.6842C28.0715 12.2387 28.4329 11.8756 28.8825 11.8756H30.4824L27.768 7.18901C27.7597 7.17526 27.7514 7.16151 27.7431 7.14776L25.0011 2.4143L22.2867 7.10375C22.2784 7.1175 22.2701 7.134 22.2618 7.14776L19.5226 11.8757H21.5639C22.0108 11.8757 22.3749 12.236 22.3749 12.6842L22.3778 21.5291ZM18.4275 45.3777C17.9806 45.3777 17.6165 45.0174 17.6165 44.5691C17.6165 44.1236 17.9778 43.7606 18.4275 43.7606H22.6481C22.7722 43.4002 22.9764 43.0785 23.2412 42.8144C23.506 42.5503 23.8288 42.3468 24.1902 42.2231V40.3253C24.1902 39.8797 24.5516 39.5167 25.0012 39.5167C25.4481 39.5167 25.8122 39.877 25.8122 40.3253V42.2231C26.1736 42.3468 26.4963 42.5503 26.7612 42.8144C27.2108 43.2627 27.4894 43.8843 27.4894 44.5691C27.4894 45.254 27.2108 45.8756 26.7612 46.3239C26.3115 46.7722 25.6881 47.05 25.0012 47.05C24.3143 47.05 23.6908 46.7722 23.2412 46.3239C22.9764 46.0599 22.7722 45.7381 22.6481 45.3777H18.4275ZM25.8701 44.5691C25.8701 44.8084 25.7735 45.0257 25.6163 45.1797C25.459 45.3365 25.2439 45.4328 25.0039 45.4328C24.7639 45.4328 24.5459 45.3365 24.3915 45.1797C24.2342 45.023 24.1377 44.8084 24.1377 44.5691C24.1377 44.3299 24.2342 44.1126 24.3915 43.9586C24.5487 43.8018 24.7639 43.7055 25.0039 43.7055C25.2439 43.7055 25.4618 43.8018 25.6163 43.9586C25.7735 44.1126 25.8701 44.3299 25.8701 44.5691ZM36.0244 44.5691C36.0244 47.6028 34.7914 50.3504 32.7969 52.3389C30.8025 54.3274 28.0466 55.5568 25.004 55.5568C21.9615 55.5568 19.2055 54.3274 17.2112 52.3389C15.2167 50.3504 13.9837 47.6027 13.9837 44.5691C13.9837 41.5355 15.2167 38.7878 17.2112 36.7994C19.2056 34.8109 21.9615 33.5814 25.004 33.5814C28.0466 33.5814 30.8025 34.8109 32.7969 36.7994C34.7914 38.7879 36.0244 41.5356 36.0244 44.5691ZM33.9417 35.6552C36.2286 37.9381 37.6437 41.0872 37.6437 44.5691C37.6437 48.0511 36.2286 51.2004 33.9417 53.4831C31.6521 55.7631 28.4936 57.1741 25.0013 57.1741C21.509 57.1741 18.3503 55.7631 16.0609 53.4831C13.774 51.203 12.3588 48.0511 12.3588 44.5691C12.3588 41.0872 13.774 37.9379 16.0609 35.6552C18.3477 33.3751 21.509 31.9642 25.0013 31.9642C28.4936 31.9642 31.655 33.3751 33.9417 35.6552ZM18.3722 28.603C19.1418 28.2839 19.9447 28.0199 20.7694 27.8136V23.9438C20.7694 23.4982 21.1308 23.1352 21.5804 23.1352H28.4244C28.8713 23.1352 29.2354 23.4955 29.2354 23.9438V27.8136C30.0603 28.0199 30.863 28.2839 31.6326 28.603C32.4133 28.9248 33.1692 29.3071 33.8919 29.7389L36.6366 27.0023C36.9539 26.686 37.467 26.686 37.7815 27.0023L42.62 31.8265C42.9373 32.1428 42.9373 32.6544 42.62 32.9679L39.8753 35.7045C40.3084 36.4251 40.689 37.1759 41.0146 37.9571C41.3345 38.7244 41.5994 39.5248 41.8063 40.3471H45.6876C46.1345 40.3471 46.4986 40.7102 46.4986 41.1557V47.9795C46.4986 48.425 46.1372 48.788 45.6876 48.788H41.8063C41.5994 49.6104 41.3346 50.4108 41.0146 51.1781C40.6918 51.9565 40.3084 52.7101 39.8753 53.4307L42.62 56.1673C42.9373 56.4836 42.9373 56.9952 42.62 57.3087L37.7815 62.1329C37.4642 62.4492 36.9511 62.4492 36.6366 62.1329L33.8919 59.3963C33.1692 59.8281 32.4161 60.2076 31.6326 60.5322C30.863 60.8513 30.0602 61.1153 29.2354 61.3216V65.1914C29.2354 65.637 28.8741 66 28.4244 66H21.5804C21.1335 66 20.7694 65.6397 20.7694 65.1914V61.3216C19.9446 61.1153 19.1418 60.8513 18.3722 60.5322C17.5915 60.2077 16.8357 59.8281 16.113 59.3963L13.3682 62.1329C13.051 62.4492 12.5379 62.4492 12.2234 62.1329L7.38483 57.3087C7.06759 56.9924 7.06759 56.4808 7.38483 56.1673L10.1296 53.4307C9.6965 52.7101 9.31585 51.9564 8.99029 51.1781C8.6703 50.4108 8.40548 49.6104 8.19858 48.788H4.31725C3.87037 48.788 3.50626 48.4277 3.50626 47.9795L3.5035 41.1557C3.5035 40.7102 3.86488 40.3471 4.3145 40.3471H8.19582C8.40271 39.5248 8.66753 38.7244 8.98753 37.9571C9.31305 37.1787 9.69373 36.4251 10.1268 35.7045L7.38207 32.9679C7.06483 32.6516 7.06483 32.14 7.38207 31.8265L12.2206 27.0023C12.5379 26.686 13.051 26.686 13.3654 27.0023L16.1102 29.7389C16.8357 29.3071 17.5916 28.9248 18.3722 28.603Z" fill="#F7C948"/>
</svg>
