<svg width="333" height="344" viewBox="0 0 333 344" fill="none" xmlns="http://www.w3.org/2000/svg">
<path d="M178.673 161.78C182.71 161.78 186.015 165.087 186.016 169.123V186.963C190.206 188.27 194.244 189.924 198.127 192L210.738 179.389C213.622 176.544 218.274 176.544 221.119 179.389L238.882 197.152C240.266 198.536 241.035 200.381 241.035 202.342C241.035 204.303 240.266 206.149 238.882 207.534L226.31 220.106C228.386 223.989 230.078 228.065 231.347 232.255H249.109C253.146 232.255 256.453 235.562 256.453 239.599V264.705C256.453 268.742 253.146 272.048 249.109 272.048H231.385C230.116 276.239 228.424 280.353 226.348 284.237L238.882 296.771C240.266 298.155 241.035 300 241.035 301.961C241.035 303.922 240.266 305.768 238.882 307.152L221.119 324.914C219.735 326.299 217.89 327.068 215.929 327.068C213.968 327.068 212.122 326.298 210.738 324.914L198.242 312.419C194.321 314.495 190.245 316.225 186.016 317.494V335.18C186.016 339.217 182.71 342.524 178.673 342.524H153.566C149.529 342.524 146.223 339.217 146.223 335.18V317.494C141.993 316.225 137.918 314.495 133.996 312.419L121.5 324.914C118.616 327.759 113.964 327.759 111.119 324.914L93.3564 307.152C91.9724 305.768 91.2032 303.922 91.2031 301.961C91.2031 300.001 91.9724 298.155 93.3564 296.771L105.891 284.237C103.814 280.353 102.122 276.277 100.854 272.048H83.1289C79.0922 272.048 75.7864 268.742 75.7861 264.705V239.599C75.7861 235.562 79.092 232.255 83.1289 232.255H100.893C102.161 228.065 103.853 223.989 105.929 220.106L93.3564 207.534C91.9723 206.149 91.2031 204.303 91.2031 202.342C91.2032 200.381 91.9724 198.536 93.3564 197.152L111.119 179.389C114.003 176.544 118.655 176.544 121.5 179.389L134.111 192C137.995 189.924 142.032 188.232 146.223 186.963V169.123C146.223 165.087 149.529 161.78 153.566 161.78H178.673ZM153.489 169.047C153.412 169.047 153.374 169.162 153.374 169.162V189.732C153.374 191.385 152.259 192.808 150.683 193.231C145.262 194.615 140.071 196.768 135.227 199.613C133.804 200.42 131.996 200.19 130.843 199.036L116.31 184.503C116.271 184.465 116.157 184.503 116.156 184.503L98.3936 202.266V202.419L112.927 216.952C114.119 218.106 114.349 219.914 113.503 221.336C110.658 226.181 108.505 231.371 107.082 236.792C106.659 238.368 105.237 239.483 103.584 239.483H83.0527C82.9758 239.483 82.9375 239.599 82.9375 239.599V264.705C82.9379 264.782 83.0527 264.821 83.0527 264.821H103.545C105.198 264.821 106.621 265.935 107.044 267.55C108.466 272.971 110.62 278.2 113.465 283.044C114.272 284.467 114.041 286.275 112.888 287.428L98.4316 301.884V302.037L116.194 319.801C116.233 319.839 116.349 319.801 116.349 319.801L130.805 305.344C131.535 304.614 132.458 304.268 133.381 304.268C134.034 304.268 134.65 304.422 135.227 304.768C140.109 307.651 145.338 309.804 150.759 311.227C152.335 311.65 153.45 313.073 153.45 314.726V335.142C153.451 335.219 153.566 335.257 153.566 335.257H178.673C178.747 335.257 178.786 335.149 178.788 335.142V314.726C178.788 313.073 179.903 311.65 181.479 311.227C186.939 309.804 192.129 307.651 197.012 304.768C198.434 303.961 200.242 304.191 201.396 305.344L215.852 319.801H216.006L233.769 302.037H233.653V301.884L219.196 287.428C218.004 286.275 217.774 284.467 218.62 283.044C221.465 278.2 223.657 272.971 225.041 267.55C225.464 265.936 226.886 264.821 228.539 264.821H249.032C249.106 264.821 249.145 264.713 249.147 264.705V239.599C249.147 239.522 249.032 239.483 249.032 239.483H228.501C226.848 239.483 225.425 238.368 225.002 236.792C223.579 231.371 221.426 226.181 218.581 221.336C217.774 219.914 218.005 218.106 219.158 216.952L233.691 202.419V202.266L215.929 184.503C215.89 184.465 215.774 184.503 215.774 184.503L201.241 199.036C200.088 200.228 198.281 200.458 196.858 199.613C192.014 196.768 186.823 194.615 181.402 193.231C179.826 192.808 178.711 191.385 178.711 189.732V169.162C178.711 169.088 178.601 169.049 178.596 169.047H153.489ZM78.5537 161.744C82.0525 161.744 84.8975 164.589 84.8975 168.087V180.544C88.5116 181.698 91.9341 183.236 95.2021 185.159C96.9319 186.197 97.5083 188.388 96.5088 190.118C95.4707 191.848 93.279 192.425 91.5488 191.425C88.0502 189.388 84.321 187.811 80.3994 186.811C78.8232 186.388 77.7081 184.966 77.708 183.313V169.01H60.9443V183.313C60.9442 184.966 59.8292 186.388 58.2529 186.811C54.3698 187.811 50.6022 189.387 47.1035 191.425C45.6809 192.233 43.8741 192.001 42.7207 190.848L32.6084 180.737L20.7285 192.617L30.8398 202.729C32.0317 203.882 32.2627 205.689 31.417 207.112C29.3408 210.61 27.8027 214.34 26.7646 218.262C26.3416 219.838 24.9188 220.953 23.2656 220.953H9.00195V237.716H23.2275C24.8805 237.716 26.3025 238.831 26.7256 240.446C27.7637 244.367 29.3018 248.135 31.3779 251.634C32.1852 253.057 31.9549 254.864 30.8018 256.017L20.7285 266.091L32.6084 277.971L42.6436 267.936C43.797 266.744 45.6039 266.514 47.0264 267.36C50.5635 269.436 54.3313 270.974 58.2529 272.012C59.8292 272.435 60.9442 273.857 60.9443 275.51V289.698H77.708V277.856C77.708 275.863 79.3124 274.252 81.3027 274.242C83.2932 274.252 84.8975 275.863 84.8975 277.856V290.582C84.8973 294.081 82.0524 296.926 78.5537 296.926H60.0215C56.523 296.926 53.6779 294.081 53.6777 290.582V278.241C50.9864 277.395 48.3334 276.279 45.7959 274.972L37.0684 283.7C34.5692 286.199 30.532 286.199 28.0713 283.7L14.9609 270.589C13.7691 269.397 13.1153 267.783 13.1152 266.091C13.1152 264.399 13.7691 262.784 14.9609 261.592L23.7275 252.827C22.4203 250.289 21.3048 247.636 20.459 244.945H8.0791C4.58046 244.945 1.73457 242.1 1.73438 238.601V220.069C1.73438 216.57 4.58034 213.725 8.0791 213.725H20.4971C21.3814 211.034 22.4584 208.419 23.7656 205.881L14.9609 197.077C13.7692 195.885 13.1152 194.27 13.1152 192.578C13.1152 190.887 13.7692 189.272 14.9609 188.08L28.0713 174.969C30.5703 172.509 34.5692 172.509 37.0684 174.969L45.873 183.774C48.3721 182.505 50.9865 181.39 53.6777 180.544V168.087C53.6777 164.589 56.5229 161.744 60.0215 161.744H78.5537ZM273.101 161.744C276.599 161.744 279.444 164.589 279.444 168.087V180.544C282.136 181.39 284.75 182.467 287.249 183.774L296.054 174.969C298.553 172.508 302.552 172.509 305.051 174.969L318.162 188.08C319.354 189.272 320.007 190.887 320.007 192.578C320.007 194.27 319.354 195.885 318.162 197.077L309.357 205.881C310.665 208.419 311.741 211.034 312.625 213.725H325.005C328.504 213.725 331.35 216.57 331.35 220.069V238.601C331.349 242.1 328.504 244.945 325.005 244.945H312.625C311.741 247.674 310.665 250.289 309.357 252.827L318.123 261.592C319.315 262.784 319.969 264.399 319.969 266.091C319.969 267.783 319.315 269.397 318.123 270.589L305.013 283.7C302.514 286.16 298.515 286.199 296.016 283.7L287.288 274.972C284.751 276.279 282.136 277.356 279.406 278.241V290.582C279.406 294.081 276.561 296.926 273.062 296.926H254.53C251.032 296.926 248.187 294.081 248.187 290.582V277.856C248.187 275.857 249.801 274.242 251.801 274.242C253.8 274.242 255.414 275.857 255.414 277.856V289.698H272.178V275.51C272.178 273.857 273.293 272.435 274.869 272.012C278.791 271.012 282.597 269.436 286.096 267.36C287.518 266.552 289.326 266.782 290.479 267.936L300.514 277.971L312.395 266.091L302.321 256.017C301.13 254.864 300.898 253.057 301.744 251.634C303.82 248.135 305.397 244.367 306.396 240.446C306.82 238.831 308.242 237.716 309.896 237.716H324.121V220.953H309.856C308.204 220.953 306.781 219.838 306.358 218.262C305.32 214.379 303.782 210.61 301.706 207.112C300.899 205.689 301.129 203.882 302.282 202.729L312.395 192.617L300.514 180.737L290.402 190.848C289.249 192.04 287.442 192.271 286.02 191.425C282.521 189.387 278.791 187.811 274.869 186.811C273.293 186.388 272.178 184.966 272.178 183.313V169.01H255.414V183.313C255.414 184.966 254.3 186.388 252.724 186.811C248.84 187.811 245.072 189.387 241.573 191.425C239.843 192.425 237.613 191.848 236.613 190.118C235.614 188.387 236.191 186.158 237.921 185.159C241.189 183.236 244.649 181.698 248.225 180.544V168.087C248.225 164.589 251.07 161.744 254.568 161.744H273.101ZM166.139 217.147C185.478 217.147 201.203 232.872 201.203 252.211C201.203 271.55 185.478 287.276 166.139 287.276C146.799 287.276 131.074 271.55 131.074 252.211C131.074 232.872 146.799 217.147 166.139 217.147ZM166.139 224.413C150.798 224.413 138.302 236.909 138.302 252.249C138.302 267.59 150.798 280.085 166.139 280.085C181.479 280.085 193.975 267.59 193.975 252.249C193.975 236.909 181.479 224.414 166.139 224.413ZM69.2881 202.575C81.9758 202.575 93.0484 211.572 95.5859 223.991C96.0088 225.951 94.7401 227.874 92.7793 228.258C90.8186 228.681 88.8962 227.412 88.5117 225.452C86.6662 216.378 78.5921 209.803 69.3262 209.803H69.2881C58.4842 209.803 49.6797 218.608 49.6797 229.411C49.6797 240.215 58.4842 249.02 69.2881 249.02C71.2873 249.02 72.9023 250.635 72.9023 252.634C72.9023 254.633 71.2872 256.248 69.2881 256.248C54.4856 256.248 42.4512 244.214 42.4512 229.411C42.4512 214.609 54.4856 202.575 69.2881 202.575ZM263.796 202.538C278.598 202.538 290.633 214.572 290.633 229.374C290.633 244.177 278.598 256.211 263.796 256.211C261.797 256.211 260.183 254.596 260.183 252.597C260.183 250.598 261.797 248.983 263.796 248.983H263.758C274.562 248.983 283.366 240.178 283.366 229.374C283.366 218.571 274.562 209.766 263.758 209.766C254.492 209.766 246.418 216.341 244.572 225.414C244.188 227.375 242.266 228.606 240.305 228.221C238.344 227.837 237.114 225.914 237.498 223.953C240.036 211.535 251.108 202.539 263.796 202.538ZM99.2002 115.759C101.199 115.759 102.814 117.374 102.814 119.373V172.661C102.814 174.661 101.199 176.276 99.2002 176.276C97.201 176.276 95.5859 174.661 95.5859 172.661V119.373C95.5859 117.374 97.201 115.759 99.2002 115.759ZM233.922 115.759C235.921 115.759 237.536 117.374 237.536 119.373V172.661C237.536 174.661 235.921 176.276 233.922 176.276C231.923 176.276 230.309 174.661 230.309 172.661V119.373C230.309 117.374 231.923 115.759 233.922 115.759ZM163.485 3.02868C164.293 2.10593 165.447 1.72095 166.562 1.83629C167.676 1.72104 168.829 2.14453 169.637 3.02868L247.341 89.6517C248.302 90.6897 248.533 92.2275 247.956 93.5345C247.379 94.8417 246.072 95.6878 244.649 95.6879H213.16V165.432C213.16 167.431 211.545 169.046 209.546 169.046C207.547 169.046 205.932 167.431 205.932 165.432V92.0355C205.932 90.0363 207.547 88.4214 209.546 88.4213H236.575L166.562 10.4486L96.5479 88.4593H123.576C125.575 88.4593 127.19 90.0744 127.19 92.0736V165.432C127.19 167.431 125.575 169.046 123.576 169.046C121.577 169.046 119.962 167.431 119.962 165.432V95.6879H88.4736C87.0511 95.6879 85.7437 94.8418 85.167 93.5345C84.5904 92.2274 84.8211 90.7282 85.7822 89.6517L163.485 3.02868ZM69.0576 52.474C70.0187 52.4357 70.9796 52.7814 71.71 53.4349L82.7451 63.6615C84.2061 65.0072 84.2822 67.3147 82.9365 68.7757C81.5909 70.2364 79.2842 70.3135 77.8232 68.9681L69.5186 61.2777L24.4961 112.953H39.4521C41.4513 112.953 43.0662 114.567 43.0664 116.566V164.126C43.0663 166.126 41.4514 167.741 39.4521 167.741C37.453 167.741 35.838 166.126 35.8379 164.126V120.18H16.5371C15.1146 120.18 13.8072 119.373 13.2305 118.066C12.6537 116.759 12.8849 115.259 13.8076 114.182L66.5195 53.7035C67.1731 52.9731 68.0965 52.5124 69.0576 52.474ZM264.065 52.474C265.065 52.5125 265.949 52.9732 266.603 53.7035L319.315 114.182C320.277 115.259 320.468 116.759 319.892 118.066C319.276 119.334 318.007 120.18 316.585 120.18H297.284V164.126C297.284 166.126 295.669 167.741 293.67 167.741C291.671 167.74 290.057 166.125 290.057 164.126V116.566C290.057 114.567 291.671 112.953 293.67 112.953H308.627L263.604 61.2777L255.299 68.9681C253.838 70.3134 251.531 70.2365 250.186 68.7757C248.84 67.3147 248.917 65.0072 250.378 63.6615L261.412 53.4349C262.143 52.7813 263.104 52.4355 264.065 52.474Z" fill="#05A6A6"/>
<path d="M178.673 161.78L178.673 160.78H178.673V161.78ZM186.016 169.123H187.016V169.123L186.016 169.123ZM186.016 186.963H185.016V187.699L185.718 187.918L186.016 186.963ZM198.127 192L197.655 192.882L198.31 193.232L198.834 192.707L198.127 192ZM210.738 179.389L210.036 178.677L210.031 178.682L210.738 179.389ZM221.119 179.389L221.826 178.682H221.826L221.119 179.389ZM238.882 197.152L238.175 197.859L238.882 197.152ZM241.035 202.342H242.035V202.342L241.035 202.342ZM238.882 207.534L238.175 206.826L238.882 207.534ZM226.31 220.106L225.602 219.399L225.078 219.923L225.428 220.577L226.31 220.106ZM231.347 232.255L230.39 232.545L230.605 233.255H231.347V232.255ZM249.109 232.255L249.109 231.255H249.109V232.255ZM256.453 264.705L257.453 264.705V264.705H256.453ZM249.109 272.048V273.048H249.109L249.109 272.048ZM231.385 272.048V271.048H230.643L230.428 271.758L231.385 272.048ZM226.348 284.237L225.466 283.765L225.116 284.419L225.641 284.944L226.348 284.237ZM238.882 296.771L239.589 296.064H239.589L238.882 296.771ZM241.035 301.961L242.035 301.961V301.961H241.035ZM238.882 307.152L238.175 306.445L238.882 307.152ZM221.119 324.914L221.826 325.622L221.119 324.914ZM215.929 327.068V328.068H215.929L215.929 327.068ZM210.738 324.914L211.445 324.207L211.445 324.207L210.738 324.914ZM198.242 312.419L198.949 311.712L198.427 311.19L197.774 311.536L198.242 312.419ZM186.016 317.494L185.728 316.536L185.016 316.749V317.494H186.016ZM186.016 335.18H187.016H186.016ZM178.673 342.524V343.524H178.673L178.673 342.524ZM146.223 335.18H145.223H146.223ZM146.223 317.494H147.223V316.749L146.51 316.536L146.223 317.494ZM133.996 312.419L134.464 311.536L133.811 311.19L133.289 311.712L133.996 312.419ZM121.5 324.914L122.202 325.626L122.207 325.622L121.5 324.914ZM111.119 324.914L110.412 325.622L111.119 324.914ZM93.3564 307.152L94.0636 306.445L93.3564 307.152ZM91.2031 301.961H90.2031V301.961L91.2031 301.961ZM93.3564 296.771L92.6493 296.064L92.6493 296.064L93.3564 296.771ZM105.891 284.237L106.598 284.944L107.122 284.419L106.772 283.765L105.891 284.237ZM100.854 272.048L101.811 271.761L101.598 271.048H100.854V272.048ZM83.1289 272.048L83.1289 273.048H83.1289V272.048ZM75.7861 264.705H74.7861V264.705L75.7861 264.705ZM83.1289 232.255V231.255H83.1289L83.1289 232.255ZM100.893 232.255V233.255H101.635L101.85 232.545L100.893 232.255ZM105.929 220.106L106.811 220.577L107.16 219.923L106.636 219.399L105.929 220.106ZM93.3564 207.534L94.0636 206.826L93.3564 207.534ZM91.2031 202.342L90.2031 202.342V202.342H91.2031ZM93.3564 197.152L94.0636 197.859L93.3564 197.152ZM111.119 179.389L110.417 178.677L110.412 178.682L111.119 179.389ZM121.5 179.389L122.207 178.682L122.207 178.682L121.5 179.389ZM134.111 192L133.404 192.707L133.929 193.232L134.583 192.882L134.111 192ZM146.223 186.963L146.512 187.92L147.223 187.705V186.963H146.223ZM146.223 169.123L145.223 169.123V169.123H146.223ZM153.374 169.162L152.425 168.847L152.374 169V169.162H153.374ZM153.374 189.732L154.374 189.732V189.732H153.374ZM150.683 193.231L150.93 194.2L150.942 194.197L150.683 193.231ZM135.227 199.613L135.72 200.482L135.727 200.479L135.733 200.475L135.227 199.613ZM130.843 199.036L130.136 199.744L130.843 199.036ZM116.31 184.503L117.017 183.796L116.31 184.503ZM116.156 184.503L115.841 183.554L115.616 183.629L115.449 183.796L116.156 184.503ZM98.3936 202.266L97.6864 201.559L97.3936 201.852V202.266H98.3936ZM98.3936 202.419H97.3936V202.834L97.6864 203.126L98.3936 202.419ZM112.927 216.952L112.22 217.66L112.225 217.665L112.231 217.671L112.927 216.952ZM113.503 221.336L112.643 220.825L112.641 220.83L113.503 221.336ZM107.082 236.792L108.048 237.052L108.049 237.046L107.082 236.792ZM103.584 239.483V240.483H103.584L103.584 239.483ZM82.9375 239.599L81.9878 239.286L81.9375 239.438V239.599H82.9375ZM82.9375 264.705H81.9375L81.9375 264.711L82.9375 264.705ZM83.0527 264.821L82.734 265.768L82.8891 265.821H83.0527V264.821ZM107.044 267.55L106.077 267.804L106.077 267.804L107.044 267.55ZM113.465 283.044L114.335 282.551L114.331 282.544L114.327 282.538L113.465 283.044ZM112.888 287.428L112.181 286.721L112.888 287.428ZM98.4316 301.884L97.7245 301.177L97.4316 301.47V301.884H98.4316ZM98.4316 302.037H97.4316V302.452L97.7245 302.745L98.4316 302.037ZM116.194 319.801L115.487 320.508L115.489 320.51L116.194 319.801ZM116.349 319.801L116.663 320.75L116.888 320.676L117.056 320.508L116.349 319.801ZM130.805 305.344L130.098 304.637L130.098 304.637L130.805 305.344ZM133.381 304.268L133.381 303.268H133.381V304.268ZM135.227 304.768L134.712 305.625L134.718 305.629L135.227 304.768ZM150.759 311.227L151.018 310.261L151.013 310.26L150.759 311.227ZM153.45 335.142H152.45L152.45 335.148L153.45 335.142ZM153.566 335.257L153.25 336.206L153.404 336.257H153.566V335.257ZM178.673 335.257V336.257L178.677 336.257L178.673 335.257ZM178.788 335.142L179.734 335.468L179.788 335.309V335.142H178.788ZM181.479 311.227L181.227 310.259L181.22 310.261L181.479 311.227ZM197.012 304.768L196.518 303.898L196.511 303.902L196.503 303.907L197.012 304.768ZM201.396 305.344L202.103 304.637L202.103 304.637L201.396 305.344ZM215.852 319.801L215.144 320.508L215.437 320.801H215.852V319.801ZM216.006 319.801V320.801H216.42L216.713 320.508L216.006 319.801ZM233.769 302.037L234.476 302.745L236.183 301.037H233.769V302.037ZM233.653 302.037H232.653V303.037H233.653V302.037ZM233.653 301.884H234.653V301.47L234.36 301.177L233.653 301.884ZM219.196 287.428L219.903 286.721L219.898 286.715L219.892 286.709L219.196 287.428ZM218.62 283.044L219.48 283.555L219.482 283.551L218.62 283.044ZM225.041 267.55L224.074 267.297L224.072 267.303L225.041 267.55ZM228.539 264.821V263.821H228.539L228.539 264.821ZM249.147 264.705L250.093 265.032L250.147 264.873V264.705H249.147ZM249.032 239.483L249.355 238.536L249.198 238.483H249.032V239.483ZM228.501 239.483L228.501 240.483H228.501V239.483ZM225.002 236.792L224.035 237.046L224.036 237.052L225.002 236.792ZM218.581 221.336L217.711 221.83L217.715 221.836L217.719 221.843L218.581 221.336ZM219.158 216.952L219.865 217.66L219.158 216.952ZM233.691 202.419L234.399 203.126L234.691 202.834V202.419H233.691ZM233.691 202.266H234.691V201.852L234.399 201.559L233.691 202.266ZM215.929 184.503L216.636 183.796L215.929 184.503ZM215.774 184.503L215.459 183.554L215.235 183.629L215.067 183.796L215.774 184.503ZM201.241 199.036L200.534 198.329L200.528 198.335L200.523 198.341L201.241 199.036ZM196.858 199.613L197.369 198.753L197.365 198.75L196.858 199.613ZM181.402 193.231L181.143 194.197L181.155 194.2L181.402 193.231ZM178.711 189.732H177.711V189.732L178.711 189.732ZM178.596 169.047L178.92 168.101L178.762 168.047H178.596V169.047ZM84.8975 180.544H83.8975V181.275L84.5934 181.497L84.8975 180.544ZM95.2021 185.159L95.7168 184.301L95.7092 184.297L95.2021 185.159ZM96.5088 190.118L97.3663 190.632L97.3705 190.625L97.3747 190.618L96.5088 190.118ZM91.5488 191.425L91.0456 192.289L91.0486 192.291L91.5488 191.425ZM80.3994 186.811L80.1402 187.777L80.1524 187.78L80.3994 186.811ZM77.708 183.313H76.708V183.313L77.708 183.313ZM77.708 169.01H78.708V168.01H77.708V169.01ZM60.9443 169.01V168.01H59.9443V169.01H60.9443ZM60.9443 183.313L61.9443 183.313V183.313H60.9443ZM58.2529 186.811L58.5022 187.779L58.5121 187.777L58.2529 186.811ZM47.1035 191.425L47.5971 192.295L47.6068 192.289L47.1035 191.425ZM42.7207 190.848L43.4278 190.141L43.4278 190.141L42.7207 190.848ZM32.6084 180.737L33.3155 180.03L32.6084 179.323L31.9013 180.03L32.6084 180.737ZM20.7285 192.617L20.0214 191.909L19.3143 192.617L20.0214 193.324L20.7285 192.617ZM30.8398 202.729L30.1327 203.436L30.1385 203.442L30.1444 203.447L30.8398 202.729ZM31.417 207.112L30.5574 206.601L30.557 206.601L31.417 207.112ZM26.7646 218.262L27.7305 218.521L27.7314 218.518L26.7646 218.262ZM9.00195 220.953V219.953H8.00195V220.953H9.00195ZM9.00195 237.716H8.00195V238.716H9.00195V237.716ZM23.2275 237.716L23.2276 236.716H23.2275V237.716ZM26.7256 240.446L25.7582 240.699L25.7589 240.702L26.7256 240.446ZM31.3779 251.634L32.2476 251.141L32.2428 251.132L32.2379 251.124L31.3779 251.634ZM30.8018 256.017L31.5089 256.724L31.509 256.724L30.8018 256.017ZM20.7285 266.091L20.0214 265.384L19.3143 266.091L20.0214 266.798L20.7285 266.091ZM32.6084 277.971L31.9013 278.678L32.6084 279.385L33.3155 278.678L32.6084 277.971ZM42.6436 267.936L43.3507 268.643L43.3564 268.637L43.3621 268.631L42.6436 267.936ZM47.0264 267.36L46.5153 268.219L46.5202 268.222L47.0264 267.36ZM58.2529 272.012L58.5121 271.046L58.5088 271.045L58.2529 272.012ZM60.9443 275.51H61.9443V275.51L60.9443 275.51ZM60.9443 289.698H59.9443V290.698H60.9443V289.698ZM77.708 289.698V290.698H78.708V289.698H77.708ZM81.3027 274.242L81.3079 273.242L81.2975 273.242L81.3027 274.242ZM84.8975 290.582L85.8975 290.582V290.582H84.8975ZM60.0215 296.926L60.0214 297.926H60.0215V296.926ZM53.6777 290.582H52.6777V290.582L53.6777 290.582ZM53.6777 278.241H54.6777V277.507L53.9776 277.287L53.6777 278.241ZM45.7959 274.972L46.2539 274.083L45.6049 273.749L45.0888 274.265L45.7959 274.972ZM37.0684 283.7L37.7755 284.407H37.7755L37.0684 283.7ZM28.0713 283.7L28.7839 282.998L28.7784 282.992L28.0713 283.7ZM14.9609 270.589L15.668 269.882H15.668L14.9609 270.589ZM13.1152 266.091H12.1152V266.091L13.1152 266.091ZM14.9609 261.592L14.2539 260.885L14.2538 260.885L14.9609 261.592ZM23.7275 252.827L24.4346 253.534L24.9508 253.018L24.6165 252.369L23.7275 252.827ZM20.459 244.945L21.413 244.645L21.1929 243.945H20.459V244.945ZM1.73438 238.601H0.734375V238.601L1.73438 238.601ZM20.4971 213.725V214.725H21.2211L21.4471 214.037L20.4971 213.725ZM23.7656 205.881L24.6546 206.339L24.9889 205.69L24.4727 205.174L23.7656 205.881ZM14.9609 197.077L14.2538 197.784L14.2538 197.784L14.9609 197.077ZM13.1152 192.578H12.1152H13.1152ZM14.9609 188.08L15.6681 188.788L15.6681 188.788L14.9609 188.08ZM28.0713 174.969L27.3697 174.257L27.3642 174.262L28.0713 174.969ZM37.0684 174.969L37.7755 174.262L37.7699 174.257L37.0684 174.969ZM45.873 183.774L45.1659 184.481L45.6789 184.994L46.3257 184.665L45.873 183.774ZM53.6777 180.544L53.9776 181.498L54.6777 181.278V180.544H53.6777ZM60.0215 161.744V160.744H60.0214L60.0215 161.744ZM279.444 180.544H278.444V181.278L279.145 181.498L279.444 180.544ZM287.249 183.774L286.786 184.66L287.437 185L287.956 184.481L287.249 183.774ZM296.054 174.969L295.352 174.257L295.347 174.262L296.054 174.969ZM305.051 174.969L305.758 174.262L305.752 174.257L305.051 174.969ZM318.162 188.08L318.869 187.373L318.869 187.373L318.162 188.08ZM320.007 192.578H321.007H320.007ZM318.162 197.077L318.869 197.784L318.869 197.784L318.162 197.077ZM309.357 205.881L308.65 205.174L308.134 205.69L308.468 206.339L309.357 205.881ZM312.625 213.725L311.675 214.037L311.901 214.725H312.625V213.725ZM331.35 238.601L332.35 238.601V238.601H331.35ZM312.625 244.945V243.945H311.898L311.674 244.637L312.625 244.945ZM309.357 252.827L308.468 252.369L308.134 253.017L308.65 253.534L309.357 252.827ZM318.123 261.592L317.416 262.299L318.123 261.592ZM319.969 266.091L320.969 266.091V266.091H319.969ZM318.123 270.589L317.416 269.882L318.123 270.589ZM305.013 283.7L305.714 284.412L305.72 284.407L305.013 283.7ZM296.016 283.7L295.309 284.407L296.016 283.7ZM287.288 274.972L287.995 274.265L287.479 273.749L286.83 274.083L287.288 274.972ZM279.406 278.241L279.098 277.289L278.406 277.513V278.241H279.406ZM279.406 290.582L280.406 290.582V290.582H279.406ZM273.062 296.926V297.926H273.063L273.062 296.926ZM248.187 290.582H247.187V290.582L248.187 290.582ZM251.801 274.242L251.801 273.242H251.801V274.242ZM255.414 289.698H254.414V290.698H255.414V289.698ZM272.178 289.698V290.698H273.178V289.698H272.178ZM272.178 275.51L271.178 275.51V275.51H272.178ZM274.869 272.012L274.622 271.043L274.61 271.046L274.869 272.012ZM286.096 267.36L285.602 266.49L285.594 266.495L285.585 266.5L286.096 267.36ZM290.479 267.936L291.187 267.229L291.187 267.229L290.479 267.936ZM300.514 277.971L299.807 278.678L300.514 279.385L301.221 278.678L300.514 277.971ZM312.395 266.091L313.102 266.798L313.809 266.091L313.102 265.384L312.395 266.091ZM302.321 256.017L303.028 255.31L303.023 255.304L303.017 255.298L302.321 256.017ZM301.744 251.634L302.604 252.145L302.604 252.144L301.744 251.634ZM306.396 240.446L305.429 240.192L305.427 240.199L306.396 240.446ZM324.121 237.716V238.716H325.121V237.716H324.121ZM324.121 220.953H325.121V219.953H324.121V220.953ZM309.856 220.953L309.856 221.953H309.856V220.953ZM306.358 218.262L305.392 218.52L305.393 218.521L306.358 218.262ZM301.706 207.112L300.836 207.605L300.841 207.614L300.846 207.622L301.706 207.112ZM302.282 202.729L301.575 202.022L301.575 202.022L302.282 202.729ZM312.395 192.617L313.102 193.324L313.809 192.617L313.102 191.909L312.395 192.617ZM300.514 180.737L301.221 180.03L300.514 179.322L299.807 180.03L300.514 180.737ZM290.402 190.848L289.695 190.141L289.689 190.147L289.684 190.153L290.402 190.848ZM286.02 191.425L286.531 190.566L286.523 190.561L286.02 191.425ZM274.869 186.811L274.61 187.777L274.622 187.78L274.869 186.811ZM272.178 183.313H271.178V183.313L272.178 183.313ZM272.178 169.01H273.178V168.01H272.178V169.01ZM255.414 169.01V168.01H254.414V169.01H255.414ZM255.414 183.313L256.414 183.313V183.313H255.414ZM252.724 186.811L252.973 187.779L252.983 187.777L252.724 186.811ZM241.573 191.425L242.074 192.291L242.077 192.289L241.573 191.425ZM236.613 190.118L235.747 190.618L235.747 190.618L236.613 190.118ZM237.921 185.159L238.421 186.024L238.428 186.02L237.921 185.159ZM248.225 180.544L248.532 181.496L249.225 181.272V180.544H248.225ZM254.568 161.744V160.744H254.568L254.568 161.744ZM166.139 217.147V216.147V217.147ZM201.203 252.211L202.203 252.211V252.211H201.203ZM166.139 287.276V288.276V287.276ZM131.074 252.211H130.074V252.211L131.074 252.211ZM166.139 224.413V223.413V224.413ZM138.302 252.249H137.302H138.302ZM166.139 280.085V281.085V280.085ZM193.975 252.249H194.975H193.975ZM69.2881 202.575L69.2881 201.575H69.2881V202.575ZM95.5859 223.991L94.6061 224.191L94.6084 224.201L95.5859 223.991ZM92.7793 228.258L92.5869 227.277L92.5777 227.279L92.5685 227.281L92.7793 228.258ZM88.5117 225.452L89.493 225.259L89.4917 225.252L88.5117 225.452ZM49.6797 229.411H48.6797H49.6797ZM69.2881 249.02L69.2882 248.02H69.2881V249.02ZM72.9023 252.634L73.9023 252.634V252.634H72.9023ZM69.2881 256.248V257.248H69.2882L69.2881 256.248ZM42.4512 229.411H41.4512H42.4512ZM263.796 202.538V201.538H263.796L263.796 202.538ZM290.633 229.374H291.633H290.633ZM263.796 256.211L263.796 257.211H263.796V256.211ZM260.183 252.597L259.183 252.597V252.597H260.183ZM263.796 248.983L263.796 249.983L263.796 247.983V248.983ZM283.366 229.374H284.366V229.374L283.366 229.374ZM263.758 209.766V208.766V209.766ZM244.572 225.414L243.592 225.215L243.591 225.222L244.572 225.414ZM240.305 228.221L240.112 229.202L240.305 228.221ZM237.498 223.953L236.518 223.753L236.517 223.761L237.498 223.953ZM99.2002 115.759V114.759H99.2001L99.2002 115.759ZM99.2002 176.276L99.2001 177.276H99.2002V176.276ZM233.922 115.759V114.759H233.922L233.922 115.759ZM233.922 176.276L233.922 177.276H233.922V176.276ZM163.485 3.02868L164.23 3.69647L164.238 3.68718L163.485 3.02868ZM166.562 1.83629L166.459 2.83098L166.561 2.84163L166.664 2.83099L166.562 1.83629ZM169.637 3.02868L170.381 2.3609L170.375 2.35437L169.637 3.02868ZM247.341 89.6517L246.596 90.3195L246.602 90.3253L246.607 90.3311L247.341 89.6517ZM247.956 93.5345L248.871 93.9382L248.871 93.9381L247.956 93.5345ZM244.649 95.6879V96.6879H244.649L244.649 95.6879ZM213.16 95.6879V94.6879H212.16V95.6879H213.16ZM209.546 169.046L209.546 170.046H209.546V169.046ZM209.546 88.4213V87.4213H209.546L209.546 88.4213ZM236.575 88.4213V89.4213H238.817L237.319 87.7531L236.575 88.4213ZM166.562 10.4486L167.306 9.78049L166.561 8.95164L165.817 9.78067L166.562 10.4486ZM96.5479 88.4593L95.8036 87.7914L94.3067 89.4593H96.5479V88.4593ZM127.19 92.0736H128.19V92.0736L127.19 92.0736ZM123.576 169.046L123.576 170.046H123.576V169.046ZM119.962 95.6879H120.962V94.6879H119.962V95.6879ZM85.167 93.5345L84.2521 93.9381L84.2521 93.9382L85.167 93.5345ZM85.7822 89.6517L85.0378 88.984L85.0363 88.9857L85.7822 89.6517ZM69.0576 52.474L69.0178 51.4748L69.0176 51.4748L69.0576 52.474ZM71.71 53.4349L72.3897 52.7015L72.3833 52.6955L72.3768 52.6897L71.71 53.4349ZM82.7451 63.6615L82.0654 64.395L82.0676 64.397L82.7451 63.6615ZM82.9365 68.7757L83.672 69.4533L83.6721 69.4532L82.9365 68.7757ZM77.8232 68.9681L77.1438 69.7019L77.1458 69.7037L77.8232 68.9681ZM69.5186 61.2777L70.198 60.544L69.4417 59.8436L68.7646 60.6208L69.5186 61.2777ZM24.4961 112.953L23.7421 112.296L22.2985 113.953H24.4961V112.953ZM43.0664 116.566H44.0664V116.566L43.0664 116.566ZM43.0664 164.126L44.0664 164.126V164.126H43.0664ZM39.4521 167.741L39.4521 168.741H39.4521V167.741ZM35.8379 164.126H34.8379V164.126L35.8379 164.126ZM35.8379 120.18H36.8379V119.18H35.8379V120.18ZM16.5371 120.18L16.5371 121.18H16.5371V120.18ZM13.2305 118.066L12.3156 118.469L12.3156 118.469L13.2305 118.066ZM13.8076 114.182L13.0537 113.525L13.0484 113.531L13.8076 114.182ZM66.5195 53.7035L65.7743 53.0366L65.7657 53.0464L66.5195 53.7035ZM264.065 52.474L264.025 53.4732L264.027 53.4732L264.065 52.474ZM266.603 53.7035L267.356 53.0464L267.348 53.0366L266.603 53.7035ZM319.315 114.182L318.562 114.839L318.569 114.848L319.315 114.182ZM319.892 118.066L320.791 118.502L320.799 118.486L320.807 118.469L319.892 118.066ZM297.284 120.18V119.18H296.284V120.18H297.284ZM297.284 164.126L298.284 164.126V164.126H297.284ZM293.67 167.741L293.67 168.741H293.67V167.741ZM290.057 164.126H289.057V164.126L290.057 164.126ZM290.057 116.566L289.057 116.566V116.566H290.057ZM293.67 112.953V111.953H293.67L293.67 112.953ZM308.627 112.953V113.953H310.825L309.381 112.296L308.627 112.953ZM263.604 61.2777L264.357 60.6208L263.68 59.8436L262.924 60.544L263.604 61.2777ZM255.299 68.9681L255.976 69.7038L255.978 69.7019L255.299 68.9681ZM250.186 68.7757L249.45 69.4532L249.45 69.4533L250.186 68.7757ZM250.378 63.6615L251.055 64.397L251.058 64.3949L250.378 63.6615ZM261.412 53.4349L260.745 52.6897L260.739 52.6955L260.732 52.7015L261.412 53.4349ZM178.673 161.78L178.673 162.78C182.157 162.78 185.016 165.639 185.016 169.123L186.016 169.123L187.016 169.123C187.015 164.534 183.262 160.78 178.673 160.78L178.673 161.78ZM186.016 169.123H185.016V186.963H186.016H187.016V169.123H186.016ZM186.016 186.963L185.718 187.918C189.854 189.208 193.832 190.838 197.655 192.882L198.127 192L198.598 191.118C194.655 189.01 190.559 187.333 186.313 186.009L186.016 186.963ZM198.127 192L198.834 192.707L211.445 180.096L210.738 179.389L210.031 178.682L197.42 191.293L198.127 192ZM210.738 179.389L211.441 180.101C213.937 177.638 217.96 177.644 220.412 180.096L221.119 179.389L221.826 178.682C218.588 175.444 213.306 175.451 210.036 178.677L210.738 179.389ZM221.119 179.389L220.412 180.096L238.175 197.859L238.882 197.152L239.589 196.445L221.826 178.682L221.119 179.389ZM238.882 197.152L238.175 197.859C239.372 199.056 240.035 200.648 240.035 202.342L241.035 202.342L242.035 202.342C242.035 200.115 241.16 198.015 239.589 196.445L238.882 197.152ZM241.035 202.342H240.035C240.035 204.036 239.372 205.629 238.175 206.826L238.882 207.534L239.589 208.241C241.16 206.67 242.035 204.569 242.035 202.342H241.035ZM238.882 207.534L238.175 206.826L225.602 219.399L226.31 220.106L227.017 220.813L239.589 208.241L238.882 207.534ZM226.31 220.106L225.428 220.577C227.473 224.403 229.14 228.418 230.39 232.545L231.347 232.255L232.304 231.965C231.016 227.711 229.298 223.575 227.191 219.634L226.31 220.106ZM231.347 232.255V233.255H249.109V232.255V231.255H231.347V232.255ZM249.109 232.255L249.109 233.255C252.594 233.255 255.453 236.114 255.453 239.599H256.453H257.453C257.453 235.01 253.699 231.255 249.109 231.255L249.109 232.255ZM256.453 239.599H255.453V264.705H256.453H257.453V239.599H256.453ZM256.453 264.705L255.453 264.705C255.453 268.19 252.594 271.048 249.109 271.048L249.109 272.048L249.109 273.048C253.698 273.048 257.453 269.295 257.453 264.705L256.453 264.705ZM249.109 272.048V271.048H231.385V272.048V273.048H249.109V272.048ZM231.385 272.048L230.428 271.758C229.178 275.888 227.51 279.941 225.466 283.765L226.348 284.237L227.23 284.708C229.337 280.766 231.054 276.59 232.342 272.338L231.385 272.048ZM226.348 284.237L225.641 284.944L238.175 297.478L238.882 296.771L239.589 296.064L227.055 283.53L226.348 284.237ZM238.882 296.771L238.175 297.478C239.372 298.676 240.035 300.267 240.035 301.961H241.035H242.035C242.035 299.734 241.16 297.634 239.589 296.064L238.882 296.771ZM241.035 301.961L240.035 301.961C240.035 303.655 239.372 305.247 238.175 306.445L238.882 307.152L239.589 307.859C241.16 306.288 242.035 304.189 242.035 301.961L241.035 301.961ZM238.882 307.152L238.175 306.445L220.412 324.207L221.119 324.914L221.826 325.622L239.589 307.859L238.882 307.152ZM221.119 324.914L220.412 324.207C219.214 325.405 217.623 326.068 215.929 326.068L215.929 327.068L215.929 328.068C218.156 328.068 220.256 327.192 221.826 325.622L221.119 324.914ZM215.929 327.068V326.068C214.235 326.068 212.643 325.405 211.445 324.207L210.738 324.914L210.031 325.622C211.602 327.192 213.701 328.068 215.929 328.068V327.068ZM210.738 324.914L211.445 324.207L198.949 311.712L198.242 312.419L197.535 313.126L210.031 325.622L210.738 324.914ZM198.242 312.419L197.774 311.536C193.903 313.585 189.887 315.288 185.728 316.536L186.016 317.494L186.303 318.451C190.602 317.162 194.738 315.406 198.71 313.303L198.242 312.419ZM186.016 317.494H185.016V335.18H186.016H187.016V317.494H186.016ZM186.016 335.18L185.016 335.18C185.016 338.665 182.157 341.524 178.673 341.524L178.673 342.524L178.673 343.524C183.262 343.524 187.016 339.769 187.016 335.18H186.016ZM178.673 342.524V341.524H153.566V342.524V343.524H178.673V342.524ZM153.566 342.524V341.524C150.082 341.524 147.223 338.665 147.223 335.18L146.223 335.18H145.223C145.223 339.769 148.977 343.524 153.566 343.524V342.524ZM146.223 335.18H147.223V317.494H146.223H145.223V335.18H146.223ZM146.223 317.494L146.51 316.536C142.351 315.288 138.336 313.585 134.464 311.536L133.996 312.419L133.528 313.303C137.5 315.406 141.636 317.162 145.935 318.451L146.223 317.494ZM133.996 312.419L133.289 311.712L120.793 324.207L121.5 324.914L122.207 325.622L134.703 313.126L133.996 312.419ZM121.5 324.914L120.798 324.203C118.301 326.666 114.278 326.659 111.826 324.207L111.119 324.914L110.412 325.622C113.65 328.86 118.932 328.853 122.202 325.626L121.5 324.914ZM111.119 324.914L111.826 324.207L94.0636 306.445L93.3564 307.152L92.6493 307.859L110.412 325.622L111.119 324.914ZM93.3564 307.152L94.0636 306.445C92.866 305.247 92.2032 303.655 92.2031 301.961L91.2031 301.961L90.2031 301.961C90.2032 304.189 91.0787 306.288 92.6493 307.859L93.3564 307.152ZM91.2031 301.961H92.2031C92.2031 300.267 92.866 298.676 94.0636 297.478L93.3564 296.771L92.6493 296.064C91.0788 297.634 90.2031 299.734 90.2031 301.961H91.2031ZM93.3564 296.771L94.0636 297.478L106.598 284.944L105.891 284.237L105.184 283.53L92.6493 296.064L93.3564 296.771ZM105.891 284.237L106.772 283.765C104.727 279.939 103.061 275.925 101.811 271.761L100.854 272.048L99.8957 272.336C101.184 276.63 102.902 280.768 105.009 284.708L105.891 284.237ZM100.854 272.048V271.048H83.1289V272.048V273.048H100.854V272.048ZM83.1289 272.048L83.129 271.048C79.6445 271.048 76.7863 268.19 76.7861 264.705L75.7861 264.705L74.7861 264.705C74.7864 269.294 78.5399 273.048 83.1289 273.048L83.1289 272.048ZM75.7861 264.705H76.7861V239.599H75.7861H74.7861V264.705H75.7861ZM75.7861 239.599H76.7861C76.7861 236.114 79.6445 233.255 83.129 233.255L83.1289 232.255L83.1289 231.255C78.5396 231.255 74.7861 235.01 74.7861 239.599H75.7861ZM83.1289 232.255V233.255H100.893V232.255V231.255H83.1289V232.255ZM100.893 232.255L101.85 232.545C103.099 228.418 104.765 224.403 106.811 220.577L105.929 220.106L105.047 219.634C102.94 223.575 101.223 227.711 99.9355 231.965L100.893 232.255ZM105.929 220.106L106.636 219.399L94.0636 206.826L93.3564 207.534L92.6493 208.241L105.222 220.813L105.929 220.106ZM93.3564 207.534L94.0636 206.826C92.8661 205.629 92.2031 204.036 92.2031 202.342H91.2031H90.2031C90.2031 204.569 91.0786 206.67 92.6493 208.241L93.3564 207.534ZM91.2031 202.342L92.2031 202.342C92.2032 200.648 92.8661 199.056 94.0636 197.859L93.3564 197.152L92.6493 196.445C91.0788 198.015 90.2033 200.115 90.2031 202.342L91.2031 202.342ZM93.3564 197.152L94.0636 197.859L111.826 180.096L111.119 179.389L110.412 178.682L92.6493 196.445L93.3564 197.152ZM111.119 179.389L111.821 180.101C114.318 177.637 118.341 177.644 120.793 180.096L121.5 179.389L122.207 178.682C118.969 175.444 113.687 175.45 110.417 178.677L111.119 179.389ZM121.5 179.389L120.793 180.096L133.404 192.707L134.111 192L134.818 191.293L122.207 178.682L121.5 179.389ZM134.111 192L134.583 192.882C138.411 190.836 142.387 189.169 146.512 187.92L146.223 186.963L145.933 186.006C141.676 187.295 137.578 189.013 133.64 191.118L134.111 192ZM146.223 186.963H147.223V169.123H146.223H145.223V186.963H146.223ZM146.223 169.123L147.223 169.123C147.223 165.639 150.082 162.78 153.566 162.78V161.78V160.78C148.977 160.78 145.223 164.534 145.223 169.123L146.223 169.123ZM153.566 161.78V162.78H178.673V161.78V160.78H153.566V161.78ZM153.489 169.047V168.047C152.92 168.047 152.63 168.461 152.571 168.55C152.521 168.625 152.487 168.693 152.467 168.739C152.457 168.763 152.448 168.784 152.441 168.802C152.438 168.811 152.435 168.819 152.432 168.827C152.431 168.83 152.43 168.834 152.428 168.837C152.428 168.839 152.427 168.841 152.427 168.842C152.426 168.843 152.426 168.844 152.426 168.845C152.426 168.845 152.426 168.845 152.426 168.846C152.425 168.846 152.425 168.846 152.425 168.846C152.425 168.846 152.425 168.847 153.374 169.162C154.323 169.478 154.323 169.478 154.323 169.479C154.323 169.479 154.323 169.479 154.323 169.479C154.322 169.48 154.322 169.48 154.322 169.48C154.322 169.481 154.322 169.482 154.321 169.483C154.321 169.484 154.32 169.486 154.32 169.487C154.319 169.49 154.318 169.493 154.317 169.496C154.315 169.501 154.313 169.507 154.31 169.513C154.306 169.525 154.301 169.537 154.295 169.55C154.285 169.574 154.266 169.613 154.235 169.659C154.207 169.701 154.146 169.785 154.039 169.865C153.924 169.951 153.735 170.047 153.489 170.047V169.047ZM153.374 169.162H152.374V189.732H153.374H154.374V169.162H153.374ZM153.374 189.732L152.374 189.732C152.374 190.926 151.569 191.958 150.423 192.265L150.683 193.231L150.942 194.197C152.949 193.658 154.374 191.844 154.374 189.732L153.374 189.732ZM150.683 193.231L150.435 192.262C144.921 193.67 139.644 195.859 134.72 198.75L135.227 199.613L135.733 200.475C140.498 197.676 145.602 195.56 150.93 194.2L150.683 193.231ZM135.227 199.613L134.733 198.743C133.694 199.333 132.379 199.159 131.55 198.329L130.843 199.036L130.136 199.744C131.613 201.221 133.914 201.508 135.72 200.482L135.227 199.613ZM130.843 199.036L131.55 198.329L117.017 183.796L116.31 184.503L115.602 185.21L130.136 199.744L130.843 199.036ZM116.31 184.503L117.017 183.796C116.776 183.556 116.498 183.507 116.382 183.493C116.248 183.478 116.137 183.49 116.078 183.499C116.011 183.508 115.956 183.521 115.921 183.531C115.902 183.536 115.885 183.54 115.872 183.545C115.865 183.547 115.859 183.548 115.854 183.55C115.851 183.551 115.848 183.552 115.846 183.553C115.845 183.553 115.844 183.553 115.843 183.554C115.842 183.554 115.842 183.554 115.841 183.554C115.841 183.554 115.841 183.554 115.841 183.554L116.156 184.503L116.472 185.452C116.472 185.452 116.472 185.452 116.471 185.452C116.471 185.453 116.47 185.453 116.47 185.453C116.469 185.453 116.468 185.453 116.467 185.454C116.465 185.454 116.463 185.455 116.462 185.455C116.458 185.457 116.455 185.458 116.451 185.459C116.444 185.461 116.437 185.463 116.43 185.465C116.417 185.468 116.393 185.474 116.36 185.479C116.334 185.483 116.259 185.492 116.158 185.481C116.073 185.471 115.824 185.432 115.602 185.21L116.31 184.503ZM116.156 184.503L115.449 183.796L97.6864 201.559L98.3936 202.266L99.1007 202.973L116.863 185.21L116.156 184.503ZM98.3936 202.266H97.3936V202.419H98.3936H99.3936V202.266H98.3936ZM98.3936 202.419L97.6864 203.126L112.22 217.66L112.927 216.952L113.634 216.245L99.1007 201.712L98.3936 202.419ZM112.927 216.952L112.231 217.671C113.086 218.498 113.255 219.796 112.643 220.825L113.503 221.336L114.362 221.847C115.442 220.031 115.151 217.713 113.622 216.234L112.927 216.952ZM113.503 221.336L112.641 220.83C109.749 225.753 107.56 231.029 106.115 236.539L107.082 236.792L108.049 237.046C109.449 231.714 111.567 226.608 114.365 221.843L113.503 221.336ZM107.082 236.792L106.116 236.533C105.809 237.679 104.778 238.483 103.584 238.483L103.584 239.483L103.584 240.483C105.696 240.483 107.509 239.058 108.048 237.052L107.082 236.792ZM103.584 239.483V238.483H83.0527V239.483V240.483H103.584V239.483ZM83.0527 239.483V238.483C82.4796 238.483 82.1899 238.902 82.132 238.99C82.0823 239.065 82.0493 239.133 82.0294 239.178C82.0189 239.202 82.0103 239.223 82.0036 239.241C82.0003 239.25 81.9973 239.258 81.9947 239.266C81.9934 239.269 81.9921 239.273 81.991 239.276C81.9904 239.278 81.9899 239.28 81.9894 239.281C81.9891 239.282 81.9888 239.283 81.9886 239.283C81.9885 239.284 81.9883 239.284 81.9882 239.285C81.9882 239.285 81.9881 239.285 81.988 239.285C81.9879 239.285 81.9878 239.286 82.9375 239.599C83.8872 239.912 83.8871 239.913 83.887 239.913C83.8869 239.913 83.8868 239.913 83.8868 239.913C83.8867 239.914 83.8865 239.914 83.8864 239.914C83.8862 239.915 83.8859 239.916 83.8857 239.917C83.8852 239.918 83.8847 239.92 83.8842 239.921C83.8832 239.924 83.8822 239.927 83.8812 239.93C83.8792 239.935 83.8771 239.941 83.875 239.947C83.8707 239.958 83.8657 239.971 83.8599 239.984C83.8496 240.007 83.8311 240.046 83.8006 240.092C83.7731 240.134 83.7121 240.218 83.6054 240.299C83.4908 240.385 83.3012 240.483 83.0527 240.483V239.483ZM82.9375 239.599H81.9375V264.705H82.9375H83.9375V239.599H82.9375ZM82.9375 264.705L81.9375 264.711C81.9406 265.276 82.3508 265.564 82.4394 265.623C82.514 265.673 82.5815 265.706 82.6265 265.726C82.6504 265.737 82.6717 265.746 82.6894 265.752C82.6983 265.756 82.7066 265.759 82.714 265.762C82.7177 265.763 82.7212 265.764 82.7245 265.765C82.7262 265.766 82.7278 265.766 82.7294 265.767C82.7302 265.767 82.7309 265.767 82.7317 265.768C82.7321 265.768 82.7325 265.768 82.7328 265.768C82.733 265.768 82.7333 265.768 82.7334 265.768C82.7337 265.768 82.734 265.768 83.0527 264.821C83.3715 263.873 83.3718 263.873 83.3721 263.873C83.3721 263.873 83.3724 263.873 83.3726 263.873C83.373 263.873 83.3733 263.873 83.3737 263.874C83.3744 263.874 83.3752 263.874 83.3759 263.874C83.3774 263.875 83.3788 263.875 83.3803 263.876C83.3832 263.877 83.3861 263.878 83.3889 263.879C83.3946 263.881 83.4004 263.883 83.4062 263.885C83.4176 263.89 83.4299 263.895 83.4431 263.901C83.4666 263.911 83.5053 263.93 83.5512 263.961C83.5927 263.988 83.6755 264.049 83.755 264.155C83.8401 264.268 83.9362 264.455 83.9375 264.7L82.9375 264.705ZM83.0527 264.821V265.821H103.545V264.821V263.821H83.0527V264.821ZM103.545 264.821V265.821C104.734 265.821 105.766 266.619 106.077 267.804L107.044 267.55L108.011 267.297C107.476 265.252 105.663 263.821 103.545 263.821V264.821ZM107.044 267.55L106.077 267.804C107.522 273.312 109.71 278.626 112.603 283.551L113.465 283.044L114.327 282.538C111.529 277.774 109.411 272.631 108.011 267.296L107.044 267.55ZM113.465 283.044L112.595 283.538C113.184 284.576 113.01 285.891 112.181 286.721L112.888 287.428L113.595 288.135C115.072 286.658 115.36 284.358 114.335 282.551L113.465 283.044ZM112.888 287.428L112.181 286.721L97.7245 301.177L98.4316 301.884L99.1387 302.591L113.595 288.135L112.888 287.428ZM98.4316 301.884H97.4316V302.037H98.4316H99.4316V301.884H98.4316ZM98.4316 302.037L97.7245 302.745L115.487 320.508L116.194 319.801L116.901 319.094L99.1388 301.33L98.4316 302.037ZM116.194 319.801L115.489 320.51C115.731 320.751 116.011 320.799 116.125 320.811C116.257 320.826 116.368 320.814 116.426 320.806C116.493 320.796 116.547 320.783 116.583 320.774C116.602 320.769 116.618 320.764 116.631 320.76C116.638 320.758 116.644 320.757 116.649 320.755C116.652 320.754 116.654 320.753 116.657 320.753C116.658 320.752 116.659 320.752 116.66 320.751C116.66 320.751 116.661 320.751 116.661 320.751C116.662 320.751 116.662 320.751 116.662 320.751C116.662 320.751 116.663 320.751 116.663 320.751C116.663 320.751 116.663 320.75 116.349 319.801C116.034 318.852 116.034 318.852 116.035 318.852C116.035 318.852 116.035 318.852 116.035 318.852C116.035 318.852 116.036 318.851 116.036 318.851C116.036 318.851 116.037 318.851 116.037 318.851C116.038 318.851 116.039 318.85 116.04 318.85C116.042 318.849 116.044 318.849 116.046 318.848C116.049 318.847 116.053 318.846 116.056 318.845C116.063 318.843 116.07 318.841 116.077 318.839C116.089 318.836 116.113 318.83 116.145 318.825C116.171 318.822 116.245 318.812 116.344 318.823C116.426 318.832 116.677 318.871 116.9 319.092L116.194 319.801ZM116.349 319.801L117.056 320.508L131.512 306.051L130.805 305.344L130.098 304.637L115.642 319.094L116.349 319.801ZM130.805 305.344L131.512 306.051C132.048 305.515 132.714 305.268 133.381 305.268V304.268V303.268C132.203 303.268 131.022 303.712 130.098 304.637L130.805 305.344ZM133.381 304.268L133.381 305.268C133.868 305.268 134.303 305.38 134.712 305.625L135.227 304.768L135.741 303.91C134.997 303.464 134.201 303.268 133.381 303.268L133.381 304.268ZM135.227 304.768L134.718 305.629C139.682 308.561 144.997 310.749 150.505 312.194L150.759 311.227L151.013 310.26C145.679 308.86 140.536 306.742 135.735 303.907L135.227 304.768ZM150.759 311.227L150.5 312.193C151.645 312.5 152.45 313.532 152.45 314.726H153.45H154.45C154.45 312.614 153.025 310.8 151.018 310.261L150.759 311.227ZM153.45 314.726H152.45V335.142H153.45H154.45V314.726H153.45ZM153.45 335.142L152.45 335.148C152.454 335.717 152.869 336.004 152.956 336.062C153.03 336.111 153.098 336.144 153.143 336.164C153.166 336.175 153.188 336.183 153.205 336.19C153.214 336.193 153.222 336.196 153.23 336.199C153.233 336.2 153.237 336.201 153.24 336.203C153.242 336.203 153.244 336.204 153.245 336.204C153.246 336.204 153.247 336.205 153.247 336.205C153.248 336.205 153.248 336.205 153.249 336.205C153.249 336.205 153.249 336.205 153.249 336.206C153.249 336.206 153.25 336.206 153.566 335.257C153.883 334.309 153.883 334.309 153.884 334.309C153.884 334.309 153.884 334.309 153.884 334.309C153.885 334.309 153.885 334.309 153.885 334.309C153.886 334.31 153.887 334.31 153.888 334.31C153.889 334.311 153.89 334.311 153.892 334.312C153.895 334.313 153.898 334.314 153.9 334.315C153.906 334.317 153.912 334.319 153.918 334.321C153.929 334.325 153.941 334.33 153.954 334.336C153.977 334.346 154.016 334.365 154.061 334.395C154.102 334.422 154.185 334.483 154.265 334.588C154.351 334.701 154.449 334.888 154.45 335.136L153.45 335.142ZM153.566 335.257V336.257H178.673V335.257V334.257H153.566V335.257ZM178.673 335.257L178.677 336.257C179.228 336.255 179.515 335.864 179.581 335.77C179.675 335.633 179.72 335.506 179.734 335.468L178.788 335.142L177.843 334.816C177.853 334.785 177.878 334.716 177.934 334.634C177.963 334.592 178.026 334.51 178.133 334.432C178.247 334.349 178.431 334.258 178.668 334.257L178.673 335.257ZM178.788 335.142H179.788V314.726H178.788H177.788V335.142H178.788ZM178.788 314.726H179.788C179.788 313.532 180.593 312.5 181.739 312.193L181.479 311.227L181.22 310.261C179.213 310.8 177.788 312.614 177.788 314.726H178.788ZM181.479 311.227L181.732 312.195C187.281 310.749 192.557 308.56 197.52 305.629L197.012 304.768L196.503 303.907C191.701 306.743 186.597 308.86 181.227 310.259L181.479 311.227ZM197.012 304.768L197.505 305.638C198.544 305.048 199.859 305.222 200.688 306.051L201.396 305.344L202.103 304.637C200.625 303.159 198.324 302.873 196.518 303.898L197.012 304.768ZM201.396 305.344L200.688 306.051L215.144 320.508L215.852 319.801L216.559 319.094L202.103 304.637L201.396 305.344ZM215.852 319.801V320.801H216.006V319.801V318.801H215.852V319.801ZM216.006 319.801L216.713 320.508L234.476 302.745L233.769 302.037L233.061 301.33L215.299 319.094L216.006 319.801ZM233.769 302.037V301.037H233.653V302.037V303.037H233.769V302.037ZM233.653 302.037H234.653V301.884H233.653H232.653V302.037H233.653ZM233.653 301.884L234.36 301.177L219.903 286.721L219.196 287.428L218.489 288.135L232.946 302.591L233.653 301.884ZM219.196 287.428L219.892 286.709C219.037 285.882 218.868 284.584 219.48 283.555L218.62 283.044L217.761 282.533C216.681 284.35 216.972 286.667 218.501 288.147L219.196 287.428ZM218.62 283.044L219.482 283.551C222.373 278.629 224.602 273.314 226.01 267.798L225.041 267.55L224.072 267.303C222.712 272.629 220.558 277.77 217.758 282.538L218.62 283.044ZM225.041 267.55L226.008 267.804C226.319 266.619 227.351 265.821 228.539 265.821L228.539 264.821L228.539 263.821C226.421 263.821 224.609 265.252 224.074 267.297L225.041 267.55ZM228.539 264.821V265.821H249.032V264.821V263.821H228.539V264.821ZM249.032 264.821V265.821C249.585 265.821 249.874 265.43 249.94 265.334C250.035 265.196 250.08 265.068 250.093 265.032L249.147 264.705L248.202 264.379C248.212 264.351 248.237 264.28 248.293 264.198C248.323 264.155 248.386 264.072 248.494 263.994C248.61 263.91 248.794 263.821 249.032 263.821V264.821ZM249.147 264.705H250.147V239.599H249.147H248.147V264.705H249.147ZM249.147 239.599H250.147C250.147 239.033 249.737 238.743 249.649 238.683C249.575 238.633 249.507 238.599 249.462 238.579C249.439 238.568 249.417 238.559 249.4 238.553C249.391 238.549 249.382 238.546 249.375 238.543C249.371 238.542 249.368 238.541 249.365 238.54C249.363 238.539 249.361 238.538 249.36 238.538C249.359 238.538 249.358 238.537 249.357 238.537C249.357 238.537 249.357 238.537 249.356 238.537C249.356 238.537 249.356 238.537 249.356 238.537C249.355 238.536 249.355 238.536 249.032 239.483C248.709 240.429 248.709 240.429 248.709 240.429C248.709 240.429 248.708 240.429 248.708 240.429C248.708 240.429 248.707 240.429 248.707 240.428C248.706 240.428 248.706 240.428 248.705 240.428C248.703 240.427 248.702 240.427 248.701 240.426C248.698 240.425 248.695 240.424 248.692 240.423C248.686 240.421 248.681 240.419 248.675 240.417C248.663 240.412 248.651 240.407 248.638 240.401C248.615 240.391 248.576 240.372 248.53 240.341C248.489 240.313 248.407 240.252 248.328 240.146C248.243 240.032 248.147 239.845 248.147 239.599H249.147ZM249.032 239.483V238.483H228.501V239.483V240.483H249.032V239.483ZM228.501 239.483L228.501 238.483C227.307 238.483 226.275 237.678 225.968 236.533L225.002 236.792L224.036 237.052C224.575 239.059 226.389 240.483 228.501 240.483L228.501 239.483ZM225.002 236.792L225.969 236.539C224.523 231.029 222.335 225.754 219.443 220.83L218.581 221.336L217.719 221.843C220.517 226.608 222.635 231.713 224.035 237.046L225.002 236.792ZM218.581 221.336L219.451 220.843C218.861 219.804 219.036 218.489 219.865 217.66L219.158 216.952L218.451 216.245C216.974 217.723 216.686 220.023 217.711 221.83L218.581 221.336ZM219.158 216.952L219.865 217.66L234.399 203.126L233.691 202.419L232.984 201.712L218.451 216.245L219.158 216.952ZM233.691 202.419H234.691V202.266H233.691H232.691V202.419H233.691ZM233.691 202.266L234.399 201.559L216.636 183.796L215.929 184.503L215.222 185.21L232.984 202.973L233.691 202.266ZM215.929 184.503L216.636 183.796C216.394 183.554 216.113 183.506 215.998 183.493C215.866 183.478 215.755 183.49 215.696 183.499C215.63 183.508 215.575 183.521 215.54 183.531C215.521 183.535 215.504 183.54 215.491 183.544C215.485 183.546 215.479 183.548 215.473 183.55C215.471 183.551 215.468 183.551 215.466 183.552C215.465 183.552 215.464 183.553 215.463 183.553C215.462 183.553 215.461 183.554 215.461 183.554C215.461 183.554 215.46 183.554 215.46 183.554C215.46 183.554 215.46 183.554 215.46 183.554C215.46 183.554 215.459 183.554 215.774 184.503C216.089 185.452 216.089 185.452 216.089 185.452C216.089 185.453 216.089 185.453 216.089 185.453C216.088 185.453 216.088 185.453 216.088 185.453C216.087 185.453 216.087 185.453 216.086 185.453C216.086 185.454 216.085 185.454 216.084 185.454C216.082 185.455 216.08 185.455 216.078 185.456C216.075 185.457 216.071 185.458 216.068 185.459C216.061 185.461 216.054 185.463 216.047 185.465C216.034 185.468 216.01 185.474 215.978 185.479C215.953 185.482 215.879 185.492 215.778 185.481C215.696 185.472 215.444 185.433 215.222 185.21L215.929 184.503ZM215.774 184.503L215.067 183.796L200.534 198.329L201.241 199.036L201.948 199.744L216.482 185.21L215.774 184.503ZM201.241 199.036L200.523 198.341C199.695 199.196 198.398 199.365 197.369 198.753L196.858 199.613L196.347 200.472C198.164 201.552 200.48 201.26 201.96 199.732L201.241 199.036ZM196.858 199.613L197.365 198.75C192.441 195.859 187.164 193.67 181.65 192.262L181.402 193.231L181.155 194.2C186.483 195.56 191.587 197.676 196.352 200.475L196.858 199.613ZM181.402 193.231L181.661 192.265C180.516 191.958 179.711 190.926 179.711 189.732L178.711 189.732L177.711 189.732C177.711 191.844 179.136 193.658 181.143 194.197L181.402 193.231ZM178.711 189.732H179.711V169.162H178.711H177.711V189.732H178.711ZM178.711 169.162H179.711C179.711 168.606 179.315 168.317 179.22 168.252C179.082 168.158 178.954 168.113 178.92 168.101L178.596 169.047L178.272 169.993C178.243 169.984 178.173 169.959 178.091 169.903C178.048 169.874 177.965 169.811 177.887 169.703C177.802 169.588 177.711 169.402 177.711 169.162H178.711ZM178.596 169.047V168.047H153.489V169.047V170.047H178.596V169.047ZM78.5537 161.744V162.744C81.5002 162.744 83.8975 165.141 83.8975 168.087H84.8975H85.8975C85.8975 164.036 82.6048 160.744 78.5537 160.744V161.744ZM84.8975 168.087H83.8975V180.544H84.8975H85.8975V168.087H84.8975ZM84.8975 180.544L84.5934 181.497C88.1354 182.627 91.4899 184.135 94.6951 186.02L95.2021 185.159L95.7092 184.297C92.3782 182.337 88.8878 180.768 85.2015 179.592L84.8975 180.544ZM95.2021 185.159L94.6875 186.016C95.9563 186.777 96.3653 188.367 95.6429 189.617L96.5088 190.118L97.3747 190.618C98.6512 188.408 97.9076 185.616 95.7168 184.301L95.2021 185.159ZM96.5088 190.118L95.6513 189.603C94.8897 190.872 93.2994 191.282 92.0491 190.559L91.5488 191.425L91.0486 192.291C93.2585 193.568 96.0516 192.823 97.3663 190.632L96.5088 190.118ZM91.5488 191.425L92.0521 190.561C88.4802 188.481 84.6653 186.866 80.6464 185.842L80.3994 186.811L80.1524 187.78C83.9767 188.755 87.6201 190.294 91.0456 192.289L91.5488 191.425ZM80.3994 186.811L80.6586 185.845C79.5126 185.538 78.7081 184.507 78.708 183.313L77.708 183.313L76.708 183.313C76.7082 185.425 78.1337 187.238 80.1403 187.777L80.3994 186.811ZM77.708 183.313H78.708V169.01H77.708H76.708V183.313H77.708ZM77.708 169.01V168.01H60.9443V169.01V170.01H77.708V169.01ZM60.9443 169.01H59.9443V183.313H60.9443H61.9443V169.01H60.9443ZM60.9443 183.313L59.9443 183.313C59.9442 184.507 59.1397 185.538 57.9938 185.845L58.2529 186.811L58.5121 187.777C60.5187 187.238 61.9442 185.425 61.9443 183.313L60.9443 183.313ZM58.2529 186.811L58.0036 185.842C54.0266 186.866 50.174 188.48 46.6002 190.561L47.1035 191.425L47.6068 192.289C51.0304 190.295 54.7129 188.755 58.5022 187.779L58.2529 186.811ZM47.1035 191.425L46.6099 190.555C45.5717 191.145 44.2575 190.971 43.4278 190.141L42.7207 190.848L42.0136 191.555C43.4907 193.032 45.7902 193.32 47.5971 192.295L47.1035 191.425ZM42.7207 190.848L43.4278 190.141L33.3155 180.03L32.6084 180.737L31.9013 181.444L42.0136 191.555L42.7207 190.848ZM32.6084 180.737L31.9013 180.03L20.0214 191.909L20.7285 192.617L21.4356 193.324L33.3155 181.444L32.6084 180.737ZM20.7285 192.617L20.0214 193.324L30.1327 203.436L30.8398 202.729L31.547 202.022L21.4357 191.91L20.7285 192.617ZM30.8398 202.729L30.1444 203.447C30.9997 204.275 31.1688 205.572 30.5574 206.601L31.417 207.112L32.2766 207.623C33.3566 205.806 33.0636 203.489 31.5353 202.01L30.8398 202.729ZM31.417 207.112L30.557 206.601C28.4317 210.183 26.8587 213.999 25.7979 218.006L26.7646 218.262L27.7314 218.518C28.7468 214.682 30.2499 211.038 32.277 207.622L31.417 207.112ZM26.7646 218.262L25.7988 218.003C25.4913 219.149 24.4596 219.953 23.2656 219.953V220.953V221.953C25.378 221.953 27.1919 220.528 27.7305 218.521L26.7646 218.262ZM23.2656 220.953V219.953H9.00195V220.953V221.953H23.2656V220.953ZM9.00195 220.953H8.00195V237.716H9.00195H10.002V220.953H9.00195ZM9.00195 237.716V238.716H23.2275V237.716V236.716H9.00195V237.716ZM23.2275 237.716L23.2275 238.716C24.4158 238.716 25.4479 239.515 25.7582 240.699L26.7256 240.446L27.6929 240.192C27.1572 238.148 25.3453 236.716 23.2276 236.716L23.2275 237.716ZM26.7256 240.446L25.7589 240.702C26.8189 244.706 28.3915 248.561 30.5179 252.144L31.3779 251.634L32.2379 251.124C30.2122 247.71 28.7084 244.028 27.6923 240.19L26.7256 240.446ZM31.3779 251.634L30.5082 252.128C31.0976 253.166 30.9238 254.48 30.0945 255.31L30.8018 256.017L31.509 256.724C32.9859 255.247 33.2729 252.947 32.2476 251.141L31.3779 251.634ZM30.8018 256.017L30.0946 255.31L20.0214 265.384L20.7285 266.091L21.4357 266.798L31.5089 256.724L30.8018 256.017ZM20.7285 266.091L20.0214 266.798L31.9013 278.678L32.6084 277.971L33.3155 277.264L21.4356 265.384L20.7285 266.091ZM32.6084 277.971L33.3155 278.678L43.3507 268.643L42.6436 267.936L41.9364 267.229L31.9013 277.264L32.6084 277.971ZM42.6436 267.936L43.3621 268.631C44.1896 267.777 45.4867 267.608 46.5153 268.219L47.0264 267.36L47.5374 266.5C45.7211 265.42 43.4044 265.712 41.925 267.24L42.6436 267.936ZM47.0264 267.36L46.5202 268.222C50.1393 270.346 53.9919 271.919 57.997 272.979L58.2529 272.012L58.5088 271.045C54.6708 270.029 50.9877 268.525 47.5326 266.497L47.0264 267.36ZM58.2529 272.012L57.9938 272.978C59.1397 273.285 59.9442 274.316 59.9443 275.51L60.9443 275.51L61.9443 275.51C61.9441 273.398 60.5187 271.585 58.5121 271.046L58.2529 272.012ZM60.9443 275.51H59.9443V289.698H60.9443H61.9443V275.51H60.9443ZM60.9443 289.698V290.698H77.708V289.698V288.698H60.9443V289.698ZM77.708 289.698H78.708V277.856H77.708H76.708V289.698H77.708ZM77.708 277.856H78.708C78.708 276.413 79.8677 275.249 81.308 275.242L81.3027 274.242L81.2975 273.242C78.7571 273.255 76.708 275.313 76.708 277.856H77.708ZM81.3027 274.242L81.2976 275.242C82.7379 275.249 83.8975 276.413 83.8975 277.856H84.8975H85.8975C85.8975 275.313 83.8486 273.255 81.3079 273.242L81.3027 274.242ZM84.8975 277.856H83.8975V290.582H84.8975H85.8975V277.856H84.8975ZM84.8975 290.582L83.8975 290.582C83.8973 293.529 81.5 295.926 78.5537 295.926V296.926V297.926C82.6047 297.926 85.8973 294.633 85.8975 290.582L84.8975 290.582ZM78.5537 296.926V295.926H60.0215V296.926V297.926H78.5537V296.926ZM60.0215 296.926L60.0216 295.926C57.0753 295.926 54.6779 293.529 54.6777 290.582L53.6777 290.582L52.6777 290.582C52.6779 294.633 55.9708 297.926 60.0214 297.926L60.0215 296.926ZM53.6777 290.582H54.6777V278.241H53.6777H52.6777V290.582H53.6777ZM53.6777 278.241L53.9776 277.287C51.346 276.46 48.7458 275.367 46.2539 274.083L45.7959 274.972L45.3379 275.861C47.921 277.192 50.6269 278.33 53.3779 279.195L53.6777 278.241ZM45.7959 274.972L45.0888 274.265L36.3613 282.992L37.0684 283.7L37.7755 284.407L46.503 275.679L45.7959 274.972ZM37.0684 283.7L36.3613 282.992C34.2496 285.104 30.8498 285.096 28.7839 282.998L28.0713 283.7L27.3587 284.401C30.2141 287.301 34.8889 287.293 37.7755 284.407L37.0684 283.7ZM28.0713 283.7L28.7784 282.992L15.668 269.882L14.9609 270.589L14.2538 271.296L27.3642 284.407L28.0713 283.7ZM14.9609 270.589L15.668 269.882C14.6684 268.882 14.1153 267.524 14.1152 266.091L13.1152 266.091L12.1152 266.091C12.1153 268.041 12.8699 269.912 14.2538 271.296L14.9609 270.589ZM13.1152 266.091H14.1152C14.1152 264.658 14.6684 263.299 15.668 262.299L14.9609 261.592L14.2538 260.885C12.8697 262.269 12.1152 264.141 12.1152 266.091H13.1152ZM14.9609 261.592L15.668 262.299L24.4346 253.534L23.7275 252.827L23.0205 252.119L14.2539 260.885L14.9609 261.592ZM23.7275 252.827L24.6165 252.369C23.3328 249.877 22.24 247.276 21.413 244.645L20.459 244.945L19.505 245.245C20.3696 247.996 21.5079 250.701 22.8386 253.284L23.7275 252.827ZM20.459 244.945V243.945H8.0791V244.945V245.945H20.459V244.945ZM8.0791 244.945V243.945C5.1326 243.945 2.73454 241.547 2.73438 238.601L1.73438 238.601L0.734375 238.601C0.734605 242.652 4.02832 245.945 8.0791 245.945V244.945ZM1.73438 238.601H2.73438V220.069H1.73438H0.734375V238.601H1.73438ZM1.73438 220.069H2.73438C2.73438 217.122 5.13242 214.725 8.0791 214.725V213.725V212.725C4.02825 212.725 0.734375 216.017 0.734375 220.069H1.73438ZM8.0791 213.725V214.725H20.4971V213.725V212.725H8.0791V213.725ZM20.4971 213.725L21.4471 214.037C22.3161 211.392 23.3732 208.827 24.6546 206.339L23.7656 205.881L22.8767 205.423C21.5436 208.011 20.4466 210.675 19.547 213.413L20.4971 213.725ZM23.7656 205.881L24.4727 205.174L15.668 196.369L14.9609 197.077L14.2538 197.784L23.0585 206.588L23.7656 205.881ZM14.9609 197.077L15.6681 196.369C14.6684 195.37 14.1152 194.011 14.1152 192.578H13.1152H12.1152C12.1152 194.529 12.8699 196.4 14.2538 197.784L14.9609 197.077ZM13.1152 192.578L14.1152 192.578C14.1152 191.146 14.6684 189.787 15.6681 188.788L14.9609 188.08L14.2538 187.373C12.8699 188.757 12.1152 190.628 12.1152 192.578H13.1152ZM14.9609 188.08L15.6681 188.788L28.7784 175.676L28.0713 174.969L27.3642 174.262L14.2538 187.373L14.9609 188.08ZM28.0713 174.969L28.7729 175.682C30.8827 173.604 34.2568 173.604 36.3668 175.682L37.0684 174.969L37.7699 174.257C34.8816 171.413 30.258 171.413 27.3697 174.257L28.0713 174.969ZM37.0684 174.969L36.3613 175.676L45.1659 184.481L45.873 183.774L46.5802 183.067L37.7755 174.262L37.0684 174.969ZM45.873 183.774L46.3257 184.665C48.7855 183.417 51.3485 182.325 53.9776 181.498L53.6777 180.544L53.3779 179.59C50.6245 180.456 47.9587 181.593 45.4204 182.882L45.873 183.774ZM53.6777 180.544H54.6777V168.087H53.6777H52.6777V180.544H53.6777ZM53.6777 168.087H54.6777C54.6777 165.141 57.0752 162.744 60.0216 162.744L60.0215 161.744L60.0214 160.744C55.9707 160.744 52.6777 164.036 52.6777 168.087H53.6777ZM60.0215 161.744V162.744H78.5537V161.744V160.744H60.0215V161.744ZM273.101 161.744V162.744C276.047 162.744 278.444 165.141 278.444 168.087H279.444H280.444C280.444 164.036 277.152 160.744 273.101 160.744V161.744ZM279.444 168.087H278.444V180.544H279.444H280.444V168.087H279.444ZM279.444 180.544L279.145 181.498C281.781 182.327 284.341 183.381 286.786 184.66L287.249 183.774L287.713 182.888C285.16 181.552 282.49 180.453 279.744 179.59L279.444 180.544ZM287.249 183.774L287.956 184.481L296.761 175.676L296.054 174.969L295.347 174.262L286.542 183.067L287.249 183.774ZM296.054 174.969L296.755 175.682C298.865 173.604 302.239 173.604 304.349 175.682L305.051 174.969L305.752 174.257C302.864 171.413 298.24 171.413 295.352 174.257L296.054 174.969ZM305.051 174.969L304.344 175.676L317.455 188.788L318.162 188.08L318.869 187.373L305.758 174.262L305.051 174.969ZM318.162 188.08L317.455 188.787C318.454 189.787 319.007 191.145 319.007 192.578L320.007 192.578H321.007C321.007 190.629 320.253 188.758 318.869 187.373L318.162 188.08ZM320.007 192.578H319.007C319.007 194.012 318.454 195.37 317.455 196.369L318.162 197.077L318.869 197.784C320.253 196.399 321.007 194.528 321.007 192.578H320.007ZM318.162 197.077L317.455 196.369L308.65 205.174L309.357 205.881L310.065 206.588L318.869 197.784L318.162 197.077ZM309.357 205.881L308.468 206.339C309.75 208.826 310.806 211.392 311.675 214.037L312.625 213.725L313.575 213.413C312.676 210.675 311.58 208.011 310.246 205.423L309.357 205.881ZM312.625 213.725V214.725H325.005V213.725V212.725H312.625V213.725ZM325.005 213.725V214.725C327.952 214.725 330.35 217.122 330.35 220.069H331.35H332.35C332.35 216.017 329.056 212.725 325.005 212.725V213.725ZM331.35 220.069H330.35V238.601H331.35H332.35V220.069H331.35ZM331.35 238.601L330.35 238.601C330.349 241.547 327.951 243.945 325.005 243.945V244.945V245.945C329.056 245.945 332.349 242.652 332.35 238.601L331.35 238.601ZM325.005 244.945V243.945H312.625V244.945V245.945H325.005V244.945ZM312.625 244.945L311.674 244.637C310.805 247.317 309.75 249.882 308.468 252.369L309.357 252.827L310.246 253.284C311.58 250.696 312.676 248.031 313.576 245.253L312.625 244.945ZM309.357 252.827L308.65 253.534L317.416 262.299L318.123 261.592L318.83 260.885L310.065 252.119L309.357 252.827ZM318.123 261.592L317.416 262.299C318.416 263.299 318.969 264.658 318.969 266.091H319.969H320.969C320.969 264.141 320.214 262.269 318.83 260.885L318.123 261.592ZM319.969 266.091L318.969 266.091C318.969 267.524 318.416 268.882 317.416 269.882L318.123 270.589L318.83 271.296C320.214 269.912 320.969 268.041 320.969 266.091L319.969 266.091ZM318.123 270.589L317.416 269.882L304.306 282.992L305.013 283.7L305.72 284.407L318.83 271.296L318.123 270.589ZM305.013 283.7L304.311 282.987C302.194 285.071 298.824 285.094 296.723 282.992L296.016 283.7L295.309 284.407C298.205 287.303 302.833 287.249 305.714 284.412L305.013 283.7ZM296.016 283.7L296.723 282.992L287.995 274.265L287.288 274.972L286.581 275.679L295.309 284.407L296.016 283.7ZM287.288 274.972L286.83 274.083C284.343 275.364 281.779 276.421 279.098 277.289L279.406 278.241L279.714 279.192C282.493 278.292 285.158 277.194 287.746 275.861L287.288 274.972ZM279.406 278.241H278.406V290.582H279.406H280.406V278.241H279.406ZM279.406 290.582L278.406 290.582C278.406 293.529 276.009 295.926 273.062 295.926L273.062 296.926L273.063 297.926C277.113 297.926 280.406 294.633 280.406 290.582L279.406 290.582ZM273.062 296.926V295.926H254.53V296.926V297.926H273.062V296.926ZM254.53 296.926V295.926C251.584 295.926 249.187 293.529 249.187 290.582L248.187 290.582L247.187 290.582C247.187 294.633 250.479 297.926 254.53 297.926V296.926ZM248.187 290.582H249.187V277.856H248.187H247.187V290.582H248.187ZM248.187 277.856H249.187C249.187 276.409 250.354 275.242 251.801 275.242V274.242V273.242C249.249 273.242 247.187 275.304 247.187 277.856H248.187ZM251.801 274.242L251.801 275.242C253.247 275.242 254.414 276.409 254.414 277.856H255.414H256.414C256.414 275.305 254.352 273.242 251.801 273.242L251.801 274.242ZM255.414 277.856H254.414V289.698H255.414H256.414V277.856H255.414ZM255.414 289.698V290.698H272.178V289.698V288.698H255.414V289.698ZM272.178 289.698H273.178V275.51H272.178H271.178V289.698H272.178ZM272.178 275.51L273.178 275.51C273.178 274.316 273.982 273.285 275.128 272.978L274.869 272.012L274.61 271.046C272.603 271.585 271.178 273.398 271.178 275.51L272.178 275.51ZM274.869 272.012L275.116 272.981C279.131 271.958 283.026 270.344 286.606 268.22L286.096 267.36L285.585 266.5C282.169 268.527 278.451 270.067 274.622 271.043L274.869 272.012ZM286.096 267.36L286.589 268.229C287.628 267.64 288.943 267.814 289.772 268.643L290.479 267.936L291.187 267.229C289.709 265.751 287.408 265.465 285.602 266.49L286.096 267.36ZM290.479 267.936L289.772 268.643L299.807 278.678L300.514 277.971L301.221 277.264L291.187 267.229L290.479 267.936ZM300.514 277.971L301.221 278.678L313.102 266.798L312.395 266.091L311.687 265.384L299.807 277.264L300.514 277.971ZM312.395 266.091L313.102 265.384L303.028 255.31L302.321 256.017L301.614 256.724L311.687 266.798L312.395 266.091ZM302.321 256.017L303.017 255.298C302.161 254.471 301.992 253.173 302.604 252.145L301.744 251.634L300.885 251.123C299.804 252.94 300.098 255.256 301.626 256.736L302.321 256.017ZM301.744 251.634L302.604 252.144C304.728 248.566 306.342 244.71 307.366 240.693L306.396 240.446L305.427 240.199C304.452 244.025 302.913 247.705 300.884 251.124L301.744 251.634ZM306.396 240.446L307.364 240.699C307.674 239.515 308.707 238.716 309.896 238.716V237.716V236.716C307.778 236.716 305.965 238.147 305.429 240.192L306.396 240.446ZM309.896 237.716V238.716H324.121V237.716V236.716H309.896V237.716ZM324.121 237.716H325.121V220.953H324.121H323.121V237.716H324.121ZM324.121 220.953V219.953H309.856V220.953V221.953H324.121V220.953ZM309.856 220.953L309.857 219.953C308.663 219.953 307.632 219.149 307.324 218.003L306.358 218.262L305.393 218.521C305.931 220.527 307.744 221.953 309.856 221.953L309.856 220.953ZM306.358 218.262L307.324 218.004C306.265 214.039 304.692 210.185 302.566 206.601L301.706 207.112L300.846 207.622C302.872 211.036 304.376 214.719 305.392 218.52L306.358 218.262ZM301.706 207.112L302.576 206.618C301.986 205.58 302.16 204.265 302.989 203.436L302.282 202.729L301.575 202.022C300.098 203.499 299.811 205.799 300.836 207.605L301.706 207.112ZM302.282 202.729L302.989 203.436L313.102 193.324L312.395 192.617L311.687 191.909L301.575 202.022L302.282 202.729ZM312.395 192.617L313.102 191.909L301.221 180.03L300.514 180.737L299.807 181.444L311.687 193.324L312.395 192.617ZM300.514 180.737L299.807 180.03L289.695 190.141L290.402 190.848L291.109 191.555L301.221 181.444L300.514 180.737ZM290.402 190.848L289.684 190.153C288.856 191.008 287.559 191.177 286.531 190.566L286.02 191.425L285.509 192.285C287.325 193.365 289.642 193.072 291.121 191.543L290.402 190.848ZM286.02 191.425L286.523 190.561C282.951 188.481 279.135 186.866 275.116 185.842L274.869 186.811L274.622 187.78C278.447 188.755 282.091 190.294 285.516 192.289L286.02 191.425ZM274.869 186.811L275.128 185.845C273.982 185.538 273.178 184.507 273.178 183.313L272.178 183.313L271.178 183.313C271.178 185.425 272.604 187.238 274.61 187.777L274.869 186.811ZM272.178 183.313H273.178V169.01H272.178H271.178V183.313H272.178ZM272.178 169.01V168.01H255.414V169.01V170.01H272.178V169.01ZM255.414 169.01H254.414V183.313H255.414H256.414V169.01H255.414ZM255.414 183.313L254.414 183.313C254.414 184.507 253.61 185.538 252.464 185.845L252.724 186.811L252.983 187.777C254.989 187.238 256.414 185.425 256.414 183.313L255.414 183.313ZM252.724 186.811L252.474 185.842C248.497 186.866 244.644 188.48 241.07 190.561L241.573 191.425L242.077 192.289C245.5 190.295 249.183 188.755 252.973 187.779L252.724 186.811ZM241.573 191.425L241.073 190.559C239.813 191.287 238.198 190.861 237.479 189.617L236.613 190.118L235.747 190.618C237.028 192.835 239.874 193.562 242.074 192.291L241.573 191.425ZM236.613 190.118L237.479 189.617C236.751 188.357 237.178 186.743 238.421 186.024L237.921 185.159L237.421 184.293C235.204 185.573 234.477 188.418 235.747 190.618L236.613 190.118ZM237.921 185.159L238.428 186.02C241.631 184.136 245.024 182.628 248.532 181.496L248.225 180.544L247.918 179.593C244.274 180.768 240.747 182.336 237.414 184.297L237.921 185.159ZM248.225 180.544H249.225V168.087H248.225H247.225V180.544H248.225ZM248.225 168.087H249.225C249.225 165.141 251.622 162.744 254.568 162.744L254.568 161.744L254.568 160.744C250.517 160.744 247.225 164.036 247.225 168.087H248.225ZM254.568 161.744V162.744H273.101V161.744V160.744H254.568V161.744ZM166.139 217.147V218.147C184.926 218.147 200.203 233.424 200.203 252.211H201.203H202.203C202.203 232.32 186.03 216.147 166.139 216.147V217.147ZM201.203 252.211H200.203C200.203 270.998 184.925 286.276 166.139 286.276V287.276V288.276C186.03 288.276 202.203 272.103 202.203 252.211L201.203 252.211ZM166.139 287.276V286.276C147.352 286.276 132.074 270.998 132.074 252.211H131.074L130.074 252.211C130.074 272.103 146.247 288.276 166.139 288.276V287.276ZM131.074 252.211H132.074C132.074 233.424 147.352 218.147 166.139 218.147V217.147V216.147C146.247 216.147 130.074 232.32 130.074 252.211H131.074ZM166.139 224.413V223.413C150.246 223.413 137.302 236.356 137.302 252.249H138.302H139.302C139.302 237.461 151.35 225.413 166.139 225.413V224.413ZM138.302 252.249H137.302C137.302 268.142 150.246 281.085 166.139 281.085V280.085V279.085C151.35 279.085 139.302 267.038 139.302 252.249H138.302ZM166.139 280.085V281.085C182.032 281.085 194.975 268.142 194.975 252.249H193.975H192.975C192.975 267.038 180.927 279.085 166.139 279.085V280.085ZM193.975 252.249H194.975C194.975 236.356 182.032 223.414 166.139 223.413V224.413V225.413C180.927 225.414 192.975 237.461 192.975 252.249H193.975ZM69.2881 202.575L69.2881 203.575C81.5033 203.575 92.1643 212.24 94.6062 224.191L95.5859 223.991L96.5657 223.79C93.9325 210.904 82.4483 201.575 69.2881 201.575L69.2881 202.575ZM95.5859 223.991L94.6084 224.201C94.9133 225.615 93.9982 227 92.5869 227.277L92.7793 228.258L92.9717 229.239C95.4819 228.747 97.1042 226.287 96.5635 223.78L95.5859 223.991ZM92.7793 228.258L92.5685 227.281C91.1546 227.585 89.7698 226.67 89.493 225.259L88.5117 225.452L87.5304 225.644C88.0227 228.154 90.4826 229.776 92.9901 229.236L92.7793 228.258ZM88.5117 225.452L89.4917 225.252C87.551 215.711 79.0657 208.803 69.3262 208.803V209.803V210.803C78.1186 210.803 85.7814 217.045 87.5318 225.651L88.5117 225.452ZM69.3262 209.803V208.803H69.2881V209.803V210.803H69.3262V209.803ZM69.2881 209.803V208.803C57.9319 208.803 48.6797 218.055 48.6797 229.411H49.6797H50.6797C50.6797 219.16 59.0365 210.803 69.2881 210.803V209.803ZM49.6797 229.411H48.6797C48.6797 240.768 57.9319 250.02 69.2881 250.02V249.02V248.02C59.0365 248.02 50.6797 239.663 50.6797 229.411H49.6797ZM69.2881 249.02L69.288 250.02C70.735 250.02 71.9023 251.187 71.9023 252.634H72.9023H73.9023C73.9023 250.083 71.8395 248.02 69.2882 248.02L69.2881 249.02ZM72.9023 252.634L71.9023 252.634C71.9023 254.081 70.7349 255.248 69.288 255.248L69.2881 256.248L69.2882 257.248C71.8395 257.248 73.9022 255.186 73.9023 252.634L72.9023 252.634ZM69.2881 256.248V255.248C55.0379 255.248 43.4512 243.662 43.4512 229.411H42.4512H41.4512C41.4512 244.766 53.9333 257.248 69.2881 257.248V256.248ZM42.4512 229.411H43.4512C43.4512 215.161 55.0379 203.575 69.2881 203.575V202.575V201.575C53.9333 201.575 41.4512 214.057 41.4512 229.411H42.4512ZM263.796 202.538V203.538C278.046 203.538 289.633 215.124 289.633 229.374L290.633 229.374H291.633C291.633 214.02 279.151 201.538 263.796 201.538V202.538ZM290.633 229.374H289.633C289.633 243.625 278.046 255.211 263.796 255.211V256.211V257.211C279.151 257.211 291.633 244.729 291.633 229.374H290.633ZM263.796 256.211L263.796 255.211C262.349 255.211 261.183 254.044 261.183 252.597H260.183H259.183C259.183 255.148 261.244 257.211 263.796 257.211L263.796 256.211ZM260.183 252.597L261.183 252.597C261.183 251.15 262.349 249.983 263.796 249.983L263.796 248.983L263.796 247.983C261.244 247.983 259.183 250.046 259.183 252.597L260.183 252.597ZM263.796 248.983V247.983H263.758V248.983V249.983H263.796V248.983ZM263.758 248.983V249.983C275.114 249.983 284.366 240.73 284.366 229.374H283.366H282.366C282.366 239.626 274.009 247.983 263.758 247.983V248.983ZM283.366 229.374L284.366 229.374C284.366 218.018 275.114 208.766 263.758 208.766V209.766V210.766C274.009 210.766 282.366 219.123 282.366 229.374L283.366 229.374ZM263.758 209.766V208.766C254.018 208.766 245.533 215.674 243.592 225.215L244.572 225.414L245.552 225.614C247.303 217.008 254.965 210.766 263.758 210.766V209.766ZM244.572 225.414L243.591 225.222C243.318 226.615 241.942 227.523 240.497 227.24L240.305 228.221L240.112 229.202C242.589 229.688 245.058 228.135 245.554 225.607L244.572 225.414ZM240.305 228.221L240.497 227.24C239.104 226.967 238.196 225.591 238.479 224.146L237.498 223.953L236.517 223.761C236.031 226.238 237.584 228.707 240.112 229.202L240.305 228.221ZM237.498 223.953L238.478 224.154C240.92 212.203 251.581 203.539 263.796 203.538L263.796 202.538L263.796 201.538C250.636 201.539 239.152 210.867 236.518 223.753L237.498 223.953ZM99.2002 115.759V116.759C100.647 116.759 101.814 117.926 101.814 119.373H102.814H103.814C103.814 116.822 101.752 114.759 99.2002 114.759V115.759ZM102.814 119.373H101.814V172.661H102.814H103.814V119.373H102.814ZM102.814 172.661H101.814C101.814 174.108 100.647 175.276 99.2002 175.276V176.276V177.276C101.752 177.276 103.814 175.213 103.814 172.661H102.814ZM99.2002 176.276L99.2003 175.276C97.7532 175.276 96.5859 174.108 96.5859 172.661H95.5859H94.5859C94.5859 175.213 96.6488 177.276 99.2001 177.276L99.2002 176.276ZM95.5859 172.661H96.5859V119.373H95.5859H94.5859V172.661H95.5859ZM95.5859 119.373H96.5859C96.5859 117.927 97.7532 116.759 99.2003 116.759L99.2002 115.759L99.2001 114.759C96.6488 114.759 94.5859 116.822 94.5859 119.373H95.5859ZM233.922 115.759V116.759C235.369 116.759 236.536 117.926 236.536 119.373H237.536H238.536C238.536 116.822 236.473 114.759 233.922 114.759V115.759ZM237.536 119.373H236.536V172.661H237.536H238.536V119.373H237.536ZM237.536 172.661H236.536C236.536 174.108 235.369 175.276 233.922 175.276V176.276V177.276C236.473 177.276 238.536 175.213 238.536 172.661H237.536ZM233.922 176.276L233.922 175.276C232.475 175.276 231.309 174.109 231.309 172.661H230.309H229.309C229.309 175.213 231.37 177.275 233.922 177.276L233.922 176.276ZM230.309 172.661H231.309V119.373H230.309H229.309V172.661H230.309ZM230.309 119.373H231.309C231.309 117.926 232.475 116.759 233.922 116.759L233.922 115.759L233.922 114.759C231.37 114.759 229.309 116.822 229.309 119.373H230.309ZM163.485 3.02868L164.238 3.68718C164.815 3.02812 165.64 2.74629 166.459 2.83098L166.562 1.83629L166.664 0.841601C165.253 0.695613 163.771 1.18373 162.733 2.37017L163.485 3.02868ZM166.562 1.83629L166.664 2.83099C167.462 2.74852 168.304 3.05168 168.898 3.70298L169.637 3.02868L170.375 2.35437C169.355 1.23739 167.891 0.693558 166.459 0.841594L166.562 1.83629ZM169.637 3.02868L168.892 3.69642L246.596 90.3195L247.341 89.6517L248.085 88.984L170.381 2.36093L169.637 3.02868ZM247.341 89.6517L246.607 90.3311C247.285 91.0638 247.464 92.1727 247.041 93.131L247.956 93.5345L248.871 93.9381C249.601 92.2823 249.318 90.3156 248.075 88.9724L247.341 89.6517ZM247.956 93.5345L247.041 93.1309C246.625 94.0737 245.678 94.6878 244.649 94.6879L244.649 95.6879L244.649 96.6879C246.466 96.6877 248.134 95.6096 248.871 93.9382L247.956 93.5345ZM244.649 95.6879V94.6879H213.16V95.6879V96.6879H244.649V95.6879ZM213.16 95.6879H212.16V165.432H213.16H214.16V95.6879H213.16ZM213.16 165.432H212.16C212.16 166.879 210.993 168.046 209.546 168.046V169.046V170.046C212.097 170.046 214.16 167.984 214.16 165.432H213.16ZM209.546 169.046L209.546 168.046C208.099 168.046 206.932 166.879 206.932 165.432H205.932H204.932C204.932 167.984 206.994 170.046 209.546 170.046L209.546 169.046ZM205.932 165.432H206.932V92.0355H205.932H204.932V165.432H205.932ZM205.932 92.0355H206.932C206.932 90.5887 208.099 89.4214 209.546 89.4213L209.546 88.4213L209.546 87.4213C206.994 87.4214 204.932 89.484 204.932 92.0355H205.932ZM209.546 88.4213V89.4213H236.575V88.4213V87.4213H209.546V88.4213ZM236.575 88.4213L237.319 87.7531L167.306 9.78049L166.562 10.4486L165.817 11.1167L235.831 89.0894L236.575 88.4213ZM166.562 10.4486L165.817 9.78067L95.8036 87.7914L96.5479 88.4593L97.2921 89.1273L167.306 11.1165L166.562 10.4486ZM96.5479 88.4593V89.4593H123.576V88.4593V87.4593H96.5479V88.4593ZM123.576 88.4593V89.4593C125.023 89.4593 126.19 90.6266 126.19 92.0736L127.19 92.0736L128.19 92.0736C128.19 89.5221 126.128 87.4593 123.576 87.4593V88.4593ZM127.19 92.0736H126.19V165.432H127.19H128.19V92.0736H127.19ZM127.19 165.432H126.19C126.19 166.879 125.023 168.046 123.576 168.046V169.046V170.046C126.128 170.046 128.19 167.984 128.19 165.432H127.19ZM123.576 169.046L123.576 168.046C122.129 168.046 120.962 166.879 120.962 165.432H119.962H118.962C118.962 167.984 121.025 170.046 123.576 170.046L123.576 169.046ZM119.962 165.432H120.962V95.6879H119.962H118.962V165.432H119.962ZM119.962 95.6879V94.6879H88.4736V95.6879V96.6879H119.962V95.6879ZM88.4736 95.6879V94.6879C87.4453 94.6879 86.4979 94.0739 86.0819 93.1309L85.167 93.5345L84.2521 93.9382C84.9895 95.6097 86.6568 96.6879 88.4736 96.6879V95.6879ZM85.167 93.5345L86.0819 93.1309C85.6631 92.1814 85.8291 91.1007 86.5282 90.3177L85.7822 89.6517L85.0363 88.9857C83.8131 90.3557 83.5177 92.2733 84.2521 93.9381L85.167 93.5345ZM85.7822 89.6517L86.5266 90.3195L164.23 3.69642L163.485 3.02868L162.741 2.36093L85.0378 88.984L85.7822 89.6517ZM69.0576 52.474L69.0975 53.4732C69.7961 53.4453 70.5042 53.698 71.0432 54.1802L71.71 53.4349L72.3768 52.6897C71.4549 51.8648 70.2413 51.426 69.0178 51.4748L69.0576 52.474ZM71.71 53.4349L71.0302 54.1684L82.0654 64.395L82.7451 63.6615L83.4248 62.928L72.3897 52.7015L71.71 53.4349ZM82.7451 63.6615L82.0676 64.397C83.1154 65.3621 83.1789 67.0365 82.201 68.0983L82.9365 68.7757L83.6721 69.4532C85.3854 67.593 85.2968 64.6522 83.4226 62.9259L82.7451 63.6615ZM82.9365 68.7757L82.2011 68.0982C81.2356 69.1461 79.562 69.2099 78.5007 68.2325L77.8232 68.9681L77.1458 69.7037C79.0064 71.4172 81.9461 71.3266 83.672 69.4533L82.9365 68.7757ZM77.8232 68.9681L78.5027 68.2344L70.198 60.544L69.5186 61.2777L68.8391 62.0114L77.1438 69.7019L77.8232 68.9681ZM69.5186 61.2777L68.7646 60.6208L23.7421 112.296L24.4961 112.953L25.2501 113.609L70.2725 61.9346L69.5186 61.2777ZM24.4961 112.953V113.953H39.4521V112.953V111.953H24.4961V112.953ZM39.4521 112.953V113.953C40.8993 113.953 42.0663 115.119 42.0664 116.566L43.0664 116.566L44.0664 116.566C44.0662 114.014 42.0034 111.953 39.4521 111.953V112.953ZM43.0664 116.566H42.0664V164.126H43.0664H44.0664V116.566H43.0664ZM43.0664 164.126L42.0664 164.126C42.0663 165.573 40.899 166.741 39.4521 166.741V167.741V168.741C42.0037 168.741 44.0663 166.678 44.0664 164.126L43.0664 164.126ZM39.4521 167.741L39.4522 166.741C38.0053 166.741 36.838 165.573 36.8379 164.126L35.8379 164.126L34.8379 164.126C34.838 166.678 36.9006 168.741 39.4521 168.741L39.4521 167.741ZM35.8379 164.126H36.8379V120.18H35.8379H34.8379V164.126H35.8379ZM35.8379 120.18V119.18H16.5371V120.18V121.18H35.8379V120.18ZM16.5371 120.18L16.5371 119.18C15.4895 119.18 14.5538 118.588 14.1454 117.662L13.2305 118.066L12.3156 118.469C13.0606 120.158 14.7397 121.18 16.5371 121.18L16.5371 120.18ZM13.2305 118.066L14.1454 117.662C13.7256 116.711 13.8921 115.62 14.5669 114.833L13.8076 114.182L13.0484 113.531C11.8776 114.897 11.5819 116.807 12.3156 118.469L13.2305 118.066ZM13.8076 114.182L14.5615 114.839L67.2734 54.3605L66.5195 53.7035L65.7657 53.0464L13.0538 113.525L13.8076 114.182ZM66.5195 53.7035L67.2647 54.3703C67.7515 53.8264 68.4265 53.5 69.0976 53.4732L69.0576 52.474L69.0176 51.4748C67.7665 51.5248 66.5948 52.1198 65.7743 53.0366L66.5195 53.7035ZM264.065 52.474L264.027 53.4732C264.728 53.5002 265.366 53.8209 265.857 54.3704L266.603 53.7035L267.348 53.0366C266.532 52.1256 265.401 51.5247 264.104 51.4747L264.065 52.474ZM266.603 53.7035L265.849 54.3605L318.562 114.839L319.315 114.182L320.069 113.525L267.356 53.0464L266.603 53.7035ZM319.315 114.182L318.569 114.848C319.254 115.614 319.405 116.692 318.977 117.662L319.892 118.066L320.807 118.469C321.532 116.825 321.299 114.903 320.061 113.516L319.315 114.182ZM319.892 118.066L318.992 117.629C318.534 118.574 317.602 119.18 316.585 119.18V120.18V121.18C318.413 121.18 320.019 120.095 320.791 118.502L319.892 118.066ZM316.585 120.18V119.18H297.284V120.18V121.18H316.585V120.18ZM297.284 120.18H296.284V164.126H297.284H298.284V120.18H297.284ZM297.284 164.126L296.284 164.126C296.284 165.573 295.117 166.741 293.67 166.741V167.741V168.741C296.221 168.741 298.284 166.678 298.284 164.126L297.284 164.126ZM293.67 167.741L293.67 166.741C292.223 166.74 291.057 165.573 291.057 164.126L290.057 164.126L289.057 164.126C289.057 166.677 291.118 168.74 293.67 168.741L293.67 167.741ZM290.057 164.126H291.057V116.566H290.057H289.057V164.126H290.057ZM290.057 116.566L291.057 116.566C291.057 115.119 292.223 113.953 293.67 113.953L293.67 112.953L293.67 111.953C291.119 111.953 289.057 114.014 289.057 116.566L290.057 116.566ZM293.67 112.953V113.953H308.627V112.953V111.953H293.67V112.953ZM308.627 112.953L309.381 112.296L264.357 60.6208L263.604 61.2777L262.85 61.9346L307.873 113.609L308.627 112.953ZM263.604 61.2777L262.924 60.544L254.619 68.2344L255.299 68.9681L255.978 69.7019L264.283 62.0114L263.604 61.2777ZM255.299 68.9681L254.621 68.2325C253.56 69.2099 251.886 69.1461 250.921 68.0982L250.186 68.7757L249.45 69.4533C251.176 71.3269 254.116 71.4169 255.976 69.7038L255.299 68.9681ZM250.186 68.7757L250.921 68.0983C249.943 67.0368 250.007 65.3624 251.055 64.397L250.378 63.6615L249.7 62.9259C247.827 64.6519 247.736 67.5926 249.45 69.4532L250.186 68.7757ZM250.378 63.6615L251.058 64.3949L262.092 54.1684L261.412 53.4349L260.732 52.7015L249.698 62.9281L250.378 63.6615ZM261.412 53.4349L262.079 54.1802C262.618 53.698 263.327 53.4452 264.025 53.4732L264.065 52.474L264.105 51.4748C262.882 51.4258 261.667 51.8646 260.745 52.6897L261.412 53.4349Z" fill="#05A6A6"/>
</svg>
