<svg width="56" height="62" viewBox="0 0 56 62" fill="none" xmlns="http://www.w3.org/2000/svg">
<path d="M49 16V15.4C49 10.3595 49 7.83929 48.0191 5.91409C47.1562 4.22063 45.7794 2.8438 44.0859 1.98094C42.1607 1 39.6405 1 34.6 1H15.4C10.3595 1 7.83929 1 5.91409 1.98094C4.22063 2.8438 2.8438 4.22063 1.98094 5.91409C1 7.83929 1 10.3595 1 15.4V46.6C1 51.6405 1 54.1607 1.98094 56.0859C2.8438 57.7794 4.22063 59.1562 5.91409 60.0191C7.83929 61 10.3595 61 15.4 61H26.5M26.5 28H13M23.5 40H13M37 16H13M46 31.6691H49C52.3137 31.6691 55 34.4897 55 37.9691M46 31.6691H43C39.6863 31.6691 37 34.4897 37 37.9691C37 41.4485 39.6863 44.2691 43 44.2691H46M46 31.6691V28.5191M46 31.6691V44.2691M46 44.2691H49C52.3137 44.2691 55 47.0897 55 50.5691C55 54.0485 52.3137 56.8691 49 56.8691H46M46 44.2691V56.8691M46 56.8691H43C39.6863 56.8691 37 54.0485 37 50.5691M46 56.8691V60.0191" stroke="url(#paint0_linear_1008_4195)" stroke-width="2" stroke-linecap="round" stroke-linejoin="round"/>
<defs>
<linearGradient id="paint0_linear_1008_4195" x1="28" y1="1" x2="28" y2="61" gradientUnits="userSpaceOnUse">
<stop stop-color="#05A6A6"/>
<stop offset="1" stop-color="#0D5B6A"/>
</linearGradient>
</defs>
</svg>
