<svg width="30" height="30" viewBox="0 0 30 30" fill="none" xmlns="http://www.w3.org/2000/svg">
<path d="M4.33464 23.0001V22.7334C4.33464 20.4932 4.33464 19.3731 4.77061 18.5175C5.1541 17.7648 5.76602 17.1529 6.51867 16.7694C7.37432 16.3334 8.49443 16.3334 10.7346 16.3334H19.268C21.5082 16.3334 22.6283 16.3334 23.4839 16.7694C24.2366 17.1529 24.8485 17.7648 25.232 18.5175C25.668 19.3731 25.668 20.4932 25.668 22.7334V23.0001M4.33464 23.0001C2.86188 23.0001 1.66797 24.194 1.66797 25.6667C1.66797 27.1395 2.86188 28.3334 4.33464 28.3334C5.80739 28.3334 7.0013 27.1395 7.0013 25.6667C7.0013 24.194 5.80739 23.0001 4.33464 23.0001ZM25.668 23.0001C24.1952 23.0001 23.0013 24.194 23.0013 25.6667C23.0013 27.1395 24.1952 28.3334 25.668 28.3334C27.1407 28.3334 28.3346 27.1395 28.3346 25.6667C28.3346 24.194 27.1407 23.0001 25.668 23.0001ZM15.0013 23.0001C13.5285 23.0001 12.3346 24.194 12.3346 25.6667C12.3346 27.1395 13.5285 28.3334 15.0013 28.3334C16.4741 28.3334 17.668 27.1395 17.668 25.6667C17.668 24.194 16.4741 23.0001 15.0013 23.0001ZM15.0013 23.0001V9.66675M7.0013 9.66675H23.0013C24.2438 9.66675 24.8651 9.66675 25.3551 9.46376C26.0085 9.19311 26.5277 8.67398 26.7983 8.02057C27.0013 7.53051 27.0013 6.90926 27.0013 5.66675C27.0013 4.42424 27.0013 3.80298 26.7983 3.31293C26.5277 2.65952 26.0085 2.14039 25.3551 1.86974C24.8651 1.66675 24.2438 1.66675 23.0013 1.66675H7.0013C5.75879 1.66675 5.13754 1.66675 4.64748 1.86974C3.99407 2.14039 3.47494 2.65952 3.20429 3.31293C3.0013 3.80298 3.0013 4.42424 3.0013 5.66675C3.0013 6.90926 3.0013 7.53051 3.20429 8.02057C3.47494 8.67398 3.99407 9.19311 4.64748 9.46376C5.13754 9.66675 5.75879 9.66675 7.0013 9.66675Z" stroke="url(#paint0_linear_928_1801)" stroke-width="2" stroke-linecap="round" stroke-linejoin="round"/>
<defs>
<linearGradient id="paint0_linear_928_1801" x1="15.0013" y1="1.66675" x2="15.0013" y2="28.3334" gradientUnits="userSpaceOnUse">
<stop stop-color="#05A6A6"/>
<stop offset="1" stop-color="#0D5B6A"/>
</linearGradient>
</defs>
</svg>
