<svg width="32" height="33" viewBox="0 0 32 33" fill="none" xmlns="http://www.w3.org/2000/svg">
<path d="M5.73838 9.94619C6.40151 9.94619 7.02409 9.77129 7.56407 9.46501L10.4374 12.3717C10.8431 11.6824 11.4266 11.1128 12.1242 10.7279L9.14802 7.7173C9.35912 7.24363 9.47676 6.71797 9.47676 6.1645C9.47676 4.07589 7.80307 2.38281 5.73838 2.38281C3.67369 2.38281 2 4.07589 2 6.1645C2 8.25311 3.67369 9.94619 5.73838 9.94619ZM5.73838 4.03349C6.90191 4.03349 7.84499 4.98763 7.84499 6.1645C7.84499 7.34137 6.90177 8.29551 5.73838 8.29551C4.57499 8.29551 3.63177 7.34137 3.63177 6.1645C3.63177 4.98763 4.57499 4.03349 5.73838 4.03349Z" fill="url(#paint0_linear_1033_4680)"/>
<path d="M26.2608 22.82C25.5977 22.82 24.9751 22.9949 24.4351 23.3012L21.5617 20.3945C21.156 21.0838 20.5726 21.6534 19.875 22.0383L22.8512 25.0489C22.6401 25.5226 22.5224 26.0482 22.5224 26.6017C22.5224 28.6903 24.1961 30.3834 26.2608 30.3834C28.3255 30.3834 29.9992 28.6903 29.9992 26.6017C29.9992 24.5131 28.3255 22.82 26.2608 22.82ZM26.2608 24.4705C27.4243 24.4705 28.3674 25.4247 28.3674 26.6016C28.3674 27.7784 27.4242 28.7326 26.2608 28.7326C25.0974 28.7326 24.1542 27.7784 24.1542 26.6016C24.1542 25.4247 25.0974 24.4705 26.2608 24.4705Z" fill="url(#paint1_linear_1033_4680)"/>
<path d="M21.6918 16.4262C21.6918 15.3008 21.3702 14.2514 20.815 13.3669L23.1854 10.9691C23.6536 11.1826 24.1732 11.3017 24.7204 11.3017C26.7851 11.3017 28.4587 9.60858 28.4587 7.51997C28.4587 5.43136 26.7851 3.73828 24.7204 3.73828C22.6557 3.73828 20.982 5.43136 20.982 7.51997C20.982 8.19078 21.1549 8.82057 21.4576 9.36681L19.1788 11.672C18.2815 11.0649 17.2026 10.7108 16.042 10.7108C13.3782 10.7108 11.145 12.5757 10.5486 15.0851H9.26602C9.0842 14.5991 8.79984 14.1434 8.4131 13.7522C6.95312 12.2753 4.58621 12.2753 3.12623 13.7522C1.66626 15.229 1.66626 17.6234 3.12623 19.1003C4.58621 20.5772 6.95312 20.5772 8.4131 19.1003C8.88203 18.6259 9.20006 18.0569 9.36773 17.454H10.4833C10.9618 20.12 13.2686 22.1415 16.042 22.1415C19.1623 22.1415 21.6918 19.5827 21.6918 16.4262ZM24.7202 5.38895C25.8838 5.38895 26.8268 6.3431 26.8268 7.51997C26.8268 8.69684 25.8836 9.65098 24.7202 9.65098C23.5568 9.65098 22.6136 8.69684 22.6136 7.51997C22.6136 6.3431 23.5568 5.38895 24.7202 5.38895ZM16.0419 19.9126C14.1385 19.9126 12.5955 18.3517 12.5955 16.4263C12.5955 14.501 14.1385 12.9401 16.0419 12.9401C17.9452 12.9401 19.4882 14.501 19.4882 16.4263C19.4882 18.3517 17.9452 19.9126 16.0419 19.9126ZM5.73929 14.2952C6.90282 14.2952 7.8459 15.2493 7.8459 16.4262C7.8459 17.6031 6.90268 18.5572 5.73929 18.5572C4.5759 18.5572 3.63268 17.6031 3.63268 16.4262C3.63268 15.2493 4.5759 14.2952 5.73929 14.2952Z" fill="url(#paint2_linear_1033_4680)"/>
<defs>
<linearGradient id="paint0_linear_1033_4680" x1="7.06209" y1="2.38281" x2="7.06209" y2="12.3717" gradientUnits="userSpaceOnUse">
<stop stop-color="#05A6A6"/>
<stop offset="1" stop-color="#0D5B6A"/>
</linearGradient>
<linearGradient id="paint1_linear_1033_4680" x1="24.9371" y1="20.3945" x2="24.9371" y2="30.3834" gradientUnits="userSpaceOnUse">
<stop stop-color="#05A6A6"/>
<stop offset="1" stop-color="#0D5B6A"/>
</linearGradient>
<linearGradient id="paint2_linear_1033_4680" x1="15.245" y1="3.73828" x2="15.245" y2="22.1415" gradientUnits="userSpaceOnUse">
<stop stop-color="#05A6A6"/>
<stop offset="1" stop-color="#0D5B6A"/>
</linearGradient>
</defs>
</svg>
