<svg width="62" height="61" viewBox="0 0 62 61" fill="none" xmlns="http://www.w3.org/2000/svg">
<path d="M57.5001 58.0009H33.5001M2 59.5009L18.6478 53.0979C19.7126 52.6884 20.245 52.4836 20.7432 52.2162C21.1856 51.9787 21.6074 51.7046 22.0041 51.3967C22.4508 51.0501 22.8541 50.6468 23.6608 49.8401L57.5001 16.0009C60.8138 12.6872 60.8138 7.31462 57.5001 4.00091C54.1864 0.687201 48.8138 0.687197 45.5001 4.0009L11.6608 37.8401C10.8541 38.6468 10.4508 39.0501 10.1042 39.4968C9.79632 39.8935 9.5222 40.3153 9.2847 40.7578C9.01732 41.2559 8.81255 41.7883 8.403 42.8531L2 59.5009ZM2 59.5009L8.17436 43.4478C8.61619 42.299 8.83711 41.7247 9.21602 41.4616C9.54716 41.2316 9.95691 41.1447 10.3529 41.2203C10.806 41.3068 11.2411 41.742 12.1114 42.6123L18.8887 49.3895C19.759 50.2598 20.1942 50.695 20.2807 51.1481C20.3563 51.5441 20.2694 51.9538 20.0394 52.285C19.7763 52.6639 19.202 52.8848 18.0532 53.3266L2 59.5009Z" stroke="#F7C948" stroke-width="3" stroke-linecap="round" stroke-linejoin="round"/>
</svg>
