<svg width="187" height="187" viewBox="0 0 187 187" fill="none" xmlns="http://www.w3.org/2000/svg">
<path d="M26.0723 103.046C27.6759 103.051 29.0728 103.073 30.2676 103.171C31.9014 103.304 33.4635 103.595 34.9482 104.352L35.3662 104.575C37.4326 105.733 39.1138 107.479 40.1924 109.596L40.3281 109.875C40.984 111.276 41.2479 112.744 41.3731 114.276C41.4712 115.478 41.4929 116.883 41.4981 118.498L61.5488 110.113C61.5775 110.1 61.6136 110.084 61.6563 110.064C61.7746 110.011 61.946 109.935 62.165 109.839C62.6039 109.646 63.2354 109.372 64.0166 109.045C65.5767 108.392 67.7474 107.519 70.1875 106.645C74.909 104.952 81.1909 103.044 85.9668 103.044C89.6421 103.044 93.2986 103.482 96.8682 104.348H96.8701L117.144 109.278H117.145C124.62 111.091 129.967 117.667 129.967 125.321V127.93C129.967 130.597 129.325 133.103 128.192 135.319C128.508 135.125 128.816 134.918 129.116 134.699L129.119 134.697L150.493 119.104V119.104L150.81 118.879C157.49 114.236 166.66 114.943 172.513 120.636L172.819 120.942C179.16 127.432 179.061 137.729 172.511 144.09L172.51 144.089L154.174 161.927C148.743 167.21 141.825 170.806 134.319 172.269H134.318L108.397 177.312H108.396C102.763 178.406 96.9539 178.274 91.375 176.915V176.914L67.9336 171.219L67.9258 171.217C65.3975 170.596 62.8023 170.285 60.1875 170.285H41.499C41.4978 172.242 41.4872 173.915 41.3731 175.312C41.2479 176.843 40.984 178.312 40.3281 179.713L40.1924 179.992C39.1138 182.109 37.4326 183.855 35.3662 185.013L34.9482 185.236C33.4635 185.993 31.9014 186.284 30.2676 186.417C29.0728 186.515 27.6759 186.537 26.0723 186.542L24.4004 186.544H17.5996C15.2774 186.544 13.3253 186.546 11.7324 186.416C10.2006 186.291 8.73213 186.028 7.33106 185.372L7.05176 185.236C4.93497 184.158 3.18915 182.477 2.03126 180.41L1.80762 179.992C1.05111 178.507 0.760449 176.945 0.62696 175.312C0.496838 173.719 0.500007 171.767 0.500007 169.444V120.144C0.500007 117.821 0.496837 115.869 0.62696 114.276C0.76045 112.643 1.0511 111.08 1.80762 109.596L2.03126 109.178C3.18915 107.111 4.93496 105.43 7.05176 104.352L7.33106 104.216C8.73213 103.56 10.2006 103.296 11.7324 103.171C13.3253 103.041 15.2774 103.044 17.5996 103.044H24.4004L26.0723 103.046ZM17.5996 110.044C15.1619 110.044 13.5435 110.047 12.3018 110.148C11.2509 110.234 10.7079 110.377 10.3652 110.525L10.2305 110.589C9.34842 111.038 8.62016 111.739 8.1377 112.6L8.04493 112.774C7.87509 113.108 7.70259 113.646 7.6045 114.846C7.50305 116.087 7.50001 117.706 7.50001 120.144V169.444C7.50001 171.882 7.50305 173.5 7.6045 174.742C7.70259 175.942 7.87509 176.48 8.04493 176.813L8.1377 176.988C8.62016 177.849 9.34843 178.55 10.2305 178.999L10.3652 179.062C10.7079 179.211 11.2509 179.354 12.3018 179.439C13.5435 179.541 15.1619 179.544 17.5996 179.544H24.4004L26.082 179.542C27.6236 179.536 28.767 179.516 29.6982 179.439C30.8984 179.341 31.4361 179.169 31.7695 178.999L31.9443 178.906C32.8054 178.424 33.5056 177.696 33.9551 176.813L34.0186 176.679C34.1668 176.336 34.3096 175.793 34.3955 174.742C34.497 173.5 34.5 171.882 34.5 169.444V120.144C34.5 117.706 34.497 116.087 34.3955 114.846C34.3096 113.795 34.1668 113.252 34.0186 112.909L33.9551 112.774C33.5057 111.892 32.8054 111.164 31.9443 110.682L31.7695 110.589C31.4361 110.419 30.8984 110.247 29.6982 110.148C28.767 110.072 27.6236 110.051 26.082 110.046L24.4004 110.044H17.5996ZM85.9668 110.044C82.5419 110.044 77.3008 111.531 72.5498 113.233C70.2538 114.056 68.2002 114.881 66.7207 115.501C65.9822 115.81 65.3894 116.068 64.9844 116.246C64.7821 116.335 64.6264 116.404 64.5234 116.45C64.4721 116.473 64.4339 116.491 64.4092 116.502C64.3969 116.508 64.3882 116.512 64.3828 116.515C64.3801 116.516 64.3779 116.516 64.377 116.517L64.2715 116.562L41.5 126.085V163.285H60.1875C63.3584 163.285 66.5143 163.662 69.5947 164.418H69.5938L93.0303 170.113L93.0322 170.114L93.8955 170.312C98.2244 171.243 102.705 171.286 107.062 170.44L132.981 165.397L133.56 165.279C139.524 164.005 144.989 161.095 149.292 156.909L167.632 139.069L167.634 139.067L167.98 138.713C171.338 135.106 171.342 129.626 167.979 126.009L167.632 125.653C164.146 122.263 158.583 121.869 154.618 124.76L154.617 124.759L133.245 140.353L133.244 140.352C129.575 143.032 125.127 144.468 120.566 144.468H99.9268C97.9939 144.468 96.4269 142.901 96.4268 140.968C96.4267 139.035 97.9938 137.468 99.9268 137.468L113.063 137.467H113.064L113.582 137.454C118.894 137.194 122.967 132.947 122.967 127.93V125.321C122.967 121.014 119.945 117.16 115.495 116.081H115.492L95.2178 111.149V111.15C92.1879 110.416 89.0856 110.044 85.9668 110.044ZM146.051 0.738281C149.373 0.738341 152.073 3.43862 152.073 6.76074V9.58496C156.894 11.3497 161.432 13.9759 165.39 17.29L167.851 15.8701L168.114 15.7266C169.445 15.0429 170.967 14.8792 172.421 15.2686L172.709 15.3535C174.038 15.7804 175.166 16.6451 175.922 17.8184L176.078 18.0742L185.316 34.0752L185.46 34.3389C186.144 35.6695 186.307 37.1915 185.918 38.6455C185.528 40.0997 184.625 41.3361 183.368 42.1465L183.111 42.3027L180.653 43.7217C181.1 46.2714 181.327 48.8494 181.327 51.4121C181.327 53.9449 181.096 56.52 180.641 59.0938L183.111 60.5205L183.376 60.6826C185.962 62.3561 186.867 65.7333 185.465 68.4756L185.316 68.748L176.078 84.749C174.469 87.536 170.957 88.551 168.123 87.1016L167.851 86.9531L165.37 85.5215C161.403 88.8464 156.872 91.4758 152.073 93.2363V96.0625C152.073 99.3848 149.373 102.085 146.051 102.085H127.574C124.252 102.085 121.552 99.3847 121.552 96.0625V93.2383C116.731 91.4733 112.194 88.8466 108.235 85.5322L105.774 86.9531C102.987 88.5622 99.4384 87.6854 97.709 85.0137L97.5469 84.749L88.3086 68.748C86.648 65.8708 87.6365 62.1817 90.5137 60.5205L92.9707 59.1006C92.5237 56.5513 92.2979 53.9739 92.2979 51.4121C92.2979 48.879 92.5281 46.3033 92.9834 43.7295L90.5137 42.3027C89.1229 41.4999 88.1226 40.1968 87.707 38.6455C87.2916 37.0946 87.5055 35.4661 88.3086 34.0752L97.5469 18.0742L97.7031 17.8184C98.5136 16.5611 99.75 15.6583 101.204 15.2686C102.755 14.8528 104.384 15.0672 105.774 15.8701L108.253 17.3018C112.221 13.9762 116.753 11.3466 121.552 9.58594V6.76074C121.552 3.43871 124.252 0.738503 127.574 0.738281H146.051ZM127.574 6.625C127.501 6.62534 127.439 6.68746 127.438 6.76074V11.6963C127.438 12.9059 126.7 13.9832 125.593 14.4277L125.366 14.5088C120.131 16.1308 115.176 18.9588 111.012 22.7031L110.611 23.0684C109.724 23.889 108.432 24.0785 107.354 23.5674L107.141 23.4561L102.831 20.9678C102.812 20.9567 102.795 20.952 102.781 20.9502L102.729 20.9541L102.728 20.9551C102.706 20.9609 102.691 20.9691 102.68 20.9775L102.646 21.0176L93.4072 37.0186C93.3961 37.0378 93.3915 37.0546 93.3897 37.0684C93.3878 37.0822 93.3877 37.1001 93.3936 37.1221L93.416 37.1699C93.4245 37.181 93.4376 37.1929 93.457 37.2041L97.7578 39.6875L97.9609 39.8164C98.8764 40.4491 99.3571 41.547 99.2012 42.6484L99.1582 42.8848C98.5114 45.7527 98.1846 48.6222 98.1846 51.4121C98.1846 54.2551 98.5064 57.1274 99.1426 59.9473L99.1865 60.1836C99.3425 61.2853 98.8615 62.383 97.9463 63.0156L97.7432 63.1445L93.457 65.6191C93.3934 65.6561 93.3707 65.7411 93.4072 65.8047L102.646 81.8057L102.681 81.8457C102.723 81.8771 102.783 81.8831 102.831 81.8555L107.121 79.3789L107.295 79.2861C107.706 79.0841 108.15 78.9845 108.592 78.9844L108.862 78.9971C109.492 79.0551 110.103 79.3157 110.592 79.7676L110.99 80.1309C115.133 83.8565 120.095 86.6823 125.366 88.3154L125.593 88.3955C126.7 88.84 127.438 89.9174 127.438 91.127V96.0625C127.438 96.136 127.501 96.198 127.574 96.1982H146.051C146.124 96.1982 146.187 96.1361 146.187 96.0625V91.127C146.187 89.8368 147.027 88.6973 148.259 88.3154L148.765 88.1543C153.982 86.4548 158.902 83.5582 163.015 79.7549L163.197 79.5996C164.136 78.8632 165.438 78.7626 166.485 79.3672H166.484L170.794 81.8555L170.845 81.8721C170.897 81.8784 170.952 81.8534 170.979 81.8057L180.218 65.8047L180.234 65.7539C180.241 65.7013 180.216 65.6468 180.168 65.6191V65.6182L175.867 63.1357C174.752 62.4914 174.185 61.1963 174.468 59.9395L174.695 58.8633C175.191 56.3549 175.44 53.8531 175.44 51.4121C175.44 48.9237 175.194 46.4134 174.706 43.9355L174.482 42.876C174.199 41.6191 174.766 40.3241 175.882 39.6797L180.169 37.2041L180.209 37.1699C180.217 37.1589 180.227 37.144 180.232 37.1221C180.238 37.1005 180.238 37.0831 180.236 37.0693L180.219 37.0186L170.98 21.0176V21.0186C170.971 21.0016 170.96 20.9879 170.946 20.9775L170.897 20.9551V20.9541C170.876 20.9484 170.859 20.9484 170.845 20.9502C170.831 20.952 170.814 20.9573 170.794 20.9688L170.793 20.9678L166.505 23.4453C165.458 24.0497 164.156 23.9488 163.217 23.2119L163.034 23.0566C158.813 19.1507 153.7 16.1944 148.259 14.5088V14.5078C147.027 14.1259 146.187 12.9863 146.187 11.6963V6.76074C146.186 6.68726 146.124 6.625 146.051 6.625H127.574ZM136.812 20.7539C153.718 20.7539 167.469 34.5054 167.47 51.4111C167.47 68.317 153.718 82.0693 136.812 82.0693C119.906 82.069 106.154 68.3168 106.154 51.4111C106.155 34.5056 119.906 20.7542 136.812 20.7539ZM136.812 26.6406C123.155 26.641 112.041 37.7543 112.041 51.4111C112.041 65.0682 123.155 76.1823 136.812 76.1826C150.469 76.1826 161.583 65.0684 161.583 51.4111C161.583 37.7541 150.469 26.6406 136.812 26.6406ZM136.812 31.6602C137.887 31.6602 138.759 32.5973 138.759 33.7529V35.8457H139.841C144.262 35.8457 147.846 39.6964 147.847 44.4473C147.847 45.6028 146.975 46.5399 145.899 46.54C144.824 46.54 143.952 45.6029 143.952 44.4473C143.952 42.0078 142.111 40.0313 139.841 40.0312H134.216C131.707 40.0314 129.673 42.2165 129.673 44.9131C129.673 47.6097 131.707 49.7948 134.216 49.7949H139.409C144.069 49.7953 147.847 53.8565 147.847 58.8643C147.846 63.8719 144.069 67.9313 139.409 67.9316H138.759V70.0244C138.759 71.1801 137.887 72.1172 136.812 72.1172C135.736 72.1167 134.864 71.1799 134.864 70.0244V67.9316H133.782C129.362 67.931 125.779 64.079 125.779 59.3281C125.78 58.1728 126.651 57.2363 127.727 57.2363C128.801 57.2369 129.672 58.1731 129.673 59.3281C129.673 61.7676 131.512 63.7464 133.782 63.7471H139.409C141.918 63.7467 143.952 61.5604 143.952 58.8643C143.952 56.1679 141.918 53.9808 139.409 53.9805H134.216C129.556 53.9803 125.779 49.9211 125.779 44.9131C125.779 39.905 129.556 35.8459 134.216 35.8457H134.864V33.7529C134.864 32.5975 135.737 31.6606 136.812 31.6602Z" fill="url(#paint0_linear_1332_2241)"/>
<defs>
<linearGradient id="paint0_linear_1332_2241" x1="93.3125" y1="0.738281" x2="93.3125" y2="186.544" gradientUnits="userSpaceOnUse">
<stop stop-color="#0BE6E6"/>
<stop offset="1" stop-color="#0B9292" stop-opacity="0.45"/>
</linearGradient>
</defs>
</svg>
