<svg width="72" height="72" viewBox="0 0 72 72" fill="none" xmlns="http://www.w3.org/2000/svg">
<path d="M36 45H24C18.4087 45 15.6131 45 13.4078 45.9134C10.4675 47.1314 8.13137 49.4675 6.91345 52.4078C6 54.6131 6 57.4087 6 63M46.5 9.87228C50.8977 11.6524 54 15.9639 54 21C54 26.0361 50.8977 30.3476 46.5 32.1277M40.5 21C40.5 27.6274 35.1274 33 28.5 33C21.8726 33 16.5 27.6274 16.5 21C16.5 14.3726 21.8726 9 28.5 9C35.1274 9 40.5 14.3726 40.5 21Z" stroke="#F7C948" stroke-width="3" stroke-linecap="round" stroke-linejoin="round"/>
<path d="M52.875 58.8375C54.9254 58.8375 56.5875 57.1754 56.5875 55.125C56.5875 53.0746 54.9254 51.4125 52.875 51.4125C50.8246 51.4125 49.1625 53.0746 49.1625 55.125C49.1625 57.1754 50.8246 58.8375 52.875 58.8375Z" stroke="#F7C948" stroke-width="2" stroke-linecap="round" stroke-linejoin="round"/>
<path d="M61.2 58.5C61.0502 58.8393 61.0056 59.2157 61.0717 59.5807C61.1379 59.9456 61.3119 60.2824 61.5712 60.5475L61.6388 60.615C61.8479 60.824 62.0139 61.0721 62.1271 61.3453C62.2404 61.6184 62.2986 61.9112 62.2986 62.2069C62.2986 62.5026 62.2404 62.7953 62.1271 63.0685C62.0139 63.3416 61.8479 63.5898 61.6388 63.7987C61.4298 64.0079 61.1816 64.1739 60.9085 64.2871C60.6353 64.4004 60.3426 64.4586 60.0469 64.4586C59.7512 64.4586 59.4584 64.4004 59.1853 64.2871C58.9121 64.1739 58.664 64.0079 58.455 63.7987L58.3875 63.7313C58.1224 63.4719 57.7856 63.2979 57.4207 63.2317C57.0557 63.1656 56.6793 63.2102 56.34 63.36C56.0073 63.5026 55.7235 63.7394 55.5236 64.0412C55.3237 64.3431 55.2164 64.6967 55.215 65.0587V65.25C55.215 65.8467 54.9779 66.419 54.556 66.841C54.134 67.2629 53.5617 67.5 52.965 67.5C52.3683 67.5 51.796 67.2629 51.374 66.841C50.9521 66.419 50.715 65.8467 50.715 65.25V65.1488C50.7063 64.7764 50.5858 64.4152 50.3691 64.1123C50.1524 63.8093 49.8496 63.5786 49.5 63.45C49.1607 63.3002 48.7843 63.2556 48.4193 63.3217C48.0544 63.3879 47.7176 63.5619 47.4525 63.8212L47.385 63.8888C47.176 64.0979 46.9279 64.2639 46.6547 64.3771C46.3816 64.4904 46.0888 64.5486 45.7931 64.5486C45.4974 64.5486 45.2047 64.4904 44.9315 64.3771C44.6584 64.2639 44.4102 64.0979 44.2012 63.8888C43.9921 63.6798 43.8261 63.4316 43.7129 63.1585C43.5996 62.8853 43.5414 62.5926 43.5414 62.2969C43.5414 62.0012 43.5996 61.7084 43.7129 61.4353C43.8261 61.1621 43.9921 60.914 44.2012 60.705L44.2688 60.6375C44.5281 60.3724 44.7021 60.0356 44.7683 59.6707C44.8344 59.3057 44.7898 58.9293 44.64 58.59C44.4974 58.2573 44.2606 57.9735 43.9588 57.7736C43.6569 57.5737 43.3033 57.4664 42.9413 57.465H42.75C42.1533 57.465 41.581 57.2279 41.159 56.806C40.7371 56.384 40.5 55.8117 40.5 55.215C40.5 54.6183 40.7371 54.046 41.159 53.624C41.581 53.2021 42.1533 52.965 42.75 52.965H42.8513C43.2236 52.9563 43.5848 52.8358 43.8877 52.6191C44.1907 52.4024 44.4214 52.0996 44.55 51.75C44.6998 51.4107 44.7444 51.0343 44.6783 50.6693C44.6121 50.3044 44.4381 49.9676 44.1788 49.7025L44.1113 49.635C43.9021 49.426 43.7361 49.1779 43.6229 48.9047C43.5096 48.6316 43.4514 48.3388 43.4514 48.0431C43.4514 47.7474 43.5096 47.4547 43.6229 47.1815C43.7361 46.9084 43.9021 46.6602 44.1113 46.4513C44.3202 46.2421 44.5684 46.0761 44.8415 45.9629C45.1147 45.8496 45.4074 45.7914 45.7031 45.7914C45.9988 45.7914 46.2916 45.8496 46.5647 45.9629C46.8379 46.0761 47.086 46.2421 47.295 46.4513L47.3625 46.5188C47.6276 46.7781 47.9644 46.9521 48.3293 47.0183C48.6943 47.0844 49.0707 47.0398 49.41 46.89H49.5C49.8327 46.7474 50.1165 46.5106 50.3164 46.2088C50.5163 45.9069 50.6236 45.5533 50.625 45.1913V45C50.625 44.4033 50.8621 43.831 51.284 43.409C51.706 42.9871 52.2783 42.75 52.875 42.75C53.4717 42.75 54.044 42.9871 54.466 43.409C54.8879 43.831 55.125 44.4033 55.125 45V45.1013C55.1264 45.4633 55.2337 45.8169 55.4336 46.1188C55.6335 46.4206 55.9173 46.6574 56.25 46.8C56.5893 46.9498 56.9657 46.9944 57.3307 46.9283C57.6956 46.8621 58.0324 46.6881 58.2975 46.4288L58.365 46.3613C58.574 46.1521 58.8221 45.9861 59.0953 45.8729C59.3684 45.7596 59.6612 45.7014 59.9569 45.7014C60.2526 45.7014 60.5453 45.7596 60.8185 45.8729C61.0916 45.9861 61.3398 46.1521 61.5487 46.3613C61.7579 46.5702 61.9239 46.8184 62.0371 47.0915C62.1504 47.3647 62.2086 47.6574 62.2086 47.9531C62.2086 48.2488 62.1504 48.5416 62.0371 48.8147C61.9239 49.0879 61.7579 49.336 61.5487 49.545L61.4813 49.6125C61.2219 49.8776 61.0479 50.2144 60.9817 50.5793C60.9156 50.9443 60.9602 51.3207 61.11 51.66V51.75C61.2526 52.0827 61.4894 52.3665 61.7912 52.5664C62.0931 52.7663 62.4467 52.8736 62.8087 52.875H63C63.5967 52.875 64.169 53.1121 64.591 53.534C65.0129 53.956 65.25 54.5283 65.25 55.125C65.25 55.7217 65.0129 56.294 64.591 56.716C64.169 57.1379 63.5967 57.375 63 57.375H62.8988C62.5367 57.3764 62.1831 57.4837 61.8812 57.6836C61.5794 57.8835 61.3426 58.1673 61.2 58.5Z" stroke="#F7C948" stroke-width="2" stroke-linecap="round" stroke-linejoin="round"/>
</svg>
