<svg width="30" height="29" viewBox="0 0 30 29" fill="none" xmlns="http://www.w3.org/2000/svg">
<path d="M10.3346 18.0554C10.3346 19.7736 11.7275 21.1665 13.4457 21.1665H16.3346C18.1756 21.1665 19.668 19.6741 19.668 17.8332C19.668 15.9922 18.1756 14.4998 16.3346 14.4998H13.668C11.827 14.4998 10.3346 13.0075 10.3346 11.1665C10.3346 9.32555 11.827 7.83317 13.668 7.83317H16.5569C18.2751 7.83317 19.668 9.22606 19.668 10.9443M15.0013 5.83317V7.83317M15.0013 21.1665V23.1665M28.3346 14.4998C28.3346 21.8636 22.3651 27.8332 15.0013 27.8332C7.6375 27.8332 1.66797 21.8636 1.66797 14.4998C1.66797 7.13604 7.6375 1.1665 15.0013 1.1665C22.3651 1.1665 28.3346 7.13604 28.3346 14.4998Z" stroke="url(#paint0_linear_928_1134)" stroke-width="2" stroke-linecap="round" stroke-linejoin="round"/>
<defs>
<linearGradient id="paint0_linear_928_1134" x1="15.0013" y1="1.1665" x2="15.0013" y2="27.8332" gradientUnits="userSpaceOnUse">
<stop stop-color="#05A6A6"/>
<stop offset="1" stop-color="#0D5B6A"/>
</linearGradient>
</defs>
</svg>
