<svg width="30" height="26" viewBox="0 0 30 26" fill="none" xmlns="http://www.w3.org/2000/svg">
<path d="M23.668 18.3333C26.2453 18.3333 28.3346 14.4531 28.3346 9.66667C28.3346 4.8802 26.2453 1 23.668 1M23.668 18.3333C21.0906 18.3333 19.0013 14.4531 19.0013 9.66667C19.0013 4.8802 21.0906 1 23.668 1M23.668 18.3333L6.25936 15.1681C5.0227 14.9433 4.40438 14.8309 3.9044 14.5853C2.88726 14.0856 2.12978 13.178 1.82016 12.0879C1.66797 11.5521 1.66797 10.9236 1.66797 9.66667C1.66797 8.40973 1.66797 7.78127 1.82016 7.24543C2.12978 6.15532 2.88726 5.2477 3.9044 4.74806C4.40438 4.50247 5.0227 4.39005 6.25936 4.1652L23.668 1M5.66797 15.6667L6.19311 23.0187C6.24298 23.7169 6.26792 24.0659 6.4198 24.3305C6.55353 24.5634 6.75449 24.7506 6.99636 24.8674C7.27107 25 7.62105 25 8.32102 25H10.6976C11.4978 25 11.8979 25 12.194 24.8404C12.4542 24.7002 12.6604 24.4775 12.7803 24.2073C12.9167 23.8998 12.886 23.5009 12.8246 22.703L12.3346 16.3333" stroke="white" stroke-width="2" stroke-linecap="round" stroke-linejoin="round"/>
</svg>
