<svg width="228" height="279" viewBox="0 0 228 279" fill="none" xmlns="http://www.w3.org/2000/svg">
<path d="M73.7513 133.292L100.585 160.125L160.96 99.7504M221.335 140C221.335 205.855 149.502 253.752 123.366 269C120.396 270.733 118.911 271.599 116.815 272.049C115.188 272.398 112.815 272.398 111.188 272.049C109.092 271.599 107.607 270.733 104.637 269C78.5003 253.752 6.66797 205.855 6.66797 140V75.8366C6.66797 65.1098 6.66797 59.7464 8.42234 55.136C9.97215 51.0632 12.4906 47.4291 15.7599 44.548C19.4607 41.2865 24.4826 39.4033 34.5264 35.6368L106.464 8.6603C109.253 7.61432 110.648 7.09134 112.082 6.88401C113.355 6.70012 114.648 6.70012 115.92 6.88401C117.355 7.09134 118.749 7.61432 121.539 8.6603L193.476 35.6368C203.52 39.4033 208.542 41.2865 212.243 44.548C215.512 47.4291 218.03 51.0632 219.58 55.136C221.335 59.7464 221.335 65.1098 221.335 75.8366V140Z" stroke="url(#paint0_linear_862_55)" stroke-width="13" stroke-linecap="round" stroke-linejoin="round"/>
<defs>
<linearGradient id="paint0_linear_862_55" x1="114.001" y1="6.74609" x2="114.001" y2="272.31" gradientUnits="userSpaceOnUse">
<stop stop-color="#0BE6E6"/>
<stop offset="1" stop-color="#0B9292" stop-opacity="0.45"/>
</linearGradient>
</defs>
</svg>
