<svg width="204" height="204" viewBox="0 0 204 204" fill="none" xmlns="http://www.w3.org/2000/svg">
<path d="M153.099 9.93848C155.308 9.93871 157.099 11.7295 157.099 13.9385V31.3574C162.5 33.3445 166.646 37.925 168.025 43.5918H189.439L189.646 43.5967C191.759 43.7042 193.439 45.452 193.439 47.5918C193.439 49.7315 191.759 51.4794 189.646 51.5869L189.439 51.5918H168.526V61.624H189.439L189.646 61.6289C191.759 61.7364 193.439 63.4842 193.439 65.624C193.439 67.7636 191.758 69.5117 189.646 69.6191L189.439 69.624H168.526V79.6553H189.439L189.646 79.6602C191.759 79.7676 193.439 81.5156 193.439 83.6553C193.439 85.795 191.759 87.5429 189.646 87.6504L189.439 87.6553H168.526V97.6904H189.439L189.646 97.6953C191.759 97.8028 193.439 99.5506 193.439 101.69C193.439 103.83 191.759 105.578 189.646 105.686L189.439 105.69H168.526V115.723H189.439L189.646 115.728C191.759 115.835 193.439 117.583 193.439 119.723C193.439 121.862 191.758 123.61 189.646 123.718L189.439 123.723H168.526V133.757H189.439L189.646 133.762C191.759 133.869 193.439 135.617 193.439 137.757C193.439 139.896 191.758 141.645 189.646 141.752L189.439 141.757H168.526V151.788H189.439L189.646 151.793C191.759 151.9 193.439 153.648 193.439 155.788C193.439 157.928 191.759 159.676 189.646 159.783L189.439 159.788H167.734C166.117 164.962 162.159 169.095 157.099 170.955V189.439L157.094 189.646C156.986 191.759 155.238 193.439 153.099 193.439C150.959 193.439 149.211 191.759 149.104 189.646L149.099 189.439V172.023H139.064V189.44C139.064 191.649 137.273 193.44 135.064 193.44C132.856 193.44 131.065 191.649 131.064 189.44V172.023H121.033V189.44C121.033 191.649 119.242 193.44 117.033 193.44C114.824 193.44 113.034 191.649 113.033 189.44V172.023H103.001V189.44C103 191.649 101.21 193.44 99.001 193.44C96.7923 193.44 95.0015 191.649 95.001 189.44V172.023H84.9668V189.44C84.9663 191.649 83.1754 193.44 80.9668 193.44C78.7581 193.44 76.9673 191.649 76.9668 189.44V172.023H66.9355V189.44C66.9351 191.649 65.1441 193.44 62.9355 193.44C60.7267 193.44 58.936 191.649 58.9355 189.44V172.023H48.9033V189.44C48.9029 191.649 47.112 193.44 44.9033 193.44C42.6947 193.44 40.9037 191.649 40.9033 189.44V170.953C35.8447 169.092 31.8906 164.959 30.2744 159.788H13.9375C11.7285 159.788 9.93773 157.997 9.9375 155.788C9.93759 153.579 11.7284 151.788 13.9375 151.788H29.4805V141.757H13.9375C11.7286 141.757 9.93792 139.966 9.9375 137.757C9.9375 135.548 11.7284 133.757 13.9375 133.757H29.4805V123.723H13.9375C11.7286 123.723 9.93796 121.931 9.9375 119.723C9.9375 117.514 11.7284 115.723 13.9375 115.723H29.4805V105.69H13.9375C11.7285 105.69 9.93773 103.899 9.9375 101.69C9.93752 99.4813 11.7284 97.6904 13.9375 97.6904H29.4805V87.6553H13.9375C11.7285 87.6553 9.93773 85.8642 9.9375 83.6553C9.93767 81.4463 11.7285 79.6553 13.9375 79.6553H29.4805V69.624H13.9375C11.7286 69.624 9.93784 67.8329 9.9375 65.624C9.9375 63.4149 11.7284 61.624 13.9375 61.624H29.4805V51.5918H13.9375C11.7285 51.5918 9.93773 49.8007 9.9375 47.5918C9.93764 45.3828 11.7284 43.5918 13.9375 43.5918H29.9775C31.3576 37.9245 35.5 33.3423 40.9033 31.3555V13.9385C40.9033 11.7295 42.6944 9.93873 44.9033 9.93848C47.1123 9.93871 48.9033 11.7295 48.9033 13.9385V30.2881H58.9355V13.9385C58.9355 11.7293 60.7264 9.93848 62.9355 9.93848C65.1444 9.93878 66.9355 11.7295 66.9355 13.9385V30.2881H76.9668V13.9385C76.9668 11.7295 78.7578 9.93868 80.9668 9.93848C83.1757 9.93871 84.9668 11.7295 84.9668 13.9385V30.2881H95.001V13.9385C95.001 11.7294 96.792 9.93864 99.001 9.93848C101.21 9.93871 103.001 11.7295 103.001 13.9385V30.2881H113.033V13.9385C113.033 11.7293 114.824 9.93848 117.033 9.93848C119.242 9.93887 121.033 11.7296 121.033 13.9385V30.2881H131.064V13.9385C131.064 11.7294 132.855 9.93858 135.064 9.93848C137.273 9.93871 139.064 11.7295 139.064 13.9385V30.2881H149.099V13.9385C149.099 11.7294 150.89 9.93854 153.099 9.93848ZM46.9229 38.2881C46.4398 38.2881 45.9617 38.3239 45.498 38.3936L45.499 38.3945C40.9927 39.0736 37.5293 42.9472 37.4805 47.6357V154.578C37.4805 154.726 37.484 154.871 37.4902 155.011L37.5176 155.42L37.5186 155.434C37.906 159.754 41.2133 163.244 45.4502 163.907C45.49 163.913 45.5299 163.919 45.5693 163.926C46.0116 163.989 46.4654 164.023 46.9248 164.023H62.8535C62.8806 164.023 62.9083 164.021 62.9355 164.021C62.9628 164.021 62.9904 164.023 63.0176 164.023H80.8848C80.9119 164.023 80.9395 164.021 80.9668 164.021C80.9939 164.021 81.0218 164.023 81.0488 164.023H98.9189C98.9461 164.023 98.9737 164.021 99.001 164.021C99.0282 164.021 99.056 164.023 99.083 164.023H116.951C116.978 164.023 117.006 164.021 117.033 164.021C117.06 164.021 117.088 164.023 117.115 164.023H134.982C135.01 164.023 135.037 164.021 135.064 164.021C135.092 164.021 135.119 164.023 135.146 164.023H151.08C151.443 164.023 151.802 164.003 152.155 163.963L152.391 163.931C152.462 163.918 152.533 163.907 152.605 163.898C156.778 163.223 160.038 159.805 160.475 155.557C160.479 155.476 160.487 155.396 160.496 155.316C160.515 155.065 160.526 154.817 160.526 154.578V137.921C160.524 137.867 160.522 137.812 160.522 137.757C160.522 137.702 160.524 137.646 160.526 137.592V119.887C160.524 119.832 160.522 119.777 160.522 119.723C160.522 119.668 160.524 119.612 160.526 119.558V101.854C160.524 101.8 160.522 101.745 160.522 101.69C160.522 101.635 160.524 101.58 160.526 101.525V83.8193C160.524 83.7652 160.522 83.71 160.522 83.6553C160.522 83.6004 160.524 83.5455 160.526 83.4912V65.7881C160.524 65.7338 160.522 65.6788 160.522 65.624C160.522 65.5689 160.524 65.5135 160.526 65.459V47.7559C160.526 47.7349 160.525 47.7134 160.524 47.6924C160.523 47.6732 160.523 47.653 160.522 47.6338C160.474 42.9489 157.008 39.0739 152.503 38.3945V38.3936C152.036 38.3237 151.561 38.2881 151.077 38.2881H46.9229ZM146.322 49.832C148.531 49.8326 150.322 51.6235 150.322 53.832V149.012C150.322 151.22 148.531 153.011 146.322 153.012H51.6777C49.4692 153.011 47.6782 151.22 47.6777 149.012V53.832C47.678 51.6233 49.469 49.8324 51.6777 49.832H146.322ZM55.6777 145.012H142.322V57.832H55.6777V145.012ZM73.252 92.1094C78.3707 92.1094 80.6297 96.313 80.6299 99.4873C80.6299 100.747 79.7442 101.576 78.5986 101.576H69.9912C70.4193 103.548 71.7927 104.58 73.7373 104.58C74.9372 104.58 75.9395 104.209 76.8252 103.551C77.1394 103.323 77.4262 103.206 77.8838 103.206C78.8561 103.206 79.5712 103.949 79.5713 104.921C79.5713 105.492 79.3142 105.923 79 106.208C77.6566 107.351 75.9122 108.065 73.6807 108.065V108.068C69.0763 108.068 65.6738 104.837 65.6738 100.146V100.089C65.6739 95.7147 68.7914 92.1096 73.252 92.1094ZM90.8389 87.4209C93.2684 87.4209 95.3863 88.0498 97.1875 89.1953C97.6724 89.4823 98.1602 90.081 98.1602 90.9395C98.1602 92.0824 97.2445 92.9706 96.1016 92.9707C95.6735 92.9707 95.3293 92.8567 94.9854 92.6562C93.5283 91.7979 92.1552 91.3136 90.7822 91.3135C89.0948 91.3135 88.209 92.0853 88.209 93.0576V93.1143C88.209 94.4305 89.0675 94.8584 92.5264 95.7441C96.5863 96.8031 98.8749 98.2606 98.875 101.749V101.806C98.875 105.782 95.8438 108.012 91.5264 108.012C88.8964 108.012 86.2365 107.21 84.0049 105.609H84.0029C83.518 105.265 83.1738 104.637 83.1738 103.951C83.1739 102.808 84.0894 101.92 85.2324 101.92C85.8036 101.92 86.2043 102.12 86.4912 102.32C88.0078 103.436 89.6658 104.122 91.6104 104.122C93.4114 104.122 94.4979 103.407 94.498 102.234V102.177C94.4978 101.061 93.8119 100.489 90.4648 99.6309C86.4322 98.6016 83.8321 97.486 83.832 93.5127V93.4561C83.832 89.8239 86.7491 87.4209 90.8389 87.4209ZM105.107 87.5352C106.337 87.5353 107.31 88.5077 107.31 89.7373V105.693C107.309 106.923 106.337 107.895 105.107 107.896C103.878 107.896 102.905 106.923 102.905 105.693V89.7373C102.905 88.5076 103.878 87.5352 105.107 87.5352ZM130.123 87.5898C131.353 87.5898 132.325 88.5615 132.325 89.791V105.69C132.325 106.92 131.353 107.893 130.123 107.893C128.894 107.892 127.951 106.89 127.951 105.69V95.71L124.092 101.657C123.634 102.343 123.062 102.773 122.261 102.773C121.459 102.773 120.887 102.345 120.43 101.657L116.627 95.7959V105.747C116.627 106.947 115.655 107.892 114.455 107.893C113.255 107.893 112.31 106.95 112.31 105.747V89.791L112.312 89.7939C112.312 88.5644 113.284 87.592 114.514 87.5918H114.999C115.942 87.5918 116.6 88.0772 117.001 88.7354L122.32 97.3994L127.667 88.7051C128.125 87.9605 128.753 87.5898 129.639 87.5898H130.123ZM73.25 95.5986C71.4191 95.5986 70.2755 96.885 69.9316 98.8594H76.4814C76.2241 96.9147 75.0808 95.5987 73.25 95.5986Z" fill="url(#paint0_linear_902_4565)"/>
<defs>
<linearGradient id="paint0_linear_902_4565" x1="101.688" y1="9.93848" x2="101.688" y2="193.44" gradientUnits="userSpaceOnUse">
<stop stop-color="#0BE6E6"/>
<stop offset="1" stop-color="#0B9292" stop-opacity="0.45"/>
</linearGradient>
</defs>
</svg>
