<svg width="65" height="58" viewBox="0 0 65 58" fill="none" xmlns="http://www.w3.org/2000/svg">
<path d="M32.4976 33.3408C27.9064 33.3408 24.1719 37.0754 24.1719 41.6666C24.1719 46.2578 27.9064 49.9923 32.4976 49.9923C37.0888 49.9923 40.8234 46.2578 40.8234 41.6666C40.8234 37.0754 37.0888 33.3408 32.4976 33.3408ZM32.4976 47.3122C29.3855 47.3122 26.849 44.779 26.849 41.6635C26.849 38.5481 29.3821 36.0148 32.4976 36.0148C35.6131 36.0148 38.1463 38.548 38.1463 41.6635C38.1463 44.7789 35.6131 47.3122 32.4976 47.3122Z" fill="url(#paint0_linear_1373_1657)"/>
<path d="M26.1992 12.704C26.3129 13.3532 26.8785 13.8083 27.5177 13.8083C27.5946 13.8083 27.6716 13.8016 27.7519 13.7882C28.4781 13.661 28.9667 12.965 28.8361 12.2355L27.0057 1.85531C26.8785 1.12915 26.1825 0.640562 25.453 0.771118C24.7268 0.898281 24.2382 1.59432 24.3688 2.32382L26.1992 12.704Z" fill="url(#paint1_linear_1373_1657)"/>
<path d="M16.6787 16.6066C16.9264 17.035 17.3748 17.2759 17.84 17.2759C18.0675 17.2759 18.2951 17.2157 18.5092 17.0952C19.1517 16.7271 19.3692 15.9073 18.9978 15.2681L13.7273 6.1395C13.3592 5.497 12.5394 5.2795 11.9002 5.65094C11.2577 6.01904 11.0402 6.83887 11.4117 7.47803L16.6821 16.6066H16.6787Z" fill="url(#paint2_linear_1373_1657)"/>
<path d="M9.91847 23.841C10.3 23.841 10.6814 23.6804 10.9424 23.3625C11.4176 22.797 11.344 21.9504 10.7751 21.4752L2.70038 14.6988C2.13485 14.2236 1.28826 14.2972 0.813067 14.8661C0.337884 15.4317 0.411506 16.2783 0.980382 16.7534L9.05513 23.5298C9.3061 23.7406 9.61062 23.8444 9.91513 23.8444L9.91847 23.841Z" fill="url(#paint3_linear_1373_1657)"/>
<path d="M37.5732 13.8489C37.6535 13.8623 37.7304 13.869 37.8074 13.869C38.4432 13.869 39.0087 13.4139 39.1259 12.7647L40.9563 2.38447C41.0835 1.65831 40.5983 0.962234 39.8721 0.831764C39.146 0.704601 38.4499 1.18982 38.3194 1.91596L36.489 12.2962C36.3618 13.0223 36.847 13.7184 37.5732 13.8489Z" fill="url(#paint4_linear_1373_1657)"/>
<path d="M46.7814 17.261C46.9922 17.3814 47.2231 17.4417 47.4506 17.4417C47.9124 17.4417 48.3608 17.2007 48.6118 16.7724L53.8823 7.64378C54.2504 7.00128 54.0329 6.1848 53.3937 5.81669C52.7512 5.44859 51.9347 5.6661 51.5666 6.30525L46.2962 15.4339C45.9281 16.0764 46.1456 16.8928 46.7847 17.261H46.7814Z" fill="url(#paint5_linear_1373_1657)"/>
<path d="M64.3906 15.1199C63.9154 14.5544 63.0721 14.4774 62.5033 14.9526L54.4285 21.729C53.863 22.2042 53.786 23.0475 54.2612 23.6163C54.5256 23.9309 54.9037 24.0948 55.2852 24.0948C55.5863 24.0948 55.8942 23.9944 56.1452 23.7803L64.2199 17.0039C64.7854 16.5287 64.8624 15.6854 64.3872 15.1166L64.3906 15.1199Z" fill="url(#paint6_linear_1373_1657)"/>
<path d="M46.9943 29.583C44.1867 28.1407 41.3624 27.0933 38.6016 26.4709C36.547 26.0091 34.4923 25.7715 32.4945 25.7715C30.4968 25.7715 28.4421 26.0057 26.3875 26.4709C23.6267 27.0933 20.8058 28.1407 17.9948 29.583C9.46166 33.96 3.77247 40.5157 3.5386 40.7898C3.10692 41.2918 3.10692 42.0347 3.5386 42.5367C3.77619 42.8111 9.46501 49.3666 17.9948 53.7435C20.8024 55.1858 23.6267 56.2332 26.3875 56.8556C28.4421 57.3174 30.4968 57.555 32.4945 57.555C34.4923 57.555 36.547 57.3208 38.6016 56.8556C41.3624 56.2332 44.1866 55.1858 46.9943 53.7435C55.5274 49.3665 61.2166 42.8108 61.4505 42.5367C61.8821 42.0347 61.8821 41.2918 61.4505 40.7898C61.2129 40.5154 55.5241 33.9599 46.9943 29.583ZM45.7728 51.3679C43.166 52.7065 40.5559 53.6769 38.016 54.2491C36.1554 54.6674 34.2982 54.8816 32.4979 54.8816C30.6975 54.8816 28.8437 54.6674 26.9798 54.2491C24.4399 53.6769 21.8298 52.7065 19.2229 51.3679C12.9519 48.1488 8.1968 43.5642 6.37982 41.6705C8.20023 39.7732 12.9521 35.192 19.2229 31.9731C21.8298 30.6345 24.4398 29.6641 26.9798 29.0918C28.8403 28.6735 30.6975 28.4594 32.4979 28.4594C34.2982 28.4594 36.1521 28.6735 38.016 29.0918C40.5558 29.6641 43.166 30.6345 45.7728 31.9731C52.0439 35.1922 56.7989 39.7768 58.6159 41.6705C56.7955 43.5678 52.0437 48.149 45.7728 51.3679Z" fill="url(#paint7_linear_1373_1657)"/>
<defs>
<linearGradient id="paint0_linear_1373_1657" x1="32.4976" y1="33.3408" x2="32.4976" y2="49.9923" gradientUnits="userSpaceOnUse">
<stop stop-color="#05A6A6"/>
<stop offset="1" stop-color="#0D5B6A"/>
</linearGradient>
<linearGradient id="paint1_linear_1373_1657" x1="26.6024" y1="0.75" x2="26.6024" y2="13.8083" gradientUnits="userSpaceOnUse">
<stop stop-color="#05A6A6"/>
<stop offset="1" stop-color="#0D5B6A"/>
</linearGradient>
<linearGradient id="paint2_linear_1373_1657" x1="15.2047" y1="5.46973" x2="15.2047" y2="17.2759" gradientUnits="userSpaceOnUse">
<stop stop-color="#05A6A6"/>
<stop offset="1" stop-color="#0D5B6A"/>
</linearGradient>
<linearGradient id="paint3_linear_1373_1657" x1="5.87776" y1="14.3857" x2="5.87776" y2="23.8444" gradientUnits="userSpaceOnUse">
<stop stop-color="#05A6A6"/>
<stop offset="1" stop-color="#0D5B6A"/>
</linearGradient>
<linearGradient id="paint4_linear_1373_1657" x1="38.7227" y1="0.811523" x2="38.7227" y2="13.869" gradientUnits="userSpaceOnUse">
<stop stop-color="#05A6A6"/>
<stop offset="1" stop-color="#0D5B6A"/>
</linearGradient>
<linearGradient id="paint5_linear_1373_1657" x1="50.0892" y1="5.6377" x2="50.0892" y2="17.4417" gradientUnits="userSpaceOnUse">
<stop stop-color="#05A6A6"/>
<stop offset="1" stop-color="#0D5B6A"/>
</linearGradient>
<linearGradient id="paint6_linear_1373_1657" x1="59.3242" y1="14.6406" x2="59.3242" y2="24.0948" gradientUnits="userSpaceOnUse">
<stop stop-color="#05A6A6"/>
<stop offset="1" stop-color="#0D5B6A"/>
</linearGradient>
<linearGradient id="paint7_linear_1373_1657" x1="32.4945" y1="25.7715" x2="32.4945" y2="57.555" gradientUnits="userSpaceOnUse">
<stop stop-color="#05A6A6"/>
<stop offset="1" stop-color="#0D5B6A"/>
</linearGradient>
</defs>
</svg>
