<svg width="282" height="290" viewBox="0 0 282 290" fill="none" xmlns="http://www.w3.org/2000/svg">
<path d="M41.6709 155.922C44.2104 155.93 46.4507 155.966 48.373 156.123C51.0122 156.339 53.6201 156.814 56.124 158.09L56.4736 158.272C60.0609 160.191 62.9784 163.164 64.8281 166.794L65.0576 167.265C66.1617 169.624 66.5918 172.07 66.7939 174.544C66.9211 176.1 66.9682 177.864 66.9863 179.826L97.2363 167.177C97.2864 167.154 97.3545 167.125 97.4385 167.087C97.6274 167.002 97.9003 166.88 98.249 166.727C98.9464 166.42 99.9484 165.986 101.188 165.467C103.661 164.431 107.104 163.047 110.976 161.659C118.424 158.99 128.484 155.919 136.211 155.919C141.722 155.919 147.207 156.534 152.575 157.752L153.647 158.004L153.651 158.005L185.657 165.788H185.656C197.875 168.753 206.638 179.512 206.638 192.059V196.174C206.638 199.302 206.099 202.294 205.114 205.072L237.486 181.456L237.487 181.455L238.004 181.087C248.929 173.495 263.923 174.65 273.498 183.964L274 184.465C284.383 195.092 284.221 211.964 273.494 222.382L244.551 250.536C235.84 259.009 224.75 264.775 212.719 267.118H212.718L171.804 275.078H171.801C162.773 276.831 153.463 276.621 144.521 274.443L107.517 265.451C107.512 265.45 107.506 265.448 107.501 265.447C103.588 264.487 99.5699 264.005 95.5205 264.005H66.9961C66.9897 266.683 66.9579 269.037 66.7939 271.044C66.5918 273.518 66.1617 275.964 65.0576 278.323L64.8281 278.794C62.9784 282.424 60.061 285.397 56.4736 287.315L56.124 287.498C53.62 288.774 51.0123 289.249 48.373 289.465C46.4507 289.622 44.2104 289.658 41.6709 289.666L39.0322 289.669H28.2988C24.6491 289.669 21.5203 289.674 18.957 289.465C16.4831 289.263 14.0368 288.833 11.6777 287.729L11.207 287.498C7.5768 285.648 4.60376 282.731 2.68555 279.144L2.50293 278.794C1.22733 276.29 0.751761 273.683 0.536133 271.044C0.379078 269.121 0.343354 266.88 0.334961 264.341L0.332031 261.702V183.886C0.332031 180.236 0.326706 177.107 0.536133 174.544C0.751785 171.905 1.22724 169.298 2.50293 166.794L2.68555 166.444C4.60381 162.857 7.57671 159.94 11.207 158.09L11.6777 157.859C14.0368 156.755 16.4831 156.325 18.957 156.123C21.5203 155.914 24.6492 155.919 28.2988 155.919H39.0322L41.6709 155.922ZM28.2988 168.919C24.4347 168.919 21.9268 168.924 20.0156 169.08C18.4107 169.211 17.6691 169.424 17.2637 169.6L17.1084 169.673C15.8885 170.294 14.8822 171.263 14.2148 172.454L14.0859 172.695C13.8995 173.061 13.6431 173.768 13.4932 175.603C13.337 177.514 13.332 180.022 13.332 183.886V261.702L13.335 264.358C13.3437 266.783 13.3761 268.552 13.4932 269.985C13.6431 271.82 13.8995 272.527 14.0859 272.893L14.2148 273.134C14.8822 274.325 15.8886 275.293 17.1084 275.915L17.2637 275.988C17.6691 276.164 18.4107 276.377 20.0156 276.508C21.9268 276.664 24.4347 276.669 28.2988 276.669H39.0322L41.6875 276.666C44.1123 276.657 45.8811 276.625 47.3145 276.508C49.1492 276.358 49.8556 276.101 50.2217 275.915L50.4629 275.786C51.6541 275.119 52.6234 274.113 53.2451 272.893L53.3174 272.737C53.4933 272.332 53.7067 271.59 53.8379 269.985C53.994 268.074 53.999 265.566 53.999 261.702V183.886C53.999 180.022 53.994 177.514 53.8379 175.603C53.7067 173.997 53.4934 173.256 53.3174 172.851L53.2451 172.695C52.6234 171.475 51.6539 170.469 50.4629 169.802L50.2217 169.673C49.8555 169.486 49.1486 169.23 47.3145 169.08C45.8811 168.963 44.1123 168.931 41.6875 168.922L39.0322 168.919H28.2988ZM136.211 168.919C130.993 168.919 122.865 171.207 115.361 173.896C111.757 175.188 108.533 176.484 106.209 177.457C105.05 177.943 104.12 178.346 103.485 178.625C103.168 178.764 102.925 178.873 102.765 178.945C102.684 178.981 102.624 179.008 102.586 179.025C102.567 179.034 102.554 179.04 102.546 179.044C102.542 179.046 102.539 179.046 102.538 179.047L102.539 179.048C102.474 179.077 102.408 179.105 102.343 179.133L66.999 193.913V251.005H95.5205C100.597 251.005 105.651 251.608 110.585 252.818H110.586L147.59 261.812H147.594L148.262 261.97C155.171 263.554 162.349 263.671 169.32 262.317L210.233 254.357L211.13 254.175C220.367 252.202 228.828 247.695 235.486 241.218L264.433 213.06L264.437 213.056L264.697 212.797C269.986 207.396 269.991 198.961 264.693 193.542L264.433 193.282C259.274 188.264 251.022 187.675 245.146 191.959L211.415 216.567L211.416 216.568C205.455 220.926 198.228 223.254 190.823 223.254H158.246C154.656 223.254 151.746 220.344 151.746 216.754C151.746 213.165 154.656 210.254 158.245 210.254L178.981 210.253H178.982L179.368 210.249C187.448 210.051 193.638 203.667 193.638 196.174V192.059C193.638 185.726 189.191 180.022 182.589 178.421L182.585 178.42L150.584 170.638L149.699 170.43C145.273 169.426 140.753 168.919 136.211 168.919ZM201.374 73.9404C222.953 73.9405 242.107 84.3694 254.266 100.461L254.431 100.68L255.222 101.731C256.015 102.798 256.799 103.904 257.403 104.982L257.583 105.312C258.409 106.869 259.019 108.649 259.062 110.757V111.214C259.026 113.195 258.426 115.046 257.7 116.504C257.02 117.871 255.997 119.358 254.588 120.546L254.301 120.779C252.351 122.309 250.242 122.91 248.34 123.177L247.963 123.227C246.65 123.384 245.157 123.422 243.619 123.432L242.072 123.435H160.676C158.865 123.435 157.053 123.436 155.456 123.296L154.785 123.227C152.913 123.002 150.807 122.482 148.838 121.073L148.446 120.779C146.888 119.556 145.773 117.962 145.047 116.504C144.366 115.137 143.797 113.425 143.698 111.584L143.685 111.214C143.64 108.751 144.367 106.726 145.344 104.982L145.66 104.441C146.429 103.175 147.405 101.885 148.316 100.68L148.481 100.461L149.057 99.7109C161.24 84.0459 180.132 73.9405 201.374 73.9404ZM201.374 86.5391C184.238 86.5391 168.933 94.6744 159.002 107.444L158.533 108.057C158.229 108.459 157.961 108.814 157.721 109.136L157.075 110.017C156.864 110.312 156.704 110.552 156.578 110.746C157.47 110.826 158.74 110.836 160.956 110.836H241.792C244.007 110.836 245.277 110.826 246.169 110.746C246.13 110.686 246.091 110.621 246.045 110.553L245.673 110.017C245.48 109.747 245.267 109.458 245.026 109.136L244.214 108.057C234.299 94.9355 218.782 86.5392 201.374 86.5391ZM201.374 0.148438C220.136 0.148618 235.345 15.3586 235.345 34.1201C235.345 52.8817 220.136 68.0906 201.374 68.0908C182.612 68.0908 167.402 52.8818 167.402 34.1201C167.402 15.3585 182.612 0.148482 201.374 0.148438ZM201.374 12.7471C189.57 12.7471 180.001 22.3165 180.001 34.1201C180.001 45.9238 189.57 55.4921 201.374 55.4922C213.178 55.492 222.746 45.9237 222.746 34.1201C222.746 22.3166 213.178 12.7473 201.374 12.7471Z" fill="url(#paint0_linear_1373_2524)"/>
<defs>
<linearGradient id="paint0_linear_1373_2524" x1="140.998" y1="0.148437" x2="140.998" y2="284.169" gradientUnits="userSpaceOnUse">
<stop stop-color="#0BE6E6"/>
<stop offset="1" stop-color="#0B9292" stop-opacity="0.45"/>
</linearGradient>
</defs>
</svg>
