<svg width="58" height="72" viewBox="0 0 58 72" fill="none" xmlns="http://www.w3.org/2000/svg">
<path d="M18.5 34.25L25.5 41.25L41.25 25.5M57 36C57 53.1796 38.2611 65.6744 31.443 69.6521C30.6681 70.1042 30.2807 70.3302 29.7339 70.4474C29.3095 70.5384 28.6905 70.5384 28.2661 70.4474C27.7193 70.3302 27.3319 70.1042 26.557 69.6521C19.7389 65.6744 1 53.1796 1 36V19.2616C1 16.4633 1 15.0642 1.45766 13.8615C1.86196 12.799 2.51894 11.851 3.3718 11.0994C4.33723 10.2486 5.64729 9.7573 8.26742 8.77475L27.0337 1.73739C27.7613 1.46453 28.1252 1.3281 28.4994 1.27402C28.8314 1.22604 29.1686 1.22604 29.5006 1.27402C29.8748 1.3281 30.2387 1.46453 30.9663 1.73739L49.7326 8.77475C52.3527 9.7573 53.6628 10.2486 54.6282 11.0994C55.4811 11.851 56.138 12.799 56.5423 13.8615C57 15.0642 57 16.4633 57 19.2616V36Z" stroke="url(#paint0_linear_862_153)" stroke-width="2" stroke-linecap="round" stroke-linejoin="round"/>
<defs>
<linearGradient id="paint0_linear_862_153" x1="29" y1="1.23804" x2="29" y2="70.5157" gradientUnits="userSpaceOnUse">
<stop stop-color="#0BE6E6"/>
<stop offset="1" stop-color="#0B9292" stop-opacity="0.45"/>
</linearGradient>
</defs>
</svg>
