<svg width="51" height="73" viewBox="0 0 51 73" fill="none" xmlns="http://www.w3.org/2000/svg">
<path d="M25.4531 53.4814C25.7808 53.4814 26.0477 53.7645 26.0478 54.1172V55.2803C27.2703 55.3821 28.3723 55.7942 29.209 56.4053C30.2433 57.1654 30.8867 58.2391 30.8867 59.4414C30.8865 59.7915 30.6196 60.0771 30.292 60.0771C29.9622 60.077 29.6975 59.7914 29.6973 59.4414C29.6973 58.6838 29.2558 57.9802 28.54 57.4561C27.8892 56.9766 27.0217 56.6511 26.0478 56.5566V62.4541C28.5394 62.9062 30.8867 63.5128 30.8867 66.541C30.8866 67.7432 30.2455 68.8136 29.209 69.5762C28.3723 70.1873 27.2681 70.6003 26.0478 70.7021V71.8643C26.0478 72.2145 25.7808 72.5 25.4531 72.5C25.1254 72.5 24.8584 72.2145 24.8584 71.8643V70.7021C23.6359 70.6003 22.534 70.1873 21.6973 69.5762C20.6631 68.8161 20.0196 67.7457 20.0195 66.541C20.0195 66.1883 20.2842 65.9053 20.6143 65.9053C20.9419 65.9053 21.209 66.1883 21.209 66.541C21.2091 67.2985 21.6507 68.0038 22.3662 68.5254C23.017 69.0048 23.8846 69.3304 24.8584 69.4248V63.5273C22.3646 63.0752 20.0197 62.4693 20.0195 59.4414C20.0195 58.2391 20.6607 57.1679 21.6973 56.4053C22.5339 55.7942 23.6382 55.3821 24.8584 55.2803V54.1172C24.8585 53.7645 25.1255 53.4815 25.4531 53.4814ZM25.1406 39.7646C32.825 39.6957 40.0893 43.2566 44.7432 49.375C49.3917 55.4882 50.883 63.4433 48.7656 70.8301C48.654 71.2064 48.2671 71.4237 47.8906 71.3232C47.7049 71.2755 47.5502 71.1537 47.46 70.9893C47.3697 70.8247 47.3489 70.6277 47.4072 70.4473C47.9803 68.4044 48.2671 66.2978 48.2725 64.1807C48.2619 57.5149 45.3532 51.1781 40.3066 46.832C35.2549 42.4808 28.5633 40.5392 21.9727 41.5156C15.3768 42.492 9.5342 46.2911 5.96289 51.916C2.39147 57.5466 1.44712 64.4453 3.36816 70.8291C3.47948 71.2058 3.26195 71.5989 2.89062 71.7051H2.68847C2.38078 71.7103 2.10526 71.508 2.00976 71.2109H2.01465L2.0664 71.2383C-0.183377 63.8944 1.17044 55.9129 5.71289 49.7148C10.2557 43.522 17.4567 39.8283 25.1406 39.7646ZM24.8652 46.2432C30.7391 46.0892 36.3117 48.8272 39.7822 53.5713C43.2527 58.3158 44.1759 64.4562 42.2549 70.0068C42.1221 70.3781 41.7239 70.5693 41.3525 70.4473L41.4072 70.4316C41.0518 70.3255 40.8399 69.9647 40.9141 69.5986C41.519 67.8633 41.8266 66.0431 41.8213 64.207C41.8266 59.2719 39.6242 54.5966 35.8193 51.4551C32.0141 48.319 27.005 47.0457 22.1602 47.9902C17.3206 48.9348 13.1546 51.9962 10.8037 56.3369C8.45813 60.6717 8.17686 65.8353 10.0342 70.4043C10.1031 70.5793 10.1034 70.7756 10.0293 70.9453C9.95501 71.1204 9.81668 71.2533 9.6416 71.3223C9.55669 71.3382 9.47162 71.3382 9.38672 71.3223C9.08958 71.3222 8.8292 71.1417 8.71777 70.8711C6.51567 65.4263 7.12073 59.2439 10.3418 54.3301C13.5676 49.4163 18.991 46.3919 24.8652 46.2432ZM26.0459 69.4248C27.0196 69.3304 27.8864 69.0048 28.5371 68.5254C29.2505 68.0013 29.6942 67.2986 29.6943 66.541C29.6943 64.6158 27.9633 64.1014 26.0459 63.7412V69.4248ZM24.8555 56.5566C23.8818 56.6511 23.0149 56.9766 22.3643 57.4561C21.6507 57.9802 21.207 58.6837 21.207 59.4414C21.2073 61.3662 22.9406 61.8801 24.8555 62.2402V56.5566ZM18.9795 5.97656C19.1652 5.97656 19.3459 6.05095 19.4785 6.18359C19.6112 6.31626 19.6855 6.49688 19.6855 6.68262V19.3174C19.6856 20.3096 20.4922 21.1161 21.4844 21.1162C22.7154 21.1162 23.8463 21.8271 24.377 22.9414C24.9129 24.0505 24.7587 25.3721 23.9893 26.3379H23.9844L16.9102 35.168C16.2998 35.9268 15.3768 36.3672 14.4004 36.3672C13.4239 36.3672 12.5009 35.9268 11.8906 35.168H11.8848L4.81152 26.3379C4.10573 25.3827 3.98373 24.1144 4.49316 23.0371C5.00791 21.9654 6.07419 21.2646 7.26269 21.2168C8.25502 21.2168 9.05664 20.4103 9.05664 19.418V6.68262C9.05664 6.28995 9.37492 5.9766 9.76758 5.97656C9.95331 5.97656 10.1339 6.05093 10.2666 6.18359C10.3992 6.31625 10.4736 6.49693 10.4736 6.68262V19.3496C10.4788 20.2144 10.134 21.0426 9.51855 21.6475C8.90433 22.2564 8.07293 22.5906 7.20996 22.5762L7.3164 22.6289C6.62664 22.6342 5.99979 23.0316 5.69726 23.6523C5.39482 24.2731 5.4746 25.0164 5.90429 25.5576V25.5635L12.9785 34.377C13.3288 34.7909 13.8489 35.0303 14.3955 35.0303C14.9367 35.0301 15.4565 34.7908 15.8066 34.377L15.8115 34.3721L22.8857 25.5576C23.3261 25.0217 23.4054 24.2736 23.0977 23.6475C22.8111 23.0213 22.1742 22.6183 21.4844 22.6289C19.7068 22.6287 18.2686 21.1903 18.2686 19.418V6.68262C18.2686 6.29009 18.587 5.97682 18.9795 5.97656ZM36.3867 0.5C37.3472 0.500121 38.2645 0.925027 38.8906 1.65723V1.66211L45.9648 10.4766C46.7395 11.437 46.8881 12.7587 46.3574 13.873C45.8214 14.9873 44.6963 15.6982 43.46 15.6982C42.9824 15.693 42.5212 15.8792 42.1816 16.2188C41.842 16.5584 41.6504 17.0146 41.6504 17.4922V30.2275C41.6504 30.4185 41.5759 30.5988 41.4434 30.7314C41.3107 30.8641 41.1305 30.9385 40.9395 30.9385C40.5521 30.9279 40.2387 30.6149 40.2334 30.2275V17.4922C40.2387 15.7198 41.6823 14.2813 43.46 14.2812C44.1498 14.2759 44.781 13.8777 45.0781 13.2568C45.3805 12.6362 45.3013 11.8991 44.877 11.3525H44.8711L37.7979 2.53809C37.4477 2.11368 36.9331 1.87416 36.3867 1.87402C35.8401 1.87402 35.32 2.11357 34.9697 2.53809L27.8955 11.3525C27.466 11.8989 27.3863 12.6362 27.6885 13.2568C27.9909 13.8777 28.6178 14.2759 29.3076 14.2812C31.0852 14.2815 32.5279 15.7199 32.5332 17.4922V30.2275C32.5279 30.6148 32.2154 30.9277 31.8281 30.9385C31.6424 30.9385 31.4618 30.8641 31.3291 30.7314C31.1966 30.5988 31.1221 30.4185 31.1221 30.2275V17.4922C31.1221 17.0148 30.9312 16.5583 30.5918 16.2188C30.247 15.8792 29.7904 15.693 29.3076 15.6982C28.0766 15.6982 26.9457 14.9873 26.415 13.873C25.8791 12.7587 26.0333 11.4371 26.8027 10.4766L26.8076 10.4707L33.8818 1.65723C34.5028 0.924916 35.4209 0.5 36.3867 0.5Z" fill="url(#paint0_linear_1373_2536)"/>
<path d="M25.4531 53.4814V52.9814H25.4531L25.4531 53.4814ZM26.0478 54.1172H26.5478V54.117L26.0478 54.1172ZM26.0478 55.2803H25.5478V55.7403L26.0063 55.7785L26.0478 55.2803ZM29.209 56.4053L29.5051 56.0024L29.5039 56.0015L29.209 56.4053ZM30.8867 59.4414L31.3867 59.4417V59.4414H30.8867ZM30.292 60.0771L30.2918 60.5771H30.292V60.0771ZM29.6973 59.4414H29.1973V59.4417L29.6973 59.4414ZM28.54 57.4561L28.2435 57.8586L28.2446 57.8595L28.54 57.4561ZM26.0478 56.5566L26.0961 56.059L25.5478 56.0058V56.5566H26.0478ZM26.0478 62.4541H25.5478V62.8715L25.9586 62.9461L26.0478 62.4541ZM30.8867 66.541L31.3867 66.541V66.541H30.8867ZM29.209 69.5762L29.5039 69.9799L29.5053 69.9789L29.209 69.5762ZM26.0478 70.7021L26.0063 70.2039L25.5478 70.2421V70.7021H26.0478ZM25.4531 72.5L25.4531 73H25.4531V72.5ZM24.8584 70.7021H25.3584V70.2421L24.8999 70.2039L24.8584 70.7021ZM21.6973 69.5762L21.4011 69.979L21.4024 69.9799L21.6973 69.5762ZM20.0195 66.541H19.5195V66.541L20.0195 66.541ZM20.6143 65.9053L20.6143 65.4053H20.6143V65.9053ZM21.209 66.541H20.709V66.5411L21.209 66.541ZM22.3662 68.5254L22.6628 68.1228L22.6607 68.1214L22.3662 68.5254ZM24.8584 69.4248L24.8101 69.9225L25.3584 69.9756V69.4248H24.8584ZM24.8584 63.5273H25.3584V63.1098L24.9476 63.0354L24.8584 63.5273ZM20.0195 59.4414H19.5195V59.4414L20.0195 59.4414ZM21.6973 56.4053L21.4024 56.0015L21.401 56.0025L21.6973 56.4053ZM24.8584 55.2803L24.9 55.7785L25.3584 55.7403V55.2803H24.8584ZM24.8584 54.1172L24.3584 54.117V54.1172H24.8584ZM25.1406 39.7646L25.1448 40.2646L25.1451 40.2646L25.1406 39.7646ZM44.7432 49.375L45.1412 49.0724L45.1411 49.0723L44.7432 49.375ZM48.7656 70.8301L49.245 70.9722L49.2463 70.9678L48.7656 70.8301ZM47.8906 71.3232L48.0196 70.8401L48.0151 70.839L47.8906 71.3232ZM47.46 70.9893L47.0215 71.2297L47.0216 71.2298L47.46 70.9893ZM47.4072 70.4473L47.8829 70.6012L47.886 70.5918L47.8886 70.5823L47.4072 70.4473ZM48.2725 64.1807L48.7725 64.1819L48.7725 64.1799L48.2725 64.1807ZM40.3066 46.832L39.9803 47.2109L39.9804 47.2109L40.3066 46.832ZM21.9727 41.5156L22.0459 42.0102L22.0459 42.0102L21.9727 41.5156ZM5.96289 51.916L5.54078 51.648L5.54066 51.6482L5.96289 51.916ZM3.36816 70.8291L3.84767 70.6874L3.84695 70.685L3.36816 70.8291ZM2.89062 71.7051V72.2051H2.96071L3.02809 72.1858L2.89062 71.7051ZM2.68847 71.7051V71.205L2.67999 71.2051L2.68847 71.7051ZM2.00976 71.2109V70.7109H1.32386L1.53375 71.3639L2.00976 71.2109ZM2.01465 71.2109L2.24821 70.7688L2.1386 70.7109H2.01465V71.2109ZM2.0664 71.2383L1.83284 71.6804L2.897 72.2426L2.54447 71.0918L2.0664 71.2383ZM5.71289 49.7148L5.30973 49.4191L5.3096 49.4193L5.71289 49.7148ZM24.8652 46.2432L24.8779 46.743L24.8783 46.743L24.8652 46.2432ZM39.7822 53.5713L40.1858 53.2761L40.1858 53.2761L39.7822 53.5713ZM42.2549 70.0068L42.7257 70.1752L42.7274 70.1704L42.2549 70.0068ZM41.3525 70.4473L41.2152 69.9665L39.6493 70.4139L41.1965 70.9223L41.3525 70.4473ZM41.4072 70.4316L41.5446 70.9124L43.1897 70.4424L41.5504 69.9526L41.4072 70.4316ZM40.9141 69.5986L40.4419 69.434L40.4308 69.4661L40.424 69.4993L40.9141 69.5986ZM41.8213 64.207L41.3213 64.2065L41.3213 64.2085L41.8213 64.207ZM35.8193 51.4551L36.1377 51.0695L36.1373 51.0692L35.8193 51.4551ZM22.1602 47.9902L22.0645 47.4995L22.0644 47.4995L22.1602 47.9902ZM10.8037 56.3369L10.364 56.0988L10.364 56.099L10.8037 56.3369ZM10.0342 70.4043L10.4994 70.221L10.4974 70.216L10.0342 70.4043ZM10.0293 70.9453L9.57107 70.7452L9.56901 70.75L10.0293 70.9453ZM9.6416 71.3223L9.73376 71.8137L9.78059 71.8049L9.82492 71.7874L9.6416 71.3223ZM9.38672 71.3223L9.47888 70.8308L9.43322 70.8223L9.38678 70.8223L9.38672 71.3223ZM8.71777 70.8711L8.25424 71.0586L8.25543 71.0615L8.71777 70.8711ZM10.3418 54.3301L9.92381 54.0557L9.92363 54.056L10.3418 54.3301ZM26.0459 69.4248H25.5459V69.9756L26.0942 69.9225L26.0459 69.4248ZM28.5371 68.5254L28.2411 68.1224L28.2405 68.1229L28.5371 68.5254ZM29.6943 66.541L30.1943 66.5411V66.541H29.6943ZM26.0459 63.7412L26.1382 63.2498L25.5459 63.1385V63.7412H26.0459ZM24.8555 56.5566H25.3555V56.0058L24.8072 56.059L24.8555 56.5566ZM22.3643 57.4561L22.6603 57.859L22.6608 57.8586L22.3643 57.4561ZM21.207 59.4414H20.707V59.4415L21.207 59.4414ZM24.8555 62.2402L24.763 62.7316L25.3555 62.8431V62.2402H24.8555ZM18.9795 5.97656V5.47656H18.9792L18.9795 5.97656ZM19.4785 6.18359L19.8321 5.83005L19.832 5.83002L19.4785 6.18359ZM19.6855 19.3174H19.1855V19.3174L19.6855 19.3174ZM21.4844 21.1162L21.4843 21.6162H21.4844V21.1162ZM24.377 22.9414L23.9255 23.1564L23.9268 23.159L24.377 22.9414ZM23.9893 26.3379V26.8379H24.2302L24.3803 26.6495L23.9893 26.3379ZM23.9844 26.3379V25.8379H23.7443L23.5942 26.0253L23.9844 26.3379ZM16.9102 35.168L17.2998 35.4813L17.3004 35.4806L16.9102 35.168ZM14.4004 36.3672V36.8672H14.4004L14.4004 36.3672ZM11.8906 35.168L12.2803 34.8546L12.1301 34.668H11.8906V35.168ZM11.8848 35.168L11.4945 35.4806L11.6446 35.668H11.8848V35.168ZM4.81152 26.3379L4.40939 26.635L4.41519 26.6429L4.42129 26.6505L4.81152 26.3379ZM4.49316 23.0371L4.04245 22.8206L4.04116 22.8234L4.49316 23.0371ZM7.26269 21.2168V20.7168H7.25264L7.24259 20.7172L7.26269 21.2168ZM9.76758 5.97656V5.47656H9.76753L9.76758 5.97656ZM10.2666 6.18359L10.6202 5.83013L10.6202 5.83004L10.2666 6.18359ZM10.4736 19.3496H9.97362L9.97364 19.3526L10.4736 19.3496ZM9.51855 21.6475L9.16808 21.2908L9.16654 21.2924L9.51855 21.6475ZM7.20996 22.5762L7.2183 22.0762L6.988 23.0242L7.20996 22.5762ZM7.3164 22.6289L7.32025 23.1289L7.53837 22.1809L7.3164 22.6289ZM5.69726 23.6523L5.24781 23.4333L5.24778 23.4333L5.69726 23.6523ZM5.90429 25.5576H6.40429V25.3833L6.2959 25.2467L5.90429 25.5576ZM5.90429 25.5635H5.40429V25.7393L5.51437 25.8765L5.90429 25.5635ZM12.9785 34.377L12.5885 34.69L12.5968 34.6999L12.9785 34.377ZM14.3955 35.0303V35.5303H14.3956L14.3955 35.0303ZM15.8066 34.377L15.4531 34.0234L15.4384 34.0381L15.4249 34.054L15.8066 34.377ZM15.8115 34.3721L16.1651 34.7256L16.1844 34.7063L16.2015 34.685L15.8115 34.3721ZM22.8857 25.5576L22.4994 25.2402L22.4958 25.2447L22.8857 25.5576ZM23.0977 23.6475L22.6428 23.8556L22.6489 23.868L23.0977 23.6475ZM21.4844 22.6289L21.4843 23.129L21.4921 23.1288L21.4844 22.6289ZM36.3867 0.5L36.3868 0H36.3867V0.5ZM38.8906 1.65723H39.3906V1.4726L39.2706 1.33228L38.8906 1.65723ZM38.8906 1.66211H38.3906V1.83794L38.5007 1.97507L38.8906 1.66211ZM45.9648 10.4766L45.5749 10.7895L45.5757 10.7905L45.9648 10.4766ZM46.3574 13.873L46.808 14.0898L46.8088 14.088L46.3574 13.873ZM43.46 15.6982L43.4544 16.1982H43.46V15.6982ZM42.1816 16.2188L41.8281 15.8652L41.8281 15.8652L42.1816 16.2188ZM41.4434 30.7314L41.7969 31.085L41.797 31.0849L41.4434 30.7314ZM40.9395 30.9385L40.9257 31.4385H40.9395L40.9395 30.9385ZM40.2334 30.2275H39.7333L39.7334 30.2344L40.2334 30.2275ZM40.2334 17.4922L39.7334 17.4907V17.4922H40.2334ZM43.46 14.2812L43.46 14.7813L43.4638 14.7812L43.46 14.2812ZM45.0781 13.2568L44.6286 13.0379L44.6271 13.041L45.0781 13.2568ZM44.877 11.3525L45.2719 11.0459L45.1218 10.8525H44.877V11.3525ZM44.8711 11.3525L44.4811 11.6655L44.6312 11.8525H44.8711V11.3525ZM37.7979 2.53809L38.1879 2.22512L38.1835 2.21987L37.7979 2.53809ZM36.3867 1.87402L36.3868 1.37402H36.3867V1.87402ZM34.9697 2.53809L34.584 2.21986L34.5798 2.22513L34.9697 2.53809ZM27.8955 11.3525L27.5055 11.0396L27.5024 11.0435L27.8955 11.3525ZM27.6885 13.2568L27.2389 13.4757L27.239 13.4758L27.6885 13.2568ZM29.3076 14.2812L29.3038 14.7812H29.3076L29.3076 14.2812ZM32.5332 17.4922H33.0332L33.0332 17.4907L32.5332 17.4922ZM32.5332 30.2275L33.0332 30.2344V30.2275H32.5332ZM31.8281 30.9385V31.4387L31.842 31.4383L31.8281 30.9385ZM31.3291 30.7314L30.9754 31.0849L30.9756 31.085L31.3291 30.7314ZM30.5918 16.2188L30.9455 15.8653L30.9426 15.8625L30.5918 16.2188ZM29.3076 15.6982V16.1983L29.313 16.1982L29.3076 15.6982ZM26.415 13.873L26.8665 13.658L26.8656 13.6563L26.415 13.873ZM26.8027 10.4766L26.4186 10.1564L26.4125 10.164L26.8027 10.4766ZM26.8076 10.4707L27.1918 10.7908L27.1975 10.7837L26.8076 10.4707ZM33.8818 1.65723L33.5003 1.33374L33.4919 1.34425L33.8818 1.65723ZM25.4531 53.4814V53.9814C25.4683 53.9814 25.488 53.9871 25.5086 54.0091C25.5296 54.0315 25.5478 54.0683 25.5478 54.1173L26.0478 54.1172L26.5478 54.117C26.5477 53.5191 26.0867 52.9814 25.4531 52.9814V53.4814ZM26.0478 54.1172H25.5478V55.2803H26.0478H26.5478V54.1172H26.0478ZM26.0478 55.2803L26.0063 55.7785C27.145 55.8734 28.1575 56.2565 28.9141 56.8091L29.209 56.4053L29.5039 56.0015C28.587 55.3319 27.3957 54.8908 26.0894 54.782L26.0478 55.2803ZM29.209 56.4053L28.9129 56.8082C29.8477 57.4952 30.3867 58.4307 30.3867 59.4414H30.8867H31.3867C31.3867 58.0474 30.6389 56.8357 29.5051 56.0024L29.209 56.4053ZM30.8867 59.4414L30.3867 59.4411C30.3867 59.4883 30.3689 59.5256 30.3469 59.549C30.3255 59.572 30.3057 59.5771 30.292 59.5771V60.0771V60.5771C30.9269 60.5771 31.3864 60.0354 31.3867 59.4417L30.8867 59.4414ZM30.292 60.0771L30.2922 59.5771C30.2767 59.5771 30.2572 59.5715 30.2367 59.5494C30.2153 59.5266 30.1973 59.4894 30.1973 59.4411L29.6973 59.4414L29.1973 59.4417C29.1976 60.0342 29.6537 60.5769 30.2918 60.5771L30.292 60.0771ZM29.6973 59.4414H30.1973C30.1973 58.4776 29.6367 57.6394 28.8354 57.0527L28.54 57.4561L28.2446 57.8595C28.8748 58.321 29.1973 58.8899 29.1973 59.4414H29.6973ZM28.54 57.4561L28.8366 57.0535C28.1044 56.5141 27.1483 56.161 26.0961 56.059L26.0478 56.5566L25.9996 57.0543C26.8951 57.1411 27.6741 57.4391 28.2435 57.8586L28.54 57.4561ZM26.0478 56.5566H25.5478V62.4541H26.0478H26.5478V56.5566H26.0478ZM26.0478 62.4541L25.9586 62.9461C27.2152 63.1741 28.3265 63.4265 29.1282 63.9501C29.5179 64.2046 29.8256 64.5186 30.039 64.9222C30.2531 65.3271 30.3867 65.8495 30.3867 66.541H30.8867H31.3867C31.3867 65.7184 31.2269 65.0294 30.923 64.4547C30.6185 63.8788 30.1836 63.4451 29.675 63.1129C28.6802 62.4631 27.3721 62.1862 26.1371 61.9621L26.0478 62.4541ZM30.8867 66.541L30.3867 66.541C30.3867 67.5515 29.85 68.4838 28.9127 69.1734L29.209 69.5762L29.5053 69.9789C30.641 69.1433 31.3866 67.935 31.3867 66.541L30.8867 66.541ZM29.209 69.5762L28.9141 69.1724C28.1575 69.725 27.1425 70.1091 26.0063 70.2039L26.0478 70.7021L26.0894 71.2004C27.3936 71.0916 28.5871 70.6495 29.5039 69.9799L29.209 69.5762ZM26.0478 70.7021H25.5478V71.8643H26.0478H26.5478V70.7021H26.0478ZM26.0478 71.8643H25.5478C25.5478 71.9114 25.5301 71.9486 25.5082 71.9719C25.4869 71.9948 25.467 72 25.4531 72V72.5V73C26.0879 73 26.5478 72.4587 26.5478 71.8643H26.0478ZM25.4531 72.5L25.4532 72C25.4393 72 25.4194 71.9947 25.398 71.9719C25.3762 71.9485 25.3584 71.9114 25.3584 71.8643H24.8584H24.3584C24.3584 72.4588 24.8184 72.9999 25.4531 73L25.4531 72.5ZM24.8584 71.8643H25.3584V70.7021H24.8584H24.3584V71.8643H24.8584ZM24.8584 70.7021L24.8999 70.2039C23.7615 70.109 22.749 69.7251 21.9922 69.1724L21.6973 69.5762L21.4024 69.9799C22.3191 70.6494 23.5102 71.0916 24.8169 71.2004L24.8584 70.7021ZM21.6973 69.5762L21.9934 69.1733C21.0584 68.4861 20.5196 67.5537 20.5195 66.541L20.0195 66.541L19.5195 66.541C19.5196 67.9376 20.2678 69.146 21.4011 69.979L21.6973 69.5762ZM20.0195 66.541H20.5195C20.5195 66.4908 20.538 66.4541 20.5583 66.4324C20.5779 66.4115 20.5972 66.4053 20.6143 66.4053V65.9053V65.4053C19.9772 65.4053 19.5195 65.9441 19.5195 66.541H20.0195ZM20.6143 65.9053L20.6142 66.4053C20.6295 66.4053 20.6492 66.411 20.6698 66.4329C20.6908 66.4553 20.709 66.492 20.709 66.541H21.209H21.709C21.709 65.9427 21.2477 65.4053 20.6143 65.4053L20.6143 65.9053ZM21.209 66.541L20.709 66.5411C20.7091 67.5043 21.2694 68.3446 22.0717 68.9294L22.3662 68.5254L22.6607 68.1214C22.032 67.663 21.709 67.0927 21.709 66.541L21.209 66.541ZM22.3662 68.5254L22.0696 68.9279C22.8019 69.4674 23.7579 69.8204 24.8101 69.9225L24.8584 69.4248L24.9067 68.9271C24.0112 68.8403 23.2322 68.5423 22.6628 68.1228L22.3662 68.5254ZM24.8584 69.4248H25.3584V63.5273H24.8584H24.3584V69.4248H24.8584ZM24.8584 63.5273L24.9476 63.0354C23.6899 62.8073 22.5786 62.555 21.7773 62.0317C21.3878 61.7773 21.0803 61.4635 20.8671 61.06C20.6531 60.6552 20.5196 60.1328 20.5195 59.4414L20.0195 59.4414L19.5195 59.4414C19.5196 60.2639 19.6793 60.9528 19.983 61.5273C20.2874 62.1032 20.722 62.5368 21.2305 62.8689C22.2251 63.5185 23.5332 63.7952 24.7692 64.0193L24.8584 63.5273ZM20.0195 59.4414H20.5195C20.5195 58.4307 21.0563 57.4976 21.9936 56.808L21.6973 56.4053L21.401 56.0025C20.265 56.8382 19.5195 58.0475 19.5195 59.4414H20.0195ZM21.6973 56.4053L21.9922 56.809C22.7486 56.2566 23.7634 55.8734 24.9 55.7785L24.8584 55.2803L24.8168 54.782C23.5129 54.8908 22.3193 55.3318 21.4024 56.0015L21.6973 56.4053ZM24.8584 55.2803H25.3584V54.1172H24.8584H24.3584V55.2803H24.8584ZM24.8584 54.1172L25.3584 54.1173C25.3584 54.0684 25.3766 54.0316 25.3976 54.0091C25.4183 53.9871 25.438 53.9814 25.4532 53.9814L25.4531 53.4814L25.4531 52.9814C24.8196 52.9815 24.3586 53.5191 24.3584 54.117L24.8584 54.1172ZM25.1406 39.7646L25.1451 40.2646C32.6717 40.1971 39.7868 43.6848 44.3452 49.6777L44.7432 49.375L45.1411 49.0723C40.3917 42.8283 32.9782 39.1943 25.1361 39.2647L25.1406 39.7646ZM44.7432 49.375L44.3452 49.6776C48.8982 55.6652 50.3589 63.457 48.285 70.6923L48.7656 70.8301L49.2463 70.9678C51.407 63.4295 49.8853 55.3112 45.1412 49.0724L44.7432 49.375ZM48.7656 70.8301L48.2862 70.688C48.2511 70.8064 48.1327 70.8704 48.0196 70.8402L47.8906 71.3232L47.7617 71.8063C48.4015 71.9771 49.057 71.6065 49.245 70.9722L48.7656 70.8301ZM47.8906 71.3232L48.0151 70.839C47.9641 70.8259 47.9225 70.7928 47.8983 70.7487L47.46 70.9893L47.0216 71.2298C47.1779 71.5145 47.4458 71.7251 47.7661 71.8075L47.8906 71.3232ZM47.46 70.9893L47.8984 70.7488C47.8726 70.7019 47.868 70.6472 47.8829 70.6012L47.4072 70.4473L46.9315 70.2934C46.8297 70.6082 46.8669 70.9476 47.0215 71.2297L47.46 70.9893ZM47.4072 70.4473L47.8886 70.5823C48.4741 68.4951 48.767 66.3435 48.7725 64.1819L48.2725 64.1807L47.7725 64.1794C47.7672 66.2522 47.4864 68.3137 46.9258 70.3122L47.4072 70.4473ZM48.2725 64.1807L48.7725 64.1799C48.7616 57.3691 45.7897 50.8942 40.6329 46.4532L40.3066 46.832L39.9804 47.2109C44.9166 51.462 47.7621 57.6608 47.7725 64.1815L48.2725 64.1807ZM40.3066 46.832L40.6329 46.4532C35.4713 42.0073 28.634 40.0233 21.8994 41.021L21.9727 41.5156L22.0459 42.0102C28.4927 41.0552 35.0384 42.9543 39.9803 47.2109L40.3066 46.832ZM21.9727 41.5156L21.8994 41.021C15.1598 42.0187 9.18988 45.9006 5.54078 51.648L5.96289 51.916L6.385 52.184C9.87853 46.6816 15.5939 42.9653 22.0459 42.0102L21.9727 41.5156ZM5.96289 51.916L5.54066 51.6482C1.89141 57.4015 0.92654 64.4505 2.88937 70.9732L3.36816 70.8291L3.84695 70.685C1.96769 64.44 2.89153 57.6917 6.38512 52.1838L5.96289 51.916ZM3.36816 70.8291L2.88866 70.9708C2.9216 71.0823 2.85605 71.1949 2.75316 71.2243L2.89062 71.7051L3.02809 72.1858C3.66784 72.0029 4.03736 71.3293 3.84766 70.6874L3.36816 70.8291ZM2.89062 71.7051V71.2051H2.68847V71.7051V72.2051H2.89062V71.7051ZM2.68847 71.7051L2.67999 71.2051C2.60005 71.2065 2.51616 71.1525 2.48578 71.0579L2.00976 71.2109L1.53375 71.3639C1.69436 71.8636 2.16151 72.2141 2.69696 72.205L2.68847 71.7051ZM2.00976 71.2109V71.7109H2.01465V71.2109V70.7109H2.00976V71.2109ZM2.01465 71.2109L1.78109 71.653L1.83284 71.6804L2.0664 71.2383L2.29996 70.7962L2.24821 70.7688L2.01465 71.2109ZM2.0664 71.2383L2.54447 71.0918C0.340978 63.899 1.66689 56.0813 6.11618 50.0104L5.71289 49.7148L5.3096 49.4193C0.673995 55.7444 -0.707732 63.8897 1.58833 71.3847L2.0664 71.2383ZM5.71289 49.7148L6.11605 50.0106C10.5657 43.9447 17.6189 40.327 25.1448 40.2646L25.1406 39.7646L25.1365 39.2647C17.2945 39.3297 9.94569 43.0993 5.30973 49.4191L5.71289 49.7148ZM24.8652 46.2432L24.8783 46.743C30.588 46.5934 36.005 49.2547 39.3787 53.8665L39.7822 53.5713L40.1858 53.2761C36.6184 48.3996 30.8901 45.5851 24.8521 45.7433L24.8652 46.2432ZM39.7822 53.5713L39.3787 53.8665C42.7524 58.4787 43.6498 64.4477 41.7824 69.8433L42.2549 70.0068L42.7274 70.1704C44.7021 64.4647 43.753 58.1529 40.1858 53.2761L39.7822 53.5713ZM42.2549 70.0068L41.7841 69.8385C41.7435 69.952 41.625 70.0105 41.5086 69.9723L41.3525 70.4473L41.1965 70.9223C41.8228 71.1281 42.5008 70.8042 42.7257 70.1752L42.2549 70.0068ZM41.3525 70.4473L41.4899 70.928L41.5446 70.9124L41.4072 70.4316L41.2699 69.9509L41.2152 69.9665L41.3525 70.4473ZM41.4072 70.4316L41.5504 69.9526C41.4486 69.9222 41.3801 69.8164 41.4041 69.698L40.9141 69.5986L40.424 69.4993C40.2996 70.1129 40.6551 70.7288 41.2641 70.9107L41.4072 70.4316ZM40.9141 69.5986L41.3862 69.7632C42.0096 67.9749 42.3267 66.0986 42.3213 64.2056L41.8213 64.207L41.3213 64.2085C41.3264 65.9876 41.0284 67.7517 40.4419 69.434L40.9141 69.5986ZM41.8213 64.207L42.3213 64.2076C42.3267 59.1229 40.0576 54.306 36.1377 51.0695L35.8193 51.4551L35.501 51.8406C39.1908 54.8872 41.3264 59.4209 41.3213 64.2065L41.8213 64.207ZM35.8193 51.4551L36.1373 51.0692C32.2169 47.8382 27.0561 46.5264 22.0645 47.4995L22.1602 47.9902L22.2558 48.481C26.9539 47.5651 31.8113 48.7997 35.5013 51.8409L35.8193 51.4551ZM22.1602 47.9902L22.0644 47.4995C17.078 48.4727 12.786 51.6269 10.364 56.0988L10.8037 56.3369L11.2434 56.575C13.5232 52.3655 17.5631 49.3969 22.2559 48.481L22.1602 47.9902ZM10.8037 56.3369L10.364 56.099C7.94713 60.5654 7.65749 65.8854 9.57099 70.5926L10.0342 70.4043L10.4974 70.216C8.69623 65.7852 8.96912 60.778 11.2435 56.5749L10.8037 56.3369ZM10.0342 70.4043L9.56897 70.5876C9.59244 70.6471 9.58859 70.7051 9.57109 70.7452L10.0293 70.9453L10.4875 71.1454C10.6182 70.8461 10.6138 70.5115 10.4994 70.221L10.0342 70.4043ZM10.0293 70.9453L9.56901 70.75C9.54788 70.7998 9.5104 70.8365 9.45828 70.8571L9.6416 71.3223L9.82492 71.7874C10.123 71.67 10.3622 71.4409 10.4896 71.1406L10.0293 70.9453ZM9.6416 71.3223L9.54944 70.8308C9.52544 70.8353 9.50287 70.8353 9.47888 70.8308L9.38672 71.3223L9.29456 71.8137C9.44037 71.841 9.58794 71.841 9.73376 71.8137L9.6416 71.3223ZM9.38672 71.3223L9.38678 70.8223C9.29769 70.8223 9.2165 70.7691 9.18011 70.6807L8.71777 70.8711L8.25543 71.0615C8.4419 71.5143 8.88147 71.8222 9.38666 71.8223L9.38672 71.3223ZM8.71777 70.8711L9.1813 70.6836C7.04062 65.3907 7.62885 59.3808 10.76 54.6042L10.3418 54.3301L9.92363 54.056C6.61261 59.107 5.99072 65.4619 8.25425 71.0586L8.71777 70.8711ZM10.3418 54.3301L10.7598 54.6045C13.8959 49.8273 19.168 46.8876 24.8779 46.743L24.8652 46.2432L24.8526 45.7433C18.814 45.8962 13.2393 49.0052 9.92381 54.0557L10.3418 54.3301ZM26.0459 69.4248L26.0942 69.9225C27.1464 69.8204 28.1016 69.4673 28.8337 68.9279L28.5371 68.5254L28.2405 68.1229C27.6712 68.5424 26.8929 68.8403 25.9976 68.9271L26.0459 69.4248ZM28.5371 68.5254L28.8331 68.9283C29.6307 68.3425 30.1942 67.5055 30.1943 66.5411L29.6943 66.541L29.1943 66.5409C29.1942 67.0916 28.8704 67.6601 28.2411 68.1224L28.5371 68.5254ZM29.6943 66.541H30.1943C30.1943 65.9815 30.0675 65.4982 29.8241 65.0872C29.5819 64.6782 29.2405 64.3683 28.8514 64.1286C28.091 63.6601 27.0935 63.4293 26.1382 63.2498L26.0459 63.7412L25.9536 64.2326C26.9157 64.4134 27.7423 64.6198 28.3269 64.9799C28.6102 65.1545 28.8214 65.3567 28.9637 65.5968C29.1047 65.835 29.1943 66.1379 29.1943 66.541H29.6943ZM26.0459 63.7412H25.5459V69.4248H26.0459H26.5459V63.7412H26.0459ZM24.8555 56.5566L24.8072 56.059C23.755 56.161 22.7997 56.5142 22.0677 57.0535L22.3643 57.4561L22.6608 57.8586C23.2302 57.4391 24.0085 57.1411 24.9037 57.0543L24.8555 56.5566ZM22.3643 57.4561L22.0682 57.0531C21.2704 57.6392 20.707 58.477 20.707 59.4414H21.207H21.707C21.707 58.8905 22.031 58.3213 22.6603 57.859L22.3643 57.4561ZM21.207 59.4414L20.707 59.4415C20.7071 60.001 20.8342 60.4842 21.0779 60.8952C21.3204 61.304 21.662 61.6138 22.0512 61.8533C22.8117 62.3215 23.8091 62.5522 24.763 62.7316L24.8555 62.2402L24.9479 61.7489C23.987 61.5681 23.1603 61.3618 22.5754 61.0017C22.2918 60.8272 22.0804 60.6251 21.938 60.385C21.7968 60.147 21.7071 59.8442 21.707 59.4413L21.207 59.4414ZM24.8555 62.2402H25.3555V56.5566H24.8555H24.3555V62.2402H24.8555ZM18.9795 5.97656V6.47656C19.0327 6.47656 19.0861 6.49833 19.125 6.53717L19.4785 6.18359L19.832 5.83002C19.6056 5.60357 19.2977 5.47656 18.9795 5.47656V5.97656ZM19.4785 6.18359L19.1249 6.53713C19.1638 6.57597 19.1855 6.6294 19.1855 6.68262H19.6855H20.1855C20.1855 6.36437 20.0586 6.05656 19.8321 5.83005L19.4785 6.18359ZM19.6855 6.68262H19.1855V19.3174H19.6855H20.1855V6.68262H19.6855ZM19.6855 19.3174L19.1855 19.3174C19.1856 20.5858 20.2161 21.616 21.4843 21.6162L21.4844 21.1162L21.4845 20.6162C20.7683 20.6161 20.1856 20.0334 20.1855 19.3174L19.6855 19.3174ZM21.4844 21.1162V21.6162C22.5231 21.6162 23.478 22.2168 23.9255 23.1564L24.377 22.9414L24.8284 22.7264C24.2145 21.4375 22.9076 20.6162 21.4844 20.6162V21.1162ZM24.377 22.9414L23.9268 23.159C24.378 24.0928 24.2494 25.209 23.5982 26.0263L23.9893 26.3379L24.3803 26.6495C25.2681 25.5352 25.4478 24.0082 24.8271 22.7239L24.377 22.9414ZM23.9893 26.3379V25.8379H23.9844V26.3379V26.8379H23.9893V26.3379ZM23.9844 26.3379L23.5942 26.0253L16.5199 34.8553L16.9102 35.168L17.3004 35.4806L24.3746 26.6505L23.9844 26.3379ZM16.9102 35.168L16.5205 34.8546C16.0056 35.4948 15.2262 35.8672 14.4004 35.8672L14.4004 36.3672L14.4004 36.8672C15.5275 36.8672 16.594 36.3588 17.2998 35.4813L16.9102 35.168ZM14.4004 36.3672V35.8672C13.5745 35.8672 12.7951 35.4948 12.2803 34.8546L11.8906 35.168L11.501 35.4813C12.2067 36.3588 13.2733 36.8672 14.4004 36.8672V36.3672ZM11.8906 35.168V34.668H11.8848V35.168V35.668H11.8906V35.168ZM11.8848 35.168L12.275 34.8554L5.20176 26.0253L4.81152 26.3379L4.42129 26.6505L11.4945 35.4806L11.8848 35.168ZM4.81152 26.3379L5.21365 26.0407C4.61788 25.2345 4.51405 24.1625 4.94517 23.2509L4.49316 23.0371L4.04116 22.8234C3.4534 24.0662 3.59358 25.531 4.40939 26.635L4.81152 26.3379ZM4.49316 23.0371L4.94387 23.2536C5.37846 22.3488 6.27903 21.7568 7.2828 21.7164L7.26269 21.2168L7.24259 20.7172C5.86935 20.7725 4.63736 21.5821 4.04246 22.8206L4.49316 23.0371ZM7.26269 21.2168V21.7168C8.53293 21.7168 9.55664 20.6847 9.55664 19.418H9.05664H8.55664C8.55664 20.1359 7.97711 20.7168 7.26269 20.7168V21.2168ZM9.05664 19.418H9.55664V6.68262H9.05664H8.55664V19.418H9.05664ZM9.05664 6.68262H9.55664C9.55664 6.57062 9.64652 6.47657 9.76762 6.47656L9.76758 5.97656L9.76753 5.47656C9.10332 5.47662 8.55664 6.00928 8.55664 6.68262H9.05664ZM9.76758 5.97656V6.47656C9.82081 6.47656 9.87423 6.49833 9.91305 6.53715L10.2666 6.18359L10.6202 5.83004C10.3936 5.60353 10.0858 5.47656 9.76758 5.47656V5.97656ZM10.2666 6.18359L9.91295 6.53706C9.95185 6.57598 9.97363 6.62953 9.97363 6.68262H10.4736H10.9736C10.9736 6.36434 10.8465 6.05653 10.6202 5.83013L10.2666 6.18359ZM10.4736 6.68262H9.97363V19.3496H10.4736H10.9736V6.68262H10.4736ZM10.4736 19.3496L9.97364 19.3526C9.97803 20.0822 9.68717 20.7807 9.16809 21.2908L9.51855 21.6475L9.86902 22.0041C10.5809 21.3045 10.9796 20.3466 10.9736 19.3466L10.4736 19.3496ZM9.51855 21.6475L9.16654 21.2924C8.6479 21.8065 7.94639 22.0884 7.2183 22.0762L7.20996 22.5762L7.20161 23.0761C8.19948 23.0928 9.16077 22.7062 9.87057 22.0025L9.51855 21.6475ZM7.20996 22.5762L6.988 23.0242L7.09444 23.0769L7.3164 22.6289L7.53837 22.1809L7.43192 22.1281L7.20996 22.5762ZM7.3164 22.6289L7.31255 22.1289C6.43175 22.1357 5.63297 22.643 5.24781 23.4333L5.69726 23.6523L6.14672 23.8714C6.36662 23.4202 6.82154 23.1327 7.32025 23.1289L7.3164 22.6289ZM5.69726 23.6523L5.24778 23.4333C4.86135 24.2265 4.96285 25.1759 5.5127 25.8685L5.90429 25.5576L6.2959 25.2467C5.98634 24.8568 5.92829 24.3197 6.14675 23.8713L5.69726 23.6523ZM5.90429 25.5576H5.40429V25.5635H5.90429H6.40429V25.5576H5.90429ZM5.90429 25.5635L5.51437 25.8765L12.5886 34.6899L12.9785 34.377L13.3684 34.064L6.29422 25.2505L5.90429 25.5635ZM12.9785 34.377L12.5968 34.6999C13.0433 35.2275 13.7036 35.5303 14.3955 35.5303V35.0303V34.5303C13.9942 34.5303 13.6143 34.3543 13.3602 34.054L12.9785 34.377ZM14.3955 35.0303L14.3956 35.5303C15.0828 35.5301 15.7426 35.2267 16.1883 34.6999L15.8066 34.377L15.4249 34.054C15.1704 34.3548 14.7905 34.5302 14.3954 34.5303L14.3955 35.0303ZM15.8066 34.377L16.1602 34.7305L16.1651 34.7256L15.8115 34.3721L15.458 34.0185L15.4531 34.0234L15.8066 34.377ZM15.8115 34.3721L16.2015 34.685L23.2757 25.8706L22.8857 25.5576L22.4958 25.2447L15.4216 34.0591L15.8115 34.3721ZM22.8857 25.5576L23.2721 25.875C23.8401 25.1837 23.9384 24.2245 23.5464 23.4269L23.0977 23.6475L22.6489 23.868C22.8724 24.3226 22.812 24.8597 22.4994 25.2402L22.8857 25.5576ZM23.0977 23.6475L23.5523 23.4394C23.1833 22.6331 22.3652 22.1153 21.4767 22.129L21.4844 22.6289L21.4921 23.1288C21.9832 23.1213 22.4389 23.4096 22.643 23.8556L23.0977 23.6475ZM21.4844 22.6289L21.4844 22.1289C19.9825 22.1288 18.7686 20.9136 18.7686 19.418H18.2686H17.7686C17.7686 21.4669 19.4312 23.1287 21.4843 23.1289L21.4844 22.6289ZM18.2686 19.418H18.7686V6.68262H18.2686H17.7686V19.418H18.2686ZM18.2686 6.68262H18.7686C18.7686 6.57104 18.8584 6.47664 18.9798 6.47656L18.9795 5.97656L18.9792 5.47656C18.3156 5.47699 17.7686 6.00914 17.7686 6.68262H18.2686ZM36.3867 0.5L36.3867 1C37.1999 1.0001 37.9788 1.36026 38.5106 1.98217L38.8906 1.65723L39.2706 1.33228C38.5502 0.489792 37.4944 0.000139683 36.3868 0L36.3867 0.5ZM38.8906 1.65723H38.3906V1.66211H38.8906H39.3906V1.65723H38.8906ZM38.8906 1.66211L38.5007 1.97507L45.5749 10.7895L45.9648 10.4766L46.3548 10.1636L39.2806 1.34915L38.8906 1.66211ZM45.9648 10.4766L45.5757 10.7905C46.2282 11.5994 46.355 12.7152 45.906 13.6581L46.3574 13.873L46.8088 14.088C47.4212 12.8022 47.2509 11.2746 46.354 10.1627L45.9648 10.4766ZM46.3574 13.873L45.9068 13.6563C45.4537 14.5984 44.5031 15.1982 43.46 15.1982V15.6982V16.1982C44.8895 16.1982 46.1892 15.3763 46.808 14.0898L46.3574 13.873ZM43.46 15.6982L43.4655 15.1983C42.8543 15.1915 42.2635 15.4298 41.8281 15.8652L42.1816 16.2188L42.5352 16.5723C42.779 16.3285 43.1105 16.1944 43.4544 16.1982L43.46 15.6982ZM42.1816 16.2188L41.8281 15.8652C41.3963 16.297 41.1504 16.8797 41.1504 17.4922H41.6504H42.1504C42.1504 17.1495 42.2877 16.8198 42.5352 16.5723L42.1816 16.2188ZM41.6504 17.4922H41.1504V30.2275H41.6504H42.1504V17.4922H41.6504ZM41.6504 30.2275H41.1504C41.1504 30.2876 41.1274 30.3403 41.0897 30.378L41.4434 30.7314L41.797 31.0849C42.0244 30.8573 42.1504 30.5494 42.1504 30.2275H41.6504ZM41.4434 30.7314L41.0898 30.3779C41.0522 30.4155 40.9997 30.4385 40.9394 30.4385L40.9395 30.9385L40.9395 31.4385C41.2613 31.4385 41.5692 31.3127 41.7969 31.085L41.4434 30.7314ZM40.9395 30.9385L40.9532 30.4387C40.8295 30.4353 40.7349 30.3356 40.7333 30.2207L40.2334 30.2275L39.7334 30.2344C39.7425 30.8942 40.2747 31.4204 40.9257 31.4383L40.9395 30.9385ZM40.2334 30.2275H40.7334V17.4922H40.2334H39.7334V30.2275H40.2334ZM40.2334 17.4922L40.7334 17.4937C40.7379 15.9976 41.9572 14.7813 43.46 14.7812L43.46 14.2812L43.4599 13.7812C41.4074 13.7813 39.7395 15.4421 39.7334 17.4907L40.2334 17.4922ZM43.46 14.2812L43.4638 14.7812C44.3431 14.7745 45.1487 14.2674 45.5291 13.4727L45.0781 13.2568L44.6271 13.041C44.4132 13.488 43.9565 13.7774 43.4561 13.7813L43.46 14.2812ZM45.0781 13.2568L45.5276 13.4758C45.9142 12.6822 45.8119 11.7415 45.2719 11.0459L44.877 11.3525L44.482 11.6592C44.7906 12.0566 44.8467 12.5901 44.6286 13.0379L45.0781 13.2568ZM44.877 11.3525V10.8525H44.8711V11.3525V11.8525H44.877V11.3525ZM44.8711 11.3525L45.2611 11.0396L38.1878 2.22515L37.7979 2.53809L37.4079 2.85102L44.4811 11.6655L44.8711 11.3525ZM37.7979 2.53809L38.1835 2.21987C37.7375 1.67932 37.0811 1.3742 36.3868 1.37402L36.3867 1.87402L36.3866 2.37402C36.7852 2.37412 37.1578 2.54803 37.4122 2.85631L37.7979 2.53809ZM36.3867 1.87402V1.37402C35.6938 1.37402 35.0311 1.67797 34.584 2.21989L34.9697 2.53809L35.3554 2.85628C35.6088 2.54918 35.9864 2.37402 36.3867 2.37402V1.87402ZM34.9697 2.53809L34.5798 2.22513L27.5056 11.0396L27.8955 11.3525L28.2855 11.6655L35.3597 2.85104L34.9697 2.53809ZM27.8955 11.3525L27.5024 11.0435C26.9553 11.7396 26.8523 12.6817 27.2389 13.4757L27.6885 13.2568L28.138 13.0379C27.9202 12.5906 27.9767 12.0583 28.2886 11.6615L27.8955 11.3525ZM27.6885 13.2568L27.239 13.4758C27.6239 14.2659 28.4224 14.7745 29.3038 14.7812L29.3076 14.2812L29.3115 13.7813C28.8131 13.7774 28.358 13.4895 28.138 13.0379L27.6885 13.2568ZM29.3076 14.2812L29.3076 14.7812C30.8101 14.7814 32.0287 15.9975 32.0332 17.4937L32.5332 17.4922L33.0332 17.4907C33.0271 15.4423 31.3602 13.7815 29.3077 13.7812L29.3076 14.2812ZM32.5332 17.4922H32.0332V30.2275H32.5332H33.0332V17.4922H32.5332ZM32.5332 30.2275L32.0332 30.2207C32.0317 30.3363 31.9372 30.4353 31.8143 30.4387L31.8281 30.9385L31.842 31.4383C32.4936 31.4202 33.0241 30.8934 33.0332 30.2344L32.5332 30.2275ZM31.8281 30.9385V30.4385C31.7749 30.4385 31.7215 30.4167 31.6826 30.3779L31.3291 30.7314L30.9756 31.085C31.2021 31.3115 31.5099 31.4385 31.8281 31.4385V30.9385ZM31.3291 30.7314L31.6828 30.378C31.645 30.3403 31.6221 30.2875 31.6221 30.2275H31.1221H30.6221C30.6221 30.5494 30.7481 30.8574 30.9754 31.0849L31.3291 30.7314ZM31.1221 30.2275H31.6221V17.4922H31.1221H30.6221V30.2275H31.1221ZM31.1221 17.4922H31.6221C31.6221 16.8805 31.3773 16.2974 30.9455 15.8653L30.5918 16.2188L30.2381 16.5722C30.485 16.8193 30.6221 17.1491 30.6221 17.4922H31.1221ZM30.5918 16.2188L30.9426 15.8625C30.504 15.4306 29.9197 15.1916 29.3022 15.1983L29.3076 15.6982L29.313 16.1982C29.6611 16.1945 29.9899 16.3278 30.241 16.575L30.5918 16.2188ZM29.3076 15.6982V15.1982C28.2689 15.1982 27.314 14.5977 26.8665 13.658L26.415 13.873L25.9636 14.088C26.5775 15.3769 27.8844 16.1982 29.3076 16.1982V15.6982ZM26.415 13.873L26.8656 13.6563C26.4133 12.7159 26.5434 11.6 27.193 10.7892L26.8027 10.4766L26.4125 10.164C25.5232 11.2741 25.3448 12.8015 25.9644 14.0898L26.415 13.873ZM26.8027 10.4766L27.1868 10.7967L27.1917 10.7908L26.8076 10.4707L26.4235 10.1506L26.4186 10.1565L26.8027 10.4766ZM26.8076 10.4707L27.1975 10.7837L34.2718 1.97021L33.8818 1.65723L33.4919 1.34425L26.4177 10.1577L26.8076 10.4707ZM33.8818 1.65723L34.2632 1.9806C34.7888 1.36076 35.5672 1 36.3867 1V0.5V0C35.2746 0 34.2168 0.489071 33.5005 1.33385L33.8818 1.65723Z" fill="url(#paint1_linear_1373_2536)"/>
<defs>
<linearGradient id="paint0_linear_1373_2536" x1="25.3546" y1="0.5" x2="25.3546" y2="72.5" gradientUnits="userSpaceOnUse">
<stop stop-color="#0BE6E6"/>
<stop offset="1" stop-color="#0B9292" stop-opacity="0.45"/>
</linearGradient>
<linearGradient id="paint1_linear_1373_2536" x1="25.3546" y1="0.5" x2="25.3546" y2="72.5" gradientUnits="userSpaceOnUse">
<stop stop-color="#0BE6E6"/>
<stop offset="1" stop-color="#0B9292" stop-opacity="0.45"/>
</linearGradient>
</defs>
</svg>
