<svg width="64" height="58" viewBox="0 0 64 58" fill="none" xmlns="http://www.w3.org/2000/svg">
<path d="M35 8C35 11.3137 27.6127 14 18.5 14C9.3873 14 2 11.3137 2 8M35 8C35 4.68629 27.6127 2 18.5 2C9.3873 2 2 4.68629 2 8M35 8V12.5M2 8V44C2 47.3137 9.3873 50 18.5 50M18.5 26C17.9944 26 17.494 25.9917 17 25.9755C8.59025 25.7 2 23.1298 2 20M18.5 38C9.3873 38 2 35.3137 2 32M62 27.5C62 30.8137 54.6127 33.5 45.5 33.5C36.3873 33.5 29 30.8137 29 27.5M62 27.5C62 24.1863 54.6127 21.5 45.5 21.5C36.3873 21.5 29 24.1863 29 27.5M62 27.5V50C62 53.3137 54.6127 56 45.5 56C36.3873 56 29 53.3137 29 50V27.5M62 38.75C62 42.0637 54.6127 44.75 45.5 44.75C36.3873 44.75 29 42.0637 29 38.75" stroke="#F7C948" stroke-width="3" stroke-linecap="round" stroke-linejoin="round"/>
</svg>
