<svg width="61" height="61" viewBox="0 0 61 61" fill="none" xmlns="http://www.w3.org/2000/svg">
<path d="M53.8538 31.4866C54.2837 33.0175 55.6902 34.1469 57.3608 34.1469C59.3708 34.1469 61 32.515 61 30.5074C61 28.4973 59.363 26.8679 57.3608 26.8679C55.6902 26.8679 54.2838 27.9947 53.8538 29.5282L44.9155 29.523V25.0468H48.2231C48.6142 25.0468 48.9717 24.8137 49.1245 24.451L51.4246 19.12C51.5826 19.1407 51.7432 19.1537 51.9089 19.1537C53.9189 19.1537 55.5481 17.5218 55.5481 15.5142C55.5481 13.5041 53.9163 11.8747 51.9089 11.8747C49.899 11.8747 48.2698 13.5066 48.2698 15.5142C48.2698 16.654 48.8008 17.6771 49.6219 18.3403L47.5808 23.0755H44.9208V20.3504C44.9208 18.0035 43.0118 16.0866 40.6574 16.0866L37.9274 16.0814V13.1491L44.0142 6.37777H51.8259C52.2559 7.90869 53.6623 9.03808 55.333 9.03808C57.3429 9.03808 58.9722 7.40617 58.9722 5.39858C58.9722 3.38847 57.3404 1.75907 55.333 1.75907C53.6624 1.75907 52.2559 2.88588 51.8259 4.41939L43.5766 4.4168C43.2969 4.4168 43.0327 4.53596 42.8461 4.74059L36.2154 12.1207C36.0574 12.2994 35.9641 12.5377 35.9641 12.776V16.084H31.4884V7.1495C33.0191 6.71949 34.1484 5.31294 34.1484 3.64209C34.1407 1.63199 32.5114 0 30.5015 0C28.4916 0 26.8624 1.63192 26.8624 3.63951C26.8624 5.31028 27.9891 6.71687 29.5224 7.14691V16.086H25.0467V12.7781C25.0467 12.3869 24.8135 12.0295 24.4509 11.8766L19.1204 9.57632C19.1411 9.41831 19.1541 9.2577 19.1541 9.09192C19.1541 7.08181 17.5223 5.45241 15.5149 5.45241C13.505 5.45241 11.8757 7.08433 11.8757 9.09192C11.8757 11.102 13.5127 12.7314 15.5149 12.7314C16.6546 12.7314 17.6776 12.2004 18.3459 11.3792L23.0807 13.4204V16.0807H20.3558C18.0091 16.0807 16.0924 17.9899 16.0924 20.3445V23.0696H13.1604L6.3897 16.9822L6.38452 9.17707C7.9153 8.74706 9.04459 7.3405 9.04459 5.66966C9.04459 3.65955 7.41282 2.03015 5.40542 2.03015C3.39551 2.03015 1.76626 3.66207 1.76626 5.66966C1.76626 7.34044 2.89296 8.74702 4.42633 9.17707V17.4272C4.42633 17.7069 4.54547 17.9712 4.75009 18.1577L12.1295 24.7891C12.3082 24.9471 12.5465 25.0404 12.7848 25.0404H16.0924V29.5165H7.14882C6.71886 27.9856 5.31243 26.8562 3.64175 26.8562C1.637 26.864 0 28.4934 0 30.5035C0 32.5136 1.637 34.143 3.63916 34.143C5.30978 34.143 6.71623 33.0162 7.14624 31.4827H16.0845V35.9589H12.7769C12.3858 35.9589 12.0283 36.192 11.8755 36.5547L9.57542 41.8857C9.41742 41.865 9.25683 41.852 9.09106 41.852C7.08114 41.852 5.4519 43.4839 5.4519 45.4915C5.4519 47.5016 7.08366 49.131 9.09106 49.131C11.101 49.131 12.7302 47.4991 12.7302 45.4915C12.7302 44.3517 12.1992 43.3286 11.3781 42.6603L13.4192 37.925H16.0792V40.6502C16.0792 42.9971 17.9881 44.9139 20.3426 44.9139H23.0674V47.8463L16.9806 54.6176L9.1762 54.6228C8.74623 53.0918 7.33981 51.9625 5.66912 51.9625C3.65921 51.9625 2.02996 53.5944 2.02996 55.602C2.02996 57.6121 3.66173 59.2415 5.66912 59.2415C7.33974 59.2415 8.74619 58.1147 9.1762 56.5811H17.4255C17.7053 56.5811 17.9695 56.462 18.156 56.2574L24.7867 48.8773C24.9447 48.6985 25.038 48.4602 25.038 48.2219V44.914H29.5137V53.8531C27.983 54.2831 26.8537 55.6897 26.8537 57.3605C26.8537 59.3706 28.4854 61 30.4928 61C32.5028 61 34.132 59.3681 34.132 57.3605C34.132 55.6897 33.0053 54.2831 31.4719 53.8531L31.4745 44.9186H35.9503V48.2265C35.9503 48.6177 36.1834 48.9752 36.546 49.128L41.8766 51.4283C41.8559 51.5863 41.8429 51.7469 41.8429 51.9127C41.8429 53.9228 43.4747 55.5522 45.4821 55.5522C47.492 55.5522 49.1212 53.9203 49.1212 51.9127C49.1212 49.9026 47.4842 48.2732 45.4821 48.2732C44.3424 48.2732 43.3193 48.8042 42.6511 49.6254L37.9163 47.5842V44.9239H40.6411C42.9878 44.9239 44.9045 43.0148 44.9045 40.6601L44.9097 37.9298H47.8418L54.6124 44.0173V51.8297C53.0817 52.2597 51.9524 53.6663 51.9524 55.3371C51.9524 57.3472 53.5894 58.9766 55.5915 58.9766C57.6014 58.9766 59.2307 57.3395 59.2307 55.3371C59.2307 53.6715 58.104 52.2597 56.5706 51.8297L56.5732 43.5796C56.5732 43.2998 56.4541 43.0356 56.2495 42.8491L48.8701 36.2177C48.6914 36.0597 48.4531 35.9664 48.2148 35.9664H44.9071V31.4902H53.8534L53.8538 31.4866ZM57.3634 28.8263C58.2855 28.8263 59.0418 29.5749 59.0418 30.5048C59.0418 31.4321 58.2933 32.1833 57.3634 32.1833C56.4413 32.1833 55.685 31.4347 55.685 30.5048C55.685 29.5775 56.4336 28.8263 57.3634 28.8263ZM51.9111 13.8407C52.8332 13.8407 53.5895 14.5893 53.5895 15.5192C53.5895 16.4465 52.841 17.1977 51.9111 17.1977C50.9891 17.1977 50.2328 16.4491 50.2328 15.5192C50.2354 14.5893 50.9891 13.8407 51.9111 13.8407ZM55.3328 3.72779C56.2548 3.72779 57.0111 4.47641 57.0111 5.40633C57.0111 6.33366 56.2626 7.08486 55.3328 7.08486C54.4055 7.08486 53.6544 6.33625 53.6544 5.40633C53.657 4.47641 54.4055 3.72779 55.3328 3.72779ZM28.823 3.63972C28.823 2.71756 29.5715 1.96118 30.5013 1.96118C31.4234 1.96118 32.1797 2.7098 32.1797 3.63972C32.1797 4.56705 31.4312 5.31826 30.5013 5.31826C29.5793 5.31826 28.823 4.56964 28.823 3.63972ZM15.5097 10.7685C14.5876 10.7685 13.8313 10.0198 13.8313 9.08992C13.8313 8.16259 14.5799 7.41139 15.5097 7.41139C16.437 7.41139 17.1881 8.16 17.1881 9.08992C17.1881 10.0198 16.437 10.7685 15.5097 10.7685ZM3.72685 5.67058C3.72685 4.74842 4.4754 3.99204 5.40523 3.99204C6.32731 3.99204 7.08361 4.74066 7.08361 5.67058C7.08361 6.59274 6.33506 7.34912 5.40523 7.34912C4.4754 7.34653 3.72685 6.59791 3.72685 5.67058ZM3.63879 32.1829C2.71672 32.1829 1.96041 31.4343 1.96041 30.5043C1.96041 29.577 2.70896 28.8258 3.63879 28.8258C4.56087 28.8258 5.31717 29.5744 5.31717 30.5043C5.31717 31.4317 4.56862 32.1829 3.63879 32.1829ZM9.09107 47.1685C8.16899 47.1685 7.41269 46.4199 7.41269 45.49C7.41269 44.5626 8.16124 43.8114 9.09107 43.8114C10.0131 43.8114 10.7694 44.56 10.7694 45.49C10.7669 46.4199 10.0131 47.1685 9.09107 47.1685ZM5.66946 57.2814C4.74739 57.2814 3.99108 56.5327 3.99108 55.6028C3.99108 54.6807 4.73963 53.9243 5.66946 53.9243C6.59671 53.9243 7.34784 54.6729 7.34784 55.6028C7.34525 56.5327 6.59671 57.2814 5.66946 57.2814ZM32.1792 57.3694C32.1792 58.2916 31.4307 59.048 30.5009 59.048C29.5788 59.048 28.8225 58.2994 28.8225 57.3694C28.8225 56.4421 29.571 55.6909 30.5009 55.6909C31.4229 55.6909 32.1792 56.4395 32.1792 57.3694ZM45.4925 50.2407C46.4146 50.2407 47.1709 50.9893 47.1709 51.9192C47.1709 52.8414 46.4223 53.5978 45.4925 53.5978C44.5653 53.5978 43.8141 52.8491 43.8141 51.9192C43.8141 50.9945 44.5653 50.2407 45.4925 50.2407ZM42.9464 40.6563C42.9464 41.9231 41.9181 42.9514 40.6516 42.9514H20.3502C19.0836 42.9514 18.0553 41.923 18.0553 40.6563V20.353C18.0553 19.0863 19.0836 18.058 20.3502 18.058H40.6542C41.9208 18.058 42.9491 19.0864 42.9491 20.353L42.9464 40.6563ZM57.2748 55.3389C57.2748 56.2611 56.5263 57.0174 55.5965 57.0174C54.6744 57.0174 53.9181 56.2688 53.9181 55.3389C53.9181 54.4167 54.6666 53.6604 55.5965 53.6604C56.5263 53.663 57.2748 54.4116 57.2748 55.3389ZM39.8432 20.1793H21.1577C20.6138 20.1793 20.176 20.6171 20.176 21.1611V39.843C20.176 40.387 20.6138 40.8248 21.1577 40.8248H39.8379C40.3818 40.8248 40.8196 40.387 40.8196 39.843L40.817 21.1611C40.8248 20.6171 40.3872 20.1793 39.8432 20.1793ZM38.8564 38.8612H22.1448V22.1481H38.8537L38.8564 38.8612ZM32.1321 32.6676C32.1321 32.0175 31.6011 31.4942 30.9588 31.4942H30.0496C28.3194 31.4942 26.9078 30.0825 26.9078 28.3521C26.9078 26.8004 28.0423 25.5078 29.5212 25.2539V24.6504C29.5212 24.1064 29.959 23.6686 30.5029 23.6686C31.0469 23.6686 31.4846 24.1064 31.4846 24.6504L31.482 25.1995H33.1138C33.6577 25.1995 34.0955 25.6373 34.0955 26.1813C34.0955 26.7253 33.6577 27.1631 33.1138 27.1631H30.0445C29.3943 27.1631 28.8712 27.6941 28.8712 28.3365C28.8712 28.9789 29.4021 29.5099 30.0445 29.5099H30.9536C32.6916 29.5099 34.0955 30.9217 34.0955 32.6521C34.0955 34.2037 32.961 35.4964 31.482 35.7502V36.3538C31.482 36.8978 31.0443 37.3356 30.5003 37.3356C29.9564 37.3356 29.5187 36.8978 29.5187 36.3538V35.8098H27.8869C27.343 35.8098 26.9052 35.372 26.9052 34.828C26.9052 34.284 27.3429 33.8462 27.8869 33.8462H30.9562C31.6012 33.8411 32.1321 33.3152 32.1321 32.6676Z" fill="url(#paint0_linear_781_2623)"/>
<defs>
<linearGradient id="paint0_linear_781_2623" x1="30.5" y1="0" x2="30.5" y2="61" gradientUnits="userSpaceOnUse">
<stop stop-color="#0BE6E6"/>
<stop offset="1" stop-color="#0B9292" stop-opacity="0.45"/>
</linearGradient>
</defs>
</svg>
