<svg width="84" height="84" viewBox="0 0 84 84" fill="none" xmlns="http://www.w3.org/2000/svg">
<path d="M21 70.305H30.136C31.3272 70.305 32.5111 70.4468 33.6658 70.7303L43.3191 73.0761C45.4137 73.5863 47.5957 73.636 49.7122 73.2249L60.3854 71.1484C63.2049 70.5991 65.7985 69.2491 67.8312 67.2718L75.3826 59.926C77.5391 57.8318 77.5391 54.4335 75.3826 52.3357C73.441 50.447 70.3665 50.2344 68.17 51.8361L59.3691 58.257C58.1087 59.1783 56.5751 59.6744 54.9978 59.6744H46.4992L51.9087 59.6742C54.9577 59.6742 57.4275 57.2716 57.4275 54.3057V53.232C57.4275 50.7692 55.7045 48.6219 53.2493 48.0265L44.9001 45.9961C43.5413 45.6665 42.1498 45.5 40.751 45.5C37.3742 45.5 31.2616 48.2959 31.2616 48.2959L21 52.5871M7 51.1L7 71.4C7 73.3602 7 74.3403 7.38148 75.089C7.71703 75.7475 8.25247 76.283 8.91103 76.6185C9.65972 77 10.6398 77 12.6 77H15.4C17.3602 77 18.3403 77 19.089 76.6185C19.7475 76.283 20.283 75.7475 20.6185 75.089C21 74.3403 21 73.3602 21 71.4V51.1C21 49.1398 21 48.1597 20.6185 47.411C20.283 46.7525 19.7475 46.217 19.089 45.8815C18.3403 45.5 17.3602 45.5 15.4 45.5L12.6 45.5C10.6398 45.5 9.65973 45.5 8.91103 45.8815C8.25247 46.217 7.71703 46.7525 7.38148 47.411C7 48.1597 7 49.1398 7 51.1Z" stroke="url(#paint0_linear_524_19464)" stroke-width="2" stroke-linecap="round" stroke-linejoin="round"/>
<path fill-rule="evenodd" clip-rule="evenodd" d="M59.0625 5.72727C51.3525 5.72727 45.1023 11.9775 45.1023 19.6875C45.1023 27.3975 51.3525 33.6477 59.0625 33.6477C66.7725 33.6477 73.0227 27.3975 73.0227 19.6875C73.0227 11.9775 66.7725 5.72727 59.0625 5.72727ZM42 19.6875C42 10.2641 49.6391 2.625 59.0625 2.625C68.4859 2.625 76.125 10.2641 76.125 19.6875C76.125 29.1109 68.4859 36.75 59.0625 36.75C49.6391 36.75 42 29.1109 42 19.6875ZM59.0625 8.05398C59.9192 8.05398 60.6136 8.74844 60.6136 9.60511V10.3807H60.8722C63.7277 10.3807 66.0426 12.6956 66.0426 15.5511C66.0426 16.4078 65.3481 17.1023 64.4915 17.1023C63.6348 17.1023 62.9403 16.4078 62.9403 15.5511C62.9403 14.4089 62.0144 13.483 60.8722 13.483H57.5114C56.2264 13.483 55.1847 14.5247 55.1847 15.8097C55.1847 17.0947 56.2264 18.1364 57.5114 18.1364H60.6136C63.612 18.1364 66.0426 20.567 66.0426 23.5653C66.0426 26.5637 63.612 28.9943 60.6136 28.9943V29.7699C60.6136 30.6266 59.9192 31.321 59.0625 31.321C58.2058 31.321 57.5114 30.6266 57.5114 29.7699V28.9943H57.2528C54.3973 28.9943 52.0824 26.6794 52.0824 23.8239C52.0824 22.9672 52.7769 22.2727 53.6335 22.2727C54.4902 22.2727 55.1847 22.9672 55.1847 23.8239C55.1847 24.9661 56.1106 25.892 57.2528 25.892H60.6136C61.8986 25.892 62.9403 24.8503 62.9403 23.5653C62.9403 22.2803 61.8986 21.2386 60.6136 21.2386H57.5114C54.513 21.2386 52.0824 18.808 52.0824 15.8097C52.0824 12.8113 54.513 10.3807 57.5114 10.3807V9.60511C57.5114 8.74844 58.2058 8.05398 59.0625 8.05398Z" fill="#0BD5D5"/>
<defs>
<linearGradient id="paint0_linear_524_19464" x1="42" y1="45.5" x2="42" y2="77" gradientUnits="userSpaceOnUse">
<stop stop-color="#0BE6E6"/>
<stop offset="1" stop-color="#0B9292" stop-opacity="0.45"/>
</linearGradient>
</defs>
</svg>
