<svg width="200" height="204" viewBox="0 0 200 204" fill="none" xmlns="http://www.w3.org/2000/svg">
<path d="M97.0757 24.0014V2.90142C97.0757 1.29618 98.3873 0 100.012 0C101.636 0 102.948 1.2962 102.948 2.90142V24.0014C102.948 25.6066 101.636 26.9028 100.012 26.9028C98.3873 26.877 97.0757 25.6066 97.0757 24.0014ZM165.992 28.7226L150.895 43.6419C149.757 44.7665 149.757 46.6121 150.895 47.7281C151.477 48.3032 152.207 48.5865 152.962 48.5865C153.718 48.5865 154.456 48.3032 155.03 47.7281L170.127 32.8087C171.264 31.6842 171.264 29.8385 170.127 28.7226C168.989 27.5809 167.121 27.5809 165.992 28.7226ZM196.229 95.1127H174.879C173.254 95.1127 171.943 96.4089 171.943 98.0141C171.943 99.6193 173.254 100.915 174.879 100.915H196.229C197.854 100.915 199.165 99.6193 199.165 98.0141C199.165 96.4088 197.854 95.1127 196.229 95.1127ZM155.022 148.291C153.885 147.167 152.017 147.167 150.888 148.291C149.75 149.416 149.75 151.261 150.888 152.377L165.985 167.297C166.567 167.872 167.296 168.155 168.052 168.155C168.808 168.155 169.546 167.872 170.119 167.297C171.257 166.172 171.257 164.326 170.119 163.21L155.022 148.291ZM45.0016 47.7094C45.5836 48.2845 46.3132 48.5678 47.0689 48.5678C47.8246 48.5678 48.563 48.2845 49.1363 47.7094C50.2742 46.5849 50.2742 44.7392 49.1363 43.6233L34.0395 28.7039C32.9016 27.5794 31.034 27.5794 29.9048 28.7039C28.7669 29.8284 28.7669 31.6741 29.9048 32.79L45.0016 47.7094ZM25.1188 95.1105H3.76795C2.14362 95.1105 0.832031 96.4067 0.832031 98.0119C0.832031 99.6171 2.16971 100.888 3.79397 100.888H25.1448C26.7692 100.888 28.0807 99.5914 28.0807 97.9862C28.0721 96.3895 26.7431 95.1105 25.1188 95.1105ZM45.0016 148.289L29.9048 163.208C28.7669 164.333 28.7669 166.178 29.9048 167.294C30.4868 167.869 31.2164 168.153 31.9722 168.153C32.7279 168.153 33.4662 167.869 34.0395 167.294L49.1363 152.375C50.2742 151.25 50.2742 149.405 49.1363 148.289C47.981 147.173 46.1308 147.147 45.0016 148.289ZM68.2123 192.857C70.9659 192.857 73.2156 190.634 73.2156 187.913C73.2156 185.192 70.9659 182.968 68.2123 182.968C65.4588 182.968 63.2091 185.192 63.2091 187.913C63.1917 190.634 65.4588 192.857 68.2123 192.857ZM134.636 152.229C130.102 158.581 130.162 162.693 130.258 166.668C130.258 167.191 130.284 167.698 130.284 168.204V171.809H130.814C134.948 171.809 138.327 175.149 138.327 179.235V196.575C138.327 200.661 134.948 204 130.814 204H58.9867C54.852 204 51.4732 200.661 51.4732 196.575V179.235C51.4732 175.149 54.852 171.809 58.9867 171.809H59.5427V149.568C59.5427 147.13 58.8738 145.061 57.4319 143.061C51.7424 135.258 48.7369 126.056 48.7369 116.467V72.3444C48.7369 64.8503 54.8954 58.7642 62.4785 58.7642C65.5708 58.7642 68.4373 59.7771 70.7304 61.4854C72.1289 55.4679 77.6011 50.9611 84.1418 50.9611C87.2341 50.9611 90.1006 51.9741 92.3937 53.6824C93.7922 47.6648 99.2644 43.1581 105.805 43.1581C109.228 43.1581 112.363 44.4114 114.769 46.4544C116.863 41.5528 121.753 38.1277 127.442 38.1277C135.026 38.1277 141.184 44.2138 141.184 51.7079V70.9621C147.898 71.1595 153.284 73.4001 156.819 77.4862C160.354 81.5723 161.909 87.2635 161.31 93.9678L159.712 111.66C158.643 123.549 148.037 136.099 140.324 145.258C137.97 147.988 135.991 150.332 134.636 152.229ZM119.513 70.9638L135.322 70.9381V51.6924C135.322 47.3832 131.787 43.8893 127.426 43.8893C123.066 43.8893 119.53 47.383 119.53 51.6924L119.539 70.9638L119.513 70.9638ZM97.8582 77.4191C97.8582 81.1532 100.525 84.2779 104.086 85.042C103.461 83.5054 103.018 81.8744 102.801 80.1834C102.471 77.7885 103.131 75.565 104.738 73.7453C106.336 71.9254 108.473 70.9555 110.922 70.9555H113.702V56.7143C113.702 52.4051 110.167 48.9112 105.806 48.9112C101.446 48.9112 97.9101 52.4049 97.9101 56.7143L97.9015 77.4193L97.8582 77.4191ZM76.2207 85.2222C76.2207 89.5313 79.7559 93.0252 84.1165 93.0252C88.4769 93.0252 92.0124 89.5315 92.0124 85.2222V64.5428C92.0124 60.2336 88.4771 56.7398 84.1165 56.7398C79.7561 56.7398 76.2207 60.2334 76.2207 64.5428V85.2222ZM54.5572 93.0252C54.5572 97.3344 58.0924 100.828 62.453 100.828C66.8136 100.828 70.3488 97.3346 70.3488 93.0252V72.3458C70.3488 68.0367 66.8136 64.5428 62.453 64.5428C58.0924 64.5428 54.5572 68.0365 54.5572 72.3458V93.0252ZM130.814 177.587H58.9867C58.0747 177.587 57.319 178.334 57.319 179.235V196.575C57.319 197.476 58.0747 198.223 58.9867 198.223H130.814C131.726 198.223 132.482 197.476 132.482 196.575V179.235C132.482 178.308 131.743 177.587 130.814 177.587ZM135.791 141.543C143.044 132.95 152.955 121.215 153.85 111.129L155.448 93.4366C155.917 88.3205 154.823 84.097 152.356 81.2213C149.75 78.234 145.685 76.7146 140.212 76.7146L110.887 76.7403C110.157 76.7403 109.601 77.0064 109.132 77.5301C108.663 78.0795 108.489 78.6546 108.576 79.3757C109.618 86.6465 116.046 92.3636 123.23 92.3636H130.17C131.751 92.3636 133.193 93.0246 134.235 94.2092C135.277 95.3938 135.703 96.9133 135.477 98.4498L134.834 102.776C134.661 103.918 133.835 104.845 132.724 105.128C127.79 106.468 111.173 112.047 104.398 127.783C103.773 129.259 102.044 129.937 100.55 129.302C99.0563 128.684 98.3701 126.976 99.0129 125.499C106.127 109.044 122.275 102.296 129.346 100.074L129.633 98.1166H123.274C117.133 98.1166 111.513 95.3011 107.683 90.8458C107.057 90.9316 106.44 90.9746 105.841 90.9746C102.749 90.9746 99.8823 89.9616 97.5893 88.2533C96.1908 94.2709 90.7186 98.7776 84.1778 98.7776C81.0856 98.7776 78.2191 97.7647 75.926 96.0564C74.5275 102.074 69.0553 106.581 62.5146 106.581C59.5786 106.581 56.8424 105.654 54.6187 104.1V116.41C54.6187 124.779 57.242 132.805 62.2279 139.638C64.4082 142.625 65.4505 145.853 65.4505 149.527V171.768H124.491V168.163C124.491 167.699 124.491 167.218 124.465 166.738C124.378 162.514 124.265 156.763 129.938 148.848C131.345 146.823 133.411 144.384 135.791 141.543Z" fill="url(#paint0_linear_1332_116)"/>
<defs>
<linearGradient id="paint0_linear_1332_116" x1="99.9987" y1="0" x2="99.9987" y2="204" gradientUnits="userSpaceOnUse">
<stop stop-color="#0BE6E6"/>
<stop offset="1" stop-color="#0B9292" stop-opacity="0.45"/>
</linearGradient>
</defs>
</svg>
