<svg width="312" height="312" viewBox="0 0 312 312" fill="none" xmlns="http://www.w3.org/2000/svg">
<path d="M36 246V243C36 217.798 36 205.196 40.9047 195.57C45.219 187.103 52.1031 180.219 60.5704 175.905C70.1965 171 82.7976 171 108 171H204C229.202 171 241.804 171 251.43 175.905C259.897 180.219 266.781 187.103 271.095 195.57C276 205.196 276 217.798 276 243V246M36 246C19.4315 246 6 259.431 6 276C6 292.569 19.4315 306 36 306C52.5685 306 66 292.569 66 276C66 259.431 52.5685 246 36 246ZM276 246C259.431 246 246 259.431 246 276C246 292.569 259.431 306 276 306C292.569 306 306 292.569 306 276C306 259.431 292.569 246 276 246ZM156 246C139.431 246 126 259.431 126 276C126 292.569 139.431 306 156 306C172.569 306 186 292.569 186 276C186 259.431 172.569 246 156 246ZM156 246V96M66 96H246C259.978 96 266.967 96 272.481 93.7164C279.831 90.6716 285.672 84.8313 288.716 77.4805C291 71.9674 291 64.9782 291 51C291 37.0218 291 30.0326 288.716 24.5195C285.672 17.1687 279.831 11.3284 272.481 8.28361C266.967 6 259.978 6 246 6H66C52.0218 6 45.0326 6 39.5195 8.28361C32.1687 11.3284 26.3284 17.1687 23.2836 24.5195C21 30.0326 21 37.0218 21 51C21 64.9782 21 71.9674 23.2836 77.4805C26.3284 84.8313 32.1687 90.6716 39.5195 93.7164C45.0326 96 52.0218 96 66 96Z" stroke="#05A6A6" stroke-width="12" stroke-linecap="round" stroke-linejoin="round"/>
</svg>
