<svg width="70" height="63" viewBox="0 0 70 63" fill="none" xmlns="http://www.w3.org/2000/svg">
<path d="M34.9985 2.68703C42.9887 2.68703 50.2149 5.91048 55.4534 11.1282C60.6867 16.3416 63.9268 23.5447 63.9268 31.5051C63.9268 39.4655 60.691 46.6635 55.4534 51.882C50.22 57.0954 42.9894 60.3232 34.9985 60.3232C27.0076 60.3232 19.7822 57.0997 14.5437 51.882C9.31032 46.6686 6.07024 39.4655 6.07024 31.5051C6.07024 23.5447 9.30601 16.3467 14.5437 11.1282C19.777 5.91477 27.0076 2.68703 34.9985 2.68703ZM0.923276 62.9992C0.414179 62.9992 0 62.5866 0 62.0795C0 62.0279 0.0043138 61.972 0.0129431 61.9248C0.0043138 61.8732 0 61.8216 0 61.77V45.507C0 44.9998 0.414179 44.5872 0.923276 44.5872C1.43237 44.5872 1.84655 44.9998 1.84655 45.507V61.1605H17.2484C17.7575 61.1605 18.1717 61.5731 18.1717 62.0802C18.1717 62.5874 17.7575 63 17.2484 63L0.923276 62.9992ZM69.9827 61.9248C69.9914 61.9763 69.9957 62.0279 69.9957 62.0795C69.9957 62.5866 69.5815 62.9992 69.0724 62.9992H52.7472C52.2381 62.9992 51.8239 62.5866 51.8239 62.0795C51.8239 61.5723 52.2381 61.1597 52.7472 61.1597H68.1491V45.5062C68.1491 44.9991 68.5632 44.5865 69.0723 44.5865C69.5814 44.5865 69.9956 44.9991 69.9956 45.5062V61.7693C69.9956 61.8208 69.9914 61.8732 69.9827 61.9248ZM69.0767 0.0050597C69.5858 0.0050597 70 0.417661 70 0.924818C70 0.976392 69.9957 1.02797 69.9871 1.07954C69.9957 1.13111 70 1.18269 70 1.22997V17.493C70 18.0002 69.5858 18.4128 69.0767 18.4128C68.5676 18.4128 68.1535 18.0002 68.1535 17.493V1.83951H52.7516C52.2425 1.83951 51.8283 1.42691 51.8283 0.919756C51.8283 0.412599 52.2425 0 52.7516 0H69.0768L69.0767 0.0050597ZM0.0172637 1.07954C0.00863447 1.02796 0.00432067 0.976387 0.00432067 0.924818C0.00432067 0.417661 0.418498 0.0050597 0.927594 0.0050597H17.2528C17.7619 0.0050597 18.1761 0.417661 18.1761 0.924818C18.1761 1.43197 17.7619 1.84457 17.2528 1.84457H1.85094V17.4981C1.85094 18.0052 1.43676 18.4178 0.927662 18.4178C0.418565 18.4178 0.00438598 18.0052 0.00438598 17.4981V1.23503C0.00438598 1.18345 0.00869978 1.13188 0.017329 1.0846L0.0172637 1.07954ZM35.9259 53.5094C35.9259 54.0166 35.5118 54.4292 35.0027 54.4292C34.4936 54.4292 34.0794 54.0166 34.0794 53.5094V51.0124C29.0316 50.7803 24.4843 48.6443 21.1405 45.3133C17.7969 41.9825 15.6526 37.4525 15.4196 32.4237H12.913C12.4039 32.4237 11.9897 32.0111 11.9897 31.504C11.9897 30.9968 12.4039 30.5842 12.913 30.5842H15.4196C15.6526 25.5556 17.7968 21.0256 21.1405 17.6946C24.4842 14.3635 29.0314 12.2276 34.0794 11.9955V9.49847C34.0794 8.99131 34.4936 8.57871 35.0027 8.57871C35.5118 8.57871 35.9259 8.99131 35.9259 9.49847V11.9955C40.9737 12.2276 45.5211 14.3636 48.8648 17.6946C52.2084 21.0254 54.3528 25.5554 54.5857 30.5842H57.0923C57.6014 30.5842 58.0156 30.9968 58.0156 31.504C58.0156 32.0111 57.6014 32.4237 57.0923 32.4237H54.5857C54.3527 37.4523 52.2085 41.9823 48.8648 45.3133C45.5213 48.6442 40.9739 50.7803 35.9259 51.0124V53.5094ZM34.0794 49.1686V45.9537C34.0794 45.4465 34.4935 45.0339 35.0026 45.0339C35.5117 45.0339 35.9259 45.4465 35.9259 45.9537V49.1686C40.4603 48.9365 44.546 47.011 47.5571 44.0111C50.5686 41.0111 52.5057 36.941 52.7344 32.4241H49.5072C48.9981 32.4241 48.5839 32.0116 48.5839 31.5044C48.5839 30.9972 48.9981 30.5846 49.5072 30.5846H52.7344C52.5014 26.0675 50.5686 21.9974 47.5571 18.9977C44.5457 15.9977 40.46 14.068 35.9259 13.8402V17.0551C35.9259 17.5623 35.5117 17.9749 35.0026 17.9749C34.4935 17.9749 34.0794 17.5623 34.0794 17.0551V13.8402C29.5449 14.0723 25.4593 15.9977 22.4481 18.9977C19.4367 21.9977 17.4995 26.0678 17.2709 30.5846H20.4981C21.0072 30.5846 21.4214 30.9972 21.4214 31.5044C21.4214 32.0116 21.0072 32.4241 20.4981 32.4241H17.2709C17.5039 36.9413 19.4367 41.0114 22.4481 44.0111C25.4596 47.011 29.5453 48.9408 34.0794 49.1686ZM35.0026 22.3111C37.5524 22.3111 39.8562 23.3425 41.5259 25.0058C43.1955 26.6691 44.231 28.9685 44.231 31.5042C44.231 34.0443 43.1955 36.3393 41.5259 38.0026C39.8562 39.6659 37.548 40.6974 35.0026 40.6974C32.4528 40.6974 30.149 39.6659 28.4794 38.0026C26.8098 36.3393 25.7743 34.0399 25.7743 31.5042C25.7743 28.9641 26.8098 26.6691 28.4794 25.0058C30.149 23.3425 32.4573 22.3111 35.0026 22.3111ZM40.223 26.3038C38.8856 24.9715 37.0434 24.1506 35.0026 24.1506C32.9662 24.1506 31.1197 24.9715 29.7822 26.3038C28.4448 27.6361 27.6208 29.4714 27.6208 31.5043C27.6208 33.533 28.4448 35.3724 29.7822 36.7048C31.1196 38.0372 32.9619 38.8581 35.0026 38.8581C37.0391 38.8581 38.8855 38.0329 40.223 36.7048C41.5605 35.3725 42.3845 33.5373 42.3845 31.5043C42.3845 29.4757 41.5561 27.6362 40.223 26.3038ZM54.1538 12.4261C49.2527 7.54371 42.4839 4.52227 35.0066 4.52227C27.5299 4.52227 20.7611 7.54371 15.8594 12.4261C10.9578 17.3086 7.92534 24.0516 7.92534 31.5004C7.92534 38.9492 10.9583 45.6916 15.8594 50.5746C20.7605 55.4576 27.5293 58.4742 35.0066 58.4742C42.4834 58.4742 49.2521 55.4527 54.1538 50.5746C59.0549 45.6922 62.0879 38.9492 62.0879 31.5004C62.0879 24.0516 59.0549 17.3091 54.1538 12.4261Z" fill="#F7C948"/>
</svg>
