<svg width="242" height="322" viewBox="0 0 242 322" fill="none" xmlns="http://www.w3.org/2000/svg">
<path d="M235.797 102.297L219.834 79.5455L215.099 52.297C212.809 39.1406 202.432 28.7638 189.275 26.473L161.887 21.6827L139.29 5.77501L139.276 5.76104C128.354 -1.92035 113.661 -1.92035 102.739 5.76104L79.9733 21.7245L52.7388 26.459C39.5824 28.7495 29.2055 39.1267 26.9147 52.297L22.1101 79.6853L6.20245 102.297C-1.47894 113.219 -1.47894 127.897 6.20245 138.82L22.1659 161.571L26.9004 188.819C29.1909 201.976 39.5681 212.353 52.7245 214.643L52.906 214.671V308.568C52.906 313.499 55.6155 318.024 60.0011 320.286C64.3305 322.549 69.5542 322.241 73.6323 319.434L120.992 286.753L168.352 319.434C170.628 320.984 173.24 321.794 175.866 321.794C177.975 321.794 180.084 321.292 181.997 320.286C186.369 318.024 189.092 313.499 189.092 308.568L189.078 238.637C189.078 235.215 186.313 232.45 182.891 232.45C179.469 232.45 176.703 235.215 176.703 238.637V308.579L175.391 309.277L124.513 274.138C122.404 272.686 119.583 272.686 117.473 274.138L66.5955 309.277L65.2827 308.579V216.849L80.1149 219.46L102.726 235.368C108.187 239.195 114.584 241.122 120.995 241.122C127.391 241.122 133.802 239.195 139.263 235.368L162.014 219.39L189.263 214.656C202.419 212.365 212.796 201.988 215.087 188.832L219.891 161.444L235.799 138.846C243.48 127.896 243.479 113.22 235.797 102.297ZM225.672 131.696L209.764 154.308C208.675 155.858 207.935 157.66 207.655 159.461L202.921 186.696C201.524 194.727 195.183 201.053 187.153 202.464L159.89 207.199C158.047 207.52 156.329 208.232 154.751 209.322L132.153 225.229C125.477 229.922 116.524 229.922 109.862 225.229L87.2649 209.336C85.7425 208.26 83.9688 207.52 82.0973 207.199L54.8628 202.464C46.8321 201.068 40.5054 194.727 39.1089 186.696L34.3604 159.433C34.0392 157.604 33.2989 155.844 32.2375 154.308L16.3298 131.696C11.6371 125.034 11.6371 116.082 16.3298 109.406L32.2375 86.7942C33.299 85.2719 34.0392 83.5121 34.3744 81.6407L39.1089 54.4061C40.5055 46.3754 46.8325 40.0487 54.8628 38.6522L82.0695 33.9177C83.927 33.6104 85.7146 32.8562 87.237 31.7808L109.849 15.8731C113.187 13.5268 117.083 12.3536 120.994 12.3536C124.905 12.3536 128.801 13.5267 132.139 15.8591L154.765 31.7807C156.329 32.8701 158.061 33.5824 159.89 33.8897L187.139 38.6242C195.169 40.0208 201.496 46.3478 202.907 54.3781L207.628 81.5569C207.935 83.4144 208.661 85.202 209.75 86.7662L225.658 109.378C230.365 116.082 230.365 125.034 225.672 131.696ZM121.009 46.6268C80.2426 46.6268 47.0843 79.7969 47.0843 120.566C47.0843 161.335 80.2404 194.491 121.009 194.491C161.778 194.491 194.949 161.335 194.949 120.566C194.949 79.7972 161.778 46.6268 121.009 46.6268ZM121.009 182.117C87.0709 182.117 59.4588 154.505 59.4588 120.566C59.4588 86.6273 87.0705 59.0156 121.009 59.0156C154.962 59.0156 182.56 86.6273 182.56 120.566C182.56 154.491 154.962 182.117 121.009 182.117ZM146.372 94.8554L112.099 132.887L95.6325 114.619C93.3141 112.077 89.4313 111.881 86.8896 114.172C84.3477 116.462 84.1522 120.373 86.4427 122.915L107.504 146.281C108.677 147.58 110.353 148.32 112.099 148.32C113.859 148.32 115.521 147.58 116.694 146.281L155.548 103.154C157.838 100.612 157.643 96.7017 155.101 94.4113C152.573 92.1348 148.677 92.3275 146.372 94.8554Z" fill="url(#paint0_linear_862_3407)"/>
<defs>
<linearGradient id="paint0_linear_862_3407" x1="121.001" y1="0" x2="121.001" y2="321.794" gradientUnits="userSpaceOnUse">
<stop stop-color="#0BE6E6"/>
<stop offset="1" stop-color="#0B9292" stop-opacity="0.45"/>
</linearGradient>
</defs>
</svg>
