<svg width="72" height="72" viewBox="0 0 72 72" fill="none" xmlns="http://www.w3.org/2000/svg">
<path d="M36.0039 6.00244C28.0474 6.00244 20.4167 9.16314 14.7907 14.7892C9.16461 20.4153 6.00391 28.0459 6.00391 36.0024C6.00391 43.9589 9.16461 51.5896 14.7907 57.2156C20.4167 62.8417 28.0474 66.0024 36.0039 66.0024C43.9604 66.0024 51.5911 62.8417 57.2171 57.2156C62.8432 51.5896 66.0038 43.9589 66.0038 36.0024C66.0038 28.0459 62.8432 20.4153 57.2171 14.7892C51.5911 9.16314 43.9604 6.00244 36.0039 6.00244Z" stroke="#F7C948" stroke-width="3" stroke-linecap="round" stroke-linejoin="round"/>
<path d="M6.00391 36.0002H66.0038" stroke="#F7C948" stroke-width="3" stroke-linecap="round" stroke-linejoin="round"/>
<path d="M36.004 6.00085L35.9741 5.97086C43.474 14.1609 47.734 24.8408 47.974 35.9409V35.9108C47.734 47.0109 43.474 57.6908 35.9741 65.9109C28.444 57.6908 24.1841 47.0109 23.944 35.9108H23.9141C24.124 24.7809 28.384 14.1009 35.8841 5.88086L36.004 6.00085Z" stroke="#F7C948" stroke-width="3" stroke-linecap="round" stroke-linejoin="round"/>
</svg>
