<svg width="374" height="404" viewBox="0 0 374 404" fill="none" xmlns="http://www.w3.org/2000/svg">
<path d="M299.629 177.507C303.383 175.329 307.74 174.773 311.896 175.885C316.082 176.998 319.574 179.686 321.737 183.393L371.653 269.817C373.816 273.602 374.419 277.991 373.276 282.147C372.163 286.334 369.475 289.825 365.768 291.988L340.972 306.309C338.469 307.777 335.705 308.488 332.893 308.488C331.472 308.488 330.05 308.286 328.659 307.931C325.817 307.174 323.283 305.645 321.306 303.543C312.531 309.553 305.177 315.887 299.074 322.762C304.327 328.463 305.641 337.084 301.562 344.113C299.152 348.299 295.227 351.266 290.531 352.533C286.653 353.568 282.621 353.32 278.975 351.822C279.021 354.942 278.218 358.156 276.565 361.029C274.155 365.215 270.231 368.182 265.534 369.449C261.657 370.484 257.624 370.237 253.978 368.739C254.024 371.859 253.221 375.073 251.568 377.946C249.158 382.132 245.234 385.099 240.537 386.366C236.66 387.401 232.628 387.153 228.982 385.655C229.028 388.775 228.225 391.99 226.572 394.863C223.204 400.672 217.116 403.916 210.828 403.916C207.739 403.915 204.665 403.127 201.807 401.505L182.82 390.552L182.51 391.109C179.142 396.918 173.056 400.162 166.768 400.162C163.678 400.162 160.603 399.374 157.745 397.751C153.559 395.341 150.593 391.417 149.326 386.721C149.203 386.32 149.203 385.964 149.125 385.578C147.225 386.211 145.247 386.613 143.27 386.613C140.18 386.613 137.106 385.825 134.248 384.203C129.536 381.468 126.616 376.973 125.627 372.029C123.727 372.662 121.749 373.018 119.772 373.018C116.682 373.018 113.608 372.23 110.75 370.608C106.564 368.198 103.597 364.273 102.33 359.577C102.207 359.175 102.206 358.82 102.129 358.434C100.229 359.067 98.2512 359.469 96.2737 359.469C93.1841 359.469 90.1099 358.681 87.2522 357.059C83.0655 354.649 80.0991 350.724 78.8323 346.028C77.5656 341.316 78.1988 336.45 80.6087 332.263L80.7327 332.031C74.1205 325.897 68.3119 319.3 63.2444 311.854C61.2206 308.934 58.9799 306.834 55.8899 305.057L53.4339 303.635C50.2669 306.787 46.1111 308.487 41.8011 308.487C39.0667 308.487 36.2705 307.776 33.7366 306.308L8.94072 291.987C5.21757 289.809 2.52965 286.333 1.43291 282.146C0.320586 277.959 0.87668 273.603 3.05498 269.879L52.97 183.456C57.4347 175.747 67.3685 173.058 75.0774 177.523L99.8733 191.844C106.393 195.598 109.25 203.276 107.304 210.228L110.548 212.083C114.271 214.214 117.872 215.172 122.182 215.125C132.579 214.971 143.146 216.949 154.377 221.012L157.745 218.633C165.424 213.334 174.755 210.769 184.75 211.125C195.225 211.48 206.734 214.044 216.9 216.346C224.331 218.015 231.376 219.59 236.551 219.946C244.337 220.502 249.991 219.714 253.838 217.49L267.279 209.704C266.645 207.093 266.569 204.358 267.325 201.67C268.438 197.484 271.126 193.992 274.833 191.829L299.629 177.507ZM58.3782 296.066L60.3558 297.209C64.6195 299.666 67.9108 302.709 70.6761 306.788C74.9862 313.075 79.8062 318.73 85.306 324.029L88.4729 318.576C93.4629 309.909 104.571 306.942 113.238 311.932C116.327 313.709 118.738 316.32 120.314 319.44C126.014 314.095 134.666 312.751 141.757 316.875C145.944 319.286 148.91 323.21 150.177 327.907C150.81 330.239 150.965 332.572 150.656 334.905C154.379 334.549 158.087 335.306 161.377 337.191C167.896 340.945 171.187 348.19 170.276 355.189C173.999 354.834 177.707 355.591 180.997 357.476C189.664 362.466 192.63 373.574 187.64 382.241L187.331 382.796L206.319 393.75C210.629 396.237 216.16 394.738 218.662 390.428C221.15 386.118 219.65 380.587 215.34 378.084L202.564 370.684C200.386 369.417 199.645 366.652 200.896 364.474C202.163 362.296 204.927 361.554 207.106 362.805L231.269 376.771C233.37 377.96 235.78 378.27 238.113 377.636C240.445 377.003 242.377 375.504 243.613 373.45C246.1 369.14 244.647 363.609 240.337 361.106L223.173 351.172C220.995 349.906 220.254 347.14 221.505 344.961C222.772 342.783 225.537 342.042 227.715 343.293L256.265 359.792C258.366 360.982 260.777 361.291 263.11 360.658C265.443 360.024 267.42 358.526 268.61 356.471C271.097 352.161 269.598 346.63 265.287 344.127L245.312 332.572C243.133 331.305 242.393 328.539 243.644 326.361C244.911 324.183 247.676 323.442 249.854 324.693L281.215 342.798C283.316 343.988 285.727 344.297 288.06 343.664C290.392 343.03 292.369 341.532 293.559 339.477C294.887 337.469 295.197 335.06 294.564 332.727C293.93 330.394 292.432 328.417 290.377 327.227L197.867 273.835C183.113 273.326 172.004 267.949 167.416 265.338L159.46 268.861L160.805 273.851C164.003 285.793 156.896 298.091 144.939 301.304L142.282 302.014C140.984 302.369 139.624 302.524 138.326 302.524C135.669 302.524 133.074 301.813 130.695 300.469C127.172 298.415 124.639 295.124 123.573 291.215L116.342 264.165C114.164 255.977 117.208 247.51 124.098 242.613L145.139 227.627C137.183 225.248 129.798 224.183 122.243 224.306C116.265 224.383 111.089 223.039 105.913 220.073L103.149 218.498L58.3782 296.066ZM176.516 365.278C174.415 364.088 172.005 363.78 169.672 364.414C167.339 365.047 165.362 366.545 164.172 368.6L158.95 377.622C157.761 379.723 157.452 382.133 158.085 384.466C158.719 386.799 160.217 388.776 162.272 389.965C166.582 392.453 172.114 390.954 174.617 386.644L179.791 377.623C182.325 373.312 180.857 367.765 176.516 365.278ZM156.85 344.994C154.749 343.804 152.338 343.495 150.005 344.128C147.673 344.762 145.696 346.26 144.506 348.315L135.407 364.058C132.919 368.368 134.418 373.899 138.728 376.402C143.038 378.889 148.569 377.391 151.072 373.081L160.171 357.337C162.658 353.027 161.16 347.496 156.85 344.994ZM132.687 323.473C129.566 323.473 126.523 325.095 124.855 327.984L111.877 350.447C110.688 352.548 110.379 354.958 111.012 357.292C111.645 359.624 113.144 361.601 115.199 362.791C117.3 363.98 119.71 364.289 122.043 363.656C124.376 363.022 126.354 361.524 127.543 359.469L140.52 337.038C141.709 334.937 142.018 332.527 141.385 330.194C140.752 327.861 139.253 325.884 137.199 324.694C135.777 323.86 134.232 323.473 132.687 323.473ZM108.679 319.75C104.369 317.263 98.8378 318.762 96.3353 323.072L88.3792 336.868C87.1898 338.969 86.8807 341.379 87.514 343.711C88.1474 346.044 89.6467 348.022 91.7015 349.211C93.8025 350.401 96.2123 350.71 98.5452 350.077C100.878 349.443 102.856 347.945 104.045 345.89L112.001 332.094C113.191 330.04 113.5 327.583 112.867 325.25C112.233 322.917 110.734 320.939 108.679 319.75ZM258.38 225.386C252.88 228.584 245.727 229.743 235.917 229.032C230.062 228.63 222.708 226.978 214.922 225.232C205.158 223.054 194.082 220.566 184.426 220.242C176.362 219.964 168.915 221.987 162.951 226.127L129.458 249.981C125.627 252.715 124.005 257.211 125.225 261.768L132.455 288.82C132.888 290.395 133.923 291.739 135.344 292.542C136.765 293.377 138.434 293.609 140.01 293.176L142.667 292.465C149.743 290.565 153.976 283.258 152.075 276.167L149.742 267.422C149.156 265.244 150.253 262.989 152.307 262.078L166.027 256.068C167.448 255.435 169.117 255.589 170.414 256.469C171.36 257.151 194.702 272.489 223.652 259.791C225.938 258.756 228.642 259.837 229.661 262.124C230.697 264.41 229.615 267.114 227.328 268.133C222.663 270.188 218.121 271.578 213.718 272.49L291.705 317.541C298.364 309.708 306.507 302.632 316.285 295.943L271.235 217.955L258.38 225.386ZM66.9983 184.46C64.542 184.46 62.1782 185.728 60.8343 188.014L10.9183 274.438C9.97602 276.06 9.72856 277.991 10.2073 279.814C10.6862 281.637 11.8761 283.182 13.4827 284.125L38.2786 298.446C41.6774 300.377 45.9877 299.233 47.9651 295.834L97.8802 209.411C98.8225 207.788 99.07 205.858 98.5911 204.035C98.1122 202.212 96.9224 200.666 95.3157 199.724L70.5208 185.403C69.4085 184.769 68.1879 184.46 66.9983 184.46ZM307.744 184.507C306.524 184.507 305.288 184.816 304.222 185.45L279.426 199.771C277.804 200.713 276.614 202.258 276.151 204.081C275.672 205.904 275.919 207.835 276.862 209.458L326.714 295.833C327.656 297.456 329.17 298.645 331.024 299.109C332.847 299.588 334.778 299.34 336.401 298.398L361.196 284.077C362.818 283.134 364.008 281.62 364.471 279.766C365.012 277.959 364.735 276.06 363.824 274.438L313.908 188.014C312.966 186.392 311.421 185.202 309.598 184.739C308.965 184.584 308.378 184.507 307.744 184.507ZM185.535 0.00244141C187.468 0.928414 189.277 1.23467 191.239 2.31885C196.177 5.05035 198.315 11.1908 205.121 10.4614C206.64 10.2984 208.212 9.28111 209.746 8.98096C218.973 7.17671 227.82 11.5587 231.176 20.4497C232.139 22.9995 231.987 25.4635 233.674 27.897C236.536 32.0254 239.679 31.39 243.627 32.8755C252.608 36.2536 256.873 45.0049 255.119 54.2622C254.829 55.793 253.799 57.3568 253.634 58.8794C252.874 65.9452 260.065 68.4652 262.56 74.1792C264.871 79.4697 264.691 85.2802 262 90.4009C259.328 95.4866 252.895 97.7274 253.635 104.602C253.799 106.125 254.83 107.69 255.12 109.219C256.873 118.47 252.615 127.226 243.628 130.607C239.99 131.976 236.074 131.592 233.768 135.668L253.17 173.573C254.89 178.256 252.065 182.377 247.242 182.814C244.235 182.53 225.52 177.072 224.338 177.903C220.231 185.106 216.354 211.354 204.443 197.906L186.594 162.962C183.698 163.509 181.009 163.873 178.131 162.883L159.164 199.231C155.916 202.712 151.209 202.579 148.551 198.459C146.632 195.484 141.023 178.512 140.077 177.923C139.334 177.614 138.571 177.888 137.825 177.982C131.966 178.72 122.474 182.832 117.191 182.814C112.523 182.798 109.439 177.794 111.263 173.573C112.947 168.757 131.063 137.762 130.665 135.668C130.038 132.398 123.166 131.496 120.804 130.607C111.892 127.255 107.505 118.423 109.313 109.219C109.614 107.686 110.635 106.118 110.797 104.602C111.544 97.6613 105.049 95.5139 102.436 90.397C99.584 84.8132 99.6305 78.2296 102.629 72.7261C105.318 67.7892 111.537 65.7451 110.798 58.8794C110.635 57.3637 109.615 55.7953 109.315 54.2622C107.506 45.0526 111.899 36.2245 120.806 32.8755C123.624 31.8159 125.891 32.1186 128.555 30.1167C132.517 27.1411 131.775 24.3722 133.256 20.4497C136.614 11.5588 145.458 7.17682 154.685 8.98096C156.221 9.28108 157.792 10.2986 159.311 10.4614C166.204 11.2012 168.233 4.98119 173.184 2.30908L179.45 0.00244141H185.535ZM229.527 146.361C225.049 153.26 217.755 156.014 209.747 154.502C208.214 154.213 206.647 153.184 205.121 153.021C200.294 152.503 196.822 155.94 193.988 159.331L209.89 190.539L218.074 171.932C218.779 170.447 220.83 169.253 222.374 169.035C226.175 168.496 242.781 174.085 243.639 173.417L243.64 173.416L229.527 146.361ZM120.789 173.416C121.648 174.084 138.331 168.506 142.054 169.034C143.598 169.252 145.649 170.446 146.355 171.931L154.538 190.538H154.539L170.334 159.051C167.315 155.858 164.161 152.501 159.309 153.021C157.783 153.184 156.216 154.214 154.682 154.502C146.602 156.028 139.476 153.255 134.901 146.369L120.789 173.416ZM198.808 17.9614C191.071 15.8187 189.047 7.02395 180.411 8.41846H180.408C175.396 9.22821 174.033 13.5621 170.226 15.9282C167.227 17.7916 162.817 18.9767 159.265 18.7778C153.485 18.4531 148.953 14.0435 143.457 19.5874C139.538 23.5402 140.693 30.2946 135.479 35.3735C130.011 40.6978 120.576 39.2819 117.905 45.9976C115.589 51.8209 120.707 57.4551 118.179 65.605C116.198 71.9911 109.927 74.3595 108.864 79.4985C107.038 88.329 116.023 90.2639 118.301 98.3091C120.48 106.003 117.01 108.15 117.124 113.961C117.296 122.723 124.694 122.161 130.2 124.542C133.717 126.064 137.561 129.804 139.152 133.28C141.717 138.888 141.17 146.924 150.404 146.803C156.225 146.727 158.109 143.244 166.058 145.639C172.433 147.56 174.776 153.879 179.968 154.948C188.867 156.78 190.756 147.749 198.807 145.52C206.514 143.387 208.408 146.73 214.028 146.803C224.876 146.946 222.805 134.098 228.951 128.11C234.941 122.275 247.547 124.247 247.406 113.49C247.33 107.679 243.841 105.799 246.241 97.8667C248.166 91.5051 254.497 89.1652 255.568 83.9829C257.403 75.1017 248.353 73.2168 246.12 65.1821C243.983 57.4906 247.332 55.6 247.407 49.9907C247.55 39.1633 234.677 41.2302 228.677 35.0952C222.677 28.9601 224.925 16.5365 214.029 16.6782C208.41 16.7515 206.514 20.0959 198.808 17.9614ZM175.94 24.9185C227.245 20.2927 258.297 79.8879 224.481 119.028C195.585 152.471 140.506 140.407 128.145 97.9126C127.28 94.9399 125.194 89.217 128.833 87.4653C135.12 84.4402 136.058 96.0031 137.643 99.9966C157.479 149.953 233.826 133.647 230.024 77.2983C226.675 27.6682 156.749 16.1561 137.797 62.5884C136.157 66.6073 135.527 75.9414 130.633 75.9595C123.687 75.9829 128.211 64.47 129.538 60.9194C136.71 41.7548 155.599 26.7522 175.94 24.9185ZM177.533 46.8286C189.213 36.2839 190.822 58.5904 194.909 65.2124L215.772 66.6245C219.535 68.5308 220.4 73.209 217.582 76.3267L202.704 87.9556L207.718 107.225C204.475 122.476 189.789 105.432 182.497 102.571C180.336 102.898 169.981 111.818 166.366 113.103C161.721 114.753 158.414 112.357 157.693 107.741L163.048 88.3726C162.887 87.3298 148.478 77.9161 146.786 74.8169C145.013 71.5677 147.067 66.8885 150.771 66.146L170.443 65.2124L177.533 46.8286ZM183.375 58.396C183.141 57.8106 183.568 56.8253 182.406 57.1753C181.622 57.4115 178.647 70.0938 176.129 72.1099C175.486 72.6242 173.13 73.6438 172.37 73.7544H172.369C168.703 74.2896 163.924 73.3611 160.113 73.7544L159.551 74.8589C162.089 77.7462 170.586 82.1712 171.415 85.7485C172.346 89.7588 168.613 97.7483 167.635 101.926C168.724 102.791 179.299 93.4542 182.944 93.605C186.499 93.7528 193.719 100.553 197.436 101.937C197.068 97.3635 192.939 90.0649 193.94 85.7485C194.739 82.3015 203.374 77.6682 205.804 74.8589L205.242 73.7544H192.986C187.397 73.7544 185.074 62.6414 183.375 58.396Z" fill="#05A6A6"/>
</svg>
