<svg width="72" height="72" viewBox="0 0 72 72" fill="none" xmlns="http://www.w3.org/2000/svg">
<path d="M18 18L24 12M24 12L18 6M24 12H18C11.3726 12 6 17.3726 6 24M54 54L48 60M48 60L54 66M48 60H54C60.6274 60 66 54.6274 66 48" stroke="url(#paint0_linear_570_5225)" stroke-width="2" stroke-linecap="round" stroke-linejoin="round"/>
<path fill-rule="evenodd" clip-rule="evenodd" d="M48.3175 6.48333L39.2442 13.7083V29.4167C39.2442 30.3707 39.2452 31.0111 39.2831 31.5042C39.3199 31.9827 39.3857 32.2115 39.4581 32.3625C39.6462 32.7545 39.9464 33.0732 40.3156 33.2729C40.4578 33.3498 40.6733 33.4196 41.124 33.4587C41.5885 33.499 42.1916 33.5 43.0902 33.5H44.7384L44.7384 22.3729C44.7384 21.9438 44.7383 21.5497 44.7637 21.2202C44.791 20.865 44.8536 20.4764 45.0378 20.0925C45.3012 19.5437 45.7214 19.0975 46.2383 18.8179C46.5999 18.6223 46.9659 18.5559 47.3005 18.5269C47.6108 18.4999 47.982 18.5 48.3862 18.5H52.8638C53.268 18.5 53.6392 18.4999 53.9496 18.5269C54.2841 18.5559 54.6501 18.6223 55.0117 18.8179C55.5286 19.0975 55.9488 19.5437 56.2122 20.0925C56.3964 20.4764 56.459 20.865 56.4863 21.2202C56.5117 21.5497 56.5116 21.9439 56.5116 22.373V33.5H58.1599C59.0584 33.5 59.6616 33.499 60.126 33.4587C60.5767 33.4196 60.7922 33.3498 60.9344 33.2729C61.3036 33.0732 61.6038 32.7545 61.7919 32.3625C61.8643 32.2115 61.9301 31.9827 61.9669 31.5042C62.0049 31.0111 62.0058 30.3707 62.0058 29.4167V13.7083L52.9326 6.48333C51.7679 5.55594 51.4413 5.32385 51.1245 5.2353C50.7971 5.14379 50.4529 5.14379 50.1255 5.2353C49.8087 5.32385 49.4821 5.55594 48.3175 6.48333ZM64.3604 15.5833V29.4674C64.3604 30.3577 64.3604 31.1007 64.3137 31.7078C64.265 32.3409 64.1597 32.9354 63.8899 33.4975C63.476 34.3599 62.8156 35.061 62.0034 35.5004C61.474 35.7869 60.9141 35.8987 60.3178 35.9504C59.746 36 59.0461 36 58.2077 36H43.0423C42.2039 36 41.504 36 40.9322 35.9504C40.3359 35.8987 39.7761 35.7869 39.2466 35.5004C38.4344 35.061 37.774 34.3599 37.3601 33.4975C37.0904 32.9354 36.985 32.3409 36.9363 31.7078C36.8896 31.1007 36.8896 30.3576 36.8896 29.4674L36.8896 15.5833L35.6338 16.5833C35.1136 16.9975 34.3757 16.8856 33.9855 16.3333C33.5954 15.781 33.7008 14.9975 34.221 14.5833L46.9047 4.48333C46.909 4.47985 46.9134 4.47638 46.9178 4.47291C46.9691 4.43198 47.0199 4.3915 47.07 4.3515C47.1767 4.26638 47.2807 4.18341 47.3825 4.10287L48.4116 3.28333C48.4477 3.25462 48.4839 3.2256 48.5203 3.19642C48.9452 2.85605 49.3975 2.49371 49.9257 2.34609C50.3841 2.21797 50.8659 2.21797 51.3243 2.34609C51.8525 2.49371 52.3048 2.85605 52.7297 3.19642C52.7661 3.2256 52.8023 3.25462 52.8384 3.28333L53.8673 4.10269C53.9692 4.18328 54.0732 4.26631 54.18 4.35149C54.2344 4.39489 54.2895 4.43885 54.3453 4.48333L63.8895 12.0833C63.8892 12.0831 63.8897 12.0835 63.8895 12.0833L67.029 14.5833C67.5492 14.9975 67.6546 15.781 67.2645 16.3333C66.8743 16.8856 66.1364 16.9975 65.6162 16.5833L64.3604 15.5833ZM47.093 33.5H54.157V22.4167C54.157 21.9293 54.156 21.639 54.1395 21.4238C54.1294 21.2924 54.116 21.2372 54.1117 21.2224C54.0748 21.148 54.0175 21.0872 53.9475 21.048C53.9335 21.0434 53.8815 21.0293 53.7578 21.0186C53.5551 21.001 53.2817 21 52.8227 21H48.4273C47.9683 21 47.6949 21.001 47.4922 21.0186C47.3685 21.0293 47.3165 21.0435 47.3025 21.048C47.2325 21.0872 47.1752 21.148 47.1383 21.2224C47.134 21.2372 47.1206 21.2924 47.1105 21.4238C47.094 21.639 47.093 21.9293 47.093 22.4167V33.5ZM47.1397 21.2181C47.1397 21.2182 47.1395 21.219 47.1388 21.2206L47.1397 21.2181ZM47.2985 21.0495C47.2984 21.0495 47.2992 21.0492 47.3008 21.0486L47.2985 21.0495ZM53.9515 21.0495C53.9515 21.0496 53.9506 21.0493 53.9492 21.0486L53.9515 21.0495Z" fill="url(#paint1_linear_570_5225)"/>
<path fill-rule="evenodd" clip-rule="evenodd" d="M19.0081 29.25H23.7419C24.6922 29.25 25.4854 29.25 26.1334 29.3049C26.8093 29.3622 27.4438 29.4861 28.0438 29.8034C28.9644 30.2901 29.7128 31.0668 30.1819 32.022C30.4876 32.6447 30.607 33.3031 30.6622 34.0045C30.7152 34.6769 30.7151 35.5 30.7151 36.4861V44.0192L34.5867 44.0192C35.0448 44.0192 35.4656 44.0192 35.8173 44.049C36.1964 44.0811 36.6113 44.1547 37.021 44.3714C37.6068 44.6811 38.0831 45.1754 38.3816 45.7833C38.5904 46.2084 38.6613 46.6389 38.6923 47.0324C38.721 47.3973 38.721 47.8339 38.7209 48.3093V62.4808H39.1657C39.9026 62.4808 40.5 63.1007 40.5 63.8654C40.5 64.6301 39.9026 65.25 39.1657 65.25H3.5843C2.84739 65.25 2.25 64.6301 2.25 63.8654C2.25 63.1007 2.84739 62.4808 3.5843 62.4808H4.02907L4.02907 48.3093C4.02903 47.8339 4.029 47.3974 4.05774 47.0324C4.08872 46.6389 4.15964 46.2084 4.36841 45.7833C4.6669 45.1754 5.14318 44.6811 5.729 44.3714C6.13873 44.1547 6.55356 44.0811 6.93274 44.049C7.28444 44.0192 7.70517 44.0192 8.16327 44.0192L12.0349 44.0192L12.0349 36.4861C12.0349 35.5 12.0348 34.6769 12.0878 34.0045C12.143 33.3031 12.2624 32.6447 12.5681 32.022C13.0372 31.0668 13.7856 30.2901 14.7062 29.8034C15.3062 29.4861 15.9407 29.3622 16.6166 29.3049C17.2646 29.25 18.0578 29.25 19.0081 29.25ZM12.0349 46.7885H8.20988C7.68968 46.7885 7.37978 46.7895 7.15005 46.809C7.00984 46.8209 6.9509 46.8366 6.93511 46.8417C6.8557 46.8851 6.7908 46.9524 6.74895 47.0349C6.74405 47.0512 6.72894 47.1124 6.71748 47.2579C6.69871 47.4963 6.69767 47.8179 6.69767 48.3577V62.4808H12.0349V46.7885ZM14.7035 62.4808V36.5423C14.7035 35.4855 14.7045 34.7762 14.7475 34.23C14.7893 33.6999 14.8638 33.4464 14.9459 33.2793C15.1591 32.845 15.4993 32.492 15.9177 32.2708C16.0788 32.1856 16.3231 32.1082 16.8339 32.0649C17.3603 32.0203 18.0438 32.0192 19.0622 32.0192H23.6878C24.7062 32.0192 25.3897 32.0203 25.9161 32.0649C26.4269 32.1082 26.6712 32.1856 26.8323 32.2708C27.2507 32.492 27.5909 32.845 27.8041 33.2793C27.8862 33.4464 27.9607 33.6999 28.0025 34.23C28.0455 34.7762 28.0465 35.4855 28.0465 36.5423V62.4808H14.7035ZM30.7151 62.4808H36.0523V48.3577C36.0523 47.8179 36.0513 47.4963 36.0325 47.2579C36.0211 47.1124 36.0059 47.0512 36.001 47.0349C35.9592 46.9524 35.8943 46.8851 35.8149 46.8417C35.7991 46.8366 35.7402 46.8209 35.6 46.809C35.3702 46.7895 35.0603 46.7885 34.5401 46.7885H30.7151V62.4808ZM35.8195 46.8433L35.8149 46.8417L35.8195 46.8433ZM35.9994 47.0301L36.001 47.0349L35.9994 47.0301ZM6.75056 47.0301L6.74895 47.0349L6.75056 47.0301ZM6.93051 46.8433L6.93511 46.8417L6.93051 46.8433ZM18.2616 38.0192C18.2616 37.2545 18.859 36.6346 19.5959 36.6346H23.1541C23.891 36.6346 24.4884 37.2545 24.4884 38.0192C24.4884 38.7839 23.891 39.4038 23.1541 39.4038H19.5959C18.859 39.4038 18.2616 38.7839 18.2616 38.0192ZM18.2616 45.4038C18.2616 44.6391 18.859 44.0192 19.5959 44.0192H23.1541C23.891 44.0192 24.4884 44.6391 24.4884 45.4038C24.4884 46.1686 23.891 46.7885 23.1541 46.7885H19.5959C18.859 46.7885 18.2616 46.1686 18.2616 45.4038ZM18.2616 52.7885C18.2616 52.0238 18.859 51.4038 19.5959 51.4038H23.1541C23.891 51.4038 24.4884 52.0238 24.4884 52.7885C24.4884 53.5532 23.891 54.1731 23.1541 54.1731H19.5959C18.859 54.1731 18.2616 53.5532 18.2616 52.7885Z" fill="url(#paint2_linear_570_5225)"/>
<defs>
<linearGradient id="paint0_linear_570_5225" x1="36" y1="6" x2="36" y2="66" gradientUnits="userSpaceOnUse">
<stop stop-color="#05A6A6"/>
<stop offset="1" stop-color="#0D5B6A"/>
</linearGradient>
<linearGradient id="paint1_linear_570_5225" x1="50.625" y1="2.25" x2="50.625" y2="36" gradientUnits="userSpaceOnUse">
<stop stop-color="#05A6A6"/>
<stop offset="1" stop-color="#0D5B6A"/>
</linearGradient>
<linearGradient id="paint2_linear_570_5225" x1="21.375" y1="29.25" x2="21.375" y2="65.25" gradientUnits="userSpaceOnUse">
<stop stop-color="#05A6A6"/>
<stop offset="1" stop-color="#0D5B6A"/>
</linearGradient>
</defs>
</svg>
