<svg width="204" height="205" viewBox="0 0 204 205" fill="none" xmlns="http://www.w3.org/2000/svg">
<path d="M187 132.75C189.209 132.75 191 134.541 191 136.75C191 157.737 173.987 174.75 153 174.75H145.656L155.828 184.922L155.971 185.071C157.389 186.641 157.341 189.065 155.828 190.578C154.315 192.091 151.892 192.139 150.321 190.721L150.172 190.578L133.172 173.578C131.61 172.016 131.61 169.484 133.172 167.922L150.172 150.922C151.734 149.36 154.266 149.36 155.828 150.922C157.39 152.484 157.39 155.016 155.828 156.578L145.656 166.75H153C169.569 166.75 183 153.319 183 136.75C183 134.541 184.791 132.75 187 132.75ZM48.1719 14.9219C49.6852 13.4087 52.1095 13.3607 53.6797 14.7793L53.8281 14.9219L70.8281 31.9219C72.3902 33.484 72.3901 36.016 70.8281 37.5781L53.8281 54.5781C52.266 56.1402 49.734 56.1402 48.1719 54.5781C46.6099 53.016 46.6098 50.484 48.1719 48.9219L58.3438 38.75H51C34.4315 38.75 21.0001 52.1816 21 68.75C21 70.9592 19.2091 72.75 17 72.75C14.7909 72.75 13 70.9592 13 68.75C13.0001 47.7633 30.0132 30.75 51 30.75H58.3438L48.1719 20.5781L48.0293 20.4287C46.6111 18.8585 46.6588 16.435 48.1719 14.9219Z" fill="url(#paint0_linear_981_12054)"/>
<path d="M61.6113 93.7588C61.9999 93.7418 62.3896 93.7501 62.7774 93.7842L63.252 93.8408C63.7198 93.9107 64.1642 94.0142 64.5654 94.1035L100.743 102.154L102.246 102.495C102.725 102.609 103.177 102.725 103.588 102.849C104.349 103.078 105.166 103.388 105.967 103.9L106.309 104.133L106.551 104.313C107.744 105.237 108.683 106.451 109.279 107.84L109.432 108.225C109.757 109.117 109.881 109.981 109.939 110.774C110.002 111.631 110 112.642 110 113.705V119.171C110 120.476 110.003 121.695 109.92 122.712C109.839 123.708 109.658 124.816 109.141 125.923L109.032 126.145C108.234 127.713 106.99 129.008 105.459 129.867L105.148 130.033C103.967 130.636 102.778 130.837 101.715 130.924C101.255 130.961 100.754 130.98 100.223 130.99V162.181C100.754 162.191 101.255 162.21 101.715 162.248C102.711 162.33 103.819 162.511 104.927 163.03L105.148 163.139L105.459 163.305C106.99 164.164 108.234 165.459 109.032 167.027L109.141 167.248C109.658 168.356 109.839 169.463 109.92 170.46C110.003 171.477 110 172.696 110 174.001V177.917C110 179.222 110.003 180.441 109.92 181.458C109.839 182.455 109.658 183.562 109.141 184.67L109.032 184.891C108.234 186.459 106.99 187.754 105.459 188.613L105.148 188.779C103.967 189.382 102.778 189.583 101.715 189.67C101.207 189.711 100.648 189.732 100.054 189.741L98.1777 189.75H25.8223C24.5194 189.75 23.3013 189.753 22.2852 189.67C21.2886 189.588 20.1811 189.407 19.0733 188.888L18.8516 188.779C17.2832 187.979 15.9908 186.733 15.1338 185.201L14.9678 184.891C14.367 183.71 14.1668 182.521 14.0801 181.458C14.0386 180.95 14.0184 180.391 14.0088 179.796L14 177.917V174.001C14 172.696 13.9971 171.477 14.0801 170.46C14.1668 169.397 14.367 168.208 14.9678 167.027L15.1338 166.717C15.9908 165.185 17.2832 163.939 18.8516 163.139L19.0733 163.03C20.1811 162.511 21.2886 162.33 22.2852 162.248C22.7449 162.21 23.2459 162.191 23.7774 162.181V130.99C23.2459 130.98 22.7448 130.961 22.2852 130.924C21.2887 130.842 20.181 130.661 19.0733 130.142L18.8516 130.033C17.2833 129.233 15.9908 127.986 15.1338 126.455L14.9678 126.145C14.367 124.964 14.1669 123.775 14.0801 122.712C14.0386 122.203 14.0184 121.644 14.0088 121.049L14 119.171V113.705C14 112.642 13.9978 111.631 14.0606 110.774C14.127 109.868 14.2798 108.868 14.7207 107.84L14.8447 107.564C15.4861 106.199 16.4651 105.017 17.6914 104.133L18.0332 103.9C18.8337 103.388 19.6508 103.078 20.4121 102.849C21.2337 102.601 22.221 102.385 23.2568 102.154L59.4346 94.1035L60.2891 93.9199C60.5888 93.862 60.902 93.8124 61.2227 93.7842L61.6113 93.7588ZM25.8223 170.168C24.3872 170.168 23.5518 170.171 22.9375 170.222C22.6606 170.244 22.5144 170.271 22.4531 170.285C22.3132 170.365 22.1971 170.48 22.1172 170.622C22.1031 170.683 22.0766 170.831 22.0537 171.11C22.0035 171.726 22 172.564 22 174.001V177.917L22.0078 179.67C22.0149 180.136 22.0286 180.5 22.0537 180.808C22.0763 181.084 22.103 181.231 22.1172 181.294C22.197 181.436 22.3129 181.552 22.4531 181.632C22.5143 181.646 22.6603 181.674 22.9375 181.696C23.5518 181.747 24.3873 181.75 25.8223 181.75H98.1777L99.9277 181.742C100.393 181.735 100.755 181.721 101.063 181.696C101.338 181.674 101.484 181.646 101.546 181.632C101.686 181.552 101.802 181.437 101.882 181.295C101.896 181.233 101.924 181.086 101.946 180.808C101.997 180.192 102 179.354 102 177.917V174.001C102 172.564 101.997 171.726 101.946 171.11C101.923 170.83 101.896 170.683 101.882 170.622C101.802 170.48 101.686 170.365 101.546 170.285C101.484 170.271 101.338 170.244 101.063 170.222C100.755 170.197 100.393 170.183 99.9277 170.176L98.1777 170.168H25.8223ZM31.7774 162.168H45.7774V131.004H31.7774V162.168ZM53.7774 162.168H70.2227V131.004H53.7774V162.168ZM78.2227 162.168H92.2227V131.004H78.2227V162.168ZM61.8223 101.771L61.1719 101.913L24.9942 109.963C23.8448 110.219 23.1928 110.367 22.7178 110.51C22.3453 110.622 22.2896 110.675 22.3428 110.642C22.2325 110.728 22.1447 110.841 22.085 110.969C22.0752 111.016 22.0556 111.134 22.0391 111.359C22.0027 111.855 22 112.526 22 113.705V119.171L22.0078 120.924C22.0149 121.39 22.0286 121.753 22.0537 122.061C22.0764 122.338 22.103 122.485 22.1172 122.548C22.197 122.69 22.3129 122.806 22.4531 122.886C22.5143 122.9 22.6604 122.928 22.9375 122.95C23.5518 123 24.3873 123.004 25.8223 123.004H98.1777L99.9277 122.996C100.393 122.989 100.755 122.975 101.063 122.95C101.338 122.928 101.484 122.9 101.546 122.886C101.686 122.806 101.802 122.69 101.882 122.548C101.896 122.486 101.924 122.338 101.946 122.061C101.997 121.445 102 120.607 102 119.171V113.705C102 112.526 101.997 111.855 101.961 111.359C101.944 111.133 101.924 111.016 101.914 110.969C101.853 110.838 101.763 110.724 101.649 110.637C101.604 110.616 101.494 110.573 101.282 110.51C101.045 110.438 100.763 110.365 100.397 110.278L99.0059 109.963L62.8281 101.913C62.4925 101.838 62.3133 101.798 62.1777 101.771L62.0772 101.753H61.9229C61.9486 101.751 61.9367 101.749 61.8223 101.771ZM152.76 4.75001C155.885 4.75001 158.473 4.74657 160.576 4.91993C162.727 5.09722 164.724 5.47988 166.605 6.44629L167.142 6.73536C169.795 8.23539 171.948 10.4941 173.328 13.2256L173.5 13.5801C174.326 15.3608 174.668 17.2464 174.832 19.2734C175.003 21.39 175 23.9955 175 27.1504V82.3496C175 85.5045 175.003 88.11 174.832 90.2266C174.668 92.2536 174.326 94.1392 173.5 95.9199L173.328 96.2744C171.948 99.006 169.795 101.265 167.142 102.765L166.605 103.054C164.724 104.02 162.727 104.403 160.576 104.58C158.473 104.753 155.885 104.75 152.76 104.75H132.24C129.115 104.75 126.527 104.753 124.424 104.58C122.407 104.414 120.526 104.067 118.75 103.229L118.396 103.054C115.677 101.656 113.44 99.4815 111.958 96.8145L111.672 96.2744C110.72 94.3898 110.343 92.3887 110.168 90.2266C109.997 88.11 110 85.5045 110 82.3496V27.1504C110 23.9955 109.997 21.39 110.168 19.2734C110.343 17.1113 110.72 15.1102 111.672 13.2256L111.958 12.6856C113.44 10.0185 115.677 7.84394 118.396 6.44629L118.75 6.27149C120.526 5.43261 122.407 5.08614 124.424 4.91993C126.527 4.74657 129.115 4.75 132.24 4.75001H152.76ZM132.24 12.75C128.981 12.75 126.78 12.7536 125.081 12.8936C123.636 13.0126 122.829 13.2141 122.275 13.4551L122.053 13.5606C120.75 14.2301 119.671 15.2772 118.952 16.5703L118.813 16.832C118.522 17.4073 118.278 18.2469 118.143 19.9199C118.003 21.6386 118 23.8648 118 27.1504V82.3496C118 85.6352 118.003 87.8614 118.143 89.5801C118.278 91.2531 118.522 92.0928 118.813 92.668L118.952 92.9297C119.671 94.2228 120.75 95.2699 122.053 95.9395L122.275 96.0449C122.829 96.2859 123.636 96.4874 125.081 96.6065C126.78 96.7464 128.981 96.75 132.24 96.75H152.76C156.019 96.75 158.22 96.7464 159.919 96.6065C161.57 96.4704 162.389 96.2264 162.947 95.9395L163.204 95.7998C164.477 95.0805 165.518 93.9936 166.188 92.668L166.294 92.4385C166.537 91.8697 166.739 91.044 166.857 89.5801C166.997 87.8614 167 85.6352 167 82.3496V27.1504C167 23.8648 166.997 21.6386 166.857 19.9199C166.739 18.456 166.537 17.6303 166.294 17.0615L166.188 16.832C165.518 15.5064 164.477 14.4195 163.204 13.7002L162.947 13.5606C162.389 13.2736 161.57 13.0296 159.919 12.8936C158.22 12.7536 156.019 12.75 152.76 12.75H132.24ZM146.268 83.0986C148.381 83.2056 150.062 84.9527 150.063 87.0928C150.063 89.233 148.381 90.981 146.268 91.0879L146.063 91.0928H143.925C141.716 91.0928 139.925 89.3019 139.925 87.0928C139.925 84.8838 141.716 83.0928 143.925 83.0928H146.063L146.268 83.0986ZM152.966 17.5088C155.079 17.6159 156.76 19.3638 156.76 21.5039C156.76 23.6438 155.079 25.3909 152.966 25.4981L152.76 25.5039H135.375C133.166 25.5039 131.375 23.7128 131.375 21.5039C131.375 19.2948 133.166 17.5039 135.375 17.5039H152.76L152.966 17.5088Z" fill="url(#paint1_linear_981_12054)"/>
<defs>
<linearGradient id="paint0_linear_981_12054" x1="102" y1="13.75" x2="102" y2="191.75" gradientUnits="userSpaceOnUse">
<stop stop-color="#0BE6E6"/>
<stop offset="1" stop-color="#0B9292" stop-opacity="0.45"/>
</linearGradient>
<linearGradient id="paint1_linear_981_12054" x1="94.5" y1="4.75" x2="94.5" y2="189.75" gradientUnits="userSpaceOnUse">
<stop stop-color="#0BE6E6"/>
<stop offset="1" stop-color="#0B9292" stop-opacity="0.45"/>
</linearGradient>
</defs>
</svg>
