<svg width="32" height="33" viewBox="0 0 32 33" fill="none" xmlns="http://www.w3.org/2000/svg">
<g clip-path="url(#clip0_524_21042)">
<path d="M8.0013 27.283H11.4817C11.9355 27.283 12.3865 27.337 12.8264 27.445L16.5038 28.3387C17.3018 28.5331 18.133 28.552 18.9393 28.3954L23.0053 27.6043C24.0794 27.3951 25.0674 26.8808 25.8418 26.1275L28.7185 23.3291C29.54 22.5313 29.54 21.2367 28.7185 20.4376C27.9788 19.7181 26.8076 19.6371 25.9708 20.2472L22.6181 22.6933C22.1379 23.0443 21.5537 23.2333 20.9528 23.2333H17.7153L19.7761 23.2332C20.9376 23.2332 21.8784 22.3179 21.8784 21.188V20.779C21.8784 19.8408 21.2221 19.0228 20.2867 18.796L17.1061 18.0225C16.5885 17.8969 16.0584 17.8335 15.5255 17.8335C14.2391 17.8335 11.9105 18.8986 11.9105 18.8986L8.0013 20.5333M2.66797 19.9668L2.66797 27.7002C2.66797 28.4469 2.66797 28.8203 2.81329 29.1055C2.94112 29.3564 3.1451 29.5603 3.39598 29.6882C3.6812 29.8335 4.05456 29.8335 4.8013 29.8335H5.86797C6.61471 29.8335 6.98807 29.8335 7.27329 29.6882C7.52417 29.5603 7.72815 29.3564 7.85598 29.1055C8.0013 28.8203 8.0013 28.4469 8.0013 27.7002V19.9668C8.0013 19.2201 8.0013 18.8467 7.85598 18.5615C7.72815 18.3106 7.52417 18.1067 7.27329 17.9788C6.98807 17.8335 6.61471 17.8335 5.86797 17.8335L4.8013 17.8335C4.05457 17.8335 3.6812 17.8335 3.39598 17.9788C3.1451 18.1067 2.94112 18.3106 2.81329 18.5615C2.66797 18.8467 2.66797 19.2201 2.66797 19.9668Z" stroke="url(#paint0_linear_524_21042)" stroke-width="2" stroke-linecap="round" stroke-linejoin="round"/>
<path fill-rule="evenodd" clip-rule="evenodd" d="M21.9996 2.94439C20.8183 2.94439 19.8607 3.902 19.8607 5.08328C19.8607 6.26456 20.8183 7.22217 21.9996 7.22217C23.1809 7.22217 24.1385 6.26456 24.1385 5.08328C24.1385 3.902 23.1809 2.94439 21.9996 2.94439ZM18.6385 5.08328C18.6385 3.22699 20.1433 1.72217 21.9996 1.72217C23.8559 1.72217 25.3607 3.22699 25.3607 5.08328C25.3607 6.93957 23.8559 8.44439 21.9996 8.44439C20.1433 8.44439 18.6385 6.93957 18.6385 5.08328ZM21.9996 10.2777C20.2646 10.2777 18.7182 11.1145 17.7303 12.422C17.6698 12.502 17.6236 12.5633 17.5851 12.6171C17.5559 12.658 17.536 12.6881 17.5221 12.7108C17.6129 12.7212 17.7423 12.7222 17.9829 12.7222H26.0163C26.2568 12.7222 26.3863 12.7212 26.4771 12.7108C26.4632 12.6881 26.4433 12.658 26.4141 12.6171C26.3756 12.5633 26.3293 12.502 26.2689 12.422C25.281 11.1145 23.7345 10.2777 21.9996 10.2777ZM16.7551 11.6852C17.9608 10.0895 19.86 9.0555 21.9996 9.0555C24.1392 9.0555 26.0384 10.0895 27.2441 11.6852C27.2495 11.6924 27.255 11.6996 27.2605 11.7069C27.3641 11.844 27.4753 11.991 27.5547 12.1328C27.6509 12.3044 27.7221 12.503 27.7177 12.7445C27.7142 12.9386 27.6554 13.1204 27.5839 13.2639C27.5125 13.4073 27.403 13.5638 27.2502 13.6837C27.0465 13.8435 26.8248 13.9001 26.6277 13.9237C26.4549 13.9445 26.2501 13.9444 26.0441 13.9444C26.0348 13.9444 26.0256 13.9444 26.0163 13.9444H17.9829C17.9736 13.9444 17.9643 13.9444 17.955 13.9444C17.7491 13.9444 17.5443 13.9445 17.3714 13.9237C17.1744 13.9001 16.9526 13.8435 16.7489 13.6837C16.5962 13.5638 16.4867 13.4073 16.4152 13.2639C16.3438 13.1204 16.285 12.9386 16.2814 12.7445C16.277 12.503 16.3483 12.3044 16.4444 12.1328C16.5239 11.991 16.635 11.844 16.7387 11.7069C16.7442 11.6996 16.7497 11.6924 16.7551 11.6852Z" fill="url(#paint1_linear_524_21042)" stroke="url(#paint2_linear_524_21042)" stroke-width="0.3" stroke-linecap="round" stroke-linejoin="round"/>
</g>
<defs>
<linearGradient id="paint0_linear_524_21042" x1="16.0013" y1="17.8335" x2="16.0013" y2="29.8335" gradientUnits="userSpaceOnUse">
<stop stop-color="#05A6A6"/>
<stop offset="1" stop-color="#0D5B6A"/>
</linearGradient>
<linearGradient id="paint1_linear_524_21042" x1="21.9996" y1="1.72217" x2="21.9996" y2="13.9444" gradientUnits="userSpaceOnUse">
<stop stop-color="#05A6A6"/>
<stop offset="1" stop-color="#0D5B6A"/>
</linearGradient>
<linearGradient id="paint2_linear_524_21042" x1="21.9996" y1="1.72217" x2="21.9996" y2="13.9444" gradientUnits="userSpaceOnUse">
<stop stop-color="#05A6A6"/>
<stop offset="1" stop-color="#0D5B6A"/>
</linearGradient>
<clipPath id="clip0_524_21042">
<rect width="32" height="32" fill="white" transform="translate(0 0.5)"/>
</clipPath>
</defs>
</svg>
