<svg width="70" height="69" viewBox="0 0 70 69" fill="none" xmlns="http://www.w3.org/2000/svg">
<path d="M23.2969 64.351C23.9639 64.2164 24.9699 64.8861 25.6152 65.1137C30.9964 67.008 36.3325 67.4235 41.8887 65.895C42.6725 65.6802 45.1521 64.595 45.6406 64.5932C46.4809 64.5897 47.046 65.5546 46.5283 66.3061C46.1254 66.8883 43.9802 67.5398 43.2217 67.7709C37.423 69.5397 31.0097 69.4049 25.3076 67.3285C24.7608 67.1302 23.1027 66.5353 22.7832 66.1713C22.2637 65.5835 22.5057 64.5111 23.2969 64.351ZM4.73926 55.225C5.34077 55.1013 5.93313 55.4928 6.00977 56.0805C6.1556 57.1778 6.161 61.4127 5.99512 62.4809C5.8017 63.7198 3.98513 63.7635 3.81543 61.9496C3.70059 60.7086 3.66628 57.5616 3.83398 56.3715C3.90333 55.8803 4.21631 55.3325 4.73926 55.225ZM6.68652 49.6166C3.17025 45.8279 4.18959 38.9135 10.4385 39.5395C14.6744 39.9657 15.504 45.2713 13.5137 48.3266C13.3624 48.5595 12.4363 49.5002 12.5566 49.6166C15.3821 49.9151 18.9599 50.9855 19.2461 54.3119C19.4156 56.2881 19.4265 60.12 19.2461 62.0873C19.1185 63.4811 17.6972 63.8528 17.0938 62.5922L16.9277 53.9008C16.5286 52.7163 14.7404 52.2433 13.6484 51.9994C10.8339 51.3698 7.59206 51.3548 4.80664 52.1664C3.61468 52.514 2.33873 53.0781 2.18359 54.4516C1.91198 56.8682 2.56517 60.1554 2.15137 62.4574C1.93977 63.631 0.417423 63.6234 0 62.5571L0 53.8403C0.776699 50.8434 3.92672 49.9078 6.68652 49.6166ZM55.3604 55.225C55.9618 55.1014 56.5543 55.4928 56.6309 56.0805C56.7767 57.1778 56.7821 61.4109 56.6162 62.4809C56.421 63.7327 54.6014 63.7709 54.4355 61.8129C54.3262 60.5101 54.303 57.7843 54.4561 56.5121C54.5217 55.9644 54.7477 55.3524 55.3584 55.225H55.3604ZM59.2959 39.5541C65.6102 38.8117 66.7278 45.775 63.1699 49.6166H63.1748C66.1589 49.9697 69.6029 50.9365 69.8672 54.4487C70.013 56.3884 70.0748 60.3385 69.8652 62.2221C69.6994 63.7178 67.9308 63.6821 67.71 62.4614C67.2962 60.1594 67.9493 56.8721 67.6777 54.4555C67.519 53.049 66.1695 52.4812 64.9482 52.1391C62.1957 51.3695 58.9909 51.3819 56.2129 52.0024C54.8258 52.3117 52.9925 52.8017 52.8027 54.4555C52.5238 56.8849 53.1759 60.1628 52.7949 62.4848C52.6015 63.6583 50.7664 63.7379 50.6133 62.0893C50.4329 60.1311 50.4456 56.2828 50.6133 54.3139C50.8977 51.0001 54.4764 49.9043 57.3037 49.6186L56.0488 47.8061C54.485 44.7816 55.3786 40.0145 59.2959 39.5541ZM64.6387 55.225C65.4772 55.0503 65.9534 55.744 66.0391 56.4955C66.174 57.6712 66.1886 61.0581 66.0264 62.2045C65.8165 63.6945 64.0139 63.7469 63.8535 62.3549C63.6257 60.377 64.0262 57.9788 63.8604 55.9535C63.9187 55.6351 64.3342 55.2868 64.6387 55.2231V55.225ZM14.0186 55.226C15.0337 55.0151 15.3545 55.9371 15.4238 56.7631C15.5296 58.0242 15.5679 60.98 15.3838 62.1811C15.143 63.7458 13.3725 63.6146 13.2285 62.4955C12.9733 60.5157 13.4298 57.9953 13.2402 55.9535C13.2986 55.6351 13.7142 55.2877 14.0186 55.224V55.226ZM33.0898 27.2719C33.4229 27.0828 36.3327 27.056 36.71 27.2143C37.4771 27.5348 37.5306 29.124 37.835 29.4262H37.8271C37.8873 29.4862 39.1161 29.8034 39.4297 29.9399C39.7251 30.0673 41.0322 30.7718 41.1416 30.7699C41.7194 30.7661 42.6508 29.7525 43.5693 30.0307C43.8262 30.1089 46.0483 32.4104 46.1016 32.6908C46.2292 33.4006 45.2465 34.4875 45.3613 35.0444C45.4215 35.3319 45.8667 35.9564 46.0107 36.3149C46.1549 36.6739 46.5424 37.9751 46.6592 38.1196C46.9672 38.5017 48.4206 38.6489 48.7598 39.1674C49.0988 39.686 49.0709 41.9339 48.9561 42.5727C48.7427 43.7609 47.3155 43.4993 46.6064 44.1762C46.668 45.0768 45.4007 46.621 45.3418 47.2563C45.2853 47.8604 46.2255 48.76 46.1016 49.517C46.0137 50.045 44.0632 52.0424 43.5674 52.1752C42.5212 52.4534 41.7429 51.431 41.043 51.5492C40.7148 51.6038 39.9706 52.1101 39.5732 52.2739C39.1758 52.4375 38.2019 52.632 37.9443 52.8266C37.5196 53.1469 37.4261 54.6871 36.8154 54.9692C36.4645 55.131 33.8618 55.1363 33.3779 55.06C32.3097 54.8926 32.4862 53.1672 31.8428 52.7778C31.5202 52.5831 30.7294 52.4502 30.3027 52.2719C29.8999 52.1045 29.0588 51.5476 28.7197 51.5258C28.0381 51.4825 27.3218 52.5049 26.1992 52.1449C25.944 52.0631 24.3653 50.5138 24.1611 50.2299C23.237 48.9453 24.2481 48.6305 24.4814 47.5424C24.5963 47.0056 23.9299 46.092 23.6855 45.5297C23.5251 45.1603 23.388 44.307 23.2148 44.0922C22.8831 43.6773 21.4081 43.668 21.0508 42.9838C20.8102 42.5231 20.8125 40.3392 20.8945 39.7533C21.0827 38.4037 22.8648 38.7397 23.2676 38.0356C23.4371 37.7387 23.6446 36.8473 23.8232 36.4125C23.9654 36.067 24.5194 35.1945 24.54 34.9555C24.5874 34.395 23.5725 33.3645 23.8076 32.5893C23.8692 32.3915 26.0256 30.1606 26.21 30.0766C27.0193 29.7072 28.024 30.6164 28.8115 30.7602C29.309 30.4019 29.8829 30.18 30.4404 29.9399C30.7521 29.807 31.9828 29.4862 32.043 29.4262C32.3455 29.1257 32.368 27.6813 33.0898 27.2719ZM36.1758 31.0082C35.5779 30.2312 35.962 28.8602 34.3779 29.3862C34.0407 29.8975 33.966 30.8365 33.4775 31.2114C33.0546 31.5371 31.4432 31.8484 30.7432 32.1596C30.1599 32.4198 29.1907 33.2061 28.6201 33.1137C27.9985 33.0118 27.2959 32.2204 26.667 32.5844C25.6891 33.1521 26.6651 33.8869 26.8184 34.6274C27.0207 35.6028 26.0881 36.5585 25.7217 37.4975C25.4519 38.1871 25.3056 39.575 24.7461 39.9282C23.8802 40.4741 22.699 40.1381 23.0781 41.6977C23.1427 41.7963 24.6933 42.1346 24.9756 42.4946C25.2982 42.9059 25.7143 44.7762 26.0352 45.4877C26.2174 45.8952 26.7636 46.5358 26.8477 46.8598C27.0482 47.6331 26.3941 48.3247 26.2227 49.0307L26.9443 49.85C27.1521 49.8664 28.0327 49.3025 28.3408 49.2387C29.3853 49.0222 30.1818 49.8429 31.1133 50.225C31.8333 50.5198 33.3743 50.7489 33.7334 51.2875C34.0924 51.8262 33.9779 52.8048 34.7197 52.894C36.1738 53.0701 35.5689 51.5569 36.3779 50.9946C36.7826 50.7143 38.1936 50.4597 38.8408 50.185C40.4596 49.5008 40.9412 48.5975 42.8389 49.8295L43.6348 49.0287C43.445 48.3083 42.8318 47.6407 43.0049 46.853C43.0814 46.5036 43.6264 45.9078 43.8232 45.4838C44.1312 44.8192 44.6395 42.6631 44.9912 42.391C45.3135 42.1438 46.7256 41.7743 46.7793 41.6938L46.7813 41.6977C47.1604 40.1363 45.9773 40.4723 45.1133 39.9282C44.5522 39.5748 44.4083 38.189 44.1387 37.4975C43.7741 36.5621 42.8387 35.6009 43.041 34.6274C43.1632 34.0361 43.8354 33.4503 43.5352 32.9282C42.9264 31.8692 41.9948 32.9898 41.2383 33.1137C40.6786 33.2047 39.6191 32.3816 39.0176 32.1196C38.3066 31.8103 36.5351 31.4758 36.1758 31.0082ZM34.9287 33.4369C39.1798 33.4369 42.625 36.8768 42.625 41.1205C42.6249 45.3641 39.1797 48.8032 34.9287 48.8032C30.6778 48.8031 27.2325 45.3641 27.2324 41.1205C27.2324 36.8769 30.6778 33.437 34.9287 33.4369ZM11.8486 42.6254C11.2379 41.7193 9.83289 41.5812 8.83398 41.7504C4.88008 42.4183 7.53275 50.7454 10.9854 47.9848C12.3141 46.9219 12.7947 44.0266 11.8486 42.6254ZM62.417 42.5434C61.7771 41.7172 60.4257 41.5866 59.4541 41.7504C55.6702 42.3896 57.9802 50.4463 61.4473 48.0971C62.9472 47.0795 63.5325 43.9863 62.417 42.5434ZM34.9307 35.6137C31.8864 35.6137 29.418 38.0777 29.418 41.1166C29.418 44.1556 31.8864 46.6195 34.9307 46.6196C37.9749 46.6196 40.4434 44.1556 40.4434 41.1166C40.4433 38.0776 37.9749 35.6137 34.9307 35.6137ZM47.8555 16.8188C48.0668 16.7715 48.2821 16.7662 48.4971 16.7953C49.1627 16.8885 51.6781 18.7241 52.3252 19.2446C56.0931 22.2726 59.1825 26.4166 60.958 30.9223C61.2332 31.621 62.028 33.6858 62.041 34.3158C62.0574 35.1528 61.3469 35.6586 60.5449 35.4223C59.8013 35.2021 59.3525 32.785 59.0518 32.0092C57.3564 27.6418 54.3483 23.5173 50.6113 20.6821C50.0347 20.2451 47.5469 18.7985 47.3428 18.4965C46.9658 17.9414 47.1666 16.9724 47.8555 16.8178V16.8188ZM21.25 16.8198C22.4967 16.5615 23.0758 17.5563 22.4434 18.5571C17.4414 21.4868 13.3306 25.8326 11.123 31.2299C10.6746 32.3272 10.1502 35.7864 8.46777 34.6948C7.51257 34.0742 8.55892 31.814 8.90527 30.9223C10.8704 25.8708 14.6311 21.1324 19.1172 18.0971C19.5221 17.8222 20.8856 16.8981 21.252 16.8217L21.25 16.8198ZM32.0654 10.1157C28.4852 6.3542 29.4056 -0.515239 35.6855 0.0306906C40.7367 0.469351 40.873 7.24213 37.7959 10.1137C40.2731 10.2538 44.2237 11.4403 44.4883 14.4008C44.6742 16.4881 44.6779 20.6376 44.4883 22.7231C44.3551 24.195 42.5911 24.2296 42.332 22.685C41.9365 20.3194 42.5888 17.1111 42.3027 14.6782C42.2353 14.1123 41.7104 13.575 41.2529 13.2729C39.7472 12.2775 35.8436 11.9369 34.0371 12.017C32.4253 12.0899 27.801 12.642 27.5586 14.6782C27.2707 17.1111 27.9248 20.3194 27.5293 22.685C27.2703 24.2332 25.5247 24.1277 25.377 22.8559C25.1509 20.9051 25.2236 16.6942 25.373 14.6742C25.6173 11.4005 29.2982 10.3486 32.0654 10.1157ZM39.2598 15.728C40.018 15.5624 40.5766 15.9623 40.666 16.7192C40.8939 18.6499 40.4943 21.0049 40.6602 22.9848C40.1753 24.204 38.6333 24.0403 38.4766 22.7192C38.3417 21.58 38.3178 17.6863 38.4873 16.5942C38.5511 16.1921 38.8516 15.8173 39.2598 15.728ZM29.9814 15.728C30.7397 15.5624 31.2973 15.9624 31.3867 16.7192C31.5198 17.8565 31.5473 21.7624 31.376 22.8451C31.1661 24.1658 29.3551 24.0676 29.1943 22.8598C29.0522 21.7935 29.0468 17.6354 29.209 16.5942C29.2728 16.192 29.5732 15.8172 29.9814 15.728ZM37.623 5.92425C37.9765 3.35512 36.7664 1.79547 34.0762 2.24651C31.3254 2.70873 31.8432 7.50632 33.9268 8.73284C35.7641 9.81318 37.3952 7.58192 37.623 5.92425Z" fill="url(#paint0_linear_1373_3309)"/>
<defs>
<linearGradient id="paint0_linear_1373_3309" x1="35.0002" y1="0" x2="35.0002" y2="68.9998" gradientUnits="userSpaceOnUse">
<stop stop-color="#0BE6E6"/>
<stop offset="1" stop-color="#0B9292" stop-opacity="0.45"/>
</linearGradient>
</defs>
</svg>
