<svg width="64" height="64" viewBox="0 0 64 64" fill="none" xmlns="http://www.w3.org/2000/svg">
<path d="M32 2V5M5 32H2M12.5 12.5L10.6997 10.6997M51.5 12.5L53.3007 10.6997M62 32H59M26 36.5H38M32 36.5V51.5M42.5 46.6219C47.0422 43.3543 50 38.0226 50 32C50 22.0589 41.9411 14 32 14C22.0589 14 14 22.0589 14 32C14 38.0226 16.9578 43.3543 21.5 46.6219V52.4C21.5 55.7603 21.5 57.4405 22.154 58.7239C22.7292 59.8529 23.6471 60.7708 24.7761 61.346C26.0595 62 27.7397 62 31.1 62H32.9C36.2603 62 37.9405 62 39.2239 61.346C40.3529 60.7708 41.2708 59.8529 41.846 58.7239C42.5 57.4405 42.5 55.7603 42.5 52.4V46.6219Z" stroke="#F7C948" stroke-width="3" stroke-linecap="round" stroke-linejoin="round"/>
</svg>
