<svg width="32" height="32" viewBox="0 0 32 32" fill="none" xmlns="http://www.w3.org/2000/svg">
<path d="M7.9974 26.783H11.4778C11.9316 26.783 12.3826 26.837 12.8225 26.945L16.4999 27.8387C17.2979 28.0331 18.1291 28.052 18.9354 27.8954L23.0014 27.1043C24.0755 26.8951 25.0635 26.3808 25.8379 25.6275L28.7146 22.8291C29.5361 22.0313 29.5361 20.7367 28.7146 19.9376C27.9749 19.2181 26.8037 19.1371 25.9669 19.7472L22.6142 22.1933C22.134 22.5443 21.5498 22.7333 20.9489 22.7333H17.7114L19.7722 22.7332C20.9337 22.7332 21.8745 21.8179 21.8745 20.688V20.279C21.8745 19.3408 21.2181 18.5228 20.2828 18.296L17.1022 17.5225C16.5846 17.3969 16.0545 17.3335 15.5216 17.3335C14.2352 17.3335 11.9066 18.3986 11.9066 18.3986L7.9974 20.0333M2.66406 19.4668L2.66406 27.2002C2.66406 27.9469 2.66406 28.3203 2.80939 28.6055C2.93722 28.8564 3.14119 29.0603 3.39207 29.1882C3.67729 29.3335 4.05066 29.3335 4.7974 29.3335H5.86406C6.6108 29.3335 6.98417 29.3335 7.26938 29.1882C7.52027 29.0603 7.72424 28.8564 7.85207 28.6055C7.9974 28.3203 7.9974 27.9469 7.9974 27.2002V19.4668C7.9974 18.7201 7.9974 18.3467 7.85207 18.0615C7.72424 17.8106 7.52027 17.6067 7.26938 17.4788C6.98417 17.3335 6.6108 17.3335 5.86406 17.3335L4.7974 17.3335C4.05066 17.3335 3.67729 17.3335 3.39208 17.4788C3.14119 17.6067 2.93722 17.8106 2.80939 18.0615C2.66406 18.3467 2.66406 18.7201 2.66406 19.4668Z" stroke="url(#paint0_linear_524_19981)" stroke-width="2" stroke-linecap="round" stroke-linejoin="round"/>
<path fill-rule="evenodd" clip-rule="evenodd" d="M22.5 2.18182C19.5628 2.18182 17.1818 4.56285 17.1818 7.5C17.1818 10.4372 19.5628 12.8182 22.5 12.8182C25.4372 12.8182 27.8182 10.4372 27.8182 7.5C27.8182 4.56285 25.4372 2.18182 22.5 2.18182ZM16 7.5C16 3.91015 18.9101 1 22.5 1C26.0899 1 29 3.91015 29 7.5C29 11.0899 26.0899 14 22.5 14C18.9101 14 16 11.0899 16 7.5ZM22.5 3.06818C22.8264 3.06818 23.0909 3.33274 23.0909 3.65909V3.95455H23.1894C24.2772 3.95455 25.1591 4.83641 25.1591 5.92424C25.1591 6.25059 24.8945 6.51515 24.5682 6.51515C24.2418 6.51515 23.9773 6.25059 23.9773 5.92424C23.9773 5.48911 23.6245 5.13636 23.1894 5.13636H21.9091C21.4196 5.13636 21.0227 5.5332 21.0227 6.02273C21.0227 6.51225 21.4196 6.90909 21.9091 6.90909H23.0909C24.2331 6.90909 25.1591 7.83505 25.1591 8.97727C25.1591 10.1195 24.2331 11.0455 23.0909 11.0455V11.3409C23.0909 11.6673 22.8264 11.9318 22.5 11.9318C22.1736 11.9318 21.9091 11.6673 21.9091 11.3409V11.0455H21.8106C20.7228 11.0455 19.8409 10.1636 19.8409 9.07576C19.8409 8.74941 20.1055 8.48485 20.4318 8.48485C20.7582 8.48485 21.0227 8.74941 21.0227 9.07576C21.0227 9.51089 21.3755 9.86364 21.8106 9.86364H23.0909C23.5804 9.86364 23.9773 9.4668 23.9773 8.97727C23.9773 8.48775 23.5804 8.09091 23.0909 8.09091H21.9091C20.7669 8.09091 19.8409 7.16495 19.8409 6.02273C19.8409 4.8805 20.7669 3.95455 21.9091 3.95455V3.65909C21.9091 3.33274 22.1736 3.06818 22.5 3.06818Z" fill="url(#paint1_linear_524_19981)"/>
<defs>
<linearGradient id="paint0_linear_524_19981" x1="15.9974" y1="17.3335" x2="15.9974" y2="29.3335" gradientUnits="userSpaceOnUse">
<stop stop-color="#05A6A6"/>
<stop offset="1" stop-color="#0D5B6A"/>
</linearGradient>
<linearGradient id="paint1_linear_524_19981" x1="22.5" y1="1" x2="22.5" y2="14" gradientUnits="userSpaceOnUse">
<stop stop-color="#05A6A6"/>
<stop offset="1" stop-color="#0D5B6A"/>
</linearGradient>
</defs>
</svg>
