<svg width="72" height="72" viewBox="0 0 72 72" fill="none" xmlns="http://www.w3.org/2000/svg">
<path d="M49.8767 4.94358C26.14 -5.2228 0.828977 14.8938 4.94252 40.2425C7.29969 54.7662 19.8769 66.3878 34.5883 67.4652C36.1541 67.5792 37.8492 67.3801 39.4286 67.4652C40.4378 67.2371 41.4913 67.2116 42.5125 67.0465C46.4592 66.4048 50.0571 65.0142 53.4422 63.0092C61.8974 57.9967 67.6822 50.1076 69.3297 40.2425C69.4862 39.3064 69.4896 38.3311 69.7483 37.4137V32.5748C68.9501 20.3574 60.9817 9.70083 49.875 4.94358H49.8767ZM53.1801 60.7012C40.8582 68.3469 24.8499 66.238 14.9311 55.6614C5.0123 45.0866 3.94009 28.9834 12.3697 17.1865C20.7993 5.38952 36.3872 1.18034 49.6129 7.12732C59.8687 11.7382 66.7444 21.6288 67.4899 32.8437C68.237 44.0602 62.733 54.773 53.1784 60.7012H53.1801Z" fill="#F7C948"/>
<path d="M45.4939 33.1456C45.2846 33.2017 45.002 33.4877 44.8114 33.4502C44.6463 33.4179 44.454 33.0111 44.2651 32.8511C43.2116 31.966 42.2398 31.8469 40.9106 32.0648C45.9823 27.2667 45.0616 18.9113 39.2036 15.1855C33.9412 11.8375 26.783 13.6451 23.8182 19.1206C20.5505 25.1578 23.6259 32.6128 30.0898 34.691L30.0813 35.377C28.1819 34.6978 26.1618 35.9233 25.7822 37.8909C25.8673 44.1664 24.5432 50.4691 29.826 55.0527C37.3349 61.5648 49.0441 56.6492 49.7062 46.779C49.8985 43.9025 49.9495 39.0415 49.7062 36.2007C49.5155 33.9779 47.6775 32.5652 45.4956 33.1473L45.4939 33.1456ZM30.0813 32.3218C22.8005 29.4198 22.9536 18.6696 30.4693 16.0927C39.1049 13.1311 45.9109 23.6991 39.7022 30.2861C38.6573 31.3941 38.9194 30.8359 37.7757 30.8069C37.4166 30.7967 36.9826 31.0197 36.5792 30.9227C36.3256 29.7261 37.5408 29.4742 38.2318 28.6896C41.799 24.6455 39.241 18.1266 33.8459 17.8015C28.0373 17.4526 24.6334 24.3102 28.4883 28.6317C28.7844 28.9636 30.083 29.864 30.083 29.9678V32.3235L30.0813 32.3218ZM30.0813 25.2548V27.1016C29.9043 26.9909 29.6388 26.6063 29.5469 26.4258C28.5359 24.4395 29.0806 21.8916 30.985 20.6814C34.1319 18.6832 38.1195 21.2039 37.711 24.8582C37.6429 25.4625 37.2311 26.8207 36.5775 26.9722V24.6166C36.5775 24.5451 36.2507 23.8796 36.1742 23.7468C35.1173 21.9375 32.6086 21.6124 31.0956 23.0847C30.5868 23.58 30.0796 24.5468 30.0796 25.2531L30.0813 25.2548ZM47.1158 48.7755C45.1807 55.6893 36.3971 58.1181 31.099 53.2707C26.7847 49.3236 28.0594 43.5468 27.9743 38.3011C28.0594 37.433 29.1333 37.1079 29.7664 37.6679C30.5051 38.3215 29.7443 41.0976 30.2379 42.1613C30.6378 43.0209 31.807 42.9834 32.19 42.1341L32.2461 25.6378C32.321 24.2455 33.7813 23.8132 34.4093 25.1323V36.9752C34.4246 37.6798 34.702 38.41 35.4968 38.4441C37.4489 38.5292 36.409 34.7897 36.7307 33.6868C36.9434 32.9566 38.1841 32.8273 38.6181 33.5302C39.2512 34.5583 38.642 37.5709 38.8972 38.8543C39.258 39.4823 39.9422 39.7597 40.577 39.3104C41.4467 38.6943 40.8238 35.8671 41.0638 34.8323C41.1285 34.5549 41.2935 34.4612 41.4893 34.2996C41.9794 33.8962 42.7691 34.1021 43.0414 34.7114C43.5248 35.7871 43.0057 38.4526 43.2099 39.7631C43.3393 40.5972 44.2583 40.8269 44.8914 40.347C46.0283 39.484 44.6991 35.8501 45.8802 35.3157C46.9303 34.8408 47.4579 35.6391 47.5396 36.582C47.7762 39.2644 47.8 46.3314 47.1158 48.7755Z" fill="#F7C948"/>
</svg>
