<svg width="63" height="62" viewBox="0 0 63 62" fill="none" xmlns="http://www.w3.org/2000/svg">
<path d="M22.5 46L7.5 61M40.5 46L55.5 61M31.5 1V7M31.5 61V46M11.1 46H51.9C55.2603 46 56.9405 46 58.2239 45.346C59.3529 44.7708 60.2708 43.8529 60.846 42.7239C61.5 41.4405 61.5 39.7603 61.5 36.4V16.6C61.5 13.2397 61.5 11.5595 60.846 10.2761C60.2708 9.14708 59.3529 8.2292 58.2239 7.65396C56.9405 7 55.2603 7 51.9 7H11.1C7.73968 7 6.05953 7 4.77606 7.65396C3.64708 8.2292 2.7292 9.14708 2.15396 10.2761C1.5 11.5595 1.5 13.2397 1.5 16.6V36.4C1.5 39.7603 1.5 41.4405 2.15396 42.7239C2.7292 43.8529 3.64708 44.7708 4.77606 45.346C6.05953 46 7.73969 46 11.1 46Z" stroke="url(#paint0_linear_1068_475)" stroke-width="2" stroke-linecap="round" stroke-linejoin="round"/>
<defs>
<linearGradient id="paint0_linear_1068_475" x1="31.5" y1="1" x2="31.5" y2="61" gradientUnits="userSpaceOnUse">
<stop stop-color="#05A6A6"/>
<stop offset="1" stop-color="#0D5B6A"/>
</linearGradient>
</defs>
</svg>
