<svg width="29" height="30" viewBox="0 0 29 30" fill="none" xmlns="http://www.w3.org/2000/svg">
<path d="M9.16797 17.6667C9.16797 17.6667 11.168 20.3334 14.5013 20.3334C17.8346 20.3334 19.8346 17.6667 19.8346 17.6667M18.5013 11.0001H18.5146M10.5013 11.0001H10.5146M27.8346 15.0001C27.8346 22.3639 21.8651 28.3334 14.5013 28.3334C7.1375 28.3334 1.16797 22.3639 1.16797 15.0001C1.16797 7.63628 7.1375 1.66675 14.5013 1.66675C21.8651 1.66675 27.8346 7.63628 27.8346 15.0001ZM19.168 11.0001C19.168 11.3683 18.8695 11.6667 18.5013 11.6667C18.1331 11.6667 17.8346 11.3683 17.8346 11.0001C17.8346 10.6319 18.1331 10.3334 18.5013 10.3334C18.8695 10.3334 19.168 10.6319 19.168 11.0001ZM11.168 11.0001C11.168 11.3683 10.8695 11.6667 10.5013 11.6667C10.1331 11.6667 9.83463 11.3683 9.83463 11.0001C9.83463 10.6319 10.1331 10.3334 10.5013 10.3334C10.8695 10.3334 11.168 10.6319 11.168 11.0001Z" stroke="url(#paint0_linear_928_3444)" stroke-width="2" stroke-linecap="round" stroke-linejoin="round"/>
<defs>
<linearGradient id="paint0_linear_928_3444" x1="14.5013" y1="1.66675" x2="14.5013" y2="28.3334" gradientUnits="userSpaceOnUse">
<stop stop-color="#05A6A6"/>
<stop offset="1" stop-color="#0D5B6A"/>
</linearGradient>
</defs>
</svg>
