<svg width="65" height="60" viewBox="0 0 65 60" fill="none" xmlns="http://www.w3.org/2000/svg">
<path d="M34.6852 39.0696V48.2904C35.2505 48.5644 35.7922 48.674 36.3544 48.9965C37.705 49.771 38.769 51.2864 38.9861 52.8745H55.3704V51.3465C55.3704 50.6552 56.4671 49.7257 57.0887 49.5318C57.8598 49.2915 60.5806 49.3084 61.4623 49.398C62.4249 49.496 63.3352 50.0577 63.6711 51.024C63.9844 51.9239 63.9895 55.5332 63.6936 56.4342C63.453 57.1666 62.8805 57.782 62.1514 58.0086C61.3517 58.2573 58.595 58.2289 57.6703 58.1467C55.9203 57.9918 55.1379 56.4574 55.3704 54.7703H38.9861C37.7778 60.7422 29.7085 60.7464 28.4817 54.764L12.1558 54.7692C12.3801 56.1634 11.6561 57.8137 10.2153 58.094C9.42064 58.2489 6.59435 58.2447 5.76489 58.133C4.68558 57.9875 3.79059 56.9569 3.66771 55.8652C3.56633 54.9631 3.55506 51.7564 3.84076 51.0082C4.23296 49.9807 5.12693 49.4833 6.16119 49.3916C7.11557 49.3073 9.85278 49.281 10.6566 49.6203C11.9448 50.1641 12.3012 51.5456 12.1548 52.8734H28.2851L28.4909 52.7701C28.9292 50.4823 30.6311 48.8005 32.8399 48.341V39.2256L32.6863 39.0675H10.7744C9.04687 39.0675 6.19191 37.5374 4.88526 36.3814C-3.07136 29.3472 2.07228 16.1357 12.3626 16.3591C13.4563 14.0439 15.1644 12.0891 17.3916 10.8909C20.095 9.43663 23.0534 9.30701 25.977 10.0837C26.9406 6.67777 29.8191 3.59749 32.9075 2.09266C39.0086 -0.879071 46.3345 1.23065 50.068 6.95492C51.859 9.70113 52.6434 12.9974 52.3465 16.3064L52.4591 16.3991C53.5517 16.2442 54.8297 16.4539 55.9039 16.7553C64.9419 19.2918 66.9469 31.7109 59.19 37.1496C58.0502 37.9484 55.5598 39.0665 54.1917 39.0665H34.6842L34.6852 39.0696ZM59.6354 21.1918C58.1752 19.6469 55.8947 18.4614 53.7873 18.3055C52.9302 18.2422 51.8478 18.5025 51.1187 18.4172C49.7588 18.2591 50.5012 16.5203 50.5565 15.6214C51.3224 3.17703 35.3201 -2.20581 28.8053 8.30695C28.0588 9.51039 27.8868 10.6011 27.3317 11.7434C26.7767 12.8857 25.3646 11.9183 24.3467 11.7202C20.5466 10.9794 16.6195 12.6254 14.6349 16.0651C14.2335 16.7606 13.9335 18.2032 13.1348 18.3149C12.0053 18.472 11.0621 18.2507 9.80157 18.5731C-0.243021 21.1391 1.11073 36.4341 11.3837 37.178L53.9747 37.1591C61.4469 36.3677 64.9306 26.796 59.6354 21.1918ZM37.2238 53.7871C37.2238 51.8091 35.6662 50.2062 33.7441 50.2062C31.8221 50.2062 30.2645 51.8091 30.2645 53.7871C30.2645 55.7651 31.8221 57.3679 33.7441 57.3679C35.6662 57.3679 37.2238 55.7651 37.2238 53.7871ZM9.9859 56.2245C10.0822 56.1666 10.2972 55.626 10.3167 55.4595C10.4016 54.7471 10.3965 52.7997 10.3167 52.082C10.2736 51.7026 10.1467 51.4792 9.78519 51.3644C9.32336 51.2168 6.83499 51.2242 6.26666 51.2917C5.94819 51.3296 5.64713 51.4856 5.54678 51.8154C5.41878 52.238 5.44438 54.8946 5.50172 55.4563C5.55292 55.9663 5.64816 56.1866 6.16529 56.2488C6.56363 56.2962 9.82103 56.3236 9.9859 56.2245ZM57.3427 51.5319C57.2228 51.6637 57.2239 51.906 57.2095 52.0799C57.1389 52.924 57.1184 54.7418 57.2116 55.5648C57.2556 55.9579 57.3785 56.1992 57.7717 56.253C58.4424 56.3447 60.6912 56.3425 61.366 56.253C61.707 56.2077 61.8852 56.0275 61.9292 55.6734C62.0173 54.9684 62.0214 52.5678 61.9292 51.8691C61.8862 51.5446 61.8033 51.4613 61.4981 51.3644C61.023 51.2137 58.5643 51.2242 57.9806 51.2906C57.8219 51.3085 57.442 51.4234 57.3437 51.5309L57.3427 51.5319Z" fill="#F7C948" stroke="#F7C948" stroke-width="0.5"/>
</svg>
