<svg width="629" height="506" viewBox="0 0 629 506" fill="none" xmlns="http://www.w3.org/2000/svg">
<g opacity="0.5" filter="url(#filter0_f_524_19366)">
<rect width="231.77" height="274.9" transform="matrix(0.862314 -0.506374 0.647953 0.76168 230.102 249.957)" fill="url(#paint0_linear_524_19366)"/>
<rect width="231.77" height="274.9" transform="matrix(0.862314 -0.506374 0.647953 0.76168 230.102 249.957)" fill="url(#paint1_linear_524_19366)"/>
</g>
<rect width="287.22" height="294.39" transform="matrix(0.882626 -0.470075 0.561159 0.827708 31.2422 262.066)" fill="url(#paint2_linear_524_19366)"/>
<rect width="287.22" height="294.39" transform="matrix(0.882626 -0.470075 0.561159 0.827708 31.2422 262.066)" fill="url(#paint3_linear_524_19366)"/>
<g opacity="0.5" filter="url(#filter1_f_524_19366)">
<rect width="335.72" height="280.13" transform="matrix(0.896148 -0.443756 0.43625 0.899826 5 153.977)" fill="url(#paint4_linear_524_19366)"/>
<rect width="335.72" height="280.13" transform="matrix(0.896148 -0.443756 0.43625 0.899826 5 153.977)" fill="url(#paint5_linear_524_19366)"/>
</g>
<defs>
<filter id="filter0_f_524_19366" x="210.102" y="112.594" width="417.98" height="366.75" filterUnits="userSpaceOnUse" color-interpolation-filters="sRGB">
<feFlood flood-opacity="0" result="BackgroundImageFix"/>
<feBlend mode="normal" in="SourceGraphic" in2="BackgroundImageFix" result="shape"/>
<feGaussianBlur stdDeviation="10" result="effect1_foregroundBlur_524_19366"/>
</filter>
<filter id="filter1_f_524_19366" x="0" y="0" width="433.062" height="411.043" filterUnits="userSpaceOnUse" color-interpolation-filters="sRGB">
<feFlood flood-opacity="0" result="BackgroundImageFix"/>
<feBlend mode="normal" in="SourceGraphic" in2="BackgroundImageFix" result="shape"/>
<feGaussianBlur stdDeviation="2.5" result="effect1_foregroundBlur_524_19366"/>
</filter>
<linearGradient id="paint0_linear_524_19366" x1="-19.8" y1="251.303" x2="251.57" y2="23.5967" gradientUnits="userSpaceOnUse">
<stop stop-color="#0C3D48"/>
<stop offset="1" stop-opacity="0"/>
</linearGradient>
<linearGradient id="paint1_linear_524_19366" x1="231.447" y1="-0.271185" x2="0.323228" y2="275.171" gradientUnits="userSpaceOnUse">
<stop stop-opacity="0.8"/>
<stop offset="1" stop-opacity="0"/>
</linearGradient>
<linearGradient id="paint2_linear_524_19366" x1="-13.1432" y1="278.727" x2="300.363" y2="15.6635" gradientUnits="userSpaceOnUse">
<stop stop-color="#0C3D48"/>
<stop offset="1" stop-opacity="0"/>
</linearGradient>
<linearGradient id="paint3_linear_524_19366" x1="275.426" y1="-9.8967" x2="11.7944" y2="304.287" gradientUnits="userSpaceOnUse">
<stop stop-opacity="0.8"/>
<stop offset="1" stop-opacity="0"/>
</linearGradient>
<linearGradient id="paint4_linear_524_19366" x1="0.387159" y1="280.591" x2="335.333" y2="-0.46138" gradientUnits="userSpaceOnUse">
<stop stop-color="#0C3D48"/>
<stop offset="1" stop-opacity="0"/>
</linearGradient>
<linearGradient id="paint5_linear_524_19366" x1="306.184" y1="-24.7834" x2="29.5358" y2="304.913" gradientUnits="userSpaceOnUse">
<stop stop-opacity="0.8"/>
<stop offset="1" stop-opacity="0"/>
</linearGradient>
</defs>
</svg>
