<svg width="34" height="38" viewBox="0 0 34 38" fill="none" xmlns="http://www.w3.org/2000/svg">
<path d="M17 5V24.6C17 27.5403 17 29.0104 17.5722 30.1334C18.0756 31.1213 18.8787 31.9244 19.8665 32.4278C20.9896 33 22.4597 33 25.4 33H25.75M25.75 33C25.75 34.933 27.317 36.5 29.25 36.5C31.183 36.5 32.75 34.933 32.75 33C32.75 31.067 31.183 29.5 29.25 29.5C27.317 29.5 25.75 31.067 25.75 33ZM8.25 5L25.75 5M8.25 5C8.25 6.933 6.683 8.5 4.75 8.5C2.817 8.5 1.25 6.933 1.25 5C1.25 3.067 2.817 1.5 4.75 1.5C6.683 1.5 8.25 3.067 8.25 5ZM25.75 5C25.75 6.93299 27.317 8.5 29.25 8.5C31.183 8.5 32.75 6.933 32.75 5C32.75 3.067 31.183 1.5 29.25 1.5C27.317 1.5 25.75 3.067 25.75 5ZM17 19H25.75M25.75 19C25.75 20.933 27.317 22.5 29.25 22.5C31.183 22.5 32.75 20.933 32.75 19C32.75 17.067 31.183 15.5 29.25 15.5C27.317 15.5 25.75 17.067 25.75 19Z" stroke="url(#paint0_linear_759_1020)" stroke-width="2" stroke-linecap="round" stroke-linejoin="round"/>
<defs>
<linearGradient id="paint0_linear_759_1020" x1="17" y1="1.5" x2="17" y2="36.5" gradientUnits="userSpaceOnUse">
<stop stop-color="#05A6A6"/>
<stop offset="1" stop-color="#0D5B6A"/>
</linearGradient>
</defs>
</svg>
