<svg width="77" height="66" viewBox="0 0 77 66" fill="none" xmlns="http://www.w3.org/2000/svg">
<path d="M36.9883 15.4338C38.786 15.6097 38.7884 18.0744 36.9883 18.2503L5.69043 18.2385C4.47232 18.2316 3.46325 19.2183 3.46777 20.4329V60.9973C3.46065 62.2004 4.46032 63.1973 5.69043 63.1926L64.5986 63.0706C65.3917 62.7517 66.0116 62.0297 66.0498 61.1692L66.0596 43.2727C66.3352 41.5399 69.0114 41.8259 68.9023 43.6057C68.4654 49.3489 69.4577 55.8661 68.8926 61.5178C68.6456 63.9755 66.6887 65.8356 64.1904 66.0022H5.33691C2.78411 65.8427 0.789083 63.8777 0.625 61.3499V20.0842C0.774613 17.7461 2.51058 15.8462 4.85449 15.4827L36.9883 15.4338ZM21.2148 25.4944C30.6357 23.3627 36.504 34.7481 29.6055 41.2395H29.6074C34.92 42.5763 38.2163 47.9355 37.5869 53.2473C37.3065 55.6181 35.2951 57.4304 32.9014 57.5735C26.7482 57.1701 19.9444 58.087 13.8672 57.5735C11.2312 57.3507 9.38335 55.5218 9.15527 52.9212C8.69693 47.6867 11.946 42.5716 17.1611 41.2395C11.7916 36.2982 13.9668 27.1337 21.2148 25.4944ZM59.1934 54.7688C60.7678 55.0127 60.8348 57.3639 59.0303 57.5706C54.5394 58.0842 49.0577 57.1887 44.46 57.5569C42.9593 57.3245 42.8643 55.2136 44.3105 54.7962L59.1934 54.7688ZM29.6055 44.1409C27.4729 43.2872 21.635 43.2915 19.2578 43.5706V43.5735C14.8454 44.0942 11.6206 48.2447 12.0029 52.5715C12.1217 53.9317 12.8553 54.6379 14.2256 54.7669C20.0249 55.3039 26.6602 54.3447 32.5498 54.7669C34.5708 54.5792 34.8484 53.2563 34.7725 51.5022C34.6347 48.2895 32.6332 45.3558 29.6055 44.1409ZM53.5059 46.343C55.0804 46.5869 55.0756 48.8896 53.5059 49.1311C52.1043 49.3468 45.8611 49.3469 44.46 49.1311C42.9593 48.8988 42.8643 46.7878 44.3105 46.3704L53.5059 46.343ZM58.5332 0.0236911C59.6826 -0.227235 61.4068 1.58321 62.4375 2.23756C65.1971 3.99409 68.5507 5.41285 71.7354 6.22193C73.0938 6.56665 75.6893 6.44729 76.1357 7.84498C76.4206 8.73394 76.4969 11.1275 76.542 12.1829C77.0977 25.4119 74.9628 33.3483 63.3643 40.6135C62.5569 41.1177 59.8068 42.8018 59.0205 42.8372C58.3318 42.8653 56.6642 41.8374 55.9707 41.4504C51.5393 38.9715 45.8656 34.1384 43.6689 29.5491C41.1968 24.3873 41.0383 15.3958 41.5156 9.73463C41.5703 9.09664 41.6702 7.67311 42.043 7.26978C42.576 6.69306 45.9258 6.28924 46.9824 6.00318C49.8844 5.21754 53.0238 3.78494 55.541 2.1692C56.1725 1.76363 58.0786 0.123223 58.5283 0.0236911H58.5332ZM23.3857 28.0852C19.8567 28.0852 16.9941 30.9118 16.9941 34.3967C16.9943 37.8815 19.8568 40.7073 23.3857 40.7073C26.9145 40.7071 29.7762 37.8814 29.7764 34.3967C29.7764 30.912 26.9146 28.0854 23.3857 28.0852ZM59.0322 3.3274C54.5319 6.30808 49.7609 8.51781 44.3867 9.49342C44.135 14.6785 43.8835 20.1945 45.1611 25.2717C46.4151 30.2526 50.1477 34.08 54.2607 36.9973C55.1751 37.6469 57.7121 39.404 58.6406 39.7112C59.2084 39.9007 60.4788 39.0262 61.0605 38.6838C64.2713 36.789 68.0733 33.7307 70.2178 30.6985C74.4355 24.7301 73.7326 16.4257 73.4951 9.49342H73.4932C68.2709 8.47796 63.3117 6.44882 59.0322 3.3274ZM67.0684 15.4739C68.2534 15.359 68.9377 16.6676 68.3701 17.6409L57.5645 28.0462C56.9423 28.1728 56.7217 27.9729 56.2705 27.6399C55.1947 26.8472 50.3538 22.1007 49.5986 21.0618C48.4214 19.4391 50.1501 17.8872 52.0996 19.47C54.0494 21.053 55.4436 23.166 57.4053 24.552L66.2207 15.8674C66.4463 15.6775 66.7792 15.5014 67.0713 15.471L67.0684 15.4739Z" fill="url(#paint0_linear_1351_1432)"/>
<defs>
<linearGradient id="paint0_linear_1351_1432" x1="38.6234" y1="0" x2="38.6234" y2="66.0022" gradientUnits="userSpaceOnUse">
<stop stop-color="#0BE6E6"/>
<stop offset="1" stop-color="#0B9292" stop-opacity="0.45"/>
</linearGradient>
</defs>
</svg>
