<svg width="62" height="63" viewBox="0 0 62 63" fill="none" xmlns="http://www.w3.org/2000/svg">
<path d="M7.8 40.5823C4.30264 38.2303 2 34.2248 2 29.679C2 22.8508 7.19537 17.2418 13.8313 16.6243C15.1887 8.32868 22.3587 2 31 2C39.6413 2 46.8113 8.32868 48.1687 16.6243C54.8046 17.2418 60 22.8508 60 29.679C60 34.2248 57.6974 38.2303 54.2 40.5823M19.4 49.3457L31 61M31 61L42.6 49.3457M31 61L31 22.7593M31 22.7593L19.4 35.8704M31 22.7593L42.6 35.8704" stroke="#F7C948" stroke-width="3" stroke-linecap="round" stroke-linejoin="round"/>
</svg>
