<svg width="292" height="374" viewBox="0 0 292 374" fill="none" xmlns="http://www.w3.org/2000/svg">
<path d="M228.823 229.003C232.15 229.003 234.847 231.701 234.847 235.028V235.823C244.048 238.322 250.806 246.397 250.806 255.943C250.806 259.271 248.109 261.968 244.782 261.968C241.456 261.968 238.76 259.271 238.76 255.943C238.76 251.053 234.303 247.076 228.824 247.076C223.345 247.076 218.891 251.053 218.891 255.943C218.891 260.833 223.347 264.807 228.824 264.807C240.945 264.807 250.806 274.192 250.806 285.725C250.806 295.271 244.049 303.341 234.847 305.838V307.439C234.847 310.767 232.15 313.465 228.823 313.465C225.496 313.465 222.8 310.767 222.8 307.439V305.837C213.6 303.339 206.844 295.268 206.844 285.724C206.844 282.396 209.54 279.698 212.867 279.698C216.194 279.698 218.891 282.396 218.891 285.724C218.891 290.603 223.334 294.574 228.802 294.585H228.845C234.313 294.575 238.76 290.603 238.76 285.724C238.76 280.838 234.303 276.854 228.824 276.854C216.705 276.854 206.845 267.474 206.845 255.943C206.845 246.399 213.6 238.324 222.8 235.824V235.028C222.8 231.701 225.496 229.003 228.823 229.003Z" fill="url(#paint0_linear_1351_2810)"/>
<path d="M117.641 0.347656C134.548 0.347804 148.645 12.6152 151.501 28.7207H172.507C181.308 28.7207 188.469 35.8848 188.469 44.6865V47.3604H213.917C225.457 47.3604 234.847 56.7503 234.847 68.2959V193.495C234.846 196.823 232.151 199.519 228.824 199.52C225.497 199.52 222.801 196.823 222.801 193.495V68.2959C222.801 63.3966 218.815 59.4092 213.916 59.4092H188.469V81.5508C188.469 81.879 188.457 82.2049 188.438 82.5283C188.39 83.3131 188.285 84.0825 188.128 84.833C187.942 85.7169 187.685 86.5745 187.359 87.3984C185.703 91.5929 182.319 94.922 178.09 96.5068C178.024 96.5314 177.959 96.5554 177.893 96.5791C176.209 97.1846 174.396 97.5166 172.507 97.5166H62.7725L62.3613 97.5117C53.749 97.2929 46.8105 90.2153 46.8105 81.5508V59.4092H21.3633C16.4654 59.4093 12.4796 63.3957 12.4795 68.2959V352.856C12.4796 357.757 16.4644 361.743 21.3633 361.743H213.917C218.815 361.743 222.802 357.757 222.802 352.856V349.133C222.802 345.805 225.498 343.108 228.825 343.108C232.152 343.109 234.848 345.805 234.849 349.133V352.856C234.848 364.402 225.458 373.793 213.918 373.793H21.3633C9.82308 373.793 0.43374 364.402 0.433594 352.856V68.2959C0.433706 56.7504 9.82306 47.3605 21.3633 47.3604H46.8105V44.6865C46.8107 35.8848 53.971 28.7207 62.7725 28.7207H83.7812C86.6374 12.6158 100.733 0.347656 117.641 0.347656ZM64.5312 323.174C67.3833 323.174 69.6943 325.538 69.6943 328.457C69.6943 331.376 67.3833 333.739 64.5312 333.739H41.9883C39.1361 333.739 36.8252 331.375 36.8252 328.457C36.8252 325.539 39.1362 323.174 41.9883 323.174H64.5312ZM228.825 208.072C263.417 208.072 291.564 236.223 291.564 270.828C291.564 305.433 263.42 333.586 228.825 333.586C194.232 333.586 166.088 305.433 166.088 270.828C166.088 236.223 194.233 208.072 228.825 208.072ZM228.825 220.122C200.873 220.122 178.133 242.87 178.133 270.828C178.133 298.787 200.873 321.536 228.825 321.536C256.777 321.536 279.518 298.788 279.518 270.828C279.518 242.869 256.778 220.122 228.825 220.122ZM66.9629 295C69.7686 295 72.0419 297.364 72.042 300.282C72.042 303.2 69.7687 305.565 66.9629 305.565H41.9043C39.0985 305.565 36.8252 303.2 36.8252 300.282C36.8253 297.364 39.0986 295 41.9043 295H66.9629ZM109.16 264.479C112.001 264.479 114.303 266.58 114.303 269.174C114.303 271.767 112.001 273.869 109.16 273.869H41.9688C39.1277 273.869 36.8252 271.768 36.8252 269.174C36.8252 266.58 39.1276 264.479 41.9688 264.479H109.16ZM109.16 235.13C112.001 235.13 114.303 237.495 114.303 240.413C114.303 243.331 112.001 245.695 109.16 245.695H41.9688C39.1277 245.695 36.8253 243.331 36.8252 240.413C36.8252 237.495 39.1276 235.13 41.9688 235.13H109.16ZM126.805 103.202C127.279 103.43 127.735 103.58 128.278 103.771C128.742 103.933 129.251 104.119 129.789 104.394L130.021 104.517L130.313 104.688C130.98 105.098 131.548 105.591 132.055 106.072C132.68 106.666 133.112 107.136 133.667 107.632C134.669 108.527 135.639 109.087 137.134 108.926H137.135L137.342 108.89C137.559 108.839 137.815 108.744 138.146 108.609C138.538 108.451 139.073 108.221 139.615 108.114H139.616L140.137 108.023C145.507 107.194 150.651 109.849 152.637 115.122L152.741 115.419C152.969 116.114 153.092 116.814 153.217 117.34C153.368 117.98 153.546 118.521 153.91 119.048L154.032 119.219C154.646 120.041 155.254 120.376 155.938 120.604C156.341 120.737 156.758 120.83 157.279 120.955C157.784 121.076 158.354 121.22 158.963 121.449H158.964L159.47 121.653C164.609 123.855 166.991 129.069 165.972 134.466C165.868 135.013 165.637 135.551 165.478 135.942C165.342 136.275 165.246 136.53 165.195 136.747L165.159 136.954C164.994 138.489 165.651 139.544 166.707 140.714C166.974 141.009 167.254 141.301 167.553 141.611C167.847 141.917 168.155 142.241 168.452 142.579C169.047 143.255 169.631 144.028 170.036 144.957V144.958L170.163 145.26C171.389 148.294 171.287 151.601 169.843 154.55L169.694 154.844C169.263 155.667 168.692 156.351 168.131 156.951C167.851 157.251 167.561 157.542 167.292 157.815C167.018 158.093 166.76 158.356 166.521 158.623C165.583 159.667 164.998 160.662 165.159 162.169L165.196 162.377C165.248 162.595 165.342 162.85 165.478 163.183C165.637 163.575 165.868 164.112 165.972 164.659L166.06 165.181C166.861 170.561 164.284 175.669 158.963 177.674L158.964 177.675C158.395 177.889 157.826 178.031 157.318 178.153C156.792 178.28 156.344 178.385 155.92 178.529C155.272 178.75 154.733 179.046 154.293 179.615L164.797 200.182L164.824 200.235L164.845 200.292C165.42 201.861 165.257 203.42 164.46 204.639C163.717 205.776 162.481 206.527 161.005 206.737L160.706 206.772L160.614 206.78L160.521 206.771C160.013 206.723 158.963 206.48 157.778 206.188C156.561 205.889 155.067 205.505 153.637 205.148C152.193 204.788 150.8 204.452 149.732 204.234C149.233 204.133 148.824 204.061 148.524 204.024C148.089 204.947 147.631 206.288 147.092 207.852C146.47 209.655 145.759 211.69 144.896 213.371C144.464 214.215 143.975 215.006 143.413 215.65C142.853 216.292 142.178 216.837 141.365 217.102C139.617 217.67 137.852 216.799 136.113 214.832L136.029 214.737L135.972 214.624L126.401 195.849C125.249 196.038 124.045 196.14 122.773 195.868L112.62 215.368L112.558 215.488L112.465 215.588C111.395 216.736 110.015 217.359 108.606 217.275C107.274 217.196 106.053 216.493 105.174 215.27L105.003 215.019C104.674 214.508 104.245 213.51 103.805 212.412C103.35 211.277 102.84 209.921 102.353 208.619C101.862 207.311 101.396 206.06 101.019 205.116C100.829 204.643 100.669 204.262 100.545 203.997L100.544 203.995C100.499 204.002 100.447 204.01 100.383 204.021L100.017 204.081C98.4947 204.273 96.4703 204.912 94.3301 205.549C92.4107 206.12 90.3539 206.703 88.75 206.77L88.4355 206.776C85.0858 206.766 82.9507 203.209 84.2295 200.241C84.5193 199.453 85.3508 197.828 86.374 195.906C87.4473 193.89 88.7881 191.44 90.0869 189.05C91.3889 186.654 92.6485 184.317 93.5674 182.51C94.0277 181.604 94.3945 180.846 94.6377 180.286C94.7602 180.004 94.8435 179.792 94.8906 179.646C94.892 179.642 94.8922 179.637 94.8936 179.633C94.8418 179.527 94.7345 179.389 94.5098 179.226C94.1952 178.997 93.7475 178.787 93.2041 178.593C92.6676 178.401 92.0934 178.244 91.5459 178.099C91.03 177.962 90.4785 177.822 90.0898 177.675V177.674C84.646 175.622 81.9962 170.205 83.085 164.652L83.1299 164.449C83.2475 163.978 83.4415 163.526 83.5801 163.183C83.759 162.74 83.8673 162.433 83.8955 162.17L83.918 161.891C83.9842 160.522 83.4093 159.59 82.5283 158.618C82.2876 158.353 82.0298 158.09 81.7549 157.813C81.4846 157.541 81.1952 157.251 80.915 156.951C80.4235 156.425 79.9253 155.834 79.5244 155.136L79.3594 154.831C77.6295 151.437 77.6553 147.427 79.4785 144.072L79.6475 143.778C80.0545 143.108 80.5475 142.539 81.0293 142.034C81.6312 141.403 82.0904 140.99 82.5957 140.431C83.4934 139.437 84.0581 138.47 83.8955 136.956V136.955C83.8672 136.692 83.7589 136.386 83.5801 135.943C83.4415 135.6 83.2475 135.148 83.1299 134.677L83.085 134.474C81.9962 128.917 84.6501 123.501 90.0908 121.451L90.4102 121.338C91.1545 121.093 91.8723 120.971 92.3867 120.845C93.0061 120.693 93.5501 120.499 94.1436 120.053C95.0621 119.361 95.3949 118.743 95.6123 118.059C95.7341 117.675 95.8161 117.284 95.9346 116.776C96.0489 116.287 96.1893 115.73 96.418 115.123L96.6201 114.621C98.8075 109.519 104.056 107.062 109.438 108.115L109.641 108.16C110.112 108.277 110.565 108.472 110.908 108.61C111.351 108.789 111.657 108.898 111.921 108.927H111.92C113.437 109.09 114.403 108.523 115.396 107.624C115.956 107.116 116.365 106.661 116.998 106.057C117.575 105.506 118.236 104.94 119.037 104.507L119.1 104.474L119.166 104.449L122.644 103.165L122.811 103.104H126.599L126.805 103.202ZM150.633 187.376C147.883 190.597 143.887 191.821 139.622 191.014V191.013C139.075 190.909 138.538 190.679 138.146 190.52C137.814 190.384 137.559 190.288 137.342 190.237L137.135 190.201C135.222 189.996 133.715 191.198 132.257 192.858L139.821 207.735L143.515 199.322L143.521 199.309L143.527 199.296C143.83 198.657 144.374 198.158 144.906 197.814C145.445 197.467 146.079 197.207 146.677 197.122L146.83 197.105C147.196 197.074 147.617 197.104 148.031 197.154C148.525 197.215 149.091 197.316 149.688 197.44C150.884 197.69 152.271 198.045 153.585 198.392C154.777 198.706 155.901 199.01 156.807 199.236L150.633 187.376ZM92.249 199.238C93.1593 199.012 94.2911 198.708 95.4893 198.393C96.8058 198.046 98.1943 197.691 99.3877 197.441C99.9841 197.317 100.547 197.215 101.037 197.154C101.507 197.096 101.987 197.065 102.382 197.121H102.381C102.978 197.206 103.613 197.465 104.151 197.813C104.617 198.114 105.092 198.534 105.406 199.062L105.531 199.295L105.537 199.308L105.543 199.321L109.229 207.719L116.727 192.741C115.241 191.197 113.94 190.073 112.12 190.184L111.923 190.2C111.66 190.228 111.355 190.338 110.911 190.519C110.519 190.678 109.981 190.908 109.435 191.012L109.436 191.013C105.121 191.829 101.196 190.586 98.4287 187.368L92.249 199.238ZM126.141 110.033C125.492 109.751 124.744 109.615 123.778 109.756L123.688 109.771C122.605 109.947 121.906 110.486 121.168 111.245C120.469 111.963 119.599 113.065 118.405 113.809L118.404 113.81C116.688 114.878 114.251 115.576 112.151 115.557L111.736 115.543C110.821 115.491 109.975 115.279 109.226 115.067C108.444 114.847 107.813 114.644 107.172 114.53C106.558 114.421 106.019 114.414 105.496 114.561C105.042 114.688 104.539 114.949 103.976 115.462L103.73 115.697C102.857 116.58 102.533 117.78 102.032 119.438C101.584 120.922 101.01 122.654 99.5859 124.186L99.29 124.489C97.5695 126.168 95.2162 126.783 93.4561 127.385C91.6924 127.987 90.4836 128.569 89.8799 129.797L89.7676 130.052C89.2583 131.335 89.5445 132.603 89.9365 134.441C90.2905 136.102 90.6778 138.086 90.0791 140.413L89.9453 140.883C89.3173 142.911 88.008 144.282 86.9365 145.402C85.8048 146.586 85.0265 147.422 84.8008 148.517V148.518C84.5854 149.562 84.6944 150.35 84.9629 151.021C85.2419 151.719 85.7154 152.349 86.334 153.047C87.513 154.377 89.3091 155.986 90.0215 158.504L90.1357 158.934C90.658 161.037 90.4672 162.482 90.1309 163.773C89.7741 165.143 89.3783 166.029 89.4062 167.463L89.4238 167.849C89.488 168.709 89.706 169.297 89.9854 169.721C90.3053 170.206 90.7626 170.562 91.3652 170.857C91.9836 171.161 92.703 171.376 93.5283 171.612C94.3232 171.839 95.2238 172.087 96.0605 172.45L96.4775 172.646C97.4513 173.137 98.4132 173.86 99.2461 174.674C100.198 175.604 101.035 176.706 101.54 177.812L101.682 178.138C101.998 178.903 102.23 179.714 102.445 180.445C102.701 181.313 102.934 182.08 103.261 182.739C103.58 183.383 103.962 183.867 104.478 184.198C104.991 184.528 105.729 184.763 106.861 184.748L107.127 184.74C108.417 184.677 109.223 184.288 110.52 183.943C111.901 183.577 113.455 183.42 115.852 184.144L116.224 184.267C118.049 184.92 119.315 186.139 120.362 187.147C121.543 188.285 122.379 189.07 123.483 189.298H123.484L123.866 189.364C124.731 189.485 125.411 189.371 125.998 189.135C126.695 188.854 127.325 188.378 128.021 187.757C129.346 186.573 130.949 184.769 133.47 184.069L133.896 183.958C135.987 183.446 137.398 183.624 138.656 183.965C139.998 184.328 140.806 184.729 142.197 184.747L142.433 184.746C143.581 184.719 144.323 184.371 144.871 183.88C145.491 183.324 145.95 182.506 146.379 181.451C146.591 180.929 146.785 180.376 146.992 179.791C147.196 179.214 147.412 178.606 147.655 178.012C148.141 176.827 148.772 175.608 149.77 174.635L149.954 174.461C150.891 173.612 152.019 173.058 153.111 172.623C153.696 172.39 154.294 172.183 154.859 171.985C155.433 171.785 155.975 171.594 156.486 171.386C157.518 170.965 158.317 170.51 158.859 169.896C159.372 169.315 159.726 168.511 159.709 167.232V167.231C159.69 165.781 159.27 164.956 158.903 163.573C158.537 162.191 158.381 160.638 159.104 158.241L159.227 157.868C159.879 156.043 161.098 154.776 162.106 153.729C163.243 152.549 164.031 151.712 164.259 150.606L164.325 150.224C164.446 149.359 164.331 148.679 164.095 148.092C163.814 147.394 163.338 146.765 162.717 146.069C161.608 144.826 159.953 143.34 159.175 141.081L159.031 140.619C158.385 138.29 158.563 136.773 158.927 135.432C159.29 134.09 159.691 133.282 159.709 131.891V131.89L159.707 131.654C159.679 130.506 159.333 129.764 158.842 129.216C158.286 128.596 157.468 128.138 156.413 127.709C155.891 127.496 155.339 127.302 154.754 127.095C154.177 126.891 153.569 126.675 152.975 126.432C151.864 125.976 150.723 125.393 149.783 124.5L149.598 124.317C148.641 123.337 148.042 122.126 147.581 120.957C147.35 120.371 147.145 119.773 146.95 119.207C146.753 118.633 146.566 118.092 146.36 117.582C145.945 116.553 145.496 115.76 144.884 115.222C144.341 114.744 143.596 114.403 142.435 114.376L142.196 114.375C140.806 114.393 139.997 114.794 138.655 115.157C137.397 115.498 135.986 115.676 133.896 115.164L133.468 115.053C131.032 114.377 129.459 112.619 128.149 111.44C127.461 110.821 126.834 110.335 126.141 110.033ZM121.206 117.273C150.046 115.243 167.494 148.275 148.889 170.421L148.438 170.945C131.934 189.852 100.599 183.244 93.1562 159.476L92.9844 158.911C92.7633 158.16 92.3059 156.824 92.1973 155.579C92.0898 154.347 92.2934 152.723 93.8984 151.958V151.957L94.1064 151.864C94.5917 151.662 95.0802 151.563 95.5645 151.589C96.125 151.619 96.6171 151.815 97.0332 152.113C97.8262 152.681 98.3363 153.613 98.6943 154.488C99.0628 155.39 99.3351 156.403 99.5625 157.282C99.8016 158.207 99.9805 158.933 100.171 159.407L100.426 160.022C111.364 185.592 151.174 177.193 149.819 148.013L149.779 147.314C147.998 121.188 111.012 114.926 100.496 138.933L100.253 139.506C100.056 139.983 99.88 140.647 99.6709 141.462C99.4698 142.245 99.2442 143.142 98.9561 143.973C98.6711 144.794 98.2951 145.643 97.749 146.301C97.2153 146.943 96.4838 147.439 95.5293 147.501L95.335 147.508C94.7148 147.51 94.1445 147.383 93.6562 147.097C93.1618 146.806 92.8167 146.389 92.5938 145.92C92.1704 145.028 92.1772 143.935 92.3037 142.966C92.5612 140.994 93.4282 138.797 93.7861 137.85L93.9854 137.339C98.2571 126.656 108.959 118.36 120.518 117.329L121.206 117.273ZM62.7725 40.7705C60.6134 40.7705 58.8576 42.5259 58.8574 44.6865V81.5518C58.8575 82.1329 58.9859 82.6843 59.2139 83.1807C59.2873 83.3406 59.3704 83.4951 59.4639 83.6426C59.5855 83.8344 59.7229 84.0152 59.875 84.1826C60.0016 84.322 60.138 84.4523 60.2832 84.5723C60.4765 84.7319 60.6855 84.8735 60.9072 84.9941C61.0127 85.0515 61.1214 85.1037 61.2324 85.1514C61.647 85.3294 62.0981 85.4379 62.5713 85.4619C62.6379 85.4653 62.705 85.4668 62.7725 85.4668H172.507C174.667 85.4668 176.422 83.7105 176.422 81.5508V44.6865C176.422 42.5259 174.667 40.7705 172.507 40.7705H151.501C151.482 40.8747 151.461 40.9782 151.441 41.082C151.408 41.2611 151.375 41.4401 151.339 41.6182C151.327 41.6752 151.315 41.7321 151.303 41.7891C151.261 41.9873 151.219 42.1849 151.174 42.3818C151.146 42.5056 151.115 42.6287 151.086 42.752C151.053 42.8892 151.021 43.0265 150.986 43.1631C150.956 43.2822 150.925 43.4009 150.894 43.5195C150.86 43.6461 150.827 43.7725 150.792 43.8984C150.751 44.047 150.709 44.1951 150.666 44.3428C150.633 44.4564 150.599 44.5695 150.564 44.6826C150.521 44.8268 150.477 44.9708 150.432 45.1143C150.402 45.2063 150.373 45.298 150.343 45.3896C150.291 45.5472 150.24 45.7047 150.187 45.8613C150.151 45.9649 150.114 46.0677 150.077 46.1709C150.026 46.3154 149.976 46.4599 149.923 46.6035C149.744 47.0896 149.554 47.5703 149.354 48.0459C149.317 48.1318 149.28 48.2172 149.243 48.3027C149.173 48.4648 149.102 48.6263 149.03 48.7871C148.98 48.9001 148.928 49.0126 148.876 49.125C148.829 49.226 148.783 49.3272 148.735 49.4277C148.665 49.5758 148.594 49.7232 148.521 49.8701C148.474 49.966 148.427 50.0618 148.379 50.1572C148.304 50.3063 148.228 50.4547 148.15 50.6025C148.107 50.6858 148.063 50.7687 148.019 50.8516C147.942 50.9956 147.865 51.1394 147.786 51.2822C147.748 51.3512 147.709 51.4196 147.671 51.4883C146.995 52.6968 146.248 53.8603 145.437 54.9736C145.396 55.029 145.356 55.0846 145.315 55.1396C145.197 55.3 145.077 55.459 144.956 55.6172C144.931 55.6505 144.905 55.6835 144.879 55.7168C144.758 55.8733 144.637 56.0293 144.514 56.1836C144.47 56.2379 144.426 56.2917 144.383 56.3457C144.264 56.4925 144.145 56.6384 144.023 56.7832C143.987 56.8273 143.949 56.8711 143.912 56.915C143.787 57.0629 143.661 57.2098 143.534 57.3555C143.507 57.386 143.481 57.4168 143.454 57.4473C142.857 58.1256 142.234 58.7798 141.586 59.4092C141.541 59.4525 141.497 59.496 141.452 59.5391C141.329 59.6578 141.203 59.7747 141.078 59.8916C141.016 59.9493 140.955 60.0072 140.893 60.0645C140.744 60.2013 140.594 60.3365 140.442 60.4707C140.417 60.4935 140.391 60.5163 140.365 60.5391C140.213 60.6733 140.06 60.8059 139.905 60.9375C139.853 60.9817 139.801 61.0255 139.749 61.0693C139.613 61.1835 139.477 61.2971 139.34 61.4092C139.274 61.4632 139.207 61.5168 139.141 61.5703C139.002 61.6813 138.864 61.7915 138.724 61.9004C138.681 61.9338 138.638 61.9668 138.595 62C137.492 62.8506 136.336 63.6357 135.133 64.3496C135.079 64.3817 135.025 64.4145 134.971 64.4463C134.814 64.5383 134.656 64.6282 134.497 64.7178C134.425 64.7586 134.353 64.7996 134.28 64.8398C134.134 64.921 133.987 65.001 133.84 65.0801C133.742 65.1325 133.644 65.1839 133.546 65.2354C133.412 65.3057 133.277 65.3757 133.142 65.4443C133.07 65.4809 132.997 65.5167 132.925 65.5527C132.137 65.9453 131.332 66.3082 130.512 66.6406C130.452 66.6647 130.394 66.6901 130.334 66.7139C130.198 66.7682 130.061 66.8205 129.924 66.873C129.806 66.9182 129.688 66.963 129.57 67.0068C129.434 67.0574 129.297 67.1064 129.16 67.1553C129.058 67.1917 128.956 67.2282 128.854 67.2637C128.693 67.3191 128.532 67.3727 128.371 67.4258C128.29 67.4525 128.209 67.4798 128.128 67.5059C127.966 67.5579 127.803 67.6085 127.64 67.6582C127.538 67.6891 127.437 67.7191 127.335 67.749C127.188 67.7923 127.041 67.8356 126.894 67.877C126.771 67.9111 126.649 67.9437 126.526 67.9766C126.39 68.0131 126.253 68.0501 126.116 68.085C126.034 68.1059 125.951 68.1251 125.868 68.1455C125.317 68.2812 124.762 68.4039 124.201 68.5127C124.062 68.5398 123.922 68.5674 123.782 68.5928C123.666 68.6139 123.549 68.6324 123.432 68.6523C123.279 68.6784 123.126 68.7045 122.973 68.7285C122.871 68.7445 122.768 68.7594 122.666 68.7744C122.484 68.8012 122.302 68.8267 122.119 68.8506C122.026 68.8628 121.932 68.8743 121.838 68.8857C121.672 68.9061 121.506 68.9254 121.339 68.9434C121.216 68.9566 121.093 68.9695 120.97 68.9814C120.812 68.9967 120.654 69.0104 120.496 69.0234C120.381 69.033 120.265 69.0424 120.149 69.0508C119.992 69.0622 119.833 69.0718 119.675 69.0811C119.55 69.0884 119.425 69.0966 119.3 69.1025C119.092 69.1125 118.884 69.1198 118.675 69.126C118.619 69.1276 118.562 69.1304 118.506 69.1318C118.22 69.1389 117.933 69.1425 117.646 69.1426C117.644 69.1426 117.642 69.1436 117.641 69.1436L117.64 69.1426V69.1436C117.349 69.1436 117.059 69.139 116.771 69.1318C116.723 69.1306 116.675 69.1283 116.628 69.127C116.409 69.1206 116.191 69.112 115.974 69.1016C115.855 69.0959 115.737 69.0889 115.619 69.082C115.452 69.0723 115.286 69.0619 115.12 69.0498C115.014 69.0421 114.908 69.0341 114.802 69.0254C114.63 69.0113 114.46 68.9961 114.289 68.9795C114.18 68.9689 114.071 68.9579 113.963 68.9463C113.779 68.9267 113.596 68.9053 113.413 68.8828C113.334 68.8731 113.255 68.8638 113.176 68.8535C112.976 68.8275 112.778 68.7989 112.579 68.7695C112.494 68.757 112.41 68.7446 112.325 68.7314C112.14 68.7026 111.956 68.6714 111.772 68.6396C111.687 68.6248 111.6 68.6112 111.515 68.5957C111.31 68.5588 111.107 68.5191 110.903 68.4785C110.834 68.4648 110.765 68.4526 110.696 68.4385C110.433 68.3843 110.171 68.3268 109.91 68.2666C109.847 68.2519 109.783 68.2357 109.72 68.2207C109.519 68.1731 109.318 68.1244 109.118 68.0732C109.036 68.0521 108.953 68.0295 108.871 68.0078C108.694 67.961 108.517 67.9138 108.341 67.8643C108.239 67.8355 108.137 67.806 108.035 67.7764C107.883 67.7321 107.732 67.6869 107.581 67.6406C107.463 67.6045 107.346 67.5676 107.229 67.5303C107.092 67.4867 106.955 67.4417 106.819 67.3965C106.709 67.3597 106.598 67.323 106.488 67.2852C106.327 67.2299 106.168 67.1728 106.008 67.1152C105.922 67.0841 105.835 67.0542 105.749 67.0225C105.581 66.9602 105.413 66.8949 105.246 66.8301C105.158 66.7957 105.069 66.7626 104.98 66.7275C104.813 66.6611 104.647 66.5924 104.481 66.5234C104.402 66.4903 104.322 66.4585 104.242 66.4248C103.749 66.2152 103.262 65.9934 102.78 65.7617C102.73 65.7377 102.681 65.7137 102.631 65.6895C102.44 65.5964 102.25 65.5018 102.061 65.4053C101.993 65.3709 101.926 65.3356 101.859 65.3008C101.698 65.2168 101.536 65.1323 101.376 65.0459C101.29 64.9996 101.205 64.9523 101.119 64.9053C100.968 64.8222 100.818 64.7386 100.668 64.6533C100.588 64.608 100.509 64.5626 100.43 64.5166C100.275 64.4269 100.122 64.3352 99.9688 64.2432C99.8935 64.1979 99.818 64.1532 99.7432 64.1074C99.5711 64.0021 99.4006 63.8944 99.2305 63.7861C99.1805 63.7543 99.1299 63.7235 99.0801 63.6914C98.8923 63.5705 98.7058 63.4477 98.5205 63.3232C98.4841 63.2988 98.4475 63.2746 98.4111 63.25C97.9701 62.9514 97.5365 62.6425 97.1104 62.3242C97.0487 62.2782 96.9881 62.231 96.9268 62.1846C96.7723 62.0677 96.6182 61.9505 96.4658 61.8311C96.4193 61.7946 96.3735 61.7574 96.3271 61.7207C96.1665 61.5935 96.0069 61.465 95.8486 61.335C95.7836 61.2815 95.7189 61.2277 95.6543 61.1738C95.5308 61.0709 95.4082 60.967 95.2861 60.8623C95.2019 60.79 95.1177 60.7176 95.0342 60.6445C94.8957 60.5234 94.7586 60.4006 94.6221 60.2773C94.5759 60.2356 94.5294 60.1943 94.4834 60.1523C94.3131 59.9969 94.1437 59.8404 93.9766 59.6816C93.9544 59.6605 93.9323 59.6393 93.9102 59.6182C93.1329 58.876 92.3908 58.0975 91.6855 57.2861C91.6418 57.2358 91.5982 57.1854 91.5547 57.1348C91.4225 56.9809 91.2916 56.8261 91.1621 56.6699C91.1212 56.6206 91.0807 56.571 91.04 56.5215C90.9071 56.3593 90.7756 56.1959 90.6455 56.0312C90.6125 55.9894 90.5797 55.9473 90.5469 55.9053C90.4209 55.7442 90.296 55.5823 90.1729 55.4189C90.1272 55.3584 90.0814 55.2981 90.0361 55.2373C88.7518 53.511 87.6259 51.6607 86.6787 49.708C86.66 49.6694 86.6416 49.6305 86.623 49.5918C85.9111 48.1099 85.302 46.57 84.8057 44.9805C84.7985 44.9575 84.7923 44.9342 84.7852 44.9111C84.3676 43.564 84.0287 42.1822 83.7783 40.7705H62.7725ZM117.641 12.3975C105.321 12.3975 95.2979 22.4234 95.2979 34.7461L95.3047 35.3223C95.3224 36.0194 95.3736 36.7086 95.4541 37.3887C95.761 39.9825 96.5142 42.4411 97.6338 44.6865C101.298 52.0345 108.889 57.0947 117.641 57.0947C129.767 57.0945 139.669 47.3796 139.976 35.3223L139.982 34.7461C139.982 22.4235 129.961 12.3976 117.641 12.3975Z" fill="url(#paint1_linear_1351_2810)"/>
<defs>
<linearGradient id="paint0_linear_1351_2810" x1="228.825" y1="229.003" x2="228.825" y2="313.465" gradientUnits="userSpaceOnUse">
<stop stop-color="#0BE6E6"/>
<stop offset="1" stop-color="#0B9292" stop-opacity="0.45"/>
</linearGradient>
<linearGradient id="paint1_linear_1351_2810" x1="145.999" y1="0.347656" x2="145.999" y2="373.793" gradientUnits="userSpaceOnUse">
<stop stop-color="#0BE6E6"/>
<stop offset="1" stop-color="#0B9292" stop-opacity="0.45"/>
</linearGradient>
</defs>
</svg>
