<svg width="292" height="315" viewBox="0 0 292 315" fill="none" xmlns="http://www.w3.org/2000/svg">
<path d="M111.672 234.485C113.206 233.905 114.908 233.958 116.403 234.632C117.899 235.306 119.065 236.546 119.646 238.08L141.609 296.148L132.732 296.219C125.593 296.195 118.48 295.366 111.527 293.749C107.916 299.495 103.501 304.695 98.4171 309.19L91.715 315.004L77.7296 278.01C77.4418 277.25 77.3063 276.441 77.3312 275.629C77.3562 274.817 77.5412 274.018 77.8751 273.277C78.2091 272.537 78.6855 271.869 79.2775 271.312C79.8694 270.756 80.5656 270.322 81.3253 270.035C82.0853 269.748 82.8951 269.613 83.7072 269.639C84.5191 269.664 85.3184 269.849 86.0587 270.184C86.799 270.518 87.4658 270.996 88.0216 271.588C88.5775 272.18 89.0113 272.877 89.298 273.637L96.6964 293.2C98.8437 290.541 100.792 287.727 102.525 284.78C103.416 283.262 104.778 282.074 106.403 281.397C108.029 280.721 109.83 280.591 111.536 281.028C115.479 282.045 119.484 282.807 123.526 283.309L108.076 242.459C107.496 240.925 107.549 239.223 108.223 237.728C108.897 236.232 110.138 235.066 111.672 234.485ZM28.8136 235.104C29.6254 235.078 30.4349 235.214 31.1945 235.501C31.9539 235.788 32.6497 236.222 33.2413 236.778C33.8331 237.335 34.3089 238.003 34.6427 238.743C34.9765 239.483 35.1615 240.282 35.1867 241.094C35.2118 241.905 35.0766 242.714 34.7892 243.474L22.4865 275.996C26.5212 275.495 30.5195 274.733 34.4562 273.717C36.1608 273.278 37.9622 273.405 39.589 274.077C41.2156 274.749 42.58 275.931 43.4777 277.445C45.2177 280.398 47.1726 283.218 49.3253 285.885L62.546 250.926C63.1289 249.393 64.2959 248.154 65.7902 247.48C67.2844 246.805 68.9848 246.749 70.5197 247.325C72.0533 247.906 73.2937 249.072 73.9679 250.567C74.6421 252.063 74.6954 253.765 74.1154 255.299L54.3078 307.687L47.6056 301.875C42.5223 297.377 38.1058 292.178 34.4904 286.434C27.5424 288.087 20.4235 288.916 13.2814 288.902L4.40346 288.833L23.2208 239.096C23.5083 238.336 23.9429 237.641 24.4992 237.049C25.0554 236.457 25.7228 235.981 26.463 235.647C27.2033 235.314 28.0019 235.129 28.8136 235.104ZM215.983 0.36036C219.296 0.357575 222.574 1.04768 225.605 2.38673C228.635 3.72578 231.353 5.68422 233.582 8.13575L285.128 64.6787C285.592 65.1768 285.935 65.7236 286.341 66.251C287.43 67.083 288.202 68.262 288.529 69.5928C290.366 73.0154 291.332 76.8376 291.343 80.7217V230.805C291.333 239.174 288.003 247.199 282.085 253.117C276.167 259.035 268.142 262.364 259.773 262.374H146.31C144.669 262.374 143.097 261.722 141.937 260.562C140.777 259.403 140.125 257.829 140.125 256.188C140.125 254.548 140.777 252.974 141.937 251.814C143.097 250.655 144.67 250.003 146.31 250.003H259.773C264.863 249.997 269.743 247.973 273.342 244.374C276.941 240.775 278.966 235.895 278.972 230.805V80.7217C278.964 79.5483 278.776 78.3828 278.414 77.2666H245.778C237.388 77.2567 229.344 73.9194 223.411 67.9863C217.478 62.053 214.141 54.0079 214.132 45.6172V33.3174C214.132 31.6769 214.784 30.1033 215.943 28.9434C217.103 27.7834 218.677 27.1318 220.318 27.1318C221.958 27.132 223.531 27.7835 224.691 28.9434C225.851 30.1033 226.502 31.6769 226.502 33.3174V45.6172C226.507 50.7282 228.54 55.6289 232.153 59.2432C235.767 62.8574 240.667 64.8909 245.778 64.8965H268.588L224.425 16.4541C223.356 15.2784 222.052 14.3395 220.598 13.6983C219.144 13.0571 217.572 12.7282 215.983 12.7315H98.4601C93.3437 12.7373 88.4386 14.772 84.8204 18.3897C81.2022 22.0074 79.1667 26.9127 79.1603 32.0293V79.0381C79.1602 80.6783 78.5085 82.2513 77.3488 83.4111C76.1888 84.5711 74.6152 85.2236 72.9747 85.2236C71.3343 85.2236 69.7607 84.5711 68.6007 83.4111C67.441 82.2513 66.7893 80.6783 66.7892 79.0381V32.0293C66.799 23.6329 70.1389 15.5825 76.0763 9.64552C82.0136 3.70866 90.0638 0.369618 98.4601 0.36036H215.983ZM72.9757 97.5723C74.6781 97.5689 76.3639 97.9095 77.9308 98.5752C79.4977 99.2409 80.9136 100.218 82.0929 101.445C84.2441 103.689 87.1164 105.104 90.2062 105.441C92.2567 105.655 94.3288 105.392 96.2609 104.673C97.9235 104.053 99.6972 103.785 101.469 103.885C103.24 103.985 104.972 104.45 106.554 105.253C108.136 106.056 109.535 107.178 110.662 108.549C111.789 109.92 112.62 111.509 113.102 113.217C113.806 115.688 115.215 117.901 117.157 119.584C119.1 121.267 121.491 122.346 124.037 122.69C125.798 122.93 127.49 123.531 129.007 124.456C130.524 125.381 131.833 126.611 132.852 128.066C133.87 129.522 134.577 131.174 134.926 132.916C135.275 134.658 135.26 136.454 134.881 138.19C134.326 140.704 134.519 143.325 135.435 145.73C136.351 148.136 137.951 150.22 140.037 151.728C141.472 152.771 142.675 154.1 143.571 155.631C144.468 157.162 145.038 158.861 145.245 160.623C145.453 162.385 145.294 164.17 144.777 165.867C144.261 167.564 143.399 169.137 142.245 170.484C140.232 172.839 139.101 175.821 139.047 178.919C139.022 180.97 139.48 182.998 140.385 184.839C141.156 186.438 141.589 188.18 141.655 189.954C141.722 191.728 141.421 193.498 140.772 195.15C140.122 196.803 139.138 198.303 137.882 199.558C136.625 200.812 135.123 201.794 133.47 202.44C131.065 203.363 128.984 204.97 127.483 207.063C125.981 209.155 125.127 211.642 125.024 214.215C124.948 215.991 124.506 217.732 123.725 219.328C122.944 220.924 121.84 222.341 120.485 223.49C119.129 224.639 117.549 225.495 115.846 226.004C114.143 226.512 112.353 226.663 110.589 226.445C107.535 226.064 104.444 226.773 101.862 228.448C100.116 229.542 98.6587 231.04 97.6144 232.816C96.7156 234.343 95.5098 235.667 94.0734 236.705C92.637 237.743 91.0009 238.471 89.2687 238.845C87.5212 239.218 85.7155 239.225 83.965 238.866C82.2144 238.507 80.5567 237.79 79.0968 236.76C77.2918 235.49 75.1961 234.694 73.0031 234.445C70.8006 234.695 68.6967 235.496 66.8859 236.774C65.435 237.8 63.7873 238.513 62.047 238.87C60.3067 239.227 58.5109 239.22 56.7736 238.849C55.0362 238.477 53.3937 237.75 51.9513 236.713C50.5089 235.676 49.2977 234.35 48.3927 232.821C47.0719 230.62 45.1433 228.848 42.839 227.717C40.5347 226.586 37.9524 226.145 35.4035 226.447C33.6407 226.663 31.8519 226.512 30.1505 226.003C28.4491 225.494 26.8712 224.638 25.5167 223.489C24.1624 222.341 23.0606 220.924 22.2804 219.329C21.5003 217.734 21.0586 215.994 20.9835 214.22C20.8654 211.649 20.0041 209.168 18.504 207.077C17.0039 204.986 14.9287 203.376 12.5314 202.44C10.8855 201.804 9.38898 200.833 8.13588 199.591C6.88268 198.348 5.89961 196.859 5.24916 195.219C4.59194 193.562 4.28433 191.786 4.34584 190.005C4.40741 188.223 4.83747 186.473 5.60756 184.865C6.73538 182.548 7.15975 179.952 6.82826 177.396C6.49677 174.841 5.42397 172.439 3.74232 170.486C2.58928 169.137 1.72792 167.563 1.21303 165.864C0.698185 164.166 0.540477 162.379 0.750136 160.616C0.959859 158.854 1.53266 157.153 2.43178 155.622C3.33087 154.092 4.53735 152.764 5.97475 151.723C8.05793 150.214 9.65424 148.129 10.5685 145.725C11.4828 143.32 11.6746 140.701 11.1203 138.189C10.7418 136.455 10.7268 134.66 11.0753 132.919C11.4239 131.178 12.1286 129.528 13.1456 128.072C14.1627 126.617 15.4704 125.388 16.9855 124.462C18.5006 123.536 20.1912 122.933 21.9503 122.692C24.5046 122.352 26.9031 121.271 28.8497 119.582C30.7964 117.893 32.2063 115.671 32.9044 113.19C33.3905 111.483 34.2258 109.895 35.3566 108.526C36.4874 107.158 37.8895 106.038 39.4747 105.239C41.06 104.44 42.7938 103.978 44.5665 103.883C46.3392 103.788 48.1128 104.061 49.7746 104.686C51.709 105.401 53.7835 105.658 55.8341 105.437C58.8941 105.098 61.7394 103.699 63.8751 101.481C65.0496 100.249 66.4614 99.2676 68.0255 98.5957C69.5896 97.9238 71.2734 97.5757 72.9757 97.5723ZM73.1867 110.034C68.8406 114.3 63.2049 117.008 57.1583 117.734C56.4097 117.817 55.6563 117.864 54.9035 117.88C52.5023 117.932 50.1059 117.642 47.7863 117.02C47.2029 116.863 46.6255 116.686 46.0548 116.49C45.7706 116.392 45.0048 115.966 44.8361 116.445C44.7346 116.735 44.6752 117.044 44.5831 117.337C44.3978 117.927 44.1821 118.507 43.9523 119.081C42.4466 122.84 40.0746 126.191 37.0294 128.86C36.2712 129.526 35.473 130.145 34.6398 130.714C31.3355 132.967 27.5513 134.419 23.588 134.955C23.2347 135.066 23.1409 135.273 23.2013 135.537C24.4801 141.373 23.6799 147.472 20.9396 152.781C19.113 156.334 16.4723 159.404 13.2326 161.74C13.1792 161.775 13.1333 161.819 13.0978 161.872C13.0623 161.925 13.0372 161.984 13.0255 162.047C13.0138 162.109 13.0155 162.173 13.0294 162.235C13.0434 162.297 13.0702 162.356 13.1076 162.407C17.0165 166.952 19.2094 172.723 19.3068 178.717C19.3153 179.404 19.2971 180.091 19.2521 180.777C19.1773 181.932 19.0244 183.081 18.7941 184.215C18.5652 185.341 18.2593 186.449 17.879 187.533C17.6877 188.077 17.4792 188.615 17.2521 189.145C17.1378 189.411 17.0189 189.675 16.8956 189.938C16.8429 190.058 16.7819 190.176 16.714 190.289C16.6765 190.336 16.6503 190.391 16.6369 190.449C16.6235 190.508 16.6234 190.568 16.6369 190.627C16.709 190.862 17.0388 190.926 17.2384 191.01C17.4957 191.118 17.7532 191.226 18.0099 191.336C18.5176 191.554 19.0224 191.781 19.5138 192.035C23.0855 193.881 26.1715 196.544 28.5216 199.806C29.1064 200.62 29.6438 201.467 30.131 202.344C32.0901 205.833 33.1919 209.738 33.3449 213.736C33.3794 214.072 33.5859 214.182 33.8859 214.169C39.8199 213.445 45.8207 214.819 50.8478 218.054C54.2146 220.194 57.025 223.103 59.048 226.542C59.0816 226.603 59.1288 226.655 59.1857 226.695C59.2428 226.735 59.3091 226.762 59.3781 226.773C59.447 226.784 59.5174 226.779 59.5841 226.759C59.6508 226.738 59.7119 226.703 59.7628 226.655C63.5288 224.003 67.9416 222.417 72.5343 222.064L73.0031 222.03L73.4718 222.064C78.0627 222.42 82.4735 224.006 86.2394 226.655L86.754 226.914L86.9347 226.573C88.9597 223.109 91.7873 220.182 95.1788 218.037C99.8668 215.023 105.412 213.623 110.969 214.054C111.35 214.083 112.603 214.154 112.616 214.154C112.616 214.154 112.73 212.531 112.795 211.93C113.166 208.567 114.203 205.312 115.847 202.355C118.768 197.115 123.43 193.061 129.025 190.896C129.13 190.832 129.211 190.734 129.254 190.619C129.297 190.504 129.3 190.378 129.262 190.261C127.507 186.677 126.62 182.73 126.676 178.74C126.778 172.75 128.963 166.982 132.857 162.429L132.77 161.74C128.733 158.815 125.64 154.773 123.869 150.113C122.099 145.453 121.729 140.377 122.805 135.51C122.945 134.885 122.077 134.91 121.687 134.847C121.405 134.801 121.123 134.751 120.843 134.695C116.215 133.776 111.932 131.595 108.464 128.396C104.996 125.196 102.479 121.101 101.191 116.563C101.182 116.432 101.037 116.083 100.562 116.271C95.8881 118.016 90.8058 118.356 85.9415 117.248C81.0771 116.14 76.643 113.632 73.1867 110.034ZM240.106 182.887C241.746 182.887 243.319 183.539 244.479 184.698C245.639 185.858 246.29 187.432 246.29 189.072C246.29 190.713 245.639 192.286 244.479 193.446C243.319 194.606 241.746 195.258 240.106 195.258H164.194C162.554 195.258 160.98 194.606 159.82 193.446C158.66 192.286 158.009 190.713 158.009 189.072C158.009 187.432 158.66 185.858 159.82 184.698C160.98 183.538 162.554 182.887 164.194 182.887H240.106ZM240.106 132.018C241.746 132.018 243.32 132.669 244.48 133.829C245.639 134.989 246.291 136.562 246.291 138.202C246.291 139.842 245.639 141.416 244.48 142.576C243.32 143.736 241.746 144.388 240.106 144.388H157.612C155.972 144.388 154.399 143.736 153.239 142.576C152.079 141.416 151.428 139.843 151.428 138.202C151.428 136.562 152.08 134.989 153.239 133.829C154.399 132.669 155.972 132.018 157.612 132.018H240.106Z" fill="#05A6A6"/>
</svg>
