<svg width="42" height="42" viewBox="0 0 42 42" fill="none" xmlns="http://www.w3.org/2000/svg">
<path d="M20.9992 27.125H13.1242C10.6742 27.125 9.44922 27.125 8.39922 27.475C6.12422 28.175 4.37422 29.925 3.67422 32.2C3.32422 33.25 3.32422 34.475 3.32422 36.925M25.3742 13.125C25.3742 17.5 21.8742 21 17.4992 21C13.1242 21 9.62422 17.5 9.62422 13.125C9.62422 8.75 13.1242 5.25 17.4992 5.25C21.8742 5.25 25.3742 8.75 25.3742 13.125Z" stroke="url(#paint0_linear_593_10220)" stroke-width="2" stroke-linecap="round" stroke-linejoin="round"/>
<path d="M38.5 38.1504L35.875 35.5254" stroke="url(#paint1_linear_593_10220)" stroke-width="2" stroke-linecap="round" stroke-linejoin="round"/>
<path d="M31.5 37.2754C34.8827 37.2754 37.625 34.5331 37.625 31.1504C37.625 27.7676 34.8827 25.0254 31.5 25.0254C28.1173 25.0254 25.375 27.7676 25.375 31.1504C25.375 34.5331 28.1173 37.2754 31.5 37.2754Z" stroke="url(#paint2_linear_593_10220)" stroke-width="2" stroke-linecap="round" stroke-linejoin="round"/>
<defs>
<linearGradient id="paint0_linear_593_10220" x1="14.3492" y1="5.25" x2="14.3492" y2="36.925" gradientUnits="userSpaceOnUse">
<stop stop-color="#05A6A6"/>
<stop offset="1" stop-color="#0D5B6A"/>
</linearGradient>
<linearGradient id="paint1_linear_593_10220" x1="37.1875" y1="35.5254" x2="37.1875" y2="38.1504" gradientUnits="userSpaceOnUse">
<stop stop-color="#05A6A6"/>
<stop offset="1" stop-color="#0D5B6A"/>
</linearGradient>
<linearGradient id="paint2_linear_593_10220" x1="31.5" y1="25.0254" x2="31.5" y2="37.2754" gradientUnits="userSpaceOnUse">
<stop stop-color="#05A6A6"/>
<stop offset="1" stop-color="#0D5B6A"/>
</linearGradient>
</defs>
</svg>
