<svg width="155" height="35" viewBox="0 0 155 35" fill="none" xmlns="http://www.w3.org/2000/svg">
<g clip-path="url(#clip0_1373_7879)">
<path d="M83.9375 34.3038H92.9042L87.0863 26.1274L83.9375 34.3038Z" fill="#F5F7FA"/>
<path d="M29.8867 0.608398H44.1026C45.7195 0.608398 47.3249 0.775343 48.9263 1.10923C50.5278 1.44312 51.9552 2.02937 53.2163 2.87186C54.4734 3.71435 55.4908 4.84025 56.2683 6.24958C57.0458 7.66278 57.4327 9.42929 57.4327 11.5569C57.4327 13.6844 56.9375 15.4354 55.9434 17.0078C54.9531 18.5802 53.5257 19.7915 51.6689 20.6495L60.0438 34.3079H47.3017L40.9809 22.2685H40.656V34.3079H29.8906V0.608398H29.8867ZM40.5593 14.8375H42.7332C43.1046 14.8375 43.5108 14.8065 43.9595 14.7405C44.4082 14.6783 44.8221 14.5425 45.2089 14.3367C45.5958 14.1309 45.9168 13.8436 46.1799 13.4787C46.4429 13.1137 46.5744 12.6284 46.5744 12.0266C46.5744 11.4249 46.4661 10.9473 46.2495 10.5979C46.0329 10.2485 45.7582 9.98836 45.4178 9.81365C45.0774 9.63894 44.7099 9.52635 44.3076 9.47976C43.9053 9.43317 43.5378 9.40988 43.1974 9.40988H40.5593V14.8375Z" fill="#F5F7FA"/>
<path d="M123.482 15.2685L123.996 34.3079H113.648V0.608398H128.162L134.135 18.7433H134.367L139.547 0.608398H154.524V34.3041H143.713L144.038 15.3617L143.759 15.3151L137.605 34.3041H129.775L123.718 15.2646H123.485L123.482 15.2685Z" fill="#F5F7FA"/>
<path d="M85.5618 23.9768L79.9025 16.0294L92.3042 0.608398H79.2526L70.4407 13.0322H70.3479V0.608398H59.6289V34.3041H70.3943V20.8825H70.4871L79.2991 34.3041H81.5852L85.5618 23.9768Z" fill="#F5F7FA"/>
<path d="M108.707 0.608398H96.9128L88.0352 23.6584L95.6131 34.3079H95.6556L97.2881 29.3578H107.775L109.5 34.3079H111.458V7.80643L108.711 0.608398H108.707ZM99.9456 20.6922L102.649 12.3644L105.307 20.6922H99.9456Z" fill="#F5F7FA"/>
<path d="M24.9443 0.608398H13.15L4.27615 23.6584L0.175781 34.3041H11.8928L13.5252 29.3539H24.0121L25.7373 34.3041H27.6947V7.80643L24.9443 0.608398ZM16.1827 20.6922L18.8866 12.3644L21.5441 20.6922H16.1827Z" fill="#F5F7FA"/>
</g>
<defs>
<clipPath id="clip0_1373_7879">
<rect width="154.348" height="33.6957" fill="white" transform="translate(0.175781 0.608398)"/>
</clipPath>
</defs>
</svg>
