<svg width="146" height="32" viewBox="0 0 146 32" fill="none" xmlns="http://www.w3.org/2000/svg">
<path d="M79.3633 31.075H87.8092L82.3279 23.5352L79.3633 31.075Z" fill="#ACC59D"/>
<path d="M0.5 31.075H8.94587L3.46461 23.5352L0.5 31.075Z" fill="#ACC59D"/>
<path d="M28.4727 0H41.8571C43.3795 0 44.8909 0.152983 46.3987 0.462589C47.9065 0.768553 49.2504 1.31127 50.4377 2.08711C51.6214 2.86295 52.5793 3.90104 53.3113 5.20503C54.0434 6.50901 54.4076 8.13718 54.4076 10.1004C54.4076 12.0637 53.9414 13.6773 53.0054 15.127C52.073 16.5767 50.7291 17.6949 48.9809 18.4853L56.8659 31.0808H44.8691L38.918 19.9751H38.6121V31.0808H28.4763V0.00728641L28.4727 0ZM38.5247 13.1237H40.5715C40.9211 13.1237 41.3035 13.0945 41.726 13.0362C42.1485 12.978 42.5382 12.8541 42.9024 12.6647C43.2666 12.4753 43.5689 12.2131 43.8165 11.8743C44.0642 11.5392 44.188 11.0912 44.188 10.5339C44.188 9.9766 44.086 9.53951 43.8821 9.21898C43.6781 8.89845 43.4195 8.6544 43.099 8.49413C42.7785 8.33387 42.4326 8.23188 42.0538 8.18817C41.675 8.14446 41.329 8.12261 41.0085 8.12261H38.5247V13.1273V13.1237Z" fill="#F4F6F9"/>
<path d="M116.594 13.517L117.078 31.0735H107.336V0H121.001L126.624 16.7224H126.843L131.719 0H145.821V31.0735H135.642L135.948 13.6045L135.686 13.5607L129.891 31.0735H122.52L116.816 13.517H116.598H116.594Z" fill="#F4F6F9"/>
<path d="M80.8888 21.5522L75.5642 14.22L87.2369 0H74.9487L66.6558 11.4554H66.5684V0H56.4727V31.0735H66.6121V18.6966H66.6995L74.9924 31.0735H77.1448L80.8888 21.5522Z" fill="#F4F6F9"/>
<path d="M82.8867 24.3008L87.8035 31.072H87.8071L82.8867 24.3008Z" fill="#F4F6F9"/>
<path d="M102.682 0H91.5772L83.2188 21.2535L90.3535 31.0735H90.3936L91.9305 26.5096H101.804L103.428 31.0735H105.271V6.6365L102.685 0H102.682ZM94.4326 18.5217L96.9783 10.8399L99.4804 18.5217H94.4326Z" fill="#F4F6F9"/>
<path d="M4.02344 24.3008L8.94018 31.072H8.94382L4.02344 24.3008Z" fill="#F4F6F9"/>
<path d="M23.8185 0H12.7139L4.35547 21.2535L11.4902 31.0735H11.5303L13.0672 26.5096H22.9408L24.5651 31.0735H26.408V6.6365L23.8221 0H23.8185ZM15.5693 18.5217L18.1151 10.8399L20.6171 18.5217H15.5693Z" fill="#F4F6F9"/>
</svg>
