<svg width="64" height="52" viewBox="0 0 64 52" fill="none" xmlns="http://www.w3.org/2000/svg">
<path d="M50 38L49.97 38M50 14L49.97 14M50 26L14 26M50 26C56.6274 26 62 31.3726 62 38C62 44.6274 56.6274 50 50 50L14 50C7.37257 50 1.99999 44.6274 1.99999 38C1.99999 31.3726 7.37258 26 14 26M50 26C56.6274 26 62 20.6274 62 14C62 7.37259 56.6274 2.00001 50 2.00001L14 2C7.37258 2 1.99999 7.37258 1.99999 14C1.99999 20.6274 7.37258 26 14 26" stroke="#F7C948" stroke-width="3" stroke-linecap="round" stroke-linejoin="round"/>
</svg>
