<svg width="21" height="28" viewBox="0 0 21 28" fill="none" xmlns="http://www.w3.org/2000/svg">
<g clip-path="url(#clip0_749_1341)">
<path fill-rule="evenodd" clip-rule="evenodd" d="M4.42721 0.0506319C4.60623 -0.0337054 4.81967 -0.00671747 4.97459 0.118102L5.91098 0.867018L6.84393 0.118102C7.03328 -0.0337054 7.30869 -0.0337054 7.49803 0.118102L8.43443 0.867018L9.37082 0.118102C9.56016 -0.0337054 9.83213 -0.0337054 10.0249 0.118102L10.9579 0.867018L11.8943 0.118102C12.0492 -0.00671747 12.2626 -0.0337054 12.4416 0.0506319C12.6241 0.134969 12.7377 0.313764 12.7377 0.509427V3.03955H13.2541C13.9185 3.03955 14.459 3.56919 14.459 4.22027V5.40774C15.8051 5.49545 16.8689 6.59184 16.8689 7.93111V12.148H19.7951C20.4595 12.148 21 12.6776 21 13.3287V22.7745C21 23.4256 20.4595 23.9552 19.7951 23.9552H16.8689V25.4733C16.8689 26.8699 15.7121 28.0034 14.2869 28.0034H2.58197C1.15672 28.0034 0 26.8699 0 25.4733V7.92774C0 6.58846 1.06377 5.4887 2.40984 5.40437V4.2169C2.40984 3.56581 2.95033 3.03617 3.61475 3.03617H4.13115V0.506054C4.13115 0.310391 4.24475 0.131596 4.42721 0.0472584V0.0506319ZM4.13115 4.04822H3.61475C3.51836 4.04822 3.44262 4.12244 3.44262 4.2169V5.39762H4.13115V4.04822ZM5.16393 5.39762H11.7049V1.57208L11.2849 1.90943C11.0956 2.06123 10.8236 2.06123 10.6308 1.90943L9.69787 1.16051L8.76148 1.90943C8.57213 2.06123 8.29672 2.06123 8.10738 1.90943L7.17098 1.16051L6.23803 1.90943C6.04869 2.06123 5.77328 2.06123 5.58393 1.90943L5.16393 1.57208V5.39762ZM12.7377 4.04822V5.39762H13.4262V4.2169C13.4262 4.12244 13.3505 4.04822 13.2541 4.04822H12.7377ZM2.58197 6.40967C1.7282 6.40967 1.03279 7.09111 1.03279 7.92774V25.4699C1.03279 26.3065 1.7282 26.988 2.58197 26.988H14.2869C15.1407 26.988 15.8361 26.3065 15.8361 25.4699V7.92774C15.8361 7.09111 15.1407 6.40967 14.2869 6.40967H2.58197ZM16.8689 13.1567V22.9398H19.7951C19.8915 22.9398 19.9672 22.8656 19.9672 22.7711V13.3253C19.9672 13.2309 19.8915 13.1567 19.7951 13.1567H16.8689ZM2.06557 8.60244C2.06557 7.95135 2.60607 7.42172 3.27049 7.42172H13.5984C14.2628 7.42172 14.8033 7.95135 14.8033 8.60244V15.6868C14.8033 16.3379 14.2628 16.8675 13.5984 16.8675H3.27049C2.60607 16.8675 2.06557 16.3379 2.06557 15.6868V8.60244ZM3.27049 8.43376C3.1741 8.43376 3.09836 8.50798 3.09836 8.60244V15.6868C3.09836 15.7812 3.1741 15.8555 3.27049 15.8555H13.5984C13.6948 15.8555 13.7705 15.7812 13.7705 15.6868V8.60244C13.7705 8.50798 13.6948 8.43376 13.5984 8.43376H3.27049ZM11.2092 10.2689C11.4123 10.468 11.4089 10.7885 11.2092 10.9841L7.99377 14.1316C7.79066 14.3306 7.46361 14.3306 7.26393 14.1316L5.65623 12.5562C5.45656 12.3571 5.45311 12.0367 5.65623 11.841C5.85934 11.642 6.18639 11.642 6.38607 11.841L7.62885 13.0588L10.4759 10.2689C10.679 10.0699 11.0061 10.0699 11.2057 10.2689H11.2092ZM2.40984 20.0723C2.40984 19.2357 3.10525 18.5542 3.95902 18.5542H4.30328C5.15705 18.5542 5.85246 19.2357 5.85246 20.0723C5.85246 20.9089 5.15705 21.5904 4.30328 21.5904H3.95902C3.10525 21.5904 2.40984 20.9089 2.40984 20.0723ZM3.95902 19.5663C3.67328 19.5663 3.44262 19.7923 3.44262 20.0723C3.44262 20.3523 3.67328 20.5783 3.95902 20.5783H4.30328C4.58902 20.5783 4.81967 20.3523 4.81967 20.0723C4.81967 19.7923 4.58902 19.5663 4.30328 19.5663H3.95902ZM6.71311 20.0723C6.71311 19.2357 7.40852 18.5542 8.26229 18.5542H8.60656C9.46033 18.5542 10.1557 19.2357 10.1557 20.0723C10.1557 20.9089 9.46033 21.5904 8.60656 21.5904H8.26229C7.40852 21.5904 6.71311 20.9089 6.71311 20.0723ZM8.26229 19.5663C7.97656 19.5663 7.7459 19.7923 7.7459 20.0723C7.7459 20.3523 7.97656 20.5783 8.26229 20.5783H8.60656C8.89229 20.5783 9.12295 20.3523 9.12295 20.0723C9.12295 19.7923 8.89229 19.5663 8.60656 19.5663H8.26229ZM11.0164 20.0723C11.0164 19.2357 11.7118 18.5542 12.5656 18.5542H12.9098C13.7636 18.5542 14.459 19.2357 14.459 20.0723C14.459 20.9089 13.7636 21.5904 12.9098 21.5904H12.5656C11.7118 21.5904 11.0164 20.9089 11.0164 20.0723ZM12.5656 19.5663C12.2798 19.5663 12.0492 19.7923 12.0492 20.0723C12.0492 20.3523 12.2798 20.5783 12.5656 20.5783H12.9098C13.1956 20.5783 13.4262 20.3523 13.4262 20.0723C13.4262 19.7923 13.1956 19.5663 12.9098 19.5663H12.5656ZM2.40984 23.7832C2.40984 22.9465 3.10525 22.2651 3.95902 22.2651H4.30328C5.15705 22.2651 5.85246 22.9465 5.85246 23.7832C5.85246 24.6198 5.15705 25.3012 4.30328 25.3012H3.95902C3.10525 25.3012 2.40984 24.6198 2.40984 23.7832ZM3.95902 23.2771C3.67328 23.2771 3.44262 23.5032 3.44262 23.7832C3.44262 24.0632 3.67328 24.2892 3.95902 24.2892H4.30328C4.58902 24.2892 4.81967 24.0632 4.81967 23.7832C4.81967 23.5032 4.58902 23.2771 4.30328 23.2771H3.95902ZM6.71311 23.7832C6.71311 22.9465 7.40852 22.2651 8.26229 22.2651H8.60656C9.46033 22.2651 10.1557 22.9465 10.1557 23.7832C10.1557 24.6198 9.46033 25.3012 8.60656 25.3012H8.26229C7.40852 25.3012 6.71311 24.6198 6.71311 23.7832ZM8.26229 23.2771C7.97656 23.2771 7.7459 23.5032 7.7459 23.7832C7.7459 24.0632 7.97656 24.2892 8.26229 24.2892H8.60656C8.89229 24.2892 9.12295 24.0632 9.12295 23.7832C9.12295 23.5032 8.89229 23.2771 8.60656 23.2771H8.26229ZM11.0164 23.7832C11.0164 22.9465 11.7118 22.2651 12.5656 22.2651H12.9098C13.7636 22.2651 14.459 22.9465 14.459 23.7832C14.459 24.6198 13.7636 25.3012 12.9098 25.3012H12.5656C11.7118 25.3012 11.0164 24.6198 11.0164 23.7832ZM12.5656 23.2771C12.2798 23.2771 12.0492 23.5032 12.0492 23.7832C12.0492 24.0632 12.2798 24.2892 12.5656 24.2892H12.9098C13.1956 24.2892 13.4262 24.0632 13.4262 23.7832C13.4262 23.5032 13.1956 23.2771 12.9098 23.2771H12.5656Z" fill="url(#paint0_linear_749_1341)"/>
</g>
<defs>
<linearGradient id="paint0_linear_749_1341" x1="10.5" y1="0.00195312" x2="10.5" y2="28.0034" gradientUnits="userSpaceOnUse">
<stop stop-color="#05A6A6"/>
<stop offset="1" stop-color="#0D5B6A"/>
</linearGradient>
<clipPath id="clip0_749_1341">
<rect width="21" height="28" fill="white"/>
</clipPath>
</defs>
</svg>
