<svg width="327" height="327" viewBox="0 0 327 327" fill="none" xmlns="http://www.w3.org/2000/svg">
<path fill-rule="evenodd" clip-rule="evenodd" d="M302.672 79.2603C317.612 103.847 326.228 132.714 326.228 163.565C326.228 253.339 253.326 326.228 163.555 326.228C127.54 326.228 94.2517 314.493 67.2862 294.65C64.7043 292.75 64.1531 289.124 66.0533 286.542C67.9534 283.974 71.5797 283.409 74.1615 285.309C99.1968 303.73 130.12 314.624 163.554 314.624C246.927 314.624 314.623 246.941 314.623 163.565C314.623 135.41 306.906 109.052 293.475 86.4827L291.125 100.886C290.603 104.034 287.629 106.181 284.453 105.673C281.291 105.151 279.144 102.163 279.666 99.0153L284.409 69.9902C284.641 68.5251 285.453 67.1616 286.701 66.2478C286.744 66.2333 286.773 66.2043 286.802 66.1753C288.122 65.2615 289.718 64.9424 291.226 65.2325L321.295 71.0346C324.457 71.6438 326.502 74.6899 325.893 77.8374C325.298 80.9851 322.252 83.0447 319.105 82.4357L302.672 79.2603ZM35.2343 262.028L4.64362 250.424C1.64114 249.292 0.132785 245.927 1.26398 242.939C2.40985 239.951 5.76033 238.443 8.76285 239.574C8.76285 239.574 16.1169 242.359 22.6585 244.84C8.82078 220.92 0.886719 193.157 0.886719 163.565C0.886719 73.7762 73.7886 0.886719 163.56 0.886719C199.575 0.886719 232.863 12.6068 259.829 32.4647C262.411 34.3504 262.962 37.9913 261.062 40.5588C259.162 43.1552 255.535 43.6919 252.954 41.8062C227.918 23.3701 196.995 12.4911 163.561 12.4911C80.1881 12.4911 12.4922 80.1745 12.4922 163.565C12.4922 191.822 20.2814 218.293 33.8143 240.922L35.99 226.707C36.4687 223.545 39.4276 221.369 42.5895 221.862C45.7661 222.341 47.9418 225.3 47.4487 228.462L43.0247 257.473C42.8072 258.967 41.9949 260.345 40.7329 261.273C40.5734 261.389 40.3993 261.505 40.2108 261.606C38.6878 262.506 36.8442 262.637 35.2343 262.028ZM172.085 43.768C181.035 44.4208 188.012 51.7748 188.186 60.7392C188.273 63.5242 188.331 66.4834 188.36 69.1666C188.403 71.6761 190.057 73.8808 192.421 74.606C195.279 75.4618 198.078 76.4772 200.819 77.6231H200.848C203.14 78.6094 205.809 77.9857 207.448 76.1C207.462 76.0855 207.477 76.0565 207.506 76.0275C209.261 74.0693 211.176 71.8644 212.945 69.8046C218.848 62.9873 228.987 61.8124 236.298 67.0921C236.327 67.1211 236.356 67.1357 236.385 67.1502C240.62 70.3268 244.682 73.7354 248.511 77.3909L248.54 77.4199C254.98 83.6717 255.589 93.7965 249.961 100.774C248.25 102.964 246.379 105.27 244.682 107.344C243.101 109.303 242.956 112.044 244.304 114.133C245.944 116.599 247.423 119.181 248.786 121.835L248.801 121.849C249.932 124.083 252.384 125.316 254.849 124.925C254.878 124.925 254.907 124.91 254.936 124.91C257.547 124.533 260.419 124.069 263.103 123.634C272.008 122.212 280.537 127.826 282.742 136.572C282.742 136.601 282.757 136.645 282.771 136.674C283.975 141.823 284.889 147.045 285.469 152.311L285.484 152.354C286.383 161.275 280.349 169.427 271.559 171.153C268.847 171.733 265.931 172.284 263.291 172.792C260.825 173.271 258.94 175.287 258.635 177.738C258.301 180.697 257.779 183.627 257.127 186.529V186.558C256.561 188.994 257.634 191.504 259.781 192.795C259.795 192.809 259.824 192.824 259.853 192.838C262.087 194.231 264.596 195.725 266.917 197.117C274.663 201.744 277.593 211.536 273.662 219.644C273.633 219.688 273.633 219.702 273.618 219.731C271.225 224.46 268.571 229.043 265.626 233.453L265.612 233.482C260.564 240.909 250.701 243.273 242.854 238.951C240.402 237.645 237.821 236.195 235.471 234.889C233.281 233.671 230.539 234.004 228.726 235.687C226.565 237.732 224.288 239.647 221.923 241.445L221.894 241.474C219.907 242.969 219.109 245.594 219.922 247.944C219.936 247.987 219.951 248.016 219.951 248.031C220.778 250.54 221.735 253.296 222.62 255.864C225.579 264.379 221.532 273.763 213.293 277.448C213.279 277.462 213.235 277.477 213.206 277.491C208.347 279.566 203.358 281.379 198.281 282.858L198.237 282.873C189.607 285.324 180.527 280.798 177.292 272.443C176.263 269.861 175.204 267.091 174.246 264.581C173.347 262.232 171.041 260.737 168.575 260.854C165.602 261.028 162.628 261.028 159.655 260.897H159.626C157.131 260.767 154.839 262.261 153.955 264.596C153.94 264.61 153.926 264.639 153.911 264.683C152.939 267.12 151.91 269.847 150.938 272.385C147.718 280.813 138.594 285.396 129.906 282.93C129.877 282.916 129.848 282.901 129.819 282.901C124.742 281.364 119.767 279.551 114.922 277.418L114.879 277.404C106.698 273.734 102.651 264.436 105.552 255.951C106.408 253.311 107.394 250.496 108.265 247.973C109.091 245.594 108.279 242.954 106.306 241.474C103.928 239.69 101.65 237.79 99.46 235.759L99.431 235.745C97.6033 234.048 94.8908 233.714 92.7007 234.932C92.6862 234.932 92.6572 234.961 92.6427 234.976C90.3074 236.223 87.7546 237.63 85.3904 238.95C77.4998 243.345 67.5784 240.981 62.5162 233.511C62.4871 233.482 62.4726 233.467 62.4581 233.438C59.5572 229 56.9028 224.416 54.5675 219.659L54.553 219.63C50.6367 211.55 53.5232 201.831 61.1964 197.19C63.5461 195.725 66.0989 194.202 68.3907 192.824C70.5519 191.533 71.6398 188.994 71.0886 186.586C70.3924 183.7 69.8702 180.77 69.4931 177.81V177.796C69.1885 175.316 67.3174 173.299 64.866 172.835C64.837 172.835 64.808 172.821 64.779 172.821C62.1972 172.284 59.3399 171.733 56.6708 171.225C47.8084 169.528 41.7165 161.332 42.6448 152.339V152.238C43.283 146.987 44.1968 141.765 45.4587 136.63V136.587C47.6635 127.883 56.1198 122.284 64.9821 123.677C67.7236 124.069 70.6534 124.533 73.2935 124.968C75.7883 125.36 78.2395 124.112 79.3709 121.907C80.7054 119.238 82.1848 116.671 83.7949 114.162L83.8094 114.147C85.1583 112.044 85.0278 109.317 83.4467 107.373L83.3887 107.315C81.7497 105.226 79.9221 102.963 78.2106 100.86C72.5101 93.8687 73.1194 83.6714 79.5886 77.3907C79.6031 77.3616 79.6321 77.3471 79.6611 77.3181C83.5195 73.6918 87.5807 70.2977 91.8449 67.1643L91.8885 67.1353C99.1553 61.8843 109.236 63.0302 115.125 69.7753C116.982 71.8495 118.925 74.098 120.68 76.1285C122.334 78.0287 125.018 78.6524 127.294 77.6805C130.021 76.5056 132.821 75.4757 135.649 74.5909H135.678C138.072 73.8511 139.71 71.6753 139.754 69.1805V69.079C139.827 66.439 139.885 63.5235 139.928 60.8108C140.059 51.7885 147.065 44.3763 156.072 43.7235C156.101 43.7235 156.145 43.7235 156.174 43.709C161.454 43.4189 166.763 43.4189 172.042 43.767L172.085 43.768ZM171.259 55.3433C166.472 55.0387 161.671 55.0387 156.826 55.2998C153.867 55.5609 151.576 58.0123 151.532 61.0005C151.489 63.7565 151.431 66.7302 151.358 69.4135C151.213 76.9126 146.267 83.4838 139.116 85.6739C136.665 86.4427 134.242 87.3275 131.893 88.3284L131.849 88.3429C124.901 91.2875 116.851 89.4163 111.919 83.7302C110.193 81.7429 108.279 79.5382 106.465 77.5073C106.451 77.4928 106.422 77.4638 106.407 77.4348C104.449 75.1865 101.113 74.7948 98.6909 76.5355C94.818 79.3785 91.1338 82.4683 87.6092 85.7754C85.5059 87.8787 85.3319 91.2296 87.203 93.5504C88.9436 95.6827 90.8292 97.989 92.4828 100.107C97.1968 105.938 97.632 114.148 93.5562 120.429C92.1782 122.59 90.8873 124.809 89.7416 127.116L89.7126 127.145C86.2894 133.861 78.9212 137.603 71.4799 136.428C68.869 136.008 65.9969 135.543 63.2993 135.152H63.2122C60.2677 134.673 57.4537 136.53 56.7141 139.416C55.5827 144.072 54.7559 148.801 54.1757 153.617C53.9146 156.576 55.9308 159.259 58.8607 159.825C61.5731 160.347 64.4885 160.913 67.1141 161.45C74.4827 162.9 80.0959 168.92 81.0098 176.332C81.3289 178.885 81.7785 181.409 82.3732 183.904L82.3877 183.948C84.0703 191.302 80.8357 198.902 74.3664 202.775C72.1036 204.139 69.609 205.633 67.3027 207.069C67.2737 207.083 67.2447 207.098 67.2157 207.112C64.6629 208.635 63.691 211.87 64.982 214.554C67.1142 218.862 69.5221 223.024 72.1619 227.072C73.8589 229.523 77.1369 230.263 79.748 228.812C82.1558 227.478 84.7523 226.027 87.1165 224.751C93.6871 221.139 101.854 222.14 107.322 227.231C109.207 228.972 111.18 230.625 113.24 232.163L113.269 232.177C119.288 236.732 121.696 244.623 119.23 251.759C118.375 254.254 117.417 257.01 116.576 259.578C116.562 259.621 116.547 259.636 116.547 259.679C115.575 262.493 116.895 265.583 119.622 266.816C124.017 268.745 128.528 270.384 133.155 271.791C136.027 272.56 139.029 271.037 140.088 268.252C141.075 265.67 142.133 262.885 143.134 260.39C145.832 253.398 152.722 248.916 160.192 249.293C162.76 249.424 165.327 249.424 167.894 249.279H167.938C175.465 248.873 182.399 253.384 185.082 260.433C186.025 262.899 187.07 265.626 188.07 268.15C188.085 268.165 188.099 268.194 188.114 268.237C189.173 271.022 192.19 272.531 195.062 271.718C199.66 270.369 204.171 268.73 208.624 266.83C211.321 265.568 212.641 262.478 211.67 259.664C210.756 257.054 209.784 254.24 208.943 251.687C206.52 244.593 208.914 236.732 214.89 232.221C216.935 230.668 218.907 229.015 220.764 227.245L220.793 227.231C226.319 222.096 234.529 221.081 241.114 224.75C243.421 226.041 245.959 227.448 248.352 228.725C248.381 228.754 248.41 228.768 248.439 228.783C251.036 230.233 254.328 229.45 255.997 226.984C258.665 222.995 261.059 218.832 263.249 214.524C264.511 211.826 263.524 208.606 260.972 207.068C258.607 205.647 256.054 204.138 253.763 202.717C247.351 198.844 244.131 191.272 245.8 183.976C246.365 181.481 246.815 178.957 247.105 176.404L247.12 176.36C248.048 168.876 253.69 162.827 261.102 161.406C263.669 160.912 266.541 160.347 269.196 159.795C269.225 159.781 269.254 159.781 269.297 159.781C272.213 159.215 274.229 156.517 273.939 153.544C273.402 148.786 272.575 144.043 271.473 139.329C270.704 136.456 267.89 134.629 264.946 135.108C262.219 135.543 259.275 136.007 256.62 136.384C249.208 137.559 241.883 133.817 238.489 127.159C237.3 124.867 236.023 122.648 234.616 120.5L234.587 120.471C230.482 114.147 230.932 105.879 235.675 100.034C237.343 97.9883 239.171 95.7253 240.853 93.5931C240.882 93.5641 240.897 93.535 240.926 93.506C242.797 91.1997 242.608 87.8346 240.462 85.7603C236.995 82.4386 233.311 79.3633 229.438 76.448C227.001 74.7364 223.665 75.157 221.721 77.4053C219.908 79.4941 217.965 81.7425 216.18 83.744C211.249 89.401 203.228 91.2432 196.338 88.3278C193.988 87.3415 191.565 86.4566 189.1 85.7313L189.071 85.7169C181.848 83.512 176.887 76.8976 176.771 69.355C176.727 66.7296 176.684 63.7995 176.582 61.1014V60.9998C176.539 58.0117 174.232 55.5609 171.259 55.3433ZM164.064 93.2307C204.056 93.2307 236.532 125.708 236.532 165.701C236.532 205.693 204.055 238.156 164.064 238.156C124.073 238.156 91.5969 205.693 91.5969 165.701C91.5969 125.708 124.073 93.2307 164.064 93.2307ZM164.064 104.835C130.471 104.835 103.201 132.105 103.201 165.701C103.201 199.296 130.47 226.566 164.064 226.566C197.659 226.566 224.928 199.296 224.928 165.701C224.928 132.105 197.659 104.835 164.064 104.835ZM182.021 190.316C181.978 190.287 181.949 190.244 181.905 190.215C178.235 186.371 160.177 169.995 160.177 169.995C158.973 168.892 158.277 167.34 158.277 165.701L158.262 118.096C158.262 114.905 160.858 112.294 164.064 112.294C167.27 112.294 169.866 114.89 169.866 118.096L169.88 163.135C174.696 167.53 187.257 179.004 190.289 182.181L191.638 183.805L192.508 186.228C192.929 189.39 190.695 192.32 187.533 192.741C185.314 193.031 183.225 192.028 182.021 190.316Z" fill="#05A6A6"/>
</svg>
