<svg width="30" height="26" viewBox="0 0 30 26" fill="none" xmlns="http://www.w3.org/2000/svg">
<path d="M9.66797 25H20.3346M15.0013 19.6667V25M8.06797 19.6667H21.9346C24.1748 19.6667 25.295 19.6667 26.1506 19.2307C26.9032 18.8472 27.5152 18.2353 27.8987 17.4826C28.3346 16.627 28.3346 15.5069 28.3346 13.2667V7.4C28.3346 5.15979 28.3346 4.03969 27.8987 3.18404C27.5152 2.43139 26.9032 1.81947 26.1506 1.43597C25.295 1 24.1748 1 21.9346 1H8.06797C5.82776 1 4.70765 1 3.85201 1.43597C3.09936 1.81947 2.48744 2.43139 2.10394 3.18404C1.66797 4.03969 1.66797 5.15979 1.66797 7.4V13.2667C1.66797 15.5069 1.66797 16.627 2.10394 17.4826C2.48744 18.2353 3.09936 18.8472 3.85201 19.2307C4.70765 19.6667 5.82776 19.6667 8.06797 19.6667Z" stroke="white" stroke-width="2" stroke-linecap="round" stroke-linejoin="round"/>
</svg>
