<svg width="160" height="160" viewBox="0 0 160 160" fill="none" xmlns="http://www.w3.org/2000/svg">
<path d="M20.2812 54.4997V122.5M58.5312 54.4997V122.5M101.031 54.4997V122.5M139.281 54.4997V122.5M3.28125 136.1L3.28125 142.9C3.28125 147.66 3.28125 150.04 4.20769 151.859C5.02262 153.458 6.32295 154.758 7.92233 155.573C9.74058 156.5 12.1208 156.5 16.8812 156.5H142.681C147.442 156.5 149.822 156.5 151.64 155.573C153.24 154.758 154.54 153.458 155.355 151.859C156.281 150.04 156.281 147.66 156.281 142.9V136.1C156.281 131.339 156.281 128.959 155.355 127.141C154.54 125.541 153.24 124.241 151.64 123.426C149.822 122.5 147.442 122.5 142.681 122.5H16.8813C12.1208 122.5 9.74058 122.5 7.92233 123.426C6.32295 124.241 5.02262 125.541 4.2077 127.141C3.28125 128.959 3.28125 131.339 3.28125 136.1ZM76.831 4.1553L13.931 18.1331C10.131 18.9775 8.23097 19.3997 6.8127 20.4215C5.56172 21.3228 4.57943 22.5473 3.97102 23.964C3.28125 25.5701 3.28125 27.5165 3.28125 31.4092L3.28125 40.8997C3.28125 45.6601 3.28125 48.0403 4.20769 49.8586C5.02262 51.458 6.32295 52.7583 7.92233 53.5732C9.74058 54.4997 12.1208 54.4997 16.8812 54.4997H142.681C147.442 54.4997 149.822 54.4997 151.64 53.5732C153.24 52.7583 154.54 51.458 155.355 49.8586C156.281 48.0404 156.281 45.6601 156.281 40.8997V31.4092C156.281 27.5165 156.281 25.5701 155.591 23.964C154.983 22.5473 154.001 21.3228 152.75 20.4215C151.332 19.3997 149.432 18.9775 145.632 18.1331L82.7315 4.1553C81.6305 3.91064 81.08 3.78831 80.5238 3.73953C80.0297 3.6962 79.5328 3.6962 79.0387 3.73953C78.4824 3.78831 77.932 3.91064 76.831 4.1553Z" stroke="url(#paint0_linear_1373_3813)" stroke-width="6" stroke-linecap="round" stroke-linejoin="round"/>
<defs>
<linearGradient id="paint0_linear_1373_3813" x1="79.7812" y1="3.70703" x2="79.7813" y2="156.5" gradientUnits="userSpaceOnUse">
<stop stop-color="#0BE6E6"/>
<stop offset="1" stop-color="#0B9292" stop-opacity="0.45"/>
</linearGradient>
</defs>
</svg>
