<svg width="24" height="24" viewBox="0 0 24 24" fill="none" xmlns="http://www.w3.org/2000/svg">
<path d="M10.3333 14.1998V6.40516C10.3333 5.65842 10.3333 5.28506 10.188 4.99984C10.0602 4.74896 9.8562 4.54498 9.60532 4.41715C9.3201 4.27183 8.94674 4.27183 8.2 4.27183H3.13333C2.3866 4.27183 2.01323 4.27183 1.72801 4.41715C1.47713 4.54498 1.27316 4.74896 1.14532 4.99984C1 5.28506 1 5.65842 1 6.40516V16.9998M1.5 13.6665H10.3333M1 15.7998V20.8665C1 21.6132 1 21.9866 1.14532 22.2718C1.27316 22.5227 1.47713 22.7267 1.72801 22.8545C2.01323 22.9998 2.3866 22.9998 3.13333 22.9998H10.3333M10.3333 13.6665H17.8667C18.6134 13.6665 18.9868 13.6665 19.272 13.8118C19.5229 13.9397 19.7268 14.1436 19.8547 14.3945C20 14.6797 20 15.0531 20 15.7998V20.8665C20 21.6132 20 21.9866 19.8547 22.2718C19.7268 22.5227 19.5229 22.7267 19.272 22.8545C18.9868 22.9998 18.6134 22.9998 17.8667 22.9998H10.3333M10.3333 13.6665L10.3333 22.9998M15.8 1H20.8667C21.6134 1 21.9868 1 22.272 1.14532C22.5229 1.27316 22.7268 1.47713 22.8547 1.72801C23 2.01323 23 2.3866 23 3.13333V8.2C23 8.94674 23 9.32011 22.8547 9.60532C22.7268 9.8562 22.5229 10.0602 22.272 10.188C21.9868 10.3333 21.6134 10.3333 20.8667 10.3333H15.8C15.0533 10.3333 14.6799 10.3333 14.3947 10.188C14.1438 10.0602 13.9398 9.8562 13.812 9.60532C13.6667 9.32011 13.6667 8.94674 13.6667 8.2V3.13333C13.6667 2.3866 13.6667 2.01323 13.812 1.72801C13.9398 1.47713 14.1438 1.27316 14.3947 1.14532C14.6799 1 15.0533 1 15.8 1Z" stroke="white" stroke-width="2" stroke-linecap="round" stroke-linejoin="round"/>
</svg>
