<svg width="30" height="26" viewBox="0 0 30 26" fill="none" xmlns="http://www.w3.org/2000/svg">
<path d="M16.3346 3.66667C16.3346 5.13943 13.0514 6.33333 9.0013 6.33333C4.95121 6.33333 1.66797 5.13943 1.66797 3.66667M16.3346 3.66667C16.3346 2.19391 13.0514 1 9.0013 1C4.95121 1 1.66797 2.19391 1.66797 3.66667M16.3346 3.66667V5.66667M1.66797 3.66667V19.6667C1.66797 21.1394 4.95121 22.3333 9.0013 22.3333M9.0013 11.6667C8.77657 11.6667 8.55421 11.663 8.33463 11.6558C4.59697 11.5333 1.66797 10.391 1.66797 9M9.0013 17C4.95121 17 1.66797 15.8061 1.66797 14.3333M28.3346 12.3333C28.3346 13.8061 25.0514 15 21.0013 15C16.9512 15 13.668 13.8061 13.668 12.3333M28.3346 12.3333C28.3346 10.8606 25.0514 9.66667 21.0013 9.66667C16.9512 9.66667 13.668 10.8606 13.668 12.3333M28.3346 12.3333V22.3333C28.3346 23.8061 25.0514 25 21.0013 25C16.9512 25 13.668 23.8061 13.668 22.3333V12.3333M28.3346 17.3333C28.3346 18.8061 25.0514 20 21.0013 20C16.9512 20 13.668 18.8061 13.668 17.3333" stroke="url(#paint0_linear_862_1162)" stroke-width="2" stroke-linecap="round" stroke-linejoin="round"/>
<defs>
<linearGradient id="paint0_linear_862_1162" x1="15.0013" y1="1" x2="15.0013" y2="25" gradientUnits="userSpaceOnUse">
<stop stop-color="#05A6A6"/>
<stop offset="1" stop-color="#0D5B6A"/>
</linearGradient>
</defs>
</svg>
