<svg width="100" height="20" viewBox="0 0 100 20" fill="none" xmlns="http://www.w3.org/2000/svg">
<mask id="mask0_524_21656" style="mask-type:luminance" maskUnits="userSpaceOnUse" x="0" y="0" width="100" height="20">
<path d="M99.8093 0.960938H0.96875V19.0401H99.8093V0.960938Z" fill="white"/>
</mask>
<g mask="url(#mask0_524_21656)">
<path d="M86.3494 15.8808H82.6719V3.91016H86.3494V15.8808Z" fill="#F5F7FA"/>
<path d="M81.7686 4.009C82.4736 4.19989 83.1867 4.57107 83.9055 5.12254C84.6265 5.67401 85.1722 6.37131 85.549 7.21442C85.9258 8.05753 86.1113 8.91391 86.1113 9.78884C86.1113 10.6638 85.9468 11.4778 85.6178 12.236C85.2889 12.9943 84.828 13.6465 84.2396 14.19C83.6505 14.7335 82.9722 15.1524 82.2055 15.4414C81.4396 15.733 80.636 15.8789 79.7932 15.8789C79.1649 15.8789 78.4939 15.7834 77.7831 15.5925C77.07 15.4017 76.3519 15.0304 75.6222 14.479C74.8961 13.9275 74.3418 13.2276 73.9678 12.3765C73.5918 11.5254 73.4062 10.6638 73.4062 9.79152C73.4062 8.9192 73.5707 8.10526 73.899 7.35494C74.228 6.60462 74.6896 5.95771 75.278 5.41153C75.8664 4.86802 76.5533 4.44911 77.3352 4.16012C78.1171 3.86848 78.9367 3.72266 79.7932 3.72266C80.4055 3.72266 81.0657 3.81811 81.7686 4.009ZM80.941 12.5012C81.3707 12.3182 81.7497 11.9814 82.0787 11.4909C82.407 11.0005 82.5715 10.4331 82.5715 9.79152C82.5715 8.93246 82.2932 8.22188 81.7338 7.65454C81.1744 7.08716 80.5273 6.80347 79.7932 6.80347C79.3345 6.80347 78.8729 6.92543 78.4142 7.172C77.9555 7.41592 77.5954 7.7818 77.3352 8.26434C77.0751 8.74688 76.9454 9.25594 76.9454 9.79152C76.9454 10.4357 77.1099 11.0031 77.4389 11.4909C77.7671 11.9814 78.1548 12.3182 78.5997 12.5012C79.0454 12.6841 79.4432 12.7769 79.7954 12.7769C80.1483 12.7769 80.5171 12.6841 80.9439 12.5012H80.941Z" fill="#F5F7FA"/>
<path d="M93.3054 19.0067H89.4242L91.2402 14.8123L86.5742 3.91016H90.4315L93.1018 10.4827L95.9518 3.91016H99.809L93.3032 19.0067H93.3054Z" fill="#F5F7FA"/>
<path d="M73.2619 4.36141C72.9909 3.68798 72.6014 3.10734 72.0871 2.61686C71.5727 2.12636 70.9523 1.74988 70.2232 1.49005C69.4941 1.22757 68.6961 1.09766 67.8237 1.09766H64.7217L60.3047 11.337V19.0443H64.2233V12.1404H67.6567C69.4782 12.1404 70.9337 11.6339 72.0261 10.6212C73.1184 9.60833 73.6648 8.26144 73.6648 6.5832C73.6648 5.77456 73.5293 5.03484 73.2619 4.36141ZM69.1521 8.24289C68.7093 8.65391 68.1154 8.86065 67.3704 8.86065H64.2206V4.4436H67.3704C68.1154 4.4436 68.7093 4.65041 69.1521 5.06136C69.5948 5.4723 69.8175 5.99462 69.8175 6.62828C69.8175 7.29375 69.5948 7.83196 69.1521 8.24289Z" fill="#F5F7FA"/>
<path d="M28.0671 4.80865C27.3805 4.25982 26.7017 3.88864 26.0309 3.7004C25.3602 3.5095 24.7318 3.41406 24.1485 3.41406C23.3319 3.41406 22.5497 3.55988 21.8074 3.84887C21.0624 4.13787 20.4102 4.55412 19.8481 5.09499C19.286 5.63585 18.8486 6.28012 18.5357 7.02779C18.2229 7.77545 18.0664 8.58408 18.0664 9.45372C18.0664 10.3234 18.244 11.1797 18.602 12.0281C18.9599 12.8739 19.4849 13.5712 20.1768 14.1227C20.8689 14.6715 21.5555 15.0427 22.2342 15.2309C22.913 15.4218 23.552 15.5173 24.1485 15.5173C24.9518 15.5173 25.7181 15.3714 26.4472 15.0824C27.1763 14.7934 27.8232 14.3772 28.3853 13.8363C28.9473 13.2955 29.3848 12.6459 29.6977 11.8929C30.0105 11.1373 30.167 10.326 30.167 9.4564C30.167 8.58677 29.9893 7.73303 29.6314 6.89522C29.2734 6.05741 28.7512 5.36277 28.0671 4.81395V4.80865ZM26.3279 10.9782C26.015 11.4184 25.6518 11.7206 25.2435 11.885C24.8352 12.0494 24.4693 12.1315 24.1485 12.1315C23.8277 12.1315 23.4326 12.0494 23.0111 11.885C22.5869 11.7206 22.2184 11.4184 21.9055 10.9782C21.5926 10.5381 21.4362 10.0291 21.4362 9.45111C21.4362 8.97119 21.5608 8.51249 21.8074 8.08035C22.0566 7.64819 22.3987 7.32208 22.8361 7.10203C23.2736 6.88197 23.711 6.77327 24.1485 6.77327C24.8484 6.77327 25.4662 7.02779 25.9965 7.53684C26.5294 8.04589 26.7945 8.68488 26.7945 9.45372C26.7945 10.0317 26.6381 10.5408 26.3252 10.9809L26.3279 10.9782Z" fill="#F5F7FA"/>
<path d="M40.6301 5.45859C40.251 5.05824 39.7976 4.74804 39.2727 4.52798C38.7477 4.30792 38.1724 4.19922 37.544 4.19922C36.8733 4.19922 36.2448 4.31852 35.6616 4.55979C35.0783 4.80106 34.5825 5.14043 34.1742 5.57789V4.52798H30.6719V15.515H34.1742V10.4165C34.1742 9.39578 34.3757 8.62955 34.7761 8.11784C35.1764 7.60614 35.7359 7.35162 36.449 7.35162C36.8573 7.35162 37.2153 7.46828 37.5201 7.70159C37.8277 7.9349 38.0372 8.21861 38.1538 8.55528C38.2705 8.89202 38.3288 9.21281 38.3288 9.51774V15.515H41.8073V8.77535C41.8073 8.10459 41.7039 7.48418 41.4998 6.91415C41.2956 6.34412 41.004 5.85893 40.6248 5.45859H40.6301Z" fill="#F5F7FA"/>
<path d="M58.8033 1.09375L54.6301 10.7233L52.0239 4.30978H48.2617L52.814 14.9468L51.0403 19.0405H54.8264L62.5681 1.09375H58.8033Z" fill="#F5F7FA"/>
<path d="M47.1524 10.7866V7.13847H49.4749L48.2739 4.31218H47.1498V0.960938H43.6474V4.31218H41.6562V7.13847H43.6474V11.1366C43.6474 12.5524 44.0292 13.6342 44.7955 14.3871C45.5617 15.1374 46.6381 15.514 48.0247 15.514C48.6584 15.514 50.8218 15.4026 51.4581 15.1852L50.3658 12.4808C50.212 12.5445 47.1498 13.2471 47.1498 10.7893L47.1524 10.7866Z" fill="#F5F7FA"/>
<path d="M17.4599 15.5159H14.0476V7.89864L10.0362 15.5159H8.41364L4.38098 7.85622V15.5159H0.96875V1.22266H4.42605L9.22487 10.2901L14.0264 1.22266H17.4599V15.5159Z" fill="#F5F7FA"/>
</g>
</svg>
