<svg width="149" height="30" viewBox="0 0 149 30" fill="none" xmlns="http://www.w3.org/2000/svg">
<g clip-path="url(#clip0_524_21692)">
<path fill-rule="evenodd" clip-rule="evenodd" d="M1.47656 4.19029C1.47656 2.48443 2.85944 1.10156 4.5653 1.10156H92.0794L92.0908 1.10158H144.588C146.294 1.10158 147.677 2.48445 147.677 4.19031V25.8115C147.677 27.5173 146.294 28.9002 144.588 28.9002H80.7542H80.7427H73.6403L84.1543 9.80086H79.8171L75.7084 17.1555L73.6154 9.80086H69.2781L73.017 21.9991L69.2755 28.9002H4.56529C2.85943 28.9002 1.47656 27.5173 1.47656 25.8115V4.19029ZM93.3401 17.6443H101.059L101.063 17.6463L101.309 16.7896C101.532 15.9684 101.599 15.2106 101.514 14.5141C101.427 13.8177 101.206 13.226 100.85 12.7393C100.492 12.2526 100.023 11.8806 99.4405 11.6234C98.8561 11.3661 98.216 11.2375 97.4746 11.2375C96.7332 11.2375 95.9818 11.3741 95.2185 11.6451C94.4552 11.9162 93.7436 12.2981 93.0837 12.7927C92.4238 13.2874 91.8513 13.879 91.3663 14.5676C90.8813 15.2561 90.5235 15.9981 90.2949 16.7915C90.0663 17.585 89.9968 18.3289 90.0822 19.0254C90.1677 19.7219 90.3983 20.3155 90.774 20.8101C91.1476 21.3048 91.6366 21.6827 92.2389 21.9478C92.8392 22.211 93.5111 22.3435 94.2525 22.3435C95.1609 22.3435 95.9957 22.205 96.7531 21.9261C97.5104 21.6471 98.1942 21.2692 98.8004 20.7883C99.4067 20.3075 99.9454 19.7337 100.418 19.065L97.6137 18.4595C96.9339 19.2668 96.0713 19.6704 95.0217 19.6704C94.4632 19.6704 94.0318 19.4844 93.7337 19.1164C93.4355 18.7484 93.3043 18.2557 93.3401 17.6443ZM93.9941 15.5984C94.2903 15.0978 94.6938 14.6962 95.1986 14.3974L95.2006 14.3994C95.7075 14.1006 96.2044 13.9502 96.6934 13.9502C97.1824 13.9502 97.578 14.0927 97.8801 14.3776C98.1822 14.6625 98.3353 15.0701 98.3353 15.5984H93.9941ZM114.341 8.8017C115.169 9.51796 115.533 10.5113 115.434 11.7776L111.838 12.4662C111.892 11.8389 111.739 11.3562 111.375 11.0158C111.011 10.6755 110.536 10.5034 109.95 10.5034C109.363 10.5034 108.896 10.6399 108.469 10.911C108.041 11.182 107.769 11.5204 107.652 11.924C107.568 12.2169 107.584 12.4642 107.7 12.666C107.817 12.8678 108.065 13.0103 108.447 13.0934L111.176 13.7404C112.341 14.0194 113.158 14.4962 113.627 15.1709C114.096 15.8457 114.176 16.7261 113.863 17.8124C113.659 18.5227 113.323 19.1658 112.856 19.7435C112.389 20.3213 111.832 20.8021 111.182 21.184C110.532 21.5659 109.832 21.8547 109.077 22.0506C108.322 22.2465 107.552 22.3435 106.769 22.3435C105.986 22.3435 105.269 22.2505 104.617 22.0625C103.965 21.8745 103.414 21.5995 102.967 21.2374C102.519 20.8753 102.197 20.4262 102.003 19.89C101.808 19.3538 101.754 18.7602 101.846 18.1052L105.61 17.4167C105.589 17.9311 105.684 18.3526 105.897 18.679C106.109 19.0055 106.394 19.2212 106.749 19.326C107.103 19.4309 107.449 19.4824 107.785 19.4824C108.415 19.4824 108.956 19.3498 109.409 19.0866C109.862 18.8215 110.152 18.4733 110.276 18.0419C110.367 17.7214 110.345 17.4602 110.208 17.2584C110.071 17.0566 109.779 16.9062 109.331 16.8092L106.574 16.182C104.223 15.6122 103.352 14.2608 103.967 12.1318C104.352 10.7962 105.173 9.72771 106.431 8.92636C107.69 8.12501 109.145 7.72533 110.794 7.72533C112.333 7.72533 113.516 8.08346 114.345 8.79972L114.341 8.8017ZM118.69 8.04005L114.661 22.029H118.121L122.15 8.04005H118.69ZM136.82 22.029H133.465L135.611 14.5755L129.521 22.029H127.927L126.122 14.5339L123.963 22.029H120.608L124.637 8.04005H128.034L130.197 16.9142L137.472 8.04005H140.849L136.82 22.029ZM24.0692 22.4245H28.1023L30.1775 5.60815H26.1185L19.1296 16.275L14.7725 5.60815H10.6877L8.61249 22.4245H12.6476L13.7588 13.4139L17.4122 22.4245H19.3284L25.1743 13.4653L24.0692 22.4245ZM39.9213 9.81273C40.6686 10.0225 41.4001 10.4281 42.1157 11.0296C42.8313 11.6311 43.3382 12.3929 43.6363 13.313C43.9345 14.233 44.0259 15.1709 43.9067 16.1246C43.7874 17.0783 43.4992 17.9687 43.0341 18.7977C42.5709 19.6267 41.9786 20.3371 41.259 20.9307C40.5394 21.5242 39.7384 21.9813 38.8598 22.2979C37.9792 22.6164 37.0788 22.7747 36.1525 22.7747C35.4628 22.7747 34.7412 22.6699 33.9859 22.4601C33.2305 22.2504 32.4891 21.8448 31.7656 21.2433C31.0421 20.6418 30.5312 19.8761 30.233 18.9461C29.9349 18.0181 29.8454 17.0763 29.9627 16.1226C30.08 15.1689 30.3702 14.2825 30.8333 13.4614C31.2965 12.6422 31.8868 11.9339 32.6084 11.3403C33.3279 10.7467 34.137 10.2896 35.0334 9.97299C35.9299 9.65444 36.8482 9.49615 37.7904 9.49615C38.4623 9.49615 39.1719 9.60102 39.9193 9.81075L39.9213 9.81273ZM37.8699 19.0866C38.3649 18.8867 38.826 18.5187 39.2534 17.9825C39.6807 17.4463 39.9372 16.829 40.0246 16.1246C40.1399 15.1867 39.9292 14.4091 39.3925 13.7898C38.8558 13.1705 38.184 12.8618 37.377 12.8618C36.8721 12.8618 36.3513 12.9964 35.8146 13.2635C35.2779 13.5306 34.8327 13.9283 34.4828 14.4546C34.133 14.9809 33.9203 15.5389 33.8487 16.1246C33.7613 16.827 33.8666 17.4463 34.1608 17.9825C34.457 18.5187 34.8346 18.8867 35.2978 19.0866C35.7609 19.2884 36.1843 19.3873 36.5719 19.3873C36.9595 19.3873 37.375 19.2864 37.8699 19.0866ZM57.1072 10.8931C56.7275 10.434 56.2505 10.0779 55.676 9.82659V9.82461C55.1016 9.57333 54.4536 9.44867 53.73 9.44867C52.9568 9.44867 52.2154 9.5852 51.5097 9.8622C50.8041 10.1392 50.1839 10.5271 49.6512 11.0296L49.8003 9.82461H45.7652L44.2108 22.4245H48.2459L48.9674 16.5777C49.1105 15.4064 49.4504 14.5278 49.9851 13.9422C50.5198 13.3565 51.1996 13.0637 52.0226 13.0637C52.4937 13.0637 52.8892 13.1982 53.2092 13.4653C53.5293 13.7344 53.732 14.0609 53.8195 14.4447C53.9069 14.8286 53.9288 15.1966 53.8851 15.5488L53.0363 22.4265H57.0456L57.9997 14.696C58.0951 13.9263 58.0653 13.216 57.9102 12.5631C57.7552 11.9101 57.4868 11.3522 57.1072 10.8931ZM68.2727 21.8724C67.0363 22.4917 65.8476 22.8004 64.7047 22.8004C63.1085 22.8004 61.9218 22.3691 61.1446 21.5084C60.3694 20.6477 60.0812 19.4051 60.28 17.7806L60.8683 13.0122H58.5745L58.9681 9.82454H61.2619L61.7827 5.60809H65.8178L65.297 9.82454H69.028L68.6344 13.0122H64.9034L64.3648 17.379C64.2137 18.5998 64.7027 19.2112 65.8277 19.2112C66.0961 19.2112 66.4141 19.1617 66.7799 19.0608C67.1456 18.9599 67.4617 18.8432 67.73 18.7086L68.2727 21.8704V21.8724Z" fill="#F5F7FA"/>
</g>
<defs>
<clipPath id="clip0_524_21692">
<rect width="148" height="29" fill="white" transform="translate(0.578125 0.5)"/>
</clipPath>
</defs>
</svg>
