<svg width="165" height="30" viewBox="0 0 165 30" fill="none" xmlns="http://www.w3.org/2000/svg">
<g clip-path="url(#clip0_524_21698)">
<g clip-path="url(#clip1_524_21698)">
<path d="M13.458 16.2187L13.3627 6.02152L10.2882 16.2187H6.90384L3.85316 6.02152L3.73399 16.2187H0.230469L0.707137 1.125H5.49767L8.69135 11.75L11.9088 1.125H16.6755L17.176 16.2187H13.458Z" fill="#F5F7FA"/>
<path d="M33.8491 8.65935C33.8491 9.84782 33.6738 10.9216 33.3247 11.8808C32.9756 12.84 32.4709 13.6551 31.812 14.3291C31.1517 15.003 30.3582 15.5259 29.4287 15.8979C28.4992 16.2698 27.4547 16.4571 26.2939 16.4571C25.1344 16.4571 24.0858 16.2712 23.1478 15.8979C22.2099 15.5259 21.4164 15.003 20.7645 14.3291C20.1126 13.6551 19.6079 12.84 19.2504 11.8808C18.8929 10.9216 18.7148 9.84782 18.7148 8.65935C18.7148 7.47087 18.8929 6.40123 19.2504 5.45045C19.6079 4.49967 20.1126 3.68312 20.7645 3.00219C21.4164 2.32126 22.2099 1.79834 23.1478 1.43341C24.0858 1.06847 25.1344 0.886719 26.2939 0.886719C27.4533 0.886719 28.4978 1.06847 29.4287 1.43341C30.3582 1.79834 31.1517 2.32126 31.812 3.00219C32.4709 3.68312 32.9756 4.49967 33.3247 5.45045C33.6738 6.40123 33.8491 7.47087 33.8491 8.65935ZM29.988 8.61181C29.988 7.94627 29.9123 7.33244 29.7623 6.76897C29.6109 6.20689 29.381 5.71892 29.0712 5.30785C28.7613 4.89538 28.3758 4.57098 27.9159 4.33328C27.4547 4.09559 26.9149 3.97675 26.2953 3.97675C25.6756 3.97675 25.1358 4.09559 24.6746 4.33328C24.2133 4.57098 23.8278 4.89538 23.518 5.30785C23.2081 5.72032 22.974 6.20689 22.8142 6.76897C22.6557 7.33105 22.5758 7.94627 22.5758 8.61181C22.5758 9.27736 22.6557 9.89535 22.8142 10.4658C22.9726 11.0363 23.2081 11.5271 23.518 11.9395C23.8278 12.352 24.2133 12.6764 24.6746 12.9141C25.1358 13.1518 25.6756 13.2706 26.2953 13.2706C26.9149 13.2706 27.4547 13.1518 27.9159 12.9141C28.3772 12.6764 28.7613 12.352 29.0712 11.9395C29.381 11.5271 29.6109 11.0363 29.7623 10.4658C29.9123 9.89535 29.988 9.27736 29.988 8.61181Z" fill="#F5F7FA"/>
<path d="M45.0774 16.2187L39.2859 6.47314V16.2187H35.7109V1.125H39.6434L45.1728 10.3476V1.125H48.7239V16.2187H45.0774Z" fill="#F5F7FA"/>
<path d="M57.7908 4.07241V16.2187H54.0251V4.07241H49.9258V1.125H61.8902V4.07241H57.7908Z" fill="#F5F7FA"/>
<path d="M71.3645 10.1336V16.2187H67.5989V10.1336L62.3555 1.125H66.5263L69.4817 7.21L72.437 1.125H76.5841L71.3645 10.1336Z" fill="#F5F7FA"/>
<path d="M94.437 13.8873C94.0879 14.3626 93.6421 14.7905 93.1023 15.1708C92.6411 15.4882 92.0495 15.7804 91.326 16.0503C90.6026 16.3201 89.725 16.4544 88.6918 16.4544C87.6585 16.4544 86.6897 16.288 85.7841 15.9552C84.8784 15.6224 84.0877 15.1275 83.4119 14.4703C82.7362 13.8131 82.2048 13.0008 81.8151 12.0346C81.4253 11.0685 81.2305 9.94292 81.2305 8.65937C81.2305 7.37581 81.4408 6.25025 81.8628 5.28409C82.2834 4.31793 82.8483 3.50977 83.5549 2.85961C84.2615 2.20944 85.0677 1.71866 85.9733 1.38589C86.879 1.05311 87.8169 0.886719 88.7857 0.886719C89.7544 0.886719 90.5928 1.01816 91.2994 1.27822C92.006 1.53969 92.5864 1.82492 93.0393 2.13393C93.4921 2.44293 93.83 2.73235 94.0515 3.00221C94.2744 3.27206 94.3935 3.41469 94.409 3.43007L92.55 5.94964C92.3116 5.61687 92.0172 5.31624 91.6681 5.04639C91.3667 4.82407 90.9966 4.61855 90.5606 4.42839C90.1232 4.23823 89.6114 4.14315 89.024 4.14315C88.452 4.14315 87.9235 4.24661 87.4384 4.45215C86.9533 4.65769 86.5369 4.9555 86.1878 5.34421C85.8387 5.73291 85.5682 6.19991 85.3775 6.74661C85.1868 7.29331 85.0915 7.90713 85.0915 8.58946C85.0915 9.96809 85.449 11.0615 86.164 11.8696C86.879 12.6778 87.8239 13.0819 89.0002 13.0819C89.5876 13.0819 90.1007 12.9868 90.5381 12.7966C90.9755 12.6065 91.3527 12.4009 91.6695 12.1786C92.0186 11.9088 92.3285 11.6082 92.599 11.2754L94.437 13.8873Z" fill="#F5F7FA"/>
<path d="M105.379 16.2187L104.497 13.3664H99.1585L98.2767 16.2187H94.5586L99.6828 1.125H104.259L109.383 16.2187H105.379ZM101.828 4.66665L100.016 10.4427H103.639L101.828 4.66665Z" fill="#F5F7FA"/>
<path d="M121.993 6.18651C121.993 7.13729 121.846 7.92588 121.553 8.55228C121.258 9.17867 120.834 9.69741 120.277 10.1099C119.991 10.3154 119.673 10.4902 119.324 10.6328C118.975 10.7754 118.609 10.8942 118.227 10.9893C117.846 11.0844 117.469 11.1515 117.096 11.1907C116.722 11.2298 116.377 11.2508 116.058 11.2508H114.199V16.2186H110.434V1.125H116.058C116.773 1.125 117.516 1.21169 118.288 1.38646C119.059 1.56124 119.722 1.85347 120.277 2.26594C120.834 2.67841 121.258 3.19713 121.553 3.82353C121.846 4.44713 121.993 5.23572 121.993 6.18651ZM118.227 6.18651C118.227 5.74327 118.16 5.38254 118.025 5.10569C117.891 4.82885 117.687 4.59535 117.418 4.40379C117.148 4.19825 116.87 4.07521 116.584 4.03606C116.298 3.99691 115.941 3.97735 115.512 3.97735H114.201V8.42224H115.512C115.941 8.42224 116.294 8.39847 116.573 8.35093C116.851 8.30339 117.125 8.18455 117.396 7.99439C117.666 7.78886 117.873 7.54696 118.016 7.26872C118.156 6.99187 118.227 6.63114 118.227 6.18651Z" fill="#F5F7FA"/>
<path d="M123.457 16.2187V1.125H127.247V16.2187H123.457Z" fill="#F5F7FA"/>
<path d="M136.31 4.07241V16.2187H132.545V4.07241H128.445V1.125H140.41V4.07241H136.31Z" fill="#F5F7FA"/>
<path d="M149.445 16.2187L148.563 13.3664H143.225L142.343 16.2187H138.625L143.749 1.125H148.325L153.449 16.2187H149.445ZM145.893 4.66665L144.081 10.4427H147.704L145.893 4.66665Z" fill="#F5F7FA"/>
<path d="M154.5 16.2187V1.125H158.266V13.1762H164.129V16.2187H154.5Z" fill="#F5F7FA"/>
<path d="M37.8565 24.3317V26.0515H39.9679V26.6807H37.8565V29.0381H37.0742V23.7109H40.1613V24.3317H37.8565Z" fill="#F5F7FA"/>
<path d="M41.8672 29.0381V23.7109H42.6495V29.0381H41.8672Z" fill="#F5F7FA"/>
<path d="M48.3497 29.0381L45.5906 24.7595V29.0381H44.8672V23.7109H45.7336L48.3581 27.788V23.7109H49.09V29.0381H48.3497Z" fill="#F5F7FA"/>
<path d="M54.6753 29.0381L54.2043 27.7042H51.9247L51.4536 29.0381H50.6797L52.6397 23.7109H53.5482L55.5081 29.0381H54.6753ZM53.0687 24.4324L52.1266 27.0834H54.0024L53.0687 24.4324Z" fill="#F5F7FA"/>
<path d="M60.5841 29.0381L57.825 24.7595V29.0381H57.1016V23.7109H57.968L60.5925 27.788V23.7109H61.3243V29.0381H60.5841Z" fill="#F5F7FA"/>
<path d="M67.2288 25.1177C67.1446 24.9667 67.0353 24.8325 66.9007 24.7151C66.7885 24.6144 66.6399 24.5221 66.4549 24.4382C66.2698 24.3543 66.0483 24.3124 65.7903 24.3124C65.5324 24.3124 65.2968 24.3613 65.0837 24.4592C64.8706 24.5571 64.6884 24.6969 64.537 24.8787C64.3856 25.0604 64.2678 25.2771 64.1837 25.5288C64.0996 25.7805 64.0575 26.0573 64.0575 26.3593C64.0575 26.6614 64.0982 26.9382 64.1795 27.1899C64.2608 27.4416 64.3757 27.6583 64.5244 27.84C64.673 28.0218 64.8524 28.1616 65.0627 28.2595C65.273 28.3574 65.5071 28.4063 65.7651 28.4063C66.0231 28.4063 66.2474 28.3644 66.438 28.2805C66.6287 28.1966 66.7857 28.1015 66.9091 27.9952C67.0549 27.8778 67.1755 27.7408 67.2708 27.5842L67.7251 28.0875C67.6073 28.2833 67.4559 28.4539 67.2708 28.5993C67.1082 28.7279 66.9007 28.8454 66.6483 28.9516C66.396 29.0579 66.0904 29.111 65.7315 29.111C65.3726 29.111 65.0417 29.0481 64.7389 28.9223C64.436 28.7964 64.1739 28.616 63.9524 28.3811C63.7308 28.1463 63.5584 27.8596 63.435 27.5213C63.3117 27.1829 63.25 26.7984 63.25 26.3677C63.25 25.9371 63.3173 25.5526 63.4519 25.2142C63.5864 24.8759 63.7687 24.5892 63.9986 24.3543C64.2285 24.1194 64.4963 23.9404 64.8019 23.8174C65.1076 23.6944 65.4286 23.6328 65.7651 23.6328C66.1016 23.6328 66.3904 23.6818 66.6315 23.7797C66.8727 23.8775 67.0717 23.9852 67.2288 24.1026C67.3858 24.2201 67.5007 24.3319 67.5736 24.4382C67.6465 24.5445 67.6886 24.606 67.6998 24.6228L67.2288 25.1177Z" fill="#F5F7FA"/>
<path d="M69.4531 29.0381V23.7109H70.2354V29.0381H69.4531Z" fill="#F5F7FA"/>
<path d="M75.8198 29.0381L75.3488 27.7042H73.0692L72.5981 29.0381H71.8242L73.7842 23.7109H74.6927L76.6526 29.0381H75.8198ZM74.2132 24.4324L73.2711 27.0834H75.1469L74.2132 24.4324Z" fill="#F5F7FA"/>
<path d="M78.2422 29.0381V23.7109H79.0245V28.3921H81.1947V29.0381H78.2422Z" fill="#F5F7FA"/>
<path d="M88.7495 29.0381L88.2785 27.7042H85.9989L85.5278 29.0381H84.7539L86.7139 23.7109H87.6224L89.5823 29.0381H88.7495ZM87.1429 24.4324L86.2008 27.0834H88.0766L87.1429 24.4324Z" fill="#F5F7FA"/>
<path d="M95.5667 26.3703C95.5667 26.8345 95.491 27.233 95.3396 27.5657C95.1882 27.8985 95.0003 28.1712 94.776 28.3837C94.5573 28.5962 94.2994 28.7584 94.0022 28.8703C93.7049 28.9821 93.3488 29.0381 92.9339 29.0381H91.1758V23.7109H92.9339C93.3488 23.7109 93.7035 23.7668 93.9979 23.8787C94.2924 23.9905 94.5517 24.1527 94.776 24.3652C94.9947 24.5778 95.1812 24.8504 95.3354 25.1832C95.4896 25.516 95.5667 25.9117 95.5667 26.3703ZM94.7592 26.3703C94.7592 26.0403 94.7101 25.7425 94.612 25.4768C94.5139 25.2112 94.3807 24.9944 94.2125 24.8267C93.8816 24.4967 93.4526 24.3317 92.9254 24.3317H91.9497V28.4005H92.9254C93.4582 28.4005 93.8872 28.2383 94.2125 27.9139C94.3807 27.7461 94.5139 27.5294 94.612 27.2637C94.7101 26.9981 94.7592 26.7003 94.7592 26.3703Z" fill="#F5F7FA"/>
<path d="M99.389 29.0381H98.5478L96.6719 23.7109H97.5047L98.9936 28.1991L100.491 23.7109H101.265L99.389 29.0381Z" fill="#F5F7FA"/>
<path d="M102.895 29.0381V23.7109H103.677V29.0381H102.895Z" fill="#F5F7FA"/>
<path d="M109.161 27.5344C109.161 27.7749 109.115 27.9916 109.022 28.1846C108.93 28.3775 108.802 28.5411 108.639 28.6754C108.482 28.804 108.295 28.9089 108.076 28.99C107.857 29.0711 107.588 29.1116 107.268 29.1116C107.038 29.1116 106.825 29.0822 106.629 29.0235C106.433 28.9648 106.256 28.8921 106.099 28.8054C105.942 28.7187 105.806 28.6278 105.691 28.5327C105.576 28.4377 105.485 28.3538 105.418 28.2811L105.855 27.7442C105.889 27.7777 105.948 27.835 106.032 27.9161C106.116 27.9972 106.218 28.0769 106.339 28.1552C106.459 28.2335 106.598 28.3034 106.755 28.3649C106.912 28.4265 107.083 28.4572 107.268 28.4572C107.638 28.4572 107.919 28.3803 108.11 28.2265C108.3 28.0727 108.396 27.87 108.396 27.6183C108.396 27.4953 108.37 27.3904 108.32 27.3037C108.269 27.217 108.208 27.1429 108.135 27.0814C108.062 27.0199 107.985 26.9709 107.903 26.9346C107.822 26.8982 107.753 26.8661 107.697 26.8381C107.636 26.8157 107.556 26.7836 107.458 26.7416C107.359 26.6997 107.257 26.6591 107.151 26.62C107.044 26.5808 106.946 26.5431 106.856 26.5067C106.766 26.4704 106.702 26.4438 106.663 26.427C106.584 26.3935 106.49 26.3473 106.381 26.2886C106.272 26.2299 106.166 26.153 106.065 26.0579C105.953 25.9628 105.858 25.8356 105.779 25.6762C105.701 25.5168 105.662 25.3197 105.662 25.0848C105.662 24.8387 105.712 24.6234 105.813 24.4388C105.914 24.2542 106.043 24.1032 106.2 23.9858C106.351 23.8739 106.528 23.7858 106.73 23.7215C106.932 23.6572 107.167 23.625 107.437 23.625C107.661 23.625 107.867 23.653 108.055 23.7089C108.243 23.7649 108.408 23.832 108.551 23.9103C108.694 23.9886 108.813 24.0697 108.909 24.1535C109.004 24.2374 109.074 24.3046 109.119 24.3549L108.74 24.8834C108.696 24.8331 108.63 24.7716 108.543 24.6989C108.456 24.6261 108.355 24.5562 108.24 24.4891C108.125 24.422 107.999 24.3661 107.861 24.3213C107.724 24.2766 107.58 24.2542 107.428 24.2542C107.12 24.2542 106.874 24.3185 106.692 24.4472C106.51 24.5758 106.419 24.7632 106.419 25.0092C106.419 25.1323 106.44 25.2358 106.482 25.3197C106.524 25.4036 106.579 25.4749 106.646 25.5336C106.713 25.5923 106.786 25.6398 106.865 25.6762C106.943 25.7126 107.022 25.7475 107.1 25.7811L108.143 26.1921C108.244 26.2369 108.348 26.2872 108.454 26.3431C108.561 26.3991 108.662 26.4746 108.757 26.5697C108.886 26.6983 108.986 26.8395 109.056 26.9933C109.126 27.1471 109.161 27.3275 109.161 27.5344Z" fill="#F5F7FA"/>
<path d="M115.822 26.3677C115.822 26.7704 115.761 27.1395 115.641 27.4751C115.52 27.8107 115.349 28.1001 115.128 28.3434C114.906 28.5867 114.637 28.7754 114.32 28.9097C114.003 29.0439 113.651 29.111 113.264 29.111C112.877 29.111 112.526 29.0439 112.209 28.9097C111.892 28.7754 111.621 28.5867 111.397 28.3434C111.173 28.1001 111 27.8107 110.88 27.4751C110.759 27.1395 110.699 26.7704 110.699 26.3677C110.699 25.9651 110.759 25.5973 110.88 25.2646C111 24.9318 111.173 24.6437 111.397 24.4005C111.621 24.1572 111.892 23.9684 112.209 23.8342C112.526 23.6999 112.877 23.6328 113.264 23.6328C113.651 23.6328 114.003 23.6999 114.32 23.8342C114.637 23.9684 114.906 24.1572 115.128 24.4005C115.349 24.6437 115.52 24.9318 115.641 25.2646C115.761 25.5973 115.822 25.9651 115.822 26.3677ZM115.014 26.3677C115.014 26.0657 114.973 25.7875 114.892 25.533C114.811 25.2785 114.694 25.059 114.543 24.8745C114.392 24.6899 114.208 24.5459 113.992 24.4424C113.776 24.3389 113.534 24.2872 113.264 24.2872C112.99 24.2872 112.744 24.3389 112.528 24.4424C112.312 24.5459 112.129 24.6899 111.977 24.8745C111.826 25.059 111.71 25.2771 111.628 25.5288C111.547 25.7805 111.506 26.0573 111.506 26.3593C111.506 26.6614 111.547 26.9396 111.628 27.1941C111.71 27.4485 111.826 27.6681 111.977 27.8526C112.129 28.0372 112.312 28.1812 112.528 28.2847C112.744 28.3881 112.99 28.4399 113.264 28.4399C113.534 28.4399 113.776 28.3881 113.992 28.2847C114.208 28.1812 114.392 28.0372 114.543 27.8526C114.694 27.6681 114.811 27.4499 114.892 27.1983C114.973 26.9466 115.014 26.6698 115.014 26.3677Z" fill="#F5F7FA"/>
<path d="M120.707 29.0381L119.319 26.8485H118.528V29.0381H117.746V23.7109H119.487C119.74 23.7109 119.974 23.7416 120.19 23.8032C120.405 23.8647 120.592 23.9598 120.749 24.0884C120.917 24.217 121.052 24.382 121.153 24.5834C121.254 24.7847 121.304 25.0112 121.304 25.2629C121.304 25.4698 121.27 25.6558 121.203 25.8208C121.136 25.9858 121.048 26.1298 120.938 26.2528C120.829 26.3759 120.704 26.4793 120.564 26.5632C120.424 26.6471 120.278 26.7086 120.126 26.7478L121.624 29.0381H120.707ZM120.522 25.2797C120.522 25.1175 120.487 24.9693 120.417 24.835C120.347 24.7008 120.255 24.5946 120.143 24.5163C120.031 24.438 119.913 24.3862 119.79 24.361C119.667 24.3359 119.515 24.3233 119.336 24.3233H118.528V26.2444H119.336C119.515 26.2444 119.667 26.2319 119.79 26.2067C119.913 26.1815 120.031 26.1298 120.143 26.0515C120.255 25.9732 120.347 25.8669 120.417 25.7327C120.487 25.5985 120.522 25.4475 120.522 25.2797Z" fill="#F5F7FA"/>
<path d="M125.147 26.8401V29.0381H124.373V26.8401L122.531 23.7109H123.397L124.768 26.2193L126.139 23.7109H126.981L125.147 26.8401Z" fill="#F5F7FA"/>
</g>
</g>
<defs>
<clipPath id="clip0_524_21698">
<rect width="164" height="29" fill="white" transform="translate(0.179688 0.5)"/>
</clipPath>
<clipPath id="clip1_524_21698">
<rect width="164" height="29" fill="white" transform="translate(0.179688 0.5)"/>
</clipPath>
</defs>
</svg>
