<svg width="117" height="48" viewBox="0 0 117 48" fill="none" xmlns="http://www.w3.org/2000/svg">
<g clip-path="url(#clip0_524_21671)">
<g clip-path="url(#clip1_524_21671)">
<path d="M22.7513 27.1172H17.1133V41.5076H22.7513V27.1172Z" fill="#F5F7FA"/>
<path d="M33.1247 33.6177C33.1247 31.9933 32.5583 31.1811 31.4256 31.1811C30.3172 31.1811 29.7584 31.9918 29.7584 33.6177V41.4953H24.125V27.1187H29.7584V28.8957C30.6164 27.5126 31.9477 26.8195 33.7522 26.8164C37.0925 26.8164 38.7612 28.9049 38.7581 33.0819V41.5091H33.1247V33.6177Z" fill="#F5F7FA"/>
<path d="M50.9881 39.7287C50.1698 41.118 48.7958 41.8111 46.8661 41.808C45.956 41.8275 45.0526 41.6482 44.2189 41.2828C43.3852 40.9174 42.6412 40.3745 42.0388 39.6921C40.7287 38.2143 40.0382 36.2887 40.1106 34.3152C40.0382 32.3416 40.7287 30.416 42.0388 28.9382C42.641 28.2552 43.3848 27.7117 44.2185 27.3455C45.0522 26.9792 45.9557 26.7991 46.8661 26.8177C48.7805 26.8177 50.1545 27.52 50.9881 28.9245V27.12H56.6215V41.5103H50.9881V39.7287ZM46.4905 36.6143C46.7261 36.897 47.0209 37.1244 47.3541 37.2805C47.6873 37.4366 48.0508 37.5175 48.4187 37.5175C48.7867 37.5175 49.1501 37.4366 49.4833 37.2805C49.8165 37.1244 50.1114 36.897 50.3469 36.6143C50.8142 35.9421 51.0646 35.143 51.0646 34.3243C51.0646 33.5056 50.8142 32.7066 50.3469 32.0343C50.1114 31.7516 49.8165 31.5242 49.4833 31.3681C49.1501 31.2121 48.7867 31.1312 48.4187 31.1312C48.0508 31.1312 47.6873 31.2121 47.3541 31.3681C47.0209 31.5242 46.7261 31.7516 46.4905 32.0343C46.0208 32.7056 45.7688 33.505 45.7688 34.3243C45.7688 35.1436 46.0208 35.9431 46.4905 36.6143Z" fill="#F5F7FA"/>
<path d="M66.999 33.6177C66.999 31.9933 66.4342 31.1811 65.3044 31.1811C64.1747 31.1811 63.619 31.9933 63.6373 33.6177V41.4953H58.0039V27.1187H63.6373V28.8957C64.4953 27.5126 65.8266 26.8195 67.6311 26.8164C70.9684 26.8164 72.637 28.9049 72.637 33.0819V41.5091H66.999V33.6177Z" fill="#F5F7FA"/>
<path d="M76.404 28.8406C78.069 27.3669 80.2367 26.5897 82.4587 26.6697C84.9777 26.6697 87.0113 27.4162 88.5593 28.9093L85.8525 32.2435C85.036 31.4789 83.962 31.049 82.8435 31.039C82.4217 31.0265 82.0018 31.0987 81.6085 31.2513C81.2151 31.4039 80.8564 31.6338 80.5535 31.9275C79.9738 32.5364 79.6505 33.3448 79.6505 34.1854C79.6505 35.0261 79.9738 35.8345 80.5535 36.4434C80.8564 36.737 81.2151 36.967 81.6085 37.1196C82.0018 37.2722 82.4217 37.3444 82.8435 37.3319C83.962 37.3219 85.036 36.8919 85.8525 36.1274L88.5593 39.4387C87.0113 40.9318 84.9777 41.6798 82.4587 41.6829C80.2362 41.7611 78.0685 40.9823 76.404 39.5074C75.6507 38.8404 75.0475 38.0211 74.6345 37.1037C74.2214 36.1863 74.0078 35.1916 74.0078 34.1854C74.0078 33.1793 74.2214 32.1846 74.6345 31.2672C75.0475 30.3497 75.6507 29.5304 76.404 28.8635V28.8406Z" fill="#F5F7FA"/>
<path d="M90.7996 39.6923C90.0582 39.0217 89.4699 38.1992 89.0747 37.2809C88.6795 36.3625 88.4868 35.3699 88.5096 34.3704C88.4952 33.3819 88.6795 32.4007 89.0517 31.4849C89.4238 30.5691 89.9762 29.7374 90.676 29.0392C92.1172 27.5645 94.0789 26.8256 96.5613 26.8225C98.6438 26.7425 100.68 27.4506 102.264 28.8057C103.748 30.1308 104.491 31.914 104.494 34.1551C104.507 34.5883 104.461 35.0213 104.357 35.4421H93.7766C93.7766 35.9001 94.1156 36.3947 94.7888 36.8756C95.5843 37.3952 96.5237 37.6501 97.4727 37.6038C98.8876 37.6108 100.261 37.125 101.357 36.2298L103.679 39.3488C102.039 41.0068 99.8055 41.8358 96.9781 41.8358C94.3858 41.8174 92.3263 41.103 90.7996 39.6923ZM94.6423 31.3292C94.3875 31.4924 94.1758 31.7145 94.0252 31.9768C93.8745 32.2391 93.7892 32.5338 93.7766 32.8361H99.4146C99.4003 32.5316 99.3119 32.2352 99.1571 31.9726C99.0022 31.71 98.7856 31.4892 98.5261 31.3292C97.9421 30.9699 97.2699 30.7796 96.5842 30.7796C95.8985 30.7796 95.2262 30.9699 94.6423 31.3292Z" fill="#F5F7FA"/>
<path d="M8.30743 20.1719H2.63281V25.8511V38.7667H8.30743V25.8511H16.5148V20.1719H8.30743Z" fill="#F5F7FA"/>
<path d="M14.2113 27.2344H11.5228H9.66797V29.0939V31.7778" fill="#F5F7FA"/>
<path d="M43.905 5.92188H46.4423L53.7016 21.7366L60.9884 5.92188H63.5486V24.6678H61.2586V10.4378H61.1258L54.5718 24.6678H52.8589L46.3095 10.4378H46.1767V24.6678H43.8867L43.905 5.92188Z" fill="#F5F7FA"/>
<path d="M64.9219 17.8068C64.9219 13.2268 68.4897 10.6758 72.0529 10.6758C75.6162 10.6758 79.1794 13.2131 79.1794 17.8068C79.1794 22.4005 75.6162 24.9195 72.0529 24.9195C68.4897 24.9195 64.9219 22.4005 64.9219 17.8068ZM76.9627 17.8068C76.9627 14.5596 74.5857 12.7093 72.0529 12.7093C69.5202 12.7093 67.1386 14.5413 67.1386 17.8068C67.1386 21.0723 69.5019 22.9043 72.0529 22.9043C74.604 22.9043 76.9627 21.054 76.9627 17.8068Z" fill="#F5F7FA"/>
<path d="M92.7492 16.5873V24.6665H90.5324V16.8805C90.5324 14.1325 88.8928 12.6806 86.7036 12.6806C84.5143 12.6806 82.7831 14.1325 82.7831 16.9034V24.6894H80.5664V10.9494H82.7831V13.1936C83.4976 11.8745 84.9998 10.6837 87.3631 10.6837C90.2668 10.67 92.7492 12.4699 92.7492 16.5873Z" fill="#F5F7FA"/>
<path d="M97.8195 12.7615V21.4635C97.8195 22.3062 98.2409 22.8375 99.2714 22.8375C99.6961 22.8336 100.117 22.7529 100.513 22.5993V24.3718C99.9631 24.7082 99.3237 24.868 98.6806 24.8298C96.8486 24.8298 95.6211 23.9367 95.6211 21.8757V12.7615H93.7891V10.9295H95.6211V7.42578H97.8378V10.9387H100.558V12.7707L97.8195 12.7615Z" fill="#F5F7FA"/>
<path d="M115.406 10.9336L109.571 24.6736L107.382 29.6796H105.188L107.478 24.5317L101.68 10.9336H103.97L108.55 21.9256L113.13 10.9336H115.406Z" fill="#F5F7FA"/>
<path d="M110.188 36.1484V39.6705C110.205 39.9763 110.154 40.2821 110.038 40.5658C109.923 40.8494 109.745 41.1037 109.519 41.3101C109.054 41.7099 108.456 41.9207 107.843 41.9009C107.232 41.9216 106.637 41.7105 106.176 41.3101C105.95 41.1031 105.773 40.8487 105.658 40.5652C105.542 40.2817 105.49 39.9762 105.507 39.6705V36.1484H106.762V39.6705C106.751 39.8291 106.773 39.9883 106.827 40.138C106.881 40.2877 106.964 40.4247 107.073 40.5407C107.174 40.6416 107.294 40.7209 107.426 40.7737C107.559 40.8264 107.7 40.8516 107.843 40.8475C107.987 40.8514 108.13 40.8258 108.264 40.7722C108.398 40.7187 108.52 40.6383 108.621 40.5361C108.731 40.4212 108.815 40.2851 108.869 40.1362C108.924 39.9872 108.947 39.8287 108.937 39.6705V36.1484H110.188Z" fill="#F5F7FA"/>
<path d="M112.214 39.2216V41.8093H110.977V36.1484H112.214V38.7453L113.886 36.1484H115.173V36.3133L113.409 38.9239L114.124 40.1788C114.222 40.3811 114.354 40.5653 114.513 40.7239C114.63 40.8077 114.772 40.8496 114.916 40.8429C115.057 40.8301 115.192 40.7829 115.31 40.7055L115.768 41.5941C115.442 41.7996 115.063 41.9062 114.678 41.9009C114.009 41.9009 113.478 41.5162 113.084 40.7513L112.219 39.2079L112.214 39.2216Z" fill="#F5F7FA"/>
</g>
</g>
<defs>
<clipPath id="clip0_524_21671">
<rect width="116" height="47" fill="white" transform="translate(0.96875 0.5)"/>
</clipPath>
<clipPath id="clip1_524_21671">
<rect width="116" height="47" fill="white" transform="translate(0.96875 0.5)"/>
</clipPath>
</defs>
</svg>
