<svg width="84" height="84" viewBox="0 0 84 84" fill="none" xmlns="http://www.w3.org/2000/svg">
<path fill-rule="evenodd" clip-rule="evenodd" d="M15.6523 26.4296L13.8646 24.6728C13.3972 24.2106 13.1302 23.5787 13.1251 22.916C13.1199 22.2533 13.3819 21.6163 13.8494 21.1489L29.0239 5.97431C29.4913 5.51199 30.1232 5.25 30.7807 5.25C31.4382 5.25 32.0701 5.51199 32.5324 5.97431L47.7069 21.1489C48.1796 21.6164 48.4415 22.2534 48.4364 22.916C48.4313 23.5787 48.1641 24.2105 47.6915 24.6728V24.678L45.9038 26.4348C44.9331 27.3851 43.3765 27.38 42.4108 26.4194V26.4142L34.5204 18.5238V42.8789C34.5204 43.5363 34.2584 44.1682 33.7909 44.6357C33.3286 45.098 32.6968 45.36 32.0392 45.36H29.5221C28.8646 45.36 28.2327 45.098 27.7653 44.6357C27.3029 44.1682 27.041 43.5364 27.041 42.8789V18.529L19.1506 26.4194C18.1849 27.38 16.6284 27.3851 15.6575 26.4348L15.6523 26.4296ZM36.3083 58.5612L38.096 56.8044C39.0668 55.8541 40.6233 55.8592 41.589 56.8198V56.825L49.4794 64.7154V40.3603C49.4794 38.9888 50.589 37.8792 51.9606 37.8792H54.4777C55.1352 37.8792 55.7671 38.1412 56.2345 38.6035C56.6969 39.0709 56.9589 39.7028 56.9589 40.3603V64.7153L64.8493 56.8198C65.8149 55.8592 67.3714 55.8541 68.3423 56.8044L68.3475 56.8095L70.1352 58.5663C70.6026 59.0286 70.8749 59.6605 70.8749 60.3231C70.88 60.9859 70.618 61.6229 70.1506 62.0903L54.976 77.2649C54.0051 78.2306 52.4332 78.2306 51.4674 77.2649L36.2929 62.0903C35.8203 61.6228 35.5634 60.9858 35.5634 60.3231C35.5686 59.6605 35.8357 59.0287 36.3083 58.5663V58.5612Z" fill="url(#paint0_linear_524_20770)"/>
<defs>
<linearGradient id="paint0_linear_524_20770" x1="42" y1="5.25" x2="42" y2="77.9892" gradientUnits="userSpaceOnUse">
<stop stop-color="#0BE6E6"/>
<stop offset="1" stop-color="#0B9292" stop-opacity="0.45"/>
</linearGradient>
</defs>
</svg>
