<svg width="322" height="322" viewBox="0 0 322 322" fill="none" xmlns="http://www.w3.org/2000/svg">
<g clip-path="url(#clip0_806_11116)">
<path d="M106.07 260.209C65.1337 260.209 31.8281 226.905 31.8281 185.97C31.8281 145.035 65.1326 111.727 106.07 111.727C147.006 111.727 180.313 145.031 180.313 185.97C180.313 226.909 147.009 260.209 106.07 260.209ZM106.07 120.383C69.9057 120.383 40.4846 149.806 40.4846 185.97C40.4846 222.134 69.9057 251.553 106.07 251.553C142.233 251.553 171.657 222.132 171.657 185.97C171.657 149.808 142.233 120.383 106.07 120.383Z" fill="url(#paint0_linear_806_11116)"/>
<path d="M113.562 181.642H109.317V165.328H127.878V156.671H109.317V147.766H102.825V156.671H98.5822C89.3118 156.671 81.7695 164.213 81.7695 173.484C81.7695 182.754 89.3118 190.296 98.5822 190.296H102.825V206.607H84.264V215.263H102.825V224.169H109.317V215.263H113.562C122.831 215.263 130.372 207.723 130.372 198.455C130.372 189.187 122.83 181.642 113.562 181.642ZM98.5801 181.642C94.0828 181.642 90.4227 177.982 90.4227 173.485C90.4227 168.988 94.0828 165.328 98.5801 165.328H102.823V181.642H98.5801ZM113.562 206.608H109.317V190.298H113.562C118.059 190.298 121.717 193.958 121.717 198.455C121.717 202.952 118.059 206.608 113.562 206.608Z" fill="url(#paint1_linear_806_11116)"/>
<path d="M237.739 210.272V205.944C237.739 195.298 229.08 186.633 218.432 186.633H213.437C202.79 186.633 194.13 195.297 194.13 205.944L196.412 217.677H187.719V224.168H197.616C198.334 229.317 198.06 234.628 196.797 239.667L192.917 255.217H223.424C231.32 255.217 237.739 248.797 237.739 240.902V236.574H229.083V240.902C229.083 244.021 226.542 246.561 223.423 246.561H203.998L205.194 241.769C206.627 236.049 207.012 230.038 206.34 224.169H224.171V217.678H205.215L202.794 205.552C203.001 199.86 207.697 195.29 213.436 195.29H218.431C224.305 195.29 229.082 200.071 229.082 205.945V210.273H237.738L237.739 210.272Z" fill="url(#paint2_linear_806_11116)"/>
<path d="M195.957 26.834C155.019 26.834 121.715 60.1384 121.715 101.075C121.715 103.757 121.86 106.431 122.147 109.09C125.24 109.736 128.265 110.564 131.213 111.563C130.652 108.099 130.37 104.592 130.37 101.075C130.37 64.9105 159.793 35.4904 195.957 35.4904C232.121 35.4904 261.54 64.9105 261.54 101.075C261.54 118.459 254.743 134.866 242.681 147.085C245.127 147.973 247.541 148.989 249.881 150.116C250.3 150.318 250.719 150.524 251.135 150.733C263.361 137.195 270.197 119.627 270.197 101.075C270.197 60.1384 236.891 26.834 195.957 26.834Z" fill="url(#paint3_linear_806_11116)"/>
<path d="M190.963 75.4416H200.95C204.728 75.4416 208.118 77.3414 210.02 80.5238L212.238 84.2386L219.669 79.7961L217.45 76.0813C213.972 70.2617 207.801 66.7852 200.95 66.7852H190.963C180.316 66.7852 171.655 75.447 171.655 86.0944V87.8418H162.75V94.3333H171.655V107.815H162.75V114.307H171.655V116.054C171.655 126.703 180.315 135.366 190.963 135.366H200.95C207.805 135.366 213.972 131.889 217.45 126.065L219.669 122.351L212.238 117.912L210.02 121.627C208.118 124.81 204.728 126.709 200.95 126.709H190.963C185.088 126.709 180.312 121.929 180.312 116.054V114.307H199.205V107.815H180.312V94.3333H199.205V87.8418H180.312V86.0944C180.312 80.2201 185.088 75.4416 190.963 75.4416Z" fill="url(#paint4_linear_806_11116)"/>
<path d="M290.173 220.924C290.173 261.863 256.867 295.167 215.934 295.167C186.917 295.167 160.51 277.851 148.539 252.004C151.023 250.402 153.41 248.663 155.691 246.799C165.903 270.506 189.709 286.511 215.934 286.511C252.095 286.511 281.516 257.091 281.516 220.924C281.516 184.757 252.095 155.341 215.934 155.341C203.688 155.341 192.006 158.646 181.752 164.961C180.957 162.099 180.004 159.302 178.9 156.58C190.104 150.081 202.728 146.686 215.934 146.686C224.039 146.686 231.847 147.992 239.155 150.405C242.202 151.41 245.162 152.608 248.02 153.984C272.935 165.975 290.173 191.475 290.173 220.924Z" fill="url(#paint5_linear_806_11116)"/>
</g>
<defs>
<linearGradient id="paint0_linear_806_11116" x1="106.071" y1="111.727" x2="106.071" y2="260.209" gradientUnits="userSpaceOnUse">
<stop stop-color="#0BE6E6"/>
<stop offset="1" stop-color="#0B9292" stop-opacity="0.45"/>
</linearGradient>
<linearGradient id="paint1_linear_806_11116" x1="106.071" y1="147.766" x2="106.071" y2="224.169" gradientUnits="userSpaceOnUse">
<stop stop-color="#0BE6E6"/>
<stop offset="1" stop-color="#0B9292" stop-opacity="0.45"/>
</linearGradient>
<linearGradient id="paint2_linear_806_11116" x1="212.729" y1="186.633" x2="212.729" y2="255.217" gradientUnits="userSpaceOnUse">
<stop stop-color="#0BE6E6"/>
<stop offset="1" stop-color="#0B9292" stop-opacity="0.45"/>
</linearGradient>
<linearGradient id="paint3_linear_806_11116" x1="195.956" y1="26.834" x2="195.956" y2="150.733" gradientUnits="userSpaceOnUse">
<stop stop-color="#0BE6E6"/>
<stop offset="1" stop-color="#0B9292" stop-opacity="0.45"/>
</linearGradient>
<linearGradient id="paint4_linear_806_11116" x1="191.209" y1="66.7852" x2="191.209" y2="135.366" gradientUnits="userSpaceOnUse">
<stop stop-color="#0BE6E6"/>
<stop offset="1" stop-color="#0B9292" stop-opacity="0.45"/>
</linearGradient>
<linearGradient id="paint5_linear_806_11116" x1="219.356" y1="146.686" x2="219.356" y2="295.167" gradientUnits="userSpaceOnUse">
<stop stop-color="#0BE6E6"/>
<stop offset="1" stop-color="#0B9292" stop-opacity="0.45"/>
</linearGradient>
<clipPath id="clip0_806_11116">
<rect width="322" height="322" fill="white"/>
</clipPath>
</defs>
</svg>
