<svg width="30" height="24" viewBox="0 0 30 24" fill="none" xmlns="http://www.w3.org/2000/svg">
<path d="M28.3346 7.83341H1.66797M28.3346 9.16675V5.43342C28.3346 3.93994 28.3346 3.19321 28.044 2.62278C27.7883 2.12101 27.3804 1.71306 26.8786 1.4574C26.3082 1.16675 25.5614 1.16675 24.068 1.16675H5.93464C4.44116 1.16675 3.69443 1.16675 3.12399 1.4574C2.62223 1.71306 2.21428 2.12101 1.95862 2.62277C1.66797 3.1932 1.66797 3.93994 1.66797 5.43342V15.5667C1.66797 17.0602 1.66797 17.807 1.95862 18.3774C2.21428 18.8792 2.62223 19.2871 3.12399 19.5428C3.69443 19.8334 4.44116 19.8334 5.93463 19.8334H14.3346M23.0013 22.5001C23.0013 22.5001 27.0013 20.5935 27.0013 17.7337V14.3973L24.0845 13.355C23.3837 13.104 22.6173 13.104 21.9165 13.355L19.0013 14.3973V17.7337C19.0013 20.5935 23.0013 22.5001 23.0013 22.5001Z" stroke="url(#paint0_linear_1332_866)" stroke-width="2" stroke-linecap="round" stroke-linejoin="round"/>
<defs>
<linearGradient id="paint0_linear_1332_866" x1="15.0013" y1="1.16675" x2="15.0013" y2="22.5001" gradientUnits="userSpaceOnUse">
<stop stop-color="#05A6A6"/>
<stop offset="1" stop-color="#0D5B6A"/>
</linearGradient>
</defs>
</svg>
