<svg width="30" height="24" viewBox="0 0 30 24" fill="none" xmlns="http://www.w3.org/2000/svg">
<path d="M6.33073 22.6667H9.66406M24.0641 4.29069H19.9973M9.66406 4.00004H5.93073C4.43726 4.00004 3.69052 4.00004 3.12009 4.29069C2.61832 4.54635 2.21037 4.9543 1.95471 5.45607C1.66406 6.0265 1.66406 6.77323 1.66406 8.26671V13.0667C1.66406 14.5602 1.66406 15.3069 1.95471 15.8773C2.21037 16.3791 2.61832 16.7871 3.12009 17.0427C3.69052 17.3334 4.43726 17.3334 5.93073 17.3334H9.66406M21.9973 19.4999C21.9973 19.4999 21.9973 19.4999 22.4973 19.4999M19.2641 22.6667H24.0641C25.5575 22.6667 26.3043 22.6667 26.8747 22.3761C27.3765 22.1204 27.7844 21.7124 28.0401 21.2107C28.3307 20.6403 28.3307 19.8935 28.3307 18.4V5.60004C28.3307 4.10657 28.3307 3.35983 28.0401 2.7894C27.7844 2.28763 27.3765 1.87969 26.8747 1.62402C26.3043 1.33337 25.5575 1.33337 24.0641 1.33337H19.2641C17.7706 1.33337 17.0239 1.33337 16.4534 1.62402C15.9517 1.87969 15.5437 2.28763 15.288 2.7894C14.9974 3.35983 14.9974 4.10657 14.9974 5.60004V18.4C14.9974 19.8935 14.9974 20.6403 15.288 21.2107C15.5437 21.7124 15.9517 22.1204 16.4534 22.3761C17.0239 22.6667 17.7706 22.6667 19.2641 22.6667Z" stroke="white" stroke-width="2" stroke-linecap="round" stroke-linejoin="round"/>
</svg>
