<svg width="32" height="32" viewBox="0 0 32 32" fill="none" xmlns="http://www.w3.org/2000/svg">
<g clip-path="url(#clip0_850_13509)">
<path d="M10.5421 25.8576C6.47393 25.8576 3.16406 22.5479 3.16406 18.4798C3.16406 14.4117 6.47382 11.1016 10.5421 11.1016C14.6104 11.1016 17.9203 14.4113 17.9203 18.4798C17.9203 22.5483 14.6106 25.8576 10.5421 25.8576ZM10.5421 11.9618C6.94817 11.9618 4.02433 14.8859 4.02433 18.4798C4.02433 22.0737 6.94817 24.9973 10.5421 24.9973C14.136 24.9973 17.0601 22.0735 17.0601 18.4798C17.0601 14.8861 14.136 11.9618 10.5421 11.9618Z" fill="white"/>
<path d="M11.2845 18.0502H10.8626V16.4289H12.7072V15.5686H10.8626V14.6836H10.2175V15.5686H9.79583C8.87455 15.5686 8.125 16.3182 8.125 17.2394C8.125 18.1607 8.87455 18.9103 9.79583 18.9103H10.2175V20.5312H8.37289V21.3914H10.2175V22.2764H10.8626V21.3914H11.2845C12.2056 21.3914 12.9551 20.6421 12.9551 19.721C12.9551 18.8 12.2055 18.0502 11.2845 18.0502ZM9.79561 18.0502C9.34868 18.0502 8.98495 17.6865 8.98495 17.2395C8.98495 16.7926 9.34868 16.4289 9.79561 16.4289H10.2173V18.0502H9.79561ZM11.2845 20.5313H10.8626V18.9104H11.2845C11.7314 18.9104 12.0949 19.2741 12.0949 19.721C12.0949 20.168 11.7314 20.5313 11.2845 20.5313Z" fill="white"/>
<path d="M23.6272 20.8961V20.466C23.6272 19.408 22.7666 18.5469 21.7085 18.5469H21.2121C20.1541 18.5469 19.2934 19.4079 19.2934 20.466L19.5201 21.632H18.6562V22.2771H19.6398C19.7112 22.7888 19.684 23.3166 19.5584 23.8174L19.1728 25.3627H22.2046C22.9893 25.3627 23.6272 24.7247 23.6272 23.94V23.51H22.767V23.94C22.767 24.25 22.5145 24.5025 22.2045 24.5025H20.2741L20.3929 24.0262C20.5353 23.4578 20.5736 22.8605 20.5068 22.2772H22.2789V21.6321H20.395L20.1544 20.4271C20.175 19.8613 20.6416 19.4072 21.212 19.4072H21.7084C22.2922 19.4072 22.7669 19.8823 22.7669 20.4661V20.8962H23.6271L23.6272 20.8961Z" fill="white"/>
<path d="M19.4758 2.66797C15.4074 2.66797 12.0977 5.97773 12.0977 10.046C12.0977 10.3124 12.1121 10.5783 12.1406 10.8425C12.4479 10.9067 12.7486 10.9889 13.0415 11.0882C12.9859 10.744 12.9578 10.3954 12.9578 10.046C12.9578 6.45197 15.8819 3.52824 19.4758 3.52824C23.0697 3.52824 25.9933 6.45197 25.9933 10.046C25.9933 11.7736 25.3178 13.4041 24.1191 14.6184C24.3622 14.7066 24.6021 14.8076 24.8346 14.9196C24.8763 14.9396 24.9179 14.9601 24.9593 14.9809C26.1742 13.6355 26.8536 11.8896 26.8536 10.046C26.8536 5.97773 23.5437 2.66797 19.4758 2.66797Z" fill="white"/>
<path d="M18.9795 7.49699H19.972C20.3475 7.49699 20.6844 7.68579 20.8734 8.00205L21.0939 8.37123L21.8323 7.92973L21.6118 7.56056C21.2661 6.98221 20.6529 6.63672 19.972 6.63672H18.9795C17.9215 6.63672 17.0608 7.49752 17.0608 8.55565V8.72931H16.1758V9.37443H17.0608V10.7143H16.1758V11.3594H17.0608V11.533C17.0608 12.5913 17.9214 13.4522 18.9795 13.4522H19.972C20.6533 13.4522 21.2661 13.1067 21.6118 12.5279L21.8323 12.1587L21.0939 11.7177L20.8734 12.0869C20.6844 12.4031 20.3475 12.5919 19.972 12.5919H18.9795C18.3957 12.5919 17.9211 12.1168 17.9211 11.533V11.3594H19.7986V10.7143H17.9211V9.37443H19.7986V8.72931H17.9211V8.55565C17.9211 7.97187 18.3957 7.49699 18.9795 7.49699Z" fill="white"/>
<path d="M28.8371 21.9558C28.8371 26.0243 25.5273 29.3341 21.4593 29.3341C18.5757 29.3341 15.9514 27.6132 14.7617 25.0446C15.0085 24.8853 15.2458 24.7125 15.4724 24.5272C16.4874 26.8833 18.8531 28.4738 21.4593 28.4738C25.053 28.4738 27.9769 25.5501 27.9769 21.9558C27.9769 18.3616 25.053 15.4383 21.4593 15.4383C20.2424 15.4383 19.0814 15.7667 18.0624 16.3943C17.9834 16.1099 17.8887 15.8319 17.779 15.5614C18.8924 14.9155 20.147 14.5781 21.4593 14.5781C22.2649 14.5781 23.0408 14.7079 23.7671 14.9477C24.0699 15.0477 24.364 15.1667 24.648 15.3035C27.1241 16.4951 28.8371 19.0292 28.8371 21.9558Z" fill="white"/>
</g>
<defs>
<clipPath id="clip0_850_13509">
<rect width="32" height="32" fill="white"/>
</clipPath>
</defs>
</svg>
