<svg width="101" height="20" viewBox="0 0 101 20" fill="none" xmlns="http://www.w3.org/2000/svg">
<mask id="mask0_524_21636" style="mask-type:luminance" maskUnits="userSpaceOnUse" x="0" y="0" width="101" height="20">
<path d="M100.801 0H0.800781V20H100.801V0Z" fill="white"/>
</mask>
<g mask="url(#mask0_524_21636)">
<path d="M59.1613 2.66797C62.6564 2.66797 65.7328 5.17418 65.7328 8.86201C65.7328 12.5498 62.6564 15.0809 59.1613 15.0809C55.6663 15.0809 52.5898 12.5996 52.5898 8.86201C52.5898 5.12443 55.6882 2.66797 59.1613 2.66797ZM59.1613 12.1114C60.8854 12.1114 62.3534 10.7183 62.3534 8.86201C62.3534 7.00565 60.8854 5.63749 59.1613 5.63749C57.4373 5.63749 55.9692 7.00565 55.9692 8.86201C55.9692 10.7183 57.4622 12.1114 59.1613 12.1114Z" fill="#F5F7FA"/>
<path d="M66.6445 2.66797H70.1176V4.54607C71.1203 3.15304 72.379 2.66797 73.8251 2.66797C77.1823 2.66797 78.0914 5.33588 78.0914 8.35201V14.826H74.6184V8.42042C74.6184 6.77245 74.0125 5.51933 72.4039 5.51933C70.7954 5.51933 70.1208 6.79421 70.1208 8.44224V14.8228H66.6476V2.66797H66.6445Z" fill="#F5F7FA"/>
<path d="M83.1332 2.6967H86.4445V5.41124H83.1332V11.2104C83.1332 11.7204 83.343 12.2551 84.0203 12.2551C84.6983 12.2551 84.9294 11.6985 84.9294 11.142C84.9294 10.7937 84.8354 10.3055 84.7673 10.122H87.5188C87.7279 10.5636 87.7998 11.1202 87.7998 11.5369C87.7998 13.2999 86.6347 15.0879 83.8142 15.0879C81.7157 15.0879 79.6665 14.3447 79.6665 10.887L79.6445 0.00390625H83.14V2.6998L83.1332 2.6967Z" fill="#F5F7FA"/>
<path d="M4.27393 2.66797H0.800781V14.826H4.27393V2.66797Z" fill="#F5F7FA"/>
<path d="M14.9028 2.66797C13.7597 2.66797 12.0356 2.92294 11.1266 4.66423C10.5207 3.45776 9.28391 2.66797 7.4661 2.66797C6.65091 2.66797 6.01375 2.91672 5.42969 3.32406V5.69036C5.61084 5.60329 5.8857 5.52245 6.25425 5.52245C7.79406 5.52245 8.25943 6.79732 8.25943 8.42353V14.8291H11.7076V8.44845C11.7076 6.84707 12.173 5.52555 13.6878 5.52555C15.2026 5.52555 15.693 6.80043 15.693 8.42664V14.8322H19.1661V8.35823C19.1661 5.3421 18.2572 2.67418 14.8997 2.67418L14.9028 2.66797Z" fill="#F5F7FA"/>
<path d="M37.0396 2.66797H33.5664V14.826H37.0396V2.66797Z" fill="#F5F7FA"/>
<path d="M47.6644 2.66797C46.5213 2.66797 44.7972 2.92294 43.8884 4.66423C43.2824 3.45776 42.0456 2.66797 40.2278 2.66797C39.4126 2.66797 38.7754 2.91672 38.1914 3.32406V5.69036C38.3725 5.60329 38.6474 5.52245 39.016 5.52245C40.5557 5.52245 41.0211 6.79732 41.0211 8.42353V14.8291H44.4693V8.44845C44.4693 6.84707 44.9347 5.52555 46.4495 5.52555C47.9643 5.52555 48.4547 6.80043 48.4547 8.42664V14.8322H51.9278V8.35823C51.9278 5.3421 51.0189 2.67418 47.6613 2.67418L47.6644 2.66797Z" fill="#F5F7FA"/>
<path d="M24.643 8.20277L22.2193 2.66797H18.7461L22.8689 12.1766L24.643 8.20277Z" fill="#F5F7FA"/>
<path d="M28.8139 2.66797L21.0742 20H24.5568L32.2964 2.66797H28.8139Z" fill="#F5F7FA"/>
<path d="M93.147 8.20277L90.7235 2.66797H87.25L91.3758 12.1766L93.147 8.20277Z" fill="#F5F7FA"/>
<path d="M97.3192 2.66797L89.582 20H93.0646L100.802 2.66797H97.3192Z" fill="#F5F7FA"/>
</g>
</svg>
