<svg width="22" height="30" viewBox="0 0 22 30" fill="none" xmlns="http://www.w3.org/2000/svg">
<path d="M15.0013 1.66602V3.53268C15.0013 4.27942 15.0013 4.65279 14.856 4.938C14.7281 5.18889 14.5242 5.39286 14.2733 5.52069C13.9881 5.66602 13.6147 5.66602 12.868 5.66602H9.13463C8.3879 5.66602 8.01453 5.66602 7.72931 5.52069C7.47843 5.39286 7.27446 5.18889 7.14663 4.938C7.0013 4.65279 7.0013 4.27942 7.0013 3.53268V1.66602M5.93463 28.3327H16.068C17.5614 28.3327 18.3082 28.3327 18.8786 28.042C19.3804 27.7864 19.7883 27.3784 20.044 26.8767C20.3346 26.3062 20.3346 25.5595 20.3346 24.066V5.93268C20.3346 4.43921 20.3346 3.69247 20.044 3.12204C19.7883 2.62028 19.3804 2.21233 18.8786 1.95666C18.3082 1.66602 17.5614 1.66602 16.068 1.66602H5.93464C4.44116 1.66602 3.69443 1.66602 3.12399 1.95666C2.62223 2.21233 2.21428 2.62028 1.95862 3.12204C1.66797 3.69247 1.66797 4.43921 1.66797 5.93268V24.066C1.66797 25.5595 1.66797 26.3062 1.95862 26.8767C2.21428 27.3784 2.62223 27.7864 3.12399 28.042C3.69443 28.3327 4.44116 28.3327 5.93463 28.3327Z" stroke="white" stroke-width="2" stroke-linecap="round" stroke-linejoin="round"/>
</svg>
