<svg width="66" height="66" viewBox="0 0 66 66" fill="none" xmlns="http://www.w3.org/2000/svg">
<path d="M18.9453 1.5H18.2453C12.3648 1.5 9.42449 1.5 7.17841 2.64443C5.20271 3.6511 3.59641 5.2574 2.58974 7.2331C1.44531 9.47917 1.44531 12.4194 1.44531 18.3V19M18.9453 64.5H18.2453C12.3648 64.5 9.42449 64.5 7.17841 63.3556C5.20271 62.3489 3.59641 60.7426 2.58974 58.7669C1.44531 56.5208 1.44531 53.5806 1.44531 47.7V47M64.4453 19V18.3C64.4453 12.4194 64.4453 9.47917 63.3009 7.2331C62.2942 5.2574 60.6879 3.6511 58.7122 2.64443C56.4661 1.5 53.5259 1.5 47.6453 1.5H46.9453M64.4453 47V47.7C64.4453 53.5806 64.4453 56.5208 63.3009 58.7669C62.2942 60.7426 60.6879 62.3489 58.7122 63.3556C56.4661 64.5 53.5259 64.5 47.6453 64.5H46.9453M1.44531 33H1.48031M17.1953 33H17.2303M48.6953 33H48.7303M32.9453 33H32.9803M64.4453 33H64.4803" stroke="url(#paint0_linear_1068_949)" stroke-width="2" stroke-linecap="round" stroke-linejoin="round"/>
<defs>
<linearGradient id="paint0_linear_1068_949" x1="32.9628" y1="1.5" x2="32.9628" y2="64.5" gradientUnits="userSpaceOnUse">
<stop stop-color="#0BE6E6"/>
<stop offset="1" stop-color="#0B9292" stop-opacity="0.45"/>
</linearGradient>
</defs>
</svg>
