<svg width="302" height="302" viewBox="0 0 302 302" fill="none" xmlns="http://www.w3.org/2000/svg">
<mask id="path-1-outside-1_1351_3126" maskUnits="userSpaceOnUse" x="0" y="0" width="302" height="302" fill="black">
<rect fill="white" width="302" height="302"/>
<path d="M262.243 226.647C253.966 226.647 246.099 229.47 239.777 234.63L213.65 208.508C226.78 194.204 235.101 175.388 235.969 154.69H259.979C261.714 164.362 270.183 171.698 280.298 171.698C291.708 171.698 301 162.407 301 151C301 139.593 291.708 130.302 280.298 130.302C270.139 130.302 261.699 137.682 259.979 147.31H235.969C235.102 126.612 226.78 107.796 213.65 93.4924L238.38 68.7669C244.364 73.0152 251.481 75.3525 258.965 75.3525C268.492 75.3525 277.402 71.6628 284.151 64.9303C290.885 58.1975 294.575 49.2746 294.575 39.7491C294.575 30.2236 290.884 21.3154 284.151 14.5679C277.417 7.83513 268.492 4.14567 258.965 4.14567C249.437 4.14567 240.527 7.8354 233.778 14.5679C227.044 21.3007 223.354 30.2236 223.354 39.7491C223.354 48.8192 226.736 57.3598 232.911 63.9455L208.519 88.333C194.213 75.2058 175.393 66.8857 154.691 66.0182V42.0131C164.365 40.2784 171.702 31.8113 171.702 21.6977C171.702 10.2906 162.409 1 151 1C139.591 1 130.298 10.2906 130.298 21.6977C130.298 31.8554 137.679 40.2933 147.309 42.0131V66.0182C126.608 66.8856 107.788 75.2058 93.4811 88.333L69.0888 63.9455C75.2199 57.3158 78.6459 48.8192 78.6459 39.7491C78.6459 30.2236 74.9554 21.3154 68.2216 14.5679C61.4875 7.83513 52.5628 4.14567 43.0355 4.14567C33.5081 4.14567 24.5981 7.8354 17.8493 14.5679C11.1153 21.3007 7.42507 30.2236 7.42507 39.7491C7.42507 49.2746 11.1155 58.1828 17.8493 64.9303C24.5834 71.6631 33.5081 75.3525 43.0355 75.3525C50.5193 75.3525 57.6355 73.0152 63.6198 68.7669L88.3501 93.4924C75.2203 107.796 66.8986 126.612 66.031 147.31H42.0211C40.2861 137.638 31.8174 130.302 21.7018 130.302C10.2925 130.302 1 139.593 1 151C1 162.407 10.2925 171.698 21.7018 171.698C31.8614 171.698 40.301 164.318 42.0211 154.69H66.031C66.8985 175.388 75.2203 194.204 88.3501 208.508L62.223 234.63C55.9007 229.47 48.0348 226.647 39.7567 226.647C30.2294 226.647 21.3193 230.337 14.5706 237.07C7.83647 243.802 4.14629 252.725 4.14629 262.251C4.14629 271.776 7.83674 280.685 14.5706 287.432C21.3047 294.165 30.2294 297.854 39.7567 297.854C49.284 297.854 58.194 294.165 64.9428 287.432C71.6769 280.699 75.3671 271.776 75.3671 262.251C75.3671 253.975 72.5441 246.11 67.3834 239.789L93.5105 213.667C107.817 226.794 126.636 235.114 147.339 235.982V259.987C137.664 261.722 130.328 270.189 130.328 280.302C130.328 291.709 139.62 301 151.029 301C162.439 301 171.731 291.709 171.731 280.302C171.731 270.145 164.35 261.707 154.72 259.987V235.982C175.422 235.114 194.241 226.794 208.548 213.667L234.675 239.789C229.515 246.11 226.692 253.974 226.692 262.251C226.692 271.776 230.382 280.685 237.116 287.432C244.041 294.356 253.186 297.854 262.302 297.854C271.418 297.854 280.563 294.385 287.488 287.432C294.222 280.699 297.912 271.776 297.912 262.251C297.912 252.725 294.222 243.817 287.488 237.07C280.725 230.337 271.756 226.647 262.243 226.647ZM280.313 137.681C287.694 137.681 293.678 143.664 293.678 151.044C293.678 158.423 287.694 164.406 280.313 164.406C272.933 164.406 266.948 158.423 266.948 151.044C266.948 143.664 272.962 137.681 280.313 137.681ZM21.7183 164.406C14.3376 164.406 8.35326 158.423 8.35326 151.044C8.35326 143.664 14.3372 137.681 21.7183 137.681C29.0991 137.681 35.0834 143.664 35.0834 151.044C35.0834 158.423 29.0697 164.406 21.7183 164.406ZM238.94 19.8157C244.468 14.2883 251.702 11.5396 258.965 11.5396C266.229 11.5396 273.463 14.2886 278.991 19.8157C290.018 30.8408 290.018 48.7895 278.991 59.815C267.963 70.8401 250.011 70.8401 238.984 59.815C227.912 48.7899 227.913 30.8412 238.94 19.8157ZM137.652 21.7708C137.652 14.3915 143.636 8.40838 151.017 8.40838C158.398 8.40838 164.382 14.3911 164.382 21.7708C164.382 29.1501 158.398 35.1333 151.017 35.1333C143.636 35.1333 137.652 29.1208 137.652 21.7708ZM23.0846 59.8282C12.0574 48.8031 12.0574 30.8545 23.0846 19.829C28.6131 14.3016 35.8467 11.5529 43.11 11.5529C50.3733 11.5529 57.6072 14.3018 63.1354 19.829C74.1626 30.8541 74.1626 48.8028 63.1354 59.8282C52.0641 70.8827 34.1134 70.8827 23.0846 59.8282ZM59.7832 282.268C48.7559 293.293 30.8037 293.293 19.7761 282.268C8.74886 271.243 8.74886 253.295 19.7761 242.269C25.3046 236.742 32.5382 233.993 39.8015 233.993C47.0648 233.993 54.2987 236.742 59.8269 242.269C70.8394 253.294 70.8399 271.243 59.7832 282.268ZM164.38 280.313C164.38 287.693 158.396 293.676 151.015 293.676C143.634 293.676 137.65 287.693 137.65 280.313C137.65 272.934 143.634 266.951 151.015 266.951C158.396 266.951 164.38 272.963 164.38 280.313ZM151.015 228.791C108.139 228.791 73.2514 193.908 73.2514 151.043C73.2514 108.178 108.141 73.2948 151.015 73.2948C193.888 73.2948 228.778 108.178 228.778 151.043C228.778 193.908 193.888 228.791 151.015 228.791ZM282.268 282.27C271.24 293.295 253.288 293.295 242.26 282.27C231.233 271.245 231.233 253.296 242.26 242.271C247.789 236.743 255.023 233.995 262.286 233.995C269.549 233.995 276.783 236.744 282.311 242.271C293.294 253.296 293.295 271.245 282.268 282.27ZM151.015 142.192C126.211 142.192 107.729 159.803 106.069 185.013C105.878 187.88 106.863 190.467 108.848 192.496C120.067 203.903 135.049 210.18 151.001 210.18C166.997 210.18 181.98 203.888 193.153 192.496C195.153 190.467 196.123 187.865 195.932 185.013C194.3 159.803 175.82 142.192 151.015 142.192ZM187.978 187.35C178.156 197.317 165.012 202.859 151.015 202.859C137.018 202.859 123.873 197.361 114.052 187.35C113.522 186.821 113.302 186.219 113.375 185.469C114.801 163.948 129.931 149.498 151.015 149.498C172.128 149.498 187.257 163.948 188.654 185.469C188.728 186.263 188.507 186.836 187.978 187.35ZM151.015 137.988C163.733 137.988 174.054 127.639 174.054 114.953C174.054 102.238 163.703 91.9182 151.015 91.9182C138.297 91.9182 127.975 102.267 127.975 114.953C127.975 127.669 138.297 137.988 151.015 137.988ZM151.015 99.2234C159.675 99.2234 166.747 106.265 166.747 114.953C166.747 123.611 159.704 130.682 151.015 130.682C142.355 130.682 135.282 123.64 135.282 114.953C135.282 106.294 142.355 99.2234 151.015 99.2234Z"/>
</mask>
<path d="M262.243 226.647C253.966 226.647 246.099 229.47 239.777 234.63L213.65 208.508C226.78 194.204 235.101 175.388 235.969 154.69H259.979C261.714 164.362 270.183 171.698 280.298 171.698C291.708 171.698 301 162.407 301 151C301 139.593 291.708 130.302 280.298 130.302C270.139 130.302 261.699 137.682 259.979 147.31H235.969C235.102 126.612 226.78 107.796 213.65 93.4924L238.38 68.7669C244.364 73.0152 251.481 75.3525 258.965 75.3525C268.492 75.3525 277.402 71.6628 284.151 64.9303C290.885 58.1975 294.575 49.2746 294.575 39.7491C294.575 30.2236 290.884 21.3154 284.151 14.5679C277.417 7.83513 268.492 4.14567 258.965 4.14567C249.437 4.14567 240.527 7.8354 233.778 14.5679C227.044 21.3007 223.354 30.2236 223.354 39.7491C223.354 48.8192 226.736 57.3598 232.911 63.9455L208.519 88.333C194.213 75.2058 175.393 66.8857 154.691 66.0182V42.0131C164.365 40.2784 171.702 31.8113 171.702 21.6977C171.702 10.2906 162.409 1 151 1C139.591 1 130.298 10.2906 130.298 21.6977C130.298 31.8554 137.679 40.2933 147.309 42.0131V66.0182C126.608 66.8856 107.788 75.2058 93.4811 88.333L69.0888 63.9455C75.2199 57.3158 78.6459 48.8192 78.6459 39.7491C78.6459 30.2236 74.9554 21.3154 68.2216 14.5679C61.4875 7.83513 52.5628 4.14567 43.0355 4.14567C33.5081 4.14567 24.5981 7.8354 17.8493 14.5679C11.1153 21.3007 7.42507 30.2236 7.42507 39.7491C7.42507 49.2746 11.1155 58.1828 17.8493 64.9303C24.5834 71.6631 33.5081 75.3525 43.0355 75.3525C50.5193 75.3525 57.6355 73.0152 63.6198 68.7669L88.3501 93.4924C75.2203 107.796 66.8986 126.612 66.031 147.31H42.0211C40.2861 137.638 31.8174 130.302 21.7018 130.302C10.2925 130.302 1 139.593 1 151C1 162.407 10.2925 171.698 21.7018 171.698C31.8614 171.698 40.301 164.318 42.0211 154.69H66.031C66.8985 175.388 75.2203 194.204 88.3501 208.508L62.223 234.63C55.9007 229.47 48.0348 226.647 39.7567 226.647C30.2294 226.647 21.3193 230.337 14.5706 237.07C7.83647 243.802 4.14629 252.725 4.14629 262.251C4.14629 271.776 7.83674 280.685 14.5706 287.432C21.3047 294.165 30.2294 297.854 39.7567 297.854C49.284 297.854 58.194 294.165 64.9428 287.432C71.6769 280.699 75.3671 271.776 75.3671 262.251C75.3671 253.975 72.5441 246.11 67.3834 239.789L93.5105 213.667C107.817 226.794 126.636 235.114 147.339 235.982V259.987C137.664 261.722 130.328 270.189 130.328 280.302C130.328 291.709 139.62 301 151.029 301C162.439 301 171.731 291.709 171.731 280.302C171.731 270.145 164.35 261.707 154.72 259.987V235.982C175.422 235.114 194.241 226.794 208.548 213.667L234.675 239.789C229.515 246.11 226.692 253.974 226.692 262.251C226.692 271.776 230.382 280.685 237.116 287.432C244.041 294.356 253.186 297.854 262.302 297.854C271.418 297.854 280.563 294.385 287.488 287.432C294.222 280.699 297.912 271.776 297.912 262.251C297.912 252.725 294.222 243.817 287.488 237.07C280.725 230.337 271.756 226.647 262.243 226.647ZM280.313 137.681C287.694 137.681 293.678 143.664 293.678 151.044C293.678 158.423 287.694 164.406 280.313 164.406C272.933 164.406 266.948 158.423 266.948 151.044C266.948 143.664 272.962 137.681 280.313 137.681ZM21.7183 164.406C14.3376 164.406 8.35326 158.423 8.35326 151.044C8.35326 143.664 14.3372 137.681 21.7183 137.681C29.0991 137.681 35.0834 143.664 35.0834 151.044C35.0834 158.423 29.0697 164.406 21.7183 164.406ZM238.94 19.8157C244.468 14.2883 251.702 11.5396 258.965 11.5396C266.229 11.5396 273.463 14.2886 278.991 19.8157C290.018 30.8408 290.018 48.7895 278.991 59.815C267.963 70.8401 250.011 70.8401 238.984 59.815C227.912 48.7899 227.913 30.8412 238.94 19.8157ZM137.652 21.7708C137.652 14.3915 143.636 8.40838 151.017 8.40838C158.398 8.40838 164.382 14.3911 164.382 21.7708C164.382 29.1501 158.398 35.1333 151.017 35.1333C143.636 35.1333 137.652 29.1208 137.652 21.7708ZM23.0846 59.8282C12.0574 48.8031 12.0574 30.8545 23.0846 19.829C28.6131 14.3016 35.8467 11.5529 43.11 11.5529C50.3733 11.5529 57.6072 14.3018 63.1354 19.829C74.1626 30.8541 74.1626 48.8028 63.1354 59.8282C52.0641 70.8827 34.1134 70.8827 23.0846 59.8282ZM59.7832 282.268C48.7559 293.293 30.8037 293.293 19.7761 282.268C8.74886 271.243 8.74886 253.295 19.7761 242.269C25.3046 236.742 32.5382 233.993 39.8015 233.993C47.0648 233.993 54.2987 236.742 59.8269 242.269C70.8394 253.294 70.8399 271.243 59.7832 282.268ZM164.38 280.313C164.38 287.693 158.396 293.676 151.015 293.676C143.634 293.676 137.65 287.693 137.65 280.313C137.65 272.934 143.634 266.951 151.015 266.951C158.396 266.951 164.38 272.963 164.38 280.313ZM151.015 228.791C108.139 228.791 73.2514 193.908 73.2514 151.043C73.2514 108.178 108.141 73.2948 151.015 73.2948C193.888 73.2948 228.778 108.178 228.778 151.043C228.778 193.908 193.888 228.791 151.015 228.791ZM282.268 282.27C271.24 293.295 253.288 293.295 242.26 282.27C231.233 271.245 231.233 253.296 242.26 242.271C247.789 236.743 255.023 233.995 262.286 233.995C269.549 233.995 276.783 236.744 282.311 242.271C293.294 253.296 293.295 271.245 282.268 282.27ZM151.015 142.192C126.211 142.192 107.729 159.803 106.069 185.013C105.878 187.88 106.863 190.467 108.848 192.496C120.067 203.903 135.049 210.18 151.001 210.18C166.997 210.18 181.98 203.888 193.153 192.496C195.153 190.467 196.123 187.865 195.932 185.013C194.3 159.803 175.82 142.192 151.015 142.192ZM187.978 187.35C178.156 197.317 165.012 202.859 151.015 202.859C137.018 202.859 123.873 197.361 114.052 187.35C113.522 186.821 113.302 186.219 113.375 185.469C114.801 163.948 129.931 149.498 151.015 149.498C172.128 149.498 187.257 163.948 188.654 185.469C188.728 186.263 188.507 186.836 187.978 187.35ZM151.015 137.988C163.733 137.988 174.054 127.639 174.054 114.953C174.054 102.238 163.703 91.9182 151.015 91.9182C138.297 91.9182 127.975 102.267 127.975 114.953C127.975 127.669 138.297 137.988 151.015 137.988ZM151.015 99.2234C159.675 99.2234 166.747 106.265 166.747 114.953C166.747 123.611 159.704 130.682 151.015 130.682C142.355 130.682 135.282 123.64 135.282 114.953C135.282 106.294 142.355 99.2234 151.015 99.2234Z" fill="url(#paint0_linear_1351_3126)"/>
<path d="M262.243 226.647C253.966 226.647 246.099 229.47 239.777 234.63L213.65 208.508C226.78 194.204 235.101 175.388 235.969 154.69H259.979C261.714 164.362 270.183 171.698 280.298 171.698C291.708 171.698 301 162.407 301 151C301 139.593 291.708 130.302 280.298 130.302C270.139 130.302 261.699 137.682 259.979 147.31H235.969C235.102 126.612 226.78 107.796 213.65 93.4924L238.38 68.7669C244.364 73.0152 251.481 75.3525 258.965 75.3525C268.492 75.3525 277.402 71.6628 284.151 64.9303C290.885 58.1975 294.575 49.2746 294.575 39.7491C294.575 30.2236 290.884 21.3154 284.151 14.5679C277.417 7.83513 268.492 4.14567 258.965 4.14567C249.437 4.14567 240.527 7.8354 233.778 14.5679C227.044 21.3007 223.354 30.2236 223.354 39.7491C223.354 48.8192 226.736 57.3598 232.911 63.9455L208.519 88.333C194.213 75.2058 175.393 66.8857 154.691 66.0182V42.0131C164.365 40.2784 171.702 31.8113 171.702 21.6977C171.702 10.2906 162.409 1 151 1C139.591 1 130.298 10.2906 130.298 21.6977C130.298 31.8554 137.679 40.2933 147.309 42.0131V66.0182C126.608 66.8856 107.788 75.2058 93.4811 88.333L69.0888 63.9455C75.2199 57.3158 78.6459 48.8192 78.6459 39.7491C78.6459 30.2236 74.9554 21.3154 68.2216 14.5679C61.4875 7.83513 52.5628 4.14567 43.0355 4.14567C33.5081 4.14567 24.5981 7.8354 17.8493 14.5679C11.1153 21.3007 7.42507 30.2236 7.42507 39.7491C7.42507 49.2746 11.1155 58.1828 17.8493 64.9303C24.5834 71.6631 33.5081 75.3525 43.0355 75.3525C50.5193 75.3525 57.6355 73.0152 63.6198 68.7669L88.3501 93.4924C75.2203 107.796 66.8986 126.612 66.031 147.31H42.0211C40.2861 137.638 31.8174 130.302 21.7018 130.302C10.2925 130.302 1 139.593 1 151C1 162.407 10.2925 171.698 21.7018 171.698C31.8614 171.698 40.301 164.318 42.0211 154.69H66.031C66.8985 175.388 75.2203 194.204 88.3501 208.508L62.223 234.63C55.9007 229.47 48.0348 226.647 39.7567 226.647C30.2294 226.647 21.3193 230.337 14.5706 237.07C7.83647 243.802 4.14629 252.725 4.14629 262.251C4.14629 271.776 7.83674 280.685 14.5706 287.432C21.3047 294.165 30.2294 297.854 39.7567 297.854C49.284 297.854 58.194 294.165 64.9428 287.432C71.6769 280.699 75.3671 271.776 75.3671 262.251C75.3671 253.975 72.5441 246.11 67.3834 239.789L93.5105 213.667C107.817 226.794 126.636 235.114 147.339 235.982V259.987C137.664 261.722 130.328 270.189 130.328 280.302C130.328 291.709 139.62 301 151.029 301C162.439 301 171.731 291.709 171.731 280.302C171.731 270.145 164.35 261.707 154.72 259.987V235.982C175.422 235.114 194.241 226.794 208.548 213.667L234.675 239.789C229.515 246.11 226.692 253.974 226.692 262.251C226.692 271.776 230.382 280.685 237.116 287.432C244.041 294.356 253.186 297.854 262.302 297.854C271.418 297.854 280.563 294.385 287.488 287.432C294.222 280.699 297.912 271.776 297.912 262.251C297.912 252.725 294.222 243.817 287.488 237.07C280.725 230.337 271.756 226.647 262.243 226.647ZM280.313 137.681C287.694 137.681 293.678 143.664 293.678 151.044C293.678 158.423 287.694 164.406 280.313 164.406C272.933 164.406 266.948 158.423 266.948 151.044C266.948 143.664 272.962 137.681 280.313 137.681ZM21.7183 164.406C14.3376 164.406 8.35326 158.423 8.35326 151.044C8.35326 143.664 14.3372 137.681 21.7183 137.681C29.0991 137.681 35.0834 143.664 35.0834 151.044C35.0834 158.423 29.0697 164.406 21.7183 164.406ZM238.94 19.8157C244.468 14.2883 251.702 11.5396 258.965 11.5396C266.229 11.5396 273.463 14.2886 278.991 19.8157C290.018 30.8408 290.018 48.7895 278.991 59.815C267.963 70.8401 250.011 70.8401 238.984 59.815C227.912 48.7899 227.913 30.8412 238.94 19.8157ZM137.652 21.7708C137.652 14.3915 143.636 8.40838 151.017 8.40838C158.398 8.40838 164.382 14.3911 164.382 21.7708C164.382 29.1501 158.398 35.1333 151.017 35.1333C143.636 35.1333 137.652 29.1208 137.652 21.7708ZM23.0846 59.8282C12.0574 48.8031 12.0574 30.8545 23.0846 19.829C28.6131 14.3016 35.8467 11.5529 43.11 11.5529C50.3733 11.5529 57.6072 14.3018 63.1354 19.829C74.1626 30.8541 74.1626 48.8028 63.1354 59.8282C52.0641 70.8827 34.1134 70.8827 23.0846 59.8282ZM59.7832 282.268C48.7559 293.293 30.8037 293.293 19.7761 282.268C8.74886 271.243 8.74886 253.295 19.7761 242.269C25.3046 236.742 32.5382 233.993 39.8015 233.993C47.0648 233.993 54.2987 236.742 59.8269 242.269C70.8394 253.294 70.8399 271.243 59.7832 282.268ZM164.38 280.313C164.38 287.693 158.396 293.676 151.015 293.676C143.634 293.676 137.65 287.693 137.65 280.313C137.65 272.934 143.634 266.951 151.015 266.951C158.396 266.951 164.38 272.963 164.38 280.313ZM151.015 228.791C108.139 228.791 73.2514 193.908 73.2514 151.043C73.2514 108.178 108.141 73.2948 151.015 73.2948C193.888 73.2948 228.778 108.178 228.778 151.043C228.778 193.908 193.888 228.791 151.015 228.791ZM282.268 282.27C271.24 293.295 253.288 293.295 242.26 282.27C231.233 271.245 231.233 253.296 242.26 242.271C247.789 236.743 255.023 233.995 262.286 233.995C269.549 233.995 276.783 236.744 282.311 242.271C293.294 253.296 293.295 271.245 282.268 282.27ZM151.015 142.192C126.211 142.192 107.729 159.803 106.069 185.013C105.878 187.88 106.863 190.467 108.848 192.496C120.067 203.903 135.049 210.18 151.001 210.18C166.997 210.18 181.98 203.888 193.153 192.496C195.153 190.467 196.123 187.865 195.932 185.013C194.3 159.803 175.82 142.192 151.015 142.192ZM187.978 187.35C178.156 197.317 165.012 202.859 151.015 202.859C137.018 202.859 123.873 197.361 114.052 187.35C113.522 186.821 113.302 186.219 113.375 185.469C114.801 163.948 129.931 149.498 151.015 149.498C172.128 149.498 187.257 163.948 188.654 185.469C188.728 186.263 188.507 186.836 187.978 187.35ZM151.015 137.988C163.733 137.988 174.054 127.639 174.054 114.953C174.054 102.238 163.703 91.9182 151.015 91.9182C138.297 91.9182 127.975 102.267 127.975 114.953C127.975 127.669 138.297 137.988 151.015 137.988ZM151.015 99.2234C159.675 99.2234 166.747 106.265 166.747 114.953C166.747 123.611 159.704 130.682 151.015 130.682C142.355 130.682 135.282 123.64 135.282 114.953C135.282 106.294 142.355 99.2234 151.015 99.2234Z" stroke="url(#paint1_linear_1351_3126)" stroke-width="2" mask="url(#path-1-outside-1_1351_3126)"/>
<defs>
<linearGradient id="paint0_linear_1351_3126" x1="151" y1="1" x2="151" y2="301" gradientUnits="userSpaceOnUse">
<stop stop-color="#0BE6E6"/>
<stop offset="1" stop-color="#0B9292" stop-opacity="0.45"/>
</linearGradient>
<linearGradient id="paint1_linear_1351_3126" x1="151" y1="1" x2="151" y2="301" gradientUnits="userSpaceOnUse">
<stop stop-color="#0BE6E6"/>
<stop offset="1" stop-color="#0B9292" stop-opacity="0.45"/>
</linearGradient>
</defs>
</svg>
