<svg width="51" height="62" viewBox="0 0 51 62" fill="none" xmlns="http://www.w3.org/2000/svg">
<path d="M25.5 34C30.4706 34 34.5 29.9706 34.5 25C34.5 20.0294 30.4706 16 25.5 16C20.5294 16 16.5 20.0294 16.5 25C16.5 29.9706 20.5294 34 25.5 34Z" stroke="url(#paint0_linear_1332_39)" stroke-width="2" stroke-linecap="round" stroke-linejoin="round"/>
<path d="M25.5 61C37.5 49 49.5 38.2548 49.5 25C49.5 11.7452 38.7548 1 25.5 1C12.2452 1 1.5 11.7452 1.5 25C1.5 38.2548 13.5 49 25.5 61Z" stroke="url(#paint1_linear_1332_39)" stroke-width="2" stroke-linecap="round" stroke-linejoin="round"/>
<defs>
<linearGradient id="paint0_linear_1332_39" x1="25.5" y1="1" x2="25.5" y2="61" gradientUnits="userSpaceOnUse">
<stop stop-color="#05A6A6"/>
<stop offset="1" stop-color="#0D5B6A"/>
</linearGradient>
<linearGradient id="paint1_linear_1332_39" x1="25.5" y1="1" x2="25.5" y2="61" gradientUnits="userSpaceOnUse">
<stop stop-color="#05A6A6"/>
<stop offset="1" stop-color="#0D5B6A"/>
</linearGradient>
</defs>
</svg>
