<svg width="32" height="32" viewBox="0 0 32 32" fill="none" xmlns="http://www.w3.org/2000/svg">
<path d="M5.73838 9.56337C6.40151 9.56337 7.02409 9.38848 7.56407 9.0822L10.4374 11.9888C10.8431 11.2995 11.4266 10.73 12.1242 10.3451L9.14802 7.33449C9.35912 6.86082 9.47676 6.33516 9.47676 5.78169C9.47676 3.69308 7.80307 2 5.73838 2C3.67369 2 2 3.69308 2 5.78169C2 7.8703 3.67369 9.56337 5.73838 9.56337ZM5.73838 3.65067C6.90191 3.65067 7.84499 4.60482 7.84499 5.78169C7.84499 6.95855 6.90177 7.9127 5.73838 7.9127C4.57499 7.9127 3.63177 6.95855 3.63177 5.78169C3.63177 4.60482 4.57499 3.65067 5.73838 3.65067Z" fill="white"/>
<path d="M26.2608 22.4372C25.5977 22.4372 24.9751 22.6121 24.4351 22.9184L21.5617 20.0117C21.156 20.701 20.5726 21.2706 19.875 21.6554L22.8512 24.6661C22.6401 25.1397 22.5224 25.6654 22.5224 26.2189C22.5224 28.3075 24.1961 30.0006 26.2608 30.0006C28.3255 30.0006 29.9992 28.3075 29.9992 26.2189C29.9992 24.1303 28.3255 22.4372 26.2608 22.4372ZM26.2608 24.0877C27.4243 24.0877 28.3674 25.0419 28.3674 26.2187C28.3674 27.3956 27.4242 28.3498 26.2608 28.3498C25.0974 28.3498 24.1542 27.3956 24.1542 26.2187C24.1542 25.0419 25.0974 24.0877 26.2608 24.0877Z" fill="white"/>
<path d="M21.6918 16.0434C21.6918 14.918 21.3702 13.8686 20.815 12.9841L23.1854 10.5863C23.6536 10.7998 24.1732 10.9188 24.7204 10.9188C26.7851 10.9188 28.4587 9.22577 28.4587 7.13716C28.4587 5.04855 26.7851 3.35547 24.7204 3.35547C22.6557 3.35547 20.982 5.04855 20.982 7.13716C20.982 7.80796 21.1549 8.43776 21.4576 8.984L19.1788 11.2892C18.2815 10.6821 17.2026 10.328 16.042 10.328C13.3782 10.328 11.145 12.1929 10.5486 14.7023H9.26602C9.0842 14.2163 8.79984 13.7606 8.4131 13.3693C6.95312 11.8925 4.58621 11.8925 3.12623 13.3693C1.66626 14.8462 1.66626 17.2406 3.12623 18.7175C4.58621 20.1943 6.95312 20.1943 8.4131 18.7175C8.88203 18.2431 9.20006 17.6741 9.36773 17.0712H10.4833C10.9618 19.7372 13.2686 21.7587 16.042 21.7587C19.1623 21.7587 21.6918 19.1999 21.6918 16.0434ZM24.7202 5.00614C25.8838 5.00614 26.8268 5.96029 26.8268 7.13716C26.8268 8.31402 25.8836 9.26817 24.7202 9.26817C23.5568 9.26817 22.6136 8.31402 22.6136 7.13716C22.6136 5.96029 23.5568 5.00614 24.7202 5.00614ZM16.0419 19.5298C14.1385 19.5298 12.5955 17.9689 12.5955 16.0435C12.5955 14.1181 14.1385 12.5573 16.0419 12.5573C17.9452 12.5573 19.4882 14.1181 19.4882 16.0435C19.4882 17.9689 17.9452 19.5298 16.0419 19.5298ZM5.73929 13.9124C6.90282 13.9124 7.8459 14.8665 7.8459 16.0434C7.8459 17.2203 6.90268 18.1744 5.73929 18.1744C4.5759 18.1744 3.63268 17.2203 3.63268 16.0434C3.63268 14.8665 4.5759 13.9124 5.73929 13.9124Z" fill="white"/>
</svg>
