<svg width="283" height="287" viewBox="0 0 283 287" fill="none" xmlns="http://www.w3.org/2000/svg">
<path d="M40.6729 155.42C43.199 155.428 45.3851 155.464 47.251 155.616C49.7973 155.824 52.1861 156.274 54.4434 157.424L55.085 157.768C58.2562 159.545 60.8359 162.224 62.4912 165.473L62.6992 165.897C63.6969 168.029 64.1038 170.277 64.2988 172.664C64.4678 174.732 64.4922 177.193 64.4961 180.074L96.8291 166.553C96.8317 166.552 96.8351 166.551 96.8379 166.55C96.8877 166.527 96.9601 166.495 97.0527 166.453C97.2384 166.37 97.5086 166.249 97.8535 166.098C98.5436 165.794 99.5369 165.363 100.767 164.848C103.223 163.819 106.641 162.446 110.481 161.069C117.936 158.398 127.774 155.417 135.211 155.417C140.97 155.417 146.7 156.103 152.294 157.46H152.297L184.299 165.243L184.839 165.38C196.128 168.367 204.138 178.41 204.138 190.057V194.172C204.138 198.952 202.805 203.401 200.497 207.205C201.589 206.65 202.637 206.008 203.63 205.282L203.633 205.279L237.37 180.666L237.371 180.665L237.86 180.316C248.2 173.131 262.396 174.228 271.452 183.037L271.926 183.51C281.732 193.546 281.579 209.466 271.449 219.304L242.505 247.459C234.007 255.726 223.181 261.355 211.433 263.644H211.431L170.517 271.604L170.516 271.604C161.699 273.317 152.606 273.11 143.875 270.983V270.984L106.87 261.991L106.859 261.989C102.827 260.999 98.6892 260.503 94.5205 260.503H64.4981C64.4975 263.822 64.4871 266.615 64.2988 268.92C64.1038 271.307 63.6969 273.555 62.6992 275.687L62.4912 276.111C60.8359 279.36 58.2562 282.039 55.085 283.816L54.4434 284.16C52.1862 285.31 49.7973 285.76 47.251 285.968C45.3851 286.12 43.199 286.156 40.6729 286.164L38.0322 286.167H27.2988C23.6245 286.167 20.5671 286.171 18.0791 285.968C15.6921 285.773 13.4439 285.365 11.3125 284.367L10.8877 284.16C7.63902 282.505 4.95965 279.924 3.18262 276.753L2.83887 276.111C1.68894 273.854 1.23932 271.466 1.03126 268.92C0.878807 267.054 0.843402 264.867 0.834967 262.341L0.832037 259.7V181.884C0.832037 178.21 0.828002 175.152 1.03126 172.664C1.23931 170.118 1.689 167.73 2.83887 165.473L3.18262 164.831C4.95963 161.66 7.63907 159.079 10.8877 157.424L11.3125 157.217C13.4439 156.219 15.6921 155.811 18.0791 155.616C20.5671 155.413 23.6245 155.417 27.2988 155.417H38.0322L40.6729 155.42ZM27.2988 165.417C23.4595 165.417 20.8799 165.421 18.8936 165.583C17.2074 165.721 16.2877 165.954 15.6738 166.219L15.4277 166.334C13.9433 167.09 12.7183 168.27 11.9063 169.719L11.749 170.013C11.437 170.625 11.1555 171.551 10.9981 173.479C10.8358 175.465 10.832 178.045 10.832 181.884V259.7L10.835 262.354C10.8437 264.792 10.8764 266.616 10.9981 268.105C11.1556 270.033 11.437 270.959 11.749 271.571L11.9063 271.865C12.7184 273.314 13.9433 274.494 15.4277 275.25L15.6738 275.365C16.2877 275.63 17.2074 275.863 18.8936 276.001C20.8799 276.163 23.4595 276.167 27.2988 276.167H38.0322L40.6856 276.164C43.1234 276.155 44.9468 276.123 46.4365 276.001C48.3642 275.843 49.2907 275.562 49.9033 275.25L50.1963 275.093C51.6456 274.281 52.8245 273.056 53.5811 271.571L53.6963 271.325C53.9614 270.711 54.1942 269.792 54.332 268.105C54.4943 266.119 54.499 263.539 54.499 259.7V181.884C54.499 178.045 54.4943 175.465 54.332 173.479C54.1942 171.792 53.9614 170.873 53.6963 170.259L53.5811 170.013C52.8245 168.528 51.6457 167.303 50.1963 166.491L49.9033 166.334C49.2907 166.022 48.3643 165.741 46.4365 165.583C44.9468 165.461 43.1235 165.429 40.6856 165.42L38.0322 165.417H27.2988ZM135.211 165.417C129.704 165.417 121.352 167.796 113.855 170.482C110.221 171.785 106.971 173.091 104.63 174.071C103.461 174.561 102.523 174.968 101.881 175.25C101.56 175.391 101.313 175.502 101.149 175.575C101.068 175.612 101.006 175.639 100.967 175.657C100.947 175.666 100.933 175.673 100.924 175.677C100.92 175.679 100.916 175.68 100.914 175.681L100.915 175.682C100.865 175.704 100.814 175.726 100.764 175.747L64.499 190.912V250.503H94.5205C99.4794 250.503 104.414 251.093 109.23 252.274H109.231L146.236 261.267L146.239 261.268L146.927 261.43C153.812 263.008 160.955 263.172 167.913 261.918L168.608 261.787L209.521 253.828L210.442 253.64C219.951 251.609 228.668 246.968 235.532 240.291L264.479 212.133L264.482 212.13L264.771 211.843C270.629 205.859 270.633 196.492 264.768 190.492L264.479 190.205C258.793 184.674 249.726 184.033 243.263 188.745L209.527 213.358C203.828 217.523 196.913 219.752 189.823 219.752H157.246C154.485 219.752 152.246 217.513 152.246 214.752C152.246 211.991 154.484 209.753 157.245 209.752L177.982 209.751L178.405 209.746C187.26 209.529 194.138 202.518 194.138 194.172V190.057C194.138 183.227 189.497 177.113 182.615 175.14L181.942 174.961H181.939L149.938 167.177V167.178C145.115 166.008 140.175 165.417 135.211 165.417ZM209.433 29.875C220.595 28.6348 231.773 32.1978 240.076 39.6367C248.385 47.0785 253.151 57.7392 253.151 68.8877C253.151 79.6286 248.893 89.6552 241.164 97.1201C237.404 100.756 235.025 105.816 234.39 111.309H236.516C238.141 111.309 239.456 112.624 239.456 114.249V124.812C239.456 130.843 234.761 135.746 228.842 136.19V136.768C228.842 142.409 224.25 147 218.608 147H209.172C203.53 147 198.939 142.409 198.938 136.768V136.19C193.019 135.746 188.324 130.843 188.324 124.812V114.249C188.324 112.624 189.64 111.309 191.265 111.309H193.38C192.712 105.847 190.212 100.726 186.14 96.6553C177.67 88.1971 173.564 76.471 174.87 64.4844C176.839 46.4221 191.376 31.8677 209.433 29.875ZM204.819 136.768C204.82 139.168 206.772 141.12 209.172 141.12H218.608C221.009 141.12 222.961 139.168 222.961 136.768V136.276H204.819V136.768ZM194.204 124.812C194.204 127.889 196.711 130.396 199.789 130.396H227.992C231.07 130.396 233.576 127.889 233.576 124.812V117.189H194.204V124.812ZM174.96 103.659C176.108 102.511 177.969 102.511 179.117 103.659C180.266 104.808 180.266 106.669 179.117 107.817L169.335 117.599C168.761 118.173 168.008 118.46 167.256 118.46C166.504 118.46 165.752 118.173 165.178 117.599C164.029 116.45 164.029 114.59 165.178 113.441L174.96 103.659ZM248.664 103.659C249.812 102.511 251.673 102.511 252.821 103.659L262.604 113.441C263.752 114.59 263.752 116.45 262.604 117.599C262.029 118.173 261.277 118.46 260.524 118.46C259.772 118.46 259.02 118.173 258.446 117.599L248.664 107.817C247.515 106.669 247.515 104.808 248.664 103.659ZM236.151 44.0156C228.988 37.5989 219.723 34.6499 210.076 35.7207C194.739 37.4118 182.39 49.7778 180.716 65.1211C179.602 75.3249 183.096 85.302 190.297 92.4971C195.488 97.6824 198.629 104.275 199.315 111.304L210.949 111.306V82.9736L199.588 71.6104C198.44 70.462 198.44 68.6008 199.588 67.4521C200.736 66.3041 202.597 66.304 203.745 67.4521L213.889 77.5986L224.035 67.4521C225.183 66.304 227.044 66.3042 228.192 67.4521C229.341 68.6008 229.341 70.462 228.192 71.6104L216.829 82.9736V111.307L228.46 111.309C229.126 104.214 232.184 97.6222 237.079 92.8936C243.651 86.5427 247.271 78.0178 247.271 68.8877C247.271 59.4103 243.217 50.3436 236.151 44.0156ZM161.775 65.9492C163.4 65.9493 164.715 67.2646 164.715 68.8896C164.715 70.5146 163.4 71.829 161.775 71.8291H147.939C146.314 71.8291 144.999 70.5147 144.999 68.8896C144.999 67.2645 146.314 65.9492 147.939 65.9492H161.775ZM279.839 65.9492C281.464 65.9493 282.779 67.2646 282.779 68.8896C282.779 70.5146 281.464 71.829 279.839 71.8291H266.006C264.381 71.8291 263.066 70.5147 263.065 68.8896C263.065 67.2645 264.381 65.9492 266.006 65.9492H279.839ZM165.178 20.1768C166.326 19.0284 168.187 19.0284 169.335 20.1768L179.117 29.958C180.266 31.1064 180.266 32.9676 179.117 34.1162C178.543 34.6904 177.79 34.9766 177.038 34.9766C176.286 34.9766 175.534 34.6901 174.96 34.1162L165.178 24.334C164.029 23.1856 164.029 21.3254 165.178 20.1768ZM258.446 20.1768C259.595 19.0284 261.455 19.0284 262.604 20.1768C263.752 21.3254 263.752 23.1857 262.604 24.334L252.821 34.1162C252.247 34.6903 251.494 34.9766 250.742 34.9766C249.99 34.9765 249.238 34.6902 248.664 34.1162C247.515 32.9676 247.515 31.1064 248.664 29.958L258.446 20.1768ZM213.889 0C215.514 7.29423e-05 216.828 1.31537 216.828 2.94043V16.7734C216.828 18.3981 215.514 19.7128 213.889 19.7129C212.264 19.7129 210.948 18.3981 210.948 16.7734V2.94043C210.948 1.31533 212.264 0 213.889 0Z" fill="url(#paint0_linear_1351_3092)"/>
<defs>
<linearGradient id="paint0_linear_1351_3092" x1="141.806" y1="0" x2="141.806" y2="286.167" gradientUnits="userSpaceOnUse">
<stop stop-color="#0BE6E6"/>
<stop offset="1" stop-color="#0B9292" stop-opacity="0.45"/>
</linearGradient>
</defs>
</svg>
