<svg width="361" height="357" viewBox="0 0 361 357" fill="none" xmlns="http://www.w3.org/2000/svg">
<path d="M40.9512 215.266C62.2219 206.231 82.0894 205.534 103.4 214.792C135.301 228.653 167.112 256.303 199.527 270.861C205.282 274.99 207.735 279.674 210.915 285.741C237.243 280.744 263.602 270.184 289.688 264.955C324.84 257.909 339.326 301.076 308.314 316.845C281.481 324.608 254.294 331.16 227.4 338.741C207.2 344.445 175.581 358.316 155.462 356.256C132.566 353.914 100.079 326.233 78.2734 316.522C74.9823 315.058 71.9033 313.584 68.1579 314.048C67.2191 319.207 74.629 330.271 70.1164 333.653C68.4103 334.935 54.0448 338.63 51.2686 338.983C40.1436 340.397 31.704 336.833 27.04 326.435C19.8118 294.564 7.76816 262.209 1.12548 230.399C-4.23509 204.757 14.4411 200.951 34.884 197.579L40.9512 215.276V215.266ZM30.856 206.191C20.6598 208.725 7.14225 210.037 7.74796 223.696L34.4095 323.104C38.7606 335.44 54.1457 331.412 62.9791 326.667L30.856 206.191ZM65.2303 305.871C70.5909 305.417 73.7911 306.325 78.5964 308.132C104.985 318.107 137.048 351.138 166.425 348.291C184.586 346.535 217.83 332.967 237.273 327.424C257.696 321.599 284.206 317.188 303.276 309.778C325.829 301.015 318.954 271.032 295.574 271.79L212.702 293.797C209.552 295.21 208.159 301.843 205.201 305.447C198.75 313.331 189.523 315.714 179.811 312.756C173.774 310.909 133.242 287.467 127.871 283.056C124.318 280.138 123.682 278.351 127.912 275.444L130.324 275.484C145.942 283.268 160.842 294.373 176.328 302.126C179.7 303.812 182.719 305.942 186.575 306.073C201.607 306.588 208.038 288.305 196.66 278.765C186.03 269.841 160.741 258.191 147.476 250.347C115.212 231.257 82.6244 201.597 43.1823 223.787L65.2202 305.881L65.2303 305.871Z" fill="url(#paint0_linear_1008_64)"/>
<path d="M337.347 70.0462C340.164 72.0754 358.012 55.7715 360.304 62.707L359.517 144.266L355.983 144.701L288.315 105.47L287.366 100.352C292.302 96.4554 298.703 94.083 303.75 90.5396C304.437 90.055 305.547 90.7617 304.901 88.9041C303.407 84.6641 290.314 70.6115 286.397 67.0681C214.175 1.66102 98.2717 57.5685 104.45 154.271C105.116 164.679 109.144 174.694 109.336 184.88C108.357 186.454 80.817 186.424 76.678 186.071C68.9046 185.415 69.6214 180.155 68.4503 173.139C51.4802 71.7018 138.229 -14.9659 239.716 2.88254C278.926 9.7776 317.803 35.3892 337.357 70.0462H337.347ZM352.389 72.1359C348.008 72.8022 339.114 81.474 335.288 79.7376C333.683 79.0108 321.175 60.1024 318.096 56.5388C298.38 33.7134 269.285 16.713 239.524 11.1304C140.207 -7.49537 56.4269 79.7982 77.2231 177.974H100.402C78.7576 94.1839 150.181 16.9351 235.648 33.1481C259.725 37.7111 283.721 51.3296 299.995 69.5919C303.256 73.2565 314.694 87.6523 314.118 91.7308C311.493 97.4952 302.983 98.535 298.955 103.371L352.369 133.616V72.1359H352.389Z" fill="url(#paint1_linear_1008_64)"/>
<path d="M305.85 173.321C305.85 217.255 270.234 252.861 226.31 252.861C182.386 252.861 146.77 217.245 146.77 173.321C146.77 129.396 182.386 93.7803 226.31 93.7803C270.234 93.7803 305.85 129.396 305.85 173.321ZM297.926 173.331C297.926 133.778 265.863 101.715 226.31 101.715C186.757 101.715 154.694 133.778 154.694 173.331C154.694 212.884 186.757 244.947 226.31 244.947C265.863 244.947 297.926 212.884 297.926 173.331Z" fill="url(#paint2_linear_1008_64)"/>
<path d="M231.58 132.476C241.504 132.627 253.709 150.385 247.652 158.39C242.301 165.467 240.777 150.223 239.717 148.022C233.67 135.444 214.64 138.603 211.723 152.717C209.017 165.83 224.817 167.133 233.135 171.736C250.075 181.104 256.021 201.567 236.527 211.784C234.71 212.733 230.49 213.318 229.864 214.187C227.744 217.144 232.539 227.452 224.938 227.391C219.436 226.896 221.909 218.013 221.253 214.348C214.731 213.439 208.795 210.148 205.827 204.071C203.384 199.074 199.972 186.071 209.26 188.514C212.208 189.998 210.936 195.046 211.743 198.155C216.125 214.964 249.933 204.202 238.496 186.526C231.177 175.209 210.744 176.127 204.828 162.741C199.276 150.193 209.936 133.96 223.272 132.506C220.859 113.658 233.468 114.375 231.57 132.465L231.58 132.476Z" fill="url(#paint3_linear_1008_64)"/>
<defs>
<linearGradient id="paint0_linear_1008_64" x1="162.758" y1="197.579" x2="162.758" y2="356.463" gradientUnits="userSpaceOnUse">
<stop stop-color="#0BE6E6"/>
<stop offset="1" stop-color="#0B9292" stop-opacity="0.45"/>
</linearGradient>
<linearGradient id="paint1_linear_1008_64" x1="213.31" y1="0.537354" x2="213.31" y2="186.269" gradientUnits="userSpaceOnUse">
<stop stop-color="#0BE6E6"/>
<stop offset="1" stop-color="#0B9292" stop-opacity="0.45"/>
</linearGradient>
<linearGradient id="paint2_linear_1008_64" x1="226.31" y1="93.7803" x2="226.31" y2="252.861" gradientUnits="userSpaceOnUse">
<stop stop-color="#0BE6E6"/>
<stop offset="1" stop-color="#0B9292" stop-opacity="0.45"/>
</linearGradient>
<linearGradient id="paint3_linear_1008_64" x1="226.207" y1="118.633" x2="226.207" y2="227.391" gradientUnits="userSpaceOnUse">
<stop stop-color="#0BE6E6"/>
<stop offset="1" stop-color="#0B9292" stop-opacity="0.45"/>
</linearGradient>
</defs>
</svg>
