<svg width="72" height="72" viewBox="0 0 72 72" fill="none" xmlns="http://www.w3.org/2000/svg">
<path d="M53.0604 35.1255C43.1682 35.1255 35.1208 43.1711 35.1208 53.0627C35.1208 62.9536 43.1674 71 53.0604 71C62.9534 71 71 62.9544 71 53.0627C71 43.1718 62.9534 35.1255 53.0604 35.1255ZM53.0604 69.2514C44.1288 69.2514 36.8696 61.9846 36.8696 53.0627C36.8696 44.1413 44.1374 36.874 53.0604 36.874C61.9834 36.874 69.2512 44.1409 69.2512 53.0627C69.2512 61.9841 61.9922 69.2514 53.0604 69.2514ZM36.7646 30.6648L34.7023 28.468C35.3087 27.3814 35.7833 26.2273 36.126 25.0352L39.1403 24.9444C39.7789 24.921 40.2798 24.4055 40.2798 23.767V17.5048C40.2798 16.8662 39.7759 16.3507 39.1403 16.3273L36.126 16.2365C35.7891 15.0356 35.3087 13.8904 34.7023 12.8038L36.7646 10.607C37.1982 10.1413 37.1923 9.4237 36.7412 8.96384L32.3178 4.54108C31.8667 4.09001 31.149 4.07537 30.6745 4.51765L28.4774 6.57966C27.3906 5.97336 26.2364 5.49302 25.0354 5.1562L24.9446 2.14813C24.9241 1.50375 24.4056 1 23.77 1H17.5069C16.8683 1 16.3527 1.50379 16.3293 2.13936L16.2385 5.14742C15.0374 5.48426 13.8833 5.96458 12.7965 6.57089L10.6053 4.50887C10.1396 4.0666 9.42187 4.08124 8.96195 4.53231L4.53861 8.95506C4.08749 9.40613 4.07285 10.1325 4.51518 10.5982L6.57746 12.7891C5.97108 13.8758 5.49068 15.0298 5.15381 16.2307L2.14535 16.3215C1.50382 16.3508 1 16.8663 1 17.5048V23.767C1 24.4055 1.50386 24.921 2.1395 24.9444L5.14796 25.0352C5.48484 26.2361 5.96523 27.3901 6.57161 28.4768L4.50933 30.6677C4.067 31.1334 4.08164 31.851 4.53276 32.3108L8.9561 36.7336C9.40722 37.1847 10.1337 37.1993 10.5995 36.757L12.7907 34.695C13.8775 35.3013 15.0317 35.7817 16.2327 36.1185L16.3235 39.1324C16.3469 39.7709 16.8625 40.2718 17.5011 40.2718H23.7641C24.4027 40.2718 24.9183 39.768 24.9417 39.1324L25.0325 36.1185C26.2336 35.7816 27.3789 35.3013 28.4657 34.695L30.6628 36.757C31.1285 37.1993 31.8462 37.1847 32.3061 36.7336L36.7295 32.3108C37.1923 31.8568 37.2011 31.1363 36.7646 30.6648ZM31.4624 35.111L29.3621 33.1398C28.9783 32.7795 28.41 32.7121 27.953 32.9816C26.7842 33.6787 25.5158 34.203 24.1947 34.5398C23.6849 34.6687 23.3246 35.1168 23.31 35.6412L23.2192 38.5203H18.0518L17.961 35.6412C17.9463 35.1081 17.586 34.6658 17.0763 34.5398C15.7493 34.203 14.4897 33.6787 13.3121 32.9816C12.8551 32.7121 12.2926 32.7707 11.903 33.1398L9.80265 35.111L6.14971 31.4585L8.12117 29.3584C8.48149 28.9689 8.54886 28.4065 8.27936 27.9496C7.58217 26.7721 7.05782 25.5039 6.72095 24.1858C6.59205 23.6674 6.14387 23.3159 5.61069 23.3013L2.73115 23.2105V18.0525L5.61069 17.9617C6.14384 17.9471 6.58619 17.5868 6.72095 17.0771C7.05783 15.7503 7.58216 14.4821 8.27936 13.3134C8.54887 12.8565 8.49028 12.2941 8.12117 11.9046L6.14971 9.80446L9.80265 6.152L11.903 8.12321C12.2868 8.48933 12.8551 8.55084 13.3121 8.28138C14.4897 7.58427 15.7581 7.05999 17.0763 6.72317C17.5948 6.59429 17.9463 6.14616 17.961 5.61306L18.0518 2.73388H23.2192L23.31 5.61306C23.3246 6.14613 23.6849 6.58843 24.1947 6.72317C25.5216 7.06 26.7813 7.58427 27.9589 8.28138C28.4159 8.55085 28.9783 8.49226 29.3679 8.12321L31.4683 6.152L35.1212 9.80446L33.1498 11.9046C32.7895 12.2941 32.7221 12.8565 32.9916 13.3134C33.6888 14.4821 34.2131 15.7503 34.55 17.0713C34.6789 17.5809 35.1271 17.9412 35.6515 17.9559L38.531 18.0467V23.2134L35.6515 23.3042C35.1183 23.3188 34.676 23.6791 34.55 24.1888C34.2131 25.5097 33.6888 26.775 32.9916 27.9466C32.7221 28.4036 32.7807 28.966 33.1498 29.3555L35.1212 31.4556L31.4624 35.111ZM20.6411 12.2324C18.4001 12.2324 16.2851 13.1111 14.6944 14.6927C11.4165 17.9702 11.4165 23.3007 14.6944 26.5789C16.2851 28.1693 18.3913 29.0392 20.6411 29.0392C22.8909 29.0392 24.9971 28.1605 26.5877 26.5789C28.1784 24.9884 29.0484 22.8825 29.0484 20.633C29.0484 18.3835 28.1695 16.2776 26.5877 14.6871C24.9912 13.1025 22.885 12.2324 20.6411 12.2324ZM25.3515 25.3483C24.0919 26.6078 22.4192 27.299 20.6411 27.299C18.863 27.299 17.1844 26.6078 15.9307 25.3483C13.3353 22.7532 13.3353 18.5237 15.9307 15.923C17.1903 14.6635 18.863 13.9723 20.6411 13.9723C22.4192 13.9723 24.0919 14.6635 25.3515 15.923C26.6111 17.1825 27.3025 18.855 27.3025 20.6328C27.2996 22.4165 26.6111 24.0888 25.3515 25.3483ZM41.1733 10.0879C41.2846 9.62217 41.7504 9.32928 42.222 9.43472C52.0677 11.7281 59.7687 19.2641 62.3499 28.9151L63.5861 26.7769C63.8263 26.3581 64.3594 26.2146 64.7783 26.4547C65.1972 26.6949 65.3407 27.228 65.1005 27.6468L62.7453 31.7181C62.634 31.9202 62.4377 32.0637 62.2122 32.1223C62.136 32.1458 62.0628 32.1516 61.9866 32.1516C61.8372 32.1516 61.6878 32.1135 61.5531 32.0315L57.4812 29.6766C57.0623 29.4364 56.9188 28.9034 57.159 28.4846C57.3992 28.0657 57.9323 27.9222 58.3512 28.1624L60.7123 29.5273C58.3424 20.4094 51.0983 13.2771 41.821 11.1184C41.3552 11.0246 41.062 10.5536 41.1733 10.0879ZM32.145 62.1331C32.0689 62.552 31.7027 62.8537 31.2897 62.8537C31.2369 62.8537 31.1842 62.8449 31.1315 62.839C21.1365 61.0406 13.0276 53.8411 9.99046 44.2576L8.67809 46.5305C8.51405 46.8088 8.22111 46.964 7.9194 46.964C7.77 46.964 7.6206 46.9259 7.48585 46.8439C7.06695 46.6037 6.92341 46.0707 7.16361 45.6518L9.51882 41.5805C9.75902 41.1617 10.2921 41.0181 10.711 41.2583L14.7829 43.6132C15.2018 43.8534 15.3453 44.3864 15.1051 44.8053C14.8649 45.2241 14.3318 45.3676 13.9129 45.1275L11.6778 43.8387C14.5427 52.7548 22.1092 59.45 31.4307 61.1229C31.9199 61.2049 32.2358 61.6527 32.145 62.1331ZM49.9174 49.5353C49.9174 50.6601 51.0189 51.199 52.8204 51.9957C53.0225 52.0865 53.2188 52.1743 53.4209 52.2651C53.6172 52.3559 53.8105 52.4379 54.0068 52.5287C55.8523 53.3371 57.9439 54.2598 57.9439 56.5854C57.9439 58.7382 56.2126 60.5366 53.9306 60.9057V63.6941C53.9306 64.1745 53.541 64.5641 53.0606 64.5641C52.5801 64.5641 52.1905 64.1745 52.1905 63.6941V60.9057C49.9114 60.5396 48.1772 58.7382 48.1772 56.5854C48.1772 56.1051 48.5668 55.7155 49.0473 55.7155C49.5277 55.7155 49.9173 56.105 49.9173 56.5854C49.9173 58.047 51.3264 59.2332 53.0606 59.2332C54.7918 59.2332 56.2038 58.0499 56.2038 56.5854C56.2038 55.4607 55.1023 54.9217 53.3008 54.1251C53.0986 54.0343 52.9024 53.9464 52.7002 53.8556C52.504 53.7648 52.3106 53.6828 52.1144 53.592C50.2689 52.7836 48.1773 51.861 48.1773 49.5353C48.1773 47.3825 49.9086 45.5841 52.1906 45.2151V42.4266C52.1906 41.9463 52.5802 41.5567 53.0606 41.5567C53.5411 41.5567 53.9307 41.9462 53.9307 42.4266V45.2151C56.2098 45.5812 57.944 47.3825 57.944 49.5353C57.944 50.0157 57.5543 50.4053 57.0739 50.4053C56.5935 50.4053 56.2038 50.0157 56.2038 49.5353C56.2038 48.0738 54.7948 46.8876 53.0606 46.8876C51.3294 46.8905 49.9174 48.0738 49.9174 49.5353Z" fill="#F7C948" stroke="#F7C948" stroke-width="0.7"/>
</svg>
