<svg width="68" height="49" viewBox="0 0 68 49" fill="none" xmlns="http://www.w3.org/2000/svg">
<path d="M54.9795 0C61.8419 0 67.4031 5.56051 67.4033 12.4229C67.4033 16.0143 65.8768 19.253 63.4385 21.5195V42.0234C63.4385 45.7932 60.382 48.8494 56.6123 48.8496H6.82617C3.05637 48.8495 0 45.7933 0 42.0234V14.7061C0 10.9362 3.05637 7.88002 6.82617 7.87988H43.4121C45.2261 3.26429 49.7196 9.53952e-05 54.9795 0ZM3.41309 42.0234C3.41309 43.9067 4.94298 45.4364 6.82617 45.4365H56.6123C58.4954 45.4363 60.0254 43.9066 60.0254 42.0234V30.0732H3.41309V42.0234ZM37.1738 37.3193C38.1155 37.3193 38.8789 38.0828 38.8789 39.0244C38.8788 39.966 38.1154 40.7295 37.1738 40.7295H31.5342C30.5926 40.7295 29.8292 39.966 29.8291 39.0244C29.8291 38.0828 30.5925 37.3193 31.5342 37.3193H37.1738ZM22.5566 37.2373C23.4983 37.2373 24.2617 38.0007 24.2617 38.9424C24.2616 39.884 23.4982 40.6475 22.5566 40.6475H11.2803C10.3387 40.6474 9.57527 39.8839 9.5752 38.9424C9.5752 38.0008 10.3387 37.2373 11.2803 37.2373H22.5566ZM3.41309 26.6602H60.0254V23.9014C58.4692 24.582 56.7604 24.9521 54.9795 24.9521C50.9982 24.9521 47.2151 23.0284 44.8594 19.8037C44.786 19.7036 44.7156 19.6018 44.6455 19.5H3.41309V26.6602ZM54.9795 3.30371C51.6029 3.30379 48.6522 5.14755 47.0762 7.87988C46.4488 8.96568 46.0395 10.1932 45.9072 11.5C45.8765 11.8036 45.8604 12.1115 45.8604 12.4229C45.8604 14.4284 46.5117 16.2854 47.6152 17.792C47.676 17.8751 47.7383 17.9571 47.8018 18.0381C47.9291 18.2006 48.0623 18.3583 48.2002 18.5117C48.8707 19.2578 49.6613 19.8943 50.543 20.3877C50.6863 20.4679 50.8325 20.5436 50.9805 20.6162C52.1883 21.2086 53.5455 21.542 54.9795 21.542C58.8056 21.542 62.0871 19.1731 63.4385 15.8262L63.5889 15.4277C63.9193 14.4874 64.0986 13.4752 64.0986 12.4229C64.0984 7.55139 60.26 3.56105 55.4482 3.31641L54.9795 3.30371ZM54.8672 15.9824C55.6469 15.9824 56.2783 16.6138 56.2783 17.3936C56.2781 18.1731 55.6468 18.8037 54.8672 18.8037C54.0909 18.8036 53.4563 18.1731 53.4561 17.3936C53.4561 16.6138 54.0875 15.9825 54.8672 15.9824ZM6.82617 11.293C4.94298 11.2931 3.41309 12.8228 3.41309 14.7061V16.0869H42.9941C42.6345 14.9118 42.4473 13.6812 42.4473 12.4229C42.4473 12.0463 42.467 11.6696 42.5 11.293H6.82617ZM55.0332 6.04395C56.2952 6.044 57.2959 6.36157 58.0029 6.98926C58.7231 7.63014 59.0897 8.47559 59.0898 9.50293C59.0898 10.0908 58.998 10.6033 58.8164 11.0195C58.6347 11.4292 58.4127 11.7829 58.1484 12.0703L57.0947 13.125C56.8173 13.4024 56.5827 13.6896 56.4043 13.9736C56.3284 14.0958 56.2682 14.2246 56.2285 14.3633L56.2129 14.417C56.0477 14.9517 55.5588 15.3101 55.001 15.3105C54.3015 15.3094 53.7344 14.7427 53.7344 14.043C53.7344 13.9307 53.7476 13.8215 53.7773 13.7158V13.6797L53.8105 13.6201C53.8337 13.5574 53.8599 13.4979 53.8896 13.4385C53.9524 13.303 54.0284 13.1708 54.1143 13.042C54.2695 12.8173 54.438 12.599 54.623 12.3975C54.8047 12.1993 54.9933 12.0048 55.1914 11.8066L55.6875 11.3105C55.8955 11.1025 56.0738 10.8707 56.2158 10.623C56.3445 10.4017 56.4111 10.1079 56.4111 9.74805C56.4111 9.28878 56.2949 8.94823 56.0537 8.70703C55.8125 8.46591 55.4719 8.35059 55.0127 8.35059C54.4281 8.35064 53.9884 8.47625 53.7109 8.7207C53.5261 8.8826 53.3706 9.12028 53.2451 9.43066C53.037 9.94595 52.5055 10.2535 51.9473 10.1777C51.336 10.0951 50.873 9.57256 50.873 8.95801C50.8731 8.79289 50.9066 8.63433 50.9727 8.48242C50.9991 8.41974 51.0285 8.3537 51.0615 8.29102C51.2697 7.85491 51.5537 7.46493 51.9072 7.12793C52.2641 6.79092 52.7037 6.52269 53.2158 6.33105C53.7246 6.1428 54.3362 6.04395 55.0332 6.04395Z" fill="#F7C948"/>
</svg>
