<svg width="371" height="371" viewBox="0 0 371 371" fill="none" xmlns="http://www.w3.org/2000/svg">
<path fill-rule="evenodd" clip-rule="evenodd" d="M156.295 222.409C137.324 212.04 124.444 191.904 124.444 168.783C124.444 135.072 151.816 107.709 185.518 107.709C219.22 107.709 246.592 135.072 246.592 168.783C246.592 191.904 233.712 212.04 214.74 222.409C250.989 234.621 277.124 268.9 277.124 309.243C277.124 325.32 272.892 341.122 264.849 355.047C263.218 357.877 260.186 359.627 256.916 359.627H114.12C110.849 359.627 107.817 357.877 106.187 355.047C98.1434 341.122 93.9112 325.32 93.9112 309.243C93.9112 268.9 120.047 234.621 156.295 222.409ZM251.41 341.306C256.266 331.339 258.803 320.373 258.803 309.243C258.803 268.799 225.962 235.958 185.518 235.958C145.073 235.958 112.233 268.799 112.233 309.243C112.233 320.373 114.77 331.339 119.625 341.306H251.41ZM343.621 250.148C348.477 240.181 351.014 229.225 351.014 218.086C351.014 177.641 318.173 144.8 277.729 144.8C272.672 144.8 268.568 140.696 268.568 135.64C268.568 130.592 272.672 126.479 277.729 126.479C328.287 126.479 369.335 167.528 369.335 218.086C369.335 234.172 365.103 249.965 357.06 263.889C355.42 266.729 352.397 268.469 349.127 268.469H284.435C279.378 268.469 275.274 264.365 275.274 259.309C275.274 254.261 279.378 250.148 284.435 250.148H343.621ZM28.0186 249.699H87.2056C92.2623 249.699 96.3663 253.803 96.3663 258.86C96.3663 263.916 92.2623 268.02 87.2056 268.02H22.5131C19.2427 268.02 16.2106 266.271 14.58 263.44C6.53691 249.516 2.30469 233.714 2.30469 217.637C2.30469 167.079 43.3536 126.03 93.9112 126.03C98.9679 126.03 103.072 130.134 103.072 135.191C103.072 140.247 98.9679 144.351 93.9112 144.351C53.4669 144.351 20.626 177.192 20.626 217.637C20.626 228.767 23.1635 239.732 28.0186 249.699ZM185.518 126.03C209.116 126.03 228.271 145.185 228.271 168.783C228.271 192.372 209.116 211.527 185.518 211.527C161.92 211.527 142.765 192.372 142.765 168.783C142.765 145.185 161.92 126.03 185.518 126.03ZM272.544 11.522C242.213 11.522 217.58 36.155 217.58 66.4859C217.58 96.8168 242.213 121.45 272.544 121.45C302.875 121.45 327.508 96.8168 327.508 66.4859C327.508 36.155 302.875 11.522 272.544 11.522ZM103.072 11.522C72.741 11.522 48.108 36.155 48.108 66.4859C48.108 96.8168 72.741 121.45 103.072 121.45C133.403 121.45 158.036 96.8168 158.036 66.4859C158.036 36.155 133.403 11.522 103.072 11.522ZM272.544 29.8433C292.771 29.8433 309.187 46.2592 309.187 66.4859C309.187 86.7126 292.771 103.129 272.544 103.129C252.317 103.129 235.901 86.7126 235.901 66.4859C235.901 46.2592 252.317 29.8433 272.544 29.8433ZM103.072 29.8433C123.299 29.8433 139.714 46.2592 139.714 66.4859C139.714 86.7126 123.299 103.129 103.072 103.129C82.8452 103.129 66.4293 86.7126 66.4293 66.4859C66.4293 46.2592 82.8452 29.8433 103.072 29.8433Z" fill="#05A6A6"/>
</svg>
