<svg width="42" height="43" viewBox="0 0 42 43" fill="none" xmlns="http://www.w3.org/2000/svg">
<path d="M10.5 35.6525H15.068C15.6636 35.6525 16.2555 35.7234 16.8329 35.8651L21.6596 37.038C22.7069 37.2932 23.7979 37.318 24.8561 37.1125L30.1927 36.0742C31.6024 35.7996 32.8993 35.1245 33.9156 34.1359L37.6913 30.463C38.7696 29.4159 38.7696 27.7168 37.6913 26.6679C36.7205 25.7235 35.1833 25.6172 34.085 26.418L29.6845 29.6285C29.0543 30.0892 28.2875 30.3372 27.4989 30.3372H23.2496L25.9544 30.3371C27.4789 30.3371 28.7137 29.1358 28.7137 27.6529V27.116C28.7137 25.8846 27.8522 24.8109 26.6246 24.5133L22.45 23.498C21.7707 23.3333 21.0749 23.25 20.3755 23.25C18.6871 23.25 15.6308 24.6479 15.6308 24.6479L10.5 26.7935M3.5 26.05L3.5 36.2C3.5 37.1801 3.5 37.6701 3.69074 38.0445C3.85852 38.3738 4.12623 38.6415 4.45552 38.8093C4.82986 39 5.31991 39 6.3 39H7.7C8.68009 39 9.17014 39 9.54448 38.8093C9.87377 38.6415 10.1415 38.3738 10.3093 38.0445C10.5 37.6701 10.5 37.1801 10.5 36.2V26.05C10.5 25.0699 10.5 24.5799 10.3093 24.2055C10.1415 23.8762 9.87377 23.6085 9.54448 23.4407C9.17014 23.25 8.68009 23.25 7.7 23.25L6.3 23.25C5.31991 23.25 4.82986 23.25 4.45552 23.4407C4.12623 23.6085 3.85852 23.8762 3.69074 24.2055C3.5 24.5799 3.5 25.0699 3.5 26.05Z" stroke="url(#paint0_linear_524_20019)" stroke-width="2" stroke-linecap="round" stroke-linejoin="round"/>
<path fill-rule="evenodd" clip-rule="evenodd" d="M29.5312 3.36364C25.6762 3.36364 22.5511 6.48874 22.5511 10.3438C22.5511 14.1988 25.6762 17.3239 29.5312 17.3239C33.3863 17.3239 36.5114 14.1988 36.5114 10.3438C36.5114 6.48874 33.3863 3.36364 29.5312 3.36364ZM21 10.3438C21 5.63207 24.8196 1.8125 29.5312 1.8125C34.2429 1.8125 38.0625 5.63207 38.0625 10.3438C38.0625 15.0554 34.2429 18.875 29.5312 18.875C24.8196 18.875 21 15.0554 21 10.3438ZM29.5312 4.52699C29.9596 4.52699 30.3068 4.87422 30.3068 5.30256V5.69034H30.4361C31.8639 5.69034 33.0213 6.84779 33.0213 8.27557C33.0213 8.7039 32.6741 9.05114 32.2457 9.05114C31.8174 9.05114 31.4702 8.7039 31.4702 8.27557C31.4702 7.70446 31.0072 7.24148 30.4361 7.24148H28.7557C28.1132 7.24148 27.5923 7.76233 27.5923 8.40483C27.5923 9.04733 28.1132 9.56818 28.7557 9.56818H30.3068C31.806 9.56818 33.0213 10.7835 33.0213 12.2827C33.0213 13.7818 31.806 14.9972 30.3068 14.9972V15.3849C30.3068 15.8133 29.9596 16.1605 29.5312 16.1605C29.1029 16.1605 28.7557 15.8133 28.7557 15.3849V14.9972H28.6264C27.1986 14.9972 26.0412 13.8397 26.0412 12.4119C26.0412 11.9836 26.3884 11.6364 26.8168 11.6364C27.2451 11.6364 27.5923 11.9836 27.5923 12.4119C27.5923 12.983 28.0553 13.446 28.6264 13.446H30.3068C30.9493 13.446 31.4702 12.9252 31.4702 12.2827C31.4702 11.6402 30.9493 11.1193 30.3068 11.1193H28.7557C27.2565 11.1193 26.0412 9.904 26.0412 8.40483C26.0412 6.90566 27.2565 5.69034 28.7557 5.69034V5.30256C28.7557 4.87422 29.1029 4.52699 29.5312 4.52699Z" fill="url(#paint1_linear_524_20019)"/>
<defs>
<linearGradient id="paint0_linear_524_20019" x1="21" y1="23.25" x2="21" y2="39" gradientUnits="userSpaceOnUse">
<stop stop-color="#05A6A6"/>
<stop offset="1" stop-color="#0D5B6A"/>
</linearGradient>
<linearGradient id="paint1_linear_524_20019" x1="29.5312" y1="1.8125" x2="29.5312" y2="18.875" gradientUnits="userSpaceOnUse">
<stop stop-color="#05A6A6"/>
<stop offset="1" stop-color="#0D5B6A"/>
</linearGradient>
</defs>
</svg>
