<svg width="27" height="26" viewBox="0 0 27 26" fill="none" xmlns="http://www.w3.org/2000/svg">
<path fill-rule="evenodd" clip-rule="evenodd" d="M7.96554 18.7592C7.84618 18.635 7.73293 18.5092 7.62275 18.3786C7.3733 18.0824 7.34882 17.6619 7.56307 17.337L7.79721 16.9818C7.97779 16.7095 7.99156 16.3766 7.837 16.0884C7.59674 15.6392 7.41005 15.1662 7.27689 14.6805C7.18966 14.3619 6.95399 14.1374 6.64027 14.0768L6.34186 14.0195C5.95927 13.9462 5.68534 13.6118 5.67464 13.2072C5.66852 12.9747 5.67311 12.7422 5.68535 12.5113C5.70831 12.1163 5.97764 11.7993 6.35104 11.7277L6.64027 11.6719C6.95246 11.6114 7.18965 11.3868 7.27536 11.0683C7.40697 10.5825 7.59367 10.1095 7.83547 9.6604C7.99004 9.37213 7.97473 9.03929 7.79568 8.76534L7.65489 8.55192C7.43758 8.22224 7.46666 7.79222 7.72529 7.4976C7.8018 7.41001 7.88138 7.324 7.96402 7.238C8.04513 7.15359 8.12777 7.07077 8.21194 6.98954C8.49505 6.71879 8.90822 6.68853 9.225 6.91628L9.43007 7.0628C9.69176 7.25074 10.0116 7.26507 10.2886 7.10421C10.7202 6.85257 11.1746 6.65988 11.6414 6.5213C11.9475 6.43051 12.1632 6.18525 12.2214 5.85875L12.275 5.55774C12.3438 5.16914 12.6499 4.88884 13.0279 4.86494C13.2513 4.85061 13.4747 4.84743 13.6966 4.8538C14.0853 4.86335 14.4067 5.14844 14.4771 5.54818L14.5322 5.85875C14.5904 6.18365 14.8061 6.4305 15.1122 6.5213C15.579 6.65826 16.0335 6.85257 16.465 7.10421C16.742 7.26507 17.0618 7.24914 17.3235 7.0628L17.6648 6.81913C17.977 6.59615 18.381 6.62163 18.6656 6.88124C18.7896 6.99431 18.912 7.11376 19.0299 7.23799C19.1492 7.36222 19.2625 7.48804 19.3727 7.61704C19.6221 7.91328 19.6466 8.33373 19.4323 8.65864L19.1982 9.01381C19.0176 9.28615 19.0038 9.61902 19.1584 9.90728C19.3987 10.3564 19.5854 10.8294 19.7185 11.3152C19.8057 11.6337 20.0414 11.8583 20.3536 11.9188L20.652 11.9761C21.0346 12.0494 21.3085 12.3839 21.3192 12.7884C21.3254 13.0209 21.3208 13.2534 21.3085 13.4844C21.2856 13.8794 21.0162 14.1963 20.6428 14.268L20.3536 14.3237C20.0414 14.3842 19.8042 14.6088 19.717 14.9273C19.5854 15.4131 19.3987 15.8861 19.1569 16.3352C19.0023 16.6235 19.0176 16.9564 19.1967 17.2287L19.3375 17.4421C19.5548 17.7718 19.5257 18.2018 19.2671 18.4964C19.1905 18.584 19.111 18.67 19.0299 18.7545C18.9488 18.8389 18.8646 18.9217 18.7819 19.0029C18.4988 19.2737 18.0857 19.3039 17.7689 19.0762L17.5638 18.9297C17.3021 18.7417 16.9823 18.7274 16.7053 18.8882C16.2737 19.1399 15.8192 19.3326 15.3525 19.4712C15.0464 19.5619 14.8307 19.8072 14.7725 20.1321L14.7189 20.4331C14.6501 20.8217 14.344 21.102 13.966 21.1259C13.7426 21.1403 13.5207 21.1434 13.2972 21.1371C12.9085 21.1275 12.5872 20.8408 12.5168 20.4427L12.4617 20.1321C12.4035 19.8072 12.1877 19.5604 11.8817 19.4712C11.4149 19.3342 10.9604 19.1399 10.5289 18.8882C10.2519 18.7274 9.93204 18.7433 9.67035 18.9297L9.32908 19.1733C9.01689 19.3963 8.61289 19.3708 8.32824 19.1112C8.20581 19.0013 8.08491 18.8835 7.96554 18.7592ZM13.4992 24.2904H24.149L23.6134 24.706C23.3364 24.921 23.2798 25.3303 23.4848 25.6186L23.5705 25.7381C23.7771 26.0263 24.1704 26.0853 24.4474 25.8719L26.4858 24.2935L26.7475 24.0913C26.9112 23.9639 27 23.7807 27 23.5689C27 23.3555 26.9112 23.1723 26.7475 23.0465L26.4858 22.8427L24.4474 21.2643C24.1704 21.0493 23.7771 21.1099 23.5705 21.3981L23.4848 21.5176C23.2782 21.8058 23.3364 22.2151 23.6134 22.4302L24.149 22.8458L13.4992 22.8379C8.27778 22.8379 4.04632 18.4325 4.04632 13C4.04632 10.3674 5.04716 7.86847 6.84376 6.01457L6.89427 5.96201C7.13912 5.70878 7.14065 5.29629 6.89733 5.03987L6.79633 4.93476C6.553 4.67993 6.15665 4.67834 5.91027 4.93157L5.85977 4.98413C3.80147 7.11031 2.65066 9.97869 2.65066 12.9999C2.65066 18.9913 7.13441 23.8921 12.8013 24.2664V24.2887L13.4992 24.2904ZM13.539 1.70964H13.4992H2.84948L3.3851 1.29397C3.66209 1.07897 3.71871 0.669672 3.51364 0.381374L3.42948 0.261925C3.22288 -0.0263446 2.82961 -0.0852727 2.55259 0.128144L0.514192 1.70647L0.252505 1.90873C0.0887589 2.03614 0 2.2193 0 2.4311C0 2.64452 0.0887589 2.82608 0.252505 2.95347L0.514192 3.15574L2.55259 4.73565C2.82958 4.95066 3.22286 4.89014 3.42948 4.60187L3.51518 4.48242C3.72177 4.19415 3.66362 3.78485 3.38663 3.56982L2.85101 3.15415H13.5388C18.7402 3.18282 22.9517 7.57994 22.9517 12.9998C22.9517 15.634 21.9509 18.1313 20.1543 19.9852L20.1038 20.0378C19.8589 20.291 19.8574 20.7051 20.1007 20.9599L20.2017 21.065C20.445 21.3198 20.8429 21.3214 21.0878 21.0682L21.1383 21.0156C23.1981 18.8895 24.3489 16.0195 24.3489 12.9983C24.3489 7.00682 19.8652 2.10604 14.1983 1.73175V1.70945L13.539 1.70964ZM13.4992 8.86878C11.3062 8.86878 9.52947 10.7179 9.52947 13.0002C9.52947 15.2825 11.3062 17.1316 13.4992 17.1316C15.6923 17.1316 17.469 15.2825 17.469 13.0002C17.469 10.7179 15.6923 8.86878 13.4992 8.86878Z" fill="url(#paint0_linear_627_1617)"/>
<defs>
<linearGradient id="paint0_linear_627_1617" x1="13.5" y1="0" x2="13.5" y2="26" gradientUnits="userSpaceOnUse">
<stop stop-color="#05A6A6"/>
<stop offset="1" stop-color="#0D5B6A"/>
</linearGradient>
</defs>
</svg>
