<svg width="24" height="30" viewBox="0 0 24 30" fill="none" xmlns="http://www.w3.org/2000/svg">
<path d="M14.6654 2.02588V7.53327C14.6654 8.28 14.6654 8.65337 14.8107 8.93859C14.9385 9.18947 15.1425 9.39344 15.3934 9.52127C15.6786 9.6666 16.052 9.6666 16.7987 9.6666H22.3061M17.332 16.3332H6.66536M17.332 21.6665H6.66536M9.33203 10.9998H6.66536M14.6654 1.6665H7.73203C5.49182 1.6665 4.37172 1.6665 3.51607 2.10248C2.76342 2.48597 2.1515 3.09789 1.76801 3.85054C1.33203 4.70619 1.33203 5.82629 1.33203 8.0665V21.9332C1.33203 24.1734 1.33203 25.2935 1.76801 26.1491C2.1515 26.9018 2.76342 27.5137 3.51607 27.8972C4.37172 28.3332 5.49182 28.3332 7.73203 28.3332H16.2654C18.5056 28.3332 19.6257 28.3332 20.4813 27.8972C21.234 27.5137 21.8459 26.9018 22.2294 26.1491C22.6654 25.2935 22.6654 24.1734 22.6654 21.9332V9.6665L14.6654 1.6665Z" stroke="url(#paint0_linear_862_1742)" stroke-width="2" stroke-linecap="round" stroke-linejoin="round"/>
<defs>
<linearGradient id="paint0_linear_862_1742" x1="11.9987" y1="1.6665" x2="11.9987" y2="28.3332" gradientUnits="userSpaceOnUse">
<stop stop-color="#05A6A6"/>
<stop offset="1" stop-color="#0D5B6A"/>
</linearGradient>
</defs>
</svg>
