<svg width="322" height="304" viewBox="0 0 322 304" fill="none" xmlns="http://www.w3.org/2000/svg">
<path d="M304.923 0H16.9992C7.62656 0 0 7.64947 0 17.0342V210.3C0 219.685 7.62656 227.321 16.9992 227.321H118.351L112.47 264.569H91.4014C80.2175 264.569 71.1073 273.69 71.1073 284.889V293.498C71.1073 299.282 75.8065 304 81.5956 304H240.418C246.193 304 250.906 299.295 250.906 293.498L250.893 284.902C250.893 273.704 241.783 264.582 230.599 264.582H209.53L203.649 227.334H305.001C314.373 227.334 322 219.698 322 210.313V17.0372C321.921 7.6525 314.296 0 304.923 0ZM16.9992 7.84665H304.923C309.964 7.84665 314.099 11.9476 314.099 17.0342V187.665H7.82348V17.0342C7.82348 11.987 11.9585 7.84665 16.9992 7.84665ZM242.99 284.902V293.511C242.99 294.957 241.809 296.14 240.365 296.14H81.5561C80.1122 296.14 78.9308 294.957 78.9308 293.511V284.902C78.9308 278.041 84.5098 272.455 91.3618 272.455H230.559C237.411 272.455 242.99 278.041 242.99 284.902ZM201.522 264.582H120.397L126.278 227.334H195.601L201.522 264.582ZM314.097 210.298C314.097 215.345 310.002 219.485 304.922 219.485H16.9975C11.9568 219.485 7.8218 215.384 7.8218 210.298V195.524H314.057V210.298H314.097ZM44.2895 112.995C51.3122 112.995 57.193 108.185 58.9391 101.692H100.471V102.231C100.471 106.502 103.53 110.143 107.691 110.905L112.023 111.681C112.429 111.747 112.666 111.944 112.758 112.351C113.703 115.519 114.976 118.608 116.551 121.499C116.748 121.867 116.722 122.17 116.486 122.511L113.965 126.139C111.55 129.635 111.944 134.38 114.976 137.416L115.383 137.824L101.534 151.69H87.1208C85.375 145.197 79.4943 140.387 72.4713 140.387C64.0701 140.387 57.2443 147.221 57.2443 155.633C57.2443 164.045 64.0701 170.88 72.4713 170.88C79.4939 170.88 85.3747 166.069 87.1208 159.576H103.188C104.225 159.576 105.236 159.169 105.971 158.433L120.961 143.423L121.368 143.83C124.387 146.853 129.1 147.26 132.631 144.842L136.254 142.358C136.595 142.121 136.897 142.121 137.265 142.292C140.192 143.843 143.251 145.158 146.401 146.091C146.808 146.222 147.005 146.432 147.071 146.827L147.845 151.164C148.62 155.37 152.243 158.393 156.509 158.393H165.488C169.754 158.393 173.39 155.331 174.151 151.164L174.926 146.827C174.991 146.419 175.188 146.183 175.595 146.091C178.759 145.144 181.844 143.869 184.732 142.292C185.099 142.095 185.401 142.121 185.742 142.358L189.365 144.882C192.857 147.3 197.596 146.906 200.628 143.87L201.035 143.462L216.026 158.472C216.761 159.208 217.772 159.615 218.809 159.615H234.836C236.582 166.108 242.463 170.919 249.486 170.919C257.887 170.919 264.713 164.085 264.713 155.673C264.713 147.261 257.887 140.426 249.486 140.426C242.463 140.426 236.582 145.237 234.836 151.73H220.423L206.574 137.863L206.981 137.456C210 134.433 210.407 129.714 207.992 126.178L205.511 122.551C205.275 122.209 205.275 121.907 205.445 121.539C206.994 118.608 208.307 115.545 209.239 112.391C209.344 111.983 209.58 111.786 209.974 111.72L214.306 110.945C218.507 110.169 221.526 106.542 221.526 102.27V101.731H263.057C264.803 108.224 270.684 113.035 277.707 113.035C286.108 113.035 292.934 106.2 292.934 97.7884C292.934 89.3765 286.108 82.5419 277.707 82.5419C270.684 82.5419 264.804 87.3526 263.057 93.8456H221.485V93.3066C221.485 89.0351 218.427 85.3941 214.266 84.6319L209.934 83.8565C209.527 83.7907 209.29 83.5936 209.199 83.1861C208.253 80.0185 206.98 76.9297 205.405 74.038C205.208 73.6699 205.234 73.3677 205.471 73.0259L207.991 69.3984C210.406 65.902 210.012 61.1574 206.98 58.121L206.573 57.7136L220.422 43.847H234.835C236.581 50.34 242.462 55.1506 249.485 55.1506C257.886 55.1506 264.712 48.3161 264.712 39.9042C264.712 31.4922 257.886 24.6577 249.485 24.6577C242.462 24.6577 236.581 29.4683 234.835 35.9613H218.808C217.771 35.9613 216.76 36.3688 216.025 37.1048L201.034 52.1147L200.627 51.7073C197.608 48.6842 192.869 48.2769 189.364 50.6952L185.741 53.2188C185.4 53.4554 185.098 53.4554 184.731 53.2845C181.803 51.7073 178.745 50.4192 175.594 49.486C175.187 49.3809 174.99 49.1443 174.925 48.75L174.15 44.4125C173.376 40.2065 169.753 37.1836 165.487 37.1836H156.508C152.242 37.1836 148.605 40.2461 147.844 44.4125L147.07 48.75C147.004 49.1574 146.807 49.394 146.4 49.486C143.237 50.4324 140.152 51.7073 137.264 53.2845C136.896 53.4817 136.594 53.4554 136.253 53.2188L132.63 50.6952C129.138 48.2768 124.4 48.6711 121.367 51.7073L120.96 52.1147L105.97 37.1048C105.235 36.3688 104.224 35.9613 103.187 35.9613H87.1199C85.374 29.4683 79.4933 24.6577 72.4703 24.6577C64.0692 24.6577 57.2434 31.4922 57.2434 39.9042C57.2434 48.3161 64.0692 55.1506 72.4703 55.1506C79.493 55.1506 85.3738 50.34 87.1199 43.847H101.533L115.382 57.7136L114.975 58.121C111.956 61.144 111.549 65.8627 113.964 69.3984L116.445 73.0259C116.682 73.3677 116.682 73.67 116.511 74.038C114.936 76.969 113.649 80.0313 112.717 83.2255C112.612 83.6329 112.376 83.8301 111.982 83.8958L107.65 84.6713C103.45 85.4468 100.431 89.0744 100.431 93.346V93.8849H58.9357C57.1898 87.3919 51.3092 82.5813 44.2861 82.5813C35.885 82.5813 29.0592 89.4158 29.0592 97.8278C29.0592 106.227 35.8883 112.995 44.2895 112.995ZM72.4857 162.993C68.4166 162.993 65.1216 159.693 65.1216 155.619C65.1216 151.544 68.4165 148.245 72.4857 148.245C76.555 148.245 79.8498 151.544 79.8498 155.619C79.8761 159.667 76.5419 162.993 72.4857 162.993ZM249.434 148.219C253.503 148.219 256.798 151.518 256.798 155.593C256.798 159.667 253.503 162.966 249.434 162.966C245.365 162.966 242.07 159.667 242.07 155.593C242.044 151.518 245.378 148.219 249.434 148.219ZM277.63 90.3855C281.699 90.3855 284.994 93.6846 284.994 97.7591C284.994 101.833 281.7 105.133 277.63 105.133C273.561 105.133 270.266 101.834 270.266 97.7591C270.279 93.6847 273.574 90.3855 277.63 90.3855ZM249.434 32.5417C253.503 32.5417 256.798 35.8408 256.798 39.9153C256.798 43.9897 253.503 47.2888 249.434 47.2888C245.365 47.2888 242.07 43.9898 242.07 39.9153C242.044 35.8409 245.378 32.5417 249.434 32.5417ZM72.4857 47.3151C68.4166 47.3151 65.1216 44.016 65.1216 39.9415C65.1216 35.8671 68.4165 32.568 72.4857 32.568C76.555 32.568 79.8498 35.867 79.8498 39.9415C79.8761 43.9766 76.5419 47.3151 72.4857 47.3151ZM108.295 93.2778C108.295 92.8047 108.597 92.3972 109.069 92.3315L113.401 91.556C116.722 90.9514 119.282 88.6644 120.254 85.4311C121.054 82.7761 122.131 80.1474 123.443 77.6895C125.019 74.6927 124.861 71.2621 122.905 68.502L120.424 64.8744C120.162 64.467 120.188 63.9938 120.529 63.6652L126.882 57.3037C127.224 56.962 127.723 56.8963 128.09 57.1986L131.713 59.7222C134.496 61.6411 137.935 61.8383 140.889 60.2611C143.344 58.9467 145.929 57.8689 148.621 57.0672C151.85 56.0945 154.134 53.5315 154.738 50.2061L155.512 45.8685C155.617 45.3953 155.985 45.093 156.457 45.093H165.436C165.909 45.093 166.315 45.3954 166.381 45.8685L167.156 50.2061C167.759 53.5314 170.044 56.0944 173.273 57.0672C175.924 57.8689 178.55 58.9467 181.004 60.2611C183.997 61.8383 187.424 61.6806 190.18 59.7222L193.803 57.1986C194.21 56.9357 194.683 56.962 195.011 57.3037L201.364 63.6652C201.705 64.0069 201.771 64.5064 201.469 64.8744L198.949 68.502C197.032 71.2884 196.835 74.7322 198.41 77.6895C199.723 80.1473 200.799 82.776 201.6 85.4311C202.572 88.6645 205.131 90.9514 208.453 91.556L212.785 92.3315C213.257 92.4367 213.559 92.8047 213.559 93.2778V102.268C213.559 102.741 213.257 103.149 212.785 103.215L208.453 103.99C205.131 104.595 202.572 106.882 201.6 110.115C200.799 112.77 199.723 115.399 198.41 117.857C196.835 120.853 196.993 124.284 198.949 127.044L201.43 130.672C201.692 131.079 201.666 131.552 201.325 131.881L194.971 138.242C194.63 138.584 194.131 138.65 193.764 138.347L190.141 135.824C187.358 133.905 183.918 133.708 180.965 135.285C178.51 136.599 175.885 137.677 173.233 138.479C170.004 139.451 167.72 142.015 167.116 145.34L166.342 149.678C166.237 150.151 165.869 150.453 165.397 150.453H156.418C155.945 150.453 155.538 150.151 155.473 149.678L154.698 145.34C154.094 142.015 151.81 139.452 148.581 138.479C145.93 137.677 143.304 136.599 140.849 135.285C139.51 134.575 138.093 134.207 136.688 134.207C134.942 134.207 133.223 134.746 131.687 135.784L128.09 138.269C127.683 138.531 127.211 138.505 126.843 138.163L120.49 131.802C120.148 131.46 120.083 130.961 120.385 130.593L122.905 126.965C124.822 124.179 125.018 120.735 123.443 117.778C122.131 115.32 121.054 112.691 120.253 110.036C119.282 106.803 116.722 104.516 113.401 103.911L109.069 103.136C108.597 103.031 108.295 102.662 108.295 102.189L108.295 93.2778ZM44.2881 90.3862C48.3573 90.3862 51.6522 93.6853 51.6522 97.7598C51.6522 101.834 48.3574 105.133 44.2881 105.133C40.2189 105.133 36.924 101.834 36.924 97.7598C36.8847 93.6854 40.2189 90.3862 44.2881 90.3862ZM160.96 127.123C177.119 127.123 190.298 113.927 190.298 97.7467C190.298 81.5668 177.119 68.3705 160.96 68.3705C144.801 68.3705 131.621 81.5668 131.621 97.7467C131.621 113.966 144.801 127.123 160.96 127.123ZM160.96 76.2441C172.787 76.2441 182.435 85.9047 182.435 97.747C182.435 109.589 172.787 119.25 160.96 119.25C149.133 119.25 139.485 109.589 139.485 97.747C139.485 85.9047 149.133 76.2441 160.96 76.2441Z" fill="url(#paint0_linear_1351_3305)"/>
<defs>
<linearGradient id="paint0_linear_1351_3305" x1="161" y1="0" x2="161" y2="304" gradientUnits="userSpaceOnUse">
<stop stop-color="#0BE6E6"/>
<stop offset="1" stop-color="#0B9292" stop-opacity="0.45"/>
</linearGradient>
</defs>
</svg>
