<svg width="28" height="28" viewBox="0 0 28 28" fill="none" xmlns="http://www.w3.org/2000/svg">
<path d="M26.3846 16.8298L25.4623 16.2973C25.6171 15.5268 25.6955 14.7554 25.6955 13.9999C25.6955 13.2335 25.6184 12.4613 25.4661 11.7003L26.3846 11.17C26.6691 11.0058 26.8726 10.7406 26.9576 10.4233C27.0425 10.106 26.9989 9.77463 26.8347 9.49017L24.3229 5.13959C24.1586 4.85513 23.8935 4.65163 23.5762 4.56664C23.2589 4.48166 22.9275 4.52525 22.643 4.68951L21.7238 5.22023C20.5627 4.19872 19.1962 3.40813 17.7415 2.91624V1.85961C17.7415 1.18153 17.1899 0.629883 16.5118 0.629883H11.4882C10.8101 0.629883 10.2585 1.18153 10.2585 1.85961V2.91629C8.8116 3.4062 7.44696 4.19783 6.28154 5.22337L5.35694 4.68951C5.07243 4.52525 4.74103 4.48161 4.42376 4.56664C4.10649 4.65168 3.84134 4.85513 3.67708 5.13959L1.16529 9.49017C1.00103 9.77463 0.957435 10.106 1.04242 10.4233C1.1274 10.7406 1.33091 11.0058 1.61537 11.17L2.53772 11.7025C2.38293 12.473 2.30449 13.2445 2.30449 13.9999C2.30449 14.7662 2.38162 15.5385 2.5339 16.2995L1.61542 16.8298C1.02818 17.1689 0.826299 17.9224 1.16529 18.5097L3.67708 22.8603C4.01612 23.4475 4.76965 23.6494 5.35694 23.3104L6.2761 22.7796C7.43728 23.8012 8.80375 24.5917 10.2585 25.0837V26.1403C10.2585 26.8183 10.8101 27.37 11.4882 27.37H16.5118C17.1899 27.37 17.7415 26.8183 17.7415 26.1403V25.0836C19.1885 24.5937 20.5531 23.802 21.7185 22.7766L22.6431 23.3104C23.2303 23.6494 23.9839 23.4475 24.3229 22.8603L26.8347 18.5097C27.1737 17.9224 26.9718 17.1689 26.3846 16.8298ZM26.1549 18.1172L23.6431 22.4678C23.5205 22.6802 23.248 22.7532 23.0356 22.6306L21.8638 21.954C21.7149 21.8681 21.5273 21.8891 21.4011 22.0058C20.2031 23.1138 18.7618 23.9497 17.233 24.4233C17.0686 24.4743 16.9566 24.6262 16.9566 24.7982V26.1403C16.9566 26.3855 16.7571 26.5851 16.5118 26.5851H11.4882C11.243 26.5851 11.0434 26.3855 11.0434 26.1403V24.7983C11.0434 24.6263 10.9314 24.4743 10.7671 24.4234C9.22887 23.9468 7.78574 23.1119 6.59363 22.009C6.51927 21.9402 6.42356 21.9046 6.32702 21.9046C6.25972 21.9046 6.19206 21.9219 6.13089 21.9572L4.96447 22.6306C4.75202 22.7532 4.47949 22.6802 4.35688 22.4678L1.84509 18.1172C1.72248 17.9048 1.79554 17.6322 2.00789 17.5096L3.17336 16.8367C3.32218 16.7508 3.3978 16.5781 3.35996 16.4104C3.18042 15.6147 3.08942 14.8036 3.08942 13.9999C3.08942 13.2098 3.18178 12.3995 3.36399 11.5917C3.40177 11.424 3.32616 11.2513 3.17739 11.1654L2.00789 10.4902C1.90501 10.4308 1.83143 10.3349 1.80066 10.2202C1.76995 10.1054 1.7857 9.98552 1.84509 9.88264L4.35688 5.53206C4.41628 5.42918 4.5122 5.35556 4.627 5.32484C4.74171 5.29407 4.86165 5.30987 4.96453 5.36927L6.13628 6.04577C6.28521 6.1318 6.47275 6.11077 6.59897 5.99402C7.79699 4.88606 9.23829 4.0501 10.7671 3.57647C10.9314 3.52556 11.0435 3.3736 11.0435 3.20159V1.85961C11.0435 1.61435 11.243 1.41482 11.4883 1.41482H16.5119C16.7571 1.41482 16.9567 1.61435 16.9567 1.85961V3.20159C16.9567 3.3736 17.0687 3.52556 17.233 3.57647C18.7712 4.05298 20.2143 4.88789 21.4064 5.99088C21.5327 6.10768 21.7203 6.12866 21.8692 6.04269L23.0356 5.36927C23.1385 5.30987 23.2584 5.29407 23.3731 5.32484C23.4879 5.35561 23.5838 5.42918 23.6432 5.53206L26.155 9.88264C26.2144 9.98552 26.2302 10.1054 26.1995 10.2202C26.1687 10.3349 26.0951 10.4308 25.9922 10.4902L24.8268 11.1631C24.6779 11.2491 24.6023 11.4218 24.6402 11.5894C24.8197 12.3851 24.9107 13.1961 24.9107 13.9999C24.9107 14.7901 24.8183 15.6004 24.6361 16.4082C24.5984 16.5758 24.674 16.7485 24.8227 16.8344L25.9922 17.5096C26.2045 17.6322 26.2776 17.9048 26.1549 18.1172Z" fill="white" stroke="white" stroke-width="0.3"/>
<path d="M13.9982 6.07202C9.62669 6.07202 6.07031 9.62846 6.07031 13.9999C6.07031 18.3713 9.62669 21.9277 13.9982 21.9277C18.3696 21.9277 21.926 18.3713 21.926 13.9999C21.926 9.62846 18.3696 6.07202 13.9982 6.07202ZM13.9982 21.1428C10.0596 21.1428 6.85525 17.9385 6.85525 13.9999C6.85525 10.0613 10.0596 6.85696 13.9982 6.85696C17.9367 6.85696 21.1411 10.0613 21.1411 13.9999C21.1411 17.9385 17.9367 21.1428 13.9982 21.1428Z" fill="white" stroke="white" stroke-width="0.3"/>
<path d="M15.4671 11.9329H14.0018C13.7851 11.9329 13.6094 12.1086 13.6094 12.3253V15.6744C13.6094 15.8911 13.7851 16.0669 14.0018 16.0669C14.2186 16.0669 14.3943 15.8911 14.3943 15.6744V14.811H15.4671C16.2606 14.811 16.9061 14.1654 16.9061 13.3719C16.9061 12.5784 16.2606 11.9329 15.4671 11.9329ZM15.4671 14.026H14.3943V12.7178H15.4671C15.8278 12.7178 16.1212 13.0112 16.1212 13.3719C16.1212 13.7326 15.8278 14.026 15.4671 14.026Z" fill="white" stroke="white" stroke-width="0.3"/>
<path d="M11.8564 12.1875C11.799 12.0344 11.6525 11.9329 11.489 11.9329H11.0703C10.9067 11.9329 10.7603 12.0343 10.7029 12.1875L9.44698 15.5366C9.37084 15.7395 9.47372 15.9658 9.67665 16.0419C9.87958 16.118 10.1058 16.0152 10.1819 15.8122L10.4004 15.2296H12.1589L12.3774 15.8122C12.4364 15.9697 12.586 16.067 12.7449 16.067C12.7906 16.067 12.8372 16.0589 12.8826 16.0419C13.0855 15.9658 13.1884 15.7395 13.1123 15.5366L11.8564 12.1875ZM10.6947 14.4447L11.2796 12.8849L11.8646 14.4447H10.6947Z" fill="white" stroke="white" stroke-width="0.3"/>
<path d="M17.7675 11.9329C17.5507 11.9329 17.375 12.1086 17.375 12.3253V15.6744C17.375 15.8911 17.5507 16.0669 17.7675 16.0669C17.9842 16.0669 18.1599 15.8911 18.1599 15.6744V12.3253C18.1599 12.1086 17.9842 11.9329 17.7675 11.9329Z" fill="white" stroke="white" stroke-width="0.3"/>
<path d="M16.8047 5.19836C17.077 5.28517 17.3486 5.38601 17.6116 5.49799C17.6618 5.51934 17.7139 5.52944 17.7652 5.52944C17.9177 5.52944 18.0629 5.43986 18.1264 5.29062C18.2113 5.09119 18.1185 4.86068 17.9191 4.7758C17.6334 4.65424 17.3387 4.54477 17.043 4.45053C16.8365 4.3847 16.6157 4.49877 16.5499 4.70526C16.4841 4.91175 16.5982 5.13253 16.8047 5.19836Z" fill="white" stroke="white" stroke-width="0.3"/>
<path d="M5.88552 18.4165C5.7817 18.2262 5.54324 18.1561 5.35302 18.2599C5.16275 18.3637 5.09263 18.6022 5.19645 18.7924C5.3593 19.0909 5.53957 19.3845 5.73225 19.6651C5.80834 19.7759 5.93115 19.8354 6.05611 19.8354C6.13267 19.8354 6.21001 19.8131 6.27794 19.7665C6.45664 19.6438 6.50201 19.3994 6.3793 19.2208C6.20174 18.9622 6.0356 18.6916 5.88552 18.4165Z" fill="white" stroke="white" stroke-width="0.3"/>
<path d="M13.1927 23.2015C11.0897 23.0202 9.09341 22.1089 7.57173 20.6352C7.416 20.4844 7.16755 20.4884 7.01679 20.6441C6.86603 20.7998 6.86995 21.0483 7.02568 21.199C8.67666 22.798 10.8429 23.7868 13.1253 23.9835C13.1368 23.9845 13.1481 23.9849 13.1594 23.9849C13.3609 23.9849 13.5324 23.8306 13.55 23.6262C13.5686 23.4103 13.4086 23.2201 13.1927 23.2015Z" fill="white" stroke="white" stroke-width="0.3"/>
<path d="M19.6452 5.72069C19.4662 5.5984 19.222 5.64434 19.0997 5.82326C18.9774 6.00222 19.0234 6.24644 19.2023 6.36873C21.0256 7.61484 22.3446 9.46912 22.9162 11.5899C22.9634 11.765 23.1218 11.8803 23.2949 11.8803C23.3287 11.8803 23.3631 11.8759 23.3972 11.8667C23.6066 11.8103 23.7305 11.5949 23.6741 11.3857C23.0539 9.08424 21.623 7.0724 19.6452 5.72069Z" fill="white" stroke="white" stroke-width="0.3"/>
</svg>
