<svg width="306" height="306" viewBox="0 0 306 306" fill="none" xmlns="http://www.w3.org/2000/svg">
<path d="M153.001 69.026C106.697 69.026 69.0268 106.697 69.0268 153C69.0268 199.302 106.698 236.974 153.001 236.974C199.303 236.974 236.974 199.302 236.974 153C236.974 106.697 199.304 69.026 153.001 69.026ZM156.795 118.169C166.768 117.928 176.494 116.746 185.538 114.724C188.568 125.016 190.442 136.774 190.76 149.206H156.795V118.169ZM156.795 110.578V77.0164C167.417 79.2704 176.896 90.8472 183.132 107.497C174.852 109.293 165.948 110.349 156.795 110.578ZM149.206 77.0164V110.578C140.053 110.349 131.148 109.293 122.869 107.497C129.105 90.8472 138.585 79.2704 149.206 77.0164ZM149.206 118.169V149.206H115.24C115.559 136.774 117.432 125.016 120.463 114.724C129.506 116.746 139.232 117.928 149.205 118.169H149.206ZM107.652 149.205H76.7103C77.5295 132.544 83.7138 117.273 93.5651 105.079C99.3497 108.179 105.929 110.787 113.059 112.838C109.821 123.935 107.957 136.314 107.652 149.204V149.205ZM107.652 156.795C107.957 169.685 109.821 182.064 113.059 193.161C105.928 195.213 99.3488 197.819 93.5651 200.921C83.7147 188.727 77.5295 173.455 76.7103 156.796H107.652V156.795ZM115.241 156.795H149.207V187.831C139.233 188.071 129.508 189.253 120.464 191.275C117.434 180.984 115.561 169.227 115.242 156.795H115.241ZM149.206 195.421V228.983C138.584 226.729 129.105 215.152 122.868 198.502C131.148 196.706 140.052 195.651 149.206 195.421ZM156.795 228.983V195.421C165.948 195.651 174.853 196.706 183.132 198.502C176.896 215.152 167.416 226.73 156.795 228.983ZM156.795 187.831V156.795H190.76C190.442 169.227 188.568 180.984 185.538 191.275C176.494 189.252 166.769 188.07 156.795 187.831ZM198.35 156.795H229.291C228.472 173.455 222.287 188.727 212.436 200.92C206.651 197.819 200.072 195.212 192.942 193.16C196.18 182.064 198.045 169.684 198.35 156.794V156.795ZM198.35 149.205C198.045 136.315 196.18 123.935 192.942 112.839C200.072 110.787 206.651 108.18 212.436 105.08C222.286 117.274 228.472 132.545 229.291 149.206H198.35V149.205ZM207.214 99.2457C202.219 101.77 196.617 103.913 190.576 105.636C189.15 101.746 187.549 98.0468 185.762 94.6023C182.762 88.8205 179.383 83.9536 175.719 80.0649C187.764 83.8248 198.536 90.4949 207.214 99.2457ZM130.282 80.0649C126.617 83.9536 123.238 88.8205 120.238 94.6023C118.451 98.0468 116.85 101.747 115.424 105.636C109.384 103.913 103.781 101.769 98.7862 99.2448C107.463 90.494 118.236 83.8238 130.282 80.064V80.0649ZM98.7862 206.754C103.781 204.23 109.383 202.087 115.424 200.363C116.85 204.253 118.451 207.952 120.238 211.396C123.238 217.178 126.617 222.045 130.282 225.934C118.236 222.174 107.463 215.504 98.7862 206.753V206.754ZM175.72 225.935C179.384 222.046 182.763 217.179 185.763 211.397C187.55 207.953 189.151 204.253 190.577 200.363C196.617 202.086 202.22 204.23 207.215 206.754C198.538 215.505 187.765 222.175 175.72 225.935ZM130.911 26.468C129.429 24.9868 129.429 22.5842 130.911 21.102L150.317 1.69583C151.029 0.983643 151.994 0.583984 153 0.583984C154.005 0.583984 154.971 0.983643 155.683 1.69583L175.089 21.102C176.571 22.5832 176.571 24.9859 175.089 26.468C174.347 27.2096 173.377 27.5799 172.406 27.5799C171.435 27.5799 170.463 27.2096 169.723 26.468L156.795 13.5407V52.5027C156.795 54.5985 155.096 56.2976 153 56.2976C150.904 56.2976 149.205 54.5985 149.205 52.5027V13.5407L136.277 26.468C134.796 27.9502 132.394 27.9502 130.911 26.468ZM221.379 84.6203C219.897 83.1391 219.897 80.7364 221.379 79.2543L248.93 51.7034H230.647C228.551 51.7034 226.852 50.0044 226.852 47.9085C226.852 45.8127 228.551 44.1136 230.647 44.1136H258.091C260.187 44.1136 261.886 45.8127 261.886 47.9085V75.3524C261.886 77.4482 260.187 79.1472 258.091 79.1472C255.995 79.1472 254.296 77.4482 254.296 75.3524V57.0685L226.746 84.6193C226.006 85.3609 225.034 85.7312 224.063 85.7312C223.092 85.7312 222.121 85.3609 221.38 84.6193L221.379 84.6203ZM304.304 155.683L284.898 175.089C284.158 175.831 283.186 176.201 282.215 176.201C281.245 176.201 280.273 175.831 279.532 175.089C278.05 173.608 278.05 171.205 279.532 169.723L292.461 156.795H253.499C251.403 156.795 249.704 155.096 249.704 153C249.704 150.904 251.403 149.205 253.499 149.205H292.461L279.532 136.277C278.05 134.795 278.05 132.393 279.532 130.911C281.015 129.428 283.417 129.429 284.898 130.911L304.304 150.317C305.786 151.798 305.786 154.201 304.304 155.683ZM261.886 230.646V258.09C261.886 260.186 260.187 261.885 258.091 261.885H230.647C228.551 261.885 226.852 260.186 226.852 258.09C226.852 255.994 228.551 254.295 230.647 254.295H248.93L221.379 226.744C219.897 225.263 219.897 222.861 221.379 221.378C222.861 219.896 225.263 219.896 226.745 221.378L254.295 248.928V230.645C254.295 228.55 255.994 226.851 258.09 226.851C260.186 226.851 261.885 228.55 261.885 230.645L261.886 230.646ZM175.09 279.532C176.572 281.013 176.572 283.416 175.09 284.898L155.685 304.304C154.972 305.016 154.007 305.416 153.002 305.416C151.996 305.416 151.03 305.016 150.319 304.304L130.912 284.898C129.43 283.416 129.43 281.014 130.912 279.532C132.395 278.049 134.796 278.049 136.278 279.532L149.207 292.459V253.497C149.207 251.401 150.906 249.702 153.002 249.702C155.097 249.702 156.796 251.401 156.796 253.497V292.459L169.724 279.532C171.205 278.049 173.608 278.049 175.09 279.532ZM84.622 221.379C86.1042 222.861 86.1042 225.263 84.622 226.745L57.0711 254.296H75.3541C77.4499 254.296 79.149 255.995 79.149 258.091C79.149 260.187 77.4499 261.886 75.3541 261.886H47.9102C45.8144 261.886 44.1154 260.187 44.1154 258.091V230.647C44.1154 228.551 45.8144 226.852 47.9102 226.852C50.0061 226.852 51.7051 228.551 51.7051 230.647V248.931L79.255 221.38C80.7362 219.898 83.1389 219.898 84.6211 221.38L84.622 221.379ZM26.4688 169.723C27.951 171.204 27.951 173.607 26.4688 175.089C25.7282 175.831 24.7565 176.201 23.7858 176.201C22.8151 176.201 21.8434 175.831 21.1028 175.089L1.69755 155.683C0.215401 154.202 0.215401 151.799 1.69755 150.317L21.1028 130.911C22.584 129.428 24.9867 129.428 26.4688 130.911C27.951 132.392 27.951 134.795 26.4688 136.277L13.5405 149.205H52.5025C54.5984 149.205 56.2974 150.904 56.2974 153C56.2974 155.096 54.5984 156.795 52.5025 156.795H13.5415L26.4698 169.723H26.4688ZM44.1154 75.3533V47.9095C44.1154 45.8136 45.8144 44.1146 47.9102 44.1146H75.3541C77.4499 44.1146 79.149 45.8136 79.149 47.9095C79.149 50.0053 77.4499 51.7043 75.3541 51.7043H57.0702L84.6211 79.2552C86.1032 80.7364 86.1032 83.1391 84.6211 84.6212C83.8805 85.3628 82.9088 85.7331 81.938 85.7331C80.9673 85.7331 79.9956 85.3628 79.255 84.6212L51.7051 57.0713V75.3543C51.7051 77.4501 50.0061 79.1491 47.9102 79.1491C45.8144 79.1491 44.1154 77.4501 44.1154 75.3543V75.3533Z" fill="url(#paint0_linear_862_3685)"/>
<defs>
<linearGradient id="paint0_linear_862_3685" x1="153.001" y1="0.583984" x2="153.001" y2="305.416" gradientUnits="userSpaceOnUse">
<stop stop-color="#0BE6E6"/>
<stop offset="1" stop-color="#0B9292" stop-opacity="0.45"/>
</linearGradient>
</defs>
</svg>
