<svg width="62" height="55" viewBox="0 0 62 55" fill="none" xmlns="http://www.w3.org/2000/svg">
<path d="M55 53V32M31 53V23M7 53L7 41M35.22 8.08251L50.7254 13.897M27.3963 9.20277L10.6007 21.7995M58.182 12.318C59.9393 14.0754 59.9393 16.9246 58.182 18.682C56.4246 20.4393 53.5754 20.4393 51.818 18.682C50.0607 16.9246 50.0607 14.0754 51.818 12.318C53.5754 10.5607 56.4246 10.5607 58.182 12.318ZM10.182 21.318C11.9393 23.0754 11.9393 25.9246 10.182 27.682C8.42462 29.4393 5.57538 29.4393 3.81802 27.682C2.06066 25.9246 2.06066 23.0754 3.81802 21.318C5.57538 19.5607 8.42462 19.5607 10.182 21.318ZM34.182 3.31802C35.9393 5.07538 35.9393 7.92462 34.182 9.68198C32.4246 11.4393 29.5754 11.4393 27.818 9.68198C26.0607 7.92462 26.0607 5.07538 27.818 3.31802C29.5754 1.56066 32.4246 1.56066 34.182 3.31802Z" stroke="url(#paint0_linear_781_2504)" stroke-width="4" stroke-linecap="round" stroke-linejoin="round"/>
<defs>
<linearGradient id="paint0_linear_781_2504" x1="31" y1="2" x2="31" y2="53" gradientUnits="userSpaceOnUse">
<stop stop-color="#0BE6E6"/>
<stop offset="1" stop-color="#0B9292" stop-opacity="0.45"/>
</linearGradient>
</defs>
</svg>
