<svg width="31" height="31" viewBox="0 0 31 31" fill="none" xmlns="http://www.w3.org/2000/svg">
<path d="M27.7251 16.6867C27.7948 16.1343 27.8307 15.5714 27.8307 15.0001C27.8307 7.63628 21.8612 1.66675 14.4974 1.66675C7.1336 1.66675 1.16406 7.63628 1.16406 15.0001C1.16406 22.3639 7.1336 28.3334 14.4974 28.3334C15.0779 28.3334 15.6498 28.2963 16.2108 28.2243M14.4974 7.00008V15.0001L19.4819 17.4923M29.4819 29.8336L27.4819 27.8336M28.8152 24.5002C28.8152 27.0776 26.7259 29.1669 24.1486 29.1669C21.5712 29.1669 19.4819 27.0776 19.4819 24.5002C19.4819 21.9229 21.5712 19.8336 24.1486 19.8336C26.7259 19.8336 28.8152 21.9229 28.8152 24.5002Z" stroke="url(#paint0_linear_979_280)" stroke-width="2" stroke-linecap="round" stroke-linejoin="round"/>
<defs>
<linearGradient id="paint0_linear_979_280" x1="15.323" y1="1.66675" x2="15.323" y2="29.8336" gradientUnits="userSpaceOnUse">
<stop stop-color="#05A6A6"/>
<stop offset="1" stop-color="#0D5B6A"/>
</linearGradient>
</defs>
</svg>
