<svg width="274" height="274" viewBox="0 0 274 274" fill="none" xmlns="http://www.w3.org/2000/svg">
<path d="M241.678 141.649C243.601 148.496 249.891 153.547 257.362 153.547C266.351 153.547 273.638 146.248 273.638 137.27C273.638 128.28 266.317 120.993 257.362 120.993C249.891 120.993 243.601 126.032 241.678 132.891L201.704 132.868V112.849H216.497C218.246 112.849 219.844 111.806 220.528 110.185L230.814 86.3429C231.521 86.4356 232.239 86.4935 232.98 86.4935C241.969 86.4935 249.255 79.1952 249.255 70.2168C249.255 61.2272 241.958 53.9401 232.98 53.9401C223.992 53.9401 216.705 61.2384 216.705 70.2168C216.705 75.3143 219.08 79.8901 222.752 82.8558L213.624 104.033H201.728V91.8454C201.728 81.3495 193.191 72.7768 182.661 72.7768L170.452 72.7537V59.6396L197.673 29.3568H232.609C234.532 36.2034 240.822 41.2543 248.293 41.2543C257.282 41.2543 264.569 33.956 264.569 24.9776C264.569 15.988 257.271 8.70095 248.293 8.70095C240.822 8.70095 234.532 13.7403 232.609 20.5985L195.716 20.5869C194.465 20.5869 193.284 21.1198 192.45 22.035L162.795 55.0403C162.089 55.8397 161.672 56.9055 161.672 57.9713V72.7651H141.655V32.8081C148.501 30.8851 153.551 24.5946 153.551 17.1222C153.517 8.13258 146.23 0.833984 137.242 0.833984C128.253 0.833984 120.966 8.13229 120.966 17.1107C120.966 24.5828 126.005 30.8733 132.863 32.7966V72.7743H112.846V57.9804C112.846 56.2312 111.804 54.6325 110.182 53.9489L86.3426 43.6614C86.4353 42.9548 86.4932 42.2365 86.4932 41.4951C86.4932 32.5054 79.1956 25.2184 70.2181 25.2184C61.2293 25.2184 53.9429 32.5167 53.9429 41.4951C53.9429 50.4847 61.264 57.7718 70.2181 57.7718C75.315 57.7718 79.8904 55.3969 82.879 51.7244L104.054 60.8531V72.7506H91.8678C81.3728 72.7506 72.801 81.2886 72.801 91.8192V104.006H59.6881L29.4082 76.7822L29.385 41.8759C36.231 39.9528 41.2814 33.6623 41.2814 26.19C41.2814 17.2003 33.9838 9.91328 25.0063 9.91328C16.0175 9.91328 8.73115 17.2116 8.73115 26.19C8.73115 33.6621 13.77 39.9526 20.6275 41.8759V78.7722C20.6275 80.0234 21.1604 81.205 22.0755 82.0392L55.0777 111.696C55.877 112.403 56.9427 112.82 58.0084 112.82H72.8008V132.839H32.8032C30.8803 125.992 24.5904 120.941 17.1187 120.941C8.15307 120.976 0.832031 128.263 0.832031 137.252C0.832031 146.242 8.15307 153.529 17.1072 153.529C24.5786 153.529 30.8685 148.49 32.7916 141.632H72.7655V161.65H57.9731C56.224 161.65 54.6254 162.693 53.9419 164.315L43.6554 188.156C42.9488 188.063 42.2306 188.006 41.4893 188.006C32.5005 188.006 25.2141 195.304 25.2141 204.282C25.2141 213.272 32.5117 220.559 41.4893 220.559C50.4781 220.559 57.7644 213.261 57.7644 204.282C57.7644 199.185 55.3898 194.609 51.7176 191.62L60.8455 170.443H72.7419V182.631C72.7419 193.126 81.279 201.699 91.8087 201.699H103.995V214.813L76.7731 245.096L41.87 245.119C39.9471 238.273 33.6573 233.222 26.1856 233.222C17.1968 233.222 9.91047 240.52 9.91047 249.498C9.91047 258.488 17.2081 265.775 26.1856 265.775C33.657 265.775 39.947 260.736 41.87 253.877H78.7629C80.0139 253.877 81.1954 253.345 82.0296 252.429L111.684 219.424C112.39 218.625 112.807 217.559 112.807 216.493V201.699H132.824V241.677C125.978 243.6 120.928 249.89 120.928 257.363C120.928 266.353 128.225 273.64 137.203 273.64C146.192 273.64 153.478 266.341 153.478 257.363C153.478 249.891 148.439 243.6 141.582 241.677L141.593 201.72H161.61V216.514C161.61 218.263 162.652 219.862 164.274 220.545L188.113 230.833C188.021 231.54 187.963 232.258 187.963 232.999C187.963 241.989 195.26 249.276 204.238 249.276C213.227 249.276 220.513 241.978 220.513 232.999C220.513 224.01 213.192 216.723 204.238 216.723C199.141 216.723 194.566 219.097 191.577 222.77L170.402 213.641V201.744H182.588C193.083 201.744 201.655 193.206 201.655 182.675L201.678 170.465H214.791L245.071 197.689V232.628C238.225 234.551 233.175 240.841 233.175 248.314C233.175 257.303 240.496 264.591 249.45 264.591C258.439 264.591 265.725 257.269 265.725 248.314C265.725 240.865 260.686 234.551 253.828 232.628L253.84 195.732C253.84 194.48 253.307 193.299 252.392 192.465L219.39 162.807C218.591 162.101 217.525 161.684 216.459 161.684H201.667V141.665H241.676L241.678 141.649ZM257.374 129.751C261.498 129.751 264.88 133.099 264.88 137.258C264.88 141.406 261.532 144.765 257.374 144.765C253.25 144.765 249.868 141.417 249.868 137.258C249.868 133.111 253.216 129.751 257.374 129.751ZM232.99 62.7325C237.114 62.7325 240.496 66.0805 240.496 70.2393C240.496 74.3865 237.149 77.7461 232.99 77.7461C228.867 77.7461 225.484 74.3981 225.484 70.2393C225.496 66.0805 228.867 62.7325 232.99 62.7325ZM248.292 17.5055C252.416 17.5055 255.798 20.8535 255.798 25.0123C255.798 29.1595 252.451 32.5191 248.292 32.5191C244.146 32.5191 240.786 29.1711 240.786 25.0123C240.798 20.8535 244.146 17.5055 248.292 17.5055ZM129.735 17.1116C129.735 12.9875 133.082 9.60482 137.241 9.60482C141.365 9.60482 144.747 12.9528 144.747 17.1116C144.747 21.2589 141.399 24.6184 137.241 24.6184C133.117 24.6184 129.735 21.2704 129.735 17.1116ZM70.1949 48.9929C66.0712 48.9929 62.6889 45.645 62.6889 41.4861C62.6889 37.3389 66.0365 33.9794 70.1949 33.9794C74.3418 33.9794 77.701 37.3273 77.701 41.4861C77.701 45.645 74.3418 48.9929 70.1949 48.9929ZM17.4994 26.1941C17.4994 22.07 20.847 18.6873 25.0054 18.6873C29.1292 18.6873 32.5115 22.0353 32.5115 26.1941C32.5115 30.3182 29.1639 33.7009 25.0054 33.7009C20.847 33.6893 17.4994 30.3413 17.4994 26.1941ZM17.1055 144.763C12.9818 144.763 9.59943 141.415 9.59943 137.256C9.59943 133.109 12.9471 129.749 17.1055 129.749C21.2292 129.749 24.6116 133.097 24.6116 137.256C24.6116 141.403 21.2639 144.763 17.1055 144.763ZM41.4893 211.782C37.3656 211.782 33.9832 208.434 33.9832 204.275C33.9832 200.128 37.3309 196.768 41.4893 196.768C45.613 196.768 48.9954 200.116 48.9954 204.275C48.9838 208.434 45.613 211.782 41.4893 211.782ZM26.1871 257.009C22.0634 257.009 18.681 253.661 18.681 249.502C18.681 245.378 22.0287 241.995 26.1871 241.995C30.334 241.995 33.6932 245.343 33.6932 249.502C33.6816 253.661 30.334 257.009 26.1871 257.009ZM144.745 257.403C144.745 261.527 141.397 264.91 137.239 264.91C133.115 264.91 129.733 261.562 129.733 257.403C129.733 253.256 133.08 249.896 137.239 249.896C141.362 249.896 144.745 253.244 144.745 257.403ZM204.285 225.522C208.408 225.522 211.791 228.869 211.791 233.028C211.791 237.152 208.443 240.535 204.285 240.535C200.138 240.535 196.779 237.187 196.779 233.028C196.779 228.893 200.138 225.522 204.285 225.522ZM192.898 182.658C192.898 188.323 188.299 192.922 182.635 192.922H91.8425C86.178 192.922 81.5795 188.323 81.5795 182.658V91.8572C81.5795 86.1921 86.1783 81.5932 91.8425 81.5932H182.647C188.311 81.5932 192.91 86.1924 192.91 91.8572L192.898 182.658ZM256.978 248.322C256.978 252.446 253.63 255.829 249.472 255.829C245.348 255.829 241.966 252.481 241.966 248.322C241.966 244.198 245.313 240.815 249.472 240.815C253.63 240.827 256.978 244.175 256.978 248.322ZM179.02 91.0802H95.4541C93.0215 91.0802 91.0638 93.038 91.0638 95.4709V179.021C91.0638 181.454 93.0214 183.411 95.4541 183.411H178.996C181.429 183.411 183.386 181.454 183.386 179.021L183.375 95.4709C183.41 93.0381 181.452 91.0802 179.02 91.0802ZM174.606 174.63H99.8687V99.8854H174.594L174.606 174.63ZM144.534 146.931C144.534 144.023 142.159 141.683 139.287 141.683H135.221C127.483 141.683 121.17 135.369 121.17 127.631C121.17 120.692 126.243 114.91 132.858 113.775V111.076C132.858 108.643 134.815 106.685 137.248 106.685C139.68 106.685 141.638 108.643 141.638 111.076L141.627 113.532H148.924C151.357 113.532 153.315 115.49 153.315 117.923C153.315 120.355 151.357 122.313 148.924 122.313H135.198C132.29 122.313 129.95 124.688 129.95 127.561C129.95 130.434 132.325 132.809 135.198 132.809H139.263C147.036 132.809 153.315 139.123 153.315 146.861C153.315 153.801 148.241 159.582 141.627 160.717V163.416C141.627 165.849 139.669 167.807 137.236 167.807C134.804 167.807 132.846 165.849 132.846 163.416V160.983H125.548C123.116 160.983 121.158 159.026 121.158 156.593C121.158 154.16 123.116 152.202 125.548 152.202H139.275C142.159 152.179 144.534 149.827 144.534 146.931Z" fill="url(#paint0_linear_862_1069)"/>
<defs>
<linearGradient id="paint0_linear_862_1069" x1="137.235" y1="0.833984" x2="137.235" y2="273.64" gradientUnits="userSpaceOnUse">
<stop stop-color="#0BE6E6"/>
<stop offset="1" stop-color="#0B9292" stop-opacity="0.45"/>
</linearGradient>
</defs>
</svg>
