<svg width="32" height="32" viewBox="0 0 32 32" fill="none" xmlns="http://www.w3.org/2000/svg">
<path d="M29.2251 17.6866C29.2948 17.1342 29.3307 16.5713 29.3307 16C29.3307 8.63616 23.3612 2.66663 15.9974 2.66663C8.6336 2.66663 2.66406 8.63616 2.66406 16C2.66406 23.3638 8.6336 29.3333 15.9974 29.3333C16.5779 29.3333 17.1498 29.2962 17.7108 29.2242M15.9974 7.99996V16L20.9819 18.4922" stroke="white" stroke-width="2" stroke-linecap="round" stroke-linejoin="round"/>
<path fill-rule="evenodd" clip-rule="evenodd" d="M24.8487 20.7398C24.751 20.6422 24.5927 20.6422 24.4951 20.7398C24.3975 20.8375 24.3975 20.9958 24.4951 21.0934C24.5927 21.191 24.751 21.191 24.8487 21.0934C24.9463 20.9958 24.9463 20.8375 24.8487 20.7398ZM23.788 20.0327C24.2761 19.5446 25.0676 19.5446 25.5558 20.0327C25.7831 20.2601 25.9045 20.5531 25.9201 20.8507L27.7747 21.5462C27.7791 21.5417 27.7835 21.5372 27.788 21.5327C28.2761 21.0446 29.0676 21.0446 29.5558 21.5327C30.0439 22.0209 30.0439 22.8124 29.5558 23.3005C29.0676 23.7887 28.2761 23.7887 27.788 23.3005C27.5607 23.0732 27.4392 22.7801 27.4236 22.4825L25.569 21.7871C25.5646 21.7916 25.5602 21.796 25.5558 21.8005C25.1491 22.2071 24.532 22.2751 24.0551 22.0042L21.8885 23.6291C21.9844 24.0366 21.8735 24.4828 21.5558 24.8005C21.0676 25.2887 20.2761 25.2887 19.788 24.8005C19.2998 24.3124 19.2998 23.5209 19.788 23.0327C20.1946 22.6261 20.8117 22.5582 21.2887 22.829L23.4552 21.2041C23.3593 20.7967 23.4703 20.3505 23.788 20.0327ZM28.8487 22.2398C28.751 22.1422 28.5927 22.1422 28.4951 22.2398C28.3975 22.3375 28.3975 22.4958 28.4951 22.5934C28.5927 22.691 28.751 22.691 28.8487 22.5934C28.9463 22.4958 28.9463 22.3375 28.8487 22.2398ZM20.8487 23.7398C20.751 23.6422 20.5927 23.6422 20.4951 23.7398C20.3975 23.8375 20.3975 23.9958 20.4951 24.0934C20.5927 24.191 20.751 24.191 20.8487 24.0934C20.9463 23.9958 20.9463 23.8375 20.8487 23.7398ZM24.6719 23.1666C24.948 23.1666 25.1719 23.3905 25.1719 23.6666V28.6666C25.1719 28.9428 24.948 29.1666 24.6719 29.1666C24.3957 29.1666 24.1719 28.9428 24.1719 28.6666V23.6666C24.1719 23.3905 24.3957 23.1666 24.6719 23.1666ZM28.6719 24.6666C28.948 24.6666 29.1719 24.8905 29.1719 25.1666V28.6666C29.1719 28.9428 28.948 29.1666 28.6719 29.1666C28.3957 29.1666 28.1719 28.9428 28.1719 28.6666V25.1666C28.1719 24.8905 28.3957 24.6666 28.6719 24.6666ZM20.6719 26.1666C20.948 26.1666 21.1719 26.3905 21.1719 26.6666L21.1719 28.6666C21.1719 28.9428 20.948 29.1666 20.6719 29.1666C20.3957 29.1666 20.1719 28.9428 20.1719 28.6666L20.1719 26.6666C20.1719 26.3905 20.3957 26.1666 20.6719 26.1666Z" fill="white" stroke="white" stroke-width="0.1" stroke-linecap="round" stroke-linejoin="round"/>
</svg>
