<svg width="322" height="322" viewBox="0 0 322 322" fill="none" xmlns="http://www.w3.org/2000/svg">
<path d="M247.456 7C260.865 7 271.771 17.9066 271.771 31.3154V174.994C271.771 179.468 268.141 183.099 263.667 183.1C259.193 183.1 255.562 179.468 255.562 174.994V31.3154C255.561 26.8452 251.926 23.21 247.456 23.21H31.3154C26.8453 23.21 23.21 26.8453 23.21 31.3154V279.877C23.21 284.347 26.8452 287.982 31.3154 287.982H161C165.474 287.982 169.105 291.613 169.105 296.087C169.105 300.561 165.474 304.192 161 304.192H31.3154C17.9066 304.192 7 293.286 7 279.877V31.3154C7.00004 17.9066 17.9066 7.00004 31.3154 7H247.456ZM101.562 239.352C106.035 239.352 109.667 242.983 109.667 247.457C109.667 251.931 106.035 255.562 101.562 255.562H52.9307C48.4569 255.562 44.8254 251.931 44.8252 247.457C44.8252 242.983 48.4568 239.352 52.9307 239.352H101.562ZM139.387 206.931C143.861 206.931 147.492 210.562 147.492 215.036C147.492 219.51 143.861 223.141 139.387 223.141H52.9307C48.4569 223.141 44.8254 219.51 44.8252 215.036C44.8252 210.562 48.4568 206.931 52.9307 206.931H139.387ZM52.9307 44.8252C57.4045 44.8253 61.0361 48.4568 61.0361 52.9307V117.816L84.6553 90.8242C86.1331 89.1353 88.2448 88.133 90.4863 88.0596C92.6763 87.922 94.903 88.84 96.4854 90.4297L127.978 121.921L170.936 69.4111C172.386 67.6377 174.519 66.5677 176.803 66.4502C179.151 66.3657 181.318 67.1935 182.939 68.8145L203.557 89.4248L219.514 69.4785C222.306 65.9853 227.396 65.4109 230.906 68.2178C234.4 71.0136 234.964 76.1113 232.168 79.6104L210.555 106.629C209.114 108.428 206.976 109.525 204.676 109.657C202.407 109.753 200.127 108.923 198.497 107.293L177.811 86.6074L134.853 139.117C133.402 140.891 131.269 141.961 128.985 142.078C126.615 142.141 124.469 141.329 122.848 139.714L91.1504 108.017L61.0361 142.43V169.106H150.194C154.668 169.106 158.3 172.738 158.3 177.212C158.3 181.686 154.668 185.317 150.194 185.317L150.192 185.315H52.9307C48.4568 185.315 44.8252 181.684 44.8252 177.21V52.9307C44.8252 48.4568 48.4568 44.8252 52.9307 44.8252Z" fill="url(#paint0_linear_929_11868)"/>
<path d="M238.544 162.082C280.705 162.082 315.001 196.382 315.001 238.544C315.001 280.705 280.7 315.001 238.544 315.001C196.382 315.001 162.082 280.7 162.082 238.544C162.082 196.388 196.383 162.082 238.544 162.082ZM238.544 178.292C205.321 178.292 178.292 205.321 178.292 238.544C178.292 271.767 205.321 298.79 238.544 298.79C271.767 298.79 298.79 271.761 298.79 238.544C298.79 205.327 271.761 178.292 238.544 178.292ZM238.544 190.482C243.018 190.482 246.649 194.113 246.649 198.587V234.988L274.084 260.216C277.377 263.25 277.592 268.374 274.564 271.671C272.965 273.408 270.781 274.289 268.597 274.289C266.634 274.289 264.666 273.582 263.109 272.152L233.057 244.512C231.39 242.977 230.439 240.813 230.439 238.544V198.587C230.44 194.113 234.07 190.483 238.544 190.482Z" fill="url(#paint1_linear_929_11868)"/>
<defs>
<linearGradient id="paint0_linear_929_11868" x1="139.386" y1="7" x2="139.386" y2="304.192" gradientUnits="userSpaceOnUse">
<stop stop-color="#0BE6E6"/>
<stop offset="1" stop-color="#0B9292" stop-opacity="0.45"/>
</linearGradient>
<linearGradient id="paint1_linear_929_11868" x1="238.542" y1="162.082" x2="238.542" y2="315.001" gradientUnits="userSpaceOnUse">
<stop stop-color="#0BE6E6"/>
<stop offset="1" stop-color="#0B9292" stop-opacity="0.45"/>
</linearGradient>
</defs>
</svg>
