<svg width="30" height="30" viewBox="0 0 30 30" fill="none" xmlns="http://www.w3.org/2000/svg">
<path d="M11.0013 11.0001H11.0146M19.0013 19.0001H19.0146M20.3346 9.66675L9.66797 20.3334M28.3346 15.0001C28.3346 22.3639 22.3651 28.3334 15.0013 28.3334C7.6375 28.3334 1.66797 22.3639 1.66797 15.0001C1.66797 7.63628 7.6375 1.66675 15.0013 1.66675C22.3651 1.66675 28.3346 7.63628 28.3346 15.0001ZM11.668 11.0001C11.668 11.3683 11.3695 11.6667 11.0013 11.6667C10.6331 11.6667 10.3346 11.3683 10.3346 11.0001C10.3346 10.6319 10.6331 10.3334 11.0013 10.3334C11.3695 10.3334 11.668 10.6319 11.668 11.0001ZM19.668 19.0001C19.668 19.3683 19.3695 19.6667 19.0013 19.6667C18.6331 19.6667 18.3346 19.3683 18.3346 19.0001C18.3346 18.6319 18.6331 18.3334 19.0013 18.3334C19.3695 18.3334 19.668 18.6319 19.668 19.0001Z" stroke="white" stroke-width="2" stroke-linecap="round" stroke-linejoin="round"/>
</svg>
