<svg width="34" height="34" viewBox="0 0 34 34" fill="none" xmlns="http://www.w3.org/2000/svg">
<path d="M10 12.625H17M10 18.75H22.25M17 32.75C25.6985 32.75 32.75 25.6985 32.75 17C32.75 8.30152 25.6985 1.25 17 1.25C8.30152 1.25 1.25 8.30152 1.25 17C1.25 19.095 1.65904 21.0945 2.40161 22.9229C2.54373 23.2728 2.61479 23.4478 2.64649 23.5892C2.6775 23.7276 2.68884 23.83 2.68886 23.9718C2.68888 24.1167 2.66257 24.2746 2.60994 24.5904L1.57222 30.8167C1.46355 31.4687 1.40922 31.7947 1.51033 32.0304C1.59883 32.2368 1.76325 32.4012 1.96957 32.4897C2.20531 32.5908 2.53132 32.5364 3.18333 32.4278L9.40964 31.3901C9.7254 31.3374 9.88328 31.3111 10.0282 31.3111C10.17 31.3112 10.2724 31.3225 10.4108 31.3535C10.5522 31.3852 10.7272 31.4563 11.0771 31.5984C12.9055 32.341 14.905 32.75 17 32.75Z" stroke="url(#paint0_linear_759_2065)" stroke-width="2" stroke-linecap="round" stroke-linejoin="round"/>
<defs>
<linearGradient id="paint0_linear_759_2065" x1="17" y1="1.25" x2="17" y2="32.75" gradientUnits="userSpaceOnUse">
<stop stop-color="#05A6A6"/>
<stop offset="1" stop-color="#0D5B6A"/>
</linearGradient>
</defs>
</svg>
