<svg width="25" height="30" viewBox="0 0 25 30" fill="none" xmlns="http://www.w3.org/2000/svg">
<path d="M22.6654 15.666V8.06602C22.6654 5.82581 22.6654 4.7057 22.2294 3.85005C21.8459 3.09741 21.234 2.48548 20.4813 2.10199C19.6257 1.66602 18.5056 1.66602 16.2654 1.66602H7.73203C5.49182 1.66602 4.37172 1.66602 3.51607 2.10199C2.76342 2.48548 2.1515 3.09741 1.76801 3.85005C1.33203 4.7057 1.33203 5.82581 1.33203 8.06602V21.9327C1.33203 24.1729 1.33203 25.293 1.76801 26.1486C2.1515 26.9013 2.76342 27.5132 3.51607 27.8967C4.37172 28.3327 5.49182 28.3327 7.73203 28.3327H11.9987M14.6654 13.666H6.66536M9.33203 18.9993H6.66536M17.332 8.33268H6.66536M15.332 24.3327L17.9987 26.9993L23.9987 20.9993" stroke="url(#paint0_linear_749_269)" stroke-width="2" stroke-linecap="round" stroke-linejoin="round"/>
<defs>
<linearGradient id="paint0_linear_749_269" x1="12.6654" y1="1.66602" x2="12.6654" y2="28.3327" gradientUnits="userSpaceOnUse">
<stop stop-color="#05A6A6"/>
<stop offset="1" stop-color="#0D5B6A"/>
</linearGradient>
</defs>
</svg>
