<svg width="310" height="358" viewBox="0 0 310 358" fill="none" xmlns="http://www.w3.org/2000/svg">
<path d="M268.252 0.117188C318.662 5.76696 324.774 74.7392 274.612 88.2236C272.807 88.7098 270.027 88.0334 269.767 90.1562L269.804 331.06C270.249 332.438 266.51 335.638 265.762 335.639H242V353.764C242 355.124 237.983 358.472 236.166 357.789L3.37329 357.296C1.56266 356.354 0.623046 354.631 0.721923 352.563L1.03149 25.916C1.39667 24.5374 4.14006 22.2607 5.38208 22.2607H22.9641V4.75098C22.9645 3.51377 25.2508 0.782023 26.635 0.418945L268.252 0.117188ZM11.8586 346.698H230.895V335.639H27.592C26.3557 335.638 22.9644 332.26 22.9641 331.029V33.3203H11.8586V346.698ZM34.0696 324.579H259.28V89.5469C258.155 88.2114 256.152 88.6852 254.434 88.2236C218.553 78.518 207.887 36.8528 234.596 11.2012H34.0696V324.579ZM130.483 144.672C126.651 131.637 138.919 119.771 151.884 123.969C167.012 128.868 166.722 150.045 152.187 155.578L151.897 162.354L151.921 162.36H244.163C244.381 162.362 246.845 165.001 247.086 165.585C248.39 168.724 246.202 173.42 242.927 173.42H211.15L230.623 222.538C233.664 240.743 225.969 261.053 205.316 262.542C181.591 264.253 171.66 243.242 174.892 222.415L194.489 173.42H151.915V279.719H183.693C189.187 279.719 195.774 287.357 196.683 292.588C197.221 295.677 197.467 306.534 196.824 309.39C196.318 311.661 194.019 313.076 191.739 312.929L99.4348 312.627C97.7787 311.956 96.6974 310.639 96.4192 308.873C95.9248 305.716 96.017 294.459 96.6536 291.363C97.6362 286.6 104.768 279.726 109.644 279.726H140.803V173.426H98.8479L118.321 222.544C126.738 276.346 53.2393 275.645 62.7131 221.929L82.1868 173.426H50.4094C49.0993 173.426 46.0889 170.921 45.7922 169.413C45.3658 167.204 46.5899 162.36 49.1731 162.36H140.797L140.698 156.002C136.113 153.122 132.096 150.155 130.483 144.672ZM111.535 290.815C106.567 291.597 105.621 298.945 107.796 302.453H185.855C185.54 299.05 187.202 292.933 183.229 291.24L111.535 290.815ZM185.855 238.244C185.855 241.857 191.133 247.734 194.303 249.494C208.708 257.476 222.366 244.356 219.789 229.339V229.333H185.855V238.244ZM73.5588 238.244C73.5588 243.143 80.4992 249.414 84.9426 250.873C99.0699 255.507 109.502 242.848 107.493 229.333H73.5588V238.244ZM76.0247 218.273H104.409L90.8264 183.248L76.0247 218.273ZM188.939 218.273H216.705L203.122 183.248L188.939 218.273ZM146.581 134.043C143.405 134.043 140.828 136.61 140.828 139.773C140.829 142.937 143.405 145.503 146.581 145.503C149.758 145.503 152.335 142.937 152.335 139.773C152.335 136.61 149.758 134.043 146.581 134.043ZM199.167 84.2793C204.154 86.2305 203.733 94.3728 197.9 94.7852H55.9583C49.2967 94.0155 49.9643 84.87 56.1194 83.8545L199.167 84.2793ZM264.538 10.998C245.863 10.998 230.722 26.0763 230.722 44.6748C230.722 63.2735 245.863 78.3525 264.538 78.3525C283.214 78.3525 298.355 63.2735 298.355 44.6748C298.355 26.0763 283.214 10.9981 264.538 10.998ZM199.396 56.3994C205.328 59.4767 202.51 67.3732 196.058 67.1455H57.8C51.0703 67.4407 48.4937 58.7445 54.8713 56.1904L199.396 56.3994ZM280.711 30.3779C285.025 29.9533 287.929 34.8828 285.958 38.6924L264.446 60.2764C262.536 61.3533 260.355 61.2672 258.433 60.2764C257.58 59.8395 249.313 51.6006 248.872 50.7559C246.295 45.7892 250.182 41.0747 255.615 42.8164C257.864 43.5365 259.941 47.9118 261.937 47.3887C263.828 46.8955 274.692 33.9536 277.77 31.7627C278.653 31.1288 279.6 30.4887 280.718 30.3779H280.711ZM199.167 28.3604C204.154 30.3116 203.733 38.4529 197.9 38.8652H55.9583C49.2968 38.0955 49.9644 28.9511 56.1194 27.9355L199.167 28.3604Z" fill="#05A6A6"/>
</svg>
