<svg width="354" height="354" viewBox="0 0 354 354" fill="none" xmlns="http://www.w3.org/2000/svg">
<mask id="path-1-inside-1_1373_177" fill="white">
<path d="M330.444 271.745C331.299 265.729 336.871 261.547 342.888 262.401C348.904 263.256 353.087 268.828 352.232 274.845C348.916 297.938 336.388 317.475 318.82 330.385C301.322 343.244 278.814 349.522 255.451 346.167C244.282 344.564 233.536 340.983 223.095 334.67C220.613 333.169 218.151 331.512 215.71 329.695L216.787 341.723C217.309 347.761 212.836 353.083 206.798 353.605C200.759 354.127 195.437 349.655 194.915 343.616L191.239 302.59C190.642 298.803 192.043 294.811 195.259 292.255C197.487 290.483 200.191 289.715 202.825 289.89L252.535 290.061V290.062C258.599 290.062 263.516 294.98 263.516 301.043C263.515 307.106 258.598 312.022 252.535 312.022L228.727 311.939C230.631 313.361 232.542 314.65 234.462 315.811C242.248 320.52 250.25 323.188 258.551 324.38C276.005 326.886 292.793 322.218 305.815 312.647C318.768 303.128 328.005 288.74 330.444 271.745ZM172.139 331.016C178.225 331.016 183.161 335.952 183.161 342.039C183.161 348.126 178.225 353.062 172.139 353.062H11.4971C5.41133 353.062 0.473658 348.126 0.473633 342.039C0.473633 335.952 5.41019 331.016 11.4971 331.016H172.139ZM75.375 141.652C81.4618 141.652 86.3984 146.589 86.3984 152.676C86.3984 158.763 81.4619 163.699 75.375 163.699H68.5137V293.901H125.75V163.699H119.729C113.642 163.699 108.705 158.763 108.705 152.676C108.705 146.589 113.642 141.653 119.729 141.652H154.658C160.745 141.652 165.682 146.589 165.682 152.676C165.682 158.763 160.745 163.699 154.658 163.699H147.798V293.901H171.507C177.593 293.902 182.53 298.838 182.53 304.925C182.53 311.012 177.594 315.948 171.507 315.948H34.3789C28.2922 315.948 23.3555 311.012 23.3555 304.925C23.3557 298.838 28.2923 293.902 34.3789 293.901H46.4668V163.699H40.4463C34.3594 163.699 29.4229 158.763 29.4229 152.676C29.4229 146.589 34.3595 141.652 40.4463 141.652H75.375ZM329.657 166.352C335.721 166.399 340.598 171.355 340.551 177.418L340.162 222.726C340.404 227.1 338.004 231.382 333.783 233.326C332.236 234.039 330.612 234.362 329.015 234.339L288.027 235.938C281.964 236.151 276.873 231.41 276.66 225.347C276.447 219.283 281.189 214.192 287.252 213.979L308.318 213.157C306.344 211.431 304.244 209.938 302.04 208.647C294.711 204.356 285.937 202.108 276.599 201.023C258.796 198.955 241.771 203.723 228.658 213.359C215.892 222.743 206.82 236.784 204.402 253.617L204.405 253.614C203.551 259.631 197.977 263.814 191.961 262.959C185.945 262.104 181.763 256.531 182.617 250.515C185.917 227.541 198.273 208.395 215.656 195.62C233.118 182.788 255.652 176.426 279.097 179.15C291.149 180.551 302.793 183.638 313.148 189.702C314.966 190.766 316.738 191.918 318.454 193.161L318.592 177.245C318.639 171.182 323.594 166.305 329.657 166.352ZM233.942 141.652C240.029 141.652 244.966 146.589 244.966 152.676C244.966 158.763 240.029 163.699 233.942 163.699H199.013C192.926 163.699 187.989 158.763 187.989 152.676C187.989 146.589 192.926 141.652 199.013 141.652H233.942ZM313.229 141.652C319.315 141.652 324.252 146.589 324.252 152.676C324.252 158.763 319.315 163.699 313.229 163.699H278.299C272.212 163.699 267.275 158.763 267.275 152.676C267.275 146.589 272.212 141.652 278.299 141.652H313.229ZM171.023 2.01758C174.757 -0.305593 179.344 -0.119565 182.81 2.11621L347.991 104.711C353.152 107.921 354.732 114.709 351.521 119.868C349.439 123.216 345.851 125.056 342.178 125.06V125.079H11.4961C5.40928 125.079 0.472757 120.142 0.472656 114.056C0.472656 109.865 2.81155 106.222 6.25488 104.355L171.023 2.01758ZM50.1006 103.031H303.572L176.836 24.3145L50.1006 103.031Z"/>
</mask>
<path d="M330.444 271.745C331.299 265.729 336.871 261.547 342.888 262.401C348.904 263.256 353.087 268.828 352.232 274.845C348.916 297.938 336.388 317.475 318.82 330.385C301.322 343.244 278.814 349.522 255.451 346.167C244.282 344.564 233.536 340.983 223.095 334.67C220.613 333.169 218.151 331.512 215.71 329.695L216.787 341.723C217.309 347.761 212.836 353.083 206.798 353.605C200.759 354.127 195.437 349.655 194.915 343.616L191.239 302.59C190.642 298.803 192.043 294.811 195.259 292.255C197.487 290.483 200.191 289.715 202.825 289.89L252.535 290.061V290.062C258.599 290.062 263.516 294.98 263.516 301.043C263.515 307.106 258.598 312.022 252.535 312.022L228.727 311.939C230.631 313.361 232.542 314.65 234.462 315.811C242.248 320.52 250.25 323.188 258.551 324.38C276.005 326.886 292.793 322.218 305.815 312.647C318.768 303.128 328.005 288.74 330.444 271.745ZM172.139 331.016C178.225 331.016 183.161 335.952 183.161 342.039C183.161 348.126 178.225 353.062 172.139 353.062H11.4971C5.41133 353.062 0.473658 348.126 0.473633 342.039C0.473633 335.952 5.41019 331.016 11.4971 331.016H172.139ZM75.375 141.652C81.4618 141.652 86.3984 146.589 86.3984 152.676C86.3984 158.763 81.4619 163.699 75.375 163.699H68.5137V293.901H125.75V163.699H119.729C113.642 163.699 108.705 158.763 108.705 152.676C108.705 146.589 113.642 141.653 119.729 141.652H154.658C160.745 141.652 165.682 146.589 165.682 152.676C165.682 158.763 160.745 163.699 154.658 163.699H147.798V293.901H171.507C177.593 293.902 182.53 298.838 182.53 304.925C182.53 311.012 177.594 315.948 171.507 315.948H34.3789C28.2922 315.948 23.3555 311.012 23.3555 304.925C23.3557 298.838 28.2923 293.902 34.3789 293.901H46.4668V163.699H40.4463C34.3594 163.699 29.4229 158.763 29.4229 152.676C29.4229 146.589 34.3595 141.652 40.4463 141.652H75.375ZM329.657 166.352C335.721 166.399 340.598 171.355 340.551 177.418L340.162 222.726C340.404 227.1 338.004 231.382 333.783 233.326C332.236 234.039 330.612 234.362 329.015 234.339L288.027 235.938C281.964 236.151 276.873 231.41 276.66 225.347C276.447 219.283 281.189 214.192 287.252 213.979L308.318 213.157C306.344 211.431 304.244 209.938 302.04 208.647C294.711 204.356 285.937 202.108 276.599 201.023C258.796 198.955 241.771 203.723 228.658 213.359C215.892 222.743 206.82 236.784 204.402 253.617L204.405 253.614C203.551 259.631 197.977 263.814 191.961 262.959C185.945 262.104 181.763 256.531 182.617 250.515C185.917 227.541 198.273 208.395 215.656 195.62C233.118 182.788 255.652 176.426 279.097 179.15C291.149 180.551 302.793 183.638 313.148 189.702C314.966 190.766 316.738 191.918 318.454 193.161L318.592 177.245C318.639 171.182 323.594 166.305 329.657 166.352ZM233.942 141.652C240.029 141.652 244.966 146.589 244.966 152.676C244.966 158.763 240.029 163.699 233.942 163.699H199.013C192.926 163.699 187.989 158.763 187.989 152.676C187.989 146.589 192.926 141.652 199.013 141.652H233.942ZM313.229 141.652C319.315 141.652 324.252 146.589 324.252 152.676C324.252 158.763 319.315 163.699 313.229 163.699H278.299C272.212 163.699 267.275 158.763 267.275 152.676C267.275 146.589 272.212 141.652 278.299 141.652H313.229ZM171.023 2.01758C174.757 -0.305593 179.344 -0.119565 182.81 2.11621L347.991 104.711C353.152 107.921 354.732 114.709 351.521 119.868C349.439 123.216 345.851 125.056 342.178 125.06V125.079H11.4961C5.40928 125.079 0.472757 120.142 0.472656 114.056C0.472656 109.865 2.81155 106.222 6.25488 104.355L171.023 2.01758ZM50.1006 103.031H303.572L176.836 24.3145L50.1006 103.031Z" fill="#05A6A6"/>
<path d="M330.444 271.745L334.404 272.314L334.405 272.308L330.444 271.745ZM342.888 262.401L343.45 258.441H343.45L342.888 262.401ZM352.232 274.845L356.192 275.413L356.193 275.407L352.232 274.845ZM318.82 330.385L316.452 327.162L316.452 327.162L318.82 330.385ZM255.451 346.167L256.02 342.208L256.019 342.208L255.451 346.167ZM223.095 334.67L221.025 338.093L221.025 338.093L223.095 334.67ZM215.71 329.695L218.098 326.487L210.929 321.15L211.726 330.052L215.71 329.695ZM216.787 341.723L220.772 341.378L220.771 341.366L216.787 341.723ZM206.798 353.605L207.142 357.591H207.142L206.798 353.605ZM194.915 343.616L198.9 343.272L198.899 343.259L194.915 343.616ZM191.239 302.59L195.223 302.233L195.211 302.099L195.19 301.967L191.239 302.59ZM195.259 292.255L197.748 295.386L197.749 295.385L195.259 292.255ZM202.825 289.89L202.561 293.881L202.686 293.889L202.811 293.89L202.825 289.89ZM252.535 290.061H256.535V286.074L252.549 286.061L252.535 290.061ZM252.535 290.062H248.535V294.062H252.535V290.062ZM263.516 301.043L267.516 301.043V301.043H263.516ZM252.535 312.022L252.521 316.022H252.535V312.022ZM228.727 311.939L228.741 307.939L216.625 307.897L226.334 315.145L228.727 311.939ZM234.462 315.811L236.532 312.388L236.531 312.387L234.462 315.811ZM258.551 324.38L257.982 328.339L257.982 328.339L258.551 324.38ZM305.815 312.647L308.184 315.871L308.184 315.871L305.815 312.647ZM172.139 331.016L172.139 327.016H172.139V331.016ZM183.161 342.039L187.161 342.039V342.039H183.161ZM172.139 353.062V357.062H172.139L172.139 353.062ZM0.473633 342.039H-3.52637V342.039L0.473633 342.039ZM86.3984 152.676H90.3984V152.676L86.3984 152.676ZM68.5137 163.699V159.699H64.5137V163.699H68.5137ZM68.5137 293.901H64.5137V297.901H68.5137V293.901ZM125.75 293.901V297.901H129.75V293.901H125.75ZM125.75 163.699H129.75V159.699H125.75V163.699ZM119.729 163.699L119.728 167.699H119.729V163.699ZM108.705 152.676L104.705 152.676V152.676H108.705ZM119.729 141.652V137.652H119.728L119.729 141.652ZM165.682 152.676H169.682V152.676L165.682 152.676ZM147.798 163.699V159.699H143.798V163.699H147.798ZM147.798 293.901H143.798V297.901H147.798V293.901ZM171.507 293.901L171.507 289.901H171.507V293.901ZM182.53 304.925H186.53V304.925L182.53 304.925ZM171.507 315.948V319.948H171.507L171.507 315.948ZM34.3789 315.948L34.3788 319.948H34.3789V315.948ZM23.3555 304.925L19.3555 304.925V304.925H23.3555ZM34.3789 293.901V289.901H34.3788L34.3789 293.901ZM46.4668 293.901V297.901H50.4668V293.901H46.4668ZM46.4668 163.699H50.4668V159.699H46.4668V163.699ZM29.4229 152.676L25.4229 152.676V152.676H29.4229ZM329.657 166.352L329.688 162.352H329.688L329.657 166.352ZM340.551 177.418L344.551 177.452L344.551 177.449L340.551 177.418ZM340.162 222.726L336.162 222.691L336.161 222.819L336.168 222.946L340.162 222.726ZM333.783 233.326L335.456 236.959L335.457 236.959L333.783 233.326ZM329.015 234.339L329.074 230.339L328.966 230.338L328.859 230.342L329.015 234.339ZM288.027 235.938L288.168 239.936L288.176 239.936L288.183 239.935L288.027 235.938ZM276.66 225.347L272.663 225.487V225.487L276.66 225.347ZM287.252 213.979L287.392 217.977L287.4 217.977L287.408 217.976L287.252 213.979ZM308.318 213.157L308.474 217.154L318.521 216.762L310.951 210.146L308.318 213.157ZM302.04 208.647L300.019 212.099L300.019 212.1L302.04 208.647ZM276.599 201.023L276.137 204.997L276.137 204.997L276.599 201.023ZM228.658 213.359L226.289 210.136L226.289 210.136L228.658 213.359ZM204.402 253.617L200.443 253.049L198.735 264.941L207.231 256.446L204.402 253.617ZM204.405 253.614L208.366 254.177L210.051 242.312L201.577 250.786L204.405 253.614ZM191.961 262.959L191.398 266.919H191.398L191.961 262.959ZM182.617 250.515L178.658 249.946L178.657 249.952L182.617 250.515ZM215.656 195.62L213.288 192.397L213.288 192.397L215.656 195.62ZM279.097 179.15L278.635 183.124L278.635 183.124L279.097 179.15ZM313.148 189.702L311.127 193.154L311.128 193.154L313.148 189.702ZM318.454 193.161L316.107 196.4L322.387 200.95L322.454 193.196L318.454 193.161ZM318.592 177.245L322.592 177.28L322.592 177.276L318.592 177.245ZM233.942 141.652V137.652V141.652ZM244.966 152.676H248.966V152.676L244.966 152.676ZM233.942 163.699V167.699V163.699ZM199.013 163.699L199.013 167.699H199.013V163.699ZM187.989 152.676L183.989 152.676V152.676H187.989ZM199.013 141.652V137.652H199.013L199.013 141.652ZM324.252 152.676H328.252V152.676L324.252 152.676ZM278.299 163.699L278.299 167.699H278.299V163.699ZM267.275 152.676L263.275 152.676V152.676H267.275ZM278.299 141.652V137.652H278.299L278.299 141.652ZM171.023 2.01758L173.134 5.41551L173.137 5.41374L171.023 2.01758ZM182.81 2.11621L180.641 5.47748L180.67 5.49606L180.699 5.51414L182.81 2.11621ZM347.991 104.711L350.104 101.315L350.102 101.313L347.991 104.711ZM351.521 119.868L348.125 117.755L348.125 117.755L351.521 119.868ZM342.178 125.06L342.174 121.06L338.178 121.063V125.06H342.178ZM342.178 125.079V129.079H346.178V125.079H342.178ZM0.472656 114.056H-3.52734V114.056L0.472656 114.056ZM6.25488 104.355L8.16083 107.872L8.26484 107.816L8.36534 107.753L6.25488 104.355ZM50.1006 103.031L47.9901 99.6333L36.0793 107.031H50.1006V103.031ZM303.572 103.031V107.031H317.594L305.683 99.6333L303.572 103.031ZM176.836 24.3145L178.946 20.9165L176.836 19.6057L174.725 20.9165L176.836 24.3145ZM330.444 271.745L334.405 272.308C334.948 268.481 338.494 265.817 342.325 266.362L342.888 262.401L343.45 258.441C335.249 257.276 327.65 262.977 326.484 271.182L330.444 271.745ZM342.888 262.401L342.325 266.362C346.153 266.905 348.816 270.451 348.272 274.282L352.232 274.845L356.193 275.407C357.358 267.205 351.655 259.607 343.45 258.441L342.888 262.401ZM352.232 274.845L348.273 274.276C345.116 296.254 333.198 314.855 316.452 327.162L318.82 330.385L321.189 333.608C339.577 320.095 352.715 299.621 356.192 275.413L352.232 274.845ZM318.82 330.385L316.452 327.162C299.771 339.42 278.312 345.409 256.02 342.208L255.451 346.167L254.883 350.126C279.316 353.635 302.874 347.068 321.189 333.608L318.82 330.385ZM255.451 346.167L256.019 342.208C245.345 340.676 235.115 337.264 225.164 331.247L223.095 334.67L221.025 338.093C231.956 344.702 243.219 348.452 254.883 350.126L255.451 346.167ZM223.095 334.67L225.165 331.247C222.796 329.815 220.44 328.23 218.098 326.487L215.71 329.695L213.322 332.904C215.861 334.794 218.43 336.523 221.025 338.093L223.095 334.67ZM215.71 329.695L211.726 330.052L212.803 342.079L216.787 341.723L220.771 341.366L219.694 329.339L215.71 329.695ZM216.787 341.723L212.802 342.067C213.134 345.906 210.29 349.289 206.453 349.62L206.798 353.605L207.142 357.591C215.383 356.878 221.484 349.616 220.772 341.378L216.787 341.723ZM206.798 353.605L206.453 349.62C202.614 349.952 199.232 347.108 198.9 343.272L194.915 343.616L190.93 343.961C191.642 352.202 198.904 358.303 207.142 357.591L206.798 353.605ZM194.915 343.616L198.899 343.259L195.223 302.233L191.239 302.59L187.255 302.947L190.931 343.973L194.915 343.616ZM191.239 302.59L195.19 301.967C194.808 299.543 195.707 297.009 197.748 295.386L195.259 292.255L192.77 289.124C188.379 292.613 186.476 298.062 187.288 303.213L191.239 302.59ZM195.259 292.255L197.749 295.385C199.167 294.257 200.88 293.77 202.561 293.881L202.825 289.89L203.09 285.898C199.501 285.66 195.806 286.709 192.769 289.124L195.259 292.255ZM202.825 289.89L202.811 293.89L252.521 294.061L252.535 290.061L252.549 286.061L202.839 285.89L202.825 289.89ZM252.535 290.061H248.535V290.062H252.535H256.535V290.061H252.535ZM252.535 290.062V294.062C256.389 294.062 259.516 297.189 259.516 301.043H263.516H267.516C267.516 292.77 260.808 286.062 252.535 286.062V290.062ZM263.516 301.043L259.516 301.043C259.516 304.897 256.39 308.022 252.535 308.022V312.022V316.022C260.807 316.022 267.515 309.316 267.516 301.043L263.516 301.043ZM252.535 312.022L252.549 308.022L228.741 307.939L228.727 311.939L228.713 315.939L252.521 316.022L252.535 312.022ZM228.727 311.939L226.334 315.145C228.337 316.64 230.356 318.003 232.393 319.234L234.462 315.811L236.531 312.387C234.728 311.297 232.924 310.082 231.119 308.734L228.727 311.939ZM234.462 315.811L232.392 319.233C240.667 324.238 249.186 327.076 257.982 328.339L258.551 324.38L259.119 320.421C251.315 319.3 243.829 316.801 236.532 312.388L234.462 315.811ZM258.551 324.38L257.982 328.339C276.503 330.998 294.34 326.045 308.184 315.871L305.815 312.647L303.447 309.424C291.245 318.391 275.507 322.773 259.119 320.42L258.551 324.38ZM305.815 312.647L308.184 315.871C321.955 305.75 331.804 290.426 334.404 272.314L330.444 271.745L326.485 271.177C324.206 287.054 315.58 300.507 303.447 309.424L305.815 312.647ZM172.139 331.016L172.139 335.016C176.016 335.016 179.161 338.161 179.161 342.039H183.161H187.161C187.161 333.743 180.435 327.016 172.139 327.016L172.139 331.016ZM183.161 342.039L179.161 342.039C179.161 345.917 176.016 349.062 172.139 349.062L172.139 353.062L172.139 357.062C180.435 357.062 187.161 350.335 187.161 342.039L183.161 342.039ZM172.139 353.062V349.062H11.4971V353.062V357.062H172.139V353.062ZM11.4971 353.062V349.062C7.62022 349.062 4.47365 345.917 4.47363 342.039L0.473633 342.039L-3.52637 342.039C-3.52633 350.335 3.20244 357.062 11.4971 357.062V353.062ZM0.473633 342.039H4.47363C4.47363 338.161 7.61933 335.016 11.4971 335.016V331.016V327.016C3.20105 327.016 -3.52637 333.743 -3.52637 342.039H0.473633ZM11.4971 331.016V335.016H172.139V331.016V327.016H11.4971V331.016ZM75.375 141.652V145.652C79.2527 145.652 82.3984 148.798 82.3984 152.676L86.3984 152.676L90.3984 152.676C90.3983 144.38 83.671 137.652 75.375 137.652V141.652ZM86.3984 152.676H82.3984C82.3984 156.554 79.2527 159.699 75.375 159.699V163.699V167.699C83.671 167.699 90.3984 160.972 90.3984 152.676H86.3984ZM75.375 163.699V159.699H68.5137V163.699V167.699H75.375V163.699ZM68.5137 163.699H64.5137V293.901H68.5137H72.5137V163.699H68.5137ZM68.5137 293.901V297.901H125.75V293.901V289.901H68.5137V293.901ZM125.75 293.901H129.75V163.699H125.75H121.75V293.901H125.75ZM125.75 163.699V159.699H119.729V163.699V167.699H125.75V163.699ZM119.729 163.699L119.729 159.699C115.851 159.699 112.705 156.553 112.705 152.676H108.705H104.705C104.705 160.972 111.433 167.699 119.728 167.699L119.729 163.699ZM108.705 152.676L112.705 152.676C112.705 148.798 115.851 145.652 119.729 145.652L119.729 141.652L119.728 137.652C111.433 137.653 104.705 144.38 104.705 152.676L108.705 152.676ZM119.729 141.652V145.652H154.658V141.652V137.652H119.729V141.652ZM154.658 141.652V145.652C158.536 145.652 161.682 148.798 161.682 152.676L165.682 152.676L169.682 152.676C169.682 144.38 162.954 137.652 154.658 137.652V141.652ZM165.682 152.676H161.682C161.682 156.554 158.536 159.699 154.658 159.699V163.699V167.699C162.954 167.699 169.682 160.972 169.682 152.676H165.682ZM154.658 163.699V159.699H147.798V163.699V167.699H154.658V163.699ZM147.798 163.699H143.798V293.901H147.798H151.798V163.699H147.798ZM147.798 293.901V297.901H171.507V293.901V289.901H147.798V293.901ZM171.507 293.901L171.507 297.901C175.384 297.901 178.53 301.047 178.53 304.925L182.53 304.925L186.53 304.925C186.53 296.629 179.803 289.902 171.507 289.901L171.507 293.901ZM182.53 304.925H178.53C178.53 308.802 175.385 311.948 171.507 311.948L171.507 315.948L171.507 319.948C179.803 319.948 186.53 313.221 186.53 304.925H182.53ZM171.507 315.948V311.948H34.3789V315.948V319.948H171.507V315.948ZM34.3789 315.948L34.379 311.948C30.5012 311.948 27.3555 308.802 27.3555 304.925H23.3555H19.3555C19.3555 313.221 26.0831 319.948 34.3788 319.948L34.3789 315.948ZM23.3555 304.925L27.3555 304.925C27.3556 301.047 30.5015 297.901 34.379 297.901L34.3789 293.901L34.3788 289.901C26.0831 289.902 19.3557 296.629 19.3555 304.925L23.3555 304.925ZM34.3789 293.901V297.901H46.4668V293.901V289.901H34.3789V293.901ZM46.4668 293.901H50.4668V163.699H46.4668H42.4668V293.901H46.4668ZM46.4668 163.699V159.699H40.4463V163.699V167.699H46.4668V163.699ZM40.4463 163.699V159.699C36.5686 159.699 33.4229 156.554 33.4229 152.676H29.4229H25.4229C25.4229 160.972 32.1503 167.699 40.4463 167.699V163.699ZM29.4229 152.676L33.4229 152.676C33.4229 148.798 36.5686 145.652 40.4463 145.652V141.652V137.652C32.1503 137.652 25.4229 144.38 25.4229 152.676L29.4229 152.676ZM40.4463 141.652V145.652H75.375V141.652V137.652H40.4463V141.652ZM329.657 166.352L329.626 170.351C333.479 170.381 336.581 173.531 336.551 177.387L340.551 177.418L344.551 177.449C344.615 169.178 337.962 162.416 329.688 162.352L329.657 166.352ZM340.551 177.418L336.551 177.384L336.162 222.691L340.162 222.726L344.162 222.76L344.551 177.452L340.551 177.418ZM340.162 222.726L336.168 222.946C336.323 225.74 334.787 228.46 332.109 229.693L333.783 233.326L335.457 236.959C341.22 234.304 344.485 228.46 344.156 222.505L340.162 222.726ZM333.783 233.326L332.11 229.693C331.117 230.15 330.086 230.354 329.074 230.339L329.015 234.339L328.956 238.338C331.138 238.371 333.355 237.927 335.456 236.959L333.783 233.326ZM329.015 234.339L328.859 230.342L287.871 231.942L288.027 235.938L288.183 239.935L329.171 238.336L329.015 234.339ZM288.027 235.938L287.887 231.941C284.029 232.076 280.793 229.06 280.658 225.206L276.66 225.347L272.663 225.487C272.953 233.76 279.899 240.226 288.168 239.936L288.027 235.938ZM276.66 225.347L280.658 225.206C280.522 221.349 283.539 218.112 287.392 217.977L287.252 213.979L287.112 209.982C278.839 210.273 272.372 217.218 272.663 225.487L276.66 225.347ZM287.252 213.979L287.408 217.976L308.474 217.154L308.318 213.157L308.162 209.16L287.096 209.983L287.252 213.979ZM308.318 213.157L310.951 210.146C308.778 208.246 306.472 206.607 304.061 205.195L302.04 208.647L300.019 212.1C302.017 213.269 303.909 214.616 305.686 216.169L308.318 213.157ZM302.04 208.647L304.061 205.196C296.077 200.521 286.701 198.17 277.06 197.05L276.599 201.023L276.137 204.997C285.174 206.046 293.345 208.192 300.019 212.099L302.04 208.647ZM276.599 201.023L277.06 197.05C258.263 194.866 240.224 199.895 226.289 210.136L228.658 213.359L231.027 216.583C243.317 207.55 259.33 203.043 276.137 204.997L276.599 201.023ZM228.658 213.359L226.289 210.136C212.709 220.118 203.021 235.092 200.443 253.049L204.402 253.617L208.362 254.186C210.618 238.475 219.075 225.367 231.027 216.582L228.658 213.359ZM204.402 253.617L207.231 256.446L207.234 256.443L204.405 253.614L201.577 250.786L201.574 250.789L204.402 253.617ZM204.405 253.614L200.445 253.052C199.901 256.879 196.355 259.543 192.524 258.999L191.961 262.959L191.398 266.919C199.6 268.084 207.2 262.382 208.366 254.177L204.405 253.614ZM191.961 262.959L192.524 258.999C188.697 258.455 186.033 254.909 186.577 251.077L182.617 250.515L178.657 249.952C177.492 258.153 183.193 265.753 191.398 266.919L191.961 262.959ZM182.617 250.515L186.577 251.083C189.716 229.229 201.458 211.018 218.025 198.843L215.656 195.62L213.288 192.397C195.087 205.773 182.119 225.852 178.658 249.946L182.617 250.515ZM215.656 195.62L218.025 198.843C234.675 186.608 256.198 180.517 278.635 183.124L279.097 179.15L279.558 175.177C255.106 172.336 231.562 178.968 213.288 192.397L215.656 195.62ZM279.097 179.15L278.635 183.124C290.328 184.482 301.391 187.452 311.127 193.154L313.148 189.702L315.17 186.25C304.194 179.823 291.971 176.619 279.558 175.177L279.097 179.15ZM313.148 189.702L311.128 193.154C312.838 194.155 314.5 195.236 316.107 196.4L318.454 193.161L320.801 189.922C318.976 188.6 317.095 187.377 315.169 186.25L313.148 189.702ZM318.454 193.161L322.454 193.196L322.592 177.28L318.592 177.245L314.592 177.211L314.454 193.127L318.454 193.161ZM318.592 177.245L322.592 177.276C322.622 173.423 325.771 170.322 329.626 170.351L329.657 166.352L329.688 162.352C321.417 162.288 314.656 168.941 314.592 177.214L318.592 177.245ZM233.942 141.652V145.652C237.82 145.652 240.966 148.798 240.966 152.676L244.966 152.676L248.966 152.676C248.966 144.38 242.238 137.652 233.942 137.652V141.652ZM244.966 152.676H240.966C240.966 156.554 237.82 159.699 233.942 159.699V163.699V167.699C242.238 167.699 248.966 160.972 248.966 152.676H244.966ZM233.942 163.699V159.699H199.013V163.699V167.699H233.942V163.699ZM199.013 163.699L199.013 159.699C195.135 159.699 191.989 156.553 191.989 152.676H187.989H183.989C183.989 160.972 190.717 167.699 199.013 167.699L199.013 163.699ZM187.989 152.676L191.989 152.676C191.989 148.798 195.135 145.652 199.013 145.652L199.013 141.652L199.013 137.652C190.717 137.652 183.989 144.38 183.989 152.676L187.989 152.676ZM199.013 141.652V145.652H233.942V141.652V137.652H199.013V141.652ZM313.229 141.652V145.652C317.106 145.652 320.252 148.798 320.252 152.676L324.252 152.676L328.252 152.676C328.252 144.38 321.525 137.652 313.229 137.652V141.652ZM324.252 152.676H320.252C320.252 156.554 317.106 159.699 313.229 159.699V163.699V167.699C321.525 167.699 328.252 160.972 328.252 152.676H324.252ZM313.229 163.699V159.699H278.299V163.699V167.699H313.229V163.699ZM278.299 163.699L278.299 159.699C274.421 159.699 271.275 156.553 271.275 152.676H267.275H263.275C263.275 160.972 270.003 167.699 278.299 167.699L278.299 163.699ZM267.275 152.676L271.275 152.676C271.275 148.798 274.421 145.652 278.299 145.652L278.299 141.652L278.299 137.652C270.003 137.653 263.275 144.38 263.275 152.676L267.275 152.676ZM278.299 141.652V145.652H313.229V141.652V137.652H278.299V141.652ZM171.023 2.01758L173.137 5.41374C175.507 3.9387 178.426 4.04872 180.641 5.47748L182.81 2.11621L184.978 -1.24505C180.261 -4.28785 174.007 -4.54988 168.91 -1.37859L171.023 2.01758ZM182.81 2.11621L180.699 5.51414L345.881 108.109L347.991 104.711L350.102 101.313L184.92 -1.28172L182.81 2.11621ZM347.991 104.711L345.878 108.107C349.163 110.151 350.169 114.471 348.125 117.755L351.521 119.868L354.918 121.981C359.295 114.946 357.141 105.692 350.104 101.315L347.991 104.711ZM351.521 119.868L348.125 117.755C346.803 119.881 344.525 121.057 342.174 121.06L342.178 125.06L342.181 129.06C347.176 129.055 352.076 126.551 354.918 121.981L351.521 119.868ZM342.178 125.06H338.178V125.079H342.178H346.178V125.06H342.178ZM342.178 125.079V121.079H11.4961V125.079V129.079H342.178V125.079ZM11.4961 125.079V121.079C7.61848 121.079 4.47272 117.933 4.47266 114.056L0.472656 114.056L-3.52734 114.056C-3.52721 122.352 3.20007 129.079 11.4961 129.079V125.079ZM0.472656 114.056H4.47266C4.47266 111.392 5.95471 109.068 8.16083 107.872L6.25488 104.355L4.34894 100.839C-0.331606 103.375 -3.52734 108.338 -3.52734 114.056H0.472656ZM6.25488 104.355L8.36534 107.753L173.134 5.41551L171.023 2.01758L168.913 -1.38036L4.14442 100.958L6.25488 104.355ZM50.1006 103.031V107.031H303.572V103.031V99.0312H50.1006V103.031ZM303.572 103.031L305.683 99.6333L178.946 20.9165L176.836 24.3145L174.725 27.7124L301.462 106.429L303.572 103.031ZM176.836 24.3145L174.725 20.9165L47.9901 99.6333L50.1006 103.031L52.2111 106.429L178.946 27.7124L176.836 24.3145Z" fill="#DDE3EA" mask="url(#path-1-inside-1_1373_177)"/>
</svg>
