<svg width="56" height="72" viewBox="0 0 56 72" fill="none" xmlns="http://www.w3.org/2000/svg">
<path fill-rule="evenodd" clip-rule="evenodd" d="M13.862 0.349718C14.082 0.126857 14.381 0 14.6973 0H50.0275C53.049 0 55.5 2.44111 55.5 5.44799V66.552C55.5 69.5589 53.049 72 50.0275 72H5.97296C2.92043 72 0.462677 69.5177 0.500429 66.4799L1.19137 13.745C1.19481 13.4467 1.31511 13.1655 1.52137 12.953L13.862 0.349718ZM13.532 4.00462L5.11354 12.6035H10.3867C12.1261 12.6035 13.532 11.2012 13.532 9.46981V4.00462ZM3.50437 14.9182H10.3862C13.4078 14.9182 15.8588 12.4805 15.8588 9.47016V2.31817H50.0274C51.7668 2.31817 53.1726 3.7205 53.1726 5.44846V66.5525C53.1726 68.2805 51.7667 69.6828 50.0274 69.6828H5.97286C4.21973 69.6828 2.80346 68.2565 2.82757 66.5113L3.50437 14.9182ZM34.6616 18.3536C34.6616 17.7159 35.1841 17.1948 35.8235 17.1948H41.2479C41.8907 17.1948 42.4097 17.7159 42.4097 18.3536V23.7296C42.4097 24.3674 41.8907 24.8885 41.2479 24.8885C40.6051 24.8885 40.086 24.3673 40.086 23.7296V21.1411L30.1174 31.0224C29.0414 32.0852 27.3261 32.1435 26.1848 31.1527C26.1573 31.1287 26.1333 31.1047 26.1092 31.0807L23.7511 28.6361C23.5311 28.4715 23.2183 28.4887 23.0189 28.6875C22.9948 28.7115 22.9673 28.7355 22.9398 28.7595L15.4358 34.9207C14.9408 35.3286 14.2052 35.2566 13.7996 34.7629C13.3905 34.2692 13.4592 33.539 13.9542 33.1343L21.4205 27.0006C22.4965 25.9788 24.1842 25.9377 25.3083 26.9149C25.3358 26.9354 25.3599 26.9594 25.384 26.9834L27.7421 29.4281C27.9621 29.5961 28.2749 29.5755 28.4743 29.3801L38.4288 19.5128H35.8232C35.1839 19.5128 34.6616 18.9948 34.6616 18.3536ZM31.4819 37.3483C31.4819 35.7574 32.7745 34.4718 34.3694 34.4718H39.5256C41.1172 34.4718 42.4096 35.7574 42.4096 37.3483V60.2304C42.4096 61.8178 41.1171 63.1035 39.5256 63.1035H16.7935C15.1985 63.1035 13.906 61.8178 13.906 60.2304V55.1389C13.906 53.5515 15.1986 52.2624 16.7935 52.2624H22.6957V46.2418C22.6957 44.6543 23.9882 43.3686 25.5797 43.3686H31.4818L31.4819 37.3483ZM31.4819 45.6832H25.5798C25.2704 45.6832 25.0194 45.9335 25.0194 46.242V60.7893H31.482L31.4819 45.6832ZM33.8091 60.7896H39.5256C39.835 60.7896 40.0859 60.5393 40.0859 60.2307V37.3486C40.0859 37.0401 39.835 36.7898 39.5256 36.7898H34.3694C34.06 36.7898 33.8091 37.0401 33.8091 37.3486L33.8091 60.7896ZM22.6956 60.7896V54.5804H16.7934C16.484 54.5804 16.2331 54.8307 16.2331 55.1393V60.2307C16.2331 60.5393 16.484 60.7896 16.7934 60.7896L22.6956 60.7896Z" fill="#F7C948"/>
</svg>
