<svg width="242" height="282" viewBox="0 0 242 282" fill="none" xmlns="http://www.w3.org/2000/svg">
<path d="M221.335 147.709V71.234C221.335 48.6919 221.335 37.4208 216.948 28.8109C213.089 21.2373 206.931 15.0799 199.358 11.221C190.748 6.83398 179.477 6.83398 156.935 6.83398H71.068C48.5259 6.83398 37.2548 6.83398 28.6449 11.221C21.0713 15.0799 14.9139 21.2373 11.055 28.8109C6.66797 37.4208 6.66797 48.6919 6.66797 71.234V210.767C6.66797 233.309 6.66797 244.58 11.055 253.19C14.9139 260.764 21.0713 266.921 28.6449 270.78C37.2548 275.167 48.5259 275.167 71.068 275.167H114.001M140.835 127.584H60.3346M87.168 181.251H60.3346M167.668 73.9173H60.3346M147.543 234.917L174.376 261.751L234.751 201.376" stroke="url(#paint0_linear_862_900)" stroke-width="13" stroke-linecap="round" stroke-linejoin="round"/>
<defs>
<linearGradient id="paint0_linear_862_900" x1="120.71" y1="6.83398" x2="120.71" y2="275.167" gradientUnits="userSpaceOnUse">
<stop stop-color="#0BE6E6"/>
<stop offset="1" stop-color="#0B9292" stop-opacity="0.45"/>
</linearGradient>
</defs>
</svg>
