<svg width="72" height="73" viewBox="0 0 72 73" fill="none" xmlns="http://www.w3.org/2000/svg">
<path d="M14.3281 38.5049C14.6694 38.5103 14.9767 38.5215 15.252 38.5439C15.814 38.5899 16.3311 38.6883 16.8164 38.9355L17.0918 39.0898C17.7183 39.4741 18.2289 40.0251 18.5645 40.6836L18.6504 40.8672C18.8356 41.2989 18.9159 41.7562 18.9561 42.248C18.9968 42.7469 18.9978 43.3505 18.998 44.0723L26.3867 40.9824C26.3895 40.9812 26.3933 40.9804 26.3975 40.9785C26.4085 40.9735 26.4247 40.9663 26.4453 40.957C26.4866 40.9385 26.5471 40.9118 26.624 40.8779C26.7778 40.8103 26.9993 40.7144 27.2734 40.5996C27.8213 40.3702 28.5832 40.0637 29.4395 39.7568C31.1068 39.1592 33.2895 38.5 34.9297 38.5C36.0484 38.5 37.162 38.6167 38.2549 38.8477L38.7217 38.9531L45.877 40.6934H45.8779C48.4144 41.3084 50.2234 43.5381 50.2236 46.127V47.0479C50.2236 48.2407 49.8434 49.3391 49.2002 50.2422C49.5884 50.0818 49.9575 49.8758 50.2979 49.627H50.2988L57.8418 44.123L58.0576 43.9727C60.3135 42.4795 63.3579 42.7432 65.3106 44.6426L65.5156 44.8516C67.5607 47.0539 67.4933 50.4633 65.3106 52.583L65.3096 52.582L58.8379 58.8779C57.0721 60.5956 54.8532 61.8004 52.4365 62.3623L51.9502 62.4658L42.8018 64.2461H42.8008C40.8459 64.6257 38.8294 64.58 36.8936 64.1084V64.1074L28.6201 62.0977L28.6182 62.0967C27.7073 61.8731 26.7726 61.7617 25.8311 61.7617H19C19 62.5575 18.9999 63.2153 18.9561 63.752C18.9159 64.2438 18.8356 64.7011 18.6504 65.1328L18.5645 65.3164C18.2289 65.9749 17.7183 66.5259 17.0918 66.9102L16.8164 67.0645C16.3311 67.3117 15.814 67.4101 15.252 67.4561C14.9767 67.4785 14.6694 67.4897 14.3281 67.4951L13.2002 67.5H10.7998C9.97632 67.5 9.29843 67.501 8.74805 67.4561C8.2562 67.4159 7.79892 67.3356 7.36719 67.1504L7.1836 67.0645C6.52513 66.7289 5.97414 66.2183 5.58985 65.5918L5.43555 65.3164C5.18827 64.8311 5.08988 64.314 5.04395 63.752C4.99898 63.2016 5 62.5237 5 61.7002V44.2998C5 43.4763 4.99898 42.7984 5.04395 42.248C5.08988 41.686 5.18827 41.1689 5.43555 40.6836L5.58985 40.4082C5.97414 39.7817 6.52513 39.2711 7.1836 38.9355L7.36719 38.8496C7.79892 38.6644 8.2562 38.5841 8.74805 38.5439C9.29843 38.499 9.97632 38.5 10.7998 38.5H13.2002L14.3281 38.5049ZM10.7998 40.5C9.94342 40.5 9.36117 40.5004 8.91113 40.5371C8.58253 40.564 8.37418 40.6076 8.22461 40.6611L8.0918 40.7178C7.76257 40.8855 7.48707 41.1409 7.29492 41.4541L7.21778 41.5918C7.13809 41.7482 7.07293 41.9727 7.03711 42.4111C7.00035 42.8612 7 43.4434 7 44.2998V61.7002C7 62.5566 7.00035 63.1388 7.03711 63.5889C7.07293 64.0273 7.13809 64.2518 7.21778 64.4082L7.29492 64.5459C7.48707 64.8592 7.76256 65.1145 8.0918 65.2822L8.22461 65.3389C8.37418 65.3924 8.58253 65.436 8.91113 65.4629C9.36117 65.4997 9.94342 65.5 10.7998 65.5H13.2002L14.2969 65.4951C14.6057 65.4903 14.8638 65.4813 15.0889 65.4629C15.5273 65.4271 15.7518 65.3619 15.9082 65.2822L16.0459 65.2051C16.3592 65.0129 16.6145 64.7374 16.7822 64.4082L16.8389 64.2754C16.8924 64.1258 16.936 63.9175 16.9629 63.5889C16.9997 63.1388 17 62.5566 17 61.7002V44.2998C17 43.4434 16.9997 42.8612 16.9629 42.4111C16.936 42.0825 16.8924 41.8742 16.8389 41.7246L16.7822 41.5918C16.6145 41.2626 16.3592 40.9871 16.0459 40.7949L15.9082 40.7178C15.7518 40.6381 15.5273 40.5729 15.0889 40.5371C14.8638 40.5187 14.6057 40.5097 14.2969 40.5049L13.2002 40.5H10.7998ZM34.9297 40.5C33.6755 40.5 31.7901 41.039 30.1143 41.6397C29.2992 41.9318 28.5707 42.2245 28.0459 42.4443C27.784 42.554 27.5738 42.6456 27.4297 42.709C27.3577 42.7407 27.3015 42.7657 27.2647 42.7822C27.2464 42.7904 27.2325 42.7968 27.2236 42.8008C27.2193 42.8028 27.2159 42.8038 27.2139 42.8047L27.2119 42.8057C27.2019 42.8102 27.1918 42.8151 27.1816 42.8193L19 46.2402V59.7617H25.8311C26.9314 59.7617 28.0262 59.892 29.0947 60.1543H29.0938L37.3672 62.165L37.6787 62.2363C39.2377 62.5716 40.8514 62.5869 42.4199 62.2822L51.5674 60.5029L51.9834 60.4141C54.0504 59.9335 55.9425 58.9043 57.4434 57.4443L63.916 51.1484L63.917 51.1475L64.0479 51.0137C65.3168 49.6504 65.318 47.5766 64.0479 46.21L63.916 46.0762C62.6442 44.8391 60.6419 44.6619 59.1621 45.6406L59.0205 45.7393L51.4775 51.2422C50.2235 52.1588 48.7015 52.6494 47.1406 52.6494H39.8564C39.3042 52.6494 38.8565 52.2017 38.8564 51.6494C38.8565 51.1318 39.2498 50.7056 39.7539 50.6543L39.8564 50.6494H44.4932C46.5805 50.6494 48.2236 49.0119 48.2236 47.0479V46.127C48.2234 44.5964 47.2174 43.2251 45.7139 42.7256L45.4063 42.6377L38.25 40.8965V40.8975C37.1625 40.6337 36.0491 40.5 34.9297 40.5Z" fill="url(#paint0_linear_1144_11929)"/>
<path d="M51.7002 8.41504L51.9414 8.4502C52.019 8.46518 52.0938 8.48222 52.1651 8.49805L61.7236 10.6221L62.1201 10.7119C62.2456 10.7417 62.3636 10.7725 62.4707 10.8047C62.6974 10.8728 62.9401 10.9671 63.1729 11.1348L63.2959 11.2295C63.5749 11.4607 63.7959 11.7555 63.9395 12.0898L64.0108 12.2861C64.0705 12.4807 64.0964 12.6696 64.1094 12.8467C64.1258 13.0701 64.125 13.335 64.125 13.6162V15.0576C64.125 15.4028 64.1262 15.7227 64.1045 15.9883C64.0847 16.2307 64.0422 16.4949 63.9287 16.7598L63.875 16.873C63.6828 17.2504 63.3903 17.5659 63.0313 17.7861L62.874 17.875C62.5715 18.0292 62.2655 18.0809 61.9883 18.1035C61.8524 18.1146 61.7023 18.1196 61.542 18.1221V26.459C61.7023 26.4614 61.8524 26.4674 61.9883 26.4785C62.2307 26.4983 62.4949 26.5409 62.7598 26.6543L62.874 26.708L63.0313 26.7959C63.3903 27.016 63.6827 27.3317 63.875 27.709L63.9287 27.8232C64.0421 28.0881 64.0847 28.3523 64.1045 28.5947C64.1262 28.8602 64.125 29.1793 64.125 29.5244V30.5576C64.125 30.9028 64.1262 31.2227 64.1045 31.4883C64.0847 31.7307 64.0422 31.9949 63.9287 32.2598L63.875 32.373C63.6828 32.7504 63.3903 33.0659 63.0313 33.2861L62.874 33.375C62.5715 33.5292 62.2655 33.5809 61.9883 33.6035C61.8554 33.6144 61.709 33.6196 61.5527 33.6221L61.0586 33.625H41.9414C41.5963 33.625 41.2772 33.6252 41.0117 33.6035C40.7693 33.5837 40.5052 33.5412 40.2402 33.4277L40.126 33.375C39.7487 33.1827 39.433 32.8902 39.2129 32.5312L39.125 32.373C38.971 32.0706 38.9182 31.7653 38.8955 31.4883C38.8847 31.3555 38.8795 31.2089 38.877 31.0527L38.875 30.5576V29.5244C38.875 29.1793 38.8738 28.8602 38.8955 28.5947C38.9182 28.3175 38.9709 28.0115 39.125 27.709L39.2129 27.5518C39.433 27.1927 39.7487 26.9003 40.126 26.708L40.2402 26.6543C40.5051 26.5409 40.7693 26.4983 41.0117 26.4785C41.1477 26.4674 41.2977 26.4614 41.458 26.459V18.1221C41.2977 18.1196 41.1476 18.1146 41.0117 18.1035C40.7693 18.0837 40.5052 18.0412 40.2402 17.9277L40.126 17.875C39.7487 17.6827 39.433 17.3902 39.2129 17.0312L39.125 16.873C38.971 16.5706 38.9182 16.2653 38.8955 15.9883C38.8847 15.8555 38.8795 15.7089 38.877 15.5527L38.875 15.0576V13.6162C38.875 13.335 38.8742 13.0701 38.8906 12.8467C38.908 12.6107 38.9474 12.3534 39.0606 12.0898L39.127 11.9492C39.2922 11.6268 39.532 11.3474 39.8272 11.1348L40.0029 11.0225C40.18 10.9219 40.3592 10.8558 40.5293 10.8047C40.7438 10.7402 41.002 10.683 41.2764 10.6221L50.835 8.49805L51.0586 8.4502C51.1365 8.43515 51.2172 8.42228 51.2998 8.41504L51.5 8.40625C51.5668 8.40625 51.6336 8.4092 51.7002 8.41504ZM41.9414 28.458C41.5634 28.458 41.34 28.4592 41.1748 28.4727C41.0875 28.4798 41.0454 28.4882 41.0303 28.4922C40.9787 28.5195 40.9365 28.5617 40.9092 28.6133C40.9052 28.6283 40.8968 28.6703 40.8897 28.7578C40.8762 28.923 40.875 29.1464 40.875 29.5244V30.5576L40.877 31.0215C40.8788 31.1453 40.8829 31.2426 40.8897 31.3252C40.8967 31.4111 40.9051 31.4531 40.9092 31.4688C40.9363 31.5201 40.9782 31.5614 41.0293 31.5889C41.0431 31.5926 41.0847 31.603 41.1748 31.6104C41.34 31.6238 41.5634 31.625 41.9414 31.625H61.0586L61.5215 31.623C61.6453 31.6212 61.7426 31.6171 61.8252 31.6104C61.9134 31.6031 61.955 31.5928 61.9697 31.5889C62.0211 31.5615 62.0626 31.5202 62.0899 31.4688C62.0939 31.4533 62.1033 31.4116 62.1104 31.3252C62.1239 31.16 62.125 30.9358 62.125 30.5576V29.5244C62.125 29.1464 62.1239 28.923 62.1104 28.7578C62.1032 28.6699 62.0938 28.6281 62.0899 28.6133C62.0624 28.5616 62.0206 28.5194 61.9688 28.4922C61.9529 28.4881 61.9108 28.4797 61.8252 28.4727C61.7426 28.4659 61.6454 28.4618 61.5215 28.46L61.0586 28.458H41.9414ZM43.458 26.458H47.2705V18.125H43.458V26.458ZM49.2705 26.458H53.7295V18.125H49.2705V26.458ZM55.7295 26.458H59.542V18.125H55.7295V26.458ZM51.4424 10.4131L51.2686 10.4502L41.71 12.5742C41.4072 12.6415 41.2325 12.6813 41.1045 12.7197C41.0459 12.7373 41.0145 12.7503 41 12.7568L40.9961 12.7578C40.9748 12.7732 40.9558 12.7912 40.9395 12.8115L40.8984 12.8789C40.9067 12.8595 40.8946 12.8726 40.8858 12.9932C40.876 13.1265 40.875 13.3059 40.875 13.6162V15.0576L40.877 15.5215C40.8788 15.6453 40.8829 15.7426 40.8897 15.8252C40.8967 15.9111 40.9051 15.9531 40.9092 15.9688C40.9363 16.0201 40.9782 16.0614 41.0293 16.0889C41.0431 16.0926 41.0847 16.103 41.1748 16.1104C41.34 16.1238 41.5634 16.125 41.9414 16.125H61.0586L61.5215 16.123C61.6453 16.1212 61.7426 16.1171 61.8252 16.1104C61.9134 16.1031 61.955 16.0928 61.9697 16.0889C62.0211 16.0615 62.0626 16.0202 62.0899 15.9688C62.0939 15.9533 62.1033 15.9116 62.1104 15.8252C62.1239 15.66 62.125 15.4358 62.125 15.0576V13.6162C62.125 13.3059 62.1241 13.1265 62.1143 12.9932C62.1099 12.9331 62.1048 12.8997 62.1016 12.8838V12.8789C62.0911 12.8545 62.077 12.832 62.0606 12.8115L62.0039 12.7578C62.0209 12.77 62.011 12.7544 61.8955 12.7197C61.8315 12.7005 61.7557 12.6813 61.6582 12.6582L61.2901 12.5742L51.7315 10.4502C51.6431 10.4306 51.5944 10.4203 51.5576 10.4131L51.5254 10.4072H51.4746C51.4785 10.4069 51.4732 10.4071 51.4424 10.4131Z" fill="url(#paint1_linear_1144_11929)"/>
<defs>
<linearGradient id="paint0_linear_1144_11929" x1="36.0001" y1="38.5" x2="36.0001" y2="67.5" gradientUnits="userSpaceOnUse">
<stop stop-color="#0BE6E6"/>
<stop offset="1" stop-color="#0B9292" stop-opacity="0.45"/>
</linearGradient>
<linearGradient id="paint1_linear_1144_11929" x1="51.5" y1="8.40625" x2="51.5" y2="33.625" gradientUnits="userSpaceOnUse">
<stop stop-color="#0BE6E6"/>
<stop offset="1" stop-color="#0B9292" stop-opacity="0.45"/>
</linearGradient>
</defs>
</svg>
