<svg width="72" height="72" viewBox="0 0 72 72" fill="none" xmlns="http://www.w3.org/2000/svg">
<path d="M1 1H5.57157C6.43264 1 6.86317 1 7.20964 1.15834C7.51496 1.29788 7.77371 1.52229 7.95502 1.80481C8.16077 2.1254 8.22166 2.55162 8.34343 3.40402L10 15M10 15L13.6816 42.0599C14.1488 45.4938 14.3824 47.2108 15.2033 48.5032C15.9267 49.642 16.9638 50.5476 18.1897 51.1108C19.581 51.75 21.3138 51.75 24.7794 51.75H54.732C58.0309 51.75 59.6804 51.75 61.0283 51.1565C62.2169 50.6331 63.2365 49.7894 63.973 48.7198C64.8083 47.5067 65.1169 45.8863 65.7342 42.6457L70.3669 18.3239C70.5841 17.1833 70.6928 16.613 70.5353 16.1672C70.3972 15.7762 70.1247 15.4469 69.7664 15.2381C69.358 15 68.7774 15 67.6163 15H10ZM29 67.5C29 69.433 27.433 71 25.5 71C23.567 71 22 69.433 22 67.5C22 65.567 23.567 64 25.5 64C27.433 64 29 65.567 29 67.5ZM57 67.5C57 69.433 55.433 71 53.5 71C51.567 71 50 69.433 50 67.5C50 65.567 51.567 64 53.5 64C55.433 64 57 65.567 57 67.5Z" stroke="url(#paint0_linear_749_635)" stroke-width="2" stroke-linecap="round" stroke-linejoin="round"/>
<defs>
<linearGradient id="paint0_linear_749_635" x1="35.805" y1="1" x2="35.805" y2="71" gradientUnits="userSpaceOnUse">
<stop stop-color="#0BE6E6"/>
<stop offset="1" stop-color="#0B9292" stop-opacity="0.45"/>
</linearGradient>
</defs>
</svg>
