<svg width="290" height="321" viewBox="0 0 290 321" fill="none" xmlns="http://www.w3.org/2000/svg">
<path d="M149.213 0C151.4 1.04802 153.447 1.39429 155.667 2.62138C161.257 5.71278 163.676 12.6632 171.38 11.8377C173.098 11.6533 174.878 10.5013 176.615 10.1616C187.058 8.11955 197.07 13.0792 200.868 23.1421C201.958 26.0281 201.787 28.8167 203.697 31.5711C206.936 36.2437 210.492 35.5248 214.961 37.2062C225.126 41.0296 229.954 50.9345 227.969 61.4121C227.64 63.1447 226.473 64.9143 226.287 66.6377C225.427 74.6348 233.565 77.4866 236.389 83.9538C239.005 89.9418 238.802 96.5182 235.756 102.314C232.732 108.07 225.451 110.606 226.288 118.387C226.474 120.111 227.641 121.881 227.97 123.613C229.954 134.083 225.134 143.993 214.963 147.819C210.845 149.368 206.413 148.934 203.802 153.547L225.762 196.448C227.709 201.748 224.511 206.412 219.053 206.907C215.649 206.586 194.463 200.408 193.13 201.35C188.481 209.502 184.093 239.21 170.612 223.989L150.411 184.439C147.133 185.058 144.09 185.47 140.833 184.349L119.365 225.488C115.689 229.428 110.363 229.278 107.354 224.615C105.181 221.249 98.8326 202.037 97.7629 201.372C96.9213 201.022 96.0586 201.332 95.2144 201.439C88.5822 202.274 77.8384 206.928 71.8591 206.907C66.5763 206.889 63.0861 201.226 65.1504 196.448C67.0565 190.997 87.5639 155.912 87.1101 153.547C86.4005 149.846 78.6233 148.825 75.9496 147.819C65.8627 144.026 60.8978 134.03 62.9436 123.613C63.2839 121.878 64.4394 120.103 64.6228 118.387C65.4683 110.531 58.1172 108.1 55.1599 102.309C51.9321 95.989 51.9849 88.5382 55.3788 82.3093C58.4219 76.7216 65.4604 74.4084 64.6241 66.6377C64.4394 64.9222 63.2853 63.1474 62.9449 61.4121C60.8978 50.9885 65.8693 40.9967 75.9509 37.2062C79.1404 36.0067 81.7059 36.349 84.7213 34.0831C89.2061 30.7153 88.3659 27.5817 90.0424 23.1421C93.8426 13.0792 103.853 8.11955 114.296 10.1616C116.034 10.5013 117.813 11.6533 119.531 11.8377C127.334 12.675 129.63 5.6351 135.233 2.61084L142.325 0H149.214L149.213 0ZM143.41 9.52569C137.737 10.4421 136.195 15.3464 131.886 18.0244C128.492 20.1336 123.5 21.4753 119.48 21.2501C112.937 20.8828 107.809 15.8915 101.588 22.1665C97.1521 26.6403 98.4593 34.2846 92.5578 40.0329C86.3688 46.0591 75.691 44.4567 72.6677 52.0575C70.0468 58.6485 75.8388 65.0249 72.9777 74.249C70.7353 81.4772 63.6374 84.1579 62.4345 89.9747C60.3688 99.9691 70.5375 102.159 73.1162 111.264C75.5829 119.972 71.6547 122.402 71.784 128.979C71.9779 138.896 80.3513 138.26 86.5825 140.955C90.5634 142.677 94.915 146.91 96.7155 150.844C99.6188 157.192 98.9988 166.287 109.45 166.15C116.038 166.064 118.17 162.122 127.167 164.833C134.383 167.007 137.035 174.159 142.912 175.369C152.984 177.443 155.121 167.22 164.233 164.698C172.956 162.283 175.099 166.067 181.46 166.15C193.739 166.312 191.395 151.771 198.352 144.993C205.13 138.389 219.397 140.621 219.238 128.446C219.152 121.87 215.203 119.742 217.919 110.764C220.098 103.563 227.263 100.916 228.475 95.0502C230.553 84.9979 220.31 82.865 217.783 73.7711C215.364 65.0657 219.155 62.9262 219.239 56.5775C219.401 44.3224 204.831 46.6621 198.04 39.7183C191.25 32.7744 193.794 18.713 181.461 18.8736C175.102 18.9566 172.956 22.7418 164.234 20.3259C155.477 17.9007 153.187 7.94707 143.413 9.52569H143.41ZM114.131 215.649L132.008 180.013C128.591 176.398 125.021 172.599 119.529 173.187C117.802 173.372 116.028 174.538 114.292 174.865C105.147 176.591 97.0822 173.453 91.9036 165.659L75.9324 196.27C76.9032 197.027 95.7856 190.713 100 191.31C101.748 191.558 104.068 192.909 104.867 194.59L114.13 215.649H114.131ZM214.976 196.27L199.002 165.65C193.934 173.458 185.68 176.575 176.616 174.865C174.88 174.537 173.106 173.372 171.38 173.187C165.916 172.601 161.987 176.491 158.779 180.329L176.777 215.651L186.04 194.591C186.838 192.91 189.159 191.559 190.907 191.312C195.208 190.702 214.004 197.028 214.975 196.271L214.976 196.27Z" fill="url(#paint0_linear_979_467)"/>
<path d="M41.8613 213.877C57.0125 213.277 72.4574 216.718 86.0574 223.343C95.2391 227.816 102.226 233.978 112.788 236.138C129.288 239.511 147.978 239.025 164.547 242.131C176.823 244.433 186.743 254.44 187.545 267.109L189.45 266.818C213.147 257.596 236.683 244.242 260.39 235.489C269.551 232.107 278.255 231.576 284.854 239.878C291.671 248.454 290.165 261.89 280.424 267.372C252.327 281.454 225.07 300.759 196.974 314.403C171.564 326.742 131.26 317.438 103.167 320.26C82.1112 316.453 62.5152 306.198 42.1879 299.663C41.4169 304.422 38.6596 309.082 33.8816 310.814C30.758 311.945 15.6835 312.097 12.0758 311.535C6.47923 310.663 1.93531 304.172 1.68272 298.729C3.37677 269.842 -0.593208 238.362 1.65363 209.781C2.34527 200.987 6.9606 196.38 15.7813 195.69C30.0637 194.573 43.9097 195.763 41.8599 213.878L41.8613 213.877ZM41.8639 223.268V235.48C41.8639 235.716 39.7202 237.599 39.186 237.831C36.5014 238.992 33.4069 237.365 32.7549 234.561C31.045 227.216 33.4928 216.184 32.4772 208.519C31.8411 203.721 19.6918 204.637 15.7919 205.092C12.7304 205.449 11.0298 207.291 11.0668 210.398C13.0055 238.485 8.5925 269.807 11.0668 297.51C11.2916 300.028 11.7082 301.84 14.5197 302.208C17.6526 302.619 25.0966 302.475 28.3922 302.202C31.9032 301.912 32.181 301.603 32.4719 298.133C33.5828 284.886 30.717 268.32 32.5036 255.577C33.3222 249.733 39.6964 248.959 41.8507 254.28L41.9525 289.564C58.4619 294.774 74.7187 302.618 91.1448 307.826C115.57 315.57 149.441 308.464 175.322 310.969C182.6 310.432 188.501 307.997 194.872 304.79C222.339 290.966 248.854 273.001 276.293 258.863C283.574 252.457 278.075 240.762 268.284 242.739L183.313 279.482C163.789 279.453 143.924 280.502 124.518 278.299C121.736 277.983 110.771 276.66 109.34 275.275C106.607 272.629 108.043 267.63 111.931 267.126L141.365 270.263L178.127 270.24C178.902 260.852 172.301 253.39 163.294 251.525C145.93 247.929 125.839 248.951 108.536 244.764C97.4384 242.078 89.7404 235.458 79.7678 230.871C67.9756 225.447 54.8807 222.782 41.8666 223.268H41.8639Z" fill="url(#paint1_linear_979_467)"/>
<path d="M138.351 28.2006C196.419 22.9649 231.565 90.416 193.291 134.715C160.586 172.566 98.2465 158.912 84.2563 110.816C83.2774 107.452 80.9166 100.975 85.0358 98.9922C92.151 95.5681 93.2126 108.656 95.0065 113.176C117.457 169.716 203.866 151.261 199.564 87.4852C195.774 31.3131 116.63 18.2836 95.181 70.8366C93.3242 75.3853 92.6116 85.9495 87.0725 85.9694C79.2106 85.9959 84.3311 72.9651 85.8337 68.9468C93.9501 47.2562 115.33 30.276 138.351 28.2006Z" fill="url(#paint2_linear_979_467)"/>
<path d="M185.481 86.3846L168.641 99.5469L174.316 121.356C170.645 138.618 154.023 119.325 145.77 116.088C143.324 116.458 131.605 126.555 127.513 128.009C122.257 129.877 118.513 127.165 117.696 121.94L123.759 100.018C123.577 98.8383 107.266 88.1838 105.353 84.6763C103.346 80.9988 105.67 75.7025 109.862 74.8622L132.128 73.8058L140.153 52.9988C153.372 41.064 155.193 66.3112 159.819 73.8058L183.431 75.4035C187.69 77.561 188.669 82.856 185.481 86.3846ZM134.308 83.4737C130.158 84.0796 124.749 83.0285 120.436 83.4737L119.8 84.7237C122.672 87.9915 132.29 92.9994 133.229 97.0483C134.282 101.587 130.056 110.631 128.95 115.359C130.182 116.338 142.152 105.769 146.276 105.94C150.3 106.108 158.472 113.805 162.679 115.371C162.263 110.195 157.588 101.934 158.721 97.0483C159.626 93.1469 169.4 87.9033 172.15 84.7237L171.514 83.4737H157.642C151.316 83.4737 148.688 70.8962 146.765 66.0913C146.5 65.4287 146.983 64.3131 145.667 64.7096C144.78 64.9769 141.413 79.3313 138.563 81.6126C137.836 82.1948 135.169 83.3486 134.31 83.4737H134.308Z" fill="url(#paint3_linear_979_467)"/>
<defs>
<linearGradient id="paint0_linear_979_467" x1="145.496" y1="0" x2="145.496" y2="228.289" gradientUnits="userSpaceOnUse">
<stop stop-color="#0BE6E6"/>
<stop offset="1" stop-color="#0B9292" stop-opacity="0.45"/>
</linearGradient>
<linearGradient id="paint1_linear_979_467" x1="144.997" y1="195.391" x2="144.997" y2="321" gradientUnits="userSpaceOnUse">
<stop stop-color="#0BE6E6"/>
<stop offset="1" stop-color="#0B9292" stop-opacity="0.45"/>
</linearGradient>
<linearGradient id="paint2_linear_979_467" x1="145.994" y1="27.9131" x2="145.994" y2="156.512" gradientUnits="userSpaceOnUse">
<stop stop-color="#0BE6E6"/>
<stop offset="1" stop-color="#0B9292" stop-opacity="0.45"/>
</linearGradient>
<linearGradient id="paint3_linear_979_467" x1="145.992" y1="49.8447" x2="145.992" y2="128.599" gradientUnits="userSpaceOnUse">
<stop stop-color="#0BE6E6"/>
<stop offset="1" stop-color="#0B9292" stop-opacity="0.45"/>
</linearGradient>
</defs>
</svg>
