<svg width="32" height="33" viewBox="0 0 32 33" fill="none" xmlns="http://www.w3.org/2000/svg">
<path d="M23.1816 16.499C23.9302 16.499 24.5983 16.8885 24.9648 17.542L31.0996 28.4512C31.4604 29.0918 31.4538 29.8523 31.083 30.4873C30.7123 31.1207 30.0516 31.4999 29.3174 31.5H17.0469C16.3125 31.5 15.6511 31.1222 15.2803 30.4873C14.9095 29.8523 14.9028 29.0904 15.2637 28.4512L21.3975 17.542H21.3994C21.7659 16.8886 22.4331 16.499 23.1816 16.499ZM15.8721 1.5C16.7469 1.50018 17.476 2.1566 17.5654 3.02441L17.625 3.58105C17.6577 3.88064 17.6887 4.17316 17.71 4.40039C18.5197 4.6291 19.2809 4.94663 19.9883 5.33301L21.0576 4.47559C21.7479 3.92453 22.7281 3.97605 23.3418 4.59082L25.5439 6.79297C26.1803 7.4279 26.192 8.40934 25.5742 9.18066L24.7939 10.1436C25.1859 10.8508 25.5026 11.6124 25.7412 12.4092L27.1094 12.5684C27.9787 12.6607 28.6338 13.3886 28.6338 14.2637V17.373C28.6337 17.8446 28.4376 18.298 28.0967 18.6162C27.8197 18.8716 27.3894 18.8574 27.1338 18.582C26.8767 18.3065 26.8925 17.8748 27.168 17.6191C27.2333 17.5581 27.2715 17.4678 27.2715 17.374V14.2646C27.2714 14.09 27.1406 13.9452 26.9688 13.9268L25.5996 13.7832C25.0385 13.715 24.5851 13.3271 24.4346 12.793C24.2215 12.087 23.9506 11.4319 23.6055 10.7998C23.3314 10.3055 23.3838 9.70587 23.7432 9.27832L24.5127 8.32715C24.6491 8.15669 24.7387 7.91647 24.5811 7.75879L22.3789 5.55566C22.2567 5.43501 22.0552 5.42634 21.916 5.53711L20.8574 6.39941C20.4228 6.75151 19.8249 6.80146 19.332 6.52734C18.7127 6.18927 18.0376 5.90891 17.333 5.69727C16.8105 5.54938 16.4212 5.09647 16.3545 4.54688C16.3318 4.30542 16.3022 4.01958 16.2695 3.72559L16.21 3.16309C16.1928 2.99135 16.0477 2.8623 15.873 2.8623H12.7637C12.5889 2.8623 12.4442 2.99174 12.4258 3.16504L12.2822 4.53516C12.214 5.09621 11.826 5.54818 11.292 5.7002C10.5973 5.90901 9.92247 6.18938 9.29883 6.53027C8.8045 6.80436 8.20632 6.75149 7.77734 6.39355L6.82422 5.62402C6.65518 5.48765 6.41638 5.39657 6.25586 5.55566L4.05371 7.75781C3.93343 7.87861 3.9269 8.08169 4.03613 8.2207L4.89844 9.27832C5.25073 9.71158 5.30099 10.3118 5.02539 10.8047C4.6832 11.4324 4.41213 12.0871 4.19629 12.8027C4.04857 13.3254 3.59558 13.7154 3.0459 13.7822L1.66309 13.9268C1.4914 13.9454 1.36137 14.0901 1.36133 14.2646V17.374C1.36133 17.5486 1.49139 17.6933 1.66309 17.7119L3.0332 17.8555C3.59406 17.9238 4.04665 18.3118 4.19727 18.8457C4.41035 19.5517 4.68216 20.2067 5.02734 20.8389C5.30149 21.3332 5.24898 21.9328 4.88965 22.3604L4.11914 23.3125C3.98296 23.4829 3.89421 23.7223 4.05176 23.8799L6.25293 26.084C6.37509 26.2046 6.57666 26.2123 6.71582 26.1016L7.77441 25.2393C8.20904 24.8871 8.80695 24.8368 9.2998 25.1123C9.91912 25.4504 10.5943 25.7298 11.2988 25.9414C11.8215 26.0891 12.2105 26.5422 12.2773 27.0918C12.3001 27.3333 12.3306 27.619 12.3633 27.9131L12.4229 28.4756C12.4399 28.6473 12.5843 28.7761 12.7588 28.7764H12.9512C13.3276 28.7765 13.6328 29.0826 13.6328 29.459C13.6326 29.8352 13.3274 30.1405 12.9512 30.1406L12.9541 30.1367H12.7617C11.887 30.1365 11.1589 29.48 11.0693 28.6123L11.0088 28.0557C10.9761 27.7559 10.9451 27.4626 10.9238 27.2354C10.1142 27.0067 9.35286 26.6901 8.64551 26.3037L7.57617 27.1602C6.88582 27.7113 5.90563 27.66 5.29199 27.0449L3.08984 24.8438C2.45344 24.2088 2.44165 23.2264 3.05957 22.4551L3.83984 21.4922C3.44783 20.7848 3.13123 20.0234 2.89258 19.2266L1.52441 19.0674C0.655095 18.9751 6.40617e-05 18.248 0 17.373V14.2637C0 13.3901 0.655052 12.6607 1.52441 12.5684L2.89551 12.4248C3.1313 11.6124 3.44954 10.8514 3.83301 10.1455L2.97461 9.0752C2.42369 8.38627 2.47625 7.40655 3.08984 6.79297L5.29199 4.59082C5.92699 3.95477 6.90989 3.94373 7.67969 4.56152L8.64258 5.33984C9.35142 4.94779 10.1147 4.63124 10.9102 4.39258L11.0693 3.02441C11.1588 2.1552 11.8869 1.50021 12.7617 1.5H15.8721ZM23.1787 17.8623C23.0593 17.8623 22.7615 17.8971 22.584 18.2109H22.5869L16.4512 29.1201C16.2779 29.4284 16.3974 29.6989 16.457 29.7998C16.5169 29.9009 16.6931 30.1377 17.0449 30.1377H29.3145C29.6663 30.1375 29.844 29.9022 29.9023 29.7998C29.962 29.6989 30.0815 29.4284 29.9082 29.1201L23.7725 18.2109C23.5963 17.897 23.298 17.8623 23.1787 17.8623ZM22.5 27.4092C22.5 26.5 23.8633 26.5 23.8633 27.4092C23.8629 28.3178 22.5004 28.3178 22.5 27.4092ZM23.1816 21.2725C23.5581 21.2725 23.8633 21.5777 23.8633 21.9541V25.0225C23.8632 25.3988 23.558 25.7041 23.1816 25.7041C22.8053 25.704 22.5001 25.3987 22.5 25.0225V21.9541C22.5 21.5777 22.8053 21.2726 23.1816 21.2725ZM14.3174 8.99902C17.954 8.99902 20.946 11.8417 21.1289 15.4697C21.1473 15.8461 20.8574 16.1657 20.4824 16.1855C20.1117 16.2124 19.7865 15.9154 19.7666 15.5391C19.6202 12.637 17.2265 10.3643 14.3174 10.3643C11.3102 10.3644 8.8623 12.8122 8.8623 15.8193C8.86238 18.8264 11.3102 21.2743 14.3174 21.2744C15.1099 21.2744 15.8786 21.1052 16.6016 20.7715C16.9438 20.6139 17.349 20.7638 17.5068 21.1045C17.6645 21.4468 17.5152 21.8521 17.1729 22.0098C16.268 22.4274 15.3075 22.6387 14.3174 22.6387V22.6357C10.5573 22.6356 7.49902 19.5774 7.49902 15.8174C7.49912 12.0574 10.5574 8.99915 14.3174 8.99902Z" fill="white"/>
</svg>
