<svg width="31" height="31" viewBox="0 0 31 31" fill="none" xmlns="http://www.w3.org/2000/svg">
<path d="M26.2699 1.04868C29.2885 0.565634 31.1088 3.77795 29.2474 6.22421C28.895 6.6871 26.9615 8.37428 26.8947 8.63325C26.8427 8.83717 27.3123 9.74047 27.4031 10.056C29.2885 16.6326 24.6018 20.8498 20.1549 24.8297C16.8234 27.811 12.9446 28.7476 8.72594 26.8573C7.48168 27.6629 6.46639 29.5354 4.93881 29.9037C2.64977 30.4557 0.675864 28.5476 1.04456 26.2455C1.28907 24.7235 3.23581 23.5349 4.13233 22.3703C2.8151 19.3177 2.82441 16.024 4.47541 13.1063C5.62576 11.0741 11.1539 5.56128 13.1915 4.43468C16.1038 2.82503 19.3577 2.82736 22.3904 4.13229C23.5562 3.23675 24.7462 1.29137 26.2699 1.04791V1.04868ZM26.5012 1.97524C26.155 2.03106 25.7645 2.25359 25.4851 2.46604C22.9857 4.37187 20.6144 7.76872 18.1328 9.83506C16.6565 11.9006 19.1186 14.3593 21.1865 12.8853L28.6691 5.41551C29.8094 3.81982 28.4044 1.66742 26.5004 1.97524H26.5012ZM21.6599 4.84484C19.3344 3.94465 16.828 3.85083 14.5064 4.82236C12.3842 5.71092 7.95594 10.208 6.34763 12.0813C4.019 14.7935 3.53154 18.326 4.84411 21.6415L8.44418 18.1143C8.60097 15.3742 11.1097 13.4172 12.9578 11.6168C14.4862 10.1289 15.7887 8.49834 18.1282 8.44019L21.6592 4.84407L21.6599 4.84484ZM9.36709 26.1587C11.6926 27.0589 14.199 27.1527 16.5206 26.1812C18.6428 25.2926 23.0711 20.7955 24.6794 18.9223C26.9956 16.2232 27.4916 12.6597 26.1829 9.36209L22.5324 12.9551C22.4975 13.9801 22.253 14.8361 21.6607 15.6758C20.8395 16.8412 16.117 21.5306 14.9581 22.0718C14.2758 22.3905 13.7084 22.4587 12.9641 22.513L9.36709 26.1595V26.1587ZM17.137 9.5947C16.9701 9.46986 15.9431 10.0739 15.7421 10.2282C14.6275 11.0849 11.0903 14.6183 10.2333 15.7309C10.1262 15.8697 9.35157 17.2211 9.65584 17.1234C12.4944 15.6572 15.3439 18.5943 13.8901 21.4096C14.1912 21.4306 14.4497 21.2553 14.7035 21.1227C15.6249 20.6412 19.8964 16.3613 20.6765 15.3882C20.7782 15.2618 21.7414 13.7623 21.372 13.8817C18.5334 15.3393 15.6761 12.4224 17.1377 9.59547L17.137 9.5947ZM10.6114 17.7305C10.2271 17.8019 9.94459 18.0446 9.65429 18.2803C7.13549 20.3241 4.84955 23.431 2.35791 25.5888C0.965391 27.6179 3.38639 30.034 5.41618 28.6437L12.9431 21.1018C14.0445 19.3565 12.6675 17.3491 10.6114 17.7305Z" fill="white"/>
<path d="M26.2699 1.04868H25.7699V1.63505L26.3489 1.5424L26.2699 1.04868ZM29.2474 6.22421L29.6452 6.52708L29.6453 6.52698L29.2474 6.22421ZM26.8947 8.63325L26.4105 8.50845L26.4102 8.50969L26.8947 8.63325ZM27.4031 10.056L27.8838 9.91824L27.8836 9.91776L27.4031 10.056ZM20.1549 24.8297L20.4883 25.2023L20.4883 25.2023L20.1549 24.8297ZM8.72594 26.8573L8.9304 26.401L8.68236 26.2899L8.4542 26.4376L8.72594 26.8573ZM4.93881 29.9037L4.82162 29.4176L4.82159 29.4176L4.93881 29.9037ZM1.04456 26.2455L0.550894 26.1662L0.550856 26.1665L1.04456 26.2455ZM4.13233 22.3703L4.52853 22.6753L4.70794 22.4422L4.59141 22.1722L4.13233 22.3703ZM4.47541 13.1063L4.04029 12.86L4.04025 12.8601L4.47541 13.1063ZM13.1915 4.43468L12.9496 3.99707L12.9495 3.99711L13.1915 4.43468ZM22.3904 4.13229L22.1927 4.59157L22.4622 4.70755L22.6949 4.52881L22.3904 4.13229ZM26.2699 1.04791H26.7699V0.461673L26.191 0.554171L26.2699 1.04791ZM26.5012 1.97524L26.5808 2.46886L26.5012 1.47524V1.97524ZM25.4851 2.46604L25.1825 2.06801L25.1819 2.06844L25.4851 2.46604ZM18.1328 9.83506L17.8129 9.45082L17.7635 9.49198L17.7261 9.54432L18.1328 9.83506ZM21.1865 12.8853L21.4767 13.2925L21.5104 13.2684L21.5397 13.2392L21.1865 12.8853ZM28.6691 5.41551L29.0224 5.76937L29.0518 5.74001L29.0759 5.70621L28.6691 5.41551ZM26.5004 1.97524L26.4206 1.48165L26.5004 2.47524V1.97524ZM21.6599 4.84484L21.4794 5.31113L22.0131 4.49089L21.6599 4.84484ZM14.5064 4.82236L14.3134 4.36111L14.3133 4.36115L14.5064 4.82236ZM6.34763 12.0813L6.72699 12.407L6.727 12.407L6.34763 12.0813ZM4.84411 21.6415L4.37922 21.8255L4.65632 22.5254L5.19403 21.9986L4.84411 21.6415ZM8.44418 18.1143L8.7941 18.4715L8.93231 18.3361L8.94336 18.1429L8.44418 18.1143ZM12.9578 11.6168L12.6091 11.2586L12.6089 11.2587L12.9578 11.6168ZM18.1282 8.44019L18.1406 8.94003L18.3431 8.935L18.485 8.79049L18.1282 8.44019ZM21.6592 4.84407L22.0123 4.49012L21.6555 4.13412L21.3024 4.49376L21.6592 4.84407ZM9.36709 26.1587L9.54759 25.6924L8.86709 25.429V26.1587H9.36709ZM16.5206 26.1812L16.7137 26.6424L16.7138 26.6424L16.5206 26.1812ZM24.6794 18.9223L25.0588 19.248L25.0588 19.2479L24.6794 18.9223ZM26.1829 9.36209L26.6477 9.17765L26.3695 8.47685L25.8322 9.00574L26.1829 9.36209ZM22.5324 12.9551L22.1817 12.5988L22.0395 12.7387L22.0327 12.9381L22.5324 12.9551ZM21.6607 15.6758L21.2521 15.3877L21.252 15.3878L21.6607 15.6758ZM14.9581 22.0718L14.7466 21.6187L14.7465 21.6188L14.9581 22.0718ZM12.9641 22.513L12.9277 22.0143L12.7401 22.028L12.6081 22.1618L12.9641 22.513ZM9.36709 26.1595H8.86709V27.3784L9.72306 26.5106L9.36709 26.1595ZM17.137 9.5947L17.4902 9.24082L17.465 9.21565L17.4365 9.19432L17.137 9.5947ZM15.7421 10.2282L15.4377 9.83152L15.4374 9.83174L15.7421 10.2282ZM10.2333 15.7309L10.6292 16.0364L10.6295 16.036L10.2333 15.7309ZM9.65584 17.1234L9.8087 17.5995L9.84832 17.5868L9.8853 17.5677L9.65584 17.1234ZM13.8901 21.4096L13.4458 21.1802L13.097 21.8557L13.8554 21.9084L13.8901 21.4096ZM14.7035 21.1227L14.935 21.5659L14.9351 21.5659L14.7035 21.1227ZM20.6765 15.3882L20.2869 15.0748L20.2864 15.0754L20.6765 15.3882ZM21.372 13.8817L21.2182 13.4059L21.1796 13.4184L21.1436 13.4369L21.372 13.8817ZM17.1377 9.59547L17.5819 9.82511L17.7499 9.50008L17.491 9.24159L17.1377 9.59547ZM10.6114 17.7305L10.5202 17.2389L10.5201 17.2389L10.6114 17.7305ZM9.65429 18.2803L9.96934 18.6685L9.96946 18.6684L9.65429 18.2803ZM2.35791 25.5888L2.03059 25.2109L1.98201 25.2529L1.94565 25.3059L2.35791 25.5888ZM5.41618 28.6437L5.69872 29.0563L5.73717 29.0299L5.77009 28.9969L5.41618 28.6437ZM12.9431 21.1018L13.297 21.455L13.3363 21.4157L13.3659 21.3687L12.9431 21.1018ZM26.3489 1.5424C27.6521 1.33386 28.6578 1.9177 29.1546 2.78621C29.6533 3.65809 29.6602 4.85593 28.8495 5.92144L29.6453 6.52698C30.6959 5.14623 30.7234 3.51478 30.0227 2.2897C29.32 1.06125 27.9063 0.280457 26.1908 0.554964L26.3489 1.5424ZM28.8496 5.92134C28.7876 6.0028 28.6285 6.16908 28.3905 6.40244C28.1616 6.6268 27.8888 6.8854 27.6185 7.14372C27.3513 7.3991 27.0859 7.6548 26.8824 7.86419C26.7812 7.9683 26.6886 8.06777 26.6166 8.15398C26.5809 8.19677 26.5445 8.24319 26.5131 8.28999C26.4895 8.32515 26.437 8.40567 26.4105 8.50845L27.3789 8.75806C27.3607 8.82846 27.3312 8.86545 27.3434 8.84722C27.3479 8.84062 27.3601 8.8238 27.3844 8.79476C27.4323 8.73733 27.5045 8.65888 27.5995 8.56117C27.7883 8.36691 28.0408 8.12333 28.3094 7.86667C28.5749 7.61297 28.8557 7.3468 29.0905 7.11653C29.3162 6.89526 29.531 6.67706 29.6452 6.52708L28.8496 5.92134ZM26.4102 8.50969C26.3762 8.64316 26.3949 8.76755 26.4057 8.82826C26.4193 8.90405 26.4411 8.98096 26.4635 9.05062C26.5087 9.19064 26.5725 9.34917 26.6344 9.49657C26.6908 9.63055 26.7707 9.81334 26.8176 9.92419C26.8753 10.0605 26.9096 10.1489 26.9226 10.1943L27.8836 9.91776C27.8513 9.80534 27.7928 9.66258 27.7385 9.53435C27.6735 9.3807 27.6222 9.26576 27.5563 9.10898C27.496 8.96562 27.4464 8.84037 27.4153 8.74381C27.3996 8.69517 27.3925 8.6656 27.39 8.65172C27.3848 8.62277 27.4002 8.67432 27.3792 8.75681L26.4102 8.50969ZM26.9225 10.1938C27.8195 13.3228 27.1601 15.8755 25.7303 18.1506C24.2827 20.4539 22.0567 22.4566 19.8214 24.4572L20.4883 25.2023C22.6999 23.2229 25.0408 21.1271 26.577 18.6827C28.1309 16.21 28.8721 13.3659 27.8838 9.91824L26.9225 10.1938ZM19.8214 24.4571C18.2078 25.9011 16.4847 26.8296 14.6781 27.1795C12.8754 27.5286 10.9553 27.3084 8.9304 26.401L8.52149 27.3136C10.7152 28.2966 12.8439 28.5532 14.8682 28.1612C16.8884 27.77 18.7704 26.7396 20.4883 25.2023L19.8214 24.4571ZM8.4542 26.4376C7.76978 26.8807 7.13908 27.6234 6.58086 28.1952C5.98125 28.8093 5.43305 29.2702 4.82162 29.4176L5.056 30.3898C5.97216 30.1689 6.69539 29.5093 7.29639 28.8938C7.93876 28.2358 8.43784 27.6395 8.99768 27.277L8.4542 26.4376ZM4.82159 29.4176C2.89411 29.8825 1.22363 28.2892 1.53827 26.3246L0.550856 26.1665C0.128101 28.806 2.40542 31.029 5.05604 30.3898L4.82159 29.4176ZM1.53823 26.3249C1.63301 25.7349 2.07242 25.1562 2.69852 24.5264C3.00806 24.2151 3.32665 23.9254 3.65174 23.6143C3.96648 23.3131 4.27976 22.9985 4.52853 22.6753L3.73613 22.0653C3.53664 22.3244 3.27038 22.5951 2.96032 22.8919C2.66061 23.1787 2.30913 23.4997 1.98936 23.8214C1.35684 24.4576 0.700623 25.2342 0.550894 26.1662L1.53823 26.3249ZM4.59141 22.1722C3.3284 19.2453 3.34584 16.1178 4.91058 13.3525L4.04025 12.8601C2.30299 15.9302 2.3018 19.3901 3.67325 22.5684L4.59141 22.1722ZM4.91054 13.3526C5.17174 12.8912 5.70435 12.1975 6.41368 11.3802C7.11604 10.5709 7.97 9.66503 8.85355 8.78518C9.73713 7.90531 10.6461 7.05574 11.4576 6.35835C12.2776 5.65378 12.9722 5.12727 13.4334 4.87225L12.9495 3.99711C12.392 4.30539 11.6315 4.89045 10.8059 5.5999C9.97195 6.31652 9.04489 7.1834 8.14794 8.07659C7.25096 8.96979 6.37984 9.89355 5.65846 10.7247C4.94405 11.5478 4.35426 12.3053 4.04029 12.86L4.91054 13.3526ZM13.4333 4.87229C16.1945 3.34622 19.2844 3.34015 22.1927 4.59157L22.588 3.673C19.431 2.31456 16.0132 2.30384 12.9496 3.99707L13.4333 4.87229ZM22.6949 4.52881C23.0184 4.28031 23.3334 3.96732 23.635 3.65286C23.9465 3.32805 24.2364 3.00975 24.5481 2.70051C25.1784 2.07508 25.7579 1.63606 26.3487 1.54164L26.191 0.554171C25.2582 0.703218 24.4808 1.35862 23.8438 1.99063C23.5218 2.3101 23.2004 2.66128 22.9132 2.96071C22.6162 3.27049 22.3452 3.5365 22.0858 3.73577L22.6949 4.52881ZM25.7699 1.04791V1.04868H26.7699V1.04791H25.7699ZM26.4216 1.48161C25.9563 1.55665 25.4875 1.83609 25.1825 2.06801L25.7877 2.86407C26.0415 2.6711 26.3537 2.50548 26.5808 2.46886L26.4216 1.48161ZM25.1819 2.06844C23.8892 3.05419 22.6412 4.41558 21.4312 5.75523C20.2066 7.1111 19.0201 8.4456 17.8129 9.45082L18.4528 10.2193C19.7271 9.15819 20.967 7.76109 22.1733 6.4255C23.3943 5.07368 24.5816 3.78372 25.7883 2.86364L25.1819 2.06844ZM17.7261 9.54432C15.9185 12.0733 18.9533 15.0912 21.4767 13.2925L20.8962 12.4782C19.284 13.6274 17.3945 11.7279 18.5396 10.1258L17.7261 9.54432ZM21.5397 13.2392L29.0224 5.76937L28.3159 5.06165L20.8332 12.5315L21.5397 13.2392ZM29.0759 5.70621C30.4879 3.73033 28.7405 1.1066 26.4206 1.48165L26.5802 2.46883C28.0684 2.22824 29.1309 3.9093 28.2623 5.12481L29.0759 5.70621ZM26.5004 2.47524H26.5012V1.47524H26.5004V2.47524ZM21.8404 4.37856C19.4121 3.43856 16.7706 3.33286 14.3134 4.36111L14.6994 5.2836C16.8855 4.36881 19.2567 4.45074 21.4794 5.31113L21.8404 4.37856ZM14.3133 4.36115C13.7188 4.61008 13.0011 5.09214 12.2551 5.67365C11.5007 6.26171 10.6861 6.97639 9.89303 7.71714C8.30781 9.1977 6.7857 10.8035 5.96827 11.7556L6.727 12.407C7.51788 11.4858 9.01406 9.9064 10.5756 8.44796C11.3559 7.71921 12.1468 7.02594 12.8699 6.46234C13.6013 5.89221 14.2329 5.47892 14.6995 5.28356L14.3133 4.36115ZM5.96827 11.7556C3.51102 14.6176 3.00276 18.3487 4.37922 21.8255L5.30901 21.4574C4.06033 18.3034 4.52698 14.9694 6.72699 12.407L5.96827 11.7556ZM5.19403 21.9986L8.7941 18.4715L8.09426 17.7572L4.4942 21.2843L5.19403 21.9986ZM8.94336 18.1429C9.01309 16.9244 9.60619 15.8502 10.4514 14.8327C11.3068 13.8027 12.3522 12.9049 13.3067 11.975L12.6089 11.2587C11.7153 12.1292 10.5823 13.11 9.68212 14.1937C8.77172 15.2898 8.03206 16.5642 7.945 18.0858L8.94336 18.1429ZM13.3066 11.9751C14.9045 10.4195 16.045 8.99212 18.1406 8.94003L18.1158 7.94034C15.5324 8.00455 14.0679 9.83832 12.6091 11.2586L13.3066 11.9751ZM18.485 8.79049L22.0159 5.19438L21.3024 4.49376L17.7714 8.08988L18.485 8.79049ZM21.306 5.19802L21.3068 5.19879L22.0131 4.49089L22.0123 4.49012L21.306 5.19802ZM9.1866 26.625C11.6149 27.565 14.2565 27.6707 16.7137 26.6424L16.3276 25.7199C14.1416 26.6347 11.7703 26.5528 9.54759 25.6924L9.1866 26.625ZM16.7138 26.6424C17.3083 26.3935 18.026 25.9114 18.772 25.3299C19.5264 24.7418 20.3409 24.0272 21.134 23.2864C22.7192 21.8058 24.2413 20.2001 25.0588 19.248L24.3 18.5966C23.5092 19.5177 22.013 21.0971 20.4514 22.5556C19.6712 23.2843 18.8802 23.9776 18.1572 24.5412C17.4258 25.1113 16.7941 25.5246 16.3275 25.72L16.7138 26.6424ZM25.0588 19.2479C27.5033 16.3994 28.0207 12.6373 26.6477 9.17765L25.7182 9.54653C26.9626 12.6821 26.4879 16.0471 24.3 18.5967L25.0588 19.2479ZM25.8322 9.00574L22.1817 12.5988L22.8831 13.3115L26.5337 9.71844L25.8322 9.00574ZM22.0327 12.9381C22.0005 13.8814 21.7799 14.6394 21.2521 15.3877L22.0693 15.964C22.7261 15.0329 22.9944 14.0789 23.0321 12.9721L22.0327 12.9381ZM21.252 15.3878C20.8731 15.9255 19.5228 17.3568 18.0879 18.749C17.378 19.4378 16.6609 20.104 16.0521 20.6295C15.7475 20.8924 15.4738 21.1169 15.2441 21.2902C15.0067 21.4693 14.8411 21.5746 14.7466 21.6187L15.1697 22.5248C15.3649 22.4337 15.6003 22.2741 15.8463 22.0885C16.0999 21.8972 16.3916 21.6575 16.7056 21.3865C17.3339 20.8441 18.066 20.1636 18.7842 19.4667C20.2056 18.0877 21.6271 16.5916 22.0694 15.9639L21.252 15.3878ZM14.7465 21.6188C14.1496 21.8976 13.6572 21.9611 12.9277 22.0143L13.0004 23.0116C13.7596 22.9563 14.4021 22.8834 15.1697 22.5248L14.7465 21.6188ZM12.6081 22.1618L9.01113 25.8084L9.72306 26.5106L13.32 22.8641L12.6081 22.1618ZM9.86709 26.1595V26.1587H8.86709V26.1595H9.86709ZM17.4365 9.19432C17.2542 9.05796 17.051 9.07526 16.9829 9.08272C16.887 9.09323 16.7937 9.11968 16.717 9.14558C16.5599 9.1986 16.3844 9.27998 16.2248 9.36152C15.9102 9.52229 15.5728 9.7278 15.4377 9.83152L16.0465 10.6248C16.1124 10.5742 16.389 10.4006 16.6799 10.252C16.823 10.1789 16.9481 10.123 17.0368 10.0931C17.083 10.0775 17.0988 10.076 17.0918 10.0768C17.0877 10.0772 17.0628 10.0799 17.0252 10.0745C16.9885 10.0693 16.9145 10.0527 16.8375 9.99508L17.4365 9.19432ZM15.4374 9.83174C14.8503 10.283 13.6651 11.4037 12.5377 12.5298C11.4104 13.6559 10.2887 14.8397 9.83721 15.4258L10.6295 16.036C11.035 15.5095 12.1103 14.3702 13.2444 13.2373C14.3786 12.1045 15.5193 11.0301 16.0468 10.6246L15.4374 9.83174ZM9.83752 15.4254C9.78585 15.4924 9.7002 15.6345 9.62134 15.7721C9.5346 15.9234 9.43203 16.1118 9.34182 16.2948C9.25617 16.4686 9.16553 16.6697 9.12038 16.8346C9.10837 16.8785 9.09627 16.9314 9.09 16.9882C9.08447 17.0382 9.07879 17.1289 9.10708 17.2309C9.13891 17.3457 9.22639 17.5072 9.41955 17.5873C9.5877 17.657 9.73833 17.6221 9.8087 17.5995L9.50299 16.6474C9.53533 16.637 9.65635 16.603 9.80247 16.6635C9.9736 16.7345 10.0466 16.8768 10.0707 16.9638C10.0913 17.0379 10.0846 17.0921 10.0839 17.098C10.0825 17.1108 10.0812 17.1122 10.0849 17.0986C10.1028 17.0333 10.1555 16.906 10.2388 16.7369C10.3176 16.5769 10.4098 16.4075 10.4889 16.2694C10.5284 16.2006 10.5635 16.1415 10.591 16.0969C10.6229 16.045 10.634 16.0301 10.6292 16.0364L9.83752 15.4254ZM9.8853 17.5677C12.272 16.3349 14.686 18.7786 13.4458 21.1802L14.3343 21.639C16.0018 18.41 12.7169 14.9796 9.42638 16.6792L9.8853 17.5677ZM13.8554 21.9084C14.1153 21.9265 14.3386 21.8579 14.5125 21.7829C14.6681 21.7158 14.8453 21.6128 14.935 21.5659L14.472 20.6796C14.308 20.7653 14.229 20.8162 14.1166 20.8646C14.0225 20.9052 13.966 20.9137 13.9247 20.9108L13.8554 21.9084ZM14.9351 21.5659C15.0967 21.4814 15.2967 21.3349 15.5049 21.1686C15.7212 20.9957 15.9741 20.7787 16.2488 20.5334C16.7987 20.0424 17.4493 19.4261 18.0925 18.7973C19.37 17.5485 20.6546 16.2148 21.0666 15.7009L20.2864 15.0754C19.9182 15.5346 18.6771 16.8274 17.3935 18.0823C16.7561 18.7053 16.1173 19.3102 15.5828 19.7875C15.3153 20.0263 15.0773 20.2302 14.8806 20.3874C14.6758 20.5511 14.5407 20.6437 14.472 20.6796L14.9351 21.5659ZM21.066 15.7016C21.1447 15.6038 21.4277 15.1667 21.6387 14.7843C21.743 14.5953 21.8538 14.3773 21.91 14.2002C21.925 14.1532 21.9404 14.096 21.9489 14.0343C21.9564 13.9808 21.9655 13.8791 21.9318 13.7651C21.8912 13.628 21.7841 13.4705 21.5859 13.4037C21.4246 13.3494 21.2839 13.3847 21.2182 13.4059L21.5257 14.3574C21.5062 14.3637 21.4013 14.3968 21.2665 14.3513C21.0947 14.2934 21.0046 14.1561 20.9729 14.0488C20.948 13.9646 20.9577 13.9025 20.9585 13.8967C20.9604 13.8829 20.962 13.8817 20.9569 13.8976C20.9333 13.972 20.8662 14.1145 20.7631 14.3012C20.6656 14.4779 20.5526 14.6647 20.4573 14.8157C20.4098 14.8909 20.3676 14.9557 20.3351 15.0043C20.2978 15.0601 20.2835 15.0789 20.2869 15.0748L21.066 15.7016ZM21.1436 13.4369C18.7504 14.6658 16.3373 12.2323 17.5819 9.82511L16.6936 9.36584C15.0149 12.6126 18.3163 16.0129 21.6004 14.3264L21.1436 13.4369ZM17.491 9.24159L17.4902 9.24082L16.7837 9.94858L16.7845 9.94935L17.491 9.24159ZM10.5201 17.2389C9.9866 17.338 9.60246 17.6783 9.33912 17.8921L9.96946 18.6684C10.2867 18.4108 10.4677 18.2658 10.7026 18.2221L10.5201 17.2389ZM9.33924 17.892C8.0472 18.9404 6.82244 20.2549 5.62795 21.5533C4.42342 22.8625 3.25024 24.1546 2.03059 25.2109L2.68524 25.9668C3.95722 24.8652 5.17283 23.5249 6.36388 22.2303C7.56497 20.9248 8.74258 19.664 9.96934 18.6685L9.33924 17.892ZM1.94565 25.3059C0.237246 27.7953 3.21569 30.7569 5.69872 29.0563L5.13364 28.2312C3.5571 29.311 1.69354 27.4406 2.77017 25.8717L1.94565 25.3059ZM5.77009 28.9969L13.297 21.455L12.5892 20.7486L5.06228 28.2905L5.77009 28.9969ZM13.3659 21.3687C14.0211 20.3305 13.9527 19.1755 13.373 18.3348C12.7937 17.4947 11.7356 17.0134 10.5202 17.2389L10.7026 18.2222C11.5433 18.0662 12.2018 18.3979 12.5497 18.9025C12.8972 19.4064 12.9665 20.1278 12.5203 20.835L13.3659 21.3687Z" fill="white"/>
</svg>
