<svg width="29" height="26" viewBox="0 0 29 26" fill="none" xmlns="http://www.w3.org/2000/svg">
<path d="M13.5448 2.10434C13.8522 1.48175 14.0058 1.17046 14.2144 1.071C14.3959 0.98447 14.6068 0.98447 14.7882 1.071C14.9968 1.17046 15.1505 1.48175 15.4578 2.10434L18.3734 8.01096C18.4641 8.19476 18.5095 8.28667 18.5758 8.35802C18.6345 8.4212 18.7049 8.47238 18.7831 8.50875C18.8714 8.54982 18.9728 8.56464 19.1756 8.59428L25.6973 9.54753C26.3841 9.64791 26.7274 9.6981 26.8863 9.86583C27.0246 10.0118 27.0896 10.2123 27.0633 10.4116C27.0331 10.6407 26.7845 10.8828 26.2873 11.3671L21.5699 15.9618C21.4228 16.105 21.3493 16.1767 21.3019 16.2619C21.2599 16.3373 21.2329 16.4202 21.2225 16.5059C21.2108 16.6027 21.2281 16.7039 21.2628 16.9062L22.3759 23.3961C22.4933 24.0806 22.552 24.4228 22.4417 24.6259C22.3457 24.8026 22.1751 24.9266 21.9774 24.9632C21.7501 25.0053 21.4428 24.8437 20.8281 24.5205L14.9978 21.4544C14.8161 21.3588 14.7253 21.3111 14.6296 21.2923C14.5449 21.2757 14.4578 21.2757 14.373 21.2923C14.2773 21.3111 14.1865 21.3588 14.0048 21.4544L8.17453 24.5205C7.55986 24.8437 7.25252 25.0053 7.02526 24.9632C6.82754 24.9266 6.65693 24.8026 6.56095 24.6259C6.45064 24.4228 6.50934 24.0806 6.62673 23.3961L7.73982 16.9062C7.77452 16.7039 7.79187 16.6027 7.78013 16.5059C7.76973 16.4202 7.74278 16.3373 7.70078 16.2619C7.65333 16.1767 7.5798 16.105 7.43275 15.9618L2.71538 11.3671C2.21819 10.8828 1.96959 10.6407 1.93934 10.4116C1.91302 10.2123 1.97804 10.0118 2.1163 9.86583C2.27522 9.6981 2.6186 9.64791 3.30536 9.54753L9.82705 8.59428C10.0299 8.56464 10.1313 8.54982 10.2196 8.50875C10.2978 8.47238 10.3682 8.4212 10.4269 8.35802C10.4932 8.28667 10.5385 8.19476 10.6293 8.01096L13.5448 2.10434Z" stroke="url(#paint0_linear_1332_1270)" stroke-width="2" stroke-linecap="round" stroke-linejoin="round"/>
<defs>
<linearGradient id="paint0_linear_1332_1270" x1="14.5013" y1="1.0061" x2="14.5013" y2="24.9698" gradientUnits="userSpaceOnUse">
<stop stop-color="#05A6A6"/>
<stop offset="1" stop-color="#0D5B6A"/>
</linearGradient>
</defs>
</svg>
