<svg width="322" height="322" viewBox="0 0 322 322" fill="none" xmlns="http://www.w3.org/2000/svg">
<path d="M300.593 242.46L160.809 322L20.3359 241.877V79.2315L157.948 0H163.637L301.214 80.0543L301.662 238.209L300.559 242.46H300.593ZM293.215 84.3056L160.775 8.60541L28.163 84.717L28.3354 236.769L160.775 312.469L293.387 236.357L293.215 84.3056Z" fill="url(#paint0_linear_1009_12443)"/>
<path d="M163.544 42.4357V87.1089L220.047 118.767L257.738 98.4637C258.009 96.4978 257.738 97.1757 256.619 96.7689C253.297 95.5487 243.536 94.0573 241.536 92.3626C237.977 89.3121 240.655 84.3973 244.959 84.838C248.45 85.1769 265.703 89.9561 269.33 91.3797C271.194 92.0914 273.126 93.1083 273.668 95.2098C274.007 96.4639 268.347 117.987 267.296 120.631C265.974 124.088 264.245 125.647 260.381 123.952C256.246 122.122 261.703 110.327 262.313 106.7C262.517 105.514 263.33 104.734 261.432 105.005L226.215 125.444L225.47 192.216L263.872 215.468C265.127 210.859 257.297 199.029 262.652 196.386C265.737 194.86 268.042 196.894 269.194 199.606C272.143 206.384 272.855 216.824 275.668 224.01C275.566 226.45 274.922 227.467 272.855 228.518C270.55 229.704 250.077 235.365 247.366 235.602C244.349 235.873 241.739 234.415 241.705 231.162C241.638 225.976 254.416 225.569 258.348 223.772C259.432 223.264 259.636 223.705 259.365 221.976L221.606 200.86L163.544 234.551V278.004C168.73 276.919 175.204 262.751 181.068 267.361C183.711 269.429 181.712 272.716 180.186 274.75C177.814 277.936 166.73 288.986 163.544 291.392C158.324 295.324 156.46 291.901 152.427 288.24C149.139 285.258 142.021 278.479 139.445 275.259C137.072 272.31 136.293 268.141 140.767 266.954C144.902 265.836 151.071 277.224 155.409 278.004V233.331L98.1611 200.86L59.5889 223.196C63.1818 224.823 76.1296 226.077 77.282 229.84C78.3327 233.263 76.8413 235.805 73.1807 235.602C70.0285 235.432 49.9967 229.975 46.9462 228.518C44.9803 227.569 44.2007 227.298 44.0651 224.823C43.9295 222.179 49.0815 203.402 50.3695 200.216C51.4881 197.402 53.1489 195.131 56.5384 196.148C62.6055 197.945 54.3691 211.469 55.8944 215.502L92.3651 194.318L93.7209 191.606L93.5514 127.545L55.9283 105.073C54.403 109.039 62.6394 122.698 56.5723 124.427C55.2843 124.8 53.115 124.529 51.9965 123.817C50.7424 123.003 43.794 97.2095 44.1329 94.9725C44.5735 92.0575 48.2681 91.6508 50.6407 90.8712C55.9283 89.1426 67.283 85.6176 72.3672 84.9058C75.9262 84.4312 77.926 86.3632 77.4514 89.99C76.8074 94.7691 63.2834 95.2098 59.555 97.3451L98.1272 119.648L155.375 87.1767V42.5034C151.071 43.3847 145.546 53.282 141.784 53.7565C136.733 54.4344 136.157 47.7232 139.513 44.91C143.546 42.4357 155.375 27.1152 159.036 27.1152C160.595 27.1152 161.578 28.2338 162.697 29.0811C164.798 30.6742 181.678 47.4521 182.051 48.774C182.491 50.4348 181.746 52.2651 180.559 53.4853C174.695 56.9765 168.696 43.6898 163.51 42.5034L163.544 42.4357ZM212.285 123.647L159.917 94.4641L107.516 124.054L160.053 155.136L210.929 125.952L212.285 123.647ZM155.409 223.535V163.033C148.224 158.22 140.665 153.848 133.208 149.509C123.175 143.645 113.007 137.815 102.601 132.596V193.098L155.375 223.569L155.409 223.535ZM217.132 132.562C208.624 136.697 200.422 141.544 192.219 146.221C182.83 151.611 173.374 157.034 164.324 162.999V223.501L217.098 193.03V132.528L217.132 132.562Z" fill="url(#paint1_linear_1009_12443)"/>
<defs>
<linearGradient id="paint0_linear_1009_12443" x1="160.999" y1="0" x2="160.999" y2="322" gradientUnits="userSpaceOnUse">
<stop stop-color="#0BE6E6"/>
<stop offset="1" stop-color="#0B9292" stop-opacity="0.45"/>
</linearGradient>
<linearGradient id="paint1_linear_1009_12443" x1="159.865" y1="27.1152" x2="159.865" y2="293.141" gradientUnits="userSpaceOnUse">
<stop stop-color="#0BE6E6"/>
<stop offset="1" stop-color="#0B9292" stop-opacity="0.45"/>
</linearGradient>
</defs>
</svg>
