<svg width="26" height="26" viewBox="0 0 26 26" fill="none" xmlns="http://www.w3.org/2000/svg">
<path d="M18.3333 25H18.6C20.8402 25 21.9603 25 22.816 24.564C23.5686 24.1805 24.1805 23.5686 24.564 22.816C25 21.9603 25 20.8402 25 18.6V7.4C25 5.15979 25 4.03969 24.564 3.18404C24.1805 2.43139 23.5686 1.81947 22.816 1.43597C21.9603 1 20.8402 1 18.6 1H7.4C5.15979 1 4.03969 1 3.18404 1.43597C2.43139 1.81947 1.81947 2.43139 1.43597 3.18404C1 4.03969 1 5.15979 1 7.4V7.66667M12.3333 13.6667L19.6667 6.33333M19.6667 6.33333H13M19.6667 6.33333V13M5.26667 25H8.73333C10.2268 25 10.9735 25 11.544 24.7094C12.0457 24.4537 12.4537 24.0457 12.7094 23.544C13 22.9735 13 22.2268 13 20.7333V17.2667C13 15.7732 13 15.0265 12.7094 14.456C12.4537 13.9543 12.0457 13.5463 11.544 13.2906C10.9735 13 10.2268 13 8.73333 13H5.26667C3.77319 13 3.02646 13 2.45603 13.2906C1.95426 13.5463 1.54631 13.9543 1.29065 14.456C1 15.0265 1 15.7732 1 17.2667V20.7333C1 22.2268 1 22.9735 1.29065 23.544C1.54631 24.0457 1.95426 24.4537 2.45603 24.7094C3.02646 25 3.77319 25 5.26667 25Z" stroke="white" stroke-width="2" stroke-linecap="round" stroke-linejoin="round"/>
</svg>
