<svg width="30" height="30" viewBox="0 0 30 30" fill="none" xmlns="http://www.w3.org/2000/svg">
<path d="M4.33464 23.0013V22.7346C4.33464 20.4944 4.33464 19.3743 4.77061 18.5187C5.1541 17.766 5.76602 17.1541 6.51867 16.7706C7.37432 16.3346 8.49443 16.3346 10.7346 16.3346H19.268C21.5082 16.3346 22.6283 16.3346 23.4839 16.7706C24.2366 17.1541 24.8485 17.766 25.232 18.5187C25.668 19.3743 25.668 20.4944 25.668 22.7346V23.0013M4.33464 23.0013C2.86188 23.0013 1.66797 24.1952 1.66797 25.668C1.66797 27.1407 2.86188 28.3346 4.33464 28.3346C5.80739 28.3346 7.0013 27.1407 7.0013 25.668C7.0013 24.1952 5.80739 23.0013 4.33464 23.0013ZM25.668 23.0013C24.1952 23.0013 23.0013 24.1952 23.0013 25.668C23.0013 27.1407 24.1952 28.3346 25.668 28.3346C27.1407 28.3346 28.3346 27.1407 28.3346 25.668C28.3346 24.1952 27.1407 23.0013 25.668 23.0013ZM15.0013 23.0013C13.5285 23.0013 12.3346 24.1952 12.3346 25.668C12.3346 27.1407 13.5285 28.3346 15.0013 28.3346C16.4741 28.3346 17.668 27.1407 17.668 25.668C17.668 24.1952 16.4741 23.0013 15.0013 23.0013ZM15.0013 23.0013V9.66797M7.0013 9.66797H23.0013C24.2438 9.66797 24.8651 9.66797 25.3551 9.46498C26.0085 9.19433 26.5277 8.6752 26.7983 8.02179C27.0013 7.53173 27.0013 6.91048 27.0013 5.66797C27.0013 4.42546 27.0013 3.8042 26.7983 3.31415C26.5277 2.66074 26.0085 2.14161 25.3551 1.87096C24.8651 1.66797 24.2438 1.66797 23.0013 1.66797H7.0013C5.75879 1.66797 5.13754 1.66797 4.64748 1.87096C3.99407 2.14161 3.47494 2.66074 3.20429 3.31415C3.0013 3.8042 3.0013 4.42546 3.0013 5.66797C3.0013 6.91048 3.0013 7.53173 3.20429 8.02179C3.47494 8.6752 3.99407 9.19433 4.64748 9.46498C5.13754 9.66797 5.75879 9.66797 7.0013 9.66797Z" stroke="url(#paint0_linear_627_1398)" stroke-width="2" stroke-linecap="round" stroke-linejoin="round"/>
<defs>
<linearGradient id="paint0_linear_627_1398" x1="15.0013" y1="1.66797" x2="15.0013" y2="28.3346" gradientUnits="userSpaceOnUse">
<stop stop-color="#05A6A6"/>
<stop offset="1" stop-color="#0D5B6A"/>
</linearGradient>
</defs>
</svg>
