<svg width="64" height="58" viewBox="0 0 64 58" fill="none" xmlns="http://www.w3.org/2000/svg">
<path d="M8 44L8 43.4C8 38.3595 8 35.8393 8.98094 33.9141C9.8438 32.2206 11.2206 30.8438 12.9141 29.9809C14.8393 29 17.3595 29 22.4 29L41.6 29C46.6405 29 49.1607 29 51.0859 29.9809C52.7794 30.8438 54.1562 32.2206 55.0191 33.9141C56 35.8393 56 38.3595 56 43.4L56 44M8 44C4.68629 44 2 46.6863 2 50C2 53.3137 4.68629 56 8 56C11.3137 56 14 53.3137 14 50C14 46.6863 11.3137 44 8 44ZM56 44C52.6863 44 50 46.6863 50 50C50 53.3137 52.6863 56 56 56C59.3137 56 62 53.3137 62 50C62 46.6863 59.3137 44 56 44ZM32 14L32 44M32 14C28.6863 14 26 11.3137 26 8C26 4.68629 28.6863 2 32 2C35.3137 2 38 4.68629 38 8C38 11.3137 35.3137 14 32 14ZM32 44C28.6863 44 26 46.6863 26 50C26 53.3137 28.6863 56 32 56C35.3137 56 38 53.3137 38 50C38 46.6863 35.3137 44 32 44Z" stroke="#F7C948" stroke-width="3" stroke-linecap="round" stroke-linejoin="round"/>
</svg>
