<svg width="28" height="26" viewBox="0 0 28 26" fill="none" xmlns="http://www.w3.org/2000/svg">
<path d="M13.0448 2.10458C13.3522 1.482 13.5058 1.17071 13.7144 1.07125C13.8959 0.984714 14.1068 0.984714 14.2882 1.07125C14.4968 1.17071 14.6505 1.482 14.9578 2.10458L17.8734 8.01121C17.9641 8.19501 18.0095 8.28691 18.0758 8.35826C18.1345 8.42144 18.2049 8.47263 18.2831 8.50899C18.3714 8.55006 18.4728 8.56488 18.6756 8.59453L25.1973 9.54777C25.8841 9.64815 26.2274 9.69834 26.3863 9.86608C26.5246 10.012 26.5896 10.2126 26.5633 10.4119C26.5331 10.6409 26.2845 10.8831 25.7873 11.3673L21.0699 15.9621C20.9228 16.1053 20.8493 16.1769 20.8019 16.2621C20.7599 16.3376 20.7329 16.4204 20.7225 16.5062C20.7108 16.603 20.7281 16.7042 20.7628 16.9065L21.8759 23.3963C21.9933 24.0808 22.052 24.4231 21.9417 24.6262C21.8457 24.8029 21.6751 24.9268 21.4774 24.9635C21.2501 25.0056 20.9428 24.844 20.3281 24.5207L14.4978 21.4546C14.3161 21.3591 14.2253 21.3113 14.1296 21.2925C14.0449 21.2759 13.9578 21.2759 13.873 21.2925C13.7773 21.3113 13.6865 21.3591 13.5048 21.4546L7.67453 24.5207C7.05986 24.844 6.75252 25.0056 6.52526 24.9635C6.32754 24.9268 6.15693 24.8029 6.06095 24.6262C5.95064 24.4231 6.00934 24.0808 6.12673 23.3963L7.23982 16.9065C7.27452 16.7042 7.29187 16.603 7.28013 16.5062C7.26973 16.4204 7.24278 16.3376 7.20078 16.2621C7.15333 16.1769 7.0798 16.1053 6.93275 15.9621L2.21538 11.3673C1.71819 10.8831 1.46959 10.6409 1.43934 10.4119C1.41302 10.2126 1.47804 10.012 1.6163 9.86608C1.77522 9.69834 2.1186 9.64815 2.80536 9.54777L9.32705 8.59453C9.52987 8.56488 9.63128 8.55006 9.71959 8.50899C9.79779 8.47263 9.86818 8.42144 9.92688 8.35826C9.99318 8.28691 10.0385 8.19501 10.1293 8.01121L13.0448 2.10458Z" stroke="white" stroke-width="2" stroke-linecap="round" stroke-linejoin="round"/>
</svg>
