<svg width="435" height="456" viewBox="0 0 435 456" fill="none" xmlns="http://www.w3.org/2000/svg">
<path d="M196.755 102.101C202.724 102.101 207.597 106.973 207.598 112.942V140.768C223.979 144.33 239.329 150.786 253.035 159.514L272.753 139.799L272.754 139.8C276.951 135.533 283.842 135.534 288.039 139.799H288.04L315.99 167.746L316.371 168.147C320.182 172.37 320.054 178.96 315.994 183.026L315.995 183.027L296.344 202.737C305.075 216.395 311.532 231.74 315.146 248.111H343.059C349.028 248.111 353.901 252.984 353.901 258.954V298.406C353.901 304.478 348.996 309.248 343.059 309.248H315.146C311.531 325.62 305.076 340.912 296.404 354.604L316.198 374.397L316.242 374.442C320.251 378.565 320.375 385.031 316.619 389.301L316.243 389.707L316.202 389.749L288.321 417.696C288.305 417.713 288.289 417.729 288.272 417.745C284.174 421.729 277.609 421.913 273.365 418.084L272.962 417.7L253.102 397.842C239.473 406.508 224.241 412.958 207.873 416.521V444.765C207.873 450.767 203.038 455.537 197.031 455.537H157.58C151.574 455.537 146.737 450.767 146.737 444.765V416.518C130.436 412.963 115.208 406.566 101.572 397.849L81.5811 417.84C77.3548 422.065 70.535 422.142 66.2998 417.842L66.2988 417.844L38.3486 389.965V389.964C34.0391 385.729 34.1182 378.835 38.3438 374.606L38.3447 374.605L58.2734 354.678C49.6096 341.056 43.1589 325.841 39.543 309.596H11.2793C5.27241 309.596 0.367272 304.756 0.367188 298.754V259.236C0.367519 253.235 5.27256 248.395 11.2793 248.395H39.3896C42.9435 232.091 49.3353 216.812 57.998 203.172L38.0684 183.244C33.8711 179.047 33.8726 172.156 38.0674 167.959L38.0684 167.958L66.0186 140.01L66.4258 139.623C70.5708 135.873 76.8203 135.875 80.9658 139.622L81.373 140.009L81.375 140.01L101.147 159.781C114.796 150.999 130.081 144.54 146.392 140.924V112.942C146.392 106.973 151.265 102.101 157.234 102.101H196.755ZM157.234 111.101C156.235 111.101 155.392 111.944 155.392 112.942V144.585C155.391 146.74 153.863 148.592 151.748 149.002C134.026 152.439 117.52 159.446 103.103 169.281C101.316 170.5 98.9143 170.275 97.3848 168.746L75.0117 146.375V146.376C74.3047 145.67 73.2723 145.626 72.5273 146.242L72.3828 146.374L44.4326 174.322C43.7497 175.007 43.7519 176.199 44.4326 176.88L66.9463 199.392C68.4683 200.913 68.6995 203.3 67.498 205.086C58.0967 219.056 51.2894 234.986 47.8105 252.077L47.4844 253.735C47.0807 255.858 45.2245 257.394 43.0635 257.395H11.2793C10.1785 257.395 9.36753 258.27 9.36719 259.236V298.754C9.36727 299.721 10.1783 300.596 11.2793 300.596H43.2002L43.4014 300.601C45.4683 300.692 47.2185 302.188 47.6172 304.236C51.052 321.883 58.0598 338.33 67.7734 352.764C68.9752 354.549 68.7446 356.936 67.2227 358.458L44.708 380.97C43.9793 381.7 43.9932 382.763 44.5459 383.426L44.6631 383.553L44.7041 383.593L72.6543 411.472L72.7021 411.52L72.8291 411.638C73.4877 412.192 74.4904 412.203 75.2178 411.476L97.8008 388.894L97.9463 388.755C99.4754 387.355 101.776 387.178 103.507 388.351C117.926 398.12 134.362 405.056 152.077 408.424C154.2 408.827 155.737 410.684 155.737 412.845V444.765C155.737 445.731 156.479 446.537 157.58 446.537H197.031C198.133 446.537 198.873 445.731 198.873 444.765V412.845C198.873 410.683 200.412 408.826 202.536 408.424C220.312 405.058 236.753 398.055 251.187 388.343L251.355 388.234C253.12 387.157 255.406 387.419 256.881 388.894L279.325 411.336L279.455 411.453C280.135 411.999 281.261 412.009 281.999 411.292L309.797 383.426C310.532 382.661 310.528 381.475 309.79 380.717H309.789L287.461 358.391C285.942 356.871 285.709 354.489 286.904 352.704C296.619 338.201 303.628 321.683 307.064 303.896L307.107 303.698C307.59 301.684 309.395 300.248 311.483 300.248H343.059C344.091 300.248 344.901 299.442 344.901 298.406V258.954C344.901 257.956 344.058 257.111 343.059 257.111H311.483C309.327 257.111 307.473 255.582 307.064 253.465C303.628 235.673 296.618 219.094 286.849 204.677C285.64 202.893 285.865 200.501 287.387 198.975L309.621 176.673L309.625 176.669L309.745 176.535C310.269 175.884 310.268 174.893 309.746 174.244L309.626 174.11L281.676 146.163C281.661 146.149 281.647 146.134 281.633 146.119C281 145.469 279.971 145.429 279.292 145.996L279.161 146.118C279.147 146.133 279.132 146.148 279.117 146.163L256.812 168.465C255.289 169.987 252.901 170.218 251.115 169.014C236.621 159.239 220.041 152.232 202.26 148.865C200.136 148.463 198.598 146.606 198.598 144.444V112.942C198.597 111.944 197.755 111.101 196.755 111.101H157.234ZM188.737 172.772C193.242 172.773 196.932 176.457 196.932 180.967V195.942C205.784 198.048 214.104 201.521 221.645 206.11L232.264 195.549L232.265 195.55C235.479 192.272 240.69 192.408 243.84 195.551L260.358 211.998L260.442 212.083C263.397 215.185 263.489 220.069 260.719 223.282L260.442 223.588C260.415 223.617 260.386 223.646 260.357 223.675L249.766 234.208C254.4 241.74 257.88 250.014 260.029 258.847H275.029C279.497 258.847 283.075 262.439 283.216 266.841C283.221 266.931 283.226 267.023 283.226 267.114V290.392C283.225 294.911 279.593 298.655 275.03 298.655H260.027C257.881 307.439 254.41 315.738 249.821 323.234L260.445 333.915H260.444C263.557 337.036 263.653 342.026 260.729 345.261L260.437 345.568L243.987 362.016C240.867 365.135 235.871 365.233 232.634 362.309L232.326 362.016L221.657 351.348C214.181 355.971 205.927 359.44 197.141 361.503V376.674C197.14 381.248 193.454 384.937 188.876 384.938H165.597C161.023 384.938 157.332 381.253 157.332 376.674V361.503C148.546 359.44 140.296 355.979 132.826 351.404L122.076 362.154C118.956 365.274 113.96 365.372 110.723 362.447L110.415 362.154L93.9658 345.707C90.7447 342.486 90.7449 337.267 93.9658 334.046L104.715 323.296C100.133 315.818 96.6642 307.568 94.5166 298.794H79.3047C74.7856 298.794 71.0403 295.163 71.04 290.6V267.251C71.04 262.691 74.781 259.057 79.3047 259.057H94.4268C96.5297 250.27 99.9872 241.98 104.52 234.498L93.8252 223.805C90.6042 220.584 90.6042 215.364 93.8252 212.144L110.344 195.627L110.651 195.334C113.78 192.503 118.499 192.503 121.628 195.334L121.936 195.627L132.602 206.292C140.08 201.655 148.348 198.134 157.191 196.016V180.967C157.191 176.462 160.877 172.773 165.386 172.772H188.737ZM166.191 199.646L166.187 199.847C166.095 201.917 164.593 203.67 162.541 204.064C152.295 206.036 142.828 210.108 134.534 215.769C132.747 216.988 130.346 216.763 128.816 215.233L116.14 202.559L100.722 217.974L113.434 230.684L113.571 230.828C114.918 232.299 115.135 234.486 114.103 236.192L113.996 236.361C108.465 244.659 104.446 254.21 102.472 264.411C102.062 266.527 100.209 268.057 98.0537 268.057H80.04V289.794H98.123L98.3232 289.799C100.382 289.889 102.128 291.374 102.536 293.411C104.58 303.626 108.598 313.108 114.191 321.398C115.396 323.184 115.167 325.574 113.644 327.098L100.863 339.876L116.246 355.257L129.026 342.479L129.172 342.339C130.698 340.942 132.994 340.763 134.724 341.93C143.018 347.523 152.484 351.529 162.659 353.433C164.788 353.831 166.332 355.69 166.332 357.856V375.938H188.141V357.856C188.141 355.69 189.683 353.831 191.812 353.433C201.988 351.529 211.446 347.525 219.728 341.874L219.896 341.764C221.663 340.669 223.964 340.926 225.446 342.408L238.157 355.118L253.54 339.736L240.892 327.02C239.375 325.495 239.149 323.111 240.352 321.329L240.871 320.549C246.192 312.446 250.027 303.174 252.007 293.273L252.051 293.077C252.544 291.076 254.342 289.655 256.42 289.655H274.226V267.847H256.418C254.271 267.847 252.424 266.329 252.005 264.224C249.961 253.944 245.944 244.466 240.285 236.109C239.073 234.319 239.304 231.92 240.837 230.396L253.465 217.835L238.051 202.485L225.438 215.032C223.918 216.544 221.543 216.773 219.762 215.581C211.399 209.984 201.851 205.969 191.582 203.995C189.463 203.588 187.932 201.734 187.932 199.576V181.772H166.191V199.646ZM177.17 220.239C209.495 220.239 235.619 246.445 235.619 278.753C235.619 305.727 217.42 328.41 192.594 335.173C192.328 335.296 192.047 335.396 191.751 335.468L190.848 335.68C152.642 344.355 118.652 315.542 118.651 278.753C118.651 246.438 144.853 220.239 177.17 220.239ZM177.17 229.239C149.823 229.239 127.651 251.409 127.651 278.753C127.652 309.886 156.409 334.307 188.92 326.888C189.127 326.799 189.344 326.725 189.569 326.667L190.565 326.399C211.391 320.567 226.619 301.455 226.619 278.753C226.619 251.401 204.51 229.239 177.17 229.239ZM368.608 42.1523C401.367 42.1525 427.751 69.0682 427.751 102.097C427.751 119.933 420.066 134.451 408.396 146.358L407.254 147.503C407.185 147.57 407.114 147.634 407.041 147.697L407.042 147.698C407.043 147.698 407.044 147.696 407.045 147.695C407.047 147.694 407.049 147.692 407.051 147.69C407.054 147.687 407.058 147.684 407.061 147.682C407.066 147.677 407.071 147.673 407.072 147.672C407.071 147.673 407.066 147.677 407.06 147.684C407.036 147.705 406.984 147.754 406.907 147.83C406.754 147.983 406.501 148.248 406.18 148.626C405.537 149.382 404.621 150.591 403.673 152.278C401.989 155.275 400.168 159.84 399.609 166.172C400.097 166.773 400.391 167.539 400.391 168.374V191.231C400.391 191.249 400.393 191.267 400.393 191.284V197.103C400.392 200.809 397.408 203.959 393.58 203.959H390.804C391.354 204.828 391.446 205.955 390.942 206.937C387.139 214.339 379.418 219.439 370.463 219.439C361.794 219.439 354.233 214.659 350.307 207.625L349.938 206.937L349.871 206.798C349.443 205.85 349.552 204.787 350.077 203.959H343.591C339.762 203.959 336.779 200.809 336.778 197.103V168.374L336.783 168.194C336.819 167.482 337.069 166.826 337.469 166.288C337.595 161.098 335.848 156.499 333.927 153.062L333.5 152.322C333.497 152.317 333.494 152.309 333.49 152.304C332.308 150.292 330.706 148.412 328.834 146.567L328.015 145.778L327.992 145.756C316.575 134.823 309.419 119.298 309.419 102.097C309.419 69.0631 335.854 42.1524 368.608 42.1523ZM355.2 204.059L355.274 204.194L355.547 204.702C358.451 209.904 364.047 213.439 370.463 213.439C377.079 213.439 382.787 209.679 385.605 204.194C385.647 204.113 385.693 204.035 385.741 203.959H355.136C355.157 203.992 355.18 204.024 355.2 204.059ZM343.778 196.959H393.393V191.339C393.392 191.322 393.391 191.304 393.391 191.286V187.623H343.778V196.959ZM344.67 171.874C344.396 172.095 344.097 172.283 343.778 172.436V182.623H393.391V172.585C392.935 172.414 392.514 172.173 392.144 171.874H344.67ZM368.608 51.1523C340.943 51.1524 318.419 73.9149 318.419 102.097C318.419 116.747 324.501 129.94 334.193 139.233L335.14 140.146C337.347 142.319 339.534 144.825 341.25 147.745H341.249C343.637 151.772 346.262 157.747 346.463 164.874H390.691C391.422 157.432 393.614 151.808 395.827 147.869C397.088 145.625 398.346 143.945 399.324 142.795C399.813 142.22 400.233 141.777 400.549 141.461C400.707 141.303 400.84 141.177 400.942 141.082C400.962 141.063 400.981 141.046 400.999 141.029C412.018 130.158 418.751 117.487 418.751 102.097C418.751 73.91 396.269 51.1525 368.608 51.1523ZM302.766 23.3037C304.031 22.3166 305.839 22.5027 306.878 23.7021L306.976 23.8223L318.924 39.126C319.943 40.4318 319.711 42.3173 318.405 43.3369C317.099 44.3561 315.214 44.1241 314.194 42.8184L302.247 27.5137L302.154 27.3896C301.243 26.0908 301.501 24.2913 302.766 23.3037ZM428.731 22.7451C429.728 21.4214 431.609 21.1555 432.933 22.1514C434.256 23.1475 434.522 25.0287 433.526 26.3525L421.845 41.8818C420.849 43.2056 418.968 43.4711 417.644 42.4756C416.32 41.4796 416.054 39.5984 417.05 38.2744L428.731 22.7451ZM333.799 6.45312C335.317 5.93137 336.966 6.69705 337.558 8.16992L337.611 8.31445L343.922 26.6621L343.968 26.8096C344.407 28.3344 343.578 29.9524 342.061 30.4746C340.543 30.9963 338.893 30.2311 338.302 28.7588L338.248 28.6133L331.938 10.2656L331.891 10.1182C331.451 8.59331 332.281 6.97521 333.799 6.45312ZM397.895 7.63672C398.46 6.15418 400.096 5.35956 401.622 5.85449C403.149 6.35003 404.007 7.95393 403.594 9.48633L403.55 9.63379L397.553 28.1162L397.501 28.2617C396.935 29.7443 395.3 30.5389 393.773 30.0439C392.198 29.5324 391.334 27.8395 391.846 26.2637L397.843 7.78223L397.895 7.63672ZM368.608 0.652344C370.265 0.652553 371.608 1.99562 371.608 3.65234V23.0283L371.604 23.1826C371.524 24.7677 370.213 26.0281 368.608 26.0283C367.003 26.0282 365.693 24.7678 365.612 23.1826L365.608 23.0283V3.65234C365.608 1.99556 366.952 0.652459 368.608 0.652344Z" fill="url(#paint0_linear_979_479)"/>
<defs>
<linearGradient id="paint0_linear_979_479" x1="217.248" y1="0.652344" x2="217.248" y2="455.537" gradientUnits="userSpaceOnUse">
<stop stop-color="#0BE6E6"/>
<stop offset="1" stop-color="#0B9292" stop-opacity="0.45"/>
</linearGradient>
</defs>
</svg>
