<svg width="324" height="159" viewBox="0 0 324 159" fill="none" xmlns="http://www.w3.org/2000/svg">
<g clip-path="url(#clip0_862_2328)">
<path d="M234.523 79.5072C234.523 119.603 202.049 152.108 161.992 152.108C121.935 152.108 89.4609 119.603 89.4609 79.5072C89.4609 39.4115 121.935 6.90625 161.992 6.90625C202.049 6.90625 234.523 39.4115 234.523 79.5072ZM224.463 79.5072C224.463 44.9699 196.496 16.9756 161.992 16.9756C127.488 16.9756 99.5205 44.9699 99.5205 79.5072C99.5205 114.044 127.488 142.039 161.992 142.039C196.496 142.039 224.463 114.044 224.463 79.5072Z" fill="url(#paint0_linear_862_2328)"/>
<path d="M53.0191 0.0436294C57.9443 -0.452155 64.8367 3.33954 66.0924 8.25549C66.6366 10.3783 65.7436 14.561 67.5644 15.1615L104.398 15.3012C109.721 16.0903 109.735 24.1904 104.398 24.9864L60.5115 25.0144C54.512 22.7449 57.5187 15.9227 56.3537 11.0277L53.5702 10.3713L11.0018 40.4465L10.0182 42.7439L12.3691 45.2717L53.6749 74.516C59.3953 75.9265 53.8632 62.8755 59.2349 60.1033C61.8579 58.7486 77.2054 58.7975 80.0656 59.9008C85.221 61.9049 83.9374 68.8389 78.5797 69.6838C76.0683 70.0818 68.4155 69.0763 67.0621 70.026C66.1343 75.8008 65.5204 80.8983 59.4302 83.3353C54.4074 85.3394 51.1495 84.7249 46.6499 82.1692C32.3767 74.0621 18.3128 60.1731 3.97684 51.5633C-1.95985 44.8597 -1.08784 37.8978 5.38603 32.0461C14.2318 24.0438 33.1441 11.2721 43.5804 4.63836C46.5104 2.77393 49.3846 0.413722 53.0052 0.0575951L53.0191 0.0436294Z" fill="url(#paint1_linear_862_2328)"/>
<path d="M257.561 89.2741C256.459 76.9144 267.09 70.9162 277.736 77.11C291.946 85.3847 305.738 98.7289 319.99 107.437C325.878 114.182 325.181 121.116 318.581 126.961C310.468 134.153 286.393 151.61 277.038 156.603C272.253 159.152 268.932 160.046 263.798 157.399C258.028 154.431 257.875 149.753 256.905 144.041L218.99 143.587C214.413 142.532 213.695 134.586 220.901 133.93C234.54 132.687 250.187 134.802 264.042 134.104C269.323 136.988 266.469 143.161 267.634 147.965L270.418 148.622L312.212 119.189C313.056 118.602 314.158 117.303 313.956 116.256C313.433 113.533 275.448 89.0297 270.837 84.6584C264.425 82.5775 269.846 95.6634 265.193 98.6591C262.8 100.202 246.511 100.3 243.79 99.2177C238.342 97.0461 241.286 89.2741 244.655 89.2741H257.561Z" fill="url(#paint2_linear_862_2328)"/>
<path d="M167.664 39.6008C177.8 41.6677 187.225 50.7594 185.739 61.7295C185.25 65.3536 181.246 67.4555 178.051 65.1581C175.295 63.182 176.335 60.1724 175.414 57.3303C171.173 44.3073 146.937 47.9244 149.728 62.763C151.835 73.9775 177.221 75.5696 183.744 88.7951C190.482 102.468 181.895 116.468 167.67 119.394C167.44 124.659 169.066 130.643 161.622 129.813C156.516 129.247 158.085 123.109 157.716 119.394C151.444 117.69 146.379 115.204 142.87 109.464C140.345 105.331 136.655 95.0169 143.135 93.0477C149.267 91.1833 148.96 97.6913 149.909 101.015C153.921 115.086 178.818 110.98 175.784 96.0573C173.3 83.8513 145.738 84.1515 140.561 67.0714C136.62 54.0554 144.768 42.1775 157.709 39.5868C155.392 25.2091 170.14 25.1393 167.67 39.5868L167.664 39.6008Z" fill="url(#paint3_linear_862_2328)"/>
</g>
<defs>
<linearGradient id="paint0_linear_862_2328" x1="161.992" y1="6.90625" x2="161.992" y2="152.108" gradientUnits="userSpaceOnUse">
<stop stop-color="#0BE6E6"/>
<stop offset="1" stop-color="#0B9292" stop-opacity="0.45"/>
</linearGradient>
<linearGradient id="paint1_linear_862_2328" x1="54.192" y1="0" x2="54.192" y2="84.5268" gradientUnits="userSpaceOnUse">
<stop stop-color="#0BE6E6"/>
<stop offset="1" stop-color="#0B9292" stop-opacity="0.45"/>
</linearGradient>
<linearGradient id="paint2_linear_862_2328" x1="269.759" y1="74.6445" x2="269.759" y2="159" gradientUnits="userSpaceOnUse">
<stop stop-color="#0BE6E6"/>
<stop offset="1" stop-color="#0B9292" stop-opacity="0.45"/>
</linearGradient>
<linearGradient id="paint3_linear_862_2328" x1="162.797" y1="28.7773" x2="162.797" y2="129.89" gradientUnits="userSpaceOnUse">
<stop stop-color="#0BE6E6"/>
<stop offset="1" stop-color="#0B9292" stop-opacity="0.45"/>
</linearGradient>
<clipPath id="clip0_862_2328">
<rect width="324" height="159" fill="white"/>
</clipPath>
</defs>
</svg>
