<svg width="24" height="27" viewBox="0 0 24 27" fill="none" xmlns="http://www.w3.org/2000/svg">
<path fill-rule="evenodd" clip-rule="evenodd" d="M21.243 9.61676C20.8248 9.61676 20.486 9.97726 20.486 10.4223V20.2137C20.486 22.5158 18.7518 24.3889 16.6214 24.3889C14.4901 24.3889 12.7568 22.5158 12.7568 20.2137V6.79259C12.7568 3.59834 10.344 1 7.3784 1C4.41279 1 2 3.59842 2 6.79259V16.9787C2 17.4237 2.33879 17.7842 2.75701 17.7842C3.17523 17.7842 3.51402 17.4237 3.51402 16.9787V6.79259C3.51402 4.48728 5.24722 2.61082 7.37861 2.61082C9.51 2.61082 11.2432 4.48717 11.2432 6.79259V20.2137C11.2432 23.4036 13.656 26 16.6216 26C19.5872 26 22 23.4048 22 20.2137V10.4223C22 9.97726 21.6612 9.61676 21.243 9.61676ZM1 21H4V23H1V21ZM23 3H20V6H23V3Z" fill="white"/>
<path d="M4 21H4.5V20.5H4V21ZM1 21V20.5H0.5V21H1ZM4 23V23.5H4.5V23H4ZM1 23H0.5V23.5H1V23ZM20 3V2.5H19.5V3H20ZM23 3H23.5V2.5H23V3ZM20 6H19.5V6.5H20V6ZM23 6V6.5H23.5V6H23ZM20.986 10.4223C20.986 10.2237 21.1297 10.1168 21.243 10.1168V9.11676C20.5198 9.11676 19.986 9.73082 19.986 10.4223H20.986ZM20.986 20.2137V10.4223H19.986V20.2137H20.986ZM16.6214 24.8889C19.0636 24.8889 20.986 22.7549 20.986 20.2137H19.986C19.986 22.2767 18.44 23.8889 16.6214 23.8889V24.8889ZM12.2568 20.2137C12.2568 22.7548 14.1782 24.8889 16.6214 24.8889V23.8889C14.802 23.8889 13.2568 22.2768 13.2568 20.2137H12.2568ZM12.2568 6.79259V20.2137H13.2568V6.79259H12.2568ZM7.3784 1.5C10.0336 1.5 12.2568 3.83892 12.2568 6.79259H13.2568C13.2568 3.35776 10.6544 0.5 7.3784 0.5V1.5ZM2.5 6.79259C2.5 3.839 4.72321 1.5 7.3784 1.5V0.5C4.10237 0.5 1.5 3.35785 1.5 6.79259H2.5ZM2.5 16.9787V6.79259H1.5V16.9787H2.5ZM2.75701 17.2842C2.64374 17.2842 2.5 17.1772 2.5 16.9787H1.5C1.5 17.6701 2.03385 18.2842 2.75701 18.2842V17.2842ZM3.01402 16.9787C3.01402 17.1772 2.87029 17.2842 2.75701 17.2842V18.2842C3.48017 18.2842 4.01402 17.6701 4.01402 16.9787H3.01402ZM3.01402 6.79259V16.9787H4.01402V6.79259H3.01402ZM7.37861 2.11082C4.9346 2.11082 3.01402 4.24908 3.01402 6.79259H4.01402C4.01402 4.72547 5.55984 3.11082 7.37861 3.11082V2.11082ZM11.7432 6.79259C11.7432 4.24897 9.82261 2.11082 7.37861 2.11082V3.11082C9.19738 3.11082 10.7432 4.72537 10.7432 6.79259H11.7432ZM11.7432 20.2137V6.79259H10.7432V20.2137H11.7432ZM16.6216 25.5C13.966 25.5 11.7432 23.1625 11.7432 20.2137H10.7432C10.7432 23.6446 13.346 26.5 16.6216 26.5V25.5ZM21.5 20.2137C21.5 23.1637 19.2773 25.5 16.6216 25.5V26.5C19.8971 26.5 22.5 23.6459 22.5 20.2137H21.5ZM21.5 10.4223V20.2137H22.5V10.4223H21.5ZM21.243 10.1168C21.3563 10.1168 21.5 10.2237 21.5 10.4223H22.5C22.5 9.73082 21.9661 9.11676 21.243 9.11676V10.1168ZM4 20.5H1V21.5H4V20.5ZM4.5 23V21H3.5V23H4.5ZM1 23.5H4V22.5H1V23.5ZM0.5 21V23H1.5V21H0.5ZM20 3.5H23V2.5H20V3.5ZM20.5 6V3H19.5V6H20.5ZM23 5.5H20V6.5H23V5.5ZM22.5 3V6H23.5V3H22.5Z" fill="white"/>
</svg>
