<svg width="26" height="27" viewBox="0 0 26 27" fill="none" xmlns="http://www.w3.org/2000/svg">
<path d="M18.3333 25.3828H18.6C20.8402 25.3828 21.9603 25.3828 22.816 24.9468C23.5686 24.5633 24.1805 23.9514 24.564 23.1988C25 22.3431 25 21.223 25 18.9828V7.78281C25 5.5426 25 4.4225 24.564 3.56685C24.1805 2.8142 23.5686 2.20228 22.816 1.81879C21.9603 1.38281 20.8402 1.38281 18.6 1.38281H7.4C5.15979 1.38281 4.03969 1.38281 3.18404 1.81879C2.43139 2.20228 1.81947 2.8142 1.43597 3.56685C1 4.4225 1 5.5426 1 7.78281V8.04948M12.3333 14.0495L19.6667 6.71615M19.6667 6.71615H13M19.6667 6.71615V13.3828M5.26667 25.3828H8.73333C10.2268 25.3828 10.9735 25.3828 11.544 25.0922C12.0457 24.8365 12.4537 24.4286 12.7094 23.9268C13 23.3564 13 22.6096 13 21.1161V17.6495C13 16.156 13 15.4093 12.7094 14.8388C12.4537 14.3371 12.0457 13.9291 11.544 13.6735C10.9735 13.3828 10.2268 13.3828 8.73333 13.3828H5.26667C3.77319 13.3828 3.02646 13.3828 2.45603 13.6735C1.95426 13.9291 1.54631 14.3371 1.29065 14.8388C1 15.4093 1 16.156 1 17.6495V21.1161C1 22.6096 1 23.3564 1.29065 23.9268C1.54631 24.4286 1.95426 24.8365 2.45603 25.0922C3.02646 25.3828 3.77319 25.3828 5.26667 25.3828Z" stroke="url(#paint0_linear_1351_3214)" stroke-width="2" stroke-linecap="round" stroke-linejoin="round"/>
<defs>
<linearGradient id="paint0_linear_1351_3214" x1="13" y1="1.38281" x2="13" y2="25.3828" gradientUnits="userSpaceOnUse">
<stop stop-color="#05A6A6"/>
<stop offset="1" stop-color="#0D5B6A"/>
</linearGradient>
</defs>
</svg>
