<svg width="73" height="59" viewBox="0 0 73 59" fill="none" xmlns="http://www.w3.org/2000/svg">
<path d="M71.3164 19H1.31641M71.3164 22.5V12.7C71.3164 8.77964 71.3164 6.81945 70.5535 5.32207C69.8823 4.00494 68.8115 2.93407 67.4943 2.26296C65.997 1.5 64.0368 1.5 60.1164 1.5H12.5164C8.59604 1.5 6.63586 1.5 5.13847 2.26295C3.82134 2.93407 2.75048 4.00493 2.07936 5.32207C1.31641 6.81945 1.31641 8.77963 1.31641 12.7V39.3C1.31641 43.2204 1.31641 45.1805 2.07936 46.6779C2.75047 47.9951 3.82134 49.0659 5.13847 49.737C6.63586 50.5 8.59604 50.5 12.5164 50.5H34.5664M57.3164 57.5C57.3164 57.5 67.8164 52.4953 67.8164 44.9883V36.2301L60.1598 33.4942C58.3202 32.8353 56.3084 32.8353 54.4688 33.4942L46.8164 36.2301V44.9883C46.8164 52.4953 57.3164 57.5 57.3164 57.5Z" stroke="url(#paint0_linear_1351_2042)" stroke-width="2" stroke-linecap="round" stroke-linejoin="round"/>
<defs>
<linearGradient id="paint0_linear_1351_2042" x1="36.3164" y1="1.5" x2="36.3164" y2="57.5" gradientUnits="userSpaceOnUse">
<stop stop-color="#0BE6E6"/>
<stop offset="1" stop-color="#0B9292" stop-opacity="0.45"/>
</linearGradient>
</defs>
</svg>
