<svg width="52" height="64" viewBox="0 0 52 64" fill="none" xmlns="http://www.w3.org/2000/svg">
<path d="M17 30.4991L23 36.4991L36.5 22.9991M50 31.9991C50 46.7245 33.9381 57.4343 28.094 60.8438C27.4298 61.2312 27.0977 61.425 26.629 61.5255C26.2653 61.6035 25.7347 61.6035 25.371 61.5255C24.9023 61.425 24.5702 61.2312 23.906 60.8438C18.0619 57.4343 2 46.7245 2 31.9991V17.6519C2 15.2534 2 14.0541 2.39228 13.0232C2.73882 12.1125 3.30195 11.3 4.03297 10.6557C4.86049 9.92644 5.9834 9.50535 8.22921 8.66317L24.3146 2.63115C24.9383 2.39726 25.2501 2.28032 25.571 2.23396C25.8555 2.19285 26.1445 2.19285 26.429 2.23396C26.7499 2.28032 27.0617 2.39726 27.6854 2.63115L43.7708 8.66317C46.0166 9.50535 47.1395 9.92644 47.967 10.6557C48.6981 11.3 49.2612 12.1125 49.6077 13.0232C50 14.0541 50 15.2534 50 17.6519V31.9991Z" stroke="#F7C948" stroke-width="3" stroke-linecap="round" stroke-linejoin="round"/>
</svg>
