<svg width="305" height="317" viewBox="0 0 305 317" fill="none" xmlns="http://www.w3.org/2000/svg">
<path d="M199.505 102.91L199.588 109.216C209.099 110.689 217.316 115.414 220.909 124.647C221.53 126.241 223.708 130.876 221.466 131.574L206.928 132.983C205.852 128.68 203.598 125.274 199.505 123.36V148.279C213.557 151.621 224.989 157.466 225.738 173.486C226.5 189.716 215.491 202.227 199.505 203.873V216.012H190.558V204.513C175.885 203.552 165.721 191.612 164.344 177.359L180.368 175.387C182.181 181.028 185.139 186.381 190.558 189.172V162.973C159.829 156.82 157.677 113.442 190.475 109.21L190.558 102.903H199.505V102.91ZM190.551 144.444V122.719C180.029 126.567 180.041 140.608 190.551 144.444ZM199.505 189.812C213.019 186.368 213.736 168.671 199.505 165.527V189.812Z" fill="url(#paint0_linear_1008_3334)"/>
<path d="M284.865 0C296.175 1.61986 304.175 9.98843 305.002 21.4043V296.229C304.002 307.088 295.676 315.739 284.859 317L105.863 316.968C97.8379 316.916 86.3609 305.904 86.3609 298.125V281.19H22.7633C13.4318 281.19 2.22987 272.162 0.878496 262.814C2.185 237.716 -1.43381 209.775 0.686113 184.997C1.60843 174.215 10.6263 166.174 21.1041 164.829C21.3987 153.496 20.3551 142.279 22.8785 131.132C29.1743 103.325 58.2963 86.935 85.7271 93.3184V20.1553C85.7209 11.4478 96.8709 0.121923 105.863 0.0322266L284.865 0ZM109.668 9.58496C102.744 9.71301 96.3525 14.1565 95.9234 21.4043L96.0513 96.0967C96.3459 96.993 102.756 100.278 104.204 101.366C123.264 115.702 125.352 142.721 124.795 164.81C132.185 166.385 139.692 170.553 142.926 177.679C143.567 179.094 145.168 184.389 145.168 185.663V256.271H273.01V60.7354H111.608C108.034 60.7354 106.023 51.9185 112.216 51.1182H278.473C281.349 50.9133 282.867 52.5464 283.27 55.2803L283.283 261.111C283.212 264.05 281.573 266.15 278.473 265.888L144.323 265.837C141.742 271.26 137.418 276.581 131.744 278.956C130.174 279.609 125.167 281.203 123.764 281.203H95.9547L95.9488 281.19V296.845C95.949 301 103.904 307.544 108.393 306.775H282.944C290.751 306.077 295.291 299.976 295.407 292.401V23.3252C294.677 14.9122 290.059 10.3085 281.663 9.58496H109.668ZM19.7213 175.284V175.271C15.0332 176.539 11.0879 180.016 10.2808 185.01V261.086C11.1775 267.028 16.4676 270.408 22.0972 271.004H123.142C129.515 270.434 134.754 266.278 135.581 259.799C133.999 236.308 137.681 210.089 135.606 186.925C135.017 180.324 130.354 175.63 123.783 175.105L19.7213 175.284ZM67.6597 193.161C85.413 190.171 99.0674 207.176 90.0758 223.24C89.2947 224.642 85.9596 228.136 85.8804 228.548C85.304 231.499 88.9806 242.737 88.9742 247.014C88.9741 249.267 87.9428 251.233 85.9127 252.309L59.8521 252.424C52.3652 250.996 59.2051 234.778 58.9361 229.745C58.8076 227.338 55.4518 224.572 54.2926 222.197C48.9191 211.153 55.0295 195.287 67.6656 193.161H67.6597ZM81.6148 218.611C89.4092 202.669 63.8297 195.978 62.1197 211.934C61.2295 220.206 69.3249 221.467 69.7476 225.341C70.247 229.88 66.8525 237.884 67.192 242.858H78.0601L78.0543 242.852C78.701 237.044 73.0847 227.896 77.1451 223.094C78.5029 221.487 80.3531 221.192 81.6148 218.611ZM92.983 106.834C70.426 95.476 40.5869 106.424 32.8502 130.889C32.3314 132.521 30.7496 138.355 30.7496 139.654V165.533H114.49C115.38 145.224 113.593 117.213 92.983 106.834ZM227.002 25C229.763 25.0002 232.002 27.2387 232.002 30C232.002 32.7613 229.763 34.9998 227.002 35H169.002C166.24 35 164.002 32.7614 164.002 30C164.002 27.2386 166.24 25 169.002 25H227.002Z" fill="url(#paint1_linear_1008_3334)"/>
<defs>
<linearGradient id="paint0_linear_1008_3334" x1="195.06" y1="102.903" x2="195.06" y2="216.012" gradientUnits="userSpaceOnUse">
<stop stop-color="#0BE6E6"/>
<stop offset="1" stop-color="#0B9292" stop-opacity="0.45"/>
</linearGradient>
<linearGradient id="paint1_linear_1008_3334" x1="152.503" y1="0" x2="152.503" y2="317" gradientUnits="userSpaceOnUse">
<stop stop-color="#0BE6E6"/>
<stop offset="1" stop-color="#0B9292" stop-opacity="0.45"/>
</linearGradient>
</defs>
</svg>
