<svg width="32" height="33" viewBox="0 0 32 33" fill="none" xmlns="http://www.w3.org/2000/svg">
<path d="M18.9388 4.57045C20.1827 4.88865 21.3628 5.3951 22.4601 6.05316L24.5786 4.08232C24.7497 4.03956 24.8963 4.11231 25.0107 4.23781L28.3887 7.67859C28.5109 7.83963 28.5098 8.06898 28.3887 8.22836L26.53 10.0304C26.4034 10.2458 26.8021 10.7456 26.9143 10.9828C27.3203 11.8407 27.6279 12.7387 27.8722 13.6566C27.98 13.7266 30.068 13.6211 30.4428 13.6639C30.7838 13.7027 30.941 13.846 30.9721 14.1881C31.0459 14.9933 30.9548 15.984 30.9115 16.7942C30.8271 17.4467 31.0376 18.4502 30.9021 19.0577C30.8577 19.2565 30.69 19.3537 30.4995 19.3759C29.8692 19.4492 28.7752 19.4026 28.1116 19.3776C28.005 19.3737 27.9122 19.3376 27.8106 19.3193C27.4935 20.5637 26.9815 21.741 26.3279 22.8406L28.2987 24.9591L28.2843 25.1985L24.6697 28.7925C24.5064 28.8903 24.3049 28.8841 24.1521 28.7692L22.3501 26.9105L22.1952 26.8667C21.1101 27.4936 19.9367 27.9384 18.7239 28.2522C18.6539 28.3599 18.7594 30.4479 18.7166 30.8228C18.6778 31.1637 18.5345 31.3209 18.1924 31.352C17.3872 31.4259 16.3965 31.3348 15.5863 31.2915C14.9338 31.2071 13.9303 31.4175 13.3228 31.282C13.124 31.2376 13.0268 31.0699 13.0046 30.8794C12.9313 30.2491 12.9779 29.1551 13.0029 28.4915C13.0068 28.3849 13.0429 28.2922 13.0612 28.1905C11.8173 27.8723 10.6372 27.3659 9.53993 26.7078L7.42137 28.6787L7.18203 28.6642L3.58798 25.0496C3.49024 24.8864 3.49635 24.6848 3.6113 24.5321L5.46997 22.7301C5.59658 22.5146 5.19786 22.0148 5.08569 21.7777C4.67974 20.9197 4.3721 20.0217 4.12775 19.1038C4.02002 19.0338 1.93201 19.1393 1.55716 19.0966C1.2162 19.0577 1.05904 18.9144 1.02794 18.5724C0.954084 17.7671 1.04516 16.7764 1.08847 15.9662C1.17288 15.3137 0.962413 14.3103 1.09791 13.7027C1.14234 13.5039 1.31005 13.4067 1.50052 13.3845C2.13081 13.3112 3.2248 13.3579 3.88841 13.3829C3.99503 13.3868 4.08777 13.4228 4.18939 13.4412C4.50759 12.1973 5.01405 11.0172 5.67211 9.91987L3.70127 7.80132L3.7157 7.56197L7.36584 3.94849C7.52466 3.87519 7.70736 3.88463 7.84842 3.99236L9.65044 5.85102C9.8659 5.97764 10.3657 5.57892 10.6028 5.46674C11.4608 5.0608 12.3587 4.75315 13.2767 4.50881C13.3467 4.40108 13.2412 2.31306 13.2839 1.93822C13.3228 1.59725 13.4661 1.44009 13.8081 1.409C14.6617 1.3307 15.5657 1.4512 16.4143 1.46953C17.0873 1.48396 17.9397 1.39178 18.58 1.46619C18.7988 1.49174 18.956 1.60503 18.9915 1.83104C19.0804 2.39858 19.021 3.6475 18.9976 4.26946C18.9937 4.37609 18.9576 4.46883 18.9393 4.57045H18.9388ZM18.0519 2.35416H14.2263L14.1719 4.93307C14.1219 5.44675 13.3705 5.41398 12.9513 5.54171C12.14 5.78883 11.3742 6.09314 10.6217 6.48298C10.2802 6.65957 9.90311 7.05441 9.51105 6.93057C9.35445 6.88115 7.94115 5.42565 7.70903 5.18297C7.66405 5.13577 7.6324 5.0819 7.62795 5.01582L7.54743 5.01693L4.80247 7.70469L6.6056 9.55947C6.94213 9.97763 6.33794 10.5596 6.12247 10.9661C5.58159 11.9857 5.23173 13.0358 4.93019 14.1492C4.91298 14.2075 4.67863 14.3297 4.66253 14.3297H1.97421V18.1553L4.55313 18.2097C5.0668 18.2597 5.03404 19.0111 5.16176 19.4303C5.41221 20.2522 5.71098 20.9963 6.10304 21.7599C6.27907 22.1025 6.67502 22.4768 6.55063 22.8706C6.5012 23.0272 5.0457 24.4405 4.80303 24.6726C4.75582 24.7176 4.70196 24.7492 4.63587 24.7537L4.63698 24.8342L7.32475 27.5791L9.17953 25.776C9.60435 25.44 10.2058 26.0598 10.6223 26.2786C11.2575 26.6118 11.9278 26.8905 12.6075 27.1204C12.908 27.2221 13.5488 27.3087 13.7693 27.4509C13.8248 27.487 13.9497 27.6841 13.9497 27.7185V30.4074L17.7748 30.4629L17.8292 27.8285C17.8809 27.3137 18.6322 27.347 19.0498 27.2198C19.8612 26.9727 20.6275 26.6684 21.3794 26.2786C21.7865 26.0675 22.1724 25.6039 22.6256 25.9171C23.0343 26.1997 23.9022 27.1699 24.2921 27.5791C24.3371 27.6263 24.3687 27.6797 24.3732 27.7463L24.4842 27.7202L27.1986 25.0574L25.3955 23.2026C25.059 22.7845 25.6632 22.2025 25.8786 21.796C26.1935 21.2018 26.4678 20.5787 26.685 19.9412C26.7955 19.6169 26.926 18.8372 27.0709 18.6135C27.107 18.5579 27.3041 18.433 27.3386 18.433H30.0275V14.6074L27.4485 14.5529C26.9349 14.503 26.9676 13.7516 26.8399 13.3323C26.5928 12.521 26.2885 11.7552 25.8986 11.0028C25.722 10.6612 25.3272 10.2842 25.451 9.89211C25.5005 9.73551 26.956 8.32221 27.1986 8.09009C27.2458 8.0451 27.2997 8.01345 27.3658 8.00901L27.3647 7.92849L24.6769 5.18353L22.8221 6.98666C22.3973 7.32263 21.7959 6.70289 21.3794 6.48409C20.3721 5.95598 19.3286 5.6089 18.2324 5.31125C18.1741 5.29403 18.0519 5.05969 18.0519 5.04358V2.35416Z" fill="url(#paint0_linear_1351_4065)" stroke="url(#paint1_linear_1351_4065)" stroke-width="0.3"/>
<path d="M18.7849 8.7712C22.686 10.1556 24.9378 14.4111 23.9366 18.4483C26.3856 20.4641 24.1504 24.0426 21.2461 22.712C20.2032 23.5672 18.9537 24.2031 17.6181 24.458C15.3058 24.9 12.9751 24.3724 11.0809 22.9891C9.90859 22.8531 8.45698 23.1307 7.31968 22.9802C7.10255 22.9514 6.97926 22.7731 6.96094 22.5626L6.97427 18.36C7.11476 17.9151 7.59456 18.0645 7.96052 18.0434C7.3269 14.4277 9.00952 10.9175 12.2282 9.19936C12.4286 9.09274 13.0084 8.90115 13.115 8.81063C13.1689 8.7651 13.3161 8.36748 13.3844 8.24809C13.6415 7.79828 14.1318 6.79925 14.4217 6.45829C14.4867 6.38165 14.5516 6.32445 14.6527 6.30113C15.4502 6.335 16.3537 6.21561 17.1383 6.28669C17.2438 6.29613 17.3088 6.29502 17.4066 6.35111C17.6748 6.50382 18.585 8.37915 18.7843 8.77065L18.7849 8.7712ZM15.0936 7.18576L14.1785 8.71401C14.2296 8.94058 14.9759 10.2878 15.0942 10.3278L16.8862 10.3089L17.7697 8.75621L16.8873 7.20353L15.0936 7.1852V7.18576ZM11.9522 18.4038C12.0283 18.8375 11.8961 19.4706 11.9522 19.9282H17.7181C17.6687 19.7905 17.4354 19.6839 17.3971 19.5567C17.2794 19.1646 17.5498 18.8481 17.9558 18.9419C18.1024 18.9758 19.1991 20.0593 19.2458 20.2025C19.3185 20.4263 19.2624 20.5318 19.1331 20.7056C19.0037 20.8795 18.2829 21.6064 18.109 21.7324C17.6837 22.0401 17.2222 21.663 17.4282 21.1621C17.4843 21.025 17.6592 20.9517 17.7187 20.8156H11.9527V22.451C14.5261 24.2786 18.0779 24.0442 20.5447 22.1439C20.0721 21.3942 19.8511 20.6734 20.1054 19.7927C20.2615 19.2518 20.5847 18.9447 20.9251 18.5249L18.2718 13.7191C18.1063 13.6941 18.1468 13.9363 18.0507 14.0795C17.8597 14.3644 17.3949 14.3461 17.2611 14.0379C17.1589 13.803 17.4316 12.8978 17.5243 12.6107C17.637 12.262 17.6753 11.9726 18.1263 12.0043C18.3156 12.0176 19.4812 12.343 19.6423 12.4324C20.0482 12.6579 19.9177 13.2593 19.4635 13.2788C19.3346 13.2843 19.2136 13.2299 19.0903 13.2055C19.017 13.191 18.9815 13.1022 18.9937 13.2471L21.7203 18.0873L23.0425 18.0756C23.9783 14.5677 21.7897 10.6993 18.3634 9.61252C18.2695 9.62751 17.6387 11.068 17.3444 11.2118C16.8862 11.4362 15.6223 11.1758 15.0675 11.2918L12.5069 15.8549C12.4958 16.0004 12.5297 15.9115 12.6008 15.8938C12.8468 15.8316 12.9673 15.7549 13.2 15.9365C13.4688 16.1459 13.4471 16.5013 13.155 16.6696C12.994 16.7623 11.8422 17.0783 11.6401 17.0966C11.2003 17.136 11.1564 16.895 11.0376 16.5468C10.942 16.2675 10.6727 15.3296 10.7438 15.0897C10.8354 14.7804 11.3508 14.7293 11.5346 14.9964L11.7295 15.4379L14.2401 10.9303C14.2873 10.8592 14.264 10.8137 14.2401 10.7432C14.1279 10.4133 13.7303 9.95737 13.5826 9.61418C10.2174 10.7487 8.03549 14.5432 8.9551 18.0196C9.10837 18.1273 11.1725 17.9829 11.5884 18.0473C11.7689 18.0751 11.9205 18.2256 11.9522 18.4044V18.4038ZM7.85001 18.9303V22.0906H11.0104V18.9303H7.85001ZM24.071 20.5146C24.071 19.6428 23.3641 18.9364 22.4928 18.9364C21.6215 18.9364 20.9145 19.6433 20.9145 20.5146C20.9145 21.3859 21.6215 22.0928 22.4928 22.0928C23.3641 22.0928 24.071 21.3859 24.071 20.5146Z" fill="url(#paint2_linear_1351_4065)" stroke="url(#paint3_linear_1351_4065)" stroke-width="0.3"/>
<defs>
<linearGradient id="paint0_linear_1351_4065" x1="16" y1="1.38281" x2="16" y2="31.3799" gradientUnits="userSpaceOnUse">
<stop stop-color="#05A6A6"/>
<stop offset="1" stop-color="#0D5B6A"/>
</linearGradient>
<linearGradient id="paint1_linear_1351_4065" x1="16" y1="1.38281" x2="16" y2="31.3799" gradientUnits="userSpaceOnUse">
<stop stop-color="#05A6A6"/>
<stop offset="1" stop-color="#0D5B6A"/>
</linearGradient>
<linearGradient id="paint2_linear_1351_4065" x1="15.9726" y1="6.26367" x2="15.9726" y2="24.6105" gradientUnits="userSpaceOnUse">
<stop stop-color="#05A6A6"/>
<stop offset="1" stop-color="#0D5B6A"/>
</linearGradient>
<linearGradient id="paint3_linear_1351_4065" x1="15.9726" y1="6.26367" x2="15.9726" y2="24.6105" gradientUnits="userSpaceOnUse">
<stop stop-color="#05A6A6"/>
<stop offset="1" stop-color="#0D5B6A"/>
</linearGradient>
</defs>
</svg>
