<svg width="73" height="57" viewBox="0 0 73 57" fill="none" xmlns="http://www.w3.org/2000/svg">
<path d="M65.9169 37.7002C66.8487 37.7002 67.6051 38.4559 67.6053 39.3877V54.5752C67.6052 55.5071 66.8487 56.2627 65.9169 56.2627H7.0819C6.15002 56.2627 5.39449 55.5071 5.3944 54.5752V39.3877C5.39462 38.4559 6.15009 37.7002 7.0819 37.7002C8.01371 37.7002 8.76918 38.4559 8.7694 39.3877V52.8877H64.2294V39.3877L64.2381 39.2158C64.3244 38.3649 65.0433 37.7004 65.9169 37.7002ZM52.8319 14.249C53.4034 13.5173 54.4605 13.3875 55.1922 13.959L55.1913 13.958L71.828 26.9111C71.9439 26.9978 72.0499 27.1018 72.1434 27.2217C72.7147 27.9534 72.5849 29.0096 71.8534 29.5811L55.3026 42.4678C55.0017 42.7466 54.5988 42.917 54.1561 42.917C53.2243 42.9168 52.4686 42.1613 52.4686 41.2295V35.8711H41.4501C40.5181 35.8711 39.7616 35.1155 39.7616 34.1836V22.3301C39.7616 21.3981 40.5181 20.6416 41.4501 20.6416H52.4686V15.2842H52.4755C52.4755 14.9218 52.5914 14.5567 52.8319 14.249ZM17.8085 13.957C18.5402 13.3859 19.5974 13.5155 20.1688 14.2471C20.4093 14.5547 20.5252 14.9203 20.5253 15.2822H20.5311V20.6406H31.5506C32.4823 20.6408 33.2379 21.3965 33.2381 22.3281V34.1826C33.2381 35.1144 32.4824 35.8699 31.5506 35.8701H20.5311V41.2285C20.5311 42.1604 19.7755 42.916 18.8436 42.916C18.4009 42.916 17.998 42.7456 17.6971 42.4668L1.14635 29.5811C0.41462 29.0096 0.284834 27.9524 0.856311 27.2207C0.949733 27.1014 1.05599 26.9982 1.17174 26.9111L17.8085 13.957ZM4.91783 28.2559L17.1551 37.7842V34.1826C17.1553 33.2508 17.9108 32.4952 18.8426 32.4951H29.8622V24.0166H18.8426C17.9107 24.0165 17.1551 23.261 17.1551 22.3291V18.7275L4.91783 28.2559ZM55.8446 22.3281C55.8446 23.2601 55.0881 24.0166 54.1561 24.0166H43.1376V32.4941H54.1561C55.0879 32.4941 55.8444 33.2499 55.8446 34.1816V37.7832L68.0799 28.2549L55.8446 18.7275V22.3281ZM65.9178 0C66.8496 6.6185e-05 67.6052 0.755721 67.6053 1.6875V17.124C67.6051 18.0558 66.8496 18.8115 65.9178 18.8115C64.986 18.8115 64.2305 18.0558 64.2303 17.124V3.37598H8.77037V17.124C8.77018 18.0558 8.01373 18.8115 7.0819 18.8115C6.15026 18.8113 5.39459 18.0557 5.3944 17.124V1.6875C5.39455 0.755819 6.15023 0.000225287 7.0819 0H65.9178Z" fill="#F7C948"/>
</svg>
