<svg width="322" height="322" viewBox="0 0 322 322" fill="none" xmlns="http://www.w3.org/2000/svg">
<path d="M237.427 26C244.245 26.47 249.483 32.2383 249.93 38.9609L250.014 168.469L256.788 175.896C257.79 176.352 262.594 176.313 263.9 176.161C268.088 175.672 271.726 166.657 276.148 165.947C277.091 165.947 292.302 172.182 292.937 172.846C294.458 174.447 293.355 184.426 293.139 187.056L299.446 193.509C302.564 193.964 311.905 192.157 314.006 193.896C314.703 194.473 320.936 209.625 320.938 210.621C320.947 213.73 313.598 218.353 311.439 220.645L311.208 229.683C312.484 232.885 321.207 237.458 320.996 240.905C318.998 244.176 316.279 255.172 313.908 257.337C311.419 259.604 303.054 256.794 299.284 257.91L293.29 263.697L293.875 276.085L292.829 278.372C288.504 279.836 280.802 284.762 276.575 285.173C275.51 285.276 275.103 285.286 274.155 284.732C272.148 283.567 266.95 275.901 265.772 275.498C263.243 275.713 257.622 274.617 255.762 276.11C254.014 277.805 249.689 284.061 247.834 284.825C244.668 286.123 242.93 283.527 241.403 283.831C240.697 283.968 238.345 286.906 237.407 287.636C232.209 291.67 226.298 294.026 219.76 294.976L32.461 295C15.01 293.286 2.43857 279.909 1.32917 262.483C0.990457 257.166 0.710348 245.64 1.5694 240.675C2.18309 237.125 4.63821 233.821 7.878 232.298C8.40858 232.048 11.6104 230.923 11.8926 230.922H47.4385V36.5322H47.4337C48.1553 31.4157 53.9227 26.5877 58.9493 26.0146L237.427 26ZM58.7882 33.2021C57.1093 33.6869 54.6347 35.8127 54.2911 37.5215L54.296 37.5117V230.922H179.07C182.845 230.922 187.96 235.593 188.888 239.221C190.213 244.411 188.712 255.012 189.1 261.015C190.234 278.656 204.479 291.49 222.475 287.421C224.89 286.873 233.313 283.166 234.222 281.041C234.59 280.174 233.853 280.404 233.544 280.271C231.816 279.508 229.539 279.288 228.714 277.256C227.511 274.289 229.774 267.609 228.729 264.035C228.612 263.65 223.687 258.551 223.216 258.287C220.197 256.554 213.369 258.958 210.056 258.209C208.156 257.778 207.606 256.109 206.835 254.576C205.451 251.815 202.359 244.96 201.603 242.193C200.248 237.238 208.229 233.898 210.924 230.432L211.19 221.007C209.069 218.661 201.376 213.716 201.357 210.646C201.348 209.287 207.616 194.326 208.445 193.729C209.561 192.926 216.825 193.215 218.798 193.254C220.526 193.288 221.498 194.306 223.216 193.303C223.697 193.023 228.611 187.932 228.729 187.555C229.828 184.029 227.163 175.883 229.087 173.238C230.707 171.011 242.345 168.366 242.97 166.545L243.067 39.9443C242.949 35.8904 240.023 32.972 235.959 32.8545L58.7882 33.2021ZM11.127 238.477C9.2274 239.064 8.41226 241.571 8.21101 243.393C7.43541 250.296 7.84841 264.756 10.293 271.15C13.273 278.94 23.3115 288.141 31.9952 288.141H195.01L195.005 288.136C187.725 281.359 182.933 273.113 182.236 262.973C181.795 256.505 183.159 248.044 182.227 241.958C182.006 240.514 180.995 238.668 179.458 238.364L11.127 238.477ZM277.514 173.776C275.707 173.605 270.95 182.516 266.831 183.001C264.499 183.275 255.894 183.275 253.96 182.614C251.407 181.737 247.604 175.598 245.184 173.801C244.722 173.713 237 176.783 236.465 177.165C233.967 178.953 237.648 187.535 235.198 191.061C234.442 192.153 226.264 200.118 225.42 200.378L213.133 200.349C212.289 201.901 208.632 209.141 209.304 210.288C211.331 212.1 217.742 216.483 218.066 218.911C218.626 223.112 217.688 228.665 217.939 233.018L209.279 241.532L212.701 250.908L224.124 250.482C228.999 252.945 232.351 257.705 235.959 261.695L235.753 273.882C238.266 274.146 243.672 278.142 245.753 276.918C248.35 275.395 251.33 268.966 254.535 268.54C256.524 268.276 266.955 268.291 268.56 268.785L276.708 277.402L286.614 273.892L286.629 273.896C287.429 269.979 284.793 263.703 286.953 260.28C287.636 259.198 295.716 251.324 296.697 250.933C299.942 249.645 305.553 251.991 309.239 250.728C309.701 250.449 312.807 243.082 312.975 242.174C313.068 241.665 313.152 241.326 312.72 240.925C310.118 238.403 304.272 234.838 303.83 231.171C303.384 227.411 304.002 222.524 304.061 218.661L313.078 209.568L309.48 200.589C308.11 198.934 299.466 202.19 295.75 199.614C294.656 198.855 286.671 190.706 286.408 189.861C285.235 186.067 287.444 181.449 286.452 177.591L277.514 173.776ZM261 199C275.358 199 287 211.09 287 226C287 240.91 275.358 253 261 253C246.642 253 235 240.91 235 226C235 211.09 246.642 199 261 199ZM261.024 206.177C250.487 206.177 241.945 215.048 241.945 225.99C241.946 236.933 250.487 245.803 261.024 245.803C271.562 245.803 280.103 236.933 280.104 225.99C280.104 215.048 271.562 206.177 261.024 206.177ZM182 217H63.0001V209H182V217ZM196 199H63.0001V192H196V199ZM137.935 54.2979C143.049 50.163 147.406 45.3434 154.426 49.7471C161.599 54.2486 170.768 63.9602 177.759 69.6689C178.393 70.187 179.174 70.5199 179.729 71.1455C179.872 71.2089 180.465 70.0011 180.467 69.9287V57.7236C180.467 57.474 181.026 56.7023 181.323 56.4824C192.086 51.7615 185.298 73.2962 187.63 77.9883L207.676 94.8066C212.309 100.97 205.358 102.118 200.239 101.414V172.196C201.982 171.654 209.724 171.649 210.992 172.812C213.022 174.68 211.834 178.805 208.774 178.912L89.2637 179C86.2342 178.765 84.804 174.342 87.2198 172.651C88.9575 171.434 95.6906 171.673 97.8887 172.191V101.414C93.6411 101.751 86.23 101.879 89.4874 95.7988C105.849 82.2651 121.429 67.6507 137.935 54.2979ZM137.628 172.221H160.189V128.751H137.628V172.221ZM104.81 171.463L130.494 172.191L130.509 125.563C130.618 123.858 131.856 121.982 133.707 121.889C143.232 122.759 154.609 120.809 163.901 121.903C165.025 122.035 167.105 122.886 167.105 124.107V171.703L193.066 171.723L193.309 101.414H104.81V171.463ZM101.839 94.5811H195.789L149.059 54.9873L101.839 94.5811Z" fill="url(#paint0_linear_1009_12478)"/>
<defs>
<linearGradient id="paint0_linear_1009_12478" x1="161" y1="26" x2="161" y2="295" gradientUnits="userSpaceOnUse">
<stop stop-color="#0BE6E6"/>
<stop offset="1" stop-color="#0B9292" stop-opacity="0.45"/>
</linearGradient>
</defs>
</svg>
