<svg width="32" height="32" viewBox="0 0 32 32" fill="none" xmlns="http://www.w3.org/2000/svg">
<path d="M8.0013 26.7828H11.4817C11.9355 26.7828 12.3865 26.8368 12.8264 26.9448L16.5038 27.8384C17.3018 28.0328 18.133 28.0517 18.9393 27.8951L23.0053 27.1041C24.0794 26.8948 25.0674 26.3805 25.8418 25.6273L28.7185 22.8289C29.54 22.0311 29.54 20.7365 28.7185 19.9373C27.9788 19.2178 26.8076 19.1368 25.9708 19.747L22.6181 22.1931C22.1379 22.544 21.5537 22.733 20.9528 22.733H17.7153L19.7761 22.7329C20.9376 22.7329 21.8784 21.8177 21.8784 20.6878V20.2788C21.8784 19.3406 21.2221 18.5225 20.2867 18.2957L17.1061 17.5222C16.5885 17.3967 16.0584 17.3333 15.5255 17.3333C14.2391 17.3333 11.9105 18.3983 11.9105 18.3983L8.0013 20.0331M2.66797 19.4666L2.66797 27.1999C2.66797 27.9467 2.66797 28.32 2.81329 28.6052C2.94112 28.8561 3.1451 29.0601 3.39598 29.1879C3.6812 29.3332 4.05456 29.3333 4.8013 29.3333H5.86797C6.61471 29.3333 6.98807 29.3333 7.27329 29.1879C7.52417 29.0601 7.72815 28.8561 7.85598 28.6052C8.0013 28.32 8.0013 27.9467 8.0013 27.1999V19.4666C8.0013 18.7198 8.0013 18.3465 7.85598 18.0613C7.72815 17.8104 7.52417 17.6064 7.27329 17.4786C6.98807 17.3333 6.61471 17.3333 5.86797 17.3333L4.8013 17.3333C4.05457 17.3333 3.6812 17.3333 3.39598 17.4786C3.1451 17.6064 2.94112 17.8104 2.81329 18.0613C2.66797 18.3465 2.66797 18.7198 2.66797 19.4666Z" stroke="url(#paint0_linear_524_21105)" stroke-width="2" stroke-linecap="round" stroke-linejoin="round"/>
<path fill-rule="evenodd" clip-rule="evenodd" d="M22.5 2.18182C19.5628 2.18182 17.1818 4.56285 17.1818 7.5C17.1818 10.4372 19.5628 12.8182 22.5 12.8182C25.4372 12.8182 27.8182 10.4372 27.8182 7.5C27.8182 4.56285 25.4372 2.18182 22.5 2.18182ZM16 7.5C16 3.91015 18.9101 1 22.5 1C26.0899 1 29 3.91015 29 7.5C29 11.0899 26.0899 14 22.5 14C18.9101 14 16 11.0899 16 7.5ZM22.5 3.06818C22.8264 3.06818 23.0909 3.33274 23.0909 3.65909V3.95455H23.1894C24.2772 3.95455 25.1591 4.83641 25.1591 5.92424C25.1591 6.25059 24.8945 6.51515 24.5682 6.51515C24.2418 6.51515 23.9773 6.25059 23.9773 5.92424C23.9773 5.48911 23.6245 5.13636 23.1894 5.13636H21.9091C21.4196 5.13636 21.0227 5.5332 21.0227 6.02273C21.0227 6.51225 21.4196 6.90909 21.9091 6.90909H23.0909C24.2331 6.90909 25.1591 7.83505 25.1591 8.97727C25.1591 10.1195 24.2331 11.0455 23.0909 11.0455V11.3409C23.0909 11.6673 22.8264 11.9318 22.5 11.9318C22.1736 11.9318 21.9091 11.6673 21.9091 11.3409V11.0455H21.8106C20.7228 11.0455 19.8409 10.1636 19.8409 9.07576C19.8409 8.74941 20.1055 8.48485 20.4318 8.48485C20.7582 8.48485 21.0227 8.74941 21.0227 9.07576C21.0227 9.51089 21.3755 9.86364 21.8106 9.86364H23.0909C23.5804 9.86364 23.9773 9.4668 23.9773 8.97727C23.9773 8.48775 23.5804 8.09091 23.0909 8.09091H21.9091C20.7669 8.09091 19.8409 7.16495 19.8409 6.02273C19.8409 4.8805 20.7669 3.95455 21.9091 3.95455V3.65909C21.9091 3.33274 22.1736 3.06818 22.5 3.06818Z" fill="url(#paint1_linear_524_21105)"/>
<defs>
<linearGradient id="paint0_linear_524_21105" x1="16.0013" y1="17.3333" x2="16.0013" y2="29.3333" gradientUnits="userSpaceOnUse">
<stop stop-color="#05A6A6"/>
<stop offset="1" stop-color="#0D5B6A"/>
</linearGradient>
<linearGradient id="paint1_linear_524_21105" x1="22.5" y1="1" x2="22.5" y2="14" gradientUnits="userSpaceOnUse">
<stop stop-color="#05A6A6"/>
<stop offset="1" stop-color="#0D5B6A"/>
</linearGradient>
</defs>
</svg>
