<svg width="279" height="322" viewBox="0 0 279 322" fill="none" xmlns="http://www.w3.org/2000/svg">
<path d="M72.8818 30.7617C100.726 6.68706 146.275 -5.49541 182.33 2.38867C234.445 13.7837 268.99 50.3653 277.145 103.175C286.969 166.803 235.389 213.378 228.2 273.679C226.885 284.705 226.905 295.927 227.849 306.985C228.116 310.125 229 313.652 229.116 316.725C229.211 319.177 228.676 320.505 226.455 321.636L101.862 321.712C100.617 321.592 98.6592 319.416 98.6592 318.308V268.445C87.0825 267.954 75.4774 269.198 63.9102 268.776C45.3526 268.096 37.4189 264.916 36.4248 245.007C35.9057 234.632 37.1734 223.372 37.3779 212.935C37.466 208.479 37.4063 203.986 37.2207 199.537L3.01172 189.103C1.07401 188.271 -0.545359 185.988 0.174805 183.879L31.876 130.663C31.5803 93.5529 44.4212 55.3655 72.8818 30.7617ZM196.896 15.8115C171.225 6.57033 149.921 6.7786 123.741 14.0205C80.2811 26.0422 52.1382 56.6723 43.4336 101.012C41.2944 111.909 40.9139 122.48 40.3477 133.472L11.2822 182.556L43.2012 191.98C44.9751 192.582 46.0102 194.071 46.1895 195.913C47.3691 208.142 45.4182 223.363 45.2168 235.869C45.135 241.005 44.5537 253.816 48.8477 257.116C54.3026 261.31 72.6654 259.686 79.6367 259.623C87.259 260.325 96.429 258.732 103.859 259.629C105.127 259.783 107.468 261.383 107.468 262.624V313.119H219.675C217.093 292.159 218.317 271.067 223.787 250.696C236.773 202.339 276.106 158.749 268.66 106.006C262.573 62.9005 237.993 30.6071 196.896 15.8115ZM193.758 202.872C196.101 202.872 198 204.796 198 207.171V245.573C198 247.948 196.101 249.872 193.758 249.872H91.2422C88.8988 249.872 87 247.948 87 245.573V207.171C87 204.796 88.8988 202.872 91.2422 202.872H193.758ZM93.3086 244.395H191.691V208.348H93.3086V244.395ZM177.806 228.872C180.122 228.872 182 230.663 182 232.872C182 235.081 180.122 236.872 177.806 236.872H106.194C103.878 236.872 102 235.081 102 232.872C102 230.663 103.878 228.872 106.194 228.872H177.806ZM177.806 214.872C180.122 214.872 182 216.663 182 218.872C182 221.081 180.122 222.872 177.806 222.872H106.194C103.878 222.872 102 221.081 102 218.872C102 216.663 103.878 214.872 106.194 214.872H177.806ZM149.28 32.7266C156.884 32.0106 165.665 33.2279 173.395 32.8115C175.201 33.3573 175.981 34.5566 176.543 36.2695L182.095 60.9541L191.659 66.4365L216.559 58.6475C218.497 58.4077 219.902 59.5589 220.971 61.0068C225.134 66.6504 228.024 74.7614 232.275 80.5469C233.309 82.4364 232.923 84.1683 231.697 85.8496L213.027 103.036V114.686L231.7 131.872C232.687 133.307 233.305 134.822 232.558 136.519C228.404 142.613 225.266 150.887 220.971 156.717C220.031 157.991 218.988 158.875 217.379 159.124L191.665 151.278L182.095 156.771L176.543 181.455C175.981 183.168 175.201 184.367 173.395 184.913C165.665 184.5 156.887 185.711 149.28 184.998C147.537 184.834 146.735 184.304 145.727 182.891L139.634 156.698L139.637 156.695C136.284 155.216 133.136 153.354 130.133 151.25L104.938 159.07C103.467 159.19 101.849 158.383 100.963 157.229C97.7204 150.737 93.1171 144.5 89.9531 138.023C87.7946 133.607 89.0326 132.9 92.1494 129.812L108.792 114.688L108.956 103.499L89.9502 85.6982C88.9605 84.5847 88.6269 83.2976 88.9316 81.8213C92.9062 75.3418 96.3127 67.2631 100.661 61.1338C101.698 59.6732 102.317 59.0832 104.171 58.6416L129.869 66.4619L139.641 61.0264L145.855 34.6445C146.864 33.3292 147.628 32.8811 149.28 32.7266ZM152.915 41.585L147.791 65.2783C147.04 68.3477 143.715 68.6159 141.387 69.8809C139.926 70.6758 138.456 71.5755 137.039 72.4492C135.097 73.6511 133.52 75.692 131.085 75.9287L106.451 68.3672L98.9551 81.8184C98.9147 82.3073 99.7938 82.9951 100.158 83.3389C105.292 88.2095 112.185 93.364 116.798 98.4648C119.007 100.91 117.549 104.039 117.414 106.96C117.354 108.25 117.364 109.777 117.43 111.067C117.584 114.052 119.085 117.197 116.496 119.591L98.958 135.698L106.455 149.36L130.29 141.935C133.143 141.553 135.923 144.676 138.364 146.152C139.47 146.821 140.655 147.458 141.802 148.058C146.741 150.651 146.753 148.872 148.353 155.032C150.156 161.975 151.303 169.149 152.915 176.14V176.143L168.615 176.017L174.29 151.455C175.362 149.499 179.895 148.064 181.994 146.896C184.439 145.537 188.796 141.556 191.275 141.862L214.872 149.322L222.589 135.96C222.576 135.402 220.065 133.089 219.462 132.499C214.749 127.903 209.508 123.786 204.852 119.114C202.935 117.193 204.054 114.818 204.089 112.66C204.155 108.49 203.824 104.348 203.909 100.188L204.569 98.957L222.453 82.2188C222.692 81.8907 222.55 81.6195 222.469 81.2852C222.268 80.4524 220.119 77.1082 219.513 76.0293C218.074 73.4678 216.562 70.8904 214.922 68.4551L190.732 75.9219C188.602 75.9282 184.228 72.0764 181.994 70.8271C179.518 69.4424 175.013 68.2975 174.017 65.6006L168.854 42.1016L168.129 41.5684L152.915 41.585ZM160.856 79.0742C177.307 79.0745 190.645 92.4115 190.645 108.862C190.644 125.313 177.307 138.65 160.856 138.65C144.406 138.65 131.068 125.313 131.067 108.862C131.067 92.4114 144.406 79.0742 160.856 79.0742ZM160.85 87.8857C149.265 87.8858 139.873 97.2773 139.873 108.862C139.873 120.447 149.265 129.839 160.85 129.839C172.434 129.839 181.826 120.447 181.826 108.862C181.826 97.2773 172.435 87.8857 160.85 87.8857Z" fill="url(#paint0_linear_1332_2261)"/>
<defs>
<linearGradient id="paint0_linear_1332_2261" x1="139.192" y1="0" x2="139.192" y2="321.712" gradientUnits="userSpaceOnUse">
<stop stop-color="#0BE6E6"/>
<stop offset="1" stop-color="#0B9292" stop-opacity="0.45"/>
</linearGradient>
</defs>
</svg>
