<svg width="63" height="62" viewBox="0 0 63 62" fill="none" xmlns="http://www.w3.org/2000/svg">
<path d="M13.2831 28.6864C13.0966 27.4847 12.9999 26.2536 12.9999 25C12.9999 11.7452 23.8157 1 37.1578 1C50.4998 1 61.3157 11.7452 61.3157 25C61.3157 27.9942 60.7638 30.8604 59.7555 33.5035C59.5461 34.0525 59.4413 34.3269 59.3938 34.5412C59.3467 34.7536 59.3285 34.9029 59.3234 35.1204C59.3182 35.3398 59.348 35.5815 59.4075 36.065L60.6152 45.8756C60.746 46.9376 60.8114 47.4686 60.6347 47.8547C60.4799 48.1929 60.205 48.4616 59.8633 48.6085C59.4732 48.7762 58.9439 48.6986 57.8852 48.5434L48.3294 47.1427C47.8304 47.0696 47.5809 47.033 47.3537 47.0343C47.1289 47.0356 46.9734 47.0522 46.7534 47.0984C46.5311 47.1452 46.247 47.2516 45.6789 47.4644C43.029 48.4569 40.1572 49 37.1578 49C35.9032 49 34.671 48.905 33.468 48.7218M17.8947 61C26.7894 61 34 53.6127 34 44.5C34 35.3873 26.7894 28 17.8947 28C9.00004 28 1.78947 35.3873 1.78947 44.5C1.78947 46.3318 2.08083 48.0938 2.61865 49.7402C2.84599 50.4361 2.95966 50.7841 2.99697 51.0218C3.03592 51.27 3.04274 51.4094 3.02824 51.6602C3.01434 51.9004 2.95424 52.1719 2.83403 52.7149L1 61L9.98441 59.773C10.4748 59.706 10.72 59.6725 10.9341 59.674C11.1596 59.6755 11.2792 59.6877 11.5003 59.7318C11.7103 59.7737 12.0225 59.8838 12.6468 60.1042C14.2918 60.6848 16.0573 61 17.8947 61Z" stroke="url(#paint0_linear_1068_665)" stroke-width="2" stroke-linecap="round" stroke-linejoin="round"/>
<defs>
<linearGradient id="paint0_linear_1068_665" x1="31.1578" y1="1" x2="31.1578" y2="61" gradientUnits="userSpaceOnUse">
<stop stop-color="#05A6A6"/>
<stop offset="1" stop-color="#0D5B6A"/>
</linearGradient>
</defs>
</svg>
