<svg width="67" height="67" viewBox="0 0 67 67" fill="none" xmlns="http://www.w3.org/2000/svg">
<path d="M18.125 33.1094H18.16M33.875 33.1094H33.91M49.625 33.1094H49.66M33.875 64.6094C51.272 64.6094 65.375 50.5063 65.375 33.1094C65.375 15.7124 51.272 1.60938 33.875 1.60938C16.478 1.60938 2.375 15.7124 2.375 33.1094C2.375 37.2994 3.19308 41.2983 4.67822 44.9552C4.96246 45.655 5.10458 46.005 5.16798 46.2879C5.23001 46.5646 5.25269 46.7693 5.25272 47.0529C5.25276 47.3428 5.20013 47.6586 5.09488 48.2901L3.01944 60.7427C2.80211 62.0467 2.69344 62.6987 2.89566 63.1702C3.07265 63.5829 3.40149 63.9117 3.81415 64.0887C4.28563 64.2909 4.93764 64.1823 6.24166 63.9649L18.6943 61.8895C19.3258 61.7842 19.6416 61.7316 19.9315 61.7317C20.215 61.7317 20.4198 61.7544 20.6965 61.8164C20.9794 61.8798 21.3293 62.0219 22.0292 62.3062C25.6861 63.7913 29.685 64.6094 33.875 64.6094ZM19.875 33.1094C19.875 34.0759 19.0915 34.8594 18.125 34.8594C17.1585 34.8594 16.375 34.0759 16.375 33.1094C16.375 32.1429 17.1585 31.3594 18.125 31.3594C19.0915 31.3594 19.875 32.1429 19.875 33.1094ZM35.625 33.1094C35.625 34.0759 34.8415 34.8594 33.875 34.8594C32.9085 34.8594 32.125 34.0759 32.125 33.1094C32.125 32.1429 32.9085 31.3594 33.875 31.3594C34.8415 31.3594 35.625 32.1429 35.625 33.1094ZM51.375 33.1094C51.375 34.0759 50.5915 34.8594 49.625 34.8594C48.6585 34.8594 47.875 34.0759 47.875 33.1094C47.875 32.1429 48.6585 31.3594 49.625 31.3594C50.5915 31.3594 51.375 32.1429 51.375 33.1094Z" stroke="url(#paint0_linear_1351_3050)" stroke-width="3" stroke-linecap="round" stroke-linejoin="round"/>
<defs>
<linearGradient id="paint0_linear_1351_3050" x1="33.875" y1="1.60937" x2="33.875" y2="64.6094" gradientUnits="userSpaceOnUse">
<stop stop-color="#0BE6E6"/>
<stop offset="1" stop-color="#0B9292" stop-opacity="0.45"/>
</linearGradient>
</defs>
</svg>
