<svg width="57" height="58" viewBox="0 0 57 58" fill="none" xmlns="http://www.w3.org/2000/svg">
<path d="M55.5 56H6.3C4.61984 56 3.77976 56 3.13803 55.673C2.57354 55.3854 2.1146 54.9265 1.82698 54.362C1.5 53.7202 1.5 52.8802 1.5 51.2V2M52.5 17L40.7434 29.548C40.2978 30.0235 40.0751 30.2613 39.8063 30.3842C39.5691 30.4927 39.3077 30.5374 39.0479 30.514C38.7536 30.4875 38.4644 30.3373 37.886 30.037L28.114 24.963C27.5356 24.6627 27.2464 24.5125 26.9521 24.486C26.6923 24.4626 26.4309 24.5073 26.1937 24.6158C25.9249 24.7387 25.7022 24.9765 25.2566 25.452L13.5 38" stroke="#F7C948" stroke-width="3" stroke-linecap="round" stroke-linejoin="round"/>
</svg>
