<svg width="285" height="355" viewBox="0 0 285 355" fill="none" xmlns="http://www.w3.org/2000/svg">
<path fill-rule="evenodd" clip-rule="evenodd" d="M76.0925 70.5146L97.686 92.0706C108.985 82.0658 123.323 76.1395 138.399 75.2422V42.3799C133.378 41.3572 128.916 38.5095 125.878 34.389C122.84 30.2686 121.443 25.1688 121.958 20.0786C122.473 14.9884 124.863 10.2704 128.664 6.83927C132.466 3.40817 137.408 1.50846 142.533 1.50846C147.658 1.50846 152.601 3.40817 156.403 6.83927C160.204 10.2704 162.594 14.9884 163.109 20.0786C163.624 25.1688 162.227 30.2686 159.189 34.389C156.151 38.5095 151.689 41.3572 146.667 42.3799V75.2305C161.745 76.1275 176.084 82.0538 187.385 92.0588L208.971 70.5068L211.213 46.8962C207.508 45.5383 204.425 42.8798 202.541 39.4178C200.657 35.9558 200.101 31.9273 200.976 28.0854C201.851 24.2436 204.097 20.8513 207.296 18.543C210.494 16.2346 214.425 15.1682 218.354 15.5429C222.283 15.9177 225.941 17.7081 228.644 20.5794C231.346 23.4506 232.909 27.2062 233.039 31.144C233.17 35.0817 231.859 38.9321 229.352 41.9753C226.845 45.0184 223.314 47.046 219.418 47.6789L217.505 67.8181L247.504 64.8869C248.094 60.4337 250.305 56.353 253.716 53.4229C257.127 50.4928 261.498 48.9182 265.997 48.9995C270.496 49.0807 274.808 50.8121 278.11 53.8634C281.413 56.9147 283.475 61.0726 283.903 65.5442C284.331 70.0157 283.096 74.4883 280.432 78.1089C277.769 81.7296 273.864 84.2451 269.462 85.1758C265.06 86.1066 260.468 85.3874 256.563 83.1555C252.658 80.9236 249.713 77.335 248.288 73.0741L214.808 76.3458L193.214 97.9018C203.235 109.182 209.171 123.494 210.072 138.544H242.98C244.005 133.531 246.858 129.076 250.987 126.043C255.115 123.01 260.225 121.615 265.325 122.13C270.425 122.644 275.152 125.03 278.589 128.826C282.027 132.621 283.93 137.556 283.93 142.673C283.93 147.79 282.027 152.725 278.589 156.52C275.152 160.316 270.425 162.702 265.325 163.217C260.225 163.731 255.115 162.336 250.987 159.303C246.858 156.271 244.005 151.815 242.98 146.802H210.096C209.297 159.68 204.825 172.062 197.209 182.487C189.592 192.911 179.148 200.944 167.108 205.638C170.832 205.947 174.324 207.567 176.96 210.21C177.942 211.191 178.791 212.296 179.485 213.497C182.511 211.15 186.292 209.99 190.116 210.235C193.94 210.481 197.541 212.116 200.24 214.831C201.123 215.713 201.899 216.696 202.553 217.759C204.872 215.913 207.667 214.758 210.614 214.426C213.562 214.094 216.544 214.599 219.217 215.883C221.89 217.167 224.146 219.177 225.726 221.683C227.306 224.19 228.146 227.09 228.149 230.051V287.377C228.15 287.604 228.132 287.831 228.094 288.054C227.593 291.287 226.822 294.472 225.789 297.576C224.66 300.9 223.063 304.047 221.045 306.922C218.923 309.841 217.807 313.369 217.866 316.976V328.532C217.923 332.61 216.768 336.613 214.545 340.034C210.815 345.225 205.421 348.987 199.256 350.699C192.481 352.758 185.426 353.75 178.344 353.638C162.459 353.638 145.307 349.474 135.781 343.275C133.487 341.828 131.53 339.908 130.042 337.643C128.555 335.378 127.57 332.821 127.156 330.145L124.055 311.751L93.9459 249.803L93.7382 249.345C92.857 247.363 92.3802 245.225 92.3358 243.057C92.2914 240.888 92.6801 238.733 93.4794 236.716C95.0525 232.658 98.1039 229.344 102.022 227.437L102.504 227.218C106.633 225.383 111.323 225.259 115.544 226.873C119.765 228.488 123.171 231.708 125.015 235.828L126.764 239.741V208.386C112.667 205.005 100.028 197.198 90.7061 186.113C81.384 175.029 75.8702 161.251 74.9751 146.806H42.0634C41.0384 151.817 38.1859 156.27 34.0589 159.302C29.9319 162.333 24.8244 163.727 19.7266 163.213C14.6287 162.698 9.90369 160.313 6.46754 156.519C3.03139 152.725 1.12891 147.792 1.12891 142.677C1.12891 137.562 3.03139 132.629 6.46754 128.835C9.90369 125.041 14.6287 122.656 19.7266 122.141C24.8244 121.627 29.9319 123.021 34.0589 126.052C38.1859 129.084 41.0384 133.537 42.0634 138.548H74.9712C75.8725 123.498 81.8088 109.186 91.8289 97.9057L70.2393 76.3576L46.5875 74.119C45.2262 77.826 42.5588 80.911 39.0842 82.7972C35.6095 84.6833 31.5656 85.2413 27.7087 84.3669C23.8518 83.4925 20.446 81.2455 18.1284 78.0462C15.8107 74.8469 14.7398 70.9143 15.116 66.984C15.4923 63.0536 17.2898 59.3947 20.1725 56.6915C23.0552 53.9882 26.8256 52.4257 30.7786 52.2963C34.7316 52.1669 38.5965 53.4794 41.6504 55.9882C44.7043 58.4971 46.7382 62.0306 47.3716 65.9279L67.5499 67.8377L64.6135 37.8911C60.1525 37.3021 56.0647 35.0949 53.1295 31.6901C50.1943 28.2854 48.617 23.9213 48.6984 19.4301C48.7798 14.9388 50.5141 10.6346 53.5708 7.338C56.6274 4.04145 60.7925 1.98319 65.2719 1.5557C69.7513 1.12821 74.2317 2.36137 77.8586 5.02007C81.4856 7.67877 84.0055 11.577 84.9379 15.9715C85.8702 20.366 85.1498 24.9493 82.914 28.8476C80.6782 32.7459 77.0834 35.6863 72.815 37.1084L76.0925 70.5303V70.5146ZM133.969 320.936C146.95 327.855 161.241 331.978 175.918 333.037C187.569 334.077 199.272 331.708 209.598 326.22V316.976C209.541 311.669 211.19 306.484 214.302 302.182C215.869 299.942 217.107 297.489 217.98 294.899C218.83 292.346 219.471 289.729 219.897 287.072V230.051C219.879 228.114 219.112 226.259 217.755 224.874C216.398 223.488 214.557 222.681 212.617 222.62C210.677 222.56 208.789 223.25 207.348 224.548C205.907 225.846 205.024 227.649 204.885 229.582V239.722C204.852 240.794 204.402 241.812 203.631 242.559C202.859 243.306 201.826 243.723 200.751 243.723C199.676 243.723 198.644 243.306 197.872 242.559C197.1 241.812 196.65 240.794 196.617 239.722V225.958C196.607 224.024 195.849 222.169 194.5 220.78C193.152 219.391 191.319 218.575 189.383 218.504C187.447 218.433 185.558 219.111 184.111 220.397C182.664 221.684 181.771 223.478 181.618 225.406V225.559V233.491C181.585 234.564 181.135 235.581 180.363 236.328C179.591 237.075 178.559 237.493 177.484 237.493C176.409 237.493 175.376 237.075 174.605 236.328C173.833 235.581 173.383 234.564 173.35 233.491V221.332C173.342 219.392 172.583 217.531 171.23 216.139C169.877 214.747 168.037 213.932 166.095 213.866C164.154 213.8 162.262 214.487 160.817 215.783C159.372 217.08 158.486 218.885 158.346 220.819V220.941V227.265C158.346 228.36 157.911 229.41 157.135 230.184C156.359 230.959 155.307 231.394 154.21 231.394C153.113 231.394 152.061 230.959 151.286 230.184C150.51 229.41 150.074 228.36 150.074 227.265V154.296C150.074 152.31 149.284 150.404 147.877 149C146.469 147.595 144.561 146.806 142.571 146.806C140.581 146.806 138.672 147.595 137.265 149C135.858 150.404 135.067 152.31 135.067 154.296V259.031C135.067 260.007 134.721 260.951 134.091 261.696C133.461 262.441 132.586 262.939 131.623 263.103C130.66 263.266 129.67 263.083 128.828 262.587C127.987 262.091 127.348 261.314 127.026 260.393L117.468 239.162C116.502 237.048 114.741 235.398 112.566 234.569C110.391 233.74 107.976 233.799 105.844 234.732L105.59 234.853C103.551 235.845 101.964 237.571 101.148 239.683C100.743 240.688 100.544 241.764 100.561 242.847C100.577 243.93 100.81 244.999 101.246 245.991L131.739 308.718C131.911 309.069 132.031 309.444 132.095 309.829L133.969 320.936ZM206.763 336.716C196.785 340.52 186.086 342.07 175.435 341.255C161.754 340.296 148.362 336.855 135.918 331.1C136.188 331.81 136.535 332.488 136.953 333.123C137.816 334.425 138.944 335.531 140.262 336.371C148.541 341.764 163.886 345.373 178.336 345.373C184.54 345.485 190.723 344.635 196.664 342.852C200.535 341.773 204.031 339.645 206.763 336.704V336.716ZM158.311 199.893C172.176 196.082 184.186 187.381 192.113 175.403C200.04 163.426 203.348 148.985 201.421 134.758C199.495 120.532 192.466 107.486 181.637 98.0389C170.809 88.5922 156.916 83.386 142.535 83.386C128.155 83.386 114.262 88.5922 103.433 98.0389C92.6049 107.486 85.5757 120.532 83.6494 134.758C81.7231 148.985 85.0303 163.426 92.9578 175.403C100.885 187.381 112.895 196.082 126.76 199.893V175.473C119.31 171.903 113.295 165.913 109.702 158.484C106.109 151.055 105.151 142.628 106.984 134.585C108.818 126.541 113.334 119.357 119.794 114.212C126.253 109.066 134.272 106.264 142.535 106.264C150.799 106.264 158.818 109.066 165.277 114.212C171.736 119.357 176.253 126.541 178.086 134.585C179.92 142.628 178.962 151.055 175.369 158.484C171.776 165.913 165.761 171.903 158.311 175.473V199.893ZM126.76 166.006V154.296C126.76 150.12 128.422 146.114 131.38 143.161C134.339 140.207 138.351 138.548 142.535 138.548C146.719 138.548 150.732 140.207 153.69 143.161C156.649 146.114 158.311 150.12 158.311 154.296V166.006C161.252 164.017 163.792 161.495 165.799 158.57C168.693 154.344 170.377 149.409 170.669 144.298C170.962 139.187 169.851 134.093 167.458 129.565C165.064 125.038 161.478 121.248 157.087 118.604C152.695 115.961 147.664 114.564 142.535 114.564C137.407 114.564 132.376 115.961 127.984 118.604C123.592 121.248 120.007 125.038 117.613 129.565C115.22 134.093 114.109 139.187 114.401 144.298C114.694 149.409 116.378 154.344 119.272 158.57C121.279 161.495 123.819 164.017 126.76 166.006ZM12.9858 133.914C10.9503 135.944 9.68296 138.616 9.39974 141.475C9.11653 144.333 9.83496 147.201 11.4326 149.59C13.0303 151.978 15.4082 153.74 18.1614 154.575C20.9145 155.409 23.8723 155.265 26.5308 154.167C29.1893 153.068 31.384 151.083 32.7408 148.551C34.0977 146.018 34.5327 143.094 33.9718 140.276C33.4109 137.459 31.8887 134.924 29.6647 133.101C27.4408 131.279 24.6526 130.283 21.7753 130.283C20.1428 130.28 18.5257 130.599 17.0173 131.223C15.5089 131.846 14.1387 132.761 12.9858 133.914ZM272.085 151.463C274.121 149.433 275.388 146.761 275.671 143.903C275.954 141.044 275.236 138.177 273.638 135.788C272.041 133.399 269.663 131.637 266.909 130.803C264.156 129.968 261.198 130.112 258.54 131.211C255.881 132.309 253.687 134.294 252.33 136.827C250.973 139.36 250.538 142.284 251.099 145.101C251.66 147.918 253.182 150.454 255.406 152.276C257.63 154.099 260.418 155.095 263.295 155.095C264.928 155.097 266.545 154.777 268.053 154.154C269.561 153.53 270.932 152.616 272.085 151.463ZM151.325 13.353C149.291 11.321 146.615 10.0559 143.752 9.77319C140.888 9.49047 138.015 10.2077 135.622 11.8025C133.23 13.3974 131.465 15.7712 130.629 18.5195C129.793 21.2678 129.937 24.2205 131.037 26.8744C132.138 29.5283 134.126 31.7192 136.663 33.0736C139.201 34.4281 142.13 34.8624 144.952 34.3024C147.774 33.7425 150.314 32.223 152.14 30.0029C153.965 27.7828 154.963 24.9994 154.963 22.1272C154.965 20.4977 154.644 18.8839 154.02 17.3782C153.395 15.8726 152.48 14.5047 151.325 13.353ZM31.3607 60.582C29.5151 60.5775 27.725 61.212 26.2954 62.3773C24.8658 63.5426 23.8852 65.1667 23.5206 66.9728C23.156 68.7789 23.43 70.6553 24.2959 72.2824C25.1618 73.9095 26.566 75.1866 28.2693 75.896C29.9726 76.6055 31.8697 76.7035 33.6372 76.1733C35.4048 75.6431 36.9335 74.5175 37.963 72.9883C38.9925 71.4592 39.459 69.621 39.2831 67.7869C39.1072 65.9529 38.2997 64.2365 36.9982 62.9301C36.2604 62.1865 35.3824 61.5961 34.4148 61.1931C33.4471 60.7901 32.4091 60.5823 31.3607 60.582ZM66.9736 9.67422C64.6436 9.67502 62.3859 10.4823 60.5852 11.9585C58.7845 13.4347 57.5523 15.4885 57.0985 17.7699C56.6446 20.0513 56.9972 22.4193 58.0963 24.4703C59.1953 26.5213 60.9727 28.1285 63.1256 29.018C65.2786 29.9075 67.6739 30.0242 69.9034 29.3484C72.1329 28.6726 74.0587 27.246 75.3527 25.3116C76.6467 23.3773 77.2288 21.0549 76.9998 18.7402C76.7709 16.4254 75.745 14.2616 74.097 12.6172C73.1623 11.6825 72.0518 10.9414 70.8294 10.4363C69.607 9.93126 68.2966 9.67227 66.9736 9.67422ZM224.774 31.6763C224.778 29.8339 224.143 28.0469 222.975 26.6198C221.808 25.1928 220.181 24.2138 218.372 23.8499C216.562 23.4859 214.683 23.7594 213.053 24.6238C211.423 25.4882 210.144 26.89 209.433 28.5903C208.722 30.2907 208.624 32.1844 209.155 33.9489C209.686 35.7134 210.814 37.2395 212.346 38.2672C213.877 39.2948 215.719 39.7605 217.556 39.5849C219.393 39.4093 221.113 38.6032 222.421 37.304C223.165 36.5667 223.756 35.6901 224.16 34.7243C224.563 33.7586 224.772 32.7228 224.774 31.6763ZM275.77 67.2468C275.769 64.9208 274.961 62.667 273.482 60.8695C272.003 59.072 269.946 57.8419 267.66 57.3888C265.375 56.9358 263.003 57.2878 260.948 58.3849C258.894 59.482 257.284 61.2563 256.393 63.4055C255.502 65.5547 255.385 67.9458 256.062 70.1715C256.739 72.3971 258.168 74.3196 260.105 75.6113C262.043 76.903 264.37 77.4841 266.688 77.2555C269.007 77.027 271.175 76.0029 272.822 74.3577C273.759 73.4252 274.502 72.3168 275.008 71.0964C275.514 69.8759 275.773 68.5676 275.77 67.2468Z" fill="#05A6A6" stroke="#05A6A6" stroke-width="2"/>
</svg>
