<svg width="30" height="30" viewBox="0 0 30 30" fill="none" xmlns="http://www.w3.org/2000/svg">
<path d="M18.332 6.33384L20.332 8.33384M14.332 10.3338L16.332 12.3338M10.332 14.3338L12.332 16.3338M6.33198 18.3338L8.33198 20.3338M2.41951 22.4215L7.57768 27.5796C7.84169 27.8436 7.9737 27.9757 8.12592 28.0251C8.25981 28.0686 8.40405 28.0686 8.53794 28.0251C8.69016 27.9757 8.82217 27.8436 9.08618 27.5796L27.5777 9.08813C27.8417 8.82412 27.9737 8.69211 28.0232 8.53989C28.0667 8.406 28.0667 8.26177 28.0232 8.12787C27.9737 7.97565 27.8417 7.84365 27.5777 7.57964L22.4195 2.42146C22.1555 2.15745 22.0235 2.02545 21.8713 1.97599C21.7374 1.93248 21.5931 1.93248 21.4593 1.97599C21.307 2.02545 21.175 2.15745 20.911 2.42146L2.41951 20.913C2.1555 21.177 2.02349 21.309 1.97404 21.4612C1.93053 21.5951 1.93053 21.7393 1.97404 21.8732C2.02349 22.0254 2.1555 22.1575 2.41951 22.4215Z" stroke="white" stroke-width="2" stroke-linecap="round" stroke-linejoin="round"/>
</svg>
