<svg width="62" height="62" viewBox="0 0 62 62" fill="none" xmlns="http://www.w3.org/2000/svg">
<path d="M31 1V4M4 31H1M11.5 11.5L9.69971 9.69971M50.5 11.5L52.3007 9.69971M61 31H58M25 35.5H37M31 35.5V50.5M41.5 45.6219C46.0422 42.3543 49 37.0226 49 31C49 21.0589 40.9411 13 31 13C21.0589 13 13 21.0589 13 31C13 37.0226 15.9578 42.3543 20.5 45.6219V51.4C20.5 54.7603 20.5 56.4405 21.154 57.7239C21.7292 58.8529 22.6471 59.7708 23.7761 60.346C25.0595 61 26.7397 61 30.1 61H31.9C35.2603 61 36.9405 61 38.2239 60.346C39.3529 59.7708 40.2708 58.8529 40.846 57.7239C41.5 56.4405 41.5 54.7603 41.5 51.4V45.6219Z" stroke="url(#paint0_linear_1068_32)" stroke-width="2" stroke-linecap="round" stroke-linejoin="round"/>
<defs>
<linearGradient id="paint0_linear_1068_32" x1="31" y1="1" x2="31" y2="61" gradientUnits="userSpaceOnUse">
<stop stop-color="#05A6A6"/>
<stop offset="1" stop-color="#0D5B6A"/>
</linearGradient>
</defs>
</svg>
