<svg width="67" height="67" viewBox="0 0 67 67" fill="none" xmlns="http://www.w3.org/2000/svg">
<path d="M16.3994 1.05361C18.4786 0.0197073 20.8517 -0.263909 23.1162 0.249894C25.3806 0.763775 27.3978 2.04401 28.8271 3.87392L30.0791 5.48329H59.2539C59.745 5.48267 60.2301 5.59048 60.6748 5.79872C61.1195 6.00701 61.5132 6.31076 61.8271 6.68837L66.2236 11.9638C66.7248 12.566 66.9995 13.3248 67 14.1083V63.5497C66.999 64.4379 66.6456 65.2898 66.0176 65.9179C65.3897 66.5457 64.5383 66.8992 63.6504 66.9003H8.93359C8.04545 66.8993 7.19345 66.5459 6.56543 65.9179C5.9374 65.2898 5.58401 64.4379 5.58301 63.5497V27.8163H7.81641V63.5497C7.81674 63.8458 7.93519 64.1294 8.14453 64.3388C8.35387 64.5481 8.63756 64.6665 8.93359 64.6669H63.6504C63.9463 64.6664 64.2302 64.548 64.4395 64.3388C64.6486 64.1294 64.7663 63.8456 64.7666 63.5497V14.4169H61.417V30.0497H48.0166V14.4169H37.0244L39.8887 18.1005C41.9179 19.6662 43.4066 21.8279 44.1455 24.2821C44.8843 26.7363 44.8363 29.3603 44.0088 31.786C43.1812 34.2118 41.6151 36.3176 39.5303 37.8085C37.4455 39.2994 34.9467 40.1004 32.3838 40.0995H26.7998V40.0936C25.0463 40.0957 23.3126 39.7224 21.7158 38.9979C20.119 38.2734 18.6962 37.2145 17.543 35.8934C16.3898 34.5725 15.5326 33.0198 15.0303 31.3397C14.528 29.6597 14.392 27.8913 14.6309 26.1542L14.3809 25.9042C14.2775 25.8003 14.1549 25.7171 14.0195 25.661C13.8841 25.6049 13.7384 25.5767 13.5918 25.577H0V5.47743H7.55273L16.3994 1.05361ZM30.1494 57.9667V60.2001H12.2832V57.9667H30.1494ZM51.0391 49.3602L49.46 50.9393L46.8994 48.3788V60.2001H44.666V48.3788L42.1064 50.9393L40.5273 49.3602L45.7832 44.1044L51.0391 49.3602ZM58.0664 54.1552L60.627 51.5946L62.2061 53.1737L56.9502 58.4296L51.6943 53.1737L53.2734 51.5946L55.833 54.1552V42.3339H58.0664V54.1552ZM26.7998 55.7333H12.2832V53.4999H26.7998V55.7333ZM26.7998 17.7606C25.0684 17.7561 23.3655 18.2025 21.8594 19.0565L25.915 23.1122C26.3853 23.5825 26.7582 24.1413 27.0127 24.7558C27.2671 25.37 27.3984 26.0284 27.3984 26.6933C27.3984 27.3583 27.2672 28.0173 27.0127 28.6317C26.7582 29.2462 26.3853 29.805 25.915 30.2753C25.4447 30.7456 24.886 31.1184 24.2715 31.3729C23.657 31.6274 22.9981 31.7587 22.333 31.7587C21.6681 31.7586 21.0098 31.6273 20.3955 31.3729C19.7811 31.1184 19.2222 30.7456 18.752 30.2753L16.7617 28.285C16.8538 30.2398 17.5155 32.1254 18.6641 33.7099C19.8126 35.2941 21.3986 36.5084 23.2275 37.204C25.0566 37.8996 27.0489 38.0457 28.96 37.6249C30.8711 37.2041 32.6176 36.2344 33.9854 34.8349C35.3531 33.4353 36.2823 31.6672 36.6592 29.747C37.036 27.8267 36.8448 25.8379 36.1074 24.0253C35.37 22.2127 34.1191 20.6547 32.5088 19.5429C30.8985 18.4311 28.9983 17.8138 27.042 17.7665H26.7998V17.7606ZM37.7363 33.4003C36.8569 35.1107 35.5904 36.592 34.0381 37.7274C35.3901 37.5001 36.6815 36.9989 37.833 36.2548C38.9845 35.5106 39.9727 34.5396 40.7354 33.4003H37.7363ZM38.8809 25.5829C39.222 27.4396 39.1315 29.3505 38.6172 31.1669H41.8574C42.4936 29.3743 42.6049 27.4369 42.1797 25.5829H38.8809ZM22.6221 2.42568C20.8608 2.02606 19.0156 2.24756 17.3984 3.05165L8.93359 7.28407V23.3436H13.5918C14.0317 23.3425 14.4676 23.4283 14.874 23.5966C15.2806 23.765 15.6496 24.0131 15.96 24.3251L20.3311 28.6962C20.5939 28.9591 20.9065 29.1672 21.25 29.3095C21.5934 29.4517 21.9613 29.5252 22.333 29.5253C22.7048 29.5253 23.0735 29.4517 23.417 29.3095C23.7605 29.1672 24.073 28.9591 24.3359 28.6962C24.5988 28.4333 24.8069 28.1207 24.9492 27.7772C25.0914 27.4339 25.165 27.0659 25.165 26.6942C25.165 26.3224 25.0915 25.9538 24.9492 25.6102C24.8069 25.2667 24.5979 24.9542 24.335 24.6913L19.8691 20.2255C18.9193 19.2757 18.3858 17.9867 18.3857 16.6434C18.3858 15.3003 18.9194 14.0121 19.8691 13.0624C20.8189 12.1127 22.1071 11.579 23.4502 11.579C24.7934 11.579 26.0815 12.1126 27.0312 13.0624L29.502 15.5331H32.3838C33.3821 15.5328 34.3768 15.6547 35.3457 15.8954L27.0645 5.24501C25.9526 3.82159 24.3835 2.82532 22.6221 2.42568ZM50.25 27.8163H59.1836V14.4169H50.25V27.8163ZM34.0605 17.9091C35.9413 19.2907 37.3926 21.1771 38.2451 23.3495H41.3828C40.6762 21.9308 39.6442 20.6991 38.3721 19.7538C37.0999 18.8085 35.6228 18.1763 34.0605 17.9091ZM2.2334 23.3436H6.7002V7.71083H2.2334V23.3436ZM23.4502 13.8124C23.0784 13.8124 22.7097 13.8859 22.3662 14.0282C22.0229 14.1705 21.711 14.3788 21.4482 14.6415C21.1232 14.9668 20.8819 15.3672 20.7461 15.8065C20.6105 16.2457 20.5842 16.7112 20.6689 17.163C22.3989 16.1621 24.3492 15.6033 26.3467 15.536L25.4521 14.6415C25.1893 14.3786 24.8767 14.1705 24.5332 14.0282C24.1898 13.886 23.8219 13.8124 23.4502 13.8124ZM35.2881 12.1835H63.499L60.1113 8.11806C60.0067 7.9923 59.8757 7.89056 59.7275 7.82118C59.5793 7.75184 59.4175 7.71647 59.2539 7.71669H31.8154L35.2881 12.1835Z" fill="#F7C948"/>
</svg>
