<svg width="64" height="64" viewBox="0 0 64 64" fill="none" xmlns="http://www.w3.org/2000/svg">
<path d="M43.9999 20V11L52.9999 2L55.9999 8L61.9999 11L52.9999 20H43.9999ZM43.9999 20L31.9999 31.9998M62 32C62 48.5685 48.5685 62 32 62C15.4315 62 2 48.5685 2 32C2 15.4315 15.4315 2 32 2M47 32C47 40.2843 40.2843 47 32 47C23.7157 47 17 40.2843 17 32C17 23.7157 23.7157 17 32 17" stroke="url(#paint0_linear_1373_1061)" stroke-width="3" stroke-linecap="round" stroke-linejoin="round"/>
<defs>
<linearGradient id="paint0_linear_1373_1061" x1="32" y1="2" x2="32" y2="62" gradientUnits="userSpaceOnUse">
<stop stop-color="#05A6A6"/>
<stop offset="1" stop-color="#0D5B6A"/>
</linearGradient>
</defs>
</svg>
