<svg width="71" height="72" viewBox="0 0 71 72" fill="none" xmlns="http://www.w3.org/2000/svg">
<path d="M34.4683 8.47107V1.02403C34.4683 0.457475 34.9313 0 35.5046 0C36.0778 0 36.5408 0.457482 36.5408 1.02403V8.47107C36.5408 9.03763 36.0778 9.4951 35.5046 9.4951C34.9313 9.48602 34.4683 9.03762 34.4683 8.47107ZM58.7917 10.1374L53.4634 15.403C53.0618 15.7999 53.0618 16.4513 53.4634 16.8452C53.6688 17.0482 53.9264 17.1482 54.1931 17.1482C54.4598 17.1482 54.7204 17.0482 54.9227 16.8452L60.251 11.5795C60.6526 11.1826 60.6526 10.5312 60.251 10.1374C59.8494 9.73443 59.1902 9.73443 58.7917 10.1374ZM69.4638 33.5692H61.9282C61.3549 33.5692 60.892 34.0267 60.892 34.5932C60.892 35.1598 61.3549 35.6172 61.9282 35.6172H69.4638C70.0371 35.6172 70.5 35.1597 70.5 34.5932C70.5 34.0266 70.0371 33.5692 69.4638 33.5692ZM54.9202 52.338C54.5185 51.9411 53.8594 51.9411 53.4608 52.338C53.0592 52.7349 53.0592 53.3863 53.4608 53.7802L58.7891 59.0458C58.9945 59.2488 59.252 59.3488 59.5188 59.3488C59.7855 59.3488 60.0461 59.2488 60.2484 59.0458C60.65 58.6489 60.65 57.9975 60.2484 57.6037L54.9202 52.338ZM16.0893 16.8386C16.2947 17.0416 16.5522 17.1416 16.8189 17.1416C17.0856 17.1416 17.3462 17.0416 17.5485 16.8386C17.9502 16.4417 17.9502 15.7903 17.5485 15.3964L12.2203 10.1308C11.8187 9.7339 11.1595 9.7339 10.761 10.1308C10.3594 10.5277 10.3594 11.1791 10.761 11.5729L16.0893 16.8386ZM9.0718 33.5684H1.53621C0.962914 33.5684 0.5 34.0259 0.5 34.5924C0.5 35.159 0.97212 35.6074 1.54539 35.6074H9.08099C9.65428 35.6074 10.1172 35.1499 10.1172 34.5834C10.1141 34.0198 9.64507 33.5684 9.0718 33.5684ZM16.0893 52.3372L10.761 57.6029C10.3594 57.9998 10.3594 58.6512 10.761 59.0451C10.9664 59.2481 11.2239 59.348 11.4906 59.348C11.7574 59.348 12.0179 59.248 12.2203 59.0451L17.5485 53.7794C17.9502 53.3825 17.9502 52.7311 17.5485 52.3372C17.1408 51.9434 16.4878 51.9343 16.0893 52.3372ZM24.2813 68.0673C25.2531 68.0673 26.0471 67.2826 26.0471 66.3222C26.0471 65.3617 25.2531 64.5771 24.2813 64.5771C23.3094 64.5771 22.5154 65.3617 22.5154 66.3222C22.5093 67.2826 23.3094 68.0673 24.2813 68.0673ZM47.7249 53.7279C46.1245 55.9699 46.146 57.4211 46.1797 58.8239C46.1797 59.0087 46.1889 59.1874 46.1889 59.3662V60.6386H46.3759C47.8352 60.6386 49.0278 61.8172 49.0278 63.2593V69.3793C49.0278 70.8215 47.8352 72 46.3759 72H21.0252C19.5659 72 18.3733 70.8215 18.3733 69.3793V63.2593C18.3733 61.8172 19.5659 60.6386 21.0252 60.6386H21.2214V52.7887C21.2214 51.9283 20.9853 51.1981 20.4764 50.4923C18.4684 47.7382 17.4076 44.4904 17.4076 41.1059V25.5333C17.4076 22.8883 19.5812 20.7403 22.2576 20.7403C23.349 20.7403 24.3607 21.0978 25.17 21.7007C25.6636 19.5769 27.595 17.9863 29.9035 17.9863C30.9948 17.9863 32.0066 18.3438 32.8159 18.9467C33.3095 16.8229 35.2408 15.2323 37.5493 15.2323C38.7572 15.2323 39.8639 15.6746 40.7131 16.3957C41.452 14.6657 43.1779 13.4568 45.186 13.4568C47.8624 13.4568 50.036 15.6049 50.036 18.2498V25.0455C52.4058 25.1151 54.3066 25.9059 55.5543 27.3481C56.802 28.7902 57.3508 30.7989 57.1392 33.1651L56.5751 39.4093C56.1981 43.6055 52.4548 48.0348 49.7324 51.2676C48.9016 52.231 48.2031 53.0583 47.7249 53.7279ZM42.3874 25.0461L47.9671 25.037V18.2444C47.9671 16.7235 46.7193 15.4904 45.1803 15.4904C43.6412 15.4904 42.3935 16.7234 42.3935 18.2444L42.3966 25.046L42.3874 25.0461ZM34.7445 27.3244C34.7445 28.6423 35.6857 29.7451 36.9427 30.0148C36.7219 29.4725 36.5656 28.8969 36.4889 28.3C36.3724 27.4548 36.6054 26.67 37.1726 26.0277C37.7367 25.3854 38.4909 25.0431 39.3554 25.0431H40.3364V20.0168C40.3364 18.4959 39.0887 17.2628 37.5496 17.2628C36.0107 17.2628 34.7629 18.4958 34.7629 20.0168L34.7598 27.3245L34.7445 27.3244ZM27.1078 30.0784C27.1078 31.5993 28.3555 32.8324 29.8945 32.8324C31.4335 32.8324 32.6813 31.5994 32.6813 30.0784V22.7798C32.6813 21.2589 31.4336 20.0258 29.8945 20.0258C28.3556 20.0258 27.1078 21.2589 27.1078 22.7798V30.0784ZM19.4618 32.8324C19.4618 34.3533 20.7095 35.5864 22.2486 35.5864C23.7876 35.5864 25.0353 34.3534 25.0353 32.8324V25.5338C25.0353 24.0129 23.7876 22.7798 22.2486 22.7798C20.7095 22.7798 19.4618 24.0129 19.4618 25.5338V32.8324ZM46.3759 62.6777H21.0252C20.7033 62.6777 20.4366 62.9413 20.4366 63.2594V69.3794C20.4366 69.6975 20.7033 69.9611 21.0252 69.9611H46.3759C46.6978 69.9611 46.9645 69.6975 46.9645 69.3794V63.2594C46.9645 62.9322 46.7039 62.6777 46.3759 62.6777ZM48.1326 49.9562C50.6924 46.9235 54.1905 42.7819 54.5062 39.2219L55.0703 32.9776C55.2359 31.1719 54.8496 29.6813 53.979 28.6663C53.0592 27.612 51.6245 27.0757 49.6931 27.0757L39.3428 27.0848C39.0853 27.0848 38.8891 27.1787 38.7235 27.3636C38.558 27.5575 38.4967 27.7605 38.5273 28.0149C38.8952 30.5811 41.1639 32.5989 43.6992 32.5989H46.1487C46.7066 32.5989 47.2156 32.8322 47.5834 33.2503C47.9513 33.6684 48.1015 34.2047 48.0218 34.747L47.795 36.274C47.7336 36.6769 47.4424 37.0042 47.05 37.1041C45.3086 37.5768 39.4439 39.546 37.0529 45.0998C36.8321 45.6209 36.222 45.8603 35.6947 45.6361C35.1674 45.418 34.9252 44.815 35.1521 44.2939C37.6629 38.486 43.3622 36.1043 45.8579 35.3202L45.9591 34.6294H43.7149C41.5475 34.6294 39.5639 33.6357 38.212 32.0632C37.9912 32.0935 37.7736 32.1087 37.562 32.1087C36.4707 32.1087 35.4589 31.7512 34.6496 31.1482C34.156 33.2721 32.2247 34.8627 29.9162 34.8627C28.8248 34.8627 27.8131 34.5052 27.0038 33.9023C26.5102 36.0261 24.5788 37.6167 22.2703 37.6167C21.2341 37.6167 20.2684 37.2895 19.4835 36.7411V41.0858C19.4835 44.0397 20.4094 46.8725 22.1691 49.2839C22.9386 50.3382 23.3065 51.4774 23.3065 52.7741V60.624H44.1445V59.3515C44.1445 59.1879 44.1445 59.0183 44.1353 58.8486C44.1046 57.358 44.0648 55.3281 46.0666 52.5347C46.5633 51.8197 47.2926 50.9591 48.1326 49.9562Z" fill="url(#paint0_linear_1373_1668)"/>
<defs>
<linearGradient id="paint0_linear_1373_1668" x1="35.5" y1="0" x2="35.5" y2="72" gradientUnits="userSpaceOnUse">
<stop stop-color="#0BE6E6"/>
<stop offset="1" stop-color="#0B9292" stop-opacity="0.45"/>
</linearGradient>
</defs>
</svg>
