<svg width="63" height="64" viewBox="0 0 63 64" fill="none" xmlns="http://www.w3.org/2000/svg">
<path d="M40.5 0.5C41.3284 0.5 41.9999 1.17163 42 2V9.52637C42.7819 9.54454 43.4905 9.57538 44.1338 9.62793C45.7268 9.75812 47.0576 10.0286 48.2666 10.6445L48.6328 10.8398C50.4409 11.853 51.9117 13.3812 52.8555 15.2334L52.9668 15.4609C53.5048 16.6094 53.75 17.8724 53.8721 19.3662C53.9246 20.0096 53.9555 20.7179 53.9736 21.5H61.5C62.3284 21.5 62.9999 22.1716 63 23C63 23.8284 62.3284 24.5 61.5 24.5H53.999C53.9992 24.792 54 25.0924 54 25.4004V36.5H61.5C62.3284 36.5 62.9999 37.1716 63 38C63 38.8284 62.3284 39.5 61.5 39.5H53.999C53.9975 41.5739 53.9849 43.2523 53.8721 44.6338C53.75 46.1277 53.5048 47.3906 52.9668 48.5391L52.8555 48.7666C51.9117 50.6189 50.441 52.147 48.6328 53.1602L48.2666 53.3555C47.0575 53.9714 45.7269 54.2419 44.1338 54.3721C43.4905 54.4246 42.7819 54.4545 42 54.4727V62C42 62.8284 41.3284 63.5 40.5 63.5C39.6718 63.4998 39 62.8283 39 62V54.498C38.7081 54.4983 38.4075 54.5 38.0996 54.5H24.9004C24.5925 54.5 24.2919 54.4983 24 54.498V62C24 62.8284 23.3284 63.5 22.5 63.5C21.6718 63.4998 21 62.8283 21 62V54.4727C20.2181 54.4545 19.5095 54.4246 18.8662 54.3721C17.3725 54.25 16.1093 54.0047 14.9609 53.4668L14.7334 53.3555C12.8813 52.4117 11.353 50.9409 10.3398 49.1328L10.1445 48.7666C9.52859 47.5575 9.25812 46.2269 9.12793 44.6338C9.01507 43.2523 9.00247 41.5739 9.00098 39.5H1.5C0.671769 39.4998 0 38.8283 0 38C6.59381e-05 37.1718 0.67181 36.5002 1.5 36.5H9V25.4004C9 25.0924 9.00077 24.792 9.00098 24.5H1.5C0.671769 24.4998 0 23.8283 0 23C6.59381e-05 22.1718 0.67181 21.5002 1.5 21.5H9.02637C9.04455 20.7179 9.07536 20.0096 9.12793 19.3662C9.25813 17.7731 9.52853 16.4425 10.1445 15.2334L10.3398 14.8672C11.353 13.0591 12.8812 11.5883 14.7334 10.6445L14.9609 10.5332C16.1093 9.99527 17.3725 9.75003 18.8662 9.62793C19.5095 9.57537 20.218 9.54455 21 9.52637V2C21.0001 1.17177 21.6718 0.500231 22.5 0.5C23.3284 0.5 23.9999 1.17163 24 2V9.50098C24.2919 9.50077 24.5925 9.5 24.9004 9.5H38.0996C38.4075 9.5 38.7081 9.50076 39 9.50098V2C39.0001 1.17177 39.6718 0.500231 40.5 0.5ZM24.9004 12.5C22.3559 12.5 20.5367 12.5008 19.1113 12.6172C17.8793 12.7179 17.0416 12.8994 16.3721 13.1875L16.0947 13.3174C14.7718 13.9916 13.6806 15.0425 12.957 16.334L12.8174 16.5947C12.4526 17.3106 12.2322 18.2034 12.1172 19.6113C12.0008 21.0368 12 22.8557 12 25.4004V38.5996C12 41.1443 12.0008 42.9632 12.1172 44.3887C12.2322 45.7965 12.4527 46.6894 12.8174 47.4053L12.957 47.666C13.6806 48.9575 14.7719 50.0084 16.0947 50.6826L16.3721 50.8125C17.0416 51.1006 17.8793 51.2821 19.1113 51.3828C20.5367 51.4992 22.3559 51.5 24.9004 51.5H38.0996C40.6441 51.5 42.4633 51.4992 43.8887 51.3828C45.2965 51.2678 46.1894 51.0473 46.9053 50.6826L47.166 50.543C48.4576 49.8193 49.5084 48.7283 50.1826 47.4053L50.3125 47.1279C50.6006 46.4583 50.7821 45.6209 50.8828 44.3887C50.9992 42.9632 51 41.1443 51 38.5996V25.4004C51 22.8557 50.9992 21.0368 50.8828 19.6113C50.7821 18.3792 50.6006 17.5417 50.3125 16.8721L50.1826 16.5947C49.5084 15.2718 48.4575 14.1806 47.166 13.457L46.9053 13.3174C46.1894 12.9527 45.2964 12.7322 43.8887 12.6172C42.4633 12.5008 40.6441 12.5 38.0996 12.5H24.9004ZM31.7588 17.4551C32.1888 17.0126 32.8521 16.8761 33.4268 17.123C34.0013 17.3701 34.3582 17.9451 34.333 18.5615L34.3232 18.6846L33.1963 27.8008H41.2285C41.5616 27.8008 41.9166 27.7997 42.2061 27.8262C42.4331 27.847 42.8653 27.8988 43.2773 28.1631L43.4521 28.29L43.6348 28.458C43.979 28.8125 44.1911 29.2731 44.2393 29.7617L44.25 30.0088C44.241 30.5939 43.9588 31.0372 43.8115 31.2529C43.7296 31.3729 43.6311 31.5012 43.5273 31.6318L43.2061 32.0264L31.3242 46.4541C30.9001 46.9687 30.186 47.1423 29.5732 46.8789C28.9608 46.6155 28.5954 45.979 28.6768 45.3174L29.8037 36.2012H21.7715C21.4384 36.2012 21.0834 36.2023 20.7939 36.1758C20.5669 36.155 20.1346 36.1031 19.7227 35.8389L19.5479 35.7119C19.0313 35.2894 18.7403 34.6543 18.75 33.9932L18.7656 33.7803C18.8276 33.301 19.0595 32.938 19.1885 32.749C19.3525 32.5088 19.5803 32.235 19.7939 31.9756L31.6758 17.5479L31.7588 17.4551ZM22.6709 33.2012H31.5C31.9298 33.2012 32.3393 33.3851 32.624 33.707C32.9086 34.0291 33.041 34.4582 32.9883 34.8848L32.2861 40.5664L40.3291 30.8008H31.5C31.0703 30.8007 30.6606 30.6167 30.376 30.2949C30.0914 29.973 29.9592 29.5436 30.0117 29.1172L30.7129 23.4346L22.6709 33.2012Z" fill="url(#paint0_linear_1373_1441)"/>
<defs>
<linearGradient id="paint0_linear_1373_1441" x1="31.5" y1="0.5" x2="31.5" y2="63.5" gradientUnits="userSpaceOnUse">
<stop stop-color="#05A6A6"/>
<stop offset="1" stop-color="#0D5B6A"/>
</linearGradient>
</defs>
</svg>
