<svg width="72" height="72" viewBox="0 0 72 72" fill="none" xmlns="http://www.w3.org/2000/svg">
<path d="M25.5 1V8M46.5 1V8M25.5 64V71M46.5 64V71M64 25.5H71M64 43H71M1 25.5H8M1 43H8M24.8 64H47.2C53.0806 64 56.0208 64 58.2669 62.8556C60.2426 61.8489 61.8489 60.2426 62.8556 58.2669C64 56.0208 64 53.0806 64 47.2V24.8C64 18.9194 64 15.9792 62.8556 13.7331C61.8489 11.7574 60.2426 10.1511 58.2669 9.14443C56.0208 8 53.0806 8 47.2 8H24.8C18.9194 8 15.9792 8 13.7331 9.14443C11.7574 10.1511 10.1511 11.7574 9.14443 13.7331C8 15.9792 8 18.9194 8 24.8V47.2C8 53.0806 8 56.0208 9.14443 58.2669C10.1511 60.2426 11.7574 61.8489 13.7331 62.8556C15.9792 64 18.9194 64 24.8 64ZM31.1 46.5H40.9C42.8602 46.5 43.8403 46.5 44.589 46.1185C45.2475 45.783 45.783 45.2475 46.1185 44.589C46.5 43.8403 46.5 42.8602 46.5 40.9V31.1C46.5 29.1398 46.5 28.1597 46.1185 27.411C45.783 26.7525 45.2475 26.217 44.589 25.8815C43.8403 25.5 42.8602 25.5 40.9 25.5H31.1C29.1398 25.5 28.1597 25.5 27.411 25.8815C26.7525 26.217 26.217 26.7525 25.8815 27.411C25.5 28.1597 25.5 29.1398 25.5 31.1V40.9C25.5 42.8602 25.5 43.8403 25.8815 44.589C26.217 45.2475 26.7525 45.783 27.411 46.1185C28.1597 46.5 29.1398 46.5 31.1 46.5Z" stroke="url(#paint0_linear_749_271)" stroke-width="2" stroke-linecap="round" stroke-linejoin="round"/>
<defs>
<linearGradient id="paint0_linear_749_271" x1="36" y1="1" x2="36" y2="71" gradientUnits="userSpaceOnUse">
<stop stop-color="#0BE6E6"/>
<stop offset="1" stop-color="#0B9292" stop-opacity="0.45"/>
</linearGradient>
</defs>
</svg>
