<svg width="67" height="67" viewBox="0 0 67 67" fill="none" xmlns="http://www.w3.org/2000/svg">
<path fill-rule="evenodd" clip-rule="evenodd" d="M44.7964 2.00313C41.1031 0.67217 37.0827 -0.0439233 33.1435 0.00208743C12.0672 0.246362 -3.504 19.4713 0.683663 40.187C3.17987 52.5329 12.7071 62.6059 24.8878 65.7823L25.0209 65.8173L25.1138 65.8418C26.1549 66.1165 27.7494 66.5374 28.6656 66.3001C30.8297 65.7397 31.3709 62.8836 29.5607 61.5276C29.0145 61.1186 27.7201 60.8371 26.5851 60.5902L26.5851 60.5902L26.585 60.5902C26.039 60.4714 25.53 60.3607 25.1588 60.2476C15.1381 57.2001 7.51142 48.5308 5.77896 38.1826C2.63612 19.4102 18.4373 3.10321 37.2843 5.6706C41.4302 6.23612 45.494 7.79964 48.9506 10.1295L46.6518 13.5108C46.405 14.4302 47.0642 14.5741 47.8238 14.5155C49.1264 14.3521 50.4421 14.2495 51.7575 14.1469L51.7576 14.1469C53.6402 14.0002 55.5221 13.8534 57.3644 13.5284C57.9073 13.2699 58.1608 12.7956 58.2185 12.21C57.8435 10.9453 57.5179 9.63405 57.1915 8.31958L57.1915 8.31952L57.1915 8.31944L57.1915 8.31934L57.1914 8.31922L57.1914 8.31905L57.1913 8.31883C56.7511 6.546 56.3095 4.76729 55.7432 3.08899C55.4153 2.11774 55.0171 1.61163 54.1747 2.56697C53.7824 3.01231 53.431 3.57477 53.0798 4.13686L53.0798 4.13691C52.7719 4.62962 52.4642 5.12205 52.1294 5.53508L51.9353 5.64885C49.7352 4.16229 47.2976 2.90494 44.7964 2.00313ZM33.9032 13.5623C33.6865 12.2807 32.574 11.5588 31.3008 11.7763L31.2999 11.7771C30.3764 11.9344 29.626 12.8872 29.5683 13.8049L29.6085 35.573L49.3137 45.7815C51.876 46.9075 53.7264 43.9152 51.7045 42.1367L33.9551 32.8969L33.9032 13.5623ZM57.6219 49.2182C59.6262 48.9555 61.1445 50.8629 60.5229 52.7869C60.3423 53.3458 59.1084 54.926 58.6458 55.3385C56.3252 57.4098 52.8101 54.619 54.6145 51.809C55.2461 50.8261 56.4081 49.3771 57.6219 49.2182ZM66.8351 34.362C67.0509 32.187 66.6385 29.1854 63.7241 29.5794L63.7249 29.5803C62.7989 29.7058 61.9732 30.3984 61.6411 31.2567C61.3375 32.0414 61.4027 33.6669 61.4897 34.5293C61.7909 37.5159 66.5139 37.6012 66.8351 34.362ZM61.4671 19.3838C62.7043 19.2148 63.796 19.7627 64.3681 20.8678C65.2247 22.5217 65.9458 24.9945 63.9356 26.1147C61.2805 27.5937 59.8659 24.8582 59.3389 22.7225C58.9717 21.2325 59.9036 19.5962 61.4671 19.3838ZM52.4974 60.7207C53.9914 58.7798 52.3903 56.0727 49.9359 56.404C49.2391 56.4977 47.1018 57.8304 46.6626 58.395C45.2338 60.2329 46.6743 62.9124 48.994 62.7326C49.8397 62.6673 51.9812 61.3916 52.4974 60.7207ZM62.3027 39.9417C64.1439 39.6924 65.6203 41.1212 65.4146 42.9709C65.3401 43.6393 64.5646 45.6813 64.1196 46.1883C62.8933 47.587 60.4598 47.2005 59.691 45.519C59.1674 44.3746 59.7713 42.6789 60.254 41.5696C60.6221 40.7222 61.3616 40.0697 62.3027 39.9417ZM42.2104 65.5589C44.6238 64.1468 43.4159 60.2986 40.4939 60.5839V60.5831C39.9602 60.6358 38.344 61.0047 37.8647 61.2121C35.1828 62.3741 36.118 66.5728 39.3002 66.3243C39.9777 66.2716 41.6416 65.8918 42.2104 65.5589Z" fill="#F7C948"/>
</svg>
