<svg width="32" height="33" viewBox="0 0 32 33" fill="none" xmlns="http://www.w3.org/2000/svg">
<path d="M11.173 24.0448L8.83955 21.7114C8.676 21.5478 8.45913 21.4662 8.24187 21.4662C8.02341 21.4662 7.80654 21.5474 7.64379 21.709L2.01676 27.3372C1.87431 27.496 1.80268 27.7005 1.80268 27.9058C1.80268 28.1235 1.88465 28.3408 2.0474 28.5035L4.40907 30.8668C4.56824 31.0092 4.77238 31.0813 4.9781 31.0813C5.19696 31.0813 5.41463 30.9997 5.57738 30.8381L5.65577 30.7597L4.4998 29.6034C4.17311 29.2747 4.1743 28.7427 4.50298 28.416C4.83167 28.0893 5.36369 28.0905 5.69039 28.4192L6.84277 29.5719L7.77988 28.634L6.6263 27.4805C6.29762 27.1518 6.29762 26.6186 6.6263 26.2899C6.95498 25.9612 7.4882 25.9612 7.81689 26.2899L8.97007 27.4431L9.90717 26.5055L8.75558 25.354C8.4269 25.0273 8.42571 24.4952 8.7524 24.1665C9.0791 23.8379 9.61112 23.8367 9.9398 24.1634L11.0942 25.3177L11.1726 25.2393C11.3361 25.0758 11.4177 24.8589 11.4177 24.6417C11.4177 24.4248 11.3361 24.2079 11.173 24.0448ZM20.1298 15.7218L30.8431 26.118C31.2195 26.4829 31.5072 26.8935 31.7014 27.3456C31.8944 27.7936 31.9955 28.2843 31.9998 28.8119C32.0042 29.3384 31.9131 29.831 31.7285 30.283C31.5406 30.7434 31.2605 31.1605 30.8916 31.5293L30.6461 31.7749C30.2772 32.1437 29.8602 32.4239 29.3998 32.6117L29.3266 32.6376C28.8905 32.8047 28.4225 32.8867 27.9291 32.8827C27.4011 32.8783 26.9112 32.7776 26.4628 32.585C26.0111 32.3904 25.6005 32.1027 25.2352 31.7259L14.8386 21.0126L12.6524 23.1988C12.9529 23.6309 13.1025 24.1371 13.1025 24.6417C13.1025 25.2883 12.8566 25.9365 12.3639 26.4291L6.76637 32.0271C6.27016 32.5198 5.62314 32.7661 4.9781 32.7661C4.35536 32.7661 3.73062 32.5361 3.24515 32.0777L0.856818 29.6941C0.364587 29.2019 0.117875 28.5529 0.117875 27.9058C0.117875 27.2831 0.347476 26.6587 0.806281 26.1729C1.24638 25.6914 6.42495 20.5267 6.45798 20.52C6.95061 20.0281 7.59723 19.7814 8.24187 19.7814C8.74683 19.7814 9.25299 19.9314 9.68513 20.2323L11.9163 18.0011L9.75119 15.7704C9.4993 15.5109 9.2116 15.3259 8.90361 15.222C8.59363 15.1174 8.2546 15.0903 7.90323 15.1444C6.80855 15.3143 5.69914 15.2411 4.66733 14.92C3.66615 14.6088 2.73302 14.0633 1.9519 13.2821C0.97699 12.3104 0.370158 11.0975 0.12464 9.80428C-0.125654 8.48675 0.00168137 7.08566 0.500677 5.77331C0.663825 5.33917 1.14889 5.11992 1.58303 5.28307C1.69882 5.32644 1.7991 5.39289 1.88107 5.47526L4.66613 8.25795C4.82928 8.42109 5.04615 8.50307 5.26341 8.50307C5.47829 8.50665 5.69516 8.42348 5.86109 8.25755L7.3744 6.74424C7.53794 6.5807 7.61991 6.36383 7.61991 6.14696C7.61991 5.9285 7.53834 5.71123 7.37678 5.54808L4.59093 2.7654C4.26224 2.43672 4.26224 1.9035 4.59093 1.57481C4.6924 1.47334 4.81336 1.40331 4.94189 1.36431C6.23912 0.881629 7.62071 0.760262 8.92112 1.00737C10.2144 1.25329 11.4272 1.86012 12.4006 2.83345C13.1797 3.61258 13.7241 4.54611 14.0368 5.55087C14.3575 6.58229 14.4312 7.6921 14.2612 8.78599C14.2071 9.13696 14.2354 9.47599 14.34 9.78637C14.4443 10.0952 14.6297 10.3841 14.8876 10.6343L17.1179 12.7991L23.3196 6.59741L23.7008 4.64559C23.7437 4.43429 23.8659 4.23852 24.0593 4.10919L28.4408 1.18047C28.7711 0.921422 29.2506 0.943705 29.555 1.24812L31.6357 3.32886C31.9123 3.60781 31.9648 4.05229 31.738 4.39132L28.8025 8.78321C28.6844 8.98376 28.4846 9.13497 28.2383 9.18312L26.2873 9.56433L20.1298 15.7218ZM16.0268 19.8244L26.4393 30.5544C26.647 30.7689 26.8774 30.9313 27.1273 31.0387C27.3776 31.1461 27.6506 31.2026 27.9426 31.205C28.2204 31.2074 28.4786 31.1644 28.713 31.0773L28.7679 31.0526C29.0142 30.9523 29.2446 30.7952 29.4555 30.5843L29.701 30.3387C29.9119 30.1278 30.0691 29.8974 30.1694 29.6511C30.2733 29.3969 30.3246 29.1199 30.3222 28.8254C30.3198 28.5338 30.2633 28.2608 30.1551 28.0101C30.0476 27.7594 29.8853 27.529 29.6716 27.3221L18.9416 16.9096L16.0268 19.8244ZM15.9301 13.9873L13.7161 11.8385C13.2656 11.4011 12.9382 10.885 12.7475 10.3196C12.5589 9.75931 12.5068 9.15327 12.6035 8.52973C12.7336 7.6913 12.6771 6.84094 12.4316 6.05066C12.1988 5.30256 11.7921 4.6062 11.21 4.02403C10.4818 3.29583 9.5761 2.8422 8.61154 2.65876C8.02977 2.54853 7.42493 2.53421 6.82208 2.61538L8.56538 4.35869C9.05801 4.8549 9.30472 5.50232 9.30472 6.14696C9.30472 6.79398 9.05761 7.4422 8.56538 7.93443L7.05168 9.44814C6.56144 9.93838 5.91243 10.1839 5.26341 10.1843C4.61679 10.1879 3.96818 9.94116 3.47555 9.44853L1.73225 7.70523C1.65107 8.30808 1.6654 8.91293 1.77602 9.49469C1.95906 10.4597 2.41309 11.3653 3.14089 12.0931C3.71947 12.6753 4.41584 13.0812 5.16712 13.3148C5.95739 13.5607 6.80815 13.6168 7.64697 13.4867C8.27092 13.3904 8.87655 13.4409 9.43683 13.6295C10.0011 13.8197 10.516 14.1464 10.9553 14.5989L13.1041 16.8129L15.9301 13.9873ZM11.4897 21.9804L25.2777 8.19269C25.4087 8.06177 25.5718 7.98338 25.7413 7.95672L27.5746 7.59859L29.9581 4.03239L28.8515 2.92576L25.2857 5.30933L24.9216 7.17281C24.8882 7.34352 24.8054 7.49194 24.6908 7.60654L10.904 21.3946L11.4897 21.9804Z" fill="url(#paint0_linear_1351_2921)"/>
<defs>
<linearGradient id="paint0_linear_1351_2921" x1="16" y1="0.882812" x2="16" y2="32.8828" gradientUnits="userSpaceOnUse">
<stop stop-color="#05A6A6"/>
<stop offset="1" stop-color="#0D5B6A"/>
</linearGradient>
</defs>
</svg>
