<svg width="30" height="26" viewBox="0 0 30 26" fill="none" xmlns="http://www.w3.org/2000/svg">
<path d="M28.3346 24.3332L26.3346 22.3332M28.3346 8.33317H1.66797M28.3346 10.9998V5.93317C28.3346 4.4397 28.3346 3.69296 28.044 3.12253C27.7883 2.62077 27.3804 2.21282 26.8786 1.95716C26.3082 1.6665 25.5614 1.6665 24.068 1.6665H5.93464C4.44116 1.6665 3.69443 1.6665 3.12399 1.95715C2.62223 2.21282 2.21428 2.62076 1.95862 3.12253C1.66797 3.69296 1.66797 4.4397 1.66797 5.93317V16.0665C1.66797 17.56 1.66797 18.3067 1.95862 18.8771C2.21428 19.3789 2.62223 19.7869 3.12399 20.0425C3.69443 20.3332 4.44116 20.3332 5.93463 20.3332H13.0013M27.668 18.9998C27.668 21.5772 25.5786 23.6665 23.0013 23.6665C20.424 23.6665 18.3346 21.5772 18.3346 18.9998C18.3346 16.4225 20.424 14.3332 23.0013 14.3332C25.5786 14.3332 27.668 16.4225 27.668 18.9998Z" stroke="url(#paint0_linear_862_1961)" stroke-width="2" stroke-linecap="round" stroke-linejoin="round"/>
<defs>
<linearGradient id="paint0_linear_862_1961" x1="15.0013" y1="1.6665" x2="15.0013" y2="24.3332" gradientUnits="userSpaceOnUse">
<stop stop-color="#05A6A6"/>
<stop offset="1" stop-color="#0D5B6A"/>
</linearGradient>
</defs>
</svg>
