<svg width="32" height="33" viewBox="0 0 32 33" fill="none" xmlns="http://www.w3.org/2000/svg">
<g clip-path="url(#clip0_1373_779)">
<path d="M2.84973 6.02441C3.69449 6.07374 4.70987 5.91605 5.5343 6.01074C5.80357 6.04208 5.94243 6.17934 5.97375 6.4502C6.07157 7.29257 5.90845 8.32986 5.96008 9.19336C5.8152 9.48848 5.40788 9.60301 5.15344 9.37988C5.12025 9.35085 4.97795 9.10799 4.97668 9.08887V7.88867L4.55383 8.43262C0.253222 14.5545 1.49842 22.915 7.35168 27.5195C11.9554 31.1406 18.2275 31.4774 23.2501 28.4844C23.5068 28.3317 24.3488 27.6874 24.5284 27.6494C24.9721 27.5566 25.325 28.1231 25.0138 28.4902C24.7365 28.8167 23.3449 29.6117 22.9054 29.8389C15.9096 33.4537 7.28365 31.0141 3.19348 24.3535C-0.112888 18.9683 0.344487 11.8616 4.39075 7.00879H2.89661C2.87793 7.00782 2.63316 6.86317 2.60559 6.83105C2.40145 6.59078 2.51507 6.09918 2.84973 6.02441ZM14.63 5.15039C15.0731 4.95154 16.8127 4.95067 17.2687 5.11816C18.0358 5.40081 18.207 6.6215 18.5236 7.28809L18.8097 7.36621C19.4704 7.56598 20.0817 7.88766 20.7072 8.17676C21.9504 7.78842 22.4956 6.93132 23.6935 7.94824C24.121 8.31153 25.0542 9.22435 25.0607 9.79199C25.0669 10.3596 24.4698 11.1619 24.3351 11.6982C24.2823 11.9099 24.7001 12.5564 24.8068 12.8125C24.9633 13.1907 25.0827 13.5798 25.2032 13.9697C25.8077 14.2571 27.0123 14.47 27.3224 15.1025C27.5555 15.5797 27.5555 17.427 27.3224 17.9033C26.9935 18.5758 25.7944 18.7192 25.1876 19.0645C25.0192 19.8323 24.6357 20.5139 24.3155 21.2207C24.704 22.4636 25.5607 23.0096 24.5441 24.208C24.1666 24.6528 23.2463 25.5969 22.6466 25.582C22.1167 25.5678 21.3166 24.9813 20.796 24.8496C20.5829 24.7959 19.9386 25.2157 19.6818 25.3223C19.3076 25.4772 18.912 25.6004 18.5245 25.7178C18.2388 26.3223 18.0235 27.5286 17.3917 27.8379C16.9143 28.0709 15.0684 28.0709 14.5919 27.8379C13.9242 27.5113 13.7689 26.3084 13.4347 25.6992C12.6644 25.5363 11.9832 25.1502 11.2755 24.8301C10.0402 25.2271 9.47995 26.0693 8.28918 25.0586C7.84442 24.6812 6.90048 23.7599 6.91614 23.1602C6.93043 22.6238 7.51859 21.8237 7.64856 21.3086C7.70143 21.0977 7.28235 20.4485 7.1759 20.1934C7.0194 19.8169 6.89133 19.4284 6.77942 19.0371C6.17478 18.7515 4.96945 18.5367 4.66028 17.9043C4.42706 17.4264 4.42702 15.5786 4.66028 15.1025C4.98151 14.4467 6.19534 14.279 6.79504 13.9424C6.96341 13.1744 7.34791 12.493 7.66809 11.7861C7.24451 10.4725 6.40858 9.98673 7.49426 8.7373C7.88335 8.2895 8.75912 7.38507 9.38391 7.43262C9.93653 7.47489 10.667 8.02648 11.1876 8.1582C11.399 8.21143 12.0467 7.79135 12.3029 7.68555C12.6706 7.53296 13.0481 7.40409 13.4347 7.30859C13.7682 6.6901 13.9388 5.45978 14.63 5.15039ZM16.8702 1.5C17.2247 1.59772 17.6372 1.57712 18.005 1.62402C24.3525 2.44378 29.5914 7.45326 30.7384 13.7373L30.9894 15.625C30.9644 16.2065 31.023 16.8029 30.9894 17.3828C30.9816 17.5236 30.9472 17.7664 30.9308 17.9395C30.652 20.8826 29.4538 23.7269 27.5919 25.999H29.0861C29.1066 26.0012 29.3495 26.1447 29.3771 26.1768C29.5812 26.4172 29.4669 26.909 29.132 26.9834C28.288 26.9341 27.271 27.0926 26.4474 26.9971C26.1769 26.9656 26.0402 26.8267 26.0089 26.5576C25.9119 25.7152 26.0733 24.678 26.0216 23.8145C26.1664 23.5194 26.5738 23.4051 26.8282 23.6279C26.8609 23.6559 27.0027 23.8982 27.005 23.9189V25.0625C31.0882 20.032 30.9161 12.6084 26.8282 7.62793C22.2738 2.07711 14.5338 0.939751 8.4386 4.69922C8.19597 4.84876 7.71362 5.27432 7.49817 5.34277C7.0191 5.4929 6.6119 4.88681 7.03137 4.46484C7.31023 4.18461 8.13789 3.69799 8.50989 3.4834C10.4414 2.37084 12.8365 1.63 15.0538 1.5H16.8702ZM16.9718 6.08594C16.8533 5.97588 15.1878 5.97206 15.0343 6.06641C14.7211 6.48617 14.4745 7.81483 14.1183 8.09668C13.8935 8.27354 12.9738 8.48474 12.6114 8.63965C12.2075 8.81271 11.5711 9.29659 11.171 9.22168C10.6911 9.13154 9.8314 8.51617 9.39368 8.47363C9.20506 8.45576 9.02344 8.64391 8.87317 8.76758C8.70943 8.90239 7.9857 9.63844 7.96203 9.79492C8.01449 10.3555 8.76632 11.3916 8.72961 11.9014C8.71472 12.1104 8.23317 12.8765 8.11243 13.1641C7.94332 13.5665 7.82881 14.2046 7.65735 14.5264C7.59472 14.6428 7.50529 14.7218 7.3927 14.7891C6.90411 15.0779 6.12107 15.2213 5.60364 15.5039C5.51933 15.565 5.51419 15.6759 5.50403 15.7705C5.47902 16.0073 5.47563 17.3306 5.55774 17.4609C5.9777 17.774 7.30411 18.0199 7.58606 18.376C7.76299 18.5999 7.97499 19.5203 8.13 19.8828C8.30224 20.2868 8.78627 20.9241 8.71203 21.3242C8.62197 21.8042 8.00627 22.6641 7.96399 23.1025C7.94607 23.2919 8.15843 23.5025 8.28528 23.6543C8.41204 23.8061 9.13516 24.5123 9.28528 24.5342C9.85129 24.488 10.8802 23.731 11.3907 23.7676C11.5998 23.7826 12.3655 24.2628 12.6525 24.3838C13.0548 24.5529 13.6927 24.6676 14.0138 24.8398C14.1303 24.9024 14.209 24.9919 14.2755 25.1045C14.5644 25.593 14.7078 26.3762 14.9904 26.8945C15.0514 26.979 15.1623 26.984 15.257 26.9941C15.4926 27.0192 16.8159 27.0226 16.9474 26.9404C17.2605 26.5207 17.5063 25.1934 17.8624 24.9111C18.0871 24.7326 18.9776 24.5329 19.3292 24.3857C19.6517 24.2503 20.1798 23.8778 20.4405 23.7979C21.0317 23.6182 22.0384 24.4798 22.588 24.5332C22.7774 24.5511 22.9877 24.3385 23.1388 24.2109C23.2897 24.0834 23.9954 23.3623 24.0187 23.2109C23.9725 22.6449 23.2154 21.615 23.2521 21.1045C23.2669 20.8956 23.7473 20.1296 23.8683 19.8418C24.0374 19.4394 24.1519 18.8013 24.3234 18.4795C24.3859 18.363 24.4755 18.2841 24.588 18.2168C25.0765 17.928 25.8595 17.7845 26.3771 17.502C26.4616 17.4409 26.4675 17.3301 26.4777 17.2354C26.5027 16.9986 26.5061 15.6748 26.4239 15.5449C26.0042 15.2318 24.6765 14.9861 24.3947 14.6299C24.2162 14.4047 24.0164 13.5146 23.8693 13.1631C23.697 12.7513 23.1938 12.0825 23.2687 11.6816C23.3626 11.1798 23.8861 10.4389 24.0177 9.90332C24.0357 9.71463 23.8231 9.50267 23.6954 9.35156C23.5676 9.20023 22.8442 8.49282 22.6954 8.47168C22.3011 8.41624 21.1311 9.27791 20.5909 9.23926C20.3801 9.22334 19.6155 8.74261 19.3282 8.62207C18.9259 8.4531 18.2889 8.33908 17.9679 8.16699C17.8514 8.10439 17.7717 8.01497 17.7052 7.90234C17.5063 7.56554 17.1513 6.25504 16.9728 6.08594H16.9718ZM15.9904 9.00195C20.1313 9.00195 23.4882 12.3603 23.4884 16.502C23.4884 20.6438 20.1314 24.002 15.9904 24.002C11.8495 24.0017 8.49328 20.6437 8.49328 16.502C8.4935 12.3604 11.8496 9.00217 15.9904 9.00195ZM15.9904 10.0039C12.4022 10.0041 9.49231 12.9142 9.49231 16.5039C9.49231 20.0937 12.4022 23.0037 15.9904 23.0039C19.5787 23.0039 22.4884 20.0938 22.4884 16.5039C22.4884 12.914 19.5787 10.0039 15.9904 10.0039ZM16.0001 11.5029C16.2924 11.5031 16.5294 11.7348 16.5294 12.0205V12.5381H16.8234C18.0254 12.5381 19 13.4904 19.0001 14.665C18.9999 14.9506 18.763 15.1816 18.4708 15.1816C18.1785 15.1816 17.9417 14.9506 17.9415 14.665C17.9414 14.0619 17.4406 13.5732 16.8234 13.5732H15.2941C14.6118 13.5733 14.0587 14.1135 14.0587 14.7803C14.0589 15.4469 14.612 15.9873 15.2941 15.9873H16.7062C17.9731 15.9874 19.0001 16.9913 19.0001 18.2295C19 19.4676 17.9731 20.4716 16.7062 20.4717H16.5294V20.9893C16.5292 21.2747 16.2923 21.5057 16.0001 21.5059C15.7079 21.5058 15.471 21.2748 15.4708 20.9893V20.4717H15.1759C13.9741 20.4714 13.0001 19.5183 13.0001 18.3438C13.0004 18.0583 13.2373 17.8272 13.5294 17.8271C13.8215 17.8272 14.0584 18.0583 14.0587 18.3438C14.0587 18.9468 14.5589 19.4362 15.1759 19.4365H16.7062C17.3883 19.4364 17.9414 18.8961 17.9415 18.2295C17.9415 17.5628 17.3883 17.0216 16.7062 17.0215H15.2941C14.0272 17.0214 13.0003 16.0184 13.0001 14.7803C13.0001 13.542 14.0271 12.5381 15.2941 12.5381H15.4708V12.0205C15.4708 11.7348 15.7078 11.503 16.0001 11.5029Z" fill="white"/>
</g>
<defs>
<clipPath id="clip0_1373_779">
<rect width="30" height="30.0094" fill="white" transform="translate(1 1.5)"/>
</clipPath>
</defs>
</svg>
