<svg width="53" height="71" viewBox="0 0 53 71" fill="none" xmlns="http://www.w3.org/2000/svg">
<path d="M49.3945 0C51.124 0.566532 52.4117 1.78782 52.6748 3.65332L52.6611 61.3701C51.543 66.5795 45.7448 64.3885 41.9404 64.9609C41.785 65.0551 40.8383 67.1028 40.7852 67.3838C40.5953 68.4017 41.2391 70.7503 39.9268 71L19.6211 70.8906C18.4597 70.3944 19.2632 68.0335 18.9062 66.9824L10.4609 54.4766C8.35023 54.5513 6.04819 54.6017 5.71484 51.9902L5.78516 7.14844C6.12448 6.16492 6.98347 5.33938 8.03125 5.21973L45.2822 5.2334C46.1431 5.35596 47.193 6.28551 47.3936 7.14941C47.6252 8.15232 47.5695 12.1998 47.4648 13.3574C47.2914 15.2588 45.2227 14.482 45.2227 13.7988V7.68359L44.999 7.45898H8.17969L7.95508 7.68359V51.9873C8.3885 52.4237 9.16866 52.1343 9.74414 52.2119C9.5259 49.6334 11.8461 47.8808 14.2871 48.0361C15.1719 48.0929 15.924 48.5267 16.749 48.7793V33.1914C16.749 32.5098 18.3191 30.5408 19.1338 30.4287C13.4833 25.4943 13.673 16.4132 19.9199 12.0498C28.8097 5.8404 40.4344 13.9468 37.8125 24.4375C36.4133 30.0385 30.6664 33.8531 24.9473 32.9668L25.0967 40.7227C27.0549 39.9304 29.4643 40.4205 30.4658 42.3623C33.0115 40.6522 36.2642 41.5878 37.1836 44.5908C37.3585 44.7179 38.406 44.2115 38.7471 44.168C41.1715 43.8601 43.5798 45.9435 43.5801 48.4053V52.21L44.9746 52.1895L45.2197 51.8379L45.2168 17.9727C45.3842 16.4599 47.2736 16.4106 47.459 17.9727L47.4561 52.1357C47.1121 54.1086 45.3842 54.6944 43.5801 54.4463C43.5143 57.1504 43.7581 60.0519 42.9854 62.6514H49.0215C49.3715 62.6509 50.3124 61.7454 50.3662 61.3135L50.3213 3.4707C50.0896 2.89546 49.6725 2.5258 49.0986 2.30762L3.96973 2.35254C3.39427 2.58574 3.02488 3.00368 2.80664 3.57617L2.77148 61.2002C2.99125 61.91 3.47517 62.3975 4.18652 62.6172L14.4297 62.6602C15.7268 62.8637 15.7267 64.6763 14.4297 64.8799C11.1725 64.5989 7.1856 65.293 4.0166 64.876C2.26615 64.6458 1.01572 63.2074 0.5 61.6064V3.28125C1.04412 1.60554 2.11796 0.53814 3.7832 0H49.3945ZM22.8486 34.0986C22.5407 31.8384 19.5537 31.5038 18.9961 33.7969C18.597 39.2634 19.4935 45.413 18.9912 50.7988C18.921 51.5567 18.5293 52.5073 17.6055 52.3369C17.2031 52.2615 16.2021 51.1497 15.6611 50.8389C13.7627 49.7492 11.553 50.2998 12.0508 52.8125L21.2217 66.4561V68.7686H38.5127C38.0687 65.7849 40.8862 63.5633 41.1777 60.7695C41.5888 56.8187 40.9027 52.2666 41.2031 48.25C41.1117 46.3234 38.6212 45.7032 37.6406 47.3848C37.1685 48.195 37.4556 49.9823 35.8223 49.458C34.2303 48.9468 35.8678 45.4941 34.5225 44.3027C33.6122 43.4956 32.4076 43.5713 31.6572 44.5293C30.995 45.3754 31.4465 47.1587 29.7979 46.8389C28.608 46.6087 29.0894 45.0539 28.9639 44.2393C28.699 42.519 26.3671 41.9662 25.3955 43.4834C24.9322 44.2083 25.3161 45.0258 24.4941 45.5654C23.7333 46.0647 22.9586 45.5581 22.8584 44.6807C22.4847 41.4264 23.2866 37.314 22.8486 34.0986ZM26.5879 12.1982C21.4473 12.1985 17.2783 16.3705 17.2783 21.5156C17.2786 26.6605 21.4475 30.8318 26.5879 30.832C31.7285 30.832 35.8982 26.6606 35.8984 21.5156C35.8984 16.3704 31.7286 12.1982 26.5879 12.1982ZM31.0342 24.3623C31.7292 23.4011 31.8789 21.1982 33.4424 21.8574C34.8781 22.4632 33.2652 25.1619 32.627 25.957C29.4758 29.8824 23.7004 29.8795 20.5508 25.957C19.8871 25.1304 18.1486 22.1816 19.9912 21.8047H19.9902C21.3412 21.5284 21.4086 23.2092 21.9629 24.0928C24.0407 27.4023 28.7546 27.5149 31.0342 24.3623ZM23.5547 17.1973C25.1271 17.1106 25.1424 20.3466 24.165 20.7686C21.9319 21.7327 21.8448 17.2918 23.5547 17.1973ZM29.5176 17.1973C31.0901 17.1106 31.1054 20.3467 30.1279 20.7686C27.8948 21.7327 27.8078 17.2919 29.5176 17.1973Z" fill="#F7C948"/>
</svg>
