<svg width="72" height="72" viewBox="0 0 72 72" fill="none" xmlns="http://www.w3.org/2000/svg">
<path d="M18 60.2615H25.8309C26.8519 60.2615 27.8666 60.383 28.8564 60.6259L37.1307 62.6366C38.926 63.074 40.7963 63.1165 42.6104 62.7642L51.7589 60.9843C54.1756 60.5136 56.3987 59.3563 58.141 57.6615L64.6137 51.3651C66.4621 49.5701 66.4621 46.6573 64.6137 44.8592C62.9494 43.2403 60.3142 43.0581 58.4314 44.4309L50.8878 49.9346C49.8075 50.7243 48.4929 51.1495 47.141 51.1495H39.8565L44.4932 51.1493C47.1066 51.1493 49.2236 49.09 49.2236 46.5477V45.6274C49.2236 43.5165 47.7467 41.6759 45.6422 41.1656L38.4858 39.4252C37.3211 39.1428 36.1284 39 34.9294 39C32.035 39 26.7957 41.3964 26.7957 41.3964L18 45.0746M6 43.8L6 61.2C6 62.8802 6 63.7202 6.32698 64.362C6.6146 64.9265 7.07354 65.3854 7.63803 65.673C8.27976 66 9.11984 66 10.8 66H13.2C14.8802 66 15.7202 66 16.362 65.673C16.9265 65.3854 17.3854 64.9265 17.673 64.362C18 63.7202 18 62.8802 18 61.2V43.8C18 42.1198 18 41.2798 17.673 40.638C17.3854 40.0735 16.9265 39.6146 16.362 39.327C15.7202 39 14.8802 39 13.2 39L10.8 39C9.11984 39 8.27976 39 7.63803 39.327C7.07354 39.6146 6.6146 40.0735 6.32698 40.638C6 41.2798 6 42.1198 6 43.8Z" stroke="#F7C948" stroke-width="3" stroke-linecap="round" stroke-linejoin="round"/>
<path fill-rule="evenodd" clip-rule="evenodd" d="M49.5 6.95455C43.3998 6.95455 38.4545 11.8998 38.4545 18C38.4545 24.1002 43.3998 29.0455 49.5 29.0455C55.6002 29.0455 60.5455 24.1002 60.5455 18C60.5455 11.8998 55.6002 6.95455 49.5 6.95455ZM36 18C36 10.5442 42.0442 4.5 49.5 4.5C56.9558 4.5 63 10.5442 63 18C63 25.4558 56.9558 31.5 49.5 31.5C42.0442 31.5 36 25.4558 36 18ZM55.8905 13.4504C56.3698 13.9296 56.3698 14.7067 55.8905 15.186L48.5269 22.5496C48.0476 23.0289 47.2706 23.0289 46.7913 22.5496L43.1095 18.8678C42.6302 18.3885 42.6302 17.6115 43.1095 17.1322C43.5887 16.6529 44.3658 16.6529 44.8451 17.1322L47.6591 19.9462L54.1549 13.4504C54.6342 12.9711 55.4113 12.9711 55.8905 13.4504Z" fill="#F7C948"/>
</svg>
