<svg width="52" height="58" viewBox="0 0 52 58" fill="none" xmlns="http://www.w3.org/2000/svg">
<path d="M11 23V17C11 8.71573 17.7157 2 26 2C32.151 2 37.4372 5.70229 39.7519 11M26 36.5V42.5M16.4 56H35.6C40.6405 56 43.1607 56 45.0859 55.0191C46.7794 54.1562 48.1562 52.7794 49.0191 51.0859C50 49.1607 50 46.6405 50 41.6V37.4C50 32.3595 50 29.8393 49.0191 27.9141C48.1562 26.2206 46.7794 24.8438 45.0859 23.9809C43.1607 23 40.6405 23 35.6 23H16.4C11.3595 23 8.83929 23 6.91409 23.9809C5.22063 24.8438 3.8438 26.2206 2.98094 27.9141C2 29.8393 2 32.3595 2 37.4V41.6C2 46.6405 2 49.1607 2.98094 51.0859C3.8438 52.7794 5.22063 54.1562 6.91409 55.0191C8.83929 56 11.3595 56 16.4 56Z" stroke="#F7C948" stroke-width="3" stroke-linecap="round" stroke-linejoin="round"/>
</svg>
