<svg width="73" height="52" viewBox="0 0 73 52" fill="none" xmlns="http://www.w3.org/2000/svg">
<path d="M71.9453 15.2598C71.9453 13.1394 71.9453 12.0793 71.526 11.5883C71.1622 11.1624 70.6165 10.9363 70.058 10.9803C69.4144 11.0309 68.6647 11.7806 67.1654 13.2799L54.4453 26L67.1654 38.7201C68.6647 40.2194 69.4144 40.9691 70.058 41.0197C70.6165 41.0637 71.1622 40.8376 71.526 40.4117C71.9453 39.9207 71.9453 38.8606 71.9453 36.7402V15.2598Z" stroke="url(#paint0_linear_1068_607)" stroke-width="2" stroke-linecap="round" stroke-linejoin="round"/>
<path d="M1.94531 18.3C1.94531 12.4194 1.94531 9.47917 3.08974 7.2331C4.09641 5.2574 5.70271 3.6511 7.67841 2.64443C9.92449 1.5 12.8648 1.5 18.7453 1.5H37.6453C43.5259 1.5 46.4661 1.5 48.7122 2.64443C50.6879 3.6511 52.2942 5.2574 53.3009 7.2331C54.4453 9.47917 54.4453 12.4194 54.4453 18.3V33.7C54.4453 39.5806 54.4453 42.5208 53.3009 44.7669C52.2942 46.7426 50.6879 48.3489 48.7122 49.3556C46.4661 50.5 43.5259 50.5 37.6453 50.5H18.7453C12.8648 50.5 9.92449 50.5 7.67841 49.3556C5.70271 48.3489 4.09641 46.7426 3.08974 44.7669C1.94531 42.5208 1.94531 39.5806 1.94531 33.7V18.3Z" stroke="url(#paint1_linear_1068_607)" stroke-width="2" stroke-linecap="round" stroke-linejoin="round"/>
<defs>
<linearGradient id="paint0_linear_1068_607" x1="36.9453" y1="1.5" x2="36.9453" y2="50.5" gradientUnits="userSpaceOnUse">
<stop stop-color="#0BE6E6"/>
<stop offset="1" stop-color="#0B9292" stop-opacity="0.45"/>
</linearGradient>
<linearGradient id="paint1_linear_1068_607" x1="36.9453" y1="1.5" x2="36.9453" y2="50.5" gradientUnits="userSpaceOnUse">
<stop stop-color="#0BE6E6"/>
<stop offset="1" stop-color="#0B9292" stop-opacity="0.45"/>
</linearGradient>
</defs>
</svg>
