<svg width="73" height="72" viewBox="0 0 73 72" fill="none" xmlns="http://www.w3.org/2000/svg">
<path d="M36.5 45H24.5C18.9087 45 16.1131 45 13.9078 45.9134C10.9675 47.1314 8.63137 49.4675 7.41345 52.4078C6.5 54.6131 6.5 57.4087 6.5 63M47 9.87228C51.3977 11.6524 54.5 15.9639 54.5 21C54.5 26.0361 51.3977 30.3476 47 32.1277M41 21C41 27.6274 35.6274 33 29 33C22.3726 33 17 27.6274 17 21C17 14.3726 22.3726 9 29 9C35.6274 9 41 14.3726 41 21Z" stroke="#F7C948" stroke-width="3" stroke-linecap="round" stroke-linejoin="round"/>
<path d="M53.375 58.8375C55.4254 58.8375 57.0875 57.1754 57.0875 55.125C57.0875 53.0746 55.4254 51.4125 53.375 51.4125C51.3246 51.4125 49.6625 53.0746 49.6625 55.125C49.6625 57.1754 51.3246 58.8375 53.375 58.8375Z" stroke="#F7C948" stroke-width="2" stroke-linecap="round" stroke-linejoin="round"/>
<path d="M61.7 58.5C61.5502 58.8393 61.5056 59.2157 61.5717 59.5807C61.6379 59.9456 61.8119 60.2824 62.0712 60.5475L62.1388 60.615C62.3479 60.824 62.5139 61.0721 62.6271 61.3453C62.7404 61.6184 62.7986 61.9112 62.7986 62.2069C62.7986 62.5026 62.7404 62.7953 62.6271 63.0685C62.5139 63.3416 62.3479 63.5898 62.1388 63.7987C61.9298 64.0079 61.6816 64.1739 61.4085 64.2871C61.1353 64.4004 60.8426 64.4586 60.5469 64.4586C60.2512 64.4586 59.9584 64.4004 59.6853 64.2871C59.4121 64.1739 59.164 64.0079 58.955 63.7987L58.8875 63.7313C58.6224 63.4719 58.2856 63.2979 57.9207 63.2317C57.5557 63.1656 57.1793 63.2102 56.84 63.36C56.5073 63.5026 56.2235 63.7394 56.0236 64.0412C55.8237 64.3431 55.7164 64.6967 55.715 65.0587V65.25C55.715 65.8467 55.4779 66.419 55.056 66.841C54.634 67.2629 54.0617 67.5 53.465 67.5C52.8683 67.5 52.296 67.2629 51.874 66.841C51.4521 66.419 51.215 65.8467 51.215 65.25V65.1488C51.2063 64.7764 51.0858 64.4152 50.8691 64.1123C50.6524 63.8093 50.3496 63.5786 50 63.45C49.6607 63.3002 49.2843 63.2556 48.9193 63.3217C48.5544 63.3879 48.2176 63.5619 47.9525 63.8212L47.885 63.8888C47.676 64.0979 47.4279 64.2639 47.1547 64.3771C46.8816 64.4904 46.5888 64.5486 46.2931 64.5486C45.9974 64.5486 45.7047 64.4904 45.4315 64.3771C45.1584 64.2639 44.9102 64.0979 44.7012 63.8888C44.4921 63.6798 44.3261 63.4316 44.2129 63.1585C44.0996 62.8853 44.0414 62.5926 44.0414 62.2969C44.0414 62.0012 44.0996 61.7084 44.2129 61.4353C44.3261 61.1621 44.4921 60.914 44.7012 60.705L44.7688 60.6375C45.0281 60.3724 45.2021 60.0356 45.2683 59.6707C45.3344 59.3057 45.2898 58.9293 45.14 58.59C44.9974 58.2573 44.7606 57.9735 44.4588 57.7736C44.1569 57.5737 43.8033 57.4664 43.4413 57.465H43.25C42.6533 57.465 42.081 57.2279 41.659 56.806C41.2371 56.384 41 55.8117 41 55.215C41 54.6183 41.2371 54.046 41.659 53.624C42.081 53.2021 42.6533 52.965 43.25 52.965H43.3513C43.7236 52.9563 44.0848 52.8358 44.3877 52.6191C44.6907 52.4024 44.9214 52.0996 45.05 51.75C45.1998 51.4107 45.2444 51.0343 45.1783 50.6693C45.1121 50.3044 44.9381 49.9676 44.6788 49.7025L44.6113 49.635C44.4021 49.426 44.2361 49.1779 44.1229 48.9047C44.0096 48.6316 43.9514 48.3388 43.9514 48.0431C43.9514 47.7474 44.0096 47.4547 44.1229 47.1815C44.2361 46.9084 44.4021 46.6602 44.6113 46.4513C44.8202 46.2421 45.0684 46.0761 45.3415 45.9629C45.6147 45.8496 45.9074 45.7914 46.2031 45.7914C46.4988 45.7914 46.7916 45.8496 47.0647 45.9629C47.3379 46.0761 47.586 46.2421 47.795 46.4513L47.8625 46.5188C48.1276 46.7781 48.4644 46.9521 48.8293 47.0183C49.1943 47.0844 49.5707 47.0398 49.91 46.89H50C50.3327 46.7474 50.6165 46.5106 50.8164 46.2088C51.0163 45.9069 51.1236 45.5533 51.125 45.1913V45C51.125 44.4033 51.3621 43.831 51.784 43.409C52.206 42.9871 52.7783 42.75 53.375 42.75C53.9717 42.75 54.544 42.9871 54.966 43.409C55.3879 43.831 55.625 44.4033 55.625 45V45.1013C55.6264 45.4633 55.7337 45.8169 55.9336 46.1188C56.1335 46.4206 56.4173 46.6574 56.75 46.8C57.0893 46.9498 57.4657 46.9944 57.8307 46.9283C58.1956 46.8621 58.5324 46.6881 58.7975 46.4288L58.865 46.3613C59.074 46.1521 59.3221 45.9861 59.5953 45.8729C59.8684 45.7596 60.1612 45.7014 60.4569 45.7014C60.7526 45.7014 61.0453 45.7596 61.3185 45.8729C61.5916 45.9861 61.8398 46.1521 62.0487 46.3613C62.2579 46.5702 62.4239 46.8184 62.5371 47.0915C62.6504 47.3647 62.7086 47.6574 62.7086 47.9531C62.7086 48.2488 62.6504 48.5416 62.5371 48.8147C62.4239 49.0879 62.2579 49.336 62.0487 49.545L61.9813 49.6125C61.7219 49.8776 61.5479 50.2144 61.4817 50.5793C61.4156 50.9443 61.4602 51.3207 61.61 51.66V51.75C61.7526 52.0827 61.9894 52.3665 62.2912 52.5664C62.5931 52.7663 62.9467 52.8736 63.3087 52.875H63.5C64.0967 52.875 64.669 53.1121 65.091 53.534C65.5129 53.956 65.75 54.5283 65.75 55.125C65.75 55.7217 65.5129 56.294 65.091 56.716C64.669 57.1379 64.0967 57.375 63.5 57.375H63.3988C63.0367 57.3764 62.6831 57.4837 62.3812 57.6836C62.0794 57.8835 61.8426 58.1673 61.7 58.5Z" stroke="#F7C948" stroke-width="2" stroke-linecap="round" stroke-linejoin="round"/>
</svg>
