<svg width="322" height="314" viewBox="0 0 322 314" fill="none" xmlns="http://www.w3.org/2000/svg">
<path d="M117.819 35.6524C129.791 24.2099 145.539 18.3274 162.102 19.0499C192.758 20.449 217.86 45.5773 219.256 76.2628C219.886 89.7548 215.873 103.227 207.958 114.181C200.507 124.481 196.699 135.848 195.231 152.128V164.168C195.231 165.515 195.142 166.859 194.975 168.123C193.422 182.72 181.521 194.655 166.677 197.475V206.015C171.29 207.615 175.111 210.865 177.512 215.111H288.086C291.8 215.111 294.812 218.123 294.812 221.838V250.895H310.229C316.718 250.895 322 256.176 322 262.666V301.946C322 308.436 316.718 313.718 310.229 313.718H270.948C264.458 313.718 259.177 308.436 259.177 301.946V262.666C259.177 256.176 264.458 250.895 270.948 250.895H281.359V228.565H179.845C178.572 235.79 173.455 241.639 166.677 244.027V250.895H180.642C187.131 250.895 192.413 256.176 192.413 262.666V301.946C192.413 308.436 187.131 313.718 180.642 313.718H141.358C134.869 313.718 129.587 308.436 129.587 301.946V262.666C129.587 256.176 134.869 250.895 141.358 250.895H153.225V243.941C146.501 241.489 141.463 235.68 140.195 228.565H38.6074V250.895H51.0518C57.5416 250.895 62.8232 256.176 62.8232 262.666V301.946C62.8232 308.436 57.5416 313.718 51.0518 313.718H11.7715C5.28163 313.718 0 308.436 0 301.946V262.666C0 256.176 5.28163 250.895 11.7715 250.895H25.1543V221.838C25.1544 218.124 28.1664 215.112 31.8809 215.111H142.497C144.861 210.901 148.651 207.652 153.225 206.039V197.621C137.584 195.297 125.239 183.345 123.593 167.945C123.445 166.858 123.356 165.515 123.356 164.168C123.353 163.264 123.307 149.394 123.294 145.543C121.717 134.337 117.336 123.473 110.616 114.096C103.197 103.951 99.2598 91.8145 99.2598 79.045C99.2598 62.5084 105.851 47.0984 117.819 35.6524ZM13.4531 264.348V300.265H49.3701V264.348H13.4531ZM143.04 264.348V300.265H178.96V264.348H143.04ZM272.63 264.348V300.265H308.547V264.348H272.63ZM160.02 218.34C156.386 218.34 153.293 221.272 153.293 225.066C153.293 228.742 156.308 231.76 160.013 231.793C163.727 231.793 166.746 228.775 166.746 225.066C166.746 224.515 166.687 224.012 166.568 223.572C165.81 220.426 163.13 218.34 160.02 218.34ZM136.81 158.499V164.168C136.81 175.677 146.917 184.611 158.578 184.666H159.82C159.866 184.665 159.904 184.64 159.95 184.64C159.985 184.64 160.014 184.659 160.049 184.659C171.069 184.624 180.54 176.672 181.621 166.517C181.736 165.643 181.778 164.904 181.778 164.168V158.499H136.81ZM161.498 32.4893C148.637 31.8588 136.405 36.49 127.117 45.3741C117.829 54.2582 112.712 66.2164 112.712 79.045C112.712 88.9406 115.757 98.3336 121.511 106.206C129.636 117.537 134.871 130.652 136.688 144.19C136.724 144.472 136.747 144.761 136.747 145.047H182.481C184.57 129.345 189.165 117.212 197.054 106.298C203.284 97.6766 206.312 87.5053 205.816 76.8839C204.733 53.0693 185.267 33.5734 161.498 32.4893ZM159.95 46.8546C163.665 46.8546 166.677 49.8657 166.677 53.5802V57.2765C170.678 58.5848 174.278 60.9132 176.815 64.2315C179.072 67.1842 178.507 71.4049 175.558 73.6612C172.599 75.9139 168.375 75.3456 166.129 72.4034C164.753 70.6036 162.443 69.5294 159.95 69.5294C155.894 69.5296 152.597 72.3307 152.597 75.7725C152.597 79.2144 155.894 82.0165 159.95 82.0167C171.422 82.0167 180.757 90.8509 180.757 101.712C180.757 110.333 174.839 117.597 166.677 120.26V123.904C166.677 127.619 163.665 130.631 159.95 130.631C156.236 130.631 153.225 127.619 153.225 123.904V120.321C148.127 118.683 143.822 115.244 141.325 110.498C139.594 107.211 140.855 103.141 144.143 101.413C147.45 99.6889 151.503 100.95 153.228 104.232C154.42 106.494 157.057 107.956 159.95 107.956C164.006 107.956 167.305 105.154 167.305 101.712C167.304 98.2702 164.006 95.4688 159.95 95.4688C148.478 95.4686 139.145 86.6337 139.145 75.7725C139.145 67.152 145.062 59.8879 153.225 57.2247V53.5802C153.225 49.8658 156.236 46.8548 159.95 46.8546ZM74.6729 83.6505C78.302 82.9312 81.8396 85.3586 82.5293 89.0108C83.2187 92.6596 80.821 96.1766 77.1689 96.8663L59.749 100.157C56.2154 100.847 52.5954 98.5313 51.8926 94.797C51.2031 91.1482 53.6009 87.6312 57.2529 86.9415L74.6729 83.6505ZM236.056 89.0108C236.742 85.3586 240.26 82.9312 243.912 83.6505L261.328 86.9415C264.98 87.6312 267.378 91.1482 266.688 94.797C265.986 98.5302 262.367 100.848 258.832 100.157L241.416 96.8663C237.764 96.1766 235.366 92.6596 236.056 89.0108ZM55.9619 40.6681C57.1903 37.1604 61.0298 35.3279 64.5342 36.5431L81.2646 42.4015C84.7687 43.6299 86.6177 47.4662 85.3896 50.9737C84.173 54.4387 80.3768 56.3381 76.8174 55.0987L60.0869 49.2403C56.5826 48.012 54.7337 44.1757 55.9619 40.6681ZM254.047 36.5431C257.541 35.3279 261.388 37.1604 262.619 40.6681C263.847 44.1756 261.998 48.0119 258.494 49.2403L241.764 55.0987C238.198 56.3404 234.406 54.4327 233.191 50.9737C231.963 47.4661 233.812 43.6298 237.316 42.4015L254.047 36.5431ZM229.188 1.97079C231.845 -0.613987 236.105 -0.571362 238.699 2.08895C241.294 4.74597 241.241 9.00604 238.581 11.6007L225.894 23.9825C223.233 26.5762 218.977 26.5242 216.382 23.8643C213.787 21.2073 213.84 16.9472 216.5 14.3526L229.188 1.97079ZM79.8848 2.08505C82.4891 -0.56859 86.7424 -0.614641 89.3994 1.96981L102.084 14.3516C104.741 16.9494 104.793 21.206 102.199 23.8663C99.5991 26.5246 95.3489 26.5723 92.6846 23.9815L80 11.5997C77.3431 9.00185 77.2904 4.74536 79.8848 2.08505Z" fill="url(#paint0_linear_1351_2930)"/>
<defs>
<linearGradient id="paint0_linear_1351_2930" x1="161" y1="0.0625" x2="161" y2="313.718" gradientUnits="userSpaceOnUse">
<stop stop-color="#0BE6E6"/>
<stop offset="1" stop-color="#0B9292" stop-opacity="0.45"/>
</linearGradient>
</defs>
</svg>
