<svg width="63" height="72" viewBox="0 0 63 72" fill="none" xmlns="http://www.w3.org/2000/svg">
<path d="M35.9149 41.7019L35.9037 41.4206C35.8924 40.276 35.2752 39.4321 34.1692 39.0479C33.6082 38.8518 33.0408 38.6525 32.5103 38.3873C31.6391 37.9532 31.2308 36.9759 31.5362 36.0661C31.6133 35.8346 31.7243 35.6176 31.8304 35.399C32.0184 35.0148 32.2001 34.6274 32.311 34.2207C32.4428 33.7369 32.6727 32.5329 31.9815 31.7902L31.5298 31.2951C30.2293 29.8403 29.4111 29.3372 27.061 30.5975C26.7813 30.7486 26.463 30.8691 26.1126 30.9607C25.9968 30.9881 25.8264 30.9929 25.6609 30.972C24.645 30.8305 24.0631 30.3467 23.7753 29.4047C23.703 29.1716 23.6162 28.9402 23.5294 28.7103L23.4136 28.4017C22.9185 27.0353 22.1984 26.5161 20.7613 26.4839C20.3723 26.4743 19.9865 26.4775 19.6023 26.4936C18.5462 26.5386 17.728 27.1398 17.3631 28.138L17.2265 28.5061C17.0754 28.9032 16.9275 29.3034 16.8101 29.715C16.6944 30.1265 16.2684 30.5492 15.7235 30.7936C15.2268 31.0202 14.6931 31.0652 14.3636 30.9029L14.034 30.7389C13.5582 30.4994 13.0165 30.2277 12.4009 30.0879C12.1356 30.0236 10.7805 29.768 9.97357 30.5171L9.59582 30.8643C7.84046 32.4702 7.73919 33.1035 8.87406 35.37C9.0332 35.6899 9.16019 36.0323 9.26146 36.3795C9.2904 36.4808 9.29522 36.5805 9.28718 36.6303C9.09911 37.7587 8.62973 38.3583 7.71347 38.6268C7.53182 38.6798 7.35339 38.7473 7.17657 38.8165C7.0528 38.8647 6.93224 38.9177 6.80525 38.9483C5.46944 39.2891 4.72036 40.2857 4.7509 41.681L4.75733 42.0668C4.75894 42.3063 4.76376 42.5474 4.7734 42.7869C4.82323 43.8832 5.44854 44.7175 6.49018 45.0695C6.69433 45.1386 6.89526 45.2174 7.0962 45.2978C7.44984 45.4376 7.80509 45.5743 8.1716 45.6771C8.42558 45.7479 8.8178 46.1256 9.07178 46.7107C9.30647 47.2428 9.32255 47.7299 9.21645 47.9356C9.05249 48.2555 8.91425 48.5867 8.77601 48.921C8.67152 49.1702 8.57025 49.4161 8.4529 49.6572C7.89993 50.7841 8.1073 51.9029 9.02516 52.7259C9.13929 52.8288 9.24539 52.9381 9.35309 53.0474L9.54759 53.2419C10.7468 54.4234 11.4557 54.5472 12.9972 53.8431C13.4891 53.6164 13.9922 53.4139 14.4456 53.229L14.7285 53.1133L15.2959 53.2065C16.1977 53.3673 16.6639 53.901 17.1397 55.3268C17.7794 57.2349 18.3244 57.6415 20.3257 57.6415C20.3546 57.6415 20.3868 57.6415 20.4173 57.6415C20.4318 57.6415 20.8578 57.6351 20.8722 57.6351C22.0103 57.6576 22.9443 57.0532 23.3702 55.9055L23.5487 55.4409C23.7126 55.0278 23.8718 54.6099 23.9875 54.1791C24.0325 54.0071 24.309 53.6534 24.8893 53.3834C25.4825 53.1004 26.0065 53.0972 26.2428 53.2033L27.1092 53.5923C27.4098 53.7241 27.7104 53.8576 28.0078 53.9974C29.4513 54.6709 30.3884 53.9765 30.726 53.6486L31.1697 53.2162C32.9331 51.5235 32.8784 50.9448 31.7323 48.6011C31.6471 48.4323 31.5523 48.2395 31.533 48.135C31.4655 47.7508 31.451 47.4245 31.4864 47.1657C31.6198 46.2124 32.1792 45.7286 33.7047 45.2415C35.4247 44.6934 35.8812 44.0777 35.931 42.2532C35.9342 42.07 35.9246 41.8851 35.9149 41.7019ZM32.9942 43.012C31.9654 43.3415 29.5542 44.1115 29.17 46.841C29.0993 47.3489 29.1185 47.9019 29.2279 48.532C29.3034 48.9757 29.4899 49.347 29.7037 49.7778C29.9368 50.2536 30.2004 50.7953 30.2502 50.8034C30.1859 50.9175 29.8483 51.2422 29.5494 51.5299L28.998 51.8772C28.6845 51.7309 28.3663 51.591 28.048 51.4528L27.2233 51.0831C26.2958 50.6603 25.0516 50.7214 23.8911 51.2679C22.7626 51.7984 21.9717 52.6407 21.7242 53.5811C21.6309 53.9235 21.4991 54.2546 21.3689 54.589L21.1776 55.33L20.9831 55.2995C20.9301 55.2979 20.8787 55.2946 20.8192 55.2946C20.7179 55.2946 20.5957 55.2995 20.4093 55.3043C20.144 55.3059 19.6505 55.3091 19.6634 55.3702C19.583 55.2577 19.4191 54.769 19.358 54.5857C19.0365 53.6213 18.281 51.3644 15.701 50.9046L14.7847 50.7519C14.5645 50.7133 14.3411 50.7407 14.1385 50.8275L13.5631 51.0622C13.0808 51.2583 12.5455 51.4753 12.0215 51.718C11.7354 51.8482 11.5875 51.9061 11.5875 51.9415C11.5264 51.8964 11.4123 51.7968 11.1904 51.5798L11.0216 51.4078C10.9188 51.3049 10.6085 51.104 10.3851 50.9496L10.5523 50.6876C10.6905 50.4047 10.8127 50.1122 10.9348 49.8196C11.049 49.5431 11.1631 49.2666 11.2997 49.0014C11.7547 48.1125 11.7241 46.9358 11.2145 45.772C10.6921 44.5792 9.79032 43.7016 8.80333 43.4251C8.51238 43.3447 8.23429 43.2306 7.95298 43.1213C7.71829 43.028 7.48199 42.9364 7.10906 42.6824L7.08977 41.6311C7.08173 41.2936 7.13317 41.2791 7.38233 41.2148C7.60255 41.1569 7.81795 41.0782 8.03175 40.993C8.14266 40.9496 8.25358 40.9046 8.36931 40.8692C9.60868 40.5043 11.176 39.5398 11.5923 37.0097C11.6598 36.603 11.6277 36.1416 11.5039 35.7189C11.364 35.2382 11.1856 34.764 10.9654 34.3204C10.8095 34.0101 10.4864 33.3623 10.4397 33.3173C10.5056 33.1983 10.8609 32.8736 11.1744 32.5859L11.3817 32.3432C11.4476 32.3223 11.6711 32.3158 11.8784 32.3641C12.2144 32.4412 12.5873 32.6293 12.9811 32.8254L13.3428 33.0055C14.3073 33.47 15.5258 33.4427 16.6815 32.9235C17.8679 32.3914 18.7568 31.4269 19.0606 30.3435C19.1587 30.0011 19.2873 29.6651 19.4142 29.3259L19.7052 28.826C20.0363 28.8148 20.3723 28.8083 20.7067 28.8196C20.9301 28.8212 21.0378 28.8405 21.0555 28.8292C21.0812 28.871 21.1326 28.9707 21.2114 29.1909L21.3416 29.5381C21.4107 29.7182 21.4782 29.8966 21.5361 30.0847C22.0955 31.9108 23.4104 33.0167 25.3378 33.2868C25.6689 33.3318 26.1769 33.3575 26.7025 33.2225C27.2282 33.0858 27.72 32.8961 28.1653 32.6582C28.9305 32.2467 29.1571 32.2098 29.1346 32.1921C29.2471 32.2515 29.5445 32.5827 29.784 32.8527L30.1104 33.2112C30.1087 33.3141 30.0895 33.462 30.0493 33.6066C29.9785 33.8719 29.8499 34.1178 29.7278 34.3702C29.5751 34.6804 29.4256 34.9955 29.3147 35.3202C28.6347 37.3488 29.5381 39.5173 31.4606 40.4802C32.0795 40.7904 32.7402 41.0267 33.3976 41.255L33.5616 41.4463L33.5761 41.8256C33.5825 41.9494 33.5905 42.07 33.5873 42.1889C33.5777 42.5731 33.568 42.7917 33.6146 42.7676C33.5777 42.7998 33.4459 42.8673 32.9942 43.012Z" fill="#F7C948"/>
<path d="M20.3358 34.2969C20.3342 34.2969 20.3325 34.2969 20.3309 34.2969C18.2782 34.2985 16.3444 35.1119 14.8832 36.5843C13.4043 38.0744 12.599 40.05 12.6135 42.1478C12.6279 44.2246 13.4365 46.1552 14.8913 47.5858C16.346 49.0181 18.2975 49.8041 20.392 49.8041C20.4177 49.8041 20.4451 49.8041 20.4692 49.8041C22.5091 49.7865 24.4252 48.9699 25.8606 47.5055C27.3106 46.0266 28.0982 44.0719 28.0757 41.9983C28.0323 37.7513 24.5618 34.2969 20.3358 34.2969ZM24.1921 45.8691C23.1938 46.8866 21.8645 47.4556 20.4499 47.4669C20.4306 47.4669 20.4129 47.4669 20.3936 47.4669C18.9164 47.4669 17.5468 46.9187 16.5325 45.9221C15.5246 44.9303 14.9652 43.5848 14.954 42.1317C14.9443 40.6625 15.5085 39.2784 16.5437 38.2336C17.5613 37.208 18.9083 36.6406 20.3325 36.639C20.3342 36.639 20.3342 36.639 20.3358 36.639C23.2823 36.639 25.7047 39.055 25.7369 42.024C25.7529 43.4707 25.2048 44.8355 24.1921 45.8691Z" fill="#F7C948"/>
<path d="M33.6258 26.2306L33.6435 27.0874C33.6853 28.0486 34.2334 28.78 35.1545 29.0951C35.312 29.1481 35.4664 29.2092 35.6207 29.2703C35.8972 29.378 36.1736 29.4857 36.4614 29.5677C36.5546 29.5934 36.8006 29.8056 36.9774 30.1962C37.1574 30.5917 37.1333 30.8778 37.106 30.934C36.9742 31.1896 36.8633 31.4581 36.7507 31.7249C36.6736 31.9098 36.598 32.0946 36.5128 32.2682C36.029 33.2536 36.2122 34.231 37.0095 34.9479L37.4098 35.3449C38.4145 36.3384 39.0767 36.4525 40.374 35.8593C40.7549 35.6857 41.1423 35.5282 41.4944 35.3867L41.631 35.3289L41.9927 35.3883C42.5087 35.48 42.8382 35.7307 43.2112 36.8463C43.7448 38.4409 44.2592 38.8203 45.9503 38.8203C45.9728 38.8203 45.9953 38.8203 46.0178 38.8203C46.0274 38.8203 46.328 38.8139 46.3377 38.8139C47.3472 38.8396 48.1573 38.3059 48.5271 37.3061L48.6605 36.9605C48.7923 36.6261 48.9209 36.2934 49.0109 35.951C49.035 35.8851 49.2231 35.6471 49.6314 35.4735C49.985 35.3224 50.2824 35.3208 50.3869 35.3658L51.7484 35.9783C52.639 36.3914 53.515 36.2805 54.15 35.6568L54.4924 35.3257C55.952 33.9223 55.8941 33.3244 54.9762 31.4484C54.9312 31.3552 54.8605 31.2137 54.8492 31.1671C54.8026 30.8922 54.7898 30.6672 54.8139 30.4984C54.891 29.9551 55.1482 29.6079 56.3442 29.2253C57.7813 28.7656 58.2089 28.1917 58.249 26.6726C58.2523 26.5247 58.2458 26.3736 58.2298 26.0168C58.2185 25.0234 57.6639 24.2646 56.7075 23.9335C56.2847 23.7872 55.8587 23.6393 55.4617 23.44C54.9087 23.1635 54.6483 22.5447 54.8412 21.966C54.8975 21.7988 54.9778 21.6413 55.0566 21.4837C55.2093 21.1703 55.3556 20.8552 55.4456 20.5225C55.5581 20.1061 55.7494 19.0645 55.1273 18.3974L54.7817 18.018C53.6645 16.7658 52.8913 16.4041 51.0058 17.4216C50.8097 17.5261 50.575 17.6161 50.3371 17.6804C50.2953 17.6917 50.2053 17.7013 50.0863 17.6821C49.3999 17.5856 49.0398 17.2898 48.8453 16.6533C48.7875 16.4636 48.7167 16.2739 48.646 16.0858L48.564 15.8688C48.1429 14.705 47.4999 14.2389 46.2718 14.2099C45.9648 14.2051 45.6593 14.2051 45.362 14.2196C44.4312 14.2581 43.7127 14.7838 43.3896 15.6663L43.2803 15.9588C43.1629 16.2691 43.0456 16.5825 42.9556 16.9024C42.8881 17.1452 42.61 17.4104 42.2644 17.5679C41.9059 17.7303 41.586 17.7255 41.4413 17.6563L41.1986 17.5358C40.8128 17.3397 40.3756 17.1194 39.8612 17.0005C39.5397 16.9298 38.445 16.7449 37.749 17.4007L37.4596 17.666C36.0209 18.9777 35.9165 19.6174 36.8424 21.466C36.9581 21.6991 37.0497 21.9483 37.1365 22.2778C36.979 23.2262 36.5482 23.477 36.1045 23.6072C35.9583 23.6506 35.8152 23.7052 35.6737 23.7599C35.5869 23.7937 35.5017 23.8306 35.4117 23.8531C34.2656 24.1489 33.5985 25.0378 33.6258 26.2306ZM35.992 26.1213C36.1753 26.0763 36.3521 26.0071 36.5273 25.938L36.7636 25.8512C37.7956 25.5474 39.096 24.7469 39.4416 22.6588C39.4995 22.3051 39.4738 21.9097 39.3661 21.5416C39.252 21.1526 39.1089 20.7716 38.9305 20.418C38.8565 20.2701 38.707 19.9743 38.6266 19.7766C38.7327 19.6689 38.8887 19.5274 39.0349 19.3956L39.1748 19.2654C39.2262 19.267 39.2873 19.2751 39.342 19.2863C39.5718 19.3394 39.8483 19.4776 40.1409 19.6271L40.4158 19.7637C41.234 20.1592 42.2579 20.1383 43.2224 19.7026C44.2094 19.259 44.9504 18.4504 45.2076 17.5358C45.2784 17.2818 45.3732 17.0358 45.4664 16.7883L45.4648 16.56C45.624 16.5536 45.7815 16.5488 45.9406 16.5488C46.0725 16.5488 46.2236 16.5488 46.3184 16.5584C46.3313 16.5874 46.3441 16.6243 46.3618 16.671L46.4566 16.9249C46.5097 17.0616 46.5627 17.2014 46.6061 17.3429C47.0643 18.8378 48.1847 19.783 49.76 20.0032C50.0413 20.0418 50.4689 20.0627 50.9238 19.9486C51.3482 19.8361 51.7468 19.6817 52.1085 19.4888C52.4493 19.3056 52.6325 19.2284 52.6631 19.1802C52.7595 19.2718 52.9106 19.4406 53.036 19.5821L53.2112 19.7766C53.2048 19.8216 53.1968 19.8698 53.1839 19.918C53.1325 20.1061 53.0392 20.2797 52.9524 20.4565C52.8287 20.7073 52.7081 20.9613 52.6197 21.2265C52.0539 22.9224 52.8078 24.734 54.4136 25.5362C54.9039 25.7805 55.4231 25.9702 55.8893 26.0473L55.9086 26.6148C55.9054 26.745 55.9005 26.8382 55.8957 26.9089C55.8346 26.9314 55.7494 26.962 55.6321 26.9973C54.7882 27.2674 52.8142 27.8991 52.4959 30.1753C52.438 30.5884 52.4525 31.0417 52.5409 31.5626C52.6052 31.9403 52.7579 32.2457 52.9315 32.5978C53.0424 32.8244 53.1727 33.0913 53.2482 33.2697C53.1469 33.3742 53.0023 33.514 52.8688 33.6426L52.6727 33.8323L51.3691 33.2472C50.5814 32.8839 49.5349 32.9321 48.5673 33.3919C47.6221 33.8355 46.9598 34.5509 46.7476 35.353C46.6801 35.6086 46.5804 35.8577 46.4808 36.1069L46.4454 36.4814C46.3216 36.4718 46.1978 36.4766 45.9873 36.4862C45.8812 36.4862 45.7011 36.4879 45.5581 36.4846C45.5066 36.3496 45.4504 36.1824 45.4263 36.1101C45.1626 35.3224 44.5437 33.4738 42.3962 33.0913L41.6873 32.9723C41.467 32.9353 41.2436 32.9611 41.0411 33.0479L40.6119 33.2231C40.2309 33.3758 39.8081 33.5494 39.3966 33.7375C39.3163 33.7761 39.252 33.8034 39.2005 33.8259C39.1378 33.7664 39.0494 33.6812 38.9224 33.5542C38.8099 33.4401 38.699 33.3276 38.6122 33.3002C38.7199 33.0816 38.8147 32.855 38.908 32.6283C38.9948 32.4177 39.0816 32.2072 39.186 32.0046C39.5734 31.2459 39.5509 30.2541 39.1266 29.2832C38.6926 28.2898 37.9306 27.5535 37.0947 27.3204C36.8841 27.2594 36.6784 27.1758 36.4726 27.097C36.2846 27.0215 36.0901 26.9411 35.9775 26.9877L35.9663 26.4878L35.992 26.1213Z" fill="#F7C948"/>
<path d="M45.9797 32.7661C46.0006 32.7661 46.0199 32.7661 46.0392 32.7661C47.6885 32.75 49.2349 32.0926 50.3939 30.9079C51.5641 29.7151 52.1974 28.1366 52.1814 26.4664C52.1444 23.0361 49.3442 20.252 45.9347 20.252C45.9331 20.252 45.9315 20.252 45.9283 20.252C44.271 20.2536 42.7102 20.9078 41.5319 22.0957C40.3375 23.2981 39.6881 24.8927 39.6994 26.5854C39.7106 28.2604 40.3632 29.818 41.5367 30.9754C42.7134 32.1312 44.2887 32.7661 45.9797 32.7661ZM43.194 23.7418C43.9302 22.9991 44.9027 22.5908 45.9315 22.5908C45.9331 22.5908 45.9331 22.5908 45.9347 22.5908C48.0662 22.5908 49.8184 24.3381 49.8409 26.4889C49.8521 27.537 49.4551 28.5256 48.7237 29.2699C48.0019 30.0061 47.0407 30.4176 46.0183 30.4256C44.9494 30.3613 43.9222 30.0366 43.1795 29.3052C42.4514 28.5883 42.0479 27.6174 42.0398 26.5661C42.0334 25.502 42.4433 24.4989 43.194 23.7418Z" fill="#F7C948"/>
<path d="M62.9984 35.9261C62.9984 35.2799 62.4744 34.7559 61.8282 34.7559C61.182 34.7559 60.6579 35.2799 60.6579 35.9261C60.6579 51.9301 47.6921 64.957 31.7138 65.0744L33.5367 62.5024C33.9096 61.9768 33.7875 61.2454 33.2586 60.8708C32.733 60.5027 31.9999 60.6233 31.6286 61.1489L27.9539 66.3314C27.581 66.8571 27.7032 67.5885 28.232 67.963L33.4161 71.6393C33.6203 71.784 33.8566 71.8547 34.0913 71.8547C34.4578 71.8547 34.8194 71.6827 35.0461 71.3612C35.419 70.8355 35.2969 70.1041 34.768 69.7296L31.5145 67.4229C48.8752 67.4165 62.9984 53.2884 62.9984 35.9261Z" fill="#F7C948"/>
<path d="M31.1801 6.78285L27.9539 9.07028C27.4267 9.44482 27.3029 10.1746 27.6758 10.7019C27.9025 11.0234 28.2642 11.1954 28.6307 11.1954C28.8654 11.1954 29.1 11.1246 29.3058 10.98L34.4899 7.30528C34.7439 7.12524 34.9143 6.85358 34.9657 6.54655C35.0188 6.24113 34.9464 5.92767 34.7664 5.67369L31.0917 0.491207C30.7188 -0.0360431 29.9874 -0.154996 29.4617 0.213115C28.9345 0.587656 28.8107 1.31745 29.1836 1.8447L31.0306 4.45041C13.8805 4.70439 0 18.7151 0 35.9247C0 36.5709 0.524035 37.0949 1.17024 37.0949C1.81644 37.0949 2.34048 36.5709 2.34048 35.9247C2.34208 19.9577 15.2501 6.95806 31.1801 6.78285Z" fill="#F7C948"/>
</svg>
