<svg width="58" height="64" viewBox="0 0 58 64" fill="none" xmlns="http://www.w3.org/2000/svg">
<path d="M29 8V41.6C29 46.6405 29 49.1607 29.9809 51.0859C30.8438 52.7794 32.2206 54.1562 33.9141 55.019C35.8393 56 38.3595 56 43.4 56H44M44 56C44 59.3137 46.6863 62 50 62C53.3137 62 56 59.3137 56 56C56 52.6863 53.3137 50 50 50C46.6863 50 44 52.6863 44 56ZM14 8L44 8M14 8C14 11.3137 11.3137 14 8 14C4.68629 14 2 11.3137 2 8C2 4.68629 4.68629 2 8 2C11.3137 2 14 4.68629 14 8ZM44 8C44 11.3137 46.6863 14 50 14C53.3137 14 56 11.3137 56 8C56 4.68629 53.3137 2 50 2C46.6863 2 44 4.68629 44 8ZM29 32H44M44 32C44 35.3137 46.6863 38 50 38C53.3137 38 56 35.3137 56 32C56 28.6863 53.3137 26 50 26C46.6863 26 44 28.6863 44 32Z" stroke="#F7C948" stroke-width="3" stroke-linecap="round" stroke-linejoin="round"/>
</svg>
